<svg class="brand__logo" version="1.1" id="Layer_1" xmlns="http://www.w3.org/2000/svg" x="0" y="0" viewBox="0 0 312 95.5" xml:space="preserve"><path d="M71.4 47.1c-12-12.7-20.8-28-25.6-44.8-.4-1.4-1.6-2.3-3-2.3H29.5c-1.4 0-2.6 1-3 2.3C21.7 19.1 12.9 34.4.9 47.1c-1 1-1.2 2.6-.5 3.8L7 62.4c.7 1.2 2.1 1.8 3.5 1.5 8.4-2.1 17-3.1 25.6-3.1 8.6 0 17.3 1 25.6 3.1 1.4.4 2.8-.3 3.5-1.5l6.6-11.6c.7-1.2.5-2.7-.4-3.7zm-14.7 9.7l-46.6-10c-.2-.1-.4-.3-.3-.5 0-.1 0-.1.1-.2l31.9-35.8c.1-.2.4-.2.5 0l.1.1 14.8 45.8c.1.2-.1.5-.3.5-.1.1-.1.1-.2.1z" fill="#fa4616" transform="translate(-.002)"></path><path class="st1" d="M18.5 0L0 42.2h8.6l4.2-9.9h18.5l4.2 9.9h8.8L25.9 0h-7.4zm-2.6 24.9l6.2-14.3 6.2 14.3H15.9zM58.9.3h-8.3v41.9h29.8v-7.7H58.9V.3zM129.4 0l-18.5 42.2h8.6l4.2-9.9h18.5l4.2 9.9h8.8L136.7 0h-7.3zm-2.6 24.9l6.2-14.3 6.2 14.3h-12.4zM162.2.3h8.3v41.9h-8.3zM207.3 26.5c6-1.9 9.4-6.5 9.4-12.7 0-8.3-6-13.5-15.7-13.5h-18.8v41.9h8.3V28h8.1l10.1 14.3h9.9l-11.3-15.8zM190.5 8h9.9c5.1 0 7.9 2.2 7.9 6.3 0 3.9-3 6.3-7.9 6.3h-9.9V8zM77.9.3v8h12.9v34h8.5v-34h12.9v-8H77.9z" transform="translate(93.473 10.862)"></path><g><path class="brand__logo-tagline" d="M93.5 84.8c0-4.9 3.7-8.9 9-8.9s8.9 4 8.9 8.8c0 4.8-3.7 8.8-9 8.8-5.3.1-8.9-3.9-8.9-8.7zm14.7 0c0-3.4-2.4-6.1-5.8-6.1s-5.8 2.7-5.8 6 2.4 6.1 5.8 6.1 5.8-2.7 5.8-6zM115.9 76.2h2.8l9.2 11.8V76.2h3v17.1h-2.5L119 81.1v12.2h-3V76.2zM136 76.2h3v14.4h9v2.7h-12V76.2zM153.9 86.5l-6.8-10.4h3.6l4.8 7.6 4.8-7.6h3.4l-6.8 10.3v6.8h-3v-6.7zM175.4 76.2h12.7v2.7h-9.7v4.7h8.6v2.7h-8.6v7h-3V76.2zM191.3 84.8c0-4.9 3.7-8.9 9-8.9s8.9 4 8.9 8.8c0 4.8-3.7 8.8-9 8.8s-8.9-3.9-8.9-8.7zm14.8 0c0-3.4-2.4-6.1-5.8-6.1s-5.8 2.7-5.8 6 2.4 6.1 5.8 6.1 5.8-2.7 5.8-6zM213.7 76.2h7.6c2.2 0 3.8.6 4.9 1.7.9.9 1.4 2.2 1.4 3.7 0 2.8-1.7 4.5-4.1 5.2l4.6 6.5h-3.6l-4.2-6h-3.8v6h-3V76.2zm7.4 8.4c2.2 0 3.5-1.1 3.5-2.9 0-1.8-1.3-2.8-3.5-2.8h-4.4v5.7h4.4zM230.6 76.2h3.3l4.1 12.7 4.2-12.7h2.5l4.2 12.7 4.1-12.7h3.2l-5.9 17.2h-2.6l-4.2-12.3-4.2 12.3h-2.6l-6.1-17.2zM263.9 76h2.8l7.5 17.2H271l-1.7-4.1h-8.1l-1.8 4.1h-3.1l7.6-17.2zm4.3 10.5l-3-6.8-2.9 6.8h5.9zM278 76.2h7.6c2.2 0 3.8.6 4.9 1.7.9.9 1.4 2.2 1.4 3.7 0 2.8-1.7 4.5-4.1 5.2l4.6 6.5h-3.6l-4.2-6H281v6h-3V76.2zm7.4 8.4c2.2 0 3.5-1.1 3.5-2.9 0-1.8-1.3-2.8-3.5-2.8H281v5.7h4.4zM296.5 76.2h6.4c5.4 0 9.1 3.7 9.1 8.5s-3.7 8.6-9.1 8.6h-6.4V76.2zm3 2.7v11.6h3.4c3.6 0 5.9-2.4 5.9-5.8 0-3.3-2.3-5.8-5.9-5.8h-3.4z"></path></g></svg>