<svg width="48" height="42" viewBox="0 0 48 42" fill="none" xmlns="http://www.w3.org/2000/svg">
<path d="M46.6025 5.60036C46.5996 5.60036 46.5967 5.6 46.5938 5.6H33.8438V4.2C33.8438 1.88417 31.9512 0 29.625 0H18.375C16.0488 0 14.1562 1.88417 14.1562 4.2V5.6H1.40625C0.623291 5.6 0 6.23875 0 7V37.8C0 40.1158 1.89258 42 4.21875 42H43.7812C46.1074 42 48 40.1158 48 37.8V7.02953C48 7.02771 48 7.02589 48 7.02406C47.9462 6.10458 47.3782 5.60547 46.6025 5.60036ZM16.9688 4.2C16.9688 3.42818 17.5997 2.8 18.375 2.8H29.625C30.4003 2.8 31.0312 3.42818 31.0312 4.2V5.6H16.9688V4.2ZM44.6426 8.4L40.2755 21.4426C40.084 22.0154 39.5479 22.4 38.9418 22.4H31.0312V21C31.0312 20.2267 30.4017 19.6 29.625 19.6H18.375C17.5983 19.6 16.9688 20.2267 16.9688 21V22.4H9.05823C8.45215 22.4 7.91602 22.0154 7.72449 21.4426L3.35742 8.4H44.6426ZM28.2188 22.4V25.2H19.7812V22.4H28.2188ZM45.1875 37.8C45.1875 38.5718 44.5565 39.2 43.7812 39.2H4.21875C3.44348 39.2 2.8125 38.5718 2.8125 37.8V15.6271L5.05627 22.3282C5.63123 24.0461 7.23962 25.2 9.05823 25.2H16.9688V26.6C16.9688 27.3733 17.5983 28 18.375 28H29.625C30.4017 28 31.0312 27.3733 31.0312 26.6V25.2H38.9418C40.7604 25.2 42.3688 24.0461 42.9437 22.3282L45.1875 15.6271V37.8Z" fill="#CBD5E1"/>
</svg>
