<svg width="31" height="33" viewBox="0 0 31 33" fill="none" xmlns="http://www.w3.org/2000/svg">
<path d="M20.5109 1.73769C17.6601 1.73769 15.3406 4.02195 15.3406 6.82959C15.3406 8.55116 16.2143 10.0755 17.5475 10.9966C17.5724 11.0178 17.5992 11.0365 17.628 11.0526C18.452 11.5999 19.4448 11.9195 20.5116 11.9195C21.5783 11.9195 22.5705 11.5999 23.3951 11.0526C23.4239 11.0365 23.4508 11.0178 23.4756 10.9966C24.8088 10.0749 25.6825 8.55116 25.6825 6.82959C25.6818 4.02195 23.3624 1.73769 20.5109 1.73769ZM18.4127 10.3224C18.4493 9.13319 19.7275 8.81285 20.488 8.81285C21.0626 8.81285 21.615 8.96883 22.0031 9.24018C22.3918 9.51153 22.5954 9.8757 22.6098 10.3224C21.9946 10.682 21.2773 10.8896 20.5109 10.8896C19.7452 10.8896 19.0279 10.682 18.4127 10.3224ZM20.5109 7.09449C20.0089 7.09449 19.5999 6.69294 19.5999 6.19922C19.5999 5.70486 20.0083 5.30202 20.5109 5.30202C21.0129 5.30202 21.4219 5.70421 21.4219 6.19922C21.4219 6.69294 21.0135 7.09449 20.5109 7.09449ZM23.5306 9.59081C23.2237 8.69232 22.3938 8.12061 21.4402 7.89373C22.0522 7.56759 22.4684 6.93014 22.4684 6.19922C22.4684 5.13637 21.5901 4.27139 20.5109 4.27139C19.4317 4.27139 18.5534 5.13637 18.5534 6.19922C18.5534 6.92433 18.9631 7.55728 19.5672 7.88535C19.1287 7.9859 18.7275 8.15864 18.3931 8.39518C17.9565 8.70457 17.6496 9.11514 17.4906 9.58952C16.806 8.86441 16.3865 7.89437 16.3865 6.82894C16.3865 4.58915 18.2366 2.76767 20.5102 2.76767C22.7839 2.76767 24.634 4.5898 24.634 6.82894C24.6353 7.89502 24.2152 8.8657 23.5306 9.59081ZM28.4142 0H12.6082C11.1822 0 10.0218 1.30649 10.0218 2.91205V10.7445C10.0218 12.3514 11.1822 13.6585 12.6082 13.6585H20.0325C20.4854 13.6585 20.8702 13.8396 21.2073 14.2128L24.511 17.8668C24.7204 18.0988 24.9992 18.2193 25.2819 18.2193C25.4757 18.2193 25.6714 18.1626 25.8487 18.0472C26.2394 17.7888 26.4325 17.3079 26.3402 16.8239L25.7748 13.8338C25.7591 13.7494 25.782 13.7036 25.8029 13.674C25.8075 13.6676 25.8114 13.6624 25.8147 13.6592H28.4142C29.8403 13.6592 31 12.352 31 10.7452V2.91269C31 1.30649 29.8403 0 28.4142 0ZM29.9542 10.7452C29.9542 11.7836 29.2637 12.6292 28.4142 12.6292H25.8022C25.4515 12.6292 25.1445 12.7948 24.9384 13.0939C24.7518 13.3614 24.6838 13.6908 24.7459 14.0227L25.3121 17.014C25.3251 17.0823 25.3094 17.1416 25.2852 17.1739L21.9893 13.529C21.4494 12.9321 20.791 12.6292 20.0331 12.6292H12.6082C11.7738 12.6292 11.0683 11.7668 11.0683 10.7452V2.91269C11.0683 1.89238 11.7732 1.03063 12.6082 1.03063H28.4142C29.2631 1.03063 29.9542 1.87498 29.9542 2.91269V10.7452ZM10.4878 16.5164C7.6376 16.5164 5.31948 18.8007 5.31948 21.6083C5.31948 23.3415 6.20366 24.8742 7.5499 25.7946C7.56037 25.8024 7.57084 25.8101 7.58197 25.8172C8.41052 26.3741 9.41119 26.7002 10.4878 26.7002C11.5624 26.7002 12.5618 26.3754 13.3897 25.8204C13.4087 25.8088 13.427 25.7966 13.444 25.7824C14.7811 24.8613 15.6587 23.3338 15.6587 21.6083C15.6581 18.8007 13.3386 16.5164 10.4878 16.5164ZM8.39088 25.1037C8.40463 24.6564 8.60817 24.2916 8.99757 24.0196C9.38567 23.7482 9.93804 23.5922 10.512 23.5922C11.2725 23.5922 12.5507 23.9126 12.586 25.103C11.9708 25.4627 11.2535 25.6702 10.4878 25.6702C9.72206 25.6702 9.00543 25.4627 8.39088 25.1037ZM10.4878 21.8752C9.98647 21.8752 9.57874 21.473 9.57874 20.978C9.57874 20.4836 9.98647 20.0808 10.4878 20.0808C10.9898 20.0808 11.3988 20.483 11.3988 20.978C11.3988 21.473 10.9898 21.8752 10.4878 21.8752ZM13.5081 24.3702C13.3491 23.8958 13.0428 23.4846 12.6056 23.1752C12.2719 22.9387 11.8713 22.7659 11.4335 22.6654C12.0362 22.3367 12.4446 21.7037 12.4446 20.9786C12.4446 19.9158 11.5663 19.0508 10.4871 19.0508C9.40923 19.0508 8.53159 19.9158 8.53159 20.9786C8.53159 21.7089 8.94587 22.345 9.55452 22.6725C9.12257 22.775 8.72532 22.9464 8.39154 23.1797C7.9465 23.491 7.63367 23.9016 7.47136 24.3741C6.78548 23.6483 6.36532 22.6763 6.36532 21.6096C6.36532 19.3698 8.21483 17.5483 10.4878 17.5483C12.762 17.5483 14.6116 19.3705 14.6116 21.6096C14.6116 22.6744 14.1921 23.6451 13.5081 24.3702ZM18.3924 14.7794H2.58448C1.15971 14.7794 0 16.0859 0 17.6914V25.5239C0 27.1308 1.15906 28.4379 2.58448 28.4379H5.18597C5.18859 28.4411 5.19252 28.4457 5.1971 28.4521C5.21673 28.4811 5.2416 28.5294 5.2259 28.6126L4.66044 31.6046C4.56751 32.0905 4.76123 32.5707 5.1539 32.8292C5.3293 32.9439 5.52433 33 5.7174 33C6.00013 33 6.27958 32.8795 6.48901 32.6474L9.7934 28.9929C10.1291 28.6203 10.5133 28.4392 10.9675 28.4392H18.3917C19.8165 28.4392 20.9762 27.1321 20.9762 25.5252V17.6914C20.9769 16.0859 19.8178 14.7794 18.3924 14.7794ZM19.9304 25.5239C19.9304 26.5449 19.2262 27.4079 18.3924 27.4079H10.9682C10.2077 27.4079 9.54928 27.7109 9.01197 28.3077L5.71544 31.9533C5.69122 31.9217 5.67551 31.863 5.6886 31.7941L6.25471 28.8008C6.31623 28.4734 6.24882 28.1453 6.06361 27.8752C5.85942 27.5781 5.54396 27.4079 5.19841 27.4079H2.58448C1.75069 27.4079 1.04649 26.5455 1.04649 25.5239V17.6914C1.04649 16.6537 1.73629 15.8094 2.58448 15.8094H18.3924C19.2406 15.8094 19.9304 16.6537 19.9304 17.6914V25.5239Z" fill="black"/>
<path d="M20.5109 1.73769C17.6601 1.73769 15.3406 4.02195 15.3406 6.82959C15.3406 8.55116 16.2143 10.0755 17.5475 10.9966C17.5724 11.0178 17.5992 11.0365 17.628 11.0526C18.452 11.5999 19.4448 11.9195 20.5116 11.9195C21.5783 11.9195 22.5705 11.5999 23.3951 11.0526C23.4239 11.0365 23.4508 11.0178 23.4756 10.9966C24.8088 10.0749 25.6825 8.55116 25.6825 6.82959C25.6818 4.02195 23.3624 1.73769 20.5109 1.73769ZM18.4127 10.3224C18.4493 9.13319 19.7275 8.81285 20.488 8.81285C21.0626 8.81285 21.615 8.96883 22.0031 9.24018C22.3918 9.51153 22.5954 9.8757 22.6098 10.3224C21.9946 10.682 21.2773 10.8896 20.5109 10.8896C19.7452 10.8896 19.0279 10.682 18.4127 10.3224ZM20.5109 7.09449C20.0089 7.09449 19.5999 6.69294 19.5999 6.19922C19.5999 5.70486 20.0083 5.30202 20.5109 5.30202C21.0129 5.30202 21.4219 5.70421 21.4219 6.19922C21.4219 6.69294 21.0135 7.09449 20.5109 7.09449ZM23.5306 9.59081C23.2237 8.69232 22.3938 8.12061 21.4402 7.89373C22.0522 7.56759 22.4684 6.93014 22.4684 6.19922C22.4684 5.13637 21.5901 4.27139 20.5109 4.27139C19.4317 4.27139 18.5534 5.13637 18.5534 6.19922C18.5534 6.92433 18.9631 7.55728 19.5672 7.88535C19.1287 7.9859 18.7275 8.15864 18.3931 8.39518C17.9565 8.70457 17.6496 9.11514 17.4906 9.58952C16.806 8.86441 16.3865 7.89437 16.3865 6.82894C16.3865 4.58915 18.2366 2.76767 20.5102 2.76767C22.7839 2.76767 24.634 4.5898 24.634 6.82894C24.6353 7.89502 24.2152 8.8657 23.5306 9.59081ZM28.4142 0H12.6082C11.1822 0 10.0218 1.30649 10.0218 2.91205V10.7445C10.0218 12.3514 11.1822 13.6585 12.6082 13.6585H20.0325C20.4854 13.6585 20.8702 13.8396 21.2073 14.2128L24.511 17.8668C24.7204 18.0988 24.9992 18.2193 25.2819 18.2193C25.4757 18.2193 25.6714 18.1626 25.8487 18.0472C26.2394 17.7888 26.4325 17.3079 26.3402 16.8239L25.7748 13.8338C25.7591 13.7494 25.782 13.7036 25.8029 13.674C25.8075 13.6676 25.8114 13.6624 25.8147 13.6592H28.4142C29.8403 13.6592 31 12.352 31 10.7452V2.91269C31 1.30649 29.8403 0 28.4142 0ZM29.9542 10.7452C29.9542 11.7836 29.2637 12.6292 28.4142 12.6292H25.8022C25.4515 12.6292 25.1445 12.7948 24.9384 13.0939C24.7518 13.3614 24.6838 13.6908 24.7459 14.0227L25.3121 17.014C25.3251 17.0823 25.3094 17.1416 25.2852 17.1739L21.9893 13.529C21.4494 12.9321 20.791 12.6292 20.0331 12.6292H12.6082C11.7738 12.6292 11.0683 11.7668 11.0683 10.7452V2.91269C11.0683 1.89238 11.7732 1.03063 12.6082 1.03063H28.4142C29.2631 1.03063 29.9542 1.87498 29.9542 2.91269V10.7452ZM10.4878 16.5164C7.6376 16.5164 5.31948 18.8007 5.31948 21.6083C5.31948 23.3415 6.20366 24.8742 7.5499 25.7946C7.56037 25.8024 7.57084 25.8101 7.58197 25.8172C8.41052 26.3741 9.41119 26.7002 10.4878 26.7002C11.5624 26.7002 12.5618 26.3754 13.3897 25.8204C13.4087 25.8088 13.427 25.7966 13.444 25.7824C14.7811 24.8613 15.6587 23.3338 15.6587 21.6083C15.6581 18.8007 13.3386 16.5164 10.4878 16.5164ZM8.39088 25.1037C8.40463 24.6564 8.60817 24.2916 8.99757 24.0196C9.38567 23.7482 9.93804 23.5922 10.512 23.5922C11.2725 23.5922 12.5507 23.9126 12.586 25.103C11.9708 25.4627 11.2535 25.6702 10.4878 25.6702C9.72206 25.6702 9.00543 25.4627 8.39088 25.1037ZM10.4878 21.8752C9.98647 21.8752 9.57874 21.473 9.57874 20.978C9.57874 20.4836 9.98647 20.0808 10.4878 20.0808C10.9898 20.0808 11.3988 20.483 11.3988 20.978C11.3988 21.473 10.9898 21.8752 10.4878 21.8752ZM13.5081 24.3702C13.3491 23.8958 13.0428 23.4846 12.6056 23.1752C12.2719 22.9387 11.8713 22.7659 11.4335 22.6654C12.0362 22.3367 12.4446 21.7037 12.4446 20.9786C12.4446 19.9158 11.5663 19.0508 10.4871 19.0508C9.40923 19.0508 8.53159 19.9158 8.53159 20.9786C8.53159 21.7089 8.94587 22.345 9.55452 22.6725C9.12257 22.775 8.72532 22.9464 8.39154 23.1797C7.9465 23.491 7.63367 23.9016 7.47136 24.3741C6.78548 23.6483 6.36532 22.6763 6.36532 21.6096C6.36532 19.3698 8.21483 17.5483 10.4878 17.5483C12.762 17.5483 14.6116 19.3705 14.6116 21.6096C14.6116 22.6744 14.1921 23.6451 13.5081 24.3702ZM18.3924 14.7794H2.58448C1.15971 14.7794 0 16.0859 0 17.6914V25.5239C0 27.1308 1.15906 28.4379 2.58448 28.4379H5.18597C5.18859 28.4411 5.19252 28.4457 5.1971 28.4521C5.21673 28.4811 5.2416 28.5294 5.2259 28.6126L4.66044 31.6046C4.56751 32.0905 4.76123 32.5707 5.1539 32.8292C5.3293 32.9439 5.52433 33 5.7174 33C6.00013 33 6.27958 32.8795 6.48901 32.6474L9.7934 28.9929C10.1291 28.6203 10.5133 28.4392 10.9675 28.4392H18.3917C19.8165 28.4392 20.9762 27.1321 20.9762 25.5252V17.6914C20.9769 16.0859 19.8178 14.7794 18.3924 14.7794ZM19.9304 25.5239C19.9304 26.5449 19.2262 27.4079 18.3924 27.4079H10.9682C10.2077 27.4079 9.54928 27.7109 9.01197 28.3077L5.71544 31.9533C5.69122 31.9217 5.67551 31.863 5.6886 31.7941L6.25471 28.8008C6.31623 28.4734 6.24882 28.1453 6.06361 27.8752C5.85942 27.5781 5.54396 27.4079 5.19841 27.4079H2.58448C1.75069 27.4079 1.04649 26.5455 1.04649 25.5239V17.6914C1.04649 16.6537 1.73629 15.8094 2.58448 15.8094H18.3924C19.2406 15.8094 19.9304 16.6537 19.9304 17.6914V25.5239Z" fill="url(#paint0_linear_619_1014)"/>
<defs>
<linearGradient id="paint0_linear_619_1014" x1="0.615385" y1="16.9231" x2="30.7448" y2="16.9825" gradientUnits="userSpaceOnUse">
<stop stop-color="#4E54C8"/>
<stop offset="1" stop-color="#8F94FB"/>
</linearGradient>
</defs>
</svg>
