<svg width="53" height="46" viewBox="0 0 53 46" fill="none" xmlns="http://www.w3.org/2000/svg">
<path d="M26.0551 0C18.8992 0 12.4103 2.90204 7.69679 7.58823C7.67632 7.60622 7.65026 7.61242 7.63103 7.63165C7.6118 7.65088 7.6056 7.67694 7.58761 7.69741C2.90204 12.4103 0 18.8992 0 26.0551C0 32.3492 2.27361 38.4244 6.40458 43.1646C6.90707 43.7434 7.77806 43.8054 8.35809 43.3134L13.803 38.7005C14.4004 38.1973 14.4655 37.2972 13.9481 36.7122C11.3526 33.768 9.9245 29.9819 9.9245 26.0544C9.9245 17.1597 17.1597 9.9245 26.0544 9.9245C29.7568 9.9245 33.3753 11.2111 36.2395 13.5449C37.6645 14.7081 39.4343 12.5486 38.0026 11.3823C35.0031 8.93627 31.2996 7.48029 27.4503 7.19368V2.86171C39.6279 3.59002 49.3185 13.6988 49.3185 26.0551C49.3185 31.2059 47.6119 36.1967 44.4859 40.2514L41.162 37.4486C43.6317 34.1774 44.9766 30.1842 44.9766 26.0551C44.9766 24.2194 44.713 22.4018 44.1931 20.6517C43.6609 18.8695 40.9964 19.6939 41.5175 21.4477C41.9592 22.9378 42.1844 24.488 42.1844 26.0551C42.1844 29.9807 40.7576 33.7649 38.1657 36.7072C37.6514 37.2885 37.7091 38.1887 38.3127 38.6974L43.7669 43.2973C44.3488 43.7899 45.2211 43.721 45.7186 43.1466C49.8402 38.4101 52.1101 32.3399 52.1101 26.0551C52.1101 11.6882 40.422 0 26.0551 0ZM13.7161 11.7409L10.6472 8.67262C14.4283 5.3171 19.2975 3.18244 24.6593 2.86171V7.20361C20.4923 7.51068 16.7013 9.16394 13.7161 11.7409ZM10.9555 37.456L7.63662 40.2675C4.78731 36.577 3.12909 32.1085 2.84931 27.4509H7.19058C7.45857 31.0806 8.76195 34.5527 10.9555 37.456ZM7.20423 24.6593H2.86234C3.18306 19.2969 5.31772 14.4277 8.67324 10.6466L11.7422 13.7143C9.16456 16.7001 7.51068 20.4917 7.20423 24.6593Z" fill="black"/>
<path d="M26.0551 0C18.8992 0 12.4103 2.90204 7.69679 7.58823C7.67632 7.60622 7.65026 7.61242 7.63103 7.63165C7.6118 7.65088 7.6056 7.67694 7.58761 7.69741C2.90204 12.4103 0 18.8992 0 26.0551C0 32.3492 2.27361 38.4244 6.40458 43.1646C6.90707 43.7434 7.77806 43.8054 8.35809 43.3134L13.803 38.7005C14.4004 38.1973 14.4655 37.2972 13.9481 36.7122C11.3526 33.768 9.9245 29.9819 9.9245 26.0544C9.9245 17.1597 17.1597 9.9245 26.0544 9.9245C29.7568 9.9245 33.3753 11.2111 36.2395 13.5449C37.6645 14.7081 39.4343 12.5486 38.0026 11.3823C35.0031 8.93627 31.2996 7.48029 27.4503 7.19368V2.86171C39.6279 3.59002 49.3185 13.6988 49.3185 26.0551C49.3185 31.2059 47.6119 36.1967 44.4859 40.2514L41.162 37.4486C43.6317 34.1774 44.9766 30.1842 44.9766 26.0551C44.9766 24.2194 44.713 22.4018 44.1931 20.6517C43.6609 18.8695 40.9964 19.6939 41.5175 21.4477C41.9592 22.9378 42.1844 24.488 42.1844 26.0551C42.1844 29.9807 40.7576 33.7649 38.1657 36.7072C37.6514 37.2885 37.7091 38.1887 38.3127 38.6974L43.7669 43.2973C44.3488 43.7899 45.2211 43.721 45.7186 43.1466C49.8402 38.4101 52.1101 32.3399 52.1101 26.0551C52.1101 11.6882 40.422 0 26.0551 0ZM13.7161 11.7409L10.6472 8.67262C14.4283 5.3171 19.2975 3.18244 24.6593 2.86171V7.20361C20.4923 7.51068 16.7013 9.16394 13.7161 11.7409ZM10.9555 37.456L7.63662 40.2675C4.78731 36.577 3.12909 32.1085 2.84931 27.4509H7.19058C7.45857 31.0806 8.76195 34.5527 10.9555 37.456ZM7.20423 24.6593H2.86234C3.18306 19.2969 5.31772 14.4277 8.67324 10.6466L11.7422 13.7143C9.16456 16.7001 7.51068 20.4917 7.20423 24.6593Z" fill="url(#paint0_linear_522_9248)"/>
<path d="M26.0551 0C18.8992 0 12.4103 2.90204 7.69679 7.58823C7.67632 7.60622 7.65026 7.61242 7.63103 7.63165C7.6118 7.65088 7.6056 7.67694 7.58761 7.69741C2.90204 12.4103 0 18.8992 0 26.0551C0 32.3492 2.27361 38.4244 6.40458 43.1646C6.90707 43.7434 7.77806 43.8054 8.35809 43.3134L13.803 38.7005C14.4004 38.1973 14.4655 37.2972 13.9481 36.7122C11.3526 33.768 9.9245 29.9819 9.9245 26.0544C9.9245 17.1597 17.1597 9.9245 26.0544 9.9245C29.7568 9.9245 33.3753 11.2111 36.2395 13.5449C37.6645 14.7081 39.4343 12.5486 38.0026 11.3823C35.0031 8.93627 31.2996 7.48029 27.4503 7.19368V2.86171C39.6279 3.59002 49.3185 13.6988 49.3185 26.0551C49.3185 31.2059 47.6119 36.1967 44.4859 40.2514L41.162 37.4486C43.6317 34.1774 44.9766 30.1842 44.9766 26.0551C44.9766 24.2194 44.713 22.4018 44.1931 20.6517C43.6609 18.8695 40.9964 19.6939 41.5175 21.4477C41.9592 22.9378 42.1844 24.488 42.1844 26.0551C42.1844 29.9807 40.7576 33.7649 38.1657 36.7072C37.6514 37.2885 37.7091 38.1887 38.3127 38.6974L43.7669 43.2973C44.3488 43.7899 45.2211 43.721 45.7186 43.1466C49.8402 38.4101 52.1101 32.3399 52.1101 26.0551C52.1101 11.6882 40.422 0 26.0551 0ZM13.7161 11.7409L10.6472 8.67262C14.4283 5.3171 19.2975 3.18244 24.6593 2.86171V7.20361C20.4923 7.51068 16.7013 9.16394 13.7161 11.7409ZM10.9555 37.456L7.63662 40.2675C4.78731 36.577 3.12909 32.1085 2.84931 27.4509H7.19058C7.45857 31.0806 8.76195 34.5527 10.9555 37.456ZM7.20423 24.6593H2.86234C3.18306 19.2969 5.31772 14.4277 8.67324 10.6466L11.7422 13.7143C9.16456 16.7001 7.51068 20.4917 7.20423 24.6593Z" fill="url(#paint1_linear_522_9248)"/>
<path d="M29.2144 33.1594C30.5283 31.8436 41.4007 17.5871 42.6364 15.9661C43.5918 14.7118 42.0415 13.0901 40.7518 13.9599C37.949 15.8266 23.8985 25.2101 22.5809 26.5277C20.7527 28.3559 20.7527 31.3312 22.5809 33.1594C24.4053 34.9839 27.3818 34.9913 29.2144 33.1594ZM24.5542 28.5011C25.1647 27.8994 30.13 24.4793 35.2554 21.0115C31.4824 25.9148 27.8496 30.575 27.2404 31.1854C25.4643 32.9621 22.7775 30.2778 24.5542 28.5011Z" fill="black"/>
<path d="M29.2144 33.1594C30.5283 31.8436 41.4007 17.5871 42.6364 15.9661C43.5918 14.7118 42.0415 13.0901 40.7518 13.9599C37.949 15.8266 23.8985 25.2101 22.5809 26.5277C20.7527 28.3559 20.7527 31.3312 22.5809 33.1594C24.4053 34.9839 27.3818 34.9913 29.2144 33.1594ZM24.5542 28.5011C25.1647 27.8994 30.13 24.4793 35.2554 21.0115C31.4824 25.9148 27.8496 30.575 27.2404 31.1854C25.4643 32.9621 22.7775 30.2778 24.5542 28.5011Z" fill="url(#paint2_linear_522_9248)"/>
<path d="M29.2144 33.1594C30.5283 31.8436 41.4007 17.5871 42.6364 15.9661C43.5918 14.7118 42.0415 13.0901 40.7518 13.9599C37.949 15.8266 23.8985 25.2101 22.5809 26.5277C20.7527 28.3559 20.7527 31.3312 22.5809 33.1594C24.4053 34.9839 27.3818 34.9913 29.2144 33.1594ZM24.5542 28.5011C25.1647 27.8994 30.13 24.4793 35.2554 21.0115C31.4824 25.9148 27.8496 30.575 27.2404 31.1854C25.4643 32.9621 22.7775 30.2778 24.5542 28.5011Z" fill="url(#paint3_linear_522_9248)"/>
<path d="M21.254 40.711H30.8609C32.7083 40.711 32.7083 37.9194 30.8609 37.9194H21.254C19.4066 37.9194 19.4066 40.711 21.254 40.711Z" fill="black"/>
<path d="M21.254 40.711H30.8609C32.7083 40.711 32.7083 37.9194 30.8609 37.9194H21.254C19.4066 37.9194 19.4066 40.711 21.254 40.711Z" fill="url(#paint4_linear_522_9248)"/>
<path d="M21.254 40.711H30.8609C32.7083 40.711 32.7083 37.9194 30.8609 37.9194H21.254C19.4066 37.9194 19.4066 40.711 21.254 40.711Z" fill="url(#paint5_linear_522_9248)"/>
<path d="M37.8001 43.2082H14.304C12.4566 43.2082 12.4566 45.9998 14.304 45.9998H37.8001C39.6469 45.9998 39.6469 43.2082 37.8001 43.2082Z" fill="black"/>
<path d="M37.8001 43.2082H14.304C12.4566 43.2082 12.4566 45.9998 14.304 45.9998H37.8001C39.6469 45.9998 39.6469 43.2082 37.8001 43.2082Z" fill="url(#paint6_linear_522_9248)"/>
<path d="M37.8001 43.2082H14.304C12.4566 43.2082 12.4566 45.9998 14.304 45.9998H37.8001C39.6469 45.9998 39.6469 43.2082 37.8001 43.2082Z" fill="url(#paint7_linear_522_9248)"/>
<defs>
<linearGradient id="paint0_linear_522_9248" x1="6.83945" y1="8.72888" x2="37.202" y2="41.3884" gradientUnits="userSpaceOnUse">
<stop stop-color="#1E3C72"/>
<stop offset="1" stop-color="#2A5298"/>
</linearGradient>
<linearGradient id="paint1_linear_522_9248" x1="1.03444" y1="22.3817" x2="51.6811" y2="22.5088" gradientUnits="userSpaceOnUse">
<stop stop-color="#4E54C8"/>
<stop offset="1" stop-color="#8F94FB"/>
</linearGradient>
<linearGradient id="paint2_linear_522_9248" x1="24.0609" y1="17.8774" x2="38.5534" y2="31.5023" gradientUnits="userSpaceOnUse">
<stop stop-color="#1E3C72"/>
<stop offset="1" stop-color="#2A5298"/>
</linearGradient>
<linearGradient id="paint3_linear_522_9248" x1="21.6409" y1="24.3892" x2="42.7539" y2="24.4355" gradientUnits="userSpaceOnUse">
<stop stop-color="#4E54C8"/>
<stop offset="1" stop-color="#8F94FB"/>
</linearGradient>
<linearGradient id="paint4_linear_522_9248" x1="21.493" y1="38.4778" x2="22.4105" y2="42.1426" gradientUnits="userSpaceOnUse">
<stop stop-color="#1E3C72"/>
<stop offset="1" stop-color="#2A5298"/>
</linearGradient>
<linearGradient id="paint5_linear_522_9248" x1="20.1141" y1="39.351" x2="32.1435" y2="39.4631" gradientUnits="userSpaceOnUse">
<stop stop-color="#4E54C8"/>
<stop offset="1" stop-color="#8F94FB"/>
</linearGradient>
<linearGradient id="paint6_linear_522_9248" x1="16.366" y1="43.7665" x2="16.8191" y2="47.6076" gradientUnits="userSpaceOnUse">
<stop stop-color="#1E3C72"/>
<stop offset="1" stop-color="#2A5298"/>
</linearGradient>
<linearGradient id="paint7_linear_522_9248" x1="13.4399" y1="44.6398" x2="38.9592" y2="45.1443" gradientUnits="userSpaceOnUse">
<stop stop-color="#4E54C8"/>
<stop offset="1" stop-color="#8F94FB"/>
</linearGradient>
</defs>
</svg>
