<svg width="43" height="42" viewBox="0 0 43 42" fill="none" xmlns="http://www.w3.org/2000/svg">
<path d="M40.8359 39.5351H39.4281V23.2924C39.4281 22.6117 38.8763 22.0599 38.1956 22.0599H32.9152C32.2346 22.0599 31.6827 22.6117 31.6827 23.2924V39.5351H28.8672V29.3897C28.8672 28.709 28.3154 28.1572 27.6347 28.1572H22.3542C21.6736 28.1572 21.1218 28.709 21.1218 29.3897V39.5351H18.3063V35.487C18.3063 34.8064 17.7545 34.2546 17.0738 34.2546H11.7934C11.1127 34.2546 10.5609 34.8064 10.5609 35.487V39.5351H7.74543V20.517C14.2464 22.3662 21.0486 17.185 20.9465 10.4048C20.4203 -3.46941 0.524786 -3.46719 0 10.405C0 14.2916 2.12823 17.6903 5.28048 19.4976V40.7675C5.28048 41.4482 5.8323 42 6.51295 42H40.8359C42.4589 41.944 42.478 39.5989 40.8359 39.5351ZM2.46494 10.4049C2.46494 5.98915 6.05752 2.39658 10.4733 2.39658C21.0828 2.79919 21.0799 18.0122 10.4732 18.4132C6.05752 18.4132 2.46494 14.8207 2.46494 10.4049ZM15.8414 39.5351H13.0258V36.7195H15.8414V39.5351ZM26.4023 39.5351H23.5867V30.6221H26.4023V39.5351ZM36.9631 39.5351H34.1477V24.5249H36.9632V39.5351H36.9631Z" fill="black"/>
<path d="M40.8359 39.5351H39.4281V23.2924C39.4281 22.6117 38.8763 22.0599 38.1956 22.0599H32.9152C32.2346 22.0599 31.6827 22.6117 31.6827 23.2924V39.5351H28.8672V29.3897C28.8672 28.709 28.3154 28.1572 27.6347 28.1572H22.3542C21.6736 28.1572 21.1218 28.709 21.1218 29.3897V39.5351H18.3063V35.487C18.3063 34.8064 17.7545 34.2546 17.0738 34.2546H11.7934C11.1127 34.2546 10.5609 34.8064 10.5609 35.487V39.5351H7.74543V20.517C14.2464 22.3662 21.0486 17.185 20.9465 10.4048C20.4203 -3.46941 0.524786 -3.46719 0 10.405C0 14.2916 2.12823 17.6903 5.28048 19.4976V40.7675C5.28048 41.4482 5.8323 42 6.51295 42H40.8359C42.4589 41.944 42.478 39.5989 40.8359 39.5351ZM2.46494 10.4049C2.46494 5.98915 6.05752 2.39658 10.4733 2.39658C21.0828 2.79919 21.0799 18.0122 10.4732 18.4132C6.05752 18.4132 2.46494 14.8207 2.46494 10.4049ZM15.8414 39.5351H13.0258V36.7195H15.8414V39.5351ZM26.4023 39.5351H23.5867V30.6221H26.4023V39.5351ZM36.9631 39.5351H34.1477V24.5249H36.9632V39.5351H36.9631Z" fill="url(#paint0_linear_522_9253)"/>
<path d="M14.4287 11.6375C16.0618 11.5769 16.0612 9.23275 14.4287 9.17253H11.7008V5.12452C11.641 3.49289 9.29648 3.49051 9.23584 5.12452V10.4049C9.23584 11.0856 9.78766 11.6374 10.4683 11.6374L14.4287 11.6375Z" fill="black"/>
<path d="M14.4287 11.6375C16.0618 11.5769 16.0612 9.23275 14.4287 9.17253H11.7008V5.12452C11.641 3.49289 9.29648 3.49051 9.23584 5.12452V10.4049C9.23584 11.0856 9.78766 11.6374 10.4683 11.6374L14.4287 11.6375Z" fill="url(#paint1_linear_522_9253)"/>
<path d="M34.2756 13.867L35.0071 14.0632L11.1804 27.8196C10.5909 28.1599 10.3889 28.9137 10.7293 29.5032C11.0189 30.0047 11.7395 30.343 12.4129 29.9542L36.241 16.1971L36.0447 16.932C35.869 17.5897 36.2597 18.2652 36.9172 18.4409C37.607 18.6251 38.2591 18.1934 38.426 17.5683L39.3896 13.9618C39.5653 13.3046 39.1754 12.6296 38.5184 12.4533L34.9145 11.4863C33.3228 11.1213 32.7134 13.3849 34.2756 13.867Z" fill="black"/>
<path d="M34.2756 13.867L35.0071 14.0632L11.1804 27.8196C10.5909 28.1599 10.3889 28.9137 10.7293 29.5032C11.0189 30.0047 11.7395 30.343 12.4129 29.9542L36.241 16.1971L36.0447 16.932C35.869 17.5897 36.2597 18.2652 36.9172 18.4409C37.607 18.6251 38.2591 18.1934 38.426 17.5683L39.3896 13.9618C39.5653 13.3046 39.1754 12.6296 38.5184 12.4533L34.9145 11.4863C33.3228 11.1213 32.7134 13.3849 34.2756 13.867Z" fill="url(#paint2_linear_522_9253)"/>
<defs>
<linearGradient id="paint0_linear_522_9253" x1="0.834944" y1="21.5384" x2="41.7141" y2="21.6245" gradientUnits="userSpaceOnUse">
<stop stop-color="#4E54C8"/>
<stop offset="1" stop-color="#8F94FB"/>
</linearGradient>
<linearGradient id="paint1_linear_522_9253" x1="9.36323" y1="7.86788" x2="15.6005" y2="7.87875" gradientUnits="userSpaceOnUse">
<stop stop-color="#4E54C8"/>
<stop offset="1" stop-color="#8F94FB"/>
</linearGradient>
<linearGradient id="paint2_linear_522_9253" x1="11.137" y1="21.0243" x2="39.194" y2="21.1154" gradientUnits="userSpaceOnUse">
<stop stop-color="#4E54C8"/>
<stop offset="1" stop-color="#8F94FB"/>
</linearGradient>
</defs>
</svg>
