<svg width="43" height="43" viewBox="0 0 43 43" fill="none" xmlns="http://www.w3.org/2000/svg">
<path d="M42.9921 14.3333C42.9212 12.9709 41.4627 11.9062 38.5459 11.094C38.6441 10.8551 38.6993 10.6067 38.7 10.3487V4.77778H38.6878C38.4313 0.136963 21.3158 0 19.35 0C17.3842 0 0.26875 0.136963 0.0121833 4.77778H0V4.8813V10.3511C0.00358333 11.864 1.76085 13.0481 4.37525 13.9296C4.33942 14.0618 4.31792 14.1964 4.31075 14.3333H4.3V14.4369V19.8971C1.4835 20.7029 0.0766833 21.7524 0.00716667 23.0926H0V23.1961V28.6659C0.00215 29.7194 0.857133 30.6128 2.25607 31.3574C2.20303 31.519 2.17007 31.6838 2.16075 31.8526H2.15V31.9562V37.4259C2.15573 40.0744 7.52285 41.7188 13.4862 42.4864C13.53 42.4959 13.5701 42.5159 13.6167 42.5159C13.6303 42.5159 13.6418 42.5079 13.6554 42.5071C14.8049 42.6512 15.9731 42.7635 17.129 42.8439C17.1534 42.8471 17.1749 42.8599 17.2 42.8599C17.2136 42.8599 17.2244 42.8519 17.2373 42.8511C18.705 42.9498 20.1491 43 21.5 43C22.8509 43 24.295 42.9498 25.7627 42.8503C25.7756 42.8511 25.7871 42.8591 25.8 42.8591C25.8251 42.8591 25.8466 42.8455 25.8709 42.8431C27.0269 42.7627 28.1951 42.6512 29.3446 42.5063C29.3582 42.5063 29.3697 42.5143 29.3833 42.5143C29.4299 42.5143 29.47 42.4944 29.5138 42.4848C35.4771 41.7172 40.8435 40.072 40.85 37.4227V31.8519H40.8385C40.7884 30.8756 40.0394 30.061 38.5602 29.3801C38.6505 29.15 38.7 28.9111 38.7 28.6635V23.4589C41.2728 22.5798 42.9964 21.4036 43 19.9042V14.3333H42.9921ZM37.1893 28.9223L36.9449 29.1604C36.5686 29.5291 35.9415 29.9009 35.1167 30.2593V26.4625C35.9688 26.1329 36.694 25.7674 37.2667 25.3668V28.6619C37.2667 28.7439 37.2394 28.8315 37.1893 28.9223ZM21.1603 32.6227C21.0557 32.6259 20.9503 32.6274 20.845 32.6298C20.5891 32.6354 20.3268 32.637 20.0674 32.6394V28.6619C20.2645 28.6595 20.4615 28.6563 20.6586 28.6523C20.6966 28.6515 20.7346 28.6507 20.7726 28.6499C21.4943 28.6348 22.2159 28.6101 22.934 28.5735V32.5494C22.7807 32.5582 22.6266 32.5661 22.4711 32.5733C22.0396 32.5948 21.6039 32.6107 21.1603 32.6227ZM18.0306 32.6338C17.7024 32.6274 17.3756 32.6187 17.0509 32.6075C17.0108 32.6059 16.9707 32.6044 16.9305 32.6028C16.5399 32.5884 16.1522 32.5701 15.7674 32.5494V28.5743C16.4855 28.6117 17.2072 28.6364 17.9289 28.6507C17.9668 28.6515 18.0048 28.6523 18.0421 28.6531C18.2392 28.6571 18.4362 28.6603 18.6333 28.6627V32.6426C18.4943 32.641 18.3553 32.641 18.2169 32.6386C18.1539 32.637 18.093 32.6346 18.0306 32.6338ZM5.08618 30.8183C5.06253 30.8103 5.04032 30.8031 5.01667 30.796V26.9491C5.68603 27.1497 6.40557 27.3329 7.16667 27.4993V31.386C6.50877 31.2307 5.90175 31.0675 5.3492 30.9003C5.26177 30.8724 5.17147 30.8461 5.08618 30.8183ZM20.1921 37.4124C20.3892 37.4164 20.5862 37.4196 20.7833 37.4219V41.4026C19.7929 41.3923 18.8369 41.3604 17.9167 41.3103V37.3344C18.6348 37.3718 19.3564 37.3965 20.0781 37.4108C20.1161 37.4108 20.1541 37.4116 20.1921 37.4124ZM22.9219 37.41C23.6435 37.3949 24.3652 37.3702 25.0833 37.3336V41.3095C24.1631 41.3596 23.2071 41.3915 22.2167 41.4018V37.4211C22.4137 37.4188 22.6108 37.4156 22.8079 37.4116C22.8459 37.4116 22.8839 37.4108 22.9219 37.41ZM28.6667 37.0501V41.0045C27.9779 41.0849 27.2613 41.1558 26.5167 41.2139V37.2428C27.2434 37.1902 27.9615 37.1257 28.6667 37.0501ZM30.1 36.8781C30.8389 36.7793 31.5563 36.6671 32.25 36.542V40.4519C31.5749 40.584 30.8575 40.7059 30.1 40.8166V36.8781ZM33.6833 36.2578C34.4444 36.0913 35.164 35.9082 35.8333 35.7075V39.5544C35.1948 39.7591 34.476 39.9574 33.6833 40.1445V36.2578ZM9.31667 36.2578V40.1445C8.52403 39.9574 7.80522 39.7591 7.16667 39.5544V35.7075C7.83603 35.9082 8.55557 36.0921 9.31667 36.2578ZM10.75 36.5428C11.4437 36.6679 12.1611 36.7801 12.9 36.8789V40.8174C12.1425 40.7067 11.4251 40.5848 10.75 40.4526V36.5428ZM14.3333 37.0501C15.0385 37.1257 15.7566 37.1902 16.4833 37.2436V41.2147C15.7387 41.1566 15.022 41.0857 14.3333 41.0053V37.0501ZM12.5553 32.2882C12.4822 32.2803 12.4098 32.2715 12.3374 32.2635C12.2858 32.258 12.2349 32.2508 12.1833 32.2452V28.2916C12.8885 28.3673 13.6066 28.4318 14.3333 28.4851V32.4531C13.7313 32.4053 13.1365 32.3511 12.5553 32.2882ZM10.75 28.1188V32.0573C9.99248 31.9466 9.2751 31.8248 8.6 31.6926V27.7828C9.29373 27.9078 10.0111 28.0209 10.75 28.1188ZM24.844 32.4156C24.6863 32.4292 24.5272 32.4427 24.3667 32.4554V28.4843C25.0934 28.431 25.8115 28.3673 26.5167 28.2908V32.2452C26.0738 32.297 25.6208 32.3456 25.1557 32.3878C25.0518 32.3981 24.9479 32.4069 24.844 32.4156ZM27.95 32.0573V28.1188C28.6889 28.0201 29.4063 27.9078 30.1 27.7828V31.6926C29.4249 31.8248 28.7075 31.9474 27.95 32.0573ZM31.5333 27.4985C32.2944 27.3321 33.014 27.1489 33.6833 26.9483V30.7952C33.0448 30.9998 32.326 31.1981 31.5333 31.3852V27.4985ZM21.7329 23.861C21.194 23.8459 20.6672 23.8228 20.1498 23.7949C20.1218 23.7933 20.0939 23.7917 20.0667 23.7909V19.815C20.7848 19.8525 21.5065 19.8771 22.2281 19.8915C22.2661 19.8923 22.3041 19.8931 22.3414 19.8939C22.5384 19.8979 22.7355 19.901 22.9326 19.9034V23.8793C22.5836 23.8754 22.2317 23.8738 21.8913 23.865C21.839 23.8634 21.7852 23.8626 21.7329 23.861ZM5.01667 12.4811V8.63424C5.68603 8.83491 6.40557 9.01806 7.16667 9.18448V13.0712C7.07852 13.0505 6.9875 13.0298 6.9015 13.0091C6.52023 12.9159 6.14828 12.8188 5.79282 12.7161C5.52192 12.6388 5.26463 12.56 5.01667 12.4811ZM18.0421 10.3383C18.2392 10.3423 18.4362 10.3455 18.6333 10.3479V14.3238C17.6687 14.3134 16.7098 14.2856 15.7667 14.233V10.2603C16.4848 10.2977 17.2064 10.3224 17.9281 10.3367C17.9661 10.3367 18.0041 10.3375 18.0421 10.3383ZM20.7719 10.3359C21.4935 10.3208 22.2152 10.2961 22.9333 10.2595V14.2322C22.8115 14.2386 22.6947 14.2481 22.5721 14.2545C22.5621 14.2553 22.5521 14.2553 22.5413 14.2561C22.0604 14.28 21.5702 14.2975 21.0736 14.3102C20.9962 14.3126 20.9188 14.3134 20.8414 14.3158C20.5862 14.3214 20.3254 14.3222 20.0667 14.3254V10.3479C20.2638 10.3455 20.4608 10.3423 20.6579 10.3383C20.6959 10.3375 20.7339 10.3367 20.7719 10.3359ZM37.1025 10.7357L37.0825 10.7309L36.8216 10.9562C36.4432 11.2835 35.862 11.6148 35.1167 11.9349V8.14691C35.9688 7.81724 36.694 7.45174 37.2667 7.0512V10.3463C37.2667 10.4673 37.2093 10.5979 37.1025 10.7357ZM27.95 13.7377V9.804C28.6889 9.70526 29.4063 9.59298 30.1 9.46796V13.3714C29.4206 13.5052 28.7054 13.6278 27.95 13.7377ZM31.5333 13.0648V9.18448C32.2944 9.01806 33.014 8.83491 33.6833 8.63424V12.4724C33.0412 12.6802 32.3181 12.8785 31.5333 13.0648ZM26.5167 9.976V13.9256C25.8244 14.0069 25.1077 14.0777 24.3667 14.1366V10.1695C25.0934 10.1161 25.8115 10.0516 26.5167 9.976ZM12.1833 13.9272V9.976C12.8885 10.0516 13.6066 10.1161 14.3333 10.1695V14.1335C13.6038 14.0753 12.8842 14.0092 12.1833 13.9272ZM10.75 9.804V13.7385C10.6081 13.7178 10.4605 13.7011 10.32 13.6796C10.2283 13.6652 10.1408 13.6501 10.0505 13.6358C9.6363 13.5697 9.23138 13.4988 8.83435 13.4248C8.7548 13.4096 8.67812 13.3937 8.6 13.3786V9.46876C9.29373 9.59298 10.0111 9.70606 10.75 9.804ZM18.4556 23.6811C18.3589 23.6731 18.2614 23.6651 18.1653 23.6572C17.7067 23.6174 17.2588 23.5736 16.8216 23.525C16.7277 23.5146 16.6338 23.5035 16.5407 23.4931C16.5213 23.4907 16.5027 23.4876 16.4833 23.486V19.5316C17.1885 19.6072 17.9066 19.6717 18.6333 19.7251V23.6938C18.5753 23.689 18.5136 23.6858 18.4556 23.6811ZM13.7206 23.0862C13.4368 23.0361 13.1702 22.9819 12.9 22.9294V19.0243C13.5937 19.1493 14.3111 19.2616 15.05 19.3604V23.2988C14.6114 23.2343 14.1821 23.1674 13.77 23.0958C13.7535 23.0918 13.7371 23.0886 13.7206 23.0862ZM11.4667 18.7392V22.6196C10.6747 22.4309 9.95665 22.2302 9.31667 22.0216V18.189C9.98603 18.3897 10.7056 18.5736 11.4667 18.7392ZM7.88333 17.7025V21.4857C6.75673 21.0023 6.03003 20.5086 5.79353 20.0691L5.74552 19.9799C5.74122 19.9552 5.73405 19.9289 5.73333 19.9042V16.6068C6.30595 17.0073 7.03122 17.3728 7.88333 17.7025ZM25.0719 19.8915C25.7936 19.8764 26.5152 19.8517 27.2333 19.815V23.787C26.2916 23.8387 25.3342 23.8674 24.3667 23.8785V19.9034C24.5637 19.901 24.7608 19.8979 24.9579 19.8939C24.9959 19.8931 25.0339 19.8923 25.0719 19.8915ZM34.3334 22.9469C34.0187 23.0074 33.7012 23.0671 33.3752 23.1221C33.1881 23.1539 32.9968 23.1842 32.8047 23.2144C32.6234 23.2431 32.4349 23.2678 32.2507 23.2941V19.3596C32.9896 19.2608 33.707 19.1485 34.4007 19.0235V22.9333C34.3778 22.9381 34.3556 22.9429 34.3334 22.9469ZM29.4808 23.6269C29.2135 23.6516 28.9376 23.6675 28.6667 23.689V19.7251C29.3934 19.6717 30.1115 19.608 30.8167 19.5316V23.482C30.4003 23.5306 29.9846 23.5791 29.5568 23.6189C29.531 23.6213 29.5066 23.6245 29.4808 23.6269ZM37.6709 22.1339C37.314 22.2445 36.9363 22.3481 36.5507 22.4492C36.3723 22.4954 36.1902 22.5416 36.0039 22.5861C35.9487 22.5997 35.8899 22.6116 35.834 22.6252V18.74C36.5951 18.5736 37.3147 18.3905 37.984 18.1898V22.0367C37.8808 22.0686 37.7769 22.1012 37.6709 22.1339ZM41.5588 14.3851C41.4928 14.9258 40.3899 15.6448 38.4212 16.3209C35.8856 17.1912 31.9182 17.9883 26.89 18.2352C26.6328 18.2471 26.3762 18.2591 26.1139 18.2686C25.8996 18.2766 25.6846 18.2838 25.466 18.2901C24.8726 18.3045 24.2706 18.3148 23.65 18.3148C23.0294 18.3148 22.4274 18.3045 21.834 18.2893C21.6161 18.2838 21.4011 18.2758 21.1861 18.2678C20.9231 18.2591 20.6665 18.2463 20.4099 18.2344C15.3818 17.9875 11.4136 17.1904 8.87878 16.3201C6.92587 15.6496 5.82507 14.9361 5.74337 14.3978C5.74695 14.3827 5.74695 14.37 5.75555 14.3509C5.80428 14.3644 5.85875 14.3755 5.9082 14.3891C6.18842 14.4631 6.4758 14.5348 6.7682 14.6033C8.19222 14.9441 9.77032 15.2236 11.4516 15.437C11.4573 15.437 11.4616 15.4402 11.4667 15.4402C11.4681 15.4402 11.4702 15.4394 11.4702 15.4394C12.6155 15.5843 13.8037 15.6982 15.0235 15.7786C15.0328 15.7786 15.0407 15.7842 15.05 15.7842C15.055 15.7842 15.0586 15.781 15.0636 15.781C15.9415 15.8383 16.8309 15.8805 17.731 15.9028C18.2822 15.918 18.8232 15.9259 19.35 15.9259C19.7262 15.9259 20.1118 15.9211 20.501 15.9132C25.7083 15.824 30.5343 15.136 33.8926 14.0698C34.0474 14.0212 34.1986 13.971 34.3477 13.9209C34.4387 13.8898 34.5319 13.8595 34.62 13.8285C34.8794 13.7361 35.1281 13.6414 35.3682 13.5426C35.4098 13.5251 35.4492 13.5076 35.4908 13.4901C35.6936 13.4049 35.8885 13.3165 36.0748 13.2265C36.1286 13.2002 36.1838 13.1747 36.2361 13.1484C36.4346 13.0489 36.6267 12.947 36.8044 12.8411C36.8847 12.7941 36.9542 12.7455 37.0294 12.6977C37.1154 12.6428 37.2015 12.5871 37.281 12.5305C37.3261 12.4987 37.3799 12.4684 37.4229 12.4366C40.6314 13.2098 41.4771 14.0554 41.5588 14.3851ZM19.35 1.59259C31.1671 1.59259 37.1441 3.65978 37.2559 4.84626C37.1692 5.38456 36.0691 6.09565 34.1212 6.76454C31.5856 7.63489 27.6182 8.43198 22.59 8.67883C22.3328 8.69078 22.0762 8.70272 21.8139 8.71228C21.5996 8.72024 21.3846 8.72741 21.166 8.73378C20.5726 8.74891 19.9706 8.75926 19.35 8.75926C18.7294 8.75926 18.1274 8.74891 17.534 8.73378C17.3161 8.7282 17.1011 8.72024 16.8861 8.71228C16.6231 8.70352 16.3665 8.69078 16.1099 8.67883C11.0818 8.43198 7.11363 7.63489 4.57878 6.76454C2.63017 6.09565 1.5308 5.38456 1.44408 4.84626C1.55588 3.65978 7.53288 1.59259 19.35 1.59259ZM1.43333 10.3487V7.0512C2.00595 7.45174 2.73122 7.81724 3.58333 8.14691V11.9596C2.18942 11.3791 1.43477 10.797 1.43333 10.3487ZM4.90487 21.3686C4.91562 21.3814 4.9321 21.3925 4.94285 21.4052C5.92397 22.5057 7.95572 23.3705 10.4848 24.0155C10.5429 24.0306 10.6045 24.045 10.6633 24.0601C10.8489 24.1063 11.0374 24.1517 11.228 24.1955C13.5507 24.7449 16.3235 25.1423 19.3443 25.3389C19.3464 25.3389 19.3478 25.3397 19.3493 25.3397C19.3507 25.3397 19.3521 25.3389 19.3521 25.3389C20.3225 25.4019 21.3151 25.4456 22.3285 25.4648C22.7771 25.4751 23.2186 25.4815 23.65 25.4815C24.1445 25.4815 24.6519 25.4751 25.1679 25.4616C26.1053 25.4401 27.0291 25.3971 27.94 25.3381C27.9435 25.3381 27.9464 25.3405 27.95 25.3405C27.9564 25.3405 27.9615 25.3366 27.9679 25.3366C30.9965 25.1383 33.8381 24.7369 36.2411 24.1596C35.7208 24.4622 35.0084 24.7752 34.1212 25.0801C31.4445 25.9991 27.1695 26.836 21.7365 27.0303C21.5752 27.0359 21.4161 27.0422 21.2528 27.047C21.0772 27.0518 20.8987 27.055 20.7203 27.0589C20.2695 27.0669 19.8158 27.0741 19.35 27.0741C18.7294 27.0741 18.1274 27.0637 17.534 27.0486C17.3161 27.043 17.1011 27.0351 16.8861 27.0271C16.6231 27.0183 16.3665 27.0056 16.1099 26.9936C11.0818 26.7468 7.11363 25.9497 4.57878 25.0794C2.60795 24.4025 1.505 23.6826 1.44122 23.142C1.52077 22.8426 2.24532 22.0932 4.90487 21.3686ZM1.43333 28.6635V25.366C2.00595 25.7666 2.73122 26.1321 3.58333 26.4617V30.2593L3.17412 30.0825L3.16552 30.092C2.04035 29.5736 1.43477 29.0648 1.43333 28.6635ZM3.58333 37.4227V34.1253C4.15595 34.5258 4.88122 34.8913 5.73333 35.221V39.0336C4.33942 38.4531 3.58477 37.8711 3.58333 37.4227ZM37.2667 39.0336V35.2218C38.1188 34.8921 38.844 34.5266 39.4167 34.1261V37.4211C39.4159 37.8695 38.6606 38.4524 37.2667 39.0336ZM39.4073 31.9132C39.3292 32.4523 38.2284 33.1673 36.2712 33.8394C33.7356 34.7098 29.7682 35.5069 24.74 35.7537C24.4828 35.7656 24.2262 35.7776 23.9639 35.7871C23.7496 35.7951 23.5346 35.8023 23.316 35.8087C22.7226 35.823 22.1206 35.8333 21.5 35.8333C20.8794 35.8333 20.2766 35.823 19.6825 35.8078C19.4668 35.8023 19.254 35.7943 19.0411 35.7864C18.7767 35.7768 18.5187 35.7649 18.2599 35.7529C13.2318 35.5061 9.26435 34.709 6.72878 33.8386C4.8332 33.188 3.73813 32.4969 3.60053 31.9633C3.8141 32.0461 4.03555 32.1266 4.26273 32.2054C4.28567 32.2134 4.3086 32.2213 4.33153 32.2285C4.52503 32.2946 4.72283 32.3583 4.92565 32.4204C5.00233 32.4443 5.07973 32.4682 5.15785 32.4913C5.27252 32.5255 5.39005 32.5582 5.50758 32.5916C8.11768 33.3346 11.4495 33.8609 15.0464 34.0974C15.0478 34.0974 15.0486 34.0982 15.05 34.0982L15.0521 34.0974C16.163 34.1707 17.2975 34.2161 18.4441 34.2312C18.7494 34.2376 19.0526 34.2407 19.35 34.2407C19.7449 34.2407 20.1491 34.2352 20.5583 34.2272C21.6039 34.2081 22.6359 34.1651 23.645 34.0982C23.6471 34.0982 23.6486 34.0998 23.6507 34.0998C23.6543 34.0998 23.6564 34.0974 23.66 34.0974C24.8891 34.0154 26.0788 33.8983 27.2219 33.7526C27.2262 33.7526 27.2297 33.755 27.234 33.755C27.2498 33.755 27.2627 33.7462 27.2785 33.7446C28.5513 33.5814 29.7581 33.3807 30.8783 33.1474C31.1091 33.1004 31.3363 33.0519 31.5613 33.0017C31.6115 32.9906 31.6616 32.9794 31.7118 32.9675C33.8281 32.4849 35.6599 31.8598 36.9169 31.085C36.9857 31.0436 37.0502 31.0006 37.1154 30.9584C37.195 30.9059 37.271 30.8525 37.3448 30.7984C37.4136 30.749 37.4931 30.7012 37.5562 30.651C38.9709 31.2116 39.3608 31.7133 39.4073 31.9132ZM39.4167 21.5151V17.7033C40.2688 17.3736 40.994 17.0081 41.5667 16.6076V19.9026C41.5659 20.3509 40.8106 20.9338 39.4167 21.5151Z" fill="url(#paint0_linear_522_9278)"/>
<path d="M42.9921 14.3333C42.9212 12.9709 41.4627 11.9062 38.5459 11.094C38.6441 10.8551 38.6993 10.6067 38.7 10.3487V4.77778H38.6878C38.4313 0.136963 21.3158 0 19.35 0C17.3842 0 0.26875 0.136963 0.0121833 4.77778H0V4.8813V10.3511C0.00358333 11.864 1.76085 13.0481 4.37525 13.9296C4.33942 14.0618 4.31792 14.1964 4.31075 14.3333H4.3V14.4369V19.8971C1.4835 20.7029 0.0766833 21.7524 0.00716667 23.0926H0V23.1961V28.6659C0.00215 29.7194 0.857133 30.6128 2.25607 31.3574C2.20303 31.519 2.17007 31.6838 2.16075 31.8526H2.15V31.9562V37.4259C2.15573 40.0744 7.52285 41.7188 13.4862 42.4864C13.53 42.4959 13.5701 42.5159 13.6167 42.5159C13.6303 42.5159 13.6418 42.5079 13.6554 42.5071C14.8049 42.6512 15.9731 42.7635 17.129 42.8439C17.1534 42.8471 17.1749 42.8599 17.2 42.8599C17.2136 42.8599 17.2244 42.8519 17.2373 42.8511C18.705 42.9498 20.1491 43 21.5 43C22.8509 43 24.295 42.9498 25.7627 42.8503C25.7756 42.8511 25.7871 42.8591 25.8 42.8591C25.8251 42.8591 25.8466 42.8455 25.8709 42.8431C27.0269 42.7627 28.1951 42.6512 29.3446 42.5063C29.3582 42.5063 29.3697 42.5143 29.3833 42.5143C29.4299 42.5143 29.47 42.4944 29.5138 42.4848C35.4771 41.7172 40.8435 40.072 40.85 37.4227V31.8519H40.8385C40.7884 30.8756 40.0394 30.061 38.5602 29.3801C38.6505 29.15 38.7 28.9111 38.7 28.6635V23.4589C41.2728 22.5798 42.9964 21.4036 43 19.9042V14.3333H42.9921ZM37.1893 28.9223L36.9449 29.1604C36.5686 29.5291 35.9415 29.9009 35.1167 30.2593V26.4625C35.9688 26.1329 36.694 25.7674 37.2667 25.3668V28.6619C37.2667 28.7439 37.2394 28.8315 37.1893 28.9223ZM21.1603 32.6227C21.0557 32.6259 20.9503 32.6274 20.845 32.6298C20.5891 32.6354 20.3268 32.637 20.0674 32.6394V28.6619C20.2645 28.6595 20.4615 28.6563 20.6586 28.6523C20.6966 28.6515 20.7346 28.6507 20.7726 28.6499C21.4943 28.6348 22.2159 28.6101 22.934 28.5735V32.5494C22.7807 32.5582 22.6266 32.5661 22.4711 32.5733C22.0396 32.5948 21.6039 32.6107 21.1603 32.6227ZM18.0306 32.6338C17.7024 32.6274 17.3756 32.6187 17.0509 32.6075C17.0108 32.6059 16.9707 32.6044 16.9305 32.6028C16.5399 32.5884 16.1522 32.5701 15.7674 32.5494V28.5743C16.4855 28.6117 17.2072 28.6364 17.9289 28.6507C17.9668 28.6515 18.0048 28.6523 18.0421 28.6531C18.2392 28.6571 18.4362 28.6603 18.6333 28.6627V32.6426C18.4943 32.641 18.3553 32.641 18.2169 32.6386C18.1539 32.637 18.093 32.6346 18.0306 32.6338ZM5.08618 30.8183C5.06253 30.8103 5.04032 30.8031 5.01667 30.796V26.9491C5.68603 27.1497 6.40557 27.3329 7.16667 27.4993V31.386C6.50877 31.2307 5.90175 31.0675 5.3492 30.9003C5.26177 30.8724 5.17147 30.8461 5.08618 30.8183ZM20.1921 37.4124C20.3892 37.4164 20.5862 37.4196 20.7833 37.4219V41.4026C19.7929 41.3923 18.8369 41.3604 17.9167 41.3103V37.3344C18.6348 37.3718 19.3564 37.3965 20.0781 37.4108C20.1161 37.4108 20.1541 37.4116 20.1921 37.4124ZM22.9219 37.41C23.6435 37.3949 24.3652 37.3702 25.0833 37.3336V41.3095C24.1631 41.3596 23.2071 41.3915 22.2167 41.4018V37.4211C22.4137 37.4188 22.6108 37.4156 22.8079 37.4116C22.8459 37.4116 22.8839 37.4108 22.9219 37.41ZM28.6667 37.0501V41.0045C27.9779 41.0849 27.2613 41.1558 26.5167 41.2139V37.2428C27.2434 37.1902 27.9615 37.1257 28.6667 37.0501ZM30.1 36.8781C30.8389 36.7793 31.5563 36.6671 32.25 36.542V40.4519C31.5749 40.584 30.8575 40.7059 30.1 40.8166V36.8781ZM33.6833 36.2578C34.4444 36.0913 35.164 35.9082 35.8333 35.7075V39.5544C35.1948 39.7591 34.476 39.9574 33.6833 40.1445V36.2578ZM9.31667 36.2578V40.1445C8.52403 39.9574 7.80522 39.7591 7.16667 39.5544V35.7075C7.83603 35.9082 8.55557 36.0921 9.31667 36.2578ZM10.75 36.5428C11.4437 36.6679 12.1611 36.7801 12.9 36.8789V40.8174C12.1425 40.7067 11.4251 40.5848 10.75 40.4526V36.5428ZM14.3333 37.0501C15.0385 37.1257 15.7566 37.1902 16.4833 37.2436V41.2147C15.7387 41.1566 15.022 41.0857 14.3333 41.0053V37.0501ZM12.5553 32.2882C12.4822 32.2803 12.4098 32.2715 12.3374 32.2635C12.2858 32.258 12.2349 32.2508 12.1833 32.2452V28.2916C12.8885 28.3673 13.6066 28.4318 14.3333 28.4851V32.4531C13.7313 32.4053 13.1365 32.3511 12.5553 32.2882ZM10.75 28.1188V32.0573C9.99248 31.9466 9.2751 31.8248 8.6 31.6926V27.7828C9.29373 27.9078 10.0111 28.0209 10.75 28.1188ZM24.844 32.4156C24.6863 32.4292 24.5272 32.4427 24.3667 32.4554V28.4843C25.0934 28.431 25.8115 28.3673 26.5167 28.2908V32.2452C26.0738 32.297 25.6208 32.3456 25.1557 32.3878C25.0518 32.3981 24.9479 32.4069 24.844 32.4156ZM27.95 32.0573V28.1188C28.6889 28.0201 29.4063 27.9078 30.1 27.7828V31.6926C29.4249 31.8248 28.7075 31.9474 27.95 32.0573ZM31.5333 27.4985C32.2944 27.3321 33.014 27.1489 33.6833 26.9483V30.7952C33.0448 30.9998 32.326 31.1981 31.5333 31.3852V27.4985ZM21.7329 23.861C21.194 23.8459 20.6672 23.8228 20.1498 23.7949C20.1218 23.7933 20.0939 23.7917 20.0667 23.7909V19.815C20.7848 19.8525 21.5065 19.8771 22.2281 19.8915C22.2661 19.8923 22.3041 19.8931 22.3414 19.8939C22.5384 19.8979 22.7355 19.901 22.9326 19.9034V23.8793C22.5836 23.8754 22.2317 23.8738 21.8913 23.865C21.839 23.8634 21.7852 23.8626 21.7329 23.861ZM5.01667 12.4811V8.63424C5.68603 8.83491 6.40557 9.01806 7.16667 9.18448V13.0712C7.07852 13.0505 6.9875 13.0298 6.9015 13.0091C6.52023 12.9159 6.14828 12.8188 5.79282 12.7161C5.52192 12.6388 5.26463 12.56 5.01667 12.4811ZM18.0421 10.3383C18.2392 10.3423 18.4362 10.3455 18.6333 10.3479V14.3238C17.6687 14.3134 16.7098 14.2856 15.7667 14.233V10.2603C16.4848 10.2977 17.2064 10.3224 17.9281 10.3367C17.9661 10.3367 18.0041 10.3375 18.0421 10.3383ZM20.7719 10.3359C21.4935 10.3208 22.2152 10.2961 22.9333 10.2595V14.2322C22.8115 14.2386 22.6947 14.2481 22.5721 14.2545C22.5621 14.2553 22.5521 14.2553 22.5413 14.2561C22.0604 14.28 21.5702 14.2975 21.0736 14.3102C20.9962 14.3126 20.9188 14.3134 20.8414 14.3158C20.5862 14.3214 20.3254 14.3222 20.0667 14.3254V10.3479C20.2638 10.3455 20.4608 10.3423 20.6579 10.3383C20.6959 10.3375 20.7339 10.3367 20.7719 10.3359ZM37.1025 10.7357L37.0825 10.7309L36.8216 10.9562C36.4432 11.2835 35.862 11.6148 35.1167 11.9349V8.14691C35.9688 7.81724 36.694 7.45174 37.2667 7.0512V10.3463C37.2667 10.4673 37.2093 10.5979 37.1025 10.7357ZM27.95 13.7377V9.804C28.6889 9.70526 29.4063 9.59298 30.1 9.46796V13.3714C29.4206 13.5052 28.7054 13.6278 27.95 13.7377ZM31.5333 13.0648V9.18448C32.2944 9.01806 33.014 8.83491 33.6833 8.63424V12.4724C33.0412 12.6802 32.3181 12.8785 31.5333 13.0648ZM26.5167 9.976V13.9256C25.8244 14.0069 25.1077 14.0777 24.3667 14.1366V10.1695C25.0934 10.1161 25.8115 10.0516 26.5167 9.976ZM12.1833 13.9272V9.976C12.8885 10.0516 13.6066 10.1161 14.3333 10.1695V14.1335C13.6038 14.0753 12.8842 14.0092 12.1833 13.9272ZM10.75 9.804V13.7385C10.6081 13.7178 10.4605 13.7011 10.32 13.6796C10.2283 13.6652 10.1408 13.6501 10.0505 13.6358C9.6363 13.5697 9.23138 13.4988 8.83435 13.4248C8.7548 13.4096 8.67812 13.3937 8.6 13.3786V9.46876C9.29373 9.59298 10.0111 9.70606 10.75 9.804ZM18.4556 23.6811C18.3589 23.6731 18.2614 23.6651 18.1653 23.6572C17.7067 23.6174 17.2588 23.5736 16.8216 23.525C16.7277 23.5146 16.6338 23.5035 16.5407 23.4931C16.5213 23.4907 16.5027 23.4876 16.4833 23.486V19.5316C17.1885 19.6072 17.9066 19.6717 18.6333 19.7251V23.6938C18.5753 23.689 18.5136 23.6858 18.4556 23.6811ZM13.7206 23.0862C13.4368 23.0361 13.1702 22.9819 12.9 22.9294V19.0243C13.5937 19.1493 14.3111 19.2616 15.05 19.3604V23.2988C14.6114 23.2343 14.1821 23.1674 13.77 23.0958C13.7535 23.0918 13.7371 23.0886 13.7206 23.0862ZM11.4667 18.7392V22.6196C10.6747 22.4309 9.95665 22.2302 9.31667 22.0216V18.189C9.98603 18.3897 10.7056 18.5736 11.4667 18.7392ZM7.88333 17.7025V21.4857C6.75673 21.0023 6.03003 20.5086 5.79353 20.0691L5.74552 19.9799C5.74122 19.9552 5.73405 19.9289 5.73333 19.9042V16.6068C6.30595 17.0073 7.03122 17.3728 7.88333 17.7025ZM25.0719 19.8915C25.7936 19.8764 26.5152 19.8517 27.2333 19.815V23.787C26.2916 23.8387 25.3342 23.8674 24.3667 23.8785V19.9034C24.5637 19.901 24.7608 19.8979 24.9579 19.8939C24.9959 19.8931 25.0339 19.8923 25.0719 19.8915ZM34.3334 22.9469C34.0187 23.0074 33.7012 23.0671 33.3752 23.1221C33.1881 23.1539 32.9968 23.1842 32.8047 23.2144C32.6234 23.2431 32.4349 23.2678 32.2507 23.2941V19.3596C32.9896 19.2608 33.707 19.1485 34.4007 19.0235V22.9333C34.3778 22.9381 34.3556 22.9429 34.3334 22.9469ZM29.4808 23.6269C29.2135 23.6516 28.9376 23.6675 28.6667 23.689V19.7251C29.3934 19.6717 30.1115 19.608 30.8167 19.5316V23.482C30.4003 23.5306 29.9846 23.5791 29.5568 23.6189C29.531 23.6213 29.5066 23.6245 29.4808 23.6269ZM37.6709 22.1339C37.314 22.2445 36.9363 22.3481 36.5507 22.4492C36.3723 22.4954 36.1902 22.5416 36.0039 22.5861C35.9487 22.5997 35.8899 22.6116 35.834 22.6252V18.74C36.5951 18.5736 37.3147 18.3905 37.984 18.1898V22.0367C37.8808 22.0686 37.7769 22.1012 37.6709 22.1339ZM41.5588 14.3851C41.4928 14.9258 40.3899 15.6448 38.4212 16.3209C35.8856 17.1912 31.9182 17.9883 26.89 18.2352C26.6328 18.2471 26.3762 18.2591 26.1139 18.2686C25.8996 18.2766 25.6846 18.2838 25.466 18.2901C24.8726 18.3045 24.2706 18.3148 23.65 18.3148C23.0294 18.3148 22.4274 18.3045 21.834 18.2893C21.6161 18.2838 21.4011 18.2758 21.1861 18.2678C20.9231 18.2591 20.6665 18.2463 20.4099 18.2344C15.3818 17.9875 11.4136 17.1904 8.87878 16.3201C6.92587 15.6496 5.82507 14.9361 5.74337 14.3978C5.74695 14.3827 5.74695 14.37 5.75555 14.3509C5.80428 14.3644 5.85875 14.3755 5.9082 14.3891C6.18842 14.4631 6.4758 14.5348 6.7682 14.6033C8.19222 14.9441 9.77032 15.2236 11.4516 15.437C11.4573 15.437 11.4616 15.4402 11.4667 15.4402C11.4681 15.4402 11.4702 15.4394 11.4702 15.4394C12.6155 15.5843 13.8037 15.6982 15.0235 15.7786C15.0328 15.7786 15.0407 15.7842 15.05 15.7842C15.055 15.7842 15.0586 15.781 15.0636 15.781C15.9415 15.8383 16.8309 15.8805 17.731 15.9028C18.2822 15.918 18.8232 15.9259 19.35 15.9259C19.7262 15.9259 20.1118 15.9211 20.501 15.9132C25.7083 15.824 30.5343 15.136 33.8926 14.0698C34.0474 14.0212 34.1986 13.971 34.3477 13.9209C34.4387 13.8898 34.5319 13.8595 34.62 13.8285C34.8794 13.7361 35.1281 13.6414 35.3682 13.5426C35.4098 13.5251 35.4492 13.5076 35.4908 13.4901C35.6936 13.4049 35.8885 13.3165 36.0748 13.2265C36.1286 13.2002 36.1838 13.1747 36.2361 13.1484C36.4346 13.0489 36.6267 12.947 36.8044 12.8411C36.8847 12.7941 36.9542 12.7455 37.0294 12.6977C37.1154 12.6428 37.2015 12.5871 37.281 12.5305C37.3261 12.4987 37.3799 12.4684 37.4229 12.4366C40.6314 13.2098 41.4771 14.0554 41.5588 14.3851ZM19.35 1.59259C31.1671 1.59259 37.1441 3.65978 37.2559 4.84626C37.1692 5.38456 36.0691 6.09565 34.1212 6.76454C31.5856 7.63489 27.6182 8.43198 22.59 8.67883C22.3328 8.69078 22.0762 8.70272 21.8139 8.71228C21.5996 8.72024 21.3846 8.72741 21.166 8.73378C20.5726 8.74891 19.9706 8.75926 19.35 8.75926C18.7294 8.75926 18.1274 8.74891 17.534 8.73378C17.3161 8.7282 17.1011 8.72024 16.8861 8.71228C16.6231 8.70352 16.3665 8.69078 16.1099 8.67883C11.0818 8.43198 7.11363 7.63489 4.57878 6.76454C2.63017 6.09565 1.5308 5.38456 1.44408 4.84626C1.55588 3.65978 7.53288 1.59259 19.35 1.59259ZM1.43333 10.3487V7.0512C2.00595 7.45174 2.73122 7.81724 3.58333 8.14691V11.9596C2.18942 11.3791 1.43477 10.797 1.43333 10.3487ZM4.90487 21.3686C4.91562 21.3814 4.9321 21.3925 4.94285 21.4052C5.92397 22.5057 7.95572 23.3705 10.4848 24.0155C10.5429 24.0306 10.6045 24.045 10.6633 24.0601C10.8489 24.1063 11.0374 24.1517 11.228 24.1955C13.5507 24.7449 16.3235 25.1423 19.3443 25.3389C19.3464 25.3389 19.3478 25.3397 19.3493 25.3397C19.3507 25.3397 19.3521 25.3389 19.3521 25.3389C20.3225 25.4019 21.3151 25.4456 22.3285 25.4648C22.7771 25.4751 23.2186 25.4815 23.65 25.4815C24.1445 25.4815 24.6519 25.4751 25.1679 25.4616C26.1053 25.4401 27.0291 25.3971 27.94 25.3381C27.9435 25.3381 27.9464 25.3405 27.95 25.3405C27.9564 25.3405 27.9615 25.3366 27.9679 25.3366C30.9965 25.1383 33.8381 24.7369 36.2411 24.1596C35.7208 24.4622 35.0084 24.7752 34.1212 25.0801C31.4445 25.9991 27.1695 26.836 21.7365 27.0303C21.5752 27.0359 21.4161 27.0422 21.2528 27.047C21.0772 27.0518 20.8987 27.055 20.7203 27.0589C20.2695 27.0669 19.8158 27.0741 19.35 27.0741C18.7294 27.0741 18.1274 27.0637 17.534 27.0486C17.3161 27.043 17.1011 27.0351 16.8861 27.0271C16.6231 27.0183 16.3665 27.0056 16.1099 26.9936C11.0818 26.7468 7.11363 25.9497 4.57878 25.0794C2.60795 24.4025 1.505 23.6826 1.44122 23.142C1.52077 22.8426 2.24532 22.0932 4.90487 21.3686ZM1.43333 28.6635V25.366C2.00595 25.7666 2.73122 26.1321 3.58333 26.4617V30.2593L3.17412 30.0825L3.16552 30.092C2.04035 29.5736 1.43477 29.0648 1.43333 28.6635ZM3.58333 37.4227V34.1253C4.15595 34.5258 4.88122 34.8913 5.73333 35.221V39.0336C4.33942 38.4531 3.58477 37.8711 3.58333 37.4227ZM37.2667 39.0336V35.2218C38.1188 34.8921 38.844 34.5266 39.4167 34.1261V37.4211C39.4159 37.8695 38.6606 38.4524 37.2667 39.0336ZM39.4073 31.9132C39.3292 32.4523 38.2284 33.1673 36.2712 33.8394C33.7356 34.7098 29.7682 35.5069 24.74 35.7537C24.4828 35.7656 24.2262 35.7776 23.9639 35.7871C23.7496 35.7951 23.5346 35.8023 23.316 35.8087C22.7226 35.823 22.1206 35.8333 21.5 35.8333C20.8794 35.8333 20.2766 35.823 19.6825 35.8078C19.4668 35.8023 19.254 35.7943 19.0411 35.7864C18.7767 35.7768 18.5187 35.7649 18.2599 35.7529C13.2318 35.5061 9.26435 34.709 6.72878 33.8386C4.8332 33.188 3.73813 32.4969 3.60053 31.9633C3.8141 32.0461 4.03555 32.1266 4.26273 32.2054C4.28567 32.2134 4.3086 32.2213 4.33153 32.2285C4.52503 32.2946 4.72283 32.3583 4.92565 32.4204C5.00233 32.4443 5.07973 32.4682 5.15785 32.4913C5.27252 32.5255 5.39005 32.5582 5.50758 32.5916C8.11768 33.3346 11.4495 33.8609 15.0464 34.0974C15.0478 34.0974 15.0486 34.0982 15.05 34.0982L15.0521 34.0974C16.163 34.1707 17.2975 34.2161 18.4441 34.2312C18.7494 34.2376 19.0526 34.2407 19.35 34.2407C19.7449 34.2407 20.1491 34.2352 20.5583 34.2272C21.6039 34.2081 22.6359 34.1651 23.645 34.0982C23.6471 34.0982 23.6486 34.0998 23.6507 34.0998C23.6543 34.0998 23.6564 34.0974 23.66 34.0974C24.8891 34.0154 26.0788 33.8983 27.2219 33.7526C27.2262 33.7526 27.2297 33.755 27.234 33.755C27.2498 33.755 27.2627 33.7462 27.2785 33.7446C28.5513 33.5814 29.7581 33.3807 30.8783 33.1474C31.1091 33.1004 31.3363 33.0519 31.5613 33.0017C31.6115 32.9906 31.6616 32.9794 31.7118 32.9675C33.8281 32.4849 35.6599 31.8598 36.9169 31.085C36.9857 31.0436 37.0502 31.0006 37.1154 30.9584C37.195 30.9059 37.271 30.8525 37.3448 30.7984C37.4136 30.749 37.4931 30.7012 37.5562 30.651C38.9709 31.2116 39.3608 31.7133 39.4073 31.9132ZM39.4167 21.5151V17.7033C40.2688 17.3736 40.994 17.0081 41.5667 16.6076V19.9026C41.5659 20.3509 40.8106 20.9338 39.4167 21.5151Z" fill="url(#paint1_linear_522_9278)"/>
<defs>
<linearGradient id="paint0_linear_522_9278" x1="5.64375" y1="8.6" x2="35.475" y2="35.475" gradientUnits="userSpaceOnUse">
<stop stop-color="#1E3C72"/>
<stop offset="1" stop-color="#2A5298"/>
</linearGradient>
<linearGradient id="paint1_linear_522_9278" x1="0.853598" y1="22.0513" x2="42.6461" y2="22.1391" gradientUnits="userSpaceOnUse">
<stop stop-color="#4E54C8"/>
<stop offset="1" stop-color="#8F94FB"/>
</linearGradient>
</defs>
</svg>
