<svg xmlns="http://www.w3.org/2000/svg" width="888" height="552.129" data-name="Layer 1"><path fill="#3f3d56" d="M323.902 388.25a3.868 3.868 0 0 0-3.862 3.863v154.315a3.868 3.868 0 0 0 3.862 3.863h26.196a3.868 3.868 0 0 0 3.863-3.863V392.113a3.868 3.868 0 0 0-3.863-3.863ZM541.741 388.25a3.868 3.868 0 0 0-3.863 3.863v154.315a3.868 3.868 0 0 0 3.863 3.863h26.196a3.868 3.868 0 0 0 3.863-3.863V392.113a3.868 3.868 0 0 0-3.863-3.863ZM664.127 265.647 463.273 250.14l160.24 27.322 38.399-6.646 2.215-5.169z"/><path fill="#6c63ff" d="m624.99 275.031 38.399-6.646.377-.88 1.838.142-2.215 5.169-38.399 6.646-160.24-29.322 47.487 5.666 112.753 19.225z"/><path fill="#3f3d56" d="M209.251 265.647 8.396 250.14l160.241 27.322 38.399-6.646 2.215-5.169z"/><path fill="#6c63ff" d="m166.422 275.031 38.398-6.646.378-.88 1.838.142-2.216 5.169-38.398 6.646L6.181 250.14l47.487 5.666 112.754 19.225z"/><path fill="#3f3d56" d="m698.095 346.136-16.984.739-155.595 65.647-8.906 7.458-28.23 23.63h-88.613l-26.687-23.63-10.146-8.987-149.252-63.38-13.292-1.477 44.306-21.414h.236c10.043-9.533 97.016-16.984 202.834-16.984s192.79 7.45 202.833 16.984h.975Z"/><path fill="#3f3d56" d="M243.479 325.817a8.276 8.276 0 0 0 .478-2.758v-35.073a8.309 8.309 0 0 0-8.308-8.309h-3.374a19.938 19.938 0 1 0-28.326 0h-3.373a8.309 8.309 0 0 0-8.31 8.31v35.072a8.262 8.262 0 0 0 1.086 4.095 178.4 178.4 0 0 0-7.524 1.469 6.877 6.877 0 0 0-5.376 6.724v8.333a6.887 6.887 0 0 0 6.887 6.887h78.033v-20.676a177.613 177.613 0 0 0-21.893-4.074ZM705.272 328.623a178.3 178.3 0 0 0-7.523-1.469 8.262 8.262 0 0 0 1.085-4.095v-35.073a8.309 8.309 0 0 0-8.31-8.309h-3.373a19.938 19.938 0 1 0-28.325 0h-3.374a8.309 8.309 0 0 0-8.309 8.31v35.072a8.276 8.276 0 0 0 .479 2.758 177.613 177.613 0 0 0-21.893 4.074v20.676h78.032a6.887 6.887 0 0 0 6.888-6.887v-8.333a6.877 6.877 0 0 0-5.377-6.724Z"/><path fill="#3f3d56" d="m681.85 265.647 200.854-15.507-160.24 27.322-38.399-6.646-2.215-5.169zM459.653 436.964h-31.16a8.789 8.789 0 0 0-8.788 8.789v6.79a8.784 8.784 0 0 0 5.682 8.214 8.59 8.59 0 0 0-1.99 5.509v1.948a8.61 8.61 0 0 0 3.692 7.07v25.924h33.968v-25.924a8.61 8.61 0 0 0 3.693-7.07v-1.948a8.59 8.59 0 0 0-1.99-5.51 8.784 8.784 0 0 0 5.682-8.212v-6.791a8.789 8.789 0 0 0-8.789-8.789Z"/><path fill="#6c63ff" d="M412.408 497.54a5.239 5.239 0 0 0-5.233 5.232v41.917a5.24 5.24 0 0 0 5.233 5.233h63.331a5.24 5.24 0 0 0 5.233-5.233v-41.917a5.239 5.239 0 0 0-5.233-5.233ZM516.61 419.98l-28.23 23.63h-88.613l-26.687-23.63h26.54l1.159-5.782a7.503 7.503 0 0 1 7.355-6.033h74.094a7.503 7.503 0 0 1 7.355 6.033l1.16 5.782Z"/><circle cx="444.073" cy="523.73" r="20.676" fill="#3f3d56"/><circle cx="444.073" cy="523.73" r="11.815" fill="#e6e6e6"/><path fill="#fff" d="M451.215 514.334a11.8 11.8 0 0 1-16.538 16.538 11.804 11.804 0 1 0 16.538-16.538Z"/><path fill="#e6e6e6" d="M180.821 337.43h530.196v3.382H180.821z"/><path fill="#6c63ff" d="m723.941 275.031-38.399-6.646-.377-.88-1.838.142 2.215 5.169 38.399 6.646 160.24-29.322-47.487 5.666-112.753 19.225z"/><path fill="#3f3d56" d="m226.973 265.647 200.855-15.507-160.241 27.322-38.398-6.646-2.216-5.169z"/><path fill="#6c63ff" d="m269.803 275.031-38.399-6.646-.377-.88-1.838.142 2.215 5.169 38.399 6.646 160.24-29.322-47.487 5.666-112.753 19.225z"/><path fill="#e6e6e6" d="M415.644 414.442h59.075v11.815h-59.075zM255.217 0H76.146A23.992 23.992 0 0 0 52.18 23.965v95.07A23.992 23.992 0 0 0 76.146 143h179.07a23.992 23.992 0 0 0 23.965-23.965v-95.07A23.992 23.992 0 0 0 255.217 0Z"/><path fill="#fff" d="M76.145 19.5a4.47 4.47 0 0 0-4.464 4.464v95.072a4.47 4.47 0 0 0 4.464 4.464h179.072a4.47 4.47 0 0 0 4.464-4.464V23.964a4.47 4.47 0 0 0-4.464-4.464Z"/><path fill="#6c63ff" d="M162.058 113.478q-.092 0-.184-.005a3.229 3.229 0 0 1-3.003-2.693l-10.364-62.184-9.15 36.603a3.23 3.23 0 0 1-3.133 2.446h-12.916a3.229 3.229 0 1 1 0-6.458h10.395l12.304-49.219a3.229 3.229 0 0 1 6.318.253l10.562 63.368 8.98-31.434a3.229 3.229 0 0 1 6.169-.134l5.722 17.166h10.589a3.229 3.229 0 0 1 0 6.458H181.43a3.229 3.229 0 0 1-3.064-2.208l-3.157-9.472-10.049 35.17a3.23 3.23 0 0 1-3.103 2.343Z"/><circle cx="201.784" cy="84.467" r="9.5" fill="#3f3d56"/><path fill="#e6e6e6" d="M533.217 0H354.146a23.992 23.992 0 0 0-23.965 23.965v95.07A23.992 23.992 0 0 0 354.146 143h179.07a23.992 23.992 0 0 0 23.965-23.965v-95.07A23.992 23.992 0 0 0 533.217 0Z"/><path fill="#fff" d="M354.145 19.5a4.47 4.47 0 0 0-4.464 4.464v95.072a4.47 4.47 0 0 0 4.464 4.464h179.072a4.47 4.47 0 0 0 4.464-4.464V23.964a4.47 4.47 0 0 0-4.464-4.464Z"/><circle cx="443.681" cy="52.997" r="23.621" fill="#6c63ff"/><path fill="#6c63ff" d="M443.681 80.555a31.494 31.494 0 0 1 31.494 31.494v1.575h-62.988v-1.575a31.494 31.494 0 0 1 31.494-31.494Z"/><circle cx="395.652" cy="71.894" r="16.534" fill="#3f3d56"/><path fill="#3f3d56" d="M411.846 96.025a22.041 22.041 0 0 0-36.665 16.496v1.103h32.282v-1.575a31.34 31.34 0 0 1 4.383-16.024Z"/><circle cx="491.71" cy="71.894" r="16.534" fill="#3f3d56"/><path fill="#3f3d56" d="M475.517 96.025a22.041 22.041 0 0 1 36.664 16.496v1.103H479.9v-1.575a31.34 31.34 0 0 0-4.382-16.024Z"/><path fill="#e6e6e6" d="M811.217 0H632.146a23.992 23.992 0 0 0-23.965 23.965v95.07A23.992 23.992 0 0 0 632.146 143h179.07a23.992 23.992 0 0 0 23.965-23.965v-95.07A23.992 23.992 0 0 0 811.217 0Z"/><path fill="#fff" d="M632.145 19.5a4.47 4.47 0 0 0-4.464 4.464v95.072a4.47 4.47 0 0 0 4.464 4.464h179.072a4.47 4.47 0 0 0 4.464-4.464V23.964a4.47 4.47 0 0 0-4.464-4.464Z"/><path fill="#6c63ff" d="M718.683 115.464a2.93 2.93 0 0 1-2.93-2.931V89.085a2.93 2.93 0 0 1 5.86 0v23.448a2.93 2.93 0 0 1-2.93 2.93Z"/><path fill="#6c63ff" d="M728.941 103.74h-20.516a2.93 2.93 0 1 1 0-5.862h20.516a2.93 2.93 0 1 1 0 5.862ZM758.25 48.053a2.93 2.93 0 0 1-2.93-2.931V33.398h-11.724a2.93 2.93 0 1 1 0-5.862h14.654a2.93 2.93 0 0 1 2.931 2.931v14.655a2.93 2.93 0 0 1-2.93 2.93Z"/><path fill="#6c63ff" d="M740.533 51.116a2.931 2.931 0 0 1-2.073-5.004l17.718-17.717a2.93 2.93 0 0 1 4.145 4.145l-17.718 17.717a2.922 2.922 0 0 1-2.072.859Z"/><path fill="#3f3d56" d="M718.683 89.085a27.844 27.844 0 1 1 27.844-27.843 27.875 27.875 0 0 1-27.844 27.843Zm0-49.825a21.982 21.982 0 1 0 21.982 21.982 22.007 22.007 0 0 0-21.982-21.982ZM0 549.889h888v2.241H0z"/></svg>