<?xml version="1.0" encoding="utf-8"?>
<!-- Generator: Adobe Illustrator 19.2.0, SVG Export Plug-In . SVG Version: 6.00 Build 0)  -->
<svg version="1.1" id="electronics" xmlns="http://www.w3.org/2000/svg" xmlns:xlink="http://www.w3.org/1999/xlink" x="0px"
	 y="0px" viewBox="0 0 214 184" enable-background="new 0 0 214 184" xml:space="preserve">
<g>
	<path fill="none" d="M188,24h0.6047c-3.3-9.3051-12.1652-16-22.5892-16H45.9843c-10.424,0-19.2892,6.6949-22.5888,16H26v8h-4v24h4
		v8h-4v24h4v8h-4v24h4v8h-4v24h4v8h-2.6045c3.2996,9.3053,12.1648,16,22.5888,16h120.0312c10.424,0,19.2892-6.6947,22.5892-16H188
		v-8h2v-24h-2v-8h2V96h-2v-8h2V64h-2v-8h2V32h-2V24z M178,164H34V20h144V164z"/>
	<path fill="none" d="M170,28H42v128h128V28z M94,140H58v-36h8v28h28V140z M94,52H66v28h-8V44h36V52z M154,140h-36v-8h28v-28h8V140z
		 M154,80h-8V52h-28v-8h36V80z"/>
	<path d="M34,164h144V20H34V164z M42,28h128v128H42V28z"/>
	<polygon points="58,80 66,80 66,52 94,52 94,44 58,44 	"/>
	<polygon points="146,132 118,132 118,140 154,140 154,104 146,104 	"/>
	<polygon points="66,104 58,104 58,140 94,140 94,132 66,132 	"/>
	<polygon points="118,52 146,52 146,80 154,80 154,44 118,44 	"/>
	<path d="M214,32v-8h-17.0497c-3.5604-13.7783-16.0592-24-30.9348-24H45.9843C31.1087,0,18.6099,10.2217,15.0495,24H0v8h14v24H0v8
		h14v24H0v8h14v24H0v8h14v24H0v8h15.0495c3.5604,13.7785,16.0592,24,30.9348,24h120.0312c14.8756,0,27.3744-10.2215,30.9348-24H214
		v-8h-16v-24h16v-8h-16V96h16v-8h-16V64h16v-8h-16V32H214z M190,56h-2v8h2v24h-2v8h2v24h-2v8h2v24h-2v8h0.6047
		c-3.3,9.3053-12.1652,16-22.5892,16H45.9843c-10.424,0-19.2892-6.6947-22.5888-16H26v-8h-4v-24h4v-8h-4V96h4v-8h-4V64h4v-8h-4V32h4
		v-8h-2.6045c3.2996-9.3051,12.1648-16,22.5888-16h120.0312c10.424,0,19.2892,6.6949,22.5892,16H188v8h2V56z"/>
</g>
</svg>
