<svg width="34" height="38" viewBox="0 0 34 38" fill="none" xmlns="http://www.w3.org/2000/svg">
<path d="M30.2579 22.7401V18.1759C31.1888 18.078 31.9168 17.2885 31.9168 16.3321C31.9168 15.3756 31.1888 14.5861 30.2579 14.4882V6.45889C30.2579 5.77036 29.6977 5.21023 29.0092 5.21023H22.4515C21.763 5.21023 21.2029 5.77036 21.2029 6.45889V9.35156C21.2029 9.65905 21.452 9.9082 21.7595 9.9082C22.067 9.9082 22.3162 9.65905 22.3162 9.35156V6.45889C22.3162 6.38422 22.3769 6.32351 22.4515 6.32351H29.0092C29.0839 6.32351 29.1446 6.38422 29.1446 6.45889V14.4779H22.3161V11.9492C22.3161 11.6417 22.0669 11.3926 21.7595 11.3926C21.452 11.3926 21.2028 11.6417 21.2028 11.9492V14.4883C20.272 14.5862 19.5439 15.3757 19.5439 16.3321C19.5439 16.4363 19.553 16.5385 19.5696 16.6381H12.0113V15.1843C13.6278 14.6156 14.79 13.0743 14.79 11.2658V3.95653C14.79 2.7688 13.8238 1.80263 12.6361 1.80263C12.258 1.80263 11.9025 1.90089 11.5934 2.07271C11.5504 0.922465 10.6019 0 9.44159 0C8.80865 0 8.23873 0.274461 7.84433 0.71057C7.44985 0.274461 6.87993 0 6.24699 0C5.29098 0 4.4788 0.626332 4.19826 1.49009C3.86613 1.28057 3.47336 1.15878 3.05247 1.15878C1.86475 1.15878 0.898566 2.12503 0.898566 3.31268V3.51159C0.898566 3.81907 1.14772 4.06823 1.45521 4.06823C1.7627 4.06823 2.01185 3.81907 2.01185 3.51159V3.31268C2.01185 2.73897 2.47868 2.27206 3.05247 2.27206C3.62625 2.27206 4.09309 2.73889 4.09309 3.31268V6.71769H2.27065C2.18307 6.71769 2.09683 6.72318 2.01185 6.7329V5.91115C2.01185 5.60366 1.7627 5.35451 1.45521 5.35451C1.14772 5.35451 0.898566 5.60366 0.898566 5.91115V7.18059C0.352984 7.5957 0 8.25142 0 8.98834V11.2658C0 13.14 1.24799 14.7274 2.95636 15.2426V18.8087C2.02543 18.9066 1.29742 19.696 1.29742 20.6525C1.29742 21.6089 2.02536 22.3983 2.95636 22.4962V26.0879C2.95636 26.3954 3.20551 26.6445 3.513 26.6445C3.82048 26.6445 4.06964 26.3954 4.06964 26.0879V22.5065H10.8981V31.541C10.8981 31.6157 10.8374 31.6764 10.7628 31.6764H4.20494C4.13027 31.6764 4.06956 31.6157 4.06956 31.541V28.6855C4.06956 28.3781 3.82041 28.1289 3.51292 28.1289C3.20543 28.1289 2.95628 28.3781 2.95628 28.6855V31.5411C2.95628 32.2296 3.51641 32.7898 4.20494 32.7898H10.7626C11.4511 32.7898 12.0113 32.2296 12.0113 31.5411V22.4961C12.9422 22.3983 13.6702 21.6088 13.6702 20.6523C13.6702 20.5481 13.6611 20.446 13.6445 20.3465L21.2027 20.3464V22.8369C19.6179 23.4225 18.485 24.9485 18.485 26.7343V34.0435C18.485 35.2312 19.4513 36.1974 20.6389 36.1974C21.017 36.1974 21.3725 36.0991 21.6816 35.9273C21.7246 37.0775 22.6732 38 23.8335 38C24.4664 38 25.0364 37.7255 25.4308 37.2895C25.8252 37.7255 26.3952 38 27.028 38C27.984 38 28.7962 37.3737 29.0768 36.5099C29.4089 36.7194 29.8016 36.8412 30.2225 36.8412C31.4103 36.8412 32.3764 35.875 32.3764 34.6873V30.8193C32.922 30.4042 33.275 29.7485 33.275 29.0116V26.7341C33.2752 24.838 31.9973 23.2356 30.2579 22.7401ZM11.5954 3.95653C11.5954 3.38274 12.0623 2.91591 12.636 2.91591C13.2098 2.91591 13.6767 3.38274 13.6767 3.95653V6.24707C13.6767 6.82085 13.2098 7.28769 12.636 7.28769C12.0623 7.28769 11.5954 6.82085 11.5954 6.24707V3.95653ZM8.4009 2.1539C8.4009 1.58012 8.86773 1.11328 9.44152 1.11328C10.0152 1.11328 10.4821 1.58012 10.4821 2.1539V6.24699C10.4821 6.82078 10.0153 7.28761 9.44152 7.28761C8.86773 7.28761 8.4009 6.82078 8.4009 6.24699V2.1539ZM5.20637 2.1539C5.20637 1.58012 5.67321 1.11328 6.24699 1.11328C6.82078 1.11328 7.28761 1.58012 7.28761 2.1539V6.24699C7.28761 6.48427 7.20516 6.70975 7.06154 6.89136C6.79814 6.77988 6.50965 6.71754 6.2087 6.71754H5.20637V2.1539ZM1.11321 11.2657V8.98826C1.11321 8.35005 1.63244 7.83082 2.27065 7.83082H6.20877C6.78367 7.83082 7.26743 8.28044 7.28702 8.833C7.29719 9.11874 7.1938 9.38897 6.99601 9.59404C6.79799 9.79918 6.53199 9.91214 6.24699 9.91214H4.69248C4.38499 9.91214 4.13584 10.1613 4.13584 10.4688V11.783C4.13584 12.0905 4.38499 12.3396 4.69248 12.3396C4.99997 12.3396 5.24912 12.0905 5.24912 11.783V11.0254H6.24699C6.83681 11.0254 7.38736 10.7916 7.79705 10.3671C8.20666 9.94271 8.42056 9.38385 8.39956 8.79344C8.38984 8.51935 8.32556 8.25773 8.21817 8.018C8.56596 8.25906 8.98737 8.40097 9.44159 8.40097C10.0745 8.40097 10.6444 8.12651 11.0389 7.69047C11.4333 8.12651 12.0033 8.40097 12.6361 8.40097C13.0134 8.40097 13.3681 8.30322 13.6767 8.13215V11.2657C13.6767 12.942 12.313 14.3058 10.6367 14.3058H4.15321C2.47698 14.3058 1.11321 12.942 1.11321 11.2657ZM4.15321 15.4191H10.6367C10.7245 15.4191 10.8115 15.4155 10.8981 15.41V18.7982H4.06956V15.4169C4.09747 15.4175 4.12515 15.4191 4.15321 15.4191ZM3.22213 21.3932H3.15155C2.74305 21.3932 2.4107 21.0608 2.4107 20.6523C2.4107 20.2439 2.74312 19.9116 3.15155 19.9116H4.23552L3.22213 21.3932ZM6.30273 21.3932H4.57091L5.58429 19.9115H7.31611L6.30273 21.3932ZM9.3834 21.3932H7.65158L8.66496 19.9115H10.3968L9.3834 21.3932ZM11.8161 21.3932H10.732L11.7453 19.9115H11.8161C12.2246 19.9115 12.5569 20.2439 12.5569 20.6523C12.5569 21.0608 12.2246 21.3932 11.8161 21.3932ZM12.6479 18.9961C12.4528 18.8977 12.2381 18.8331 12.0113 18.8091V17.7513H13.4992L12.6479 18.9961ZM15.4697 19.2331H13.8345L14.8479 17.7513H16.4832L15.4697 19.2331ZM18.4536 19.2331H16.8185L17.8319 17.7513H19.467L18.4536 19.2331ZM29.992 15.5912H30.0626C30.4711 15.5912 30.8035 15.9236 30.8035 16.3321C30.8035 16.7405 30.471 17.0729 30.0626 17.0729H28.9786L29.992 15.5912ZM29.1446 18.1863V22.5815C29.137 22.5814 29.1295 22.5809 29.1219 22.5809H22.6384C22.5298 22.5809 22.4226 22.5864 22.3161 22.5946V18.1863H29.1446ZM26.9114 15.5912H28.6432L27.6299 17.073H25.898L26.9114 15.5912ZM23.8309 15.5912H25.5626L24.5493 17.073H22.8175L23.8309 15.5912ZM21.3981 15.5912H22.4821L21.4687 17.073H21.3981C20.9896 17.073 20.6573 16.7406 20.6573 16.3321C20.6573 15.9237 20.9896 15.5912 21.3981 15.5912ZM19.8024 19.2331L20.6321 18.0199C20.8093 18.1007 21.0013 18.1545 21.2028 18.1758V19.233L19.8024 19.2331ZM21.6796 34.0435C21.6796 34.6173 21.2128 35.0841 20.639 35.0841C20.0652 35.0841 19.5984 34.6173 19.5984 34.0435V31.7529C19.5984 31.1791 20.0652 30.7123 20.639 30.7123C21.2127 30.7123 21.6796 31.1791 21.6796 31.7529V34.0435ZM24.8742 35.8461C24.8742 36.4199 24.4074 36.8867 23.8336 36.8867C23.2599 36.8867 22.7929 36.4199 22.7929 35.8461V31.753C22.7929 31.1792 23.2598 30.7124 23.8336 30.7124C24.4074 30.7124 24.8742 31.1792 24.8742 31.753V35.8461ZM28.0687 35.8461C28.0687 36.4199 27.6019 36.8867 27.0281 36.8867C26.4543 36.8867 25.9875 36.4199 25.9875 35.8461V31.753C25.9875 31.5157 26.0699 31.2903 26.2135 31.1086C26.4769 31.2201 26.7654 31.2825 27.0664 31.2825H28.0687V35.8461ZM31.2632 34.6874C31.2632 35.2611 30.7964 35.728 30.2226 35.728C29.6488 35.728 29.182 35.2612 29.182 34.6874V31.2824H31.0045C31.0921 31.2824 31.1783 31.2769 31.2633 31.2672L31.2632 34.6874ZM32.1619 29.0117C32.1619 29.6499 31.6426 30.1692 31.0044 30.1692H27.0663C26.4914 30.1692 26.0077 29.7196 25.9881 29.167C25.9779 28.8813 26.0813 28.611 26.2791 28.406C26.4771 28.2008 26.7431 28.0879 27.0281 28.0879H28.5826C28.8901 28.0879 29.1392 27.8387 29.1392 27.5312V26.217C29.1392 25.9095 28.8901 25.6604 28.5826 25.6604C28.2751 25.6604 28.026 25.9095 28.026 26.217V26.9746H27.0281C26.4383 26.9746 25.8877 27.2084 25.478 27.6329C25.0684 28.0573 24.8545 28.6162 24.8755 29.2066C24.8853 29.4807 24.9496 29.7423 25.0569 29.982C24.7091 29.7409 24.2877 29.599 23.8335 29.599C23.2006 29.599 22.6306 29.8735 22.2362 30.3096C21.8418 29.8735 21.2719 29.599 20.639 29.599C20.2617 29.599 19.907 29.6968 19.5984 29.8679V26.7343C19.5984 25.058 20.9621 23.6942 22.6384 23.6942H29.1219C30.7981 23.6942 32.1619 25.058 32.1619 26.7343V29.0117Z" fill="black"/>
<path d="M30.2579 22.7401V18.1759C31.1888 18.078 31.9168 17.2885 31.9168 16.3321C31.9168 15.3756 31.1888 14.5861 30.2579 14.4882V6.45889C30.2579 5.77036 29.6977 5.21023 29.0092 5.21023H22.4515C21.763 5.21023 21.2029 5.77036 21.2029 6.45889V9.35156C21.2029 9.65905 21.452 9.9082 21.7595 9.9082C22.067 9.9082 22.3162 9.65905 22.3162 9.35156V6.45889C22.3162 6.38422 22.3769 6.32351 22.4515 6.32351H29.0092C29.0839 6.32351 29.1446 6.38422 29.1446 6.45889V14.4779H22.3161V11.9492C22.3161 11.6417 22.0669 11.3926 21.7595 11.3926C21.452 11.3926 21.2028 11.6417 21.2028 11.9492V14.4883C20.272 14.5862 19.5439 15.3757 19.5439 16.3321C19.5439 16.4363 19.553 16.5385 19.5696 16.6381H12.0113V15.1843C13.6278 14.6156 14.79 13.0743 14.79 11.2658V3.95653C14.79 2.7688 13.8238 1.80263 12.6361 1.80263C12.258 1.80263 11.9025 1.90089 11.5934 2.07271C11.5504 0.922465 10.6019 0 9.44159 0C8.80865 0 8.23873 0.274461 7.84433 0.71057C7.44985 0.274461 6.87993 0 6.24699 0C5.29098 0 4.4788 0.626332 4.19826 1.49009C3.86613 1.28057 3.47336 1.15878 3.05247 1.15878C1.86475 1.15878 0.898566 2.12503 0.898566 3.31268V3.51159C0.898566 3.81907 1.14772 4.06823 1.45521 4.06823C1.7627 4.06823 2.01185 3.81907 2.01185 3.51159V3.31268C2.01185 2.73897 2.47868 2.27206 3.05247 2.27206C3.62625 2.27206 4.09309 2.73889 4.09309 3.31268V6.71769H2.27065C2.18307 6.71769 2.09683 6.72318 2.01185 6.7329V5.91115C2.01185 5.60366 1.7627 5.35451 1.45521 5.35451C1.14772 5.35451 0.898566 5.60366 0.898566 5.91115V7.18059C0.352984 7.5957 0 8.25142 0 8.98834V11.2658C0 13.14 1.24799 14.7274 2.95636 15.2426V18.8087C2.02543 18.9066 1.29742 19.696 1.29742 20.6525C1.29742 21.6089 2.02536 22.3983 2.95636 22.4962V26.0879C2.95636 26.3954 3.20551 26.6445 3.513 26.6445C3.82048 26.6445 4.06964 26.3954 4.06964 26.0879V22.5065H10.8981V31.541C10.8981 31.6157 10.8374 31.6764 10.7628 31.6764H4.20494C4.13027 31.6764 4.06956 31.6157 4.06956 31.541V28.6855C4.06956 28.3781 3.82041 28.1289 3.51292 28.1289C3.20543 28.1289 2.95628 28.3781 2.95628 28.6855V31.5411C2.95628 32.2296 3.51641 32.7898 4.20494 32.7898H10.7626C11.4511 32.7898 12.0113 32.2296 12.0113 31.5411V22.4961C12.9422 22.3983 13.6702 21.6088 13.6702 20.6523C13.6702 20.5481 13.6611 20.446 13.6445 20.3465L21.2027 20.3464V22.8369C19.6179 23.4225 18.485 24.9485 18.485 26.7343V34.0435C18.485 35.2312 19.4513 36.1974 20.6389 36.1974C21.017 36.1974 21.3725 36.0991 21.6816 35.9273C21.7246 37.0775 22.6732 38 23.8335 38C24.4664 38 25.0364 37.7255 25.4308 37.2895C25.8252 37.7255 26.3952 38 27.028 38C27.984 38 28.7962 37.3737 29.0768 36.5099C29.4089 36.7194 29.8016 36.8412 30.2225 36.8412C31.4103 36.8412 32.3764 35.875 32.3764 34.6873V30.8193C32.922 30.4042 33.275 29.7485 33.275 29.0116V26.7341C33.2752 24.838 31.9973 23.2356 30.2579 22.7401ZM11.5954 3.95653C11.5954 3.38274 12.0623 2.91591 12.636 2.91591C13.2098 2.91591 13.6767 3.38274 13.6767 3.95653V6.24707C13.6767 6.82085 13.2098 7.28769 12.636 7.28769C12.0623 7.28769 11.5954 6.82085 11.5954 6.24707V3.95653ZM8.4009 2.1539C8.4009 1.58012 8.86773 1.11328 9.44152 1.11328C10.0152 1.11328 10.4821 1.58012 10.4821 2.1539V6.24699C10.4821 6.82078 10.0153 7.28761 9.44152 7.28761C8.86773 7.28761 8.4009 6.82078 8.4009 6.24699V2.1539ZM5.20637 2.1539C5.20637 1.58012 5.67321 1.11328 6.24699 1.11328C6.82078 1.11328 7.28761 1.58012 7.28761 2.1539V6.24699C7.28761 6.48427 7.20516 6.70975 7.06154 6.89136C6.79814 6.77988 6.50965 6.71754 6.2087 6.71754H5.20637V2.1539ZM1.11321 11.2657V8.98826C1.11321 8.35005 1.63244 7.83082 2.27065 7.83082H6.20877C6.78367 7.83082 7.26743 8.28044 7.28702 8.833C7.29719 9.11874 7.1938 9.38897 6.99601 9.59404C6.79799 9.79918 6.53199 9.91214 6.24699 9.91214H4.69248C4.38499 9.91214 4.13584 10.1613 4.13584 10.4688V11.783C4.13584 12.0905 4.38499 12.3396 4.69248 12.3396C4.99997 12.3396 5.24912 12.0905 5.24912 11.783V11.0254H6.24699C6.83681 11.0254 7.38736 10.7916 7.79705 10.3671C8.20666 9.94271 8.42056 9.38385 8.39956 8.79344C8.38984 8.51935 8.32556 8.25773 8.21817 8.018C8.56596 8.25906 8.98737 8.40097 9.44159 8.40097C10.0745 8.40097 10.6444 8.12651 11.0389 7.69047C11.4333 8.12651 12.0033 8.40097 12.6361 8.40097C13.0134 8.40097 13.3681 8.30322 13.6767 8.13215V11.2657C13.6767 12.942 12.313 14.3058 10.6367 14.3058H4.15321C2.47698 14.3058 1.11321 12.942 1.11321 11.2657ZM4.15321 15.4191H10.6367C10.7245 15.4191 10.8115 15.4155 10.8981 15.41V18.7982H4.06956V15.4169C4.09747 15.4175 4.12515 15.4191 4.15321 15.4191ZM3.22213 21.3932H3.15155C2.74305 21.3932 2.4107 21.0608 2.4107 20.6523C2.4107 20.2439 2.74312 19.9116 3.15155 19.9116H4.23552L3.22213 21.3932ZM6.30273 21.3932H4.57091L5.58429 19.9115H7.31611L6.30273 21.3932ZM9.3834 21.3932H7.65158L8.66496 19.9115H10.3968L9.3834 21.3932ZM11.8161 21.3932H10.732L11.7453 19.9115H11.8161C12.2246 19.9115 12.5569 20.2439 12.5569 20.6523C12.5569 21.0608 12.2246 21.3932 11.8161 21.3932ZM12.6479 18.9961C12.4528 18.8977 12.2381 18.8331 12.0113 18.8091V17.7513H13.4992L12.6479 18.9961ZM15.4697 19.2331H13.8345L14.8479 17.7513H16.4832L15.4697 19.2331ZM18.4536 19.2331H16.8185L17.8319 17.7513H19.467L18.4536 19.2331ZM29.992 15.5912H30.0626C30.4711 15.5912 30.8035 15.9236 30.8035 16.3321C30.8035 16.7405 30.471 17.0729 30.0626 17.0729H28.9786L29.992 15.5912ZM29.1446 18.1863V22.5815C29.137 22.5814 29.1295 22.5809 29.1219 22.5809H22.6384C22.5298 22.5809 22.4226 22.5864 22.3161 22.5946V18.1863H29.1446ZM26.9114 15.5912H28.6432L27.6299 17.073H25.898L26.9114 15.5912ZM23.8309 15.5912H25.5626L24.5493 17.073H22.8175L23.8309 15.5912ZM21.3981 15.5912H22.4821L21.4687 17.073H21.3981C20.9896 17.073 20.6573 16.7406 20.6573 16.3321C20.6573 15.9237 20.9896 15.5912 21.3981 15.5912ZM19.8024 19.2331L20.6321 18.0199C20.8093 18.1007 21.0013 18.1545 21.2028 18.1758V19.233L19.8024 19.2331ZM21.6796 34.0435C21.6796 34.6173 21.2128 35.0841 20.639 35.0841C20.0652 35.0841 19.5984 34.6173 19.5984 34.0435V31.7529C19.5984 31.1791 20.0652 30.7123 20.639 30.7123C21.2127 30.7123 21.6796 31.1791 21.6796 31.7529V34.0435ZM24.8742 35.8461C24.8742 36.4199 24.4074 36.8867 23.8336 36.8867C23.2599 36.8867 22.7929 36.4199 22.7929 35.8461V31.753C22.7929 31.1792 23.2598 30.7124 23.8336 30.7124C24.4074 30.7124 24.8742 31.1792 24.8742 31.753V35.8461ZM28.0687 35.8461C28.0687 36.4199 27.6019 36.8867 27.0281 36.8867C26.4543 36.8867 25.9875 36.4199 25.9875 35.8461V31.753C25.9875 31.5157 26.0699 31.2903 26.2135 31.1086C26.4769 31.2201 26.7654 31.2825 27.0664 31.2825H28.0687V35.8461ZM31.2632 34.6874C31.2632 35.2611 30.7964 35.728 30.2226 35.728C29.6488 35.728 29.182 35.2612 29.182 34.6874V31.2824H31.0045C31.0921 31.2824 31.1783 31.2769 31.2633 31.2672L31.2632 34.6874ZM32.1619 29.0117C32.1619 29.6499 31.6426 30.1692 31.0044 30.1692H27.0663C26.4914 30.1692 26.0077 29.7196 25.9881 29.167C25.9779 28.8813 26.0813 28.611 26.2791 28.406C26.4771 28.2008 26.7431 28.0879 27.0281 28.0879H28.5826C28.8901 28.0879 29.1392 27.8387 29.1392 27.5312V26.217C29.1392 25.9095 28.8901 25.6604 28.5826 25.6604C28.2751 25.6604 28.026 25.9095 28.026 26.217V26.9746H27.0281C26.4383 26.9746 25.8877 27.2084 25.478 27.6329C25.0684 28.0573 24.8545 28.6162 24.8755 29.2066C24.8853 29.4807 24.9496 29.7423 25.0569 29.982C24.7091 29.7409 24.2877 29.599 23.8335 29.599C23.2006 29.599 22.6306 29.8735 22.2362 30.3096C21.8418 29.8735 21.2719 29.599 20.639 29.599C20.2617 29.599 19.907 29.6968 19.5984 29.8679V26.7343C19.5984 25.058 20.9621 23.6942 22.6384 23.6942H29.1219C30.7981 23.6942 32.1619 25.058 32.1619 26.7343V29.0117Z" fill="url(#paint0_linear_619_1018)"/>
<defs>
<linearGradient id="paint0_linear_619_1018" x1="0.660546" y1="19.4872" x2="33.0012" y2="19.5467" gradientUnits="userSpaceOnUse">
<stop stop-color="#4E54C8"/>
<stop offset="1" stop-color="#8F94FB"/>
</linearGradient>
</defs>
</svg>
