<svg width="50" height="50" viewBox="0 0 50 50" fill="none" xmlns="http://www.w3.org/2000/svg">
<path d="M48.5348 49.9997H1.46483C0.655854 49.9997 0 49.3438 0 48.5348C0 47.7259 0.655854 47.07 1.46483 47.07H48.5348C49.3438 47.07 49.9996 47.7259 49.9996 48.5348C49.9996 49.3438 49.3438 49.9997 48.5348 49.9997Z" fill="#CBD5E1"/>
<path d="M10.3515 49.9996H4.49218C3.6832 49.9996 3.02734 49.3438 3.02734 48.5348V37.7927C3.02734 36.4465 4.12255 35.3513 5.46873 35.3513H9.37495C10.7211 35.3513 11.8163 36.4465 11.8163 37.7927V48.5348C11.8163 49.3438 11.1605 49.9996 10.3515 49.9996ZM5.95701 47.07H8.88667V38.281H5.95701V47.07Z" fill="#CBD5E1"/>
<path d="M22.0703 50H16.2109C15.4019 50 14.7461 49.3442 14.7461 48.5352V34.2775C14.7461 32.9313 15.8413 31.8361 17.1875 31.8361H21.0937C22.4399 31.8361 23.5351 32.9313 23.5351 34.2775V48.5352C23.5351 49.3442 22.8792 50 22.0703 50ZM17.6758 47.0704H20.6054V34.7658H17.6758V47.0704Z" fill="#CBD5E1"/>
<path d="M33.789 50H27.9297C27.1207 50 26.4648 49.3442 26.4648 48.5352V28.9064C26.4648 27.5603 27.5601 26.4651 28.9062 26.4651H32.8125C34.1586 26.4651 35.2538 27.5603 35.2538 28.9064V48.5352C35.2538 49.3442 34.598 50 33.789 50ZM29.3945 47.0704H32.3242V29.3947H29.3945V47.0704Z" fill="#CBD5E1"/>
<path d="M45.5078 49.9996H39.6484C38.8394 49.9996 38.1836 49.3438 38.1836 48.5348V19.1405C38.1836 17.7943 39.2788 16.6991 40.625 16.6991H44.5312C45.8774 16.6991 46.9726 17.7943 46.9726 19.1405V48.5348C46.9726 49.3438 46.3167 49.9996 45.5078 49.9996ZM41.1133 47.07H44.0429V19.6288H41.1133V47.07Z" fill="#CBD5E1"/>
<path d="M1.46483 31.4753C0.655854 31.4753 0 30.8195 0 30.0105C0 29.2015 0.655854 28.5457 1.46483 28.5457C10.0786 28.5457 19.4573 25.409 27.8729 19.7134C35.6152 14.4737 41.7845 7.60462 44.7989 0.867465C45.1293 0.128994 45.9958 -0.201862 46.7342 0.128701C47.4727 0.45907 47.8034 1.32557 47.473 2.06404C44.242 9.28537 37.6965 16.6027 29.515 22.1397C20.6197 28.1598 10.6578 31.4753 1.46483 31.4753Z" fill="#CBD5E1"/>
<path d="M48.5328 11.8824C47.8859 11.8824 47.2941 11.4508 47.1188 10.7963L45.0992 3.25917L37.5621 5.27878C36.7803 5.48835 35.9774 5.02448 35.768 4.24304C35.5587 3.46161 36.0223 2.65839 36.8038 2.44902L45.7559 0.0503034C46.5376 -0.159168 47.3405 0.304696 47.5499 1.08604L49.9486 10.0381C50.158 10.8196 49.6943 11.6228 48.9129 11.8321C48.7858 11.8661 48.6583 11.8824 48.5328 11.8824Z" fill="#CBD5E1"/>
</svg>
