<svg width="50" height="50" viewBox="0 0 50 50" fill="none" xmlns="http://www.w3.org/2000/svg">
<path d="M2.77185 19.4089C2.94944 19.4804 3.13737 19.5159 3.32531 19.5159C3.51974 19.5159 3.71418 19.4778 3.89676 19.4014L8.29305 17.5686C9.04057 17.2566 9.39117 16.4051 9.0754 15.6662C8.76001 14.9274 7.89767 14.5814 7.14977 14.893L6.07462 15.3414C9.41107 7.83784 16.9605 2.90402 25.3604 2.90402C34.9644 2.90402 43.3513 9.31972 45.7557 18.5056C45.9272 19.1601 46.5235 19.5946 47.1776 19.5946C47.2994 19.5946 47.4234 19.5795 47.5466 19.5481C48.3324 19.3473 48.8047 18.5551 48.6015 17.7788C45.8617 7.31073 36.3044 0 25.3604 0C15.7345 0 7.08968 5.68629 3.32033 14.3178L2.82428 13.1562C2.50851 12.4177 1.64655 12.0714 0.898655 12.3829C0.150757 12.6949 -0.199461 13.5468 0.115927 14.2853L1.97113 18.6285C2.1227 18.9832 2.41053 19.2641 2.77185 19.4089Z" fill="#CBD5E1"/>
<path d="M49.8814 35.5788L48.0262 31.2833C47.8746 30.9321 47.5864 30.6546 47.2254 30.511C46.8641 30.3677 46.4595 30.3703 46.1005 30.5185L41.7042 32.3317C40.9567 32.6399 40.6061 33.4825 40.9219 34.2133C41.2373 34.9441 42.0996 35.2864 42.8475 34.9778L44.0781 34.4703C40.825 42.0912 33.17 47.1276 24.6373 47.1276C15.0329 47.1276 6.64602 40.7817 4.24157 31.6958C4.03833 30.9276 3.23646 30.4668 2.45067 30.6647C1.66488 30.8633 1.19256 31.6469 1.39581 32.4147C4.13555 42.7689 13.6929 50 24.6373 50C34.3171 50 43.0052 44.312 46.7401 35.6933L47.173 36.6956C47.4099 37.2443 47.9546 37.5738 48.5279 37.5738C48.7182 37.5738 48.9122 37.5375 49.0986 37.4605C49.8465 37.1519 50.1967 36.3097 49.8814 35.5788Z" fill="#CBD5E1"/>
<path d="M22.0657 41.1281C22.23 41.1879 22.4001 41.2163 22.5682 41.2163C23.0023 41.2163 23.4248 41.0248 23.7124 40.6753L36.1473 25.563C36.5138 25.1175 36.5911 24.5 36.3464 23.9772C36.1013 23.4549 35.5783 23.1213 35.0035 23.1213H29.5943V9.59982C29.5943 8.97064 29.2016 8.40943 28.6125 8.19621C28.0237 7.98338 27.365 8.16475 26.9657 8.64945L14.5308 23.7617C14.1644 24.2068 14.0871 24.8247 14.3317 25.3471C14.5768 25.8698 15.1002 26.2034 15.675 26.2034H21.0842V39.7249C21.0838 40.3541 21.4766 40.9153 22.0657 41.1281ZM18.8278 23.2207L26.6256 13.7442V24.6126C26.6256 25.4364 27.2901 26.104 28.1099 26.104H31.8499L24.0526 35.5805V24.7121C24.0526 23.8883 23.3877 23.2207 22.5682 23.2207H18.8278Z" fill="#CBD5E1"/>
</svg>
