<svg width="36" height="35" viewBox="0 0 36 35" fill="none" xmlns="http://www.w3.org/2000/svg">
<path d="M35.9306 18.9413C35.6073 15.6902 34.1549 12.6251 31.8406 10.3108C29.8628 8.33307 27.442 7.06215 24.8949 6.49704V4.71052C25.9352 4.45169 26.7085 3.50998 26.7085 2.39066C26.7085 1.07242 25.6361 0 24.3179 0H19.2553C17.9371 0 16.8646 1.07242 16.8646 2.39066C16.8646 3.50991 17.6379 4.45162 18.6782 4.71052V6.50203C16.1389 7.06954 13.7261 8.3387 11.754 10.3109C11.3224 10.7424 10.9244 11.1952 10.5601 11.6657C10.5425 11.6644 10.5248 11.663 10.5068 11.663H5.4962C5.10793 11.663 4.79306 11.9778 4.79306 12.3662C4.79306 12.7545 5.10793 13.0693 5.4962 13.0693H9.60336C9.08782 13.9324 8.67212 14.8388 8.35571 15.7719H0.703136C0.314864 15.7719 0 16.0867 0 16.475C0 16.8634 0.314864 17.1782 0.703136 17.1782H7.95837C7.75573 18.0677 7.63943 18.973 7.6094 19.8808H4.50007C4.1118 19.8808 3.79693 20.1956 3.79693 20.5839C3.79693 20.9723 4.1118 21.2871 4.50007 21.2871H7.63183C7.69118 22.1972 7.8375 23.1026 8.07087 23.9897H3.51568C3.12741 23.9897 2.81254 24.3045 2.81254 24.6929C2.81254 25.0812 3.12741 25.396 3.51568 25.396H8.51961C9.20939 27.2207 10.2874 28.9309 11.754 30.3975C14.0705 32.7141 17.1387 34.1669 20.3933 34.4884C20.8577 34.5343 21.3226 34.557 21.7868 34.557C24.5306 34.557 27.2395 33.763 29.538 32.2661C29.8634 32.0542 29.9555 31.6186 29.7435 31.2932C29.5316 30.9678 29.096 30.8757 28.7706 31.0877C23.7392 34.3641 17.0008 33.6557 12.7483 29.4032C7.75875 24.4136 7.75875 16.295 12.7483 11.3053C17.7379 6.31577 25.8565 6.31577 30.8461 11.3053C35.093 15.5522 35.8053 22.2848 32.5397 27.3138C32.3282 27.6395 32.4208 28.075 32.7464 28.2864C33.0723 28.4979 33.5076 28.4053 33.7191 28.0796C35.4638 25.3926 36.2492 22.1473 35.9306 18.9413ZM18.2709 2.39073C18.2709 1.84791 18.7125 1.40634 19.2553 1.40634H24.3179C24.8607 1.40634 25.3023 1.84791 25.3023 2.39073C25.3023 2.93355 24.8607 3.37512 24.3179 3.37512H24.1917H19.3814H19.2553C18.7125 3.37512 18.2709 2.93348 18.2709 2.39073ZM20.0845 6.2603V4.78139H23.4886V6.25777C22.3582 6.12333 21.2147 6.12417 20.0845 6.2603Z" fill="black"/>
<path d="M35.9306 18.9413C35.6073 15.6902 34.1549 12.6251 31.8406 10.3108C29.8628 8.33307 27.442 7.06215 24.8949 6.49704V4.71052C25.9352 4.45169 26.7085 3.50998 26.7085 2.39066C26.7085 1.07242 25.6361 0 24.3179 0H19.2553C17.9371 0 16.8646 1.07242 16.8646 2.39066C16.8646 3.50991 17.6379 4.45162 18.6782 4.71052V6.50203C16.1389 7.06954 13.7261 8.3387 11.754 10.3109C11.3224 10.7424 10.9244 11.1952 10.5601 11.6657C10.5425 11.6644 10.5248 11.663 10.5068 11.663H5.4962C5.10793 11.663 4.79306 11.9778 4.79306 12.3662C4.79306 12.7545 5.10793 13.0693 5.4962 13.0693H9.60336C9.08782 13.9324 8.67212 14.8388 8.35571 15.7719H0.703136C0.314864 15.7719 0 16.0867 0 16.475C0 16.8634 0.314864 17.1782 0.703136 17.1782H7.95837C7.75573 18.0677 7.63943 18.973 7.6094 19.8808H4.50007C4.1118 19.8808 3.79693 20.1956 3.79693 20.5839C3.79693 20.9723 4.1118 21.2871 4.50007 21.2871H7.63183C7.69118 22.1972 7.8375 23.1026 8.07087 23.9897H3.51568C3.12741 23.9897 2.81254 24.3045 2.81254 24.6929C2.81254 25.0812 3.12741 25.396 3.51568 25.396H8.51961C9.20939 27.2207 10.2874 28.9309 11.754 30.3975C14.0705 32.7141 17.1387 34.1669 20.3933 34.4884C20.8577 34.5343 21.3226 34.557 21.7868 34.557C24.5306 34.557 27.2395 33.763 29.538 32.2661C29.8634 32.0542 29.9555 31.6186 29.7435 31.2932C29.5316 30.9678 29.096 30.8757 28.7706 31.0877C23.7392 34.3641 17.0008 33.6557 12.7483 29.4032C7.75875 24.4136 7.75875 16.295 12.7483 11.3053C17.7379 6.31577 25.8565 6.31577 30.8461 11.3053C35.093 15.5522 35.8053 22.2848 32.5397 27.3138C32.3282 27.6395 32.4208 28.075 32.7464 28.2864C33.0723 28.4979 33.5076 28.4053 33.7191 28.0796C35.4638 25.3926 36.2492 22.1473 35.9306 18.9413ZM18.2709 2.39073C18.2709 1.84791 18.7125 1.40634 19.2553 1.40634H24.3179C24.8607 1.40634 25.3023 1.84791 25.3023 2.39073C25.3023 2.93355 24.8607 3.37512 24.3179 3.37512H24.1917H19.3814H19.2553C18.7125 3.37512 18.2709 2.93348 18.2709 2.39073ZM20.0845 6.2603V4.78139H23.4886V6.25777C22.3582 6.12333 21.2147 6.12417 20.0845 6.2603Z" fill="url(#paint0_linear_551_897)"/>
<path d="M35.9306 18.9413C35.6073 15.6902 34.1549 12.6251 31.8406 10.3108C29.8628 8.33307 27.442 7.06215 24.8949 6.49704V4.71052C25.9352 4.45169 26.7085 3.50998 26.7085 2.39066C26.7085 1.07242 25.6361 0 24.3179 0H19.2553C17.9371 0 16.8646 1.07242 16.8646 2.39066C16.8646 3.50991 17.6379 4.45162 18.6782 4.71052V6.50203C16.1389 7.06954 13.7261 8.3387 11.754 10.3109C11.3224 10.7424 10.9244 11.1952 10.5601 11.6657C10.5425 11.6644 10.5248 11.663 10.5068 11.663H5.4962C5.10793 11.663 4.79306 11.9778 4.79306 12.3662C4.79306 12.7545 5.10793 13.0693 5.4962 13.0693H9.60336C9.08782 13.9324 8.67212 14.8388 8.35571 15.7719H0.703136C0.314864 15.7719 0 16.0867 0 16.475C0 16.8634 0.314864 17.1782 0.703136 17.1782H7.95837C7.75573 18.0677 7.63943 18.973 7.6094 19.8808H4.50007C4.1118 19.8808 3.79693 20.1956 3.79693 20.5839C3.79693 20.9723 4.1118 21.2871 4.50007 21.2871H7.63183C7.69118 22.1972 7.8375 23.1026 8.07087 23.9897H3.51568C3.12741 23.9897 2.81254 24.3045 2.81254 24.6929C2.81254 25.0812 3.12741 25.396 3.51568 25.396H8.51961C9.20939 27.2207 10.2874 28.9309 11.754 30.3975C14.0705 32.7141 17.1387 34.1669 20.3933 34.4884C20.8577 34.5343 21.3226 34.557 21.7868 34.557C24.5306 34.557 27.2395 33.763 29.538 32.2661C29.8634 32.0542 29.9555 31.6186 29.7435 31.2932C29.5316 30.9678 29.096 30.8757 28.7706 31.0877C23.7392 34.3641 17.0008 33.6557 12.7483 29.4032C7.75875 24.4136 7.75875 16.295 12.7483 11.3053C17.7379 6.31577 25.8565 6.31577 30.8461 11.3053C35.093 15.5522 35.8053 22.2848 32.5397 27.3138C32.3282 27.6395 32.4208 28.075 32.7464 28.2864C33.0723 28.4979 33.5076 28.4053 33.7191 28.0796C35.4638 25.3926 36.2492 22.1473 35.9306 18.9413ZM18.2709 2.39073C18.2709 1.84791 18.7125 1.40634 19.2553 1.40634H24.3179C24.8607 1.40634 25.3023 1.84791 25.3023 2.39073C25.3023 2.93355 24.8607 3.37512 24.3179 3.37512H24.1917H19.3814H19.2553C18.7125 3.37512 18.2709 2.93348 18.2709 2.39073ZM20.0845 6.2603V4.78139H23.4886V6.25777C22.3582 6.12333 21.2147 6.12417 20.0845 6.2603Z" fill="url(#paint1_linear_551_897)"/>
<path d="M31.3525 29.197C31.1669 29.197 30.9862 29.2722 30.8555 29.403C30.724 29.5338 30.6494 29.7152 30.6494 29.9001C30.6494 30.085 30.724 30.2664 30.8555 30.3972C30.9862 30.5287 31.167 30.6032 31.3525 30.6032C31.5375 30.6032 31.7182 30.5287 31.8496 30.3972C31.9804 30.2664 32.0557 30.085 32.0557 29.9001C32.0557 29.7152 31.9805 29.5338 31.8496 29.403C31.7182 29.2722 31.5374 29.197 31.3525 29.197Z" fill="black"/>
<path d="M31.3525 29.197C31.1669 29.197 30.9862 29.2722 30.8555 29.403C30.724 29.5338 30.6494 29.7152 30.6494 29.9001C30.6494 30.085 30.724 30.2664 30.8555 30.3972C30.9862 30.5287 31.167 30.6032 31.3525 30.6032C31.5375 30.6032 31.7182 30.5287 31.8496 30.3972C31.9804 30.2664 32.0557 30.085 32.0557 29.9001C32.0557 29.7152 31.9805 29.5338 31.8496 29.403C31.7182 29.2722 31.5374 29.197 31.3525 29.197Z" fill="url(#paint2_linear_551_897)"/>
<path d="M31.3525 29.197C31.1669 29.197 30.9862 29.2722 30.8555 29.403C30.724 29.5338 30.6494 29.7152 30.6494 29.9001C30.6494 30.085 30.724 30.2664 30.8555 30.3972C30.9862 30.5287 31.167 30.6032 31.3525 30.6032C31.5375 30.6032 31.7182 30.5287 31.8496 30.3972C31.9804 30.2664 32.0557 30.085 32.0557 29.9001C32.0557 29.7152 31.9805 29.5338 31.8496 29.403C31.7182 29.2722 31.5374 29.197 31.3525 29.197Z" fill="url(#paint3_linear_551_897)"/>
<path d="M21.7993 9.44608C15.7848 9.44608 10.8916 14.3392 10.8916 20.3537C10.8916 26.3683 15.7848 31.2614 21.7993 31.2614C27.8138 31.2614 32.7069 26.3683 32.7069 20.3537C32.7069 14.3392 27.8138 9.44608 21.7993 9.44608ZM21.7993 29.8551C16.5601 29.8551 12.2979 25.5928 12.2979 20.3537C12.2979 15.1147 16.5601 10.8523 21.7993 10.8523C27.0384 10.8523 31.3007 15.1147 31.3007 20.3537C31.3007 25.5928 27.0384 29.8551 21.7993 29.8551Z" fill="black"/>
<path d="M21.7993 9.44608C15.7848 9.44608 10.8916 14.3392 10.8916 20.3537C10.8916 26.3683 15.7848 31.2614 21.7993 31.2614C27.8138 31.2614 32.7069 26.3683 32.7069 20.3537C32.7069 14.3392 27.8138 9.44608 21.7993 9.44608ZM21.7993 29.8551C16.5601 29.8551 12.2979 25.5928 12.2979 20.3537C12.2979 15.1147 16.5601 10.8523 21.7993 10.8523C27.0384 10.8523 31.3007 15.1147 31.3007 20.3537C31.3007 25.5928 27.0384 29.8551 21.7993 29.8551Z" fill="url(#paint4_linear_551_897)"/>
<path d="M21.7993 9.44608C15.7848 9.44608 10.8916 14.3392 10.8916 20.3537C10.8916 26.3683 15.7848 31.2614 21.7993 31.2614C27.8138 31.2614 32.7069 26.3683 32.7069 20.3537C32.7069 14.3392 27.8138 9.44608 21.7993 9.44608ZM21.7993 29.8551C16.5601 29.8551 12.2979 25.5928 12.2979 20.3537C12.2979 15.1147 16.5601 10.8523 21.7993 10.8523C27.0384 10.8523 31.3007 15.1147 31.3007 20.3537C31.3007 25.5928 27.0384 29.8551 21.7993 29.8551Z" fill="url(#paint5_linear_551_897)"/>
<path d="M26.2461 14.9121L22.7635 18.3947C22.4722 18.2507 22.1447 18.1693 21.7984 18.1693C21.452 18.1693 21.1245 18.2507 20.8332 18.3947L19.2746 16.836C18.9999 16.5615 18.5549 16.5615 18.2801 16.836C18.0056 17.1106 18.0056 17.5558 18.2801 17.8304L19.8388 19.389C19.6947 19.6803 19.6134 20.0079 19.6134 20.3542C19.6134 21.5589 20.5935 22.5391 21.7984 22.5391C23.0032 22.5391 23.9833 21.5589 23.9833 20.3542C23.9833 20.0079 23.9019 19.6803 23.7579 19.389L27.1383 16.0086L27.2405 15.9065C27.5151 15.6319 27.5151 15.1867 27.2405 14.9121C26.9659 14.6375 26.5208 14.6375 26.2461 14.9121ZM21.7984 21.1329C21.369 21.1329 21.0197 20.7836 21.0197 20.3542C21.0197 19.9249 21.369 19.5756 21.7984 19.5756C22.2277 19.5756 22.577 19.9249 22.577 20.3542C22.577 20.7836 22.2277 21.1329 21.7984 21.1329Z" fill="black"/>
<path d="M26.2461 14.9121L22.7635 18.3947C22.4722 18.2507 22.1447 18.1693 21.7984 18.1693C21.452 18.1693 21.1245 18.2507 20.8332 18.3947L19.2746 16.836C18.9999 16.5615 18.5549 16.5615 18.2801 16.836C18.0056 17.1106 18.0056 17.5558 18.2801 17.8304L19.8388 19.389C19.6947 19.6803 19.6134 20.0079 19.6134 20.3542C19.6134 21.5589 20.5935 22.5391 21.7984 22.5391C23.0032 22.5391 23.9833 21.5589 23.9833 20.3542C23.9833 20.0079 23.9019 19.6803 23.7579 19.389L27.1383 16.0086L27.2405 15.9065C27.5151 15.6319 27.5151 15.1867 27.2405 14.9121C26.9659 14.6375 26.5208 14.6375 26.2461 14.9121ZM21.7984 21.1329C21.369 21.1329 21.0197 20.7836 21.0197 20.3542C21.0197 19.9249 21.369 19.5756 21.7984 19.5756C22.2277 19.5756 22.577 19.9249 22.577 20.3542C22.577 20.7836 22.2277 21.1329 21.7984 21.1329Z" fill="url(#paint6_linear_551_897)"/>
<path d="M26.2461 14.9121L22.7635 18.3947C22.4722 18.2507 22.1447 18.1693 21.7984 18.1693C21.452 18.1693 21.1245 18.2507 20.8332 18.3947L19.2746 16.836C18.9999 16.5615 18.5549 16.5615 18.2801 16.836C18.0056 17.1106 18.0056 17.5558 18.2801 17.8304L19.8388 19.389C19.6947 19.6803 19.6134 20.0079 19.6134 20.3542C19.6134 21.5589 20.5935 22.5391 21.7984 22.5391C23.0032 22.5391 23.9833 21.5589 23.9833 20.3542C23.9833 20.0079 23.9019 19.6803 23.7579 19.389L27.1383 16.0086L27.2405 15.9065C27.5151 15.6319 27.5151 15.1867 27.2405 14.9121C26.9659 14.6375 26.5208 14.6375 26.2461 14.9121ZM21.7984 21.1329C21.369 21.1329 21.0197 20.7836 21.0197 20.3542C21.0197 19.9249 21.369 19.5756 21.7984 19.5756C22.2277 19.5756 22.577 19.9249 22.577 20.3542C22.577 20.7836 22.2277 21.1329 21.7984 21.1329Z" fill="url(#paint7_linear_551_897)"/>
<path d="M29.3184 19.6594H28.667C28.2787 19.6594 27.9639 19.9742 27.9639 20.3626C27.9639 20.7509 28.2787 21.0657 28.667 21.0657H29.3184C29.7067 21.0657 30.0216 20.7509 30.0216 20.3626C30.0216 19.9742 29.7067 19.6594 29.3184 19.6594Z" fill="black"/>
<path d="M29.3184 19.6594H28.667C28.2787 19.6594 27.9639 19.9742 27.9639 20.3626C27.9639 20.7509 28.2787 21.0657 28.667 21.0657H29.3184C29.7067 21.0657 30.0216 20.7509 30.0216 20.3626C30.0216 19.9742 29.7067 19.6594 29.3184 19.6594Z" fill="url(#paint8_linear_551_897)"/>
<path d="M29.3184 19.6594H28.667C28.2787 19.6594 27.9639 19.9742 27.9639 20.3626C27.9639 20.7509 28.2787 21.0657 28.667 21.0657H29.3184C29.7067 21.0657 30.0216 20.7509 30.0216 20.3626C30.0216 19.9742 29.7067 19.6594 29.3184 19.6594Z" fill="url(#paint9_linear_551_897)"/>
<path d="M14.9316 19.6421H14.2803C13.892 19.6421 13.5771 19.9569 13.5771 20.3452C13.5771 20.7336 13.892 21.0484 14.2803 21.0484H14.9316C15.3199 21.0484 15.6348 20.7336 15.6348 20.3452C15.6348 19.9569 15.3199 19.6421 14.9316 19.6421Z" fill="black"/>
<path d="M14.9316 19.6421H14.2803C13.892 19.6421 13.5771 19.9569 13.5771 20.3452C13.5771 20.7336 13.892 21.0484 14.2803 21.0484H14.9316C15.3199 21.0484 15.6348 20.7336 15.6348 20.3452C15.6348 19.9569 15.3199 19.6421 14.9316 19.6421Z" fill="url(#paint10_linear_551_897)"/>
<path d="M14.9316 19.6421H14.2803C13.892 19.6421 13.5771 19.9569 13.5771 20.3452C13.5771 20.7336 13.892 21.0484 14.2803 21.0484H14.9316C15.3199 21.0484 15.6348 20.7336 15.6348 20.3452C15.6348 19.9569 15.3199 19.6421 14.9316 19.6421Z" fill="url(#paint11_linear_551_897)"/>
<path d="M21.811 14.1906C22.1993 14.1906 22.5142 13.8758 22.5142 13.4875V12.8361C22.5142 12.4478 22.1993 12.133 21.811 12.133C21.4228 12.133 21.1079 12.4478 21.1079 12.8361V13.4875C21.1079 13.8758 21.4228 14.1906 21.811 14.1906Z" fill="black"/>
<path d="M21.811 14.1906C22.1993 14.1906 22.5142 13.8758 22.5142 13.4875V12.8361C22.5142 12.4478 22.1993 12.133 21.811 12.133C21.4228 12.133 21.1079 12.4478 21.1079 12.8361V13.4875C21.1079 13.8758 21.4228 14.1906 21.811 14.1906Z" fill="url(#paint12_linear_551_897)"/>
<path d="M21.811 14.1906C22.1993 14.1906 22.5142 13.8758 22.5142 13.4875V12.8361C22.5142 12.4478 22.1993 12.133 21.811 12.133C21.4228 12.133 21.1079 12.4478 21.1079 12.8361V13.4875C21.1079 13.8758 21.4228 14.1906 21.811 14.1906Z" fill="url(#paint13_linear_551_897)"/>
<path d="M21.7896 26.5177C21.4013 26.5177 21.0864 26.8324 21.0864 27.2208V27.8722C21.0864 28.2605 21.4013 28.5753 21.7896 28.5753C22.1778 28.5753 22.4927 28.2605 22.4927 27.8722V27.2208C22.4927 26.8324 22.1778 26.5177 21.7896 26.5177Z" fill="black"/>
<path d="M21.7896 26.5177C21.4013 26.5177 21.0864 26.8324 21.0864 27.2208V27.8722C21.0864 28.2605 21.4013 28.5753 21.7896 28.5753C22.1778 28.5753 22.4927 28.2605 22.4927 27.8722V27.2208C22.4927 26.8324 22.1778 26.5177 21.7896 26.5177Z" fill="url(#paint14_linear_551_897)"/>
<path d="M21.7896 26.5177C21.4013 26.5177 21.0864 26.8324 21.0864 27.2208V27.8722C21.0864 28.2605 21.4013 28.5753 21.7896 28.5753C22.1778 28.5753 22.4927 28.2605 22.4927 27.8722V27.2208C22.4927 26.8324 22.1778 26.5177 21.7896 26.5177Z" fill="url(#paint15_linear_551_897)"/>
<path d="M0.703125 23.9893C0.518203 23.9893 0.336797 24.0645 0.206015 24.1953C0.0752343 24.3261 0 24.5075 0 24.6924C0 24.878 0.075164 25.0587 0.206015 25.1895C0.336867 25.3203 0.518203 25.3955 0.703125 25.3955C0.888046 25.3955 1.06945 25.3203 1.20016 25.1895C1.33094 25.0587 1.40625 24.8773 1.40625 24.6924C1.40625 24.5075 1.33101 24.3261 1.20016 24.1953C1.06945 24.0645 0.888046 23.9893 0.703125 23.9893Z" fill="black"/>
<path d="M0.703125 23.9893C0.518203 23.9893 0.336797 24.0645 0.206015 24.1953C0.0752343 24.3261 0 24.5075 0 24.6924C0 24.878 0.075164 25.0587 0.206015 25.1895C0.336867 25.3203 0.518203 25.3955 0.703125 25.3955C0.888046 25.3955 1.06945 25.3203 1.20016 25.1895C1.33094 25.0587 1.40625 24.8773 1.40625 24.6924C1.40625 24.5075 1.33101 24.3261 1.20016 24.1953C1.06945 24.0645 0.888046 23.9893 0.703125 23.9893Z" fill="url(#paint16_linear_551_897)"/>
<path d="M0.703125 23.9893C0.518203 23.9893 0.336797 24.0645 0.206015 24.1953C0.0752343 24.3261 0 24.5075 0 24.6924C0 24.878 0.075164 25.0587 0.206015 25.1895C0.336867 25.3203 0.518203 25.3955 0.703125 25.3955C0.888046 25.3955 1.06945 25.3203 1.20016 25.1895C1.33094 25.0587 1.40625 24.8773 1.40625 24.6924C1.40625 24.5075 1.33101 24.3261 1.20016 24.1953C1.06945 24.0645 0.888046 23.9893 0.703125 23.9893Z" fill="url(#paint17_linear_551_897)"/>
<defs>
<linearGradient id="paint0_linear_551_897" x1="4.725" y1="6.9114" x2="28.7811" y2="29.4886" gradientUnits="userSpaceOnUse">
<stop stop-color="#1E3C72"/>
<stop offset="1" stop-color="#2A5298"/>
</linearGradient>
<linearGradient id="paint1_linear_551_897" x1="0.71464" y1="17.7215" x2="35.7037" y2="17.7981" gradientUnits="userSpaceOnUse">
<stop stop-color="#4E54C8"/>
<stop offset="1" stop-color="#8F94FB"/>
</linearGradient>
<linearGradient id="paint2_linear_551_897" x1="30.834" y1="29.4782" x2="31.8096" y2="30.3571" gradientUnits="userSpaceOnUse">
<stop stop-color="#1E3C72"/>
<stop offset="1" stop-color="#2A5298"/>
</linearGradient>
<linearGradient id="paint3_linear_551_897" x1="30.6773" y1="29.9181" x2="32.0441" y2="29.921" gradientUnits="userSpaceOnUse">
<stop stop-color="#4E54C8"/>
<stop offset="1" stop-color="#8F94FB"/>
</linearGradient>
<linearGradient id="paint4_linear_551_897" x1="13.7549" y1="13.8091" x2="28.8893" y2="27.4437" gradientUnits="userSpaceOnUse">
<stop stop-color="#1E3C72"/>
<stop offset="1" stop-color="#2A5298"/>
</linearGradient>
<linearGradient id="paint5_linear_551_897" x1="11.3247" y1="20.6334" x2="32.5274" y2="20.678" gradientUnits="userSpaceOnUse">
<stop stop-color="#4E54C8"/>
<stop offset="1" stop-color="#8F94FB"/>
</linearGradient>
<linearGradient id="paint6_linear_551_897" x1="19.3043" y1="16.2728" x2="24.7527" y2="22.1458" gradientUnits="userSpaceOnUse">
<stop stop-color="#1E3C72"/>
<stop offset="1" stop-color="#2A5298"/>
</linearGradient>
<linearGradient id="paint7_linear_551_897" x1="18.2603" y1="18.7231" x2="27.3693" y2="18.746" gradientUnits="userSpaceOnUse">
<stop stop-color="#4E54C8"/>
<stop offset="1" stop-color="#8F94FB"/>
</linearGradient>
<linearGradient id="paint8_linear_551_897" x1="28.2339" y1="19.9407" x2="29.1786" y2="21.1859" gradientUnits="userSpaceOnUse">
<stop stop-color="#1E3C72"/>
<stop offset="1" stop-color="#2A5298"/>
</linearGradient>
<linearGradient id="paint9_linear_551_897" x1="28.0047" y1="20.3806" x2="30.0046" y2="20.3867" gradientUnits="userSpaceOnUse">
<stop stop-color="#4E54C8"/>
<stop offset="1" stop-color="#8F94FB"/>
</linearGradient>
<linearGradient id="paint10_linear_551_897" x1="13.8472" y1="19.9234" x2="14.7918" y2="21.1686" gradientUnits="userSpaceOnUse">
<stop stop-color="#1E3C72"/>
<stop offset="1" stop-color="#2A5298"/>
</linearGradient>
<linearGradient id="paint11_linear_551_897" x1="13.618" y1="20.3633" x2="15.6178" y2="20.3694" gradientUnits="userSpaceOnUse">
<stop stop-color="#4E54C8"/>
<stop offset="1" stop-color="#8F94FB"/>
</linearGradient>
<linearGradient id="paint12_linear_551_897" x1="21.2925" y1="12.5445" x2="22.574" y2="13.3336" gradientUnits="userSpaceOnUse">
<stop stop-color="#1E3C72"/>
<stop offset="1" stop-color="#2A5298"/>
</linearGradient>
<linearGradient id="paint13_linear_551_897" x1="21.1358" y1="13.1882" x2="22.5026" y2="13.1901" gradientUnits="userSpaceOnUse">
<stop stop-color="#4E54C8"/>
<stop offset="1" stop-color="#8F94FB"/>
</linearGradient>
<linearGradient id="paint14_linear_551_897" x1="21.271" y1="26.9292" x2="22.5526" y2="27.7182" gradientUnits="userSpaceOnUse">
<stop stop-color="#1E3C72"/>
<stop offset="1" stop-color="#2A5298"/>
</linearGradient>
<linearGradient id="paint15_linear_551_897" x1="21.1143" y1="27.5728" x2="22.4811" y2="27.5748" gradientUnits="userSpaceOnUse">
<stop stop-color="#4E54C8"/>
<stop offset="1" stop-color="#8F94FB"/>
</linearGradient>
<linearGradient id="paint16_linear_551_897" x1="0.18457" y1="24.2705" x2="1.16016" y2="25.1494" gradientUnits="userSpaceOnUse">
<stop stop-color="#1E3C72"/>
<stop offset="1" stop-color="#2A5298"/>
</linearGradient>
<linearGradient id="paint17_linear_551_897" x1="0.0279156" y1="24.7104" x2="1.39467" y2="24.7133" gradientUnits="userSpaceOnUse">
<stop stop-color="#4E54C8"/>
<stop offset="1" stop-color="#8F94FB"/>
</linearGradient>
</defs>
</svg>
