<svg style="height:51px;" class="logo navbar-brand-new-logo" xmlns="http://www.w3.org/2000/svg" viewBox="0 0 1207.6 461.2">
                                                            <defs>
                                                                <style>
                                                                    .lo-cls-1 {
                                                                        fill: #fff;
                                                                    }

                                                                    .lo-cls-2 {
                                                                        fill: #3dab49;
                                                                    }
                                                                </style>
                                                            </defs>
                                                            <g id="Layer_2" data-name="Layer 2"><g id="Layer_1-2" data-name="Layer 1"><g id="LOGO"><polygon class="lo-cls-1" points="133.4 0 0.6 76.7 0.6 144.6 133.4 67.3 208.1 110.1 193.3 118.8 133.4 84.4 81.4 114.5 200.3 183.3 266.3 144.7 266.3 76.7 133.4 0"></polygon><polygon class="lo-cls-2" points="133.4 306.5 266.3 230 266.3 162 133.4 239.2 58.7 196.4 73.6 187.8 133.4 222.2 185.5 192.1 66.5 123.2 0.6 161.8 0.6 230 133.4 306.5"></polygon></g><path class="lo-cls-1" d="M400.1,101.9q18-26.25,53.5-26.3,32.25,0,52.3,22.4c13.3,14.7,20,33,20,54.7s-6.7,39.9-20,54.7-31.3,22.4-53.8,22.4-39.8-8.9-52-26.6v83.3H377.7V78h22.4Zm50.5-6c-16.1,0-28.9,5.6-38.2,16.7-9,10.6-13.4,23.9-13.4,40s4.5,29.5,13.4,40c9.4,11.2,22.1,16.7,38.2,16.7,15.9,0,28.9-5.6,38.8-16.7,9.4-10.6,14-23.9,14-40s-4.7-29.5-14-40C479.5,101.5,466.5,95.9,450.6,95.9Z"></path><path class="lo-cls-1" d="M572.5,227.4V97.7H539V78h33.5V24.5h22.4V78h33.3V97.7H594.9V227.4Z"></path><path class="lo-cls-1" d="M723.7,209.4a41.84,41.84,0,0,0,25.4-8.1,46.26,46.26,0,0,0,16.1-20.9h24.2A68.38,68.38,0,0,1,764.3,216c-12.7,9.2-27.9,13.7-45.4,13.7q-32.85,0-53.5-22.4c-13.3-14.5-20-32.8-20-54.7s6.7-40.1,20-54.7C679.1,83,697,75.5,718.9,75.5c17.5,0,32.7,4.6,45.4,13.7a68.55,68.55,0,0,1,25.1,35.6H765.2a47,47,0,0,0-16.1-20.9,41.84,41.84,0,0,0-25.4-8.1c-9.6,0-17.7,1.5-24.4,4.5a48.87,48.87,0,0,0-16.9,12.3c-9.8,10.8-14.6,24.1-14.6,40s4.9,29.3,14.6,40C692.4,203.9,706.1,209.4,723.7,209.4Z"></path><path class="lo-cls-1" d="M24.6,420.8a19.51,19.51,0,0,0-7.1-1.4H0v41.2H17.5a19.51,19.51,0,0,0,7.1-1.4,17.74,17.74,0,0,0,6.1-4.1,22.56,22.56,0,0,0,0-30.2A17.74,17.74,0,0,0,24.6,420.8ZM5.9,425.2H17.2a11.72,11.72,0,0,1,9.6,4.4,17.11,17.11,0,0,1,0,21,12,12,0,0,1-9.6,4.4H5.9Z"></path><rect class="lo-cls-1" x="53.3" y="419.4" width="6" height="41.2"></rect><path class="lo-cls-1" d="M90.6,426a16.72,16.72,0,0,1,6.7-1.2,14.11,14.11,0,0,1,6.9,1.7,12.06,12.06,0,0,1,4.7,4.8l.2.4h6.5l-.5-1a18.8,18.8,0,0,0-7.3-8.5,23.2,23.2,0,0,0-5.3-2.4,23.57,23.57,0,0,0-6.9-.9,18.41,18.41,0,0,0-7.7,1.7h0a19.5,19.5,0,0,0-6.4,4.5A21.13,21.13,0,0,0,76,440c0,6,1.8,11,5.4,14.9a20,20,0,0,0,13.9,6.2,25.57,25.57,0,0,0,6.1-.6,17.32,17.32,0,0,0,8.5-5.4v5.5h5.6V438H95.3v5.6h14.5a11.06,11.06,0,0,1-4,8.3,14.87,14.87,0,0,1-19.9-1.1A15.64,15.64,0,0,1,82.1,440,15.24,15.24,0,0,1,86,429.2,13.6,13.6,0,0,1,90.6,426Z"></path><rect class="lo-cls-1" x="133.2" y="419.4" width="6" height="41.2"></rect><polygon class="lo-cls-1" points="154.5 425.2 168.4 425.2 168.4 460.7 174.4 460.7 174.4 425.2 188.2 425.2 188.2 419.4 154.5 419.4 154.5 425.2"></polygon><path class="lo-cls-1" d="M212.4,419.4l-17.5,41.2h6.6l4.9-11.5h18.7l4.9,11.5h6.6l-17.5-41.2Zm10.3,24.1h-14l7-16.7Z"></path><polygon class="lo-cls-1" points="256.9 419.4 250.9 419.4 250.9 460.7 278.5 460.7 278.5 454.8 256.9 454.8 256.9 419.4"></polygon><polygon class="lo-cls-1" points="313.8 425.2 327.7 425.2 327.7 460.7 333.7 460.7 333.7 425.2 347.6 425.2 347.6 419.4 313.8 419.4 313.8 425.2"></polygon><path class="lo-cls-1" d="M390.2,443.4c4.4-1.9,6.6-5.6,6.6-10.8,0-4-1.3-7.3-3.9-9.6a14.44,14.44,0,0,0-10.2-3.6H362.9v41.2h6V445.3h12.6l9.6,15.3h7.1l-10.6-16.3A13.38,13.38,0,0,0,390.2,443.4Zm-21.3-18.2h13.2a10,10,0,0,1,6.4,2,6.5,6.5,0,0,1,2.3,5.4,7.24,7.24,0,0,1-.8,3.5c-1.5,2.4-4.1,3.6-8.1,3.6h-13V425.2Z"></path><path class="lo-cls-1" d="M426.6,419.4l-17.5,41.2h6.6l4.9-11.5h18.7l4.9,11.5h6.6l-17.5-41.2Zm10.3,24.1h-14l7-16.7Z"></path><polygon class="lo-cls-1" points="494.8 451.3 471.4 419.4 465 419.4 465 460.7 471 460.7 471 428.6 494.5 460.7 500.8 460.7 500.8 419.4 494.8 419.4 494.8 451.3"></polygon><path class="lo-cls-1" d="M547,440.9a19.61,19.61,0,0,0-4.6-2.2l-5.1-1.5c-1.7-.4-3.4-.8-5-1.2a36.82,36.82,0,0,1-4.3-1.3,10.24,10.24,0,0,1-2.9-1.8,2.83,2.83,0,0,1-.9-2,5.87,5.87,0,0,1,.4-2.3,4.63,4.63,0,0,1,1.3-1.9,8.39,8.39,0,0,1,3-1.5,16.44,16.44,0,0,1,4.9-.7,17.26,17.26,0,0,1,4.9.6c3.6,1,5.5,2.9,5.8,5.9l.1.7h6.1v-.8a11.23,11.23,0,0,0-4.3-8.4c-2.9-2.4-7-3.7-12.2-3.7s-9.1,1.1-11.7,3.2a10.38,10.38,0,0,0-4,8.5,8.5,8.5,0,0,0,2.2,6,15.12,15.12,0,0,0,5.3,3.4,43.71,43.71,0,0,0,6.7,2c2.3.5,4.5,1.1,6.5,1.7a16.49,16.49,0,0,1,4.8,2.2,3.73,3.73,0,0,1,1.7,3.2c0,4.2-3.4,6.3-10.4,6.3a16.08,16.08,0,0,1-8.2-1.8,6.7,6.7,0,0,1-3.6-5.6v-.7h-6.2l.1.8a13.38,13.38,0,0,0,4.7,9.4c3,2.4,7.5,3.6,13.2,3.6,5.1,0,9.1-1,12-3.1a10.5,10.5,0,0,0,4.5-9.1A9.48,9.48,0,0,0,547,440.9Z"></path><polygon class="lo-cls-1" points="568.2 460.7 574.2 460.7 574.2 443.4 595.7 443.4 595.7 437.5 574.2 437.5 574.2 425.2 598.4 425.2 598.4 419.4 568.2 419.4 568.2 460.7"></polygon><path class="lo-cls-1" d="M632.7,418.9a20,20,0,0,0-15.1,6.2,22,22,0,0,0,0,29.8,21.49,21.49,0,0,0,30.2,0,22,22,0,0,0,0-29.8A20,20,0,0,0,632.7,418.9Zm0,36.4a14.31,14.31,0,0,1-10.9-4.4,16.58,16.58,0,0,1,0-21.6,14.46,14.46,0,0,1,10.9-4.4,14.31,14.31,0,0,1,10.9,4.4,16.58,16.58,0,0,1,0,21.6A14.31,14.31,0,0,1,632.7,455.3Z"></path><path class="lo-cls-1" d="M697.7,443.4c4.4-1.9,6.6-5.6,6.6-10.8,0-4-1.3-7.3-3.9-9.6a14.44,14.44,0,0,0-10.2-3.6H670.4v41.2h6V445.3H689l9.6,15.3h7.1l-10.6-16.3A11.42,11.42,0,0,0,697.7,443.4Zm-21.3-18.2h13.2a10,10,0,0,1,6.4,2,6.5,6.5,0,0,1,2.3,5.4,7.24,7.24,0,0,1-.8,3.5c-1.5,2.4-4.1,3.6-8.1,3.6h-13V425.2Z"></path><polygon class="lo-cls-1" points="741.9 437.8 728.1 419.4 721.7 419.4 721.7 460.7 727.7 460.7 727.7 429.2 741.9 447.1 755.9 429.2 755.9 460.7 761.9 460.7 761.9 419.4 755.5 419.4 741.9 437.8"></polygon><path class="lo-cls-1" d="M808.1,440.9a19.61,19.61,0,0,0-4.6-2.2l-5.1-1.5c-1.7-.4-3.4-.8-5-1.2a36.82,36.82,0,0,1-4.3-1.3,10.24,10.24,0,0,1-2.9-1.8,2.83,2.83,0,0,1-.9-2,5.87,5.87,0,0,1,.4-2.3,4.63,4.63,0,0,1,1.3-1.9,8.39,8.39,0,0,1,3-1.5,16.44,16.44,0,0,1,4.9-.7,17.26,17.26,0,0,1,4.9.6c3.6,1,5.5,2.9,5.8,5.9l.1.7h6.1v-.8a11.23,11.23,0,0,0-4.3-8.4c-2.9-2.4-7-3.7-12.2-3.7s-9.1,1.1-11.7,3.2a10.38,10.38,0,0,0-4,8.5,8.5,8.5,0,0,0,2.2,6,15.12,15.12,0,0,0,5.3,3.4,43.71,43.71,0,0,0,6.7,2c2.3.5,4.5,1.1,6.5,1.7a16.49,16.49,0,0,1,4.8,2.2,3.73,3.73,0,0,1,1.7,3.2c0,4.2-3.4,6.3-10.4,6.3a16.08,16.08,0,0,1-8.2-1.8,6.7,6.7,0,0,1-3.6-5.6v-.7h-6.2l.1.8a13.38,13.38,0,0,0,4.7,9.4c3,2.4,7.5,3.6,13.2,3.6,5.1,0,9.1-1,12-3.1a10.5,10.5,0,0,0,4.5-9.1A9.71,9.71,0,0,0,808.1,440.9Z"></path><path class="lo-cls-1" d="M871.8,419.4H853.2v41.2h6V446.5h12.6c4.4,0,7.9-1.2,10.5-3.7s3.9-5.8,3.9-9.9a13.1,13.1,0,0,0-3.9-9.9Q878.4,419.4,871.8,419.4Zm-12.7,5.8h12.3q4.35,0,6.6,2.1a7.39,7.39,0,0,1,2.2,5.7,7.24,7.24,0,0,1-2.2,5.7c-1.4,1.4-3.7,2.1-6.6,2.1H859.1Z"></path><polygon class="lo-cls-1" points="929.6 437.1 908 437.1 908 419.4 902 419.4 902 460.7 908 460.7 908 442.9 929.6 442.9 929.6 460.7 935.6 460.7 935.6 419.4 929.6 419.4 929.6 437.1"></polygon><polygon class="lo-cls-1" points="969.7 438.2 956.6 419.4 949.3 419.4 966.7 444.4 966.7 460.7 972.7 460.7 972.7 444.4 990 419.4 982.7 419.4 969.7 438.2"></polygon><path class="lo-cls-1" d="M1030,440.9a19.61,19.61,0,0,0-4.6-2.2l-5.1-1.5c-1.7-.4-3.4-.8-5-1.2a36.82,36.82,0,0,1-4.3-1.3,10.24,10.24,0,0,1-2.9-1.8,2.83,2.83,0,0,1-.9-2,5.87,5.87,0,0,1,.4-2.3,4.63,4.63,0,0,1,1.3-1.9,8.39,8.39,0,0,1,3-1.5,16.44,16.44,0,0,1,4.9-.7,17.26,17.26,0,0,1,4.9.6c3.6,1,5.5,2.9,5.8,5.9l.1.7h6.1v-.8a11.23,11.23,0,0,0-4.3-8.4c-2.9-2.4-7-3.7-12.2-3.7s-9.1,1.1-11.7,3.2a10.38,10.38,0,0,0-4,8.5,8.5,8.5,0,0,0,2.2,6,15.12,15.12,0,0,0,5.3,3.4,43.71,43.71,0,0,0,6.7,2c2.3.5,4.5,1.1,6.5,1.7a16.49,16.49,0,0,1,4.8,2.2,3.73,3.73,0,0,1,1.7,3.2c0,4.2-3.4,6.3-10.4,6.3a16.08,16.08,0,0,1-8.2-1.8,6.7,6.7,0,0,1-3.6-5.6v-.7h-6.2l.1.8a13.38,13.38,0,0,0,4.7,9.4c3,2.4,7.5,3.6,13.2,3.6,5.1,0,9.1-1,12-3.1a10.5,10.5,0,0,0,4.5-9.1A9.71,9.71,0,0,0,1030,440.9Z"></path><rect class="lo-cls-1" x="1051.2" y="419.4" width="6" height="41.2"></rect><path class="lo-cls-1" d="M1088.2,426a16.9,16.9,0,0,1,6.8-1.2,13.09,13.09,0,0,1,7.1,2,12.78,12.78,0,0,1,4.5,5.5l.2.5h6.3l-.4-1a18.79,18.79,0,0,0-6.8-9.2A20.18,20.18,0,0,0,1094,419a19.18,19.18,0,0,0-14.7,6.2c-3.5,3.9-5.3,8.9-5.3,14.9s1.8,11,5.3,14.9a19,19,0,0,0,14.7,6.2,20.18,20.18,0,0,0,11.9-3.6,18.06,18.06,0,0,0,6.8-9.2l.4-1h-6.3l-.2.5a12,12,0,0,1-11.6,7.5c-4.9,0-8.7-1.5-11.3-4.4s-3.7-6.4-3.7-10.8,1.2-8.1,3.7-10.9A11.46,11.46,0,0,1,1088.2,426Z"></path><path class="lo-cls-1" d="M1141.5,419.4,1124,460.6h6.6l4.9-11.5h18.7l4.9,11.5h6.6l-17.5-41.2Zm10.3,24.1h-14l7-16.7Z"></path><polygon class="lo-cls-1" points="1185.9 454.8 1185.9 419.4 1179.9 419.4 1179.9 460.7 1207.6 460.7 1207.6 454.8 1185.9 454.8"></polygon></g></g>
                                                        </svg>