<svg width="33" height="32" viewBox="0 0 33 32" fill="none" xmlns="http://www.w3.org/2000/svg">
<path d="M31.5598 7.43361C32.0536 6.95222 32.2279 6.2457 32.0149 5.58983C31.8018 4.93396 31.2454 4.46494 30.5629 4.36577L27.8104 3.96579C27.5312 3.92518 27.2899 3.74988 27.165 3.49689L25.934 1.00263C25.6288 0.38417 25.0108 0 24.3212 0C23.6316 0 23.0136 0.38417 22.7084 1.00263L21.4774 3.49689C21.3525 3.74988 21.1112 3.92518 20.832 3.96579L18.0795 4.36577C17.397 4.46494 16.8406 4.93396 16.6275 5.5899C16.4143 6.24577 16.5888 6.95229 17.0826 7.43361L19.0744 9.37512C19.2765 9.57207 19.3686 9.85569 19.3209 10.1339L18.8508 12.8753C18.7342 13.555 19.0083 14.2291 19.5662 14.6344C19.8815 14.8635 20.2503 14.9799 20.6217 14.9799C20.9076 14.9799 21.195 14.9109 21.4604 14.7714L23.9224 13.477C24.1722 13.3457 24.4703 13.3457 24.7201 13.477L27.1821 14.7714C27.7925 15.0923 28.5182 15.0398 29.0763 14.6345C29.6342 14.2292 29.9084 13.555 29.7918 12.8754L29.7019 12.3507C29.6579 12.0944 29.4144 11.9221 29.1584 11.9663C28.9021 12.0102 28.7301 12.2535 28.7739 12.5097L28.8639 13.0345C28.9203 13.3634 28.7928 13.6767 28.5228 13.8729C28.2529 14.069 27.9154 14.0934 27.6202 13.9381L25.1582 12.6438C24.634 12.3682 24.0084 12.3681 23.4842 12.6438L21.0222 13.9382C20.727 14.0935 20.3895 14.0691 20.1195 13.8729C19.8496 13.6767 19.7221 13.3634 19.7785 13.0345L20.2486 10.2931C20.3488 9.70958 20.1555 9.1144 19.7315 8.70111L17.7397 6.75961C17.5007 6.52676 17.4197 6.19826 17.5228 5.88093C17.6259 5.5636 17.8845 5.3455 18.2147 5.29755L20.9672 4.89756C21.5531 4.81246 22.0594 4.4446 22.3215 3.91369L23.5524 1.41944C23.7001 1.12025 23.9875 0.941629 24.3211 0.941629C24.6547 0.941629 24.9421 1.12025 25.0897 1.41944L26.3207 3.91369C26.5828 4.4446 27.089 4.81246 27.675 4.89756L30.4275 5.29755C30.7576 5.34556 31.0163 5.5636 31.1194 5.88087C31.2225 6.19819 31.1414 6.52669 30.9025 6.75954L28.9107 8.70104C28.4867 9.11434 28.2934 9.70952 28.3935 10.293L28.4091 10.3842C28.453 10.6405 28.6964 10.8126 28.9526 10.7686C29.2088 10.7247 29.3809 10.4814 29.337 10.2252L29.3213 10.1339C29.2736 9.85581 29.3658 9.57219 29.5679 9.37524L31.5598 7.43361Z" fill="#6B7280"/>
<path d="M31.5598 7.43361C32.0536 6.95222 32.2279 6.2457 32.0149 5.58983C31.8018 4.93396 31.2454 4.46494 30.5629 4.36577L27.8104 3.96579C27.5312 3.92518 27.2899 3.74988 27.165 3.49689L25.934 1.00263C25.6288 0.38417 25.0108 0 24.3212 0C23.6316 0 23.0136 0.38417 22.7084 1.00263L21.4774 3.49689C21.3525 3.74988 21.1112 3.92518 20.832 3.96579L18.0795 4.36577C17.397 4.46494 16.8406 4.93396 16.6275 5.5899C16.4143 6.24577 16.5888 6.95229 17.0826 7.43361L19.0744 9.37512C19.2765 9.57207 19.3686 9.85569 19.3209 10.1339L18.8508 12.8753C18.7342 13.555 19.0083 14.2291 19.5662 14.6344C19.8815 14.8635 20.2503 14.9799 20.6217 14.9799C20.9076 14.9799 21.195 14.9109 21.4604 14.7714L23.9224 13.477C24.1722 13.3457 24.4703 13.3457 24.7201 13.477L27.1821 14.7714C27.7925 15.0923 28.5182 15.0398 29.0763 14.6345C29.6342 14.2292 29.9084 13.555 29.7918 12.8754L29.7019 12.3507C29.6579 12.0944 29.4144 11.9221 29.1584 11.9663C28.9021 12.0102 28.7301 12.2535 28.7739 12.5097L28.8639 13.0345C28.9203 13.3634 28.7928 13.6767 28.5228 13.8729C28.2529 14.069 27.9154 14.0934 27.6202 13.9381L25.1582 12.6438C24.634 12.3682 24.0084 12.3681 23.4842 12.6438L21.0222 13.9382C20.727 14.0935 20.3895 14.0691 20.1195 13.8729C19.8496 13.6767 19.7221 13.3634 19.7785 13.0345L20.2486 10.2931C20.3488 9.70958 20.1555 9.1144 19.7315 8.70111L17.7397 6.75961C17.5007 6.52676 17.4197 6.19826 17.5228 5.88093C17.6259 5.5636 17.8845 5.3455 18.2147 5.29755L20.9672 4.89756C21.5531 4.81246 22.0594 4.4446 22.3215 3.91369L23.5524 1.41944C23.7001 1.12025 23.9875 0.941629 24.3211 0.941629C24.6547 0.941629 24.9421 1.12025 25.0897 1.41944L26.3207 3.91369C26.5828 4.4446 27.089 4.81246 27.675 4.89756L30.4275 5.29755C30.7576 5.34556 31.0163 5.5636 31.1194 5.88087C31.2225 6.19819 31.1414 6.52669 30.9025 6.75954L28.9107 8.70104C28.4867 9.11434 28.2934 9.70952 28.3935 10.293L28.4091 10.3842C28.453 10.6405 28.6964 10.8126 28.9526 10.7686C29.2088 10.7247 29.3809 10.4814 29.337 10.2252L29.3213 10.1339C29.2736 9.85581 29.3658 9.57219 29.5679 9.37524L31.5598 7.43361Z" fill="url(#paint0_linear_551_5195)"/>
<path d="M25.8714 20.3232C26.2051 19.9363 26.4075 19.4332 26.4075 18.8833C26.4075 17.6656 25.4168 16.675 24.199 16.675L17.0347 16.6663C17.0337 16.6635 16.9544 16.4335 16.9041 16.326C16.9038 16.3254 16.9035 16.3247 16.9033 16.3241C16.7944 16.0917 16.7539 15.8379 16.7863 15.5901C16.8913 14.7864 16.9173 13.9519 16.9382 13.2814C16.992 11.5615 16.6487 10.3054 15.8888 9.44107C15.1251 8.57263 14.0272 8.07611 12.8727 8.07611C12.864 8.07611 12.8553 8.07611 12.8466 8.07617C12.198 8.08038 11.6703 8.617 11.6703 9.27243V11.3632C11.6703 12.6936 11.4549 14.5448 10.4288 15.8087C9.34034 17.1495 8.40035 17.1379 6.84371 17.1188C6.7903 17.1181 6.73638 17.1175 6.68197 17.1169V16.552C6.68197 15.6151 5.91971 14.8529 4.98292 14.8529H1.69905C0.762253 14.8529 0 15.615 0 16.5519V21.2787C0 21.5387 0.210694 21.7495 0.47072 21.7495C0.730746 21.7495 0.941441 21.5387 0.941441 21.2787V16.5519C0.941441 16.1342 1.2813 15.7943 1.69905 15.7943H4.98286C5.4006 15.7943 5.74046 16.1342 5.74046 16.5519V30.3009C5.74046 30.7187 5.4006 31.0586 4.98286 31.0586H1.69905C1.2813 31.0586 0.941441 30.7187 0.941441 30.3009V23.4264C0.941441 23.1665 0.730746 22.9557 0.47072 22.9557C0.210694 22.9557 0 23.1665 0 23.4264V30.3009C0 31.2378 0.762253 32 1.69905 32H4.98286C5.91971 32 6.68191 31.2378 6.68191 30.3009V29.59H7.31832C7.62617 29.59 7.93101 29.6976 8.17647 29.8931C8.23993 29.9435 8.3138 30.0067 8.39947 30.0798C8.98812 30.5823 10.0837 31.5178 11.652 31.5178L23.2066 31.5179C24.4244 31.5179 25.4151 30.5273 25.4151 29.3095C25.4151 28.7836 25.23 28.3003 24.9219 27.9205C25.7856 27.6205 26.4075 26.7989 26.4075 25.8343C26.4075 25.2845 26.2051 24.7814 25.8715 24.3945C26.6652 24.0594 27.2236 23.2732 27.2236 22.359C27.2236 21.4446 26.6651 20.6584 25.8714 20.3232ZM20.1813 17.6165H24.1991C24.8977 17.6165 25.4661 18.1849 25.4661 18.8834C25.4661 19.582 24.8977 20.1504 24.1991 20.1504H20.1813C19.4827 20.1504 18.9144 19.582 18.9144 18.8834C18.9144 18.1848 19.4827 17.6165 20.1813 17.6165ZM17.3816 30.5764H11.6521C10.431 30.5764 9.5764 29.8467 9.01084 29.3638C8.92247 29.2883 8.839 29.2171 8.7628 29.1565C8.35133 28.829 7.83837 28.6487 7.31838 28.6487H6.68197V18.0583C6.73249 18.0589 6.78258 18.0595 6.83216 18.0601C8.48125 18.0801 9.78427 18.0965 11.1598 16.4021C11.8222 15.5862 12.6118 14.0497 12.6118 11.3632V9.27249C12.6118 9.13285 12.7199 9.01856 12.8528 9.01768C12.8591 9.01761 12.8653 9.01761 12.8717 9.01761C13.7432 9.01761 14.6056 9.40743 15.1819 10.0628C15.7766 10.7391 16.0433 11.7824 15.9973 13.2521C15.9771 13.9019 15.9518 14.7108 15.8529 15.4683C15.7972 15.8943 15.8657 16.3283 16.0507 16.7234C16.0516 16.7254 16.0528 16.7281 16.0538 16.7304C16.0553 16.7338 16.0567 16.737 16.0587 16.7415C16.059 16.7422 16.0593 16.743 16.0597 16.7438C16.2102 17.0969 16.3247 17.4815 16.3425 17.8682C16.3647 18.35 16.2678 18.835 16.0529 19.3126C16.0486 19.3225 15.6032 20.304 14.3764 20.8484C14.1388 20.9539 14.0317 21.232 14.137 21.4696C14.5016 22.2915 15.8551 21.0559 16.1891 20.7097C16.4723 20.4161 16.7462 20.0726 16.9127 19.6961C17.1875 19.0853 17.3121 18.4557 17.283 17.8249C17.2798 17.7548 17.2733 17.6819 17.2647 17.6079H18.3803C18.1242 17.9685 17.973 18.4085 17.973 18.8835C17.973 19.7977 18.5314 20.584 19.3252 20.9191C18.9916 21.306 18.7891 21.8091 18.7891 22.359C18.7891 22.9087 18.9916 23.4118 19.3251 23.7987C18.5314 24.1338 17.973 24.9201 17.973 25.8343C17.973 26.3602 18.1581 26.8436 18.4662 27.2233C17.6024 27.5234 16.9805 28.345 16.9805 29.3096C16.9805 29.7806 17.1293 30.2174 17.3816 30.5764ZM23.2066 30.5765L19.1865 30.5764C18.489 30.575 17.922 30.0073 17.922 29.3095C17.922 28.6109 18.4903 28.0426 19.1889 28.0426H23.2067C23.9053 28.0426 24.4737 28.6109 24.4737 29.3095C24.4737 30.0082 23.9052 30.5765 23.2066 30.5765ZM24.199 27.1011H20.1813C19.4827 27.1011 18.9144 26.5327 18.9144 25.8341C18.9144 25.1356 19.4827 24.5672 20.1813 24.5672H24.1991C24.8977 24.5672 25.4661 25.1356 25.4661 25.8341C25.466 26.5328 24.8976 27.1011 24.199 27.1011ZM25.0152 23.6258H20.9974C20.2988 23.6258 19.7305 23.0574 19.7305 22.3589C19.7305 21.6603 20.2988 21.0919 20.9974 21.0919H25.0152C25.7138 21.0919 26.2822 21.6603 26.2822 22.3589C26.2822 23.0574 25.7138 23.6258 25.0152 23.6258Z" fill="#6B7280"/>
<path d="M25.8714 20.3232C26.2051 19.9363 26.4075 19.4332 26.4075 18.8833C26.4075 17.6656 25.4168 16.675 24.199 16.675L17.0347 16.6663C17.0337 16.6635 16.9544 16.4335 16.9041 16.326C16.9038 16.3254 16.9035 16.3247 16.9033 16.3241C16.7944 16.0917 16.7539 15.8379 16.7863 15.5901C16.8913 14.7864 16.9173 13.9519 16.9382 13.2814C16.992 11.5615 16.6487 10.3054 15.8888 9.44107C15.1251 8.57263 14.0272 8.07611 12.8727 8.07611C12.864 8.07611 12.8553 8.07611 12.8466 8.07617C12.198 8.08038 11.6703 8.617 11.6703 9.27243V11.3632C11.6703 12.6936 11.4549 14.5448 10.4288 15.8087C9.34034 17.1495 8.40035 17.1379 6.84371 17.1188C6.7903 17.1181 6.73638 17.1175 6.68197 17.1169V16.552C6.68197 15.6151 5.91971 14.8529 4.98292 14.8529H1.69905C0.762253 14.8529 0 15.615 0 16.5519V21.2787C0 21.5387 0.210694 21.7495 0.47072 21.7495C0.730746 21.7495 0.941441 21.5387 0.941441 21.2787V16.5519C0.941441 16.1342 1.2813 15.7943 1.69905 15.7943H4.98286C5.4006 15.7943 5.74046 16.1342 5.74046 16.5519V30.3009C5.74046 30.7187 5.4006 31.0586 4.98286 31.0586H1.69905C1.2813 31.0586 0.941441 30.7187 0.941441 30.3009V23.4264C0.941441 23.1665 0.730746 22.9557 0.47072 22.9557C0.210694 22.9557 0 23.1665 0 23.4264V30.3009C0 31.2378 0.762253 32 1.69905 32H4.98286C5.91971 32 6.68191 31.2378 6.68191 30.3009V29.59H7.31832C7.62617 29.59 7.93101 29.6976 8.17647 29.8931C8.23993 29.9435 8.3138 30.0067 8.39947 30.0798C8.98812 30.5823 10.0837 31.5178 11.652 31.5178L23.2066 31.5179C24.4244 31.5179 25.4151 30.5273 25.4151 29.3095C25.4151 28.7836 25.23 28.3003 24.9219 27.9205C25.7856 27.6205 26.4075 26.7989 26.4075 25.8343C26.4075 25.2845 26.2051 24.7814 25.8715 24.3945C26.6652 24.0594 27.2236 23.2732 27.2236 22.359C27.2236 21.4446 26.6651 20.6584 25.8714 20.3232ZM20.1813 17.6165H24.1991C24.8977 17.6165 25.4661 18.1849 25.4661 18.8834C25.4661 19.582 24.8977 20.1504 24.1991 20.1504H20.1813C19.4827 20.1504 18.9144 19.582 18.9144 18.8834C18.9144 18.1848 19.4827 17.6165 20.1813 17.6165ZM17.3816 30.5764H11.6521C10.431 30.5764 9.5764 29.8467 9.01084 29.3638C8.92247 29.2883 8.839 29.2171 8.7628 29.1565C8.35133 28.829 7.83837 28.6487 7.31838 28.6487H6.68197V18.0583C6.73249 18.0589 6.78258 18.0595 6.83216 18.0601C8.48125 18.0801 9.78427 18.0965 11.1598 16.4021C11.8222 15.5862 12.6118 14.0497 12.6118 11.3632V9.27249C12.6118 9.13285 12.7199 9.01856 12.8528 9.01768C12.8591 9.01761 12.8653 9.01761 12.8717 9.01761C13.7432 9.01761 14.6056 9.40743 15.1819 10.0628C15.7766 10.7391 16.0433 11.7824 15.9973 13.2521C15.9771 13.9019 15.9518 14.7108 15.8529 15.4683C15.7972 15.8943 15.8657 16.3283 16.0507 16.7234C16.0516 16.7254 16.0528 16.7281 16.0538 16.7304C16.0553 16.7338 16.0567 16.737 16.0587 16.7415C16.059 16.7422 16.0593 16.743 16.0597 16.7438C16.2102 17.0969 16.3247 17.4815 16.3425 17.8682C16.3647 18.35 16.2678 18.835 16.0529 19.3126C16.0486 19.3225 15.6032 20.304 14.3764 20.8484C14.1388 20.9539 14.0317 21.232 14.137 21.4696C14.5016 22.2915 15.8551 21.0559 16.1891 20.7097C16.4723 20.4161 16.7462 20.0726 16.9127 19.6961C17.1875 19.0853 17.3121 18.4557 17.283 17.8249C17.2798 17.7548 17.2733 17.6819 17.2647 17.6079H18.3803C18.1242 17.9685 17.973 18.4085 17.973 18.8835C17.973 19.7977 18.5314 20.584 19.3252 20.9191C18.9916 21.306 18.7891 21.8091 18.7891 22.359C18.7891 22.9087 18.9916 23.4118 19.3251 23.7987C18.5314 24.1338 17.973 24.9201 17.973 25.8343C17.973 26.3602 18.1581 26.8436 18.4662 27.2233C17.6024 27.5234 16.9805 28.345 16.9805 29.3096C16.9805 29.7806 17.1293 30.2174 17.3816 30.5764ZM23.2066 30.5765L19.1865 30.5764C18.489 30.575 17.922 30.0073 17.922 29.3095C17.922 28.6109 18.4903 28.0426 19.1889 28.0426H23.2067C23.9053 28.0426 24.4737 28.6109 24.4737 29.3095C24.4737 30.0082 23.9052 30.5765 23.2066 30.5765ZM24.199 27.1011H20.1813C19.4827 27.1011 18.9144 26.5327 18.9144 25.8341C18.9144 25.1356 19.4827 24.5672 20.1813 24.5672H24.1991C24.8977 24.5672 25.4661 25.1356 25.4661 25.8341C25.466 26.5328 24.8976 27.1011 24.199 27.1011ZM25.0152 23.6258H20.9974C20.2988 23.6258 19.7305 23.0574 19.7305 22.3589C19.7305 21.6603 20.2988 21.0919 20.9974 21.0919H25.0152C25.7138 21.0919 26.2822 21.6603 26.2822 22.3589C26.2822 23.0574 25.7138 23.6258 25.0152 23.6258Z" fill="url(#paint1_linear_551_5195)"/>
<defs>
<linearGradient id="paint0_linear_551_5195" x1="16.8471" y1="7.682" x2="31.9761" y2="7.71503" gradientUnits="userSpaceOnUse">
<stop stop-color="#4E54C8"/>
<stop offset="1" stop-color="#8F94FB"/>
</linearGradient>
<linearGradient id="paint1_linear_551_5195" x1="0.54042" y1="20.3448" x2="26.9995" y2="20.408" gradientUnits="userSpaceOnUse">
<stop stop-color="#4E54C8"/>
<stop offset="1" stop-color="#8F94FB"/>
</linearGradient>
</defs>
</svg>
