<svg width="29" height="37" viewBox="0 0 29 37" fill="none" xmlns="http://www.w3.org/2000/svg">
<path d="M0 7.879V22.4452C0 22.6438 0.0662099 22.8425 0.13242 22.9749C0.33105 23.3721 4.43607 32.1119 14.0365 36.2169H14.1027H14.169C14.3014 36.2169 14.3676 36.2831 14.5 36.2831C14.6324 36.2831 14.6986 36.2831 14.8311 36.2169H14.8973H14.9635C24.5639 32.1119 28.7352 23.3721 28.8676 22.9749C28.9338 22.7763 29 22.6438 29 22.4452V7.879C29 7.28311 28.6027 6.75343 28.0069 6.62101C22.9749 5.36301 15.2283 0.26484 15.1621 0.19863C15.0959 0.13242 15.0297 0.13242 14.8973 0.06621C14.8311 0.06621 14.8311 0.0662101 14.7648 0C14.6986 0 14.6986 0 14.6324 0C14.5662 0 14.5 0 14.4338 0H14.3676C14.3014 0 14.2352 0 14.2352 0H14.169C14.1027 0 14.0365 0.06621 13.9703 0.06621C13.9041 0.13242 13.8379 0.13242 13.7055 0.19863C13.5731 0.26484 5.89269 5.36301 0.860731 6.62101C0.39726 6.75343 0 7.28311 0 7.879ZM2.6484 8.87215C7.08448 7.48174 12.5799 4.10502 14.5662 2.84703C16.5525 4.10502 22.0479 7.48174 26.484 8.87215V22.1142C25.7557 23.5046 22.0479 30.1256 14.5662 33.5685C7.08448 30.1256 3.37671 23.5046 2.6484 22.1142V8.87215Z" fill="black"/>
<path d="M0 7.879V22.4452C0 22.6438 0.0662099 22.8425 0.13242 22.9749C0.33105 23.3721 4.43607 32.1119 14.0365 36.2169H14.1027H14.169C14.3014 36.2169 14.3676 36.2831 14.5 36.2831C14.6324 36.2831 14.6986 36.2831 14.8311 36.2169H14.8973H14.9635C24.5639 32.1119 28.7352 23.3721 28.8676 22.9749C28.9338 22.7763 29 22.6438 29 22.4452V7.879C29 7.28311 28.6027 6.75343 28.0069 6.62101C22.9749 5.36301 15.2283 0.26484 15.1621 0.19863C15.0959 0.13242 15.0297 0.13242 14.8973 0.06621C14.8311 0.06621 14.8311 0.0662101 14.7648 0C14.6986 0 14.6986 0 14.6324 0C14.5662 0 14.5 0 14.4338 0H14.3676C14.3014 0 14.2352 0 14.2352 0H14.169C14.1027 0 14.0365 0.06621 13.9703 0.06621C13.9041 0.13242 13.8379 0.13242 13.7055 0.19863C13.5731 0.26484 5.89269 5.36301 0.860731 6.62101C0.39726 6.75343 0 7.28311 0 7.879ZM2.6484 8.87215C7.08448 7.48174 12.5799 4.10502 14.5662 2.84703C16.5525 4.10502 22.0479 7.48174 26.484 8.87215V22.1142C25.7557 23.5046 22.0479 30.1256 14.5662 33.5685C7.08448 30.1256 3.37671 23.5046 2.6484 22.1142V8.87215Z" fill="url(#paint0_linear_619_1015)"/>
<path d="M12.3134 22.7101C12.5783 22.975 12.9093 23.1074 13.2404 23.1074C13.5714 23.1074 13.9025 22.975 14.1673 22.7101L20.7221 16.1553C21.2518 15.6256 21.2518 14.8311 20.7221 14.3014C20.1924 13.7718 19.3979 13.7718 18.8682 14.3014L13.2404 19.9293L10.2609 16.9498C9.73123 16.4202 8.93671 16.4202 8.40703 16.9498C7.87735 17.4795 7.87735 18.274 8.40703 18.8037L12.3134 22.7101Z" fill="black"/>
<path d="M12.3134 22.7101C12.5783 22.975 12.9093 23.1074 13.2404 23.1074C13.5714 23.1074 13.9025 22.975 14.1673 22.7101L20.7221 16.1553C21.2518 15.6256 21.2518 14.8311 20.7221 14.3014C20.1924 13.7718 19.3979 13.7718 18.8682 14.3014L13.2404 19.9293L10.2609 16.9498C9.73123 16.4202 8.93671 16.4202 8.40703 16.9498C7.87735 17.4795 7.87735 18.274 8.40703 18.8037L12.3134 22.7101Z" fill="url(#paint1_linear_619_1015)"/>
<defs>
<linearGradient id="paint0_linear_619_1015" x1="0.575682" y1="18.6067" x2="28.7613" y2="18.654" gradientUnits="userSpaceOnUse">
<stop stop-color="#4E54C8"/>
<stop offset="1" stop-color="#8F94FB"/>
</linearGradient>
<linearGradient id="paint1_linear_619_1015" x1="8.27001" y1="18.6238" x2="21.0114" y2="18.6619" gradientUnits="userSpaceOnUse">
<stop stop-color="#4E54C8"/>
<stop offset="1" stop-color="#8F94FB"/>
</linearGradient>
</defs>
</svg>
