<svg width="49" height="49" viewBox="0 0 49 49" fill="none" xmlns="http://www.w3.org/2000/svg">
<path d="M47.9773 25.4729H35.611C35.1175 25.4729 34.6939 25.8255 34.605 26.3111C34.3423 27.7367 33.7958 29.0603 32.9797 30.2451C32.699 30.6517 32.7499 31.2 33.0986 31.5487L41.8446 40.2948C42.0364 40.4875 42.2972 40.5945 42.5679 40.5945C42.5829 40.5945 42.5979 40.5945 42.6118 40.5935C42.8986 40.5815 43.1673 40.4487 43.3511 40.2299C46.6087 36.3508 48.5617 31.6317 48.9963 26.5838C49.0212 26.2981 48.9244 26.0154 48.7316 25.8046C48.5377 25.5928 48.264 25.4729 47.9773 25.4729ZM42.483 38.04L35.1255 30.6826C35.7099 29.6946 36.1474 28.6356 36.4331 27.5188H46.8344C46.314 31.3568 44.8246 34.9562 42.483 38.04Z" fill="#CBD5E1"/>
<path d="M31.6495 32.9952C31.2999 32.6466 30.7514 32.5946 30.3459 32.8763C28.6326 34.056 26.6287 34.6794 24.5508 34.6794C18.9105 34.6794 14.3213 30.0901 14.3213 24.4499C14.3213 19.5169 17.8407 15.2903 22.6896 14.3981C23.1752 14.3092 23.5278 13.8856 23.5278 13.3921V1.02591C23.5278 0.739159 23.4079 0.465456 23.1962 0.271639C22.9854 0.076863 22.6997 -0.0290124 22.417 0.0069507C9.84689 1.09093 0 11.8279 0 24.4499C0 37.987 11.0137 49.0007 24.5508 49.0007C30.3099 49.0007 35.9142 46.9578 40.3307 43.2475C40.5494 43.0627 40.6823 42.795 40.6943 42.5083C40.7063 42.2226 40.5984 41.944 40.3956 41.7411L31.6495 32.9952ZM24.5508 46.9548C12.1415 46.9548 2.04587 36.8591 2.04587 24.4499C2.04587 13.2543 10.4962 3.6772 21.482 2.16876V12.5701C16.0985 13.9516 12.2754 18.8177 12.2754 24.4499C12.2754 31.2189 17.7818 36.7253 24.5508 36.7253C26.7586 36.7253 28.8964 36.1388 30.7835 35.023L38.1399 42.3794C34.2398 45.3375 29.4567 46.9548 24.5508 46.9548Z" fill="#CBD5E1"/>
<path d="M26.4143 14.3983C30.552 15.1596 33.8437 18.4511 34.6048 22.5889C34.6937 23.0744 35.1173 23.4271 35.6108 23.4271H47.9781C48.2649 23.4271 48.5386 23.3072 48.7324 23.0954C48.9262 22.8846 49.0221 22.6019 48.9971 22.3162C47.9691 10.4164 38.5868 1.03403 26.687 0.00702048C26.4093 -0.0189688 26.1186 0.0779877 25.9078 0.271709C25.696 0.465526 25.5762 0.739229 25.5762 1.02597V13.3923C25.5761 13.8858 25.9287 14.3094 26.4143 14.3983ZM27.622 2.16883C37.6298 3.52747 45.4758 11.3724 46.8353 21.3811H36.4319C35.3211 17.0875 31.9156 13.682 27.6219 12.5711L27.622 2.16883Z" fill="#CBD5E1"/>
</svg>
