<svg width="42" height="38" viewBox="0 0 42 38" fill="none" xmlns="http://www.w3.org/2000/svg">
<path d="M5.23874 25.5514C4.37025 25.5503 3.53763 25.2049 2.92352 24.5908C2.3094 23.9766 1.96393 23.144 1.96289 22.2755V20.9652C1.96289 20.0964 2.30802 19.2631 2.92237 18.6488C3.53671 18.0345 4.36993 17.6893 5.23874 17.6893C6.10755 17.6893 6.94078 18.0345 7.55512 18.6488C8.16947 19.2631 8.5146 20.0964 8.5146 20.9652V22.2755C8.51356 23.144 8.16809 23.9766 7.55397 24.5908C6.93986 25.2049 6.10724 25.5503 5.23874 25.5514ZM5.23874 18.9997C4.71746 18.9997 4.21752 19.2068 3.84892 19.5754C3.48031 19.944 3.27323 20.4439 3.27323 20.9652V22.2755C3.27323 22.7968 3.48031 23.2967 3.84892 23.6654C4.21752 24.034 4.71746 24.241 5.23874 24.241C5.76003 24.241 6.25997 24.034 6.62857 23.6654C6.99718 23.2967 7.20426 22.7968 7.20426 22.2755V20.9652C7.20426 20.4439 6.99718 19.944 6.62857 19.5754C6.25997 19.2068 5.76003 18.9997 5.23874 18.9997Z" fill="black"/>
<path d="M5.23874 25.5514C4.37025 25.5503 3.53763 25.2049 2.92352 24.5908C2.3094 23.9766 1.96393 23.144 1.96289 22.2755V20.9652C1.96289 20.0964 2.30802 19.2631 2.92237 18.6488C3.53671 18.0345 4.36993 17.6893 5.23874 17.6893C6.10755 17.6893 6.94078 18.0345 7.55512 18.6488C8.16947 19.2631 8.5146 20.0964 8.5146 20.9652V22.2755C8.51356 23.144 8.16809 23.9766 7.55397 24.5908C6.93986 25.2049 6.10724 25.5503 5.23874 25.5514ZM5.23874 18.9997C4.71746 18.9997 4.21752 19.2068 3.84892 19.5754C3.48031 19.944 3.27323 20.4439 3.27323 20.9652V22.2755C3.27323 22.7968 3.48031 23.2967 3.84892 23.6654C4.21752 24.034 4.71746 24.241 5.23874 24.241C5.76003 24.241 6.25997 24.034 6.62857 23.6654C6.99718 23.2967 7.20426 22.7968 7.20426 22.2755V20.9652C7.20426 20.4439 6.99718 19.944 6.62857 19.5754C6.25997 19.2068 5.76003 18.9997 5.23874 18.9997Z" fill="url(#paint0_linear_619_1020)"/>
<path d="M9.82756 30.7928C9.6538 30.7928 9.48715 30.7237 9.36429 30.6009C9.24142 30.478 9.17239 30.3113 9.17239 30.1376V28.1721C9.17239 27.8246 9.03434 27.4913 8.7886 27.2455C8.54286 26.9998 8.20957 26.8617 7.86205 26.8617H2.62068C2.27316 26.8617 1.93987 26.9998 1.69413 27.2455C1.4484 27.4913 1.31034 27.8246 1.31034 28.1721V30.1376C1.31034 30.3113 1.24131 30.478 1.11845 30.6009C0.995578 30.7237 0.828933 30.7928 0.655171 30.7928C0.481409 30.7928 0.314763 30.7237 0.191895 30.6009C0.0690267 30.478 0 30.3113 0 30.1376V28.1721C0 27.477 0.276107 26.8104 0.76758 26.319C1.25905 25.8275 1.92563 25.5514 2.62068 25.5514H7.86205C8.5571 25.5514 9.22368 25.8275 9.71515 26.319C10.2066 26.8104 10.4827 27.477 10.4827 28.1721V30.1376C10.4827 30.3113 10.4137 30.478 10.2908 30.6009C10.168 30.7237 10.0013 30.7928 9.82756 30.7928Z" fill="black"/>
<path d="M9.82756 30.7928C9.6538 30.7928 9.48715 30.7237 9.36429 30.6009C9.24142 30.478 9.17239 30.3113 9.17239 30.1376V28.1721C9.17239 27.8246 9.03434 27.4913 8.7886 27.2455C8.54286 26.9998 8.20957 26.8617 7.86205 26.8617H2.62068C2.27316 26.8617 1.93987 26.9998 1.69413 27.2455C1.4484 27.4913 1.31034 27.8246 1.31034 28.1721V30.1376C1.31034 30.3113 1.24131 30.478 1.11845 30.6009C0.995578 30.7237 0.828933 30.7928 0.655171 30.7928C0.481409 30.7928 0.314763 30.7237 0.191895 30.6009C0.0690267 30.478 0 30.3113 0 30.1376V28.1721C0 27.477 0.276107 26.8104 0.76758 26.319C1.25905 25.8275 1.92563 25.5514 2.62068 25.5514H7.86205C8.5571 25.5514 9.22368 25.8275 9.71515 26.319C10.2066 26.8104 10.4827 27.477 10.4827 28.1721V30.1376C10.4827 30.3113 10.4137 30.478 10.2908 30.6009C10.168 30.7237 10.0013 30.7928 9.82756 30.7928Z" fill="url(#paint1_linear_619_1020)"/>
<path d="M36.6909 25.5514C35.8224 25.5503 34.9898 25.2049 34.3757 24.5908C33.7615 23.9766 33.4161 23.144 33.415 22.2755V20.9652C33.415 20.0964 33.7602 19.2631 34.3745 18.6488C34.9889 18.0345 35.8221 17.6893 36.6909 17.6893C37.5597 17.6893 38.3929 18.0345 39.0073 18.6488C39.6216 19.2631 39.9667 20.0964 39.9667 20.9652V22.2755C39.9657 23.144 39.6202 23.9766 39.0061 24.5908C38.392 25.2049 37.5594 25.5503 36.6909 25.5514ZM36.6909 18.9997C36.1696 18.9997 35.6697 19.2068 35.3011 19.5754C34.9325 19.944 34.7254 20.4439 34.7254 20.9652V22.2755C34.7254 22.7968 34.9325 23.2967 35.3011 23.6654C35.6697 24.034 36.1696 24.241 36.6909 24.241C37.2122 24.241 37.7121 24.034 38.0807 23.6654C38.4493 23.2967 38.6564 22.7968 38.6564 22.2755V20.9652C38.6564 20.4439 38.4493 19.944 38.0807 19.5754C37.7121 19.2068 37.2122 18.9997 36.6909 18.9997Z" fill="black"/>
<path d="M36.6909 25.5514C35.8224 25.5503 34.9898 25.2049 34.3757 24.5908C33.7615 23.9766 33.4161 23.144 33.415 22.2755V20.9652C33.415 20.0964 33.7602 19.2631 34.3745 18.6488C34.9889 18.0345 35.8221 17.6893 36.6909 17.6893C37.5597 17.6893 38.3929 18.0345 39.0073 18.6488C39.6216 19.2631 39.9667 20.0964 39.9667 20.9652V22.2755C39.9657 23.144 39.6202 23.9766 39.0061 24.5908C38.392 25.2049 37.5594 25.5503 36.6909 25.5514ZM36.6909 18.9997C36.1696 18.9997 35.6697 19.2068 35.3011 19.5754C34.9325 19.944 34.7254 20.4439 34.7254 20.9652V22.2755C34.7254 22.7968 34.9325 23.2967 35.3011 23.6654C35.6697 24.034 36.1696 24.241 36.6909 24.241C37.2122 24.241 37.7121 24.034 38.0807 23.6654C38.4493 23.2967 38.6564 22.7968 38.6564 22.2755V20.9652C38.6564 20.4439 38.4493 19.944 38.0807 19.5754C37.7121 19.2068 37.2122 18.9997 36.6909 18.9997Z" fill="url(#paint2_linear_619_1020)"/>
<path d="M41.2719 30.7928C41.0981 30.7928 40.9315 30.7237 40.8086 30.6009C40.6858 30.478 40.6167 30.3113 40.6167 30.1376V28.1721C40.6167 27.8246 40.4787 27.4913 40.2329 27.2455C39.9872 26.9998 39.6539 26.8617 39.3064 26.8617H34.065C33.7175 26.8617 33.3842 26.9998 33.1385 27.2455C32.8927 27.4913 32.7547 27.8246 32.7547 28.1721V30.1376C32.7547 30.3113 32.6857 30.478 32.5628 30.6009C32.4399 30.7237 32.2733 30.7928 32.0995 30.7928C31.9257 30.7928 31.7591 30.7237 31.6362 30.6009C31.5134 30.478 31.4443 30.3113 31.4443 30.1376V28.1721C31.4443 27.477 31.7204 26.8104 32.2119 26.319C32.7034 25.8275 33.37 25.5514 34.065 25.5514H39.3064C40.0014 25.5514 40.668 25.8275 41.1595 26.319C41.651 26.8104 41.9271 27.477 41.9271 28.1721V30.1376C41.9271 30.3113 41.858 30.478 41.7352 30.6009C41.6123 30.7237 41.4457 30.7928 41.2719 30.7928Z" fill="black"/>
<path d="M41.2719 30.7928C41.0981 30.7928 40.9315 30.7237 40.8086 30.6009C40.6858 30.478 40.6167 30.3113 40.6167 30.1376V28.1721C40.6167 27.8246 40.4787 27.4913 40.2329 27.2455C39.9872 26.9998 39.6539 26.8617 39.3064 26.8617H34.065C33.7175 26.8617 33.3842 26.9998 33.1385 27.2455C32.8927 27.4913 32.7547 27.8246 32.7547 28.1721V30.1376C32.7547 30.3113 32.6857 30.478 32.5628 30.6009C32.4399 30.7237 32.2733 30.7928 32.0995 30.7928C31.9257 30.7928 31.7591 30.7237 31.6362 30.6009C31.5134 30.478 31.4443 30.3113 31.4443 30.1376V28.1721C31.4443 27.477 31.7204 26.8104 32.2119 26.319C32.7034 25.8275 33.37 25.5514 34.065 25.5514H39.3064C40.0014 25.5514 40.668 25.8275 41.1595 26.319C41.651 26.8104 41.9271 27.477 41.9271 28.1721V30.1376C41.9271 30.3113 41.858 30.478 41.7352 30.6009C41.6123 30.7237 41.4457 30.7928 41.2719 30.7928Z" fill="url(#paint3_linear_619_1020)"/>
<path d="M20.9643 7.86205C20.0958 7.86101 19.2632 7.51554 18.6491 6.90143C18.035 6.28731 17.6895 5.45469 17.6885 4.5862V3.27585C17.6885 2.40704 18.0336 1.57382 18.648 0.959476C19.2623 0.345134 20.0955 0 20.9643 0C21.8331 0 22.6664 0.345134 23.2807 0.959476C23.8951 1.57382 24.2402 2.40704 24.2402 3.27585V4.5862C24.2391 5.45469 23.8937 6.28731 23.2796 6.90143C22.6654 7.51554 21.8328 7.86101 20.9643 7.86205ZM20.9643 1.31034C20.443 1.31034 19.9431 1.51742 19.5745 1.88603C19.2059 2.25463 18.9988 2.75457 18.9988 3.27585V4.5862C18.9988 5.10748 19.2059 5.60742 19.5745 5.97602C19.9431 6.34463 20.443 6.55171 20.9643 6.55171C21.4856 6.55171 21.9856 6.34463 22.3542 5.97602C22.7228 5.60742 22.9298 5.10748 22.9298 4.5862V3.27585C22.9298 2.75457 22.7228 2.25463 22.3542 1.88603C21.9856 1.51742 21.4856 1.31034 20.9643 1.31034Z" fill="black"/>
<path d="M20.9643 7.86205C20.0958 7.86101 19.2632 7.51554 18.6491 6.90143C18.035 6.28731 17.6895 5.45469 17.6885 4.5862V3.27585C17.6885 2.40704 18.0336 1.57382 18.648 0.959476C19.2623 0.345134 20.0955 0 20.9643 0C21.8331 0 22.6664 0.345134 23.2807 0.959476C23.8951 1.57382 24.2402 2.40704 24.2402 3.27585V4.5862C24.2391 5.45469 23.8937 6.28731 23.2796 6.90143C22.6654 7.51554 21.8328 7.86101 20.9643 7.86205ZM20.9643 1.31034C20.443 1.31034 19.9431 1.51742 19.5745 1.88603C19.2059 2.25463 18.9988 2.75457 18.9988 3.27585V4.5862C18.9988 5.10748 19.2059 5.60742 19.5745 5.97602C19.9431 6.34463 20.443 6.55171 20.9643 6.55171C21.4856 6.55171 21.9856 6.34463 22.3542 5.97602C22.7228 5.60742 22.9298 5.10748 22.9298 4.5862V3.27585C22.9298 2.75457 22.7228 2.25463 22.3542 1.88603C21.9856 1.51742 21.4856 1.31034 20.9643 1.31034Z" fill="url(#paint4_linear_619_1020)"/>
<path d="M25.5541 13.1034C25.3804 13.1034 25.2137 13.0344 25.0908 12.9115C24.968 12.7887 24.899 12.622 24.899 12.4483V10.4827C24.899 10.1352 24.7609 9.80193 24.5152 9.55619C24.2694 9.31046 23.9361 9.1724 23.5886 9.1724H18.3472C17.9997 9.1724 17.6664 9.31046 17.4207 9.55619C17.175 9.80193 17.0369 10.1352 17.0369 10.4827V12.4483C17.0369 12.622 16.9679 12.7887 16.845 12.9115C16.7221 13.0344 16.5555 13.1034 16.3817 13.1034C16.208 13.1034 16.0413 13.0344 15.9185 12.9115C15.7956 12.7887 15.7266 12.622 15.7266 12.4483V10.4827C15.7266 9.7877 16.0027 9.12111 16.4941 8.62964C16.9856 8.13817 17.6522 7.86206 18.3472 7.86206H23.5886C24.2837 7.86206 24.9502 8.13817 25.4417 8.62964C25.9332 9.12111 26.2093 9.7877 26.2093 10.4827V12.4483C26.2093 12.622 26.1403 12.7887 26.0174 12.9115C25.8945 13.0344 25.7279 13.1034 25.5541 13.1034Z" fill="black"/>
<path d="M25.5541 13.1034C25.3804 13.1034 25.2137 13.0344 25.0908 12.9115C24.968 12.7887 24.899 12.622 24.899 12.4483V10.4827C24.899 10.1352 24.7609 9.80193 24.5152 9.55619C24.2694 9.31046 23.9361 9.1724 23.5886 9.1724H18.3472C17.9997 9.1724 17.6664 9.31046 17.4207 9.55619C17.175 9.80193 17.0369 10.1352 17.0369 10.4827V12.4483C17.0369 12.622 16.9679 12.7887 16.845 12.9115C16.7221 13.0344 16.5555 13.1034 16.3817 13.1034C16.208 13.1034 16.0413 13.0344 15.9185 12.9115C15.7956 12.7887 15.7266 12.622 15.7266 12.4483V10.4827C15.7266 9.7877 16.0027 9.12111 16.4941 8.62964C16.9856 8.13817 17.6522 7.86206 18.3472 7.86206H23.5886C24.2837 7.86206 24.9502 8.13817 25.4417 8.62964C25.9332 9.12111 26.2093 9.7877 26.2093 10.4827V12.4483C26.2093 12.622 26.1403 12.7887 26.0174 12.9115C25.8945 13.0344 25.7279 13.1034 25.5541 13.1034Z" fill="url(#paint5_linear_619_1020)"/>
<path d="M20.9632 37.9997C18.8065 38.006 16.6701 37.5833 14.6783 36.7561C12.6865 35.9289 10.8792 34.7139 9.36143 33.1816C9.29895 33.1211 9.24914 33.0487 9.21492 32.9687C9.18071 32.8887 9.16276 32.8028 9.16213 32.7158C9.1615 32.6288 9.1782 32.5425 9.21125 32.4621C9.24431 32.3816 9.29306 32.3085 9.35466 32.2471C9.41626 32.1857 9.48948 32.1371 9.57004 32.1043C9.6506 32.0715 9.73689 32.055 9.82388 32.0559C9.91087 32.0568 9.99681 32.0749 10.0767 32.1094C10.1566 32.1438 10.2288 32.1938 10.2892 32.2565C11.6891 33.6614 13.3526 34.7761 15.1843 35.5367C17.016 36.2973 18.9799 36.6888 20.9632 36.6888C22.9465 36.6888 24.9104 36.2973 26.7421 35.5367C28.5737 34.7761 30.2373 33.6614 31.6372 32.2565C31.6976 32.1938 31.7698 32.1438 31.8497 32.1094C31.9296 32.0749 32.0155 32.0568 32.1025 32.0559C32.1895 32.055 32.2758 32.0715 32.3564 32.1043C32.4369 32.1371 32.5101 32.1857 32.5717 32.2471C32.6333 32.3085 32.6821 32.3816 32.7151 32.4621C32.7482 32.5425 32.7649 32.6288 32.7643 32.7158C32.7636 32.8028 32.7457 32.8887 32.7115 32.9687C32.6773 33.0487 32.6274 33.1211 32.565 33.1816C31.0471 34.7136 29.2397 35.9286 27.2479 36.7557C25.2562 37.5829 23.1199 38.0058 20.9632 37.9997Z" fill="black"/>
<path d="M20.9632 37.9997C18.8065 38.006 16.6701 37.5833 14.6783 36.7561C12.6865 35.9289 10.8792 34.7139 9.36143 33.1816C9.29895 33.1211 9.24914 33.0487 9.21492 32.9687C9.18071 32.8887 9.16276 32.8028 9.16213 32.7158C9.1615 32.6288 9.1782 32.5425 9.21125 32.4621C9.24431 32.3816 9.29306 32.3085 9.35466 32.2471C9.41626 32.1857 9.48948 32.1371 9.57004 32.1043C9.6506 32.0715 9.73689 32.055 9.82388 32.0559C9.91087 32.0568 9.99681 32.0749 10.0767 32.1094C10.1566 32.1438 10.2288 32.1938 10.2892 32.2565C11.6891 33.6614 13.3526 34.7761 15.1843 35.5367C17.016 36.2973 18.9799 36.6888 20.9632 36.6888C22.9465 36.6888 24.9104 36.2973 26.7421 35.5367C28.5737 34.7761 30.2373 33.6614 31.6372 32.2565C31.6976 32.1938 31.7698 32.1438 31.8497 32.1094C31.9296 32.0749 32.0155 32.0568 32.1025 32.0559C32.1895 32.055 32.2758 32.0715 32.3564 32.1043C32.4369 32.1371 32.5101 32.1857 32.5717 32.2471C32.6333 32.3085 32.6821 32.3816 32.7151 32.4621C32.7482 32.5425 32.7649 32.6288 32.7643 32.7158C32.7636 32.8028 32.7457 32.8887 32.7115 32.9687C32.6773 33.0487 32.6274 33.1211 32.565 33.1816C31.0471 34.7136 29.2397 35.9286 27.2479 36.7557C25.2562 37.5829 23.1199 38.0058 20.9632 37.9997Z" fill="url(#paint6_linear_619_1020)"/>
<path d="M35.7917 17.0344C35.6562 17.0344 35.524 16.9924 35.4133 16.9141C35.3027 16.8358 35.219 16.7252 35.1739 16.5974C34.4159 14.4823 33.1989 12.5614 31.6103 10.9726C30.0216 9.38388 28.1008 8.16672 25.9858 7.40862C25.9024 7.38179 25.8252 7.33851 25.7588 7.28134C25.6925 7.22417 25.6382 7.15427 25.5993 7.07577C25.5605 6.99727 25.5377 6.91177 25.5324 6.82433C25.5272 6.73688 25.5395 6.64927 25.5687 6.56667C25.5979 6.48407 25.6433 6.40817 25.7023 6.34344C25.7614 6.27871 25.8328 6.22648 25.9124 6.18984C25.9919 6.15319 26.078 6.13288 26.1656 6.13009C26.2532 6.12731 26.3404 6.14211 26.4221 6.17362C28.7212 6.99728 30.8093 8.3201 32.5362 10.047C34.2631 11.7739 35.5859 13.8619 36.4095 16.161C36.4444 16.2599 36.4551 16.3656 36.4407 16.4694C36.4263 16.5732 36.3871 16.672 36.3266 16.7576C36.2661 16.8432 36.1859 16.9129 36.0929 16.9611C35.9998 17.0093 35.8965 17.0344 35.7917 17.0344Z" fill="black"/>
<path d="M35.7917 17.0344C35.6562 17.0344 35.524 16.9924 35.4133 16.9141C35.3027 16.8358 35.219 16.7252 35.1739 16.5974C34.4159 14.4823 33.1989 12.5614 31.6103 10.9726C30.0216 9.38388 28.1008 8.16672 25.9858 7.40862C25.9024 7.38179 25.8252 7.33851 25.7588 7.28134C25.6925 7.22417 25.6382 7.15427 25.5993 7.07577C25.5605 6.99727 25.5377 6.91177 25.5324 6.82433C25.5272 6.73688 25.5395 6.64927 25.5687 6.56667C25.5979 6.48407 25.6433 6.40817 25.7023 6.34344C25.7614 6.27871 25.8328 6.22648 25.9124 6.18984C25.9919 6.15319 26.078 6.13288 26.1656 6.13009C26.2532 6.12731 26.3404 6.14211 26.4221 6.17362C28.7212 6.99728 30.8093 8.3201 32.5362 10.047C34.2631 11.7739 35.5859 13.8619 36.4095 16.161C36.4444 16.2599 36.4551 16.3656 36.4407 16.4694C36.4263 16.5732 36.3871 16.672 36.3266 16.7576C36.2661 16.8432 36.1859 16.9129 36.0929 16.9611C35.9998 17.0093 35.8965 17.0344 35.7917 17.0344Z" fill="url(#paint7_linear_619_1020)"/>
<path d="M6.13959 17.0344C6.03479 17.0344 5.93152 17.0093 5.83845 16.9611C5.74537 16.9129 5.66521 16.8432 5.60468 16.7576C5.54416 16.672 5.50504 16.5732 5.49061 16.4694C5.47619 16.3656 5.48687 16.2599 5.52177 16.161C6.34542 13.8619 7.66824 11.7739 9.39513 10.047C11.122 8.3201 13.2101 6.99728 15.5092 6.17362C15.5909 6.14211 15.6782 6.12731 15.7657 6.13009C15.8533 6.13288 15.9394 6.15319 16.019 6.18984C16.0985 6.22648 16.1699 6.27871 16.229 6.34344C16.288 6.40817 16.3335 6.48407 16.3626 6.56667C16.3918 6.64927 16.4041 6.73688 16.3989 6.82433C16.3936 6.91177 16.3709 6.99727 16.332 7.07577C16.2931 7.15427 16.2388 7.22417 16.1725 7.28134C16.1061 7.33851 16.0289 7.38179 15.9455 7.40862C13.8305 8.16672 11.9097 9.38388 10.321 10.9726C8.73239 12.5614 7.51537 14.4823 6.75742 16.5974C6.71229 16.7252 6.62863 16.8358 6.51798 16.9141C6.40733 16.9924 6.27513 17.0344 6.13959 17.0344Z" fill="black"/>
<path d="M6.13959 17.0344C6.03479 17.0344 5.93152 17.0093 5.83845 16.9611C5.74537 16.9129 5.66521 16.8432 5.60468 16.7576C5.54416 16.672 5.50504 16.5732 5.49061 16.4694C5.47619 16.3656 5.48687 16.2599 5.52177 16.161C6.34542 13.8619 7.66824 11.7739 9.39513 10.047C11.122 8.3201 13.2101 6.99728 15.5092 6.17362C15.5909 6.14211 15.6782 6.12731 15.7657 6.13009C15.8533 6.13288 15.9394 6.15319 16.019 6.18984C16.0985 6.22648 16.1699 6.27871 16.229 6.34344C16.288 6.40817 16.3335 6.48407 16.3626 6.56667C16.3918 6.64927 16.4041 6.73688 16.3989 6.82433C16.3936 6.91177 16.3709 6.99727 16.332 7.07577C16.2931 7.15427 16.2388 7.22417 16.1725 7.28134C16.1061 7.33851 16.0289 7.38179 15.9455 7.40862C13.8305 8.16672 11.9097 9.38388 10.321 10.9726C8.73239 12.5614 7.51537 14.4823 6.75742 16.5974C6.71229 16.7252 6.62863 16.8358 6.51798 16.9141C6.40733 16.9924 6.27513 17.0344 6.13959 17.0344Z" fill="url(#paint8_linear_619_1020)"/>
<path d="M21.7255 31.4478H20.1976C19.8715 31.4472 19.5568 31.3278 19.3124 31.112C19.068 30.8961 18.9105 30.5986 18.8696 30.2751L18.7576 29.3834C18.4863 29.2746 18.2203 29.1646 17.9668 29.0394L17.2461 29.6035C16.9882 29.8033 16.6664 29.9024 16.3408 29.8821C16.0153 29.8619 15.7082 29.7237 15.4771 29.4935L14.3967 28.4131C14.1664 28.1821 14.0281 27.875 14.0079 27.5494C13.9876 27.2238 14.0867 26.9019 14.2867 26.6441L14.8383 25.9346C14.7243 25.6673 14.6143 25.4006 14.5232 25.1313L13.6151 25.0219C13.2921 24.9806 12.9951 24.823 12.7797 24.5788C12.5642 24.3345 12.445 24.0202 12.4443 23.6945V22.1667C12.4449 21.8406 12.5643 21.5259 12.7802 21.2814C12.9961 21.037 13.2936 20.8796 13.6171 20.8387L14.5088 20.7273C14.6156 20.4606 14.7256 20.1946 14.8514 19.9371L14.2886 19.2164C14.0888 18.9586 13.9898 18.6368 14.01 18.3112C14.0303 17.9856 14.1685 17.6786 14.3987 17.4475L15.4791 16.3671C15.7102 16.137 16.0173 15.9989 16.3428 15.9787C16.6684 15.9584 16.9901 16.0574 17.248 16.257L17.9569 16.8087C18.219 16.696 18.4863 16.5859 18.7582 16.4936L18.8696 15.5855C18.9107 15.2621 19.0682 14.9647 19.3126 14.749C19.557 14.5333 19.8716 14.414 20.1976 14.4134H21.7255C22.0516 14.414 22.3663 14.5334 22.6107 14.7493C22.8552 14.9651 23.0126 15.2626 23.0535 15.5861L23.1656 16.4778C23.4368 16.5866 23.7028 16.6967 23.9563 16.8218L24.677 16.2577C24.9349 16.058 25.2567 15.9591 25.5823 15.9793C25.9078 15.9996 26.2148 16.1376 26.446 16.3678L27.5264 17.4481C27.7567 17.6792 27.895 17.9862 27.9153 18.3118C27.9355 18.6375 27.8364 18.9593 27.6364 19.2171L27.0848 19.9267C27.1994 20.1953 27.3095 20.4613 27.3999 20.7299L28.308 20.8393C28.631 20.8807 28.928 21.0382 29.1434 21.2824C29.3589 21.5267 29.4781 21.841 29.4788 22.1667V23.6945C29.4782 24.0206 29.3588 24.3353 29.1429 24.5798C28.9271 24.8242 28.6295 24.9816 28.306 25.0226L27.4143 25.134C27.3069 25.4013 27.1968 25.6679 27.0717 25.9241L27.6345 26.6448C27.8343 26.9026 27.9333 27.2244 27.9131 27.55C27.8928 27.8756 27.7546 28.1826 27.5244 28.4137L26.444 29.4941C26.2129 29.7244 25.9059 29.8625 25.5803 29.8828C25.2547 29.903 24.9329 29.804 24.6751 29.6042L23.9662 29.0525C23.7041 29.1652 23.4368 29.2753 23.1649 29.3677L23.0535 30.2757C23.0124 30.5991 22.855 30.8965 22.6105 31.1122C22.3661 31.3279 22.0515 31.4472 21.7255 31.4478ZM17.9786 27.7337C18.1743 27.7338 18.3675 27.7786 18.5433 27.8647C18.7505 27.9655 18.9638 28.0531 19.1821 28.1268C19.4156 28.2094 19.6213 28.3556 19.7761 28.5489C19.9309 28.7423 20.0285 28.975 20.0581 29.2209L20.1695 30.1119L21.7255 30.1375L21.865 29.2203C21.8947 28.9744 21.9925 28.7417 22.1474 28.5485C22.3023 28.3552 22.5081 28.2092 22.7417 28.1268C22.9592 28.0529 23.1719 27.9654 23.3785 27.8647C23.6019 27.7584 23.8506 27.7165 24.0965 27.7437C24.3424 27.7709 24.5759 27.8661 24.7707 28.0187L25.4796 28.5703L26.596 27.4867L26.047 26.7398C25.8945 26.5451 25.7993 26.3117 25.772 26.066C25.7447 25.8202 25.7864 25.5716 25.8924 25.3482C25.9927 25.1415 26.0802 24.9288 26.1544 24.7114C26.2374 24.4775 26.384 24.2714 26.5778 24.1164C26.7716 23.9614 27.0048 23.8636 27.2512 23.8341L28.1684 23.6945V22.1667L27.2512 22.0271C27.0055 21.9971 26.773 21.8992 26.5797 21.7445C26.3865 21.5898 26.2401 21.3844 26.1571 21.1512C26.0837 20.9325 25.9962 20.7189 25.895 20.5117C25.7891 20.2886 25.7475 20.0404 25.7748 19.7949C25.8022 19.5495 25.8973 19.3165 26.0496 19.1221L26.6013 18.4126L25.5176 17.2961L24.7714 17.8452C24.5768 17.998 24.3435 18.0935 24.0977 18.1209C23.8518 18.1483 23.6032 18.1066 23.3798 18.0005C23.1726 17.8996 22.9593 17.8121 22.741 17.7384C22.5075 17.6558 22.3018 17.5095 22.147 17.3162C21.9922 17.1229 21.8946 16.8901 21.865 16.6442L21.7537 15.7532L20.1976 15.7237L20.0581 16.641C20.0284 16.8868 19.9307 17.1195 19.7758 17.3128C19.6208 17.506 19.415 17.6521 19.1815 17.7345C18.9639 17.8083 18.7512 17.8959 18.5446 17.9965C18.3212 18.1028 18.0726 18.1448 17.8266 18.1176C17.5807 18.0904 17.3472 17.9951 17.1524 17.8426L16.4409 17.2922L15.3271 18.3746L15.8761 19.1214C16.0287 19.3161 16.1241 19.5494 16.1514 19.7952C16.1787 20.0411 16.1369 20.2896 16.0307 20.513C15.9298 20.7195 15.8423 20.9322 15.7687 21.1499C15.6857 21.3837 15.5391 21.5898 15.3453 21.7448C15.1515 21.8998 14.9183 21.9976 14.6719 22.0271L13.7789 22.1385L13.7547 23.6945L14.6719 23.8341C14.9176 23.8641 15.1501 23.962 15.3434 24.1167C15.5366 24.2714 15.683 24.4769 15.7661 24.7101C15.84 24.928 15.9275 25.1412 16.0281 25.3482C16.1341 25.5715 16.1758 25.8199 16.1486 26.0655C16.1214 26.3112 16.0264 26.5444 15.8742 26.7391L15.3232 27.4513L16.4055 28.5651L17.1517 28.016C17.3885 27.8329 17.6793 27.7336 17.9786 27.7337Z" fill="black"/>
<path d="M21.7255 31.4478H20.1976C19.8715 31.4472 19.5568 31.3278 19.3124 31.112C19.068 30.8961 18.9105 30.5986 18.8696 30.2751L18.7576 29.3834C18.4863 29.2746 18.2203 29.1646 17.9668 29.0394L17.2461 29.6035C16.9882 29.8033 16.6664 29.9024 16.3408 29.8821C16.0153 29.8619 15.7082 29.7237 15.4771 29.4935L14.3967 28.4131C14.1664 28.1821 14.0281 27.875 14.0079 27.5494C13.9876 27.2238 14.0867 26.9019 14.2867 26.6441L14.8383 25.9346C14.7243 25.6673 14.6143 25.4006 14.5232 25.1313L13.6151 25.0219C13.2921 24.9806 12.9951 24.823 12.7797 24.5788C12.5642 24.3345 12.445 24.0202 12.4443 23.6945V22.1667C12.4449 21.8406 12.5643 21.5259 12.7802 21.2814C12.9961 21.037 13.2936 20.8796 13.6171 20.8387L14.5088 20.7273C14.6156 20.4606 14.7256 20.1946 14.8514 19.9371L14.2886 19.2164C14.0888 18.9586 13.9898 18.6368 14.01 18.3112C14.0303 17.9856 14.1685 17.6786 14.3987 17.4475L15.4791 16.3671C15.7102 16.137 16.0173 15.9989 16.3428 15.9787C16.6684 15.9584 16.9901 16.0574 17.248 16.257L17.9569 16.8087C18.219 16.696 18.4863 16.5859 18.7582 16.4936L18.8696 15.5855C18.9107 15.2621 19.0682 14.9647 19.3126 14.749C19.557 14.5333 19.8716 14.414 20.1976 14.4134H21.7255C22.0516 14.414 22.3663 14.5334 22.6107 14.7493C22.8552 14.9651 23.0126 15.2626 23.0535 15.5861L23.1656 16.4778C23.4368 16.5866 23.7028 16.6967 23.9563 16.8218L24.677 16.2577C24.9349 16.058 25.2567 15.9591 25.5823 15.9793C25.9078 15.9996 26.2148 16.1376 26.446 16.3678L27.5264 17.4481C27.7567 17.6792 27.895 17.9862 27.9153 18.3118C27.9355 18.6375 27.8364 18.9593 27.6364 19.2171L27.0848 19.9267C27.1994 20.1953 27.3095 20.4613 27.3999 20.7299L28.308 20.8393C28.631 20.8807 28.928 21.0382 29.1434 21.2824C29.3589 21.5267 29.4781 21.841 29.4788 22.1667V23.6945C29.4782 24.0206 29.3588 24.3353 29.1429 24.5798C28.9271 24.8242 28.6295 24.9816 28.306 25.0226L27.4143 25.134C27.3069 25.4013 27.1968 25.6679 27.0717 25.9241L27.6345 26.6448C27.8343 26.9026 27.9333 27.2244 27.9131 27.55C27.8928 27.8756 27.7546 28.1826 27.5244 28.4137L26.444 29.4941C26.2129 29.7244 25.9059 29.8625 25.5803 29.8828C25.2547 29.903 24.9329 29.804 24.6751 29.6042L23.9662 29.0525C23.7041 29.1652 23.4368 29.2753 23.1649 29.3677L23.0535 30.2757C23.0124 30.5991 22.855 30.8965 22.6105 31.1122C22.3661 31.3279 22.0515 31.4472 21.7255 31.4478ZM17.9786 27.7337C18.1743 27.7338 18.3675 27.7786 18.5433 27.8647C18.7505 27.9655 18.9638 28.0531 19.1821 28.1268C19.4156 28.2094 19.6213 28.3556 19.7761 28.5489C19.9309 28.7423 20.0285 28.975 20.0581 29.2209L20.1695 30.1119L21.7255 30.1375L21.865 29.2203C21.8947 28.9744 21.9925 28.7417 22.1474 28.5485C22.3023 28.3552 22.5081 28.2092 22.7417 28.1268C22.9592 28.0529 23.1719 27.9654 23.3785 27.8647C23.6019 27.7584 23.8506 27.7165 24.0965 27.7437C24.3424 27.7709 24.5759 27.8661 24.7707 28.0187L25.4796 28.5703L26.596 27.4867L26.047 26.7398C25.8945 26.5451 25.7993 26.3117 25.772 26.066C25.7447 25.8202 25.7864 25.5716 25.8924 25.3482C25.9927 25.1415 26.0802 24.9288 26.1544 24.7114C26.2374 24.4775 26.384 24.2714 26.5778 24.1164C26.7716 23.9614 27.0048 23.8636 27.2512 23.8341L28.1684 23.6945V22.1667L27.2512 22.0271C27.0055 21.9971 26.773 21.8992 26.5797 21.7445C26.3865 21.5898 26.2401 21.3844 26.1571 21.1512C26.0837 20.9325 25.9962 20.7189 25.895 20.5117C25.7891 20.2886 25.7475 20.0404 25.7748 19.7949C25.8022 19.5495 25.8973 19.3165 26.0496 19.1221L26.6013 18.4126L25.5176 17.2961L24.7714 17.8452C24.5768 17.998 24.3435 18.0935 24.0977 18.1209C23.8518 18.1483 23.6032 18.1066 23.3798 18.0005C23.1726 17.8996 22.9593 17.8121 22.741 17.7384C22.5075 17.6558 22.3018 17.5095 22.147 17.3162C21.9922 17.1229 21.8946 16.8901 21.865 16.6442L21.7537 15.7532L20.1976 15.7237L20.0581 16.641C20.0284 16.8868 19.9307 17.1195 19.7758 17.3128C19.6208 17.506 19.415 17.6521 19.1815 17.7345C18.9639 17.8083 18.7512 17.8959 18.5446 17.9965C18.3212 18.1028 18.0726 18.1448 17.8266 18.1176C17.5807 18.0904 17.3472 17.9951 17.1524 17.8426L16.4409 17.2922L15.3271 18.3746L15.8761 19.1214C16.0287 19.3161 16.1241 19.5494 16.1514 19.7952C16.1787 20.0411 16.1369 20.2896 16.0307 20.513C15.9298 20.7195 15.8423 20.9322 15.7687 21.1499C15.6857 21.3837 15.5391 21.5898 15.3453 21.7448C15.1515 21.8998 14.9183 21.9976 14.6719 22.0271L13.7789 22.1385L13.7547 23.6945L14.6719 23.8341C14.9176 23.8641 15.1501 23.962 15.3434 24.1167C15.5366 24.2714 15.683 24.4769 15.7661 24.7101C15.84 24.928 15.9275 25.1412 16.0281 25.3482C16.1341 25.5715 16.1758 25.8199 16.1486 26.0655C16.1214 26.3112 16.0264 26.5444 15.8742 26.7391L15.3232 27.4513L16.4055 28.5651L17.1517 28.016C17.3885 27.8329 17.6793 27.7336 17.9786 27.7337Z" fill="url(#paint9_linear_619_1020)"/>
<path d="M20.9681 26.8621C20.1907 26.8621 19.4306 26.6316 18.7842 26.1996C18.1377 25.7677 17.6339 25.1537 17.3363 24.4354C17.0388 23.7171 16.961 22.9267 17.1126 22.1642C17.2643 21.4016 17.6387 20.7012 18.1885 20.1514C18.7382 19.6017 19.4387 19.2273 20.2012 19.0756C20.9638 18.9239 21.7542 19.0018 22.4725 19.2993C23.1908 19.5968 23.8047 20.1007 24.2367 20.7471C24.6686 21.3936 24.8992 22.1536 24.8992 22.9311C24.8981 23.9733 24.4836 24.9726 23.7466 25.7096C23.0097 26.4466 22.0104 26.8611 20.9681 26.8621ZM20.9681 20.3104C20.4498 20.3104 19.9431 20.4641 19.5122 20.7521C19.0812 21.04 18.7453 21.4493 18.5469 21.9282C18.3486 22.4071 18.2967 22.934 18.3978 23.4424C18.4989 23.9507 18.7485 24.4177 19.115 24.7842C19.4815 25.1507 19.9485 25.4003 20.4569 25.5014C20.9652 25.6025 21.4922 25.5506 21.971 25.3523C22.4499 25.1539 22.8592 24.818 23.1472 24.3871C23.4351 23.9561 23.5888 23.4494 23.5888 22.9311C23.5888 22.236 23.3127 21.5695 22.8212 21.078C22.3298 20.5865 21.6632 20.3104 20.9681 20.3104Z" fill="black"/>
<path d="M20.9681 26.8621C20.1907 26.8621 19.4306 26.6316 18.7842 26.1996C18.1377 25.7677 17.6339 25.1537 17.3363 24.4354C17.0388 23.7171 16.961 22.9267 17.1126 22.1642C17.2643 21.4016 17.6387 20.7012 18.1885 20.1514C18.7382 19.6017 19.4387 19.2273 20.2012 19.0756C20.9638 18.9239 21.7542 19.0018 22.4725 19.2993C23.1908 19.5968 23.8047 20.1007 24.2367 20.7471C24.6686 21.3936 24.8992 22.1536 24.8992 22.9311C24.8981 23.9733 24.4836 24.9726 23.7466 25.7096C23.0097 26.4466 22.0104 26.8611 20.9681 26.8621ZM20.9681 20.3104C20.4498 20.3104 19.9431 20.4641 19.5122 20.7521C19.0812 21.04 18.7453 21.4493 18.5469 21.9282C18.3486 22.4071 18.2967 22.934 18.3978 23.4424C18.4989 23.9507 18.7485 24.4177 19.115 24.7842C19.4815 25.1507 19.9485 25.4003 20.4569 25.5014C20.9652 25.6025 21.4922 25.5506 21.971 25.3523C22.4499 25.1539 22.8592 24.818 23.1472 24.3871C23.4351 23.9561 23.5888 23.4494 23.5888 22.9311C23.5888 22.236 23.3127 21.5695 22.8212 21.078C22.3298 20.5865 21.6632 20.3104 20.9681 20.3104Z" fill="url(#paint10_linear_619_1020)"/>
<defs>
<linearGradient id="paint0_linear_619_1020" x1="2.09295" y1="21.7211" x2="8.46068" y2="21.7323" gradientUnits="userSpaceOnUse">
<stop stop-color="#4E54C8"/>
<stop offset="1" stop-color="#8F94FB"/>
</linearGradient>
<linearGradient id="paint1_linear_619_1020" x1="0.208094" y1="28.2393" x2="10.3963" y2="28.2821" gradientUnits="userSpaceOnUse">
<stop stop-color="#4E54C8"/>
<stop offset="1" stop-color="#8F94FB"/>
</linearGradient>
<linearGradient id="paint2_linear_619_1020" x1="33.5451" y1="21.7211" x2="39.9128" y2="21.7323" gradientUnits="userSpaceOnUse">
<stop stop-color="#4E54C8"/>
<stop offset="1" stop-color="#8F94FB"/>
</linearGradient>
<linearGradient id="paint3_linear_619_1020" x1="31.6524" y1="28.2393" x2="41.8406" y2="28.2821" gradientUnits="userSpaceOnUse">
<stop stop-color="#4E54C8"/>
<stop offset="1" stop-color="#8F94FB"/>
</linearGradient>
<linearGradient id="paint4_linear_619_1020" x1="17.8185" y1="4.03182" x2="24.1863" y2="4.04297" gradientUnits="userSpaceOnUse">
<stop stop-color="#4E54C8"/>
<stop offset="1" stop-color="#8F94FB"/>
</linearGradient>
<linearGradient id="paint5_linear_619_1020" x1="15.9347" y1="10.5499" x2="26.1229" y2="10.5928" gradientUnits="userSpaceOnUse">
<stop stop-color="#4E54C8"/>
<stop offset="1" stop-color="#8F94FB"/>
</linearGradient>
<linearGradient id="paint6_linear_619_1020" x1="9.63064" y1="35.104" x2="32.5685" y2="35.2954" gradientUnits="userSpaceOnUse">
<stop stop-color="#4E54C8"/>
<stop offset="1" stop-color="#8F94FB"/>
</linearGradient>
<linearGradient id="paint7_linear_619_1020" x1="25.7479" y1="11.7219" x2="36.3571" y2="11.7442" gradientUnits="userSpaceOnUse">
<stop stop-color="#4E54C8"/>
<stop offset="1" stop-color="#8F94FB"/>
</linearGradient>
<linearGradient id="paint8_linear_619_1020" x1="5.70106" y1="11.7219" x2="16.3102" y2="11.7442" gradientUnits="userSpaceOnUse">
<stop stop-color="#4E54C8"/>
<stop offset="1" stop-color="#8F94FB"/>
</linearGradient>
<linearGradient id="paint9_linear_619_1020" x1="12.7825" y1="23.149" x2="29.3386" y2="23.1838" gradientUnits="userSpaceOnUse">
<stop stop-color="#4E54C8"/>
<stop offset="1" stop-color="#8F94FB"/>
</linearGradient>
<linearGradient id="paint10_linear_619_1020" x1="17.1932" y1="23.0319" x2="24.8344" y2="23.0479" gradientUnits="userSpaceOnUse">
<stop stop-color="#4E54C8"/>
<stop offset="1" stop-color="#8F94FB"/>
</linearGradient>
</defs>
</svg>
