<svg width="36" height="46" viewBox="0 0 36 46" fill="none" xmlns="http://www.w3.org/2000/svg">
<path d="M33.6154 46H1.76923C0.792615 46 0 45.2074 0 44.2308C0 43.2542 0.792615 42.4615 1.76923 42.4615H33.6154C34.592 42.4615 35.3846 43.2542 35.3846 44.2308C35.3846 45.2074 34.592 46 33.6154 46Z" fill="#CBD5E1"/>
<path d="M30.0765 37.1538C29.0999 37.1538 28.3082 36.363 28.3073 35.3872C28.3002 30.5404 23.3995 27.7468 18.8057 25.5096C18.1953 25.2124 17.5469 24.9099 16.8763 24.5985C11.2519 21.9774 3.54959 18.3876 3.53809 10.618C3.5372 9.6414 4.32805 8.8479 5.30466 8.84613H5.30732C6.28305 8.84613 7.07566 9.63698 7.07655 10.6127C7.08451 16.1309 13.0813 18.9246 18.3713 21.3909C19.0604 21.712 19.7274 22.0234 20.3555 22.3294C24.3681 24.2836 31.836 27.9202 31.8467 35.3828C31.8475 36.3594 31.0567 37.1529 30.0801 37.1547C30.0783 37.1538 30.0774 37.1538 30.0765 37.1538Z" fill="#CBD5E1"/>
<path d="M5.30732 37.1538C5.30643 37.1538 5.30555 37.1538 5.30467 37.1538C4.32805 37.1521 3.53632 36.3594 3.53809 35.3819C3.54959 27.6124 11.2519 24.0226 16.8763 21.4015C17.5469 21.0892 18.1953 20.7876 18.8057 20.4903C23.3995 18.2531 28.3002 15.4604 28.3073 10.6127C28.3082 9.63698 29.1008 8.84613 30.0765 8.84613H30.0792C31.0558 8.8479 31.8475 9.64052 31.8458 10.618C31.8352 18.0806 24.3672 21.7173 20.3546 23.6714C19.7265 23.9775 19.0604 24.288 18.3704 24.61C13.0813 27.0745 7.08451 29.869 7.07655 35.3872C7.07567 36.363 6.28305 37.1538 5.30732 37.1538Z" fill="#CBD5E1"/>
<path d="M30.0798 46.0002C29.1032 46.0002 28.3105 45.2075 28.3105 44.2309V35.3848C28.3105 34.4082 29.1032 33.6155 30.0798 33.6155C31.0564 33.6155 31.849 34.4082 31.849 35.3848V44.2309C31.849 45.2075 31.0564 46.0002 30.0798 46.0002Z" fill="#CBD5E1"/>
<path d="M5.30732 46.0002C4.3307 46.0002 3.53809 45.2075 3.53809 44.2309V35.3848C3.53809 34.4082 4.3307 33.6155 5.30732 33.6155C6.28393 33.6155 7.07655 34.4082 7.07655 35.3848V44.2309C7.07655 45.2075 6.28393 46.0002 5.30732 46.0002Z" fill="#CBD5E1"/>
<path d="M30.0798 12.3846C29.1032 12.3846 28.3105 11.592 28.3105 10.6154V1.76923C28.3105 0.792615 29.1032 0 30.0798 0C31.0564 0 31.849 0.792615 31.849 1.76923V10.6154C31.849 11.592 31.0564 12.3846 30.0798 12.3846Z" fill="#CBD5E1"/>
<path d="M5.30732 12.3846C4.3307 12.3846 3.53809 11.592 3.53809 10.6154V1.76923C3.53809 0.792615 4.3307 0 5.30732 0C6.28393 0 7.07655 0.792615 7.07655 1.76923V10.6154C7.07655 11.592 6.28393 12.3846 5.30732 12.3846Z" fill="#CBD5E1"/>
<path d="M33.6154 3.53846H1.76923C0.792615 3.53846 0 2.74585 0 1.76923C0 0.792615 0.792615 0 1.76923 0H33.6154C34.592 0 35.3846 0.792615 35.3846 1.76923C35.3846 2.74585 34.592 3.53846 33.6154 3.53846Z" fill="#CBD5E1"/>
</svg>
