<svg width="32" height="32" viewBox="0 0 32 32" fill="none" xmlns="http://www.w3.org/2000/svg">
<path d="M15.9816 13.3342C16.9309 13.3342 17.8589 13.0527 18.6483 12.5253C19.4376 11.9979 20.0528 11.2482 20.4161 10.3712C20.7794 9.49408 20.8745 8.52898 20.6893 7.59788C20.5041 6.66679 20.0469 5.81152 19.3756 5.14024C18.7043 4.46896 17.8491 4.01181 16.918 3.82661C15.9869 3.6414 15.0218 3.73645 14.1447 4.09975C13.2676 4.46304 12.518 5.07826 11.9906 5.86761C11.4632 6.65695 11.1816 7.58497 11.1816 8.5343C11.1831 9.80689 11.6892 11.0269 12.5891 11.9268C13.4889 12.8267 14.709 13.3328 15.9816 13.3342ZM15.9816 4.80103C16.7199 4.80103 17.4417 5.01998 18.0557 5.4302C18.6696 5.84041 19.1481 6.42347 19.4307 7.10564C19.7132 7.78781 19.7872 8.53844 19.6431 9.26263C19.4991 9.98681 19.1435 10.652 18.6214 11.1741C18.0993 11.6962 17.4341 12.0518 16.7099 12.1958C15.9857 12.3399 15.2351 12.266 14.5529 11.9834C13.8707 11.7008 13.2877 11.2223 12.8775 10.6084C12.4672 9.99446 12.2483 9.27267 12.2483 8.5343C12.2494 7.54452 12.6431 6.5956 13.343 5.89572C14.0429 5.19584 14.9918 4.80216 15.9816 4.80103Z" fill="black"/>
<path d="M15.9816 13.3342C16.9309 13.3342 17.8589 13.0527 18.6483 12.5253C19.4376 11.9979 20.0528 11.2482 20.4161 10.3712C20.7794 9.49408 20.8745 8.52898 20.6893 7.59788C20.5041 6.66679 20.0469 5.81152 19.3756 5.14024C18.7043 4.46896 17.8491 4.01181 16.918 3.82661C15.9869 3.6414 15.0218 3.73645 14.1447 4.09975C13.2676 4.46304 12.518 5.07826 11.9906 5.86761C11.4632 6.65695 11.1816 7.58497 11.1816 8.5343C11.1831 9.80689 11.6892 11.0269 12.5891 11.9268C13.4889 12.8267 14.709 13.3328 15.9816 13.3342ZM15.9816 4.80103C16.7199 4.80103 17.4417 5.01998 18.0557 5.4302C18.6696 5.84041 19.1481 6.42347 19.4307 7.10564C19.7132 7.78781 19.7872 8.53844 19.6431 9.26263C19.4991 9.98681 19.1435 10.652 18.6214 11.1741C18.0993 11.6962 17.4341 12.0518 16.7099 12.1958C15.9857 12.3399 15.2351 12.266 14.5529 11.9834C13.8707 11.7008 13.2877 11.2223 12.8775 10.6084C12.4672 9.99446 12.2483 9.27267 12.2483 8.5343C12.2494 7.54452 12.6431 6.5956 13.343 5.89572C14.0429 5.19584 14.9918 4.80216 15.9816 4.80103Z" fill="url(#paint0_linear_551_908)"/>
<path d="M15.9816 13.3342C16.9309 13.3342 17.8589 13.0527 18.6483 12.5253C19.4376 11.9979 20.0528 11.2482 20.4161 10.3712C20.7794 9.49408 20.8745 8.52898 20.6893 7.59788C20.5041 6.66679 20.0469 5.81152 19.3756 5.14024C18.7043 4.46896 17.8491 4.01181 16.918 3.82661C15.9869 3.6414 15.0218 3.73645 14.1447 4.09975C13.2676 4.46304 12.518 5.07826 11.9906 5.86761C11.4632 6.65695 11.1816 7.58497 11.1816 8.5343C11.1831 9.80689 11.6892 11.0269 12.5891 11.9268C13.4889 12.8267 14.709 13.3328 15.9816 13.3342ZM15.9816 4.80103C16.7199 4.80103 17.4417 5.01998 18.0557 5.4302C18.6696 5.84041 19.1481 6.42347 19.4307 7.10564C19.7132 7.78781 19.7872 8.53844 19.6431 9.26263C19.4991 9.98681 19.1435 10.652 18.6214 11.1741C18.0993 11.6962 17.4341 12.0518 16.7099 12.1958C15.9857 12.3399 15.2351 12.266 14.5529 11.9834C13.8707 11.7008 13.2877 11.2223 12.8775 10.6084C12.4672 9.99446 12.2483 9.27267 12.2483 8.5343C12.2494 7.54452 12.6431 6.5956 13.343 5.89572C14.0429 5.19584 14.9918 4.80216 15.9816 4.80103Z" fill="url(#paint1_linear_551_908)"/>
<path d="M16.0001 11.2007C16.5275 11.2007 17.0431 11.0443 17.4816 10.7513C17.9201 10.4583 18.2619 10.0418 18.4638 9.55453C18.6656 9.06727 18.7184 8.5311 18.6155 8.01383C18.5126 7.49655 18.2586 7.0214 17.8857 6.64847C17.5128 6.27554 17.0376 6.02156 16.5204 5.91867C16.0031 5.81578 15.4669 5.86859 14.9796 6.07042C14.4924 6.27225 14.0759 6.61404 13.7829 7.05256C13.4899 7.49108 13.3335 8.00665 13.3335 8.53406C13.3343 9.24103 13.6156 9.91881 14.1155 10.4187C14.6154 10.9186 15.2931 11.1998 16.0001 11.2007ZM16.0001 6.93408C16.3166 6.93408 16.6259 7.02792 16.889 7.20373C17.1521 7.37953 17.3572 7.62942 17.4783 7.92177C17.5994 8.21413 17.6311 8.53583 17.5694 8.8462C17.5076 9.15656 17.3552 9.44165 17.1315 9.66541C16.9077 9.88917 16.6226 10.0416 16.3123 10.1033C16.0019 10.165 15.6802 10.1333 15.3878 10.0122C15.0955 9.89114 14.8456 9.68607 14.6698 9.42296C14.494 9.15984 14.4001 8.8505 14.4001 8.53406C14.4001 8.10972 14.5687 7.70276 14.8688 7.4027C15.1688 7.10265 15.5758 6.93408 16.0001 6.93408Z" fill="black"/>
<path d="M16.0001 11.2007C16.5275 11.2007 17.0431 11.0443 17.4816 10.7513C17.9201 10.4583 18.2619 10.0418 18.4638 9.55453C18.6656 9.06727 18.7184 8.5311 18.6155 8.01383C18.5126 7.49655 18.2586 7.0214 17.8857 6.64847C17.5128 6.27554 17.0376 6.02156 16.5204 5.91867C16.0031 5.81578 15.4669 5.86859 14.9796 6.07042C14.4924 6.27225 14.0759 6.61404 13.7829 7.05256C13.4899 7.49108 13.3335 8.00665 13.3335 8.53406C13.3343 9.24103 13.6156 9.91881 14.1155 10.4187C14.6154 10.9186 15.2931 11.1998 16.0001 11.2007ZM16.0001 6.93408C16.3166 6.93408 16.6259 7.02792 16.889 7.20373C17.1521 7.37953 17.3572 7.62942 17.4783 7.92177C17.5994 8.21413 17.6311 8.53583 17.5694 8.8462C17.5076 9.15656 17.3552 9.44165 17.1315 9.66541C16.9077 9.88917 16.6226 10.0416 16.3123 10.1033C16.0019 10.165 15.6802 10.1333 15.3878 10.0122C15.0955 9.89114 14.8456 9.68607 14.6698 9.42296C14.494 9.15984 14.4001 8.8505 14.4001 8.53406C14.4001 8.10972 14.5687 7.70276 14.8688 7.4027C15.1688 7.10265 15.5758 6.93408 16.0001 6.93408Z" fill="url(#paint2_linear_551_908)"/>
<path d="M16.0001 11.2007C16.5275 11.2007 17.0431 11.0443 17.4816 10.7513C17.9201 10.4583 18.2619 10.0418 18.4638 9.55453C18.6656 9.06727 18.7184 8.5311 18.6155 8.01383C18.5126 7.49655 18.2586 7.0214 17.8857 6.64847C17.5128 6.27554 17.0376 6.02156 16.5204 5.91867C16.0031 5.81578 15.4669 5.86859 14.9796 6.07042C14.4924 6.27225 14.0759 6.61404 13.7829 7.05256C13.4899 7.49108 13.3335 8.00665 13.3335 8.53406C13.3343 9.24103 13.6156 9.91881 14.1155 10.4187C14.6154 10.9186 15.2931 11.1998 16.0001 11.2007ZM16.0001 6.93408C16.3166 6.93408 16.6259 7.02792 16.889 7.20373C17.1521 7.37953 17.3572 7.62942 17.4783 7.92177C17.5994 8.21413 17.6311 8.53583 17.5694 8.8462C17.5076 9.15656 17.3552 9.44165 17.1315 9.66541C16.9077 9.88917 16.6226 10.0416 16.3123 10.1033C16.0019 10.165 15.6802 10.1333 15.3878 10.0122C15.0955 9.89114 14.8456 9.68607 14.6698 9.42296C14.494 9.15984 14.4001 8.8505 14.4001 8.53406C14.4001 8.10972 14.5687 7.70276 14.8688 7.4027C15.1688 7.10265 15.5758 6.93408 16.0001 6.93408Z" fill="url(#paint3_linear_551_908)"/>
<path d="M32 20.2672C31.9993 20.0455 31.9294 19.8295 31.7999 19.6496C31.6704 19.4696 31.4879 19.3346 31.2778 19.2635L25.8822 17.3339L31.2784 15.4038C31.4886 15.3333 31.6714 15.1985 31.8009 15.0185C31.9303 14.8385 32 14.6224 32 14.4006C32 14.1789 31.9303 13.9628 31.8009 13.7828C31.6714 13.6028 31.4886 13.468 31.2784 13.3975L22.9052 10.4002C22.9196 10.3468 22.9377 10.2935 22.9505 10.2402L23.9356 9.93885C24.0893 9.8928 24.2258 9.80173 24.3273 9.67739C24.4289 9.55305 24.4908 9.40114 24.5052 9.24126C24.5265 9.00819 24.5366 8.77193 24.5366 8.53407C24.5366 8.2962 24.5265 8.05994 24.5052 7.82688C24.4907 7.66688 24.4287 7.51487 24.3271 7.39045C24.2255 7.26602 24.0889 7.17487 23.935 7.12876L22.9473 6.82743C22.7753 6.1226 22.4956 5.44855 22.118 4.82906L22.6017 3.92241C22.6784 3.78094 22.7109 3.61971 22.6949 3.45958C22.6789 3.29946 22.6152 3.14782 22.5121 3.02429C22.3621 2.84473 22.2021 2.67087 22.0321 2.50269C21.8622 2.33452 21.6881 2.17452 21.51 2.0227C21.3866 1.92004 21.2352 1.85665 21.0755 1.84069C20.9157 1.82472 20.7548 1.85691 20.6135 1.9331L19.7026 2.41736C19.0839 2.03973 18.4108 1.75948 17.7069 1.58644L17.4061 0.601391C17.3594 0.44778 17.268 0.311561 17.1436 0.210112C17.0191 0.108664 16.8673 0.0465863 16.7074 0.0318001C16.2369 -0.0106 15.7635 -0.0106 15.293 0.0318001C15.1331 0.0464483 14.9812 0.108548 14.8568 0.210131C14.7324 0.311715 14.6412 0.448148 14.5949 0.601925L14.2936 1.58644C13.589 1.75894 12.9152 2.03883 12.2957 2.4163L11.3859 1.93257C11.2442 1.85619 11.0829 1.82396 10.9228 1.84002C10.7626 1.85609 10.6109 1.91971 10.4872 2.0227C10.308 2.17203 10.1342 2.33203 9.96618 2.50269C9.79819 2.67336 9.63766 2.84456 9.48619 3.02375C9.38301 3.14712 9.31921 3.29861 9.30304 3.45863C9.28688 3.61864 9.3191 3.77983 9.39553 3.92134L9.87979 4.83173C9.50372 5.45073 9.22492 6.12381 9.05313 6.82743L8.06808 7.12876C7.9143 7.1748 7.77784 7.26587 7.67632 7.39021C7.57479 7.51455 7.51285 7.66646 7.49849 7.82635C7.47716 8.05941 7.46702 8.29567 7.46702 8.53353C7.46702 8.7714 7.47716 9.00766 7.49849 9.23966C7.51279 9.39982 7.57475 9.55203 7.67637 9.67665C7.77799 9.80127 7.91461 9.8926 8.06861 9.93885L9.05313 10.2396C9.06593 10.293 9.08406 10.3463 9.09846 10.3996L0.722063 13.3975C0.511835 13.468 0.329074 13.6028 0.199591 13.7828C0.0701072 13.9628 0.000446273 14.1789 0.000446273 14.4006C0.000446273 14.6224 0.0701072 14.8385 0.199591 15.0185C0.329074 15.1985 0.511835 15.3333 0.722063 15.4038L6.11824 17.3339L0.722063 19.2635C0.51171 19.334 0.328835 19.4689 0.19927 19.649C0.0697054 19.8291 0 20.0454 0 20.2672C0 20.4891 0.0697054 20.7053 0.19927 20.8854C0.328835 21.0655 0.51171 21.2004 0.722063 21.2709L5.37212 22.9338L0.722063 24.5973C0.51171 24.6678 0.328835 24.8027 0.19927 24.9828C0.0697054 25.1629 0 25.3791 0 25.601C0 25.8229 0.0697054 26.0391 0.19927 26.2192C0.328835 26.3993 0.51171 26.5342 0.722063 26.6047L15.6168 31.9332C15.864 32.0228 16.1348 32.0228 16.3821 31.9332L31.2778 26.6047C31.4882 26.5342 31.6711 26.3993 31.8006 26.2192C31.9302 26.0391 31.9999 25.8229 31.9999 25.601C31.9999 25.3791 31.9302 25.1629 31.8006 24.9828C31.6711 24.8027 31.4882 24.6678 31.2778 24.5973L26.6289 22.9338L31.2784 21.2709C31.4883 21.1998 31.6707 21.0647 31.8001 20.8848C31.9295 20.7048 31.9994 20.4889 32 20.2672ZM8.54701 8.96979C8.53794 8.8258 8.53367 8.6802 8.53367 8.53407C8.53367 8.38794 8.53794 8.24287 8.54701 8.09834L9.66166 7.75755C9.75404 7.72946 9.83706 7.67683 9.90187 7.60526C9.96668 7.53368 10.0108 7.44586 10.0296 7.35115C10.1846 6.56439 10.495 5.81646 10.9427 5.15119C10.9965 5.07096 11.0275 4.97763 11.0324 4.88116C11.0372 4.7847 11.0158 4.68871 10.9704 4.60346L10.4216 3.57414C10.5176 3.46748 10.6168 3.36081 10.7208 3.25682C10.8248 3.15282 10.9299 3.05309 11.0408 2.95762L12.0728 3.50641C12.1581 3.55174 12.2541 3.57306 12.3506 3.56808C12.4471 3.5631 12.5404 3.53202 12.6205 3.47815C13.2845 3.02964 14.0311 2.71781 14.8168 2.56083C14.9114 2.54211 14.9991 2.49811 15.0707 2.4335C15.1422 2.36888 15.1949 2.28608 15.2232 2.1939L15.5645 1.07872C15.8547 1.06058 16.1457 1.06058 16.4359 1.07872L16.7773 2.1939C16.8055 2.28608 16.8582 2.36888 16.9298 2.4335C17.0014 2.49811 17.0891 2.54211 17.1837 2.56083C17.9701 2.7158 18.7177 3.02622 19.3826 3.47388C19.4627 3.52775 19.5561 3.55884 19.6525 3.56381C19.749 3.56879 19.845 3.54748 19.9303 3.50215L20.9601 2.95549C21.0668 3.05095 21.1735 3.15122 21.2775 3.25468C21.3815 3.35815 21.4807 3.46375 21.5767 3.57201L21.03 4.60346C20.9845 4.68878 20.963 4.78486 20.9679 4.88143C20.9728 4.97801 21.0039 5.07143 21.0577 5.15172C21.5065 5.81649 21.8179 6.5643 21.9735 7.35115C21.9923 7.44586 22.0364 7.53368 22.1012 7.60526C22.1661 7.67683 22.2491 7.72946 22.3415 7.75755L23.4561 8.09834C23.4652 8.24234 23.4694 8.38794 23.4694 8.53407C23.4694 8.6802 23.4652 8.82526 23.4561 8.96979L22.3415 9.31059C22.2491 9.33867 22.1661 9.39131 22.1012 9.46288C22.0364 9.53445 21.9923 9.62228 21.9735 9.71698C21.8185 10.5037 21.5081 11.2517 21.0604 11.9169C21.0066 11.9972 20.9756 12.0905 20.9707 12.187C20.9659 12.2834 20.9873 12.3794 21.0327 12.4647L21.5788 13.494C21.4828 13.6007 21.3836 13.7073 21.2796 13.814C21.1756 13.9207 21.0705 14.0177 20.9623 14.1132L19.9303 13.5644C19.845 13.5191 19.749 13.4977 19.6525 13.5027C19.5561 13.5077 19.4627 13.5388 19.3826 13.5927C18.7178 14.0409 17.9702 14.3518 17.1837 14.5073C17.0891 14.526 17.0014 14.57 16.9298 14.6346C16.8582 14.6993 16.8055 14.7821 16.7773 14.8742L16.4359 15.9894C16.1457 16.0076 15.8547 16.0076 15.5645 15.9894L15.2232 14.8742C15.1949 14.7821 15.1422 14.6993 15.0707 14.6346C14.9991 14.57 14.9114 14.526 14.8168 14.5073C14.0301 14.3523 13.2823 14.0417 12.6173 13.5937C12.5371 13.5399 12.4438 13.5089 12.3473 13.5041C12.2509 13.4992 12.1549 13.5206 12.0696 13.566L11.0403 14.1121C10.9336 14.0172 10.827 13.9169 10.7203 13.8135C10.6136 13.71 10.5171 13.6044 10.4211 13.4935L10.9699 12.462C11.0154 12.3767 11.0369 12.2806 11.032 12.184C11.0271 12.0875 10.9961 11.994 10.9422 11.9137C10.4943 11.2488 10.1839 10.501 10.0291 9.71432C10.0103 9.61961 9.96615 9.53179 9.90134 9.46021C9.83653 9.38864 9.7535 9.33601 9.66112 9.30792L8.54701 8.96979ZM9.45366 11.406C9.57858 11.6926 9.72218 11.9707 9.88352 12.2385L9.39979 13.1452C9.3231 13.2867 9.29064 13.4479 9.30662 13.608C9.32259 13.7681 9.38626 13.9198 9.48939 14.0433C9.63943 14.2229 9.79943 14.3967 9.96938 14.5649C10.1393 14.7331 10.3134 14.8931 10.4915 15.0449C10.6151 15.1474 10.7664 15.2106 10.9261 15.2266C11.0858 15.2425 11.2466 15.2105 11.388 15.1345L12.2984 14.6502C12.917 15.0279 13.5899 15.3083 14.2936 15.4817L14.5944 16.4667C14.6409 16.6203 14.7321 16.7565 14.8565 16.8579C14.9809 16.9593 15.1327 17.0212 15.2925 17.0358C15.5256 17.0571 15.7618 17.0673 15.9997 17.0673C16.2376 17.0673 16.4738 17.0571 16.7069 17.0358C16.8668 17.0212 17.0188 16.9591 17.1432 16.8576C17.2676 16.756 17.3588 16.6195 17.405 16.4657L17.7058 15.4817C18.4104 15.3092 19.0842 15.0293 19.7036 14.6518L20.6135 15.1356C20.7551 15.2121 20.9164 15.2444 21.0766 15.2283C21.2368 15.2123 21.3885 15.1486 21.5121 15.0454C21.6913 14.8961 21.8652 14.7361 22.0332 14.5654C22.2012 14.3948 22.3617 14.2236 22.5132 14.0444C22.6164 13.921 22.6802 13.7695 22.6963 13.6095C22.7125 13.4495 22.6803 13.2883 22.6039 13.1468L22.1196 12.2364C22.2808 11.9686 22.4242 11.6905 22.5489 11.4039L30.9189 14.4006L15.9773 19.7275L1.08152 14.4006L9.45366 11.406ZM30.9189 25.6005L15.9773 30.9289L1.08152 25.6005L6.95503 23.4992L15.6173 26.5973C15.8645 26.6868 16.1354 26.6868 16.3826 26.5973L25.0454 23.5002L30.9189 25.6005ZM15.9773 25.5941L1.08152 20.2672L7.70169 17.9003L15.6173 20.7317C15.8645 20.8213 16.1354 20.8213 16.3826 20.7317L24.2988 17.9003L30.9189 20.2672L15.9773 25.5941Z" fill="black"/>
<path d="M32 20.2672C31.9993 20.0455 31.9294 19.8295 31.7999 19.6496C31.6704 19.4696 31.4879 19.3346 31.2778 19.2635L25.8822 17.3339L31.2784 15.4038C31.4886 15.3333 31.6714 15.1985 31.8009 15.0185C31.9303 14.8385 32 14.6224 32 14.4006C32 14.1789 31.9303 13.9628 31.8009 13.7828C31.6714 13.6028 31.4886 13.468 31.2784 13.3975L22.9052 10.4002C22.9196 10.3468 22.9377 10.2935 22.9505 10.2402L23.9356 9.93885C24.0893 9.8928 24.2258 9.80173 24.3273 9.67739C24.4289 9.55305 24.4908 9.40114 24.5052 9.24126C24.5265 9.00819 24.5366 8.77193 24.5366 8.53407C24.5366 8.2962 24.5265 8.05994 24.5052 7.82688C24.4907 7.66688 24.4287 7.51487 24.3271 7.39045C24.2255 7.26602 24.0889 7.17487 23.935 7.12876L22.9473 6.82743C22.7753 6.1226 22.4956 5.44855 22.118 4.82906L22.6017 3.92241C22.6784 3.78094 22.7109 3.61971 22.6949 3.45958C22.6789 3.29946 22.6152 3.14782 22.5121 3.02429C22.3621 2.84473 22.2021 2.67087 22.0321 2.50269C21.8622 2.33452 21.6881 2.17452 21.51 2.0227C21.3866 1.92004 21.2352 1.85665 21.0755 1.84069C20.9157 1.82472 20.7548 1.85691 20.6135 1.9331L19.7026 2.41736C19.0839 2.03973 18.4108 1.75948 17.7069 1.58644L17.4061 0.601391C17.3594 0.44778 17.268 0.311561 17.1436 0.210112C17.0191 0.108664 16.8673 0.0465863 16.7074 0.0318001C16.2369 -0.0106 15.7635 -0.0106 15.293 0.0318001C15.1331 0.0464483 14.9812 0.108548 14.8568 0.210131C14.7324 0.311715 14.6412 0.448148 14.5949 0.601925L14.2936 1.58644C13.589 1.75894 12.9152 2.03883 12.2957 2.4163L11.3859 1.93257C11.2442 1.85619 11.0829 1.82396 10.9228 1.84002C10.7626 1.85609 10.6109 1.91971 10.4872 2.0227C10.308 2.17203 10.1342 2.33203 9.96618 2.50269C9.79819 2.67336 9.63766 2.84456 9.48619 3.02375C9.38301 3.14712 9.31921 3.29861 9.30304 3.45863C9.28688 3.61864 9.3191 3.77983 9.39553 3.92134L9.87979 4.83173C9.50372 5.45073 9.22492 6.12381 9.05313 6.82743L8.06808 7.12876C7.9143 7.1748 7.77784 7.26587 7.67632 7.39021C7.57479 7.51455 7.51285 7.66646 7.49849 7.82635C7.47716 8.05941 7.46702 8.29567 7.46702 8.53353C7.46702 8.7714 7.47716 9.00766 7.49849 9.23966C7.51279 9.39982 7.57475 9.55203 7.67637 9.67665C7.77799 9.80127 7.91461 9.8926 8.06861 9.93885L9.05313 10.2396C9.06593 10.293 9.08406 10.3463 9.09846 10.3996L0.722063 13.3975C0.511835 13.468 0.329074 13.6028 0.199591 13.7828C0.0701072 13.9628 0.000446273 14.1789 0.000446273 14.4006C0.000446273 14.6224 0.0701072 14.8385 0.199591 15.0185C0.329074 15.1985 0.511835 15.3333 0.722063 15.4038L6.11824 17.3339L0.722063 19.2635C0.51171 19.334 0.328835 19.4689 0.19927 19.649C0.0697054 19.8291 0 20.0454 0 20.2672C0 20.4891 0.0697054 20.7053 0.19927 20.8854C0.328835 21.0655 0.51171 21.2004 0.722063 21.2709L5.37212 22.9338L0.722063 24.5973C0.51171 24.6678 0.328835 24.8027 0.19927 24.9828C0.0697054 25.1629 0 25.3791 0 25.601C0 25.8229 0.0697054 26.0391 0.19927 26.2192C0.328835 26.3993 0.51171 26.5342 0.722063 26.6047L15.6168 31.9332C15.864 32.0228 16.1348 32.0228 16.3821 31.9332L31.2778 26.6047C31.4882 26.5342 31.6711 26.3993 31.8006 26.2192C31.9302 26.0391 31.9999 25.8229 31.9999 25.601C31.9999 25.3791 31.9302 25.1629 31.8006 24.9828C31.6711 24.8027 31.4882 24.6678 31.2778 24.5973L26.6289 22.9338L31.2784 21.2709C31.4883 21.1998 31.6707 21.0647 31.8001 20.8848C31.9295 20.7048 31.9994 20.4889 32 20.2672ZM8.54701 8.96979C8.53794 8.8258 8.53367 8.6802 8.53367 8.53407C8.53367 8.38794 8.53794 8.24287 8.54701 8.09834L9.66166 7.75755C9.75404 7.72946 9.83706 7.67683 9.90187 7.60526C9.96668 7.53368 10.0108 7.44586 10.0296 7.35115C10.1846 6.56439 10.495 5.81646 10.9427 5.15119C10.9965 5.07096 11.0275 4.97763 11.0324 4.88116C11.0372 4.7847 11.0158 4.68871 10.9704 4.60346L10.4216 3.57414C10.5176 3.46748 10.6168 3.36081 10.7208 3.25682C10.8248 3.15282 10.9299 3.05309 11.0408 2.95762L12.0728 3.50641C12.1581 3.55174 12.2541 3.57306 12.3506 3.56808C12.4471 3.5631 12.5404 3.53202 12.6205 3.47815C13.2845 3.02964 14.0311 2.71781 14.8168 2.56083C14.9114 2.54211 14.9991 2.49811 15.0707 2.4335C15.1422 2.36888 15.1949 2.28608 15.2232 2.1939L15.5645 1.07872C15.8547 1.06058 16.1457 1.06058 16.4359 1.07872L16.7773 2.1939C16.8055 2.28608 16.8582 2.36888 16.9298 2.4335C17.0014 2.49811 17.0891 2.54211 17.1837 2.56083C17.9701 2.7158 18.7177 3.02622 19.3826 3.47388C19.4627 3.52775 19.5561 3.55884 19.6525 3.56381C19.749 3.56879 19.845 3.54748 19.9303 3.50215L20.9601 2.95549C21.0668 3.05095 21.1735 3.15122 21.2775 3.25468C21.3815 3.35815 21.4807 3.46375 21.5767 3.57201L21.03 4.60346C20.9845 4.68878 20.963 4.78486 20.9679 4.88143C20.9728 4.97801 21.0039 5.07143 21.0577 5.15172C21.5065 5.81649 21.8179 6.5643 21.9735 7.35115C21.9923 7.44586 22.0364 7.53368 22.1012 7.60526C22.1661 7.67683 22.2491 7.72946 22.3415 7.75755L23.4561 8.09834C23.4652 8.24234 23.4694 8.38794 23.4694 8.53407C23.4694 8.6802 23.4652 8.82526 23.4561 8.96979L22.3415 9.31059C22.2491 9.33867 22.1661 9.39131 22.1012 9.46288C22.0364 9.53445 21.9923 9.62228 21.9735 9.71698C21.8185 10.5037 21.5081 11.2517 21.0604 11.9169C21.0066 11.9972 20.9756 12.0905 20.9707 12.187C20.9659 12.2834 20.9873 12.3794 21.0327 12.4647L21.5788 13.494C21.4828 13.6007 21.3836 13.7073 21.2796 13.814C21.1756 13.9207 21.0705 14.0177 20.9623 14.1132L19.9303 13.5644C19.845 13.5191 19.749 13.4977 19.6525 13.5027C19.5561 13.5077 19.4627 13.5388 19.3826 13.5927C18.7178 14.0409 17.9702 14.3518 17.1837 14.5073C17.0891 14.526 17.0014 14.57 16.9298 14.6346C16.8582 14.6993 16.8055 14.7821 16.7773 14.8742L16.4359 15.9894C16.1457 16.0076 15.8547 16.0076 15.5645 15.9894L15.2232 14.8742C15.1949 14.7821 15.1422 14.6993 15.0707 14.6346C14.9991 14.57 14.9114 14.526 14.8168 14.5073C14.0301 14.3523 13.2823 14.0417 12.6173 13.5937C12.5371 13.5399 12.4438 13.5089 12.3473 13.5041C12.2509 13.4992 12.1549 13.5206 12.0696 13.566L11.0403 14.1121C10.9336 14.0172 10.827 13.9169 10.7203 13.8135C10.6136 13.71 10.5171 13.6044 10.4211 13.4935L10.9699 12.462C11.0154 12.3767 11.0369 12.2806 11.032 12.184C11.0271 12.0875 10.9961 11.994 10.9422 11.9137C10.4943 11.2488 10.1839 10.501 10.0291 9.71432C10.0103 9.61961 9.96615 9.53179 9.90134 9.46021C9.83653 9.38864 9.7535 9.33601 9.66112 9.30792L8.54701 8.96979ZM9.45366 11.406C9.57858 11.6926 9.72218 11.9707 9.88352 12.2385L9.39979 13.1452C9.3231 13.2867 9.29064 13.4479 9.30662 13.608C9.32259 13.7681 9.38626 13.9198 9.48939 14.0433C9.63943 14.2229 9.79943 14.3967 9.96938 14.5649C10.1393 14.7331 10.3134 14.8931 10.4915 15.0449C10.6151 15.1474 10.7664 15.2106 10.9261 15.2266C11.0858 15.2425 11.2466 15.2105 11.388 15.1345L12.2984 14.6502C12.917 15.0279 13.5899 15.3083 14.2936 15.4817L14.5944 16.4667C14.6409 16.6203 14.7321 16.7565 14.8565 16.8579C14.9809 16.9593 15.1327 17.0212 15.2925 17.0358C15.5256 17.0571 15.7618 17.0673 15.9997 17.0673C16.2376 17.0673 16.4738 17.0571 16.7069 17.0358C16.8668 17.0212 17.0188 16.9591 17.1432 16.8576C17.2676 16.756 17.3588 16.6195 17.405 16.4657L17.7058 15.4817C18.4104 15.3092 19.0842 15.0293 19.7036 14.6518L20.6135 15.1356C20.7551 15.2121 20.9164 15.2444 21.0766 15.2283C21.2368 15.2123 21.3885 15.1486 21.5121 15.0454C21.6913 14.8961 21.8652 14.7361 22.0332 14.5654C22.2012 14.3948 22.3617 14.2236 22.5132 14.0444C22.6164 13.921 22.6802 13.7695 22.6963 13.6095C22.7125 13.4495 22.6803 13.2883 22.6039 13.1468L22.1196 12.2364C22.2808 11.9686 22.4242 11.6905 22.5489 11.4039L30.9189 14.4006L15.9773 19.7275L1.08152 14.4006L9.45366 11.406ZM30.9189 25.6005L15.9773 30.9289L1.08152 25.6005L6.95503 23.4992L15.6173 26.5973C15.8645 26.6868 16.1354 26.6868 16.3826 26.5973L25.0454 23.5002L30.9189 25.6005ZM15.9773 25.5941L1.08152 20.2672L7.70169 17.9003L15.6173 20.7317C15.8645 20.8213 16.1354 20.8213 16.3826 20.7317L24.2988 17.9003L30.9189 20.2672L15.9773 25.5941Z" fill="url(#paint4_linear_551_908)"/>
<path d="M32 20.2672C31.9993 20.0455 31.9294 19.8295 31.7999 19.6496C31.6704 19.4696 31.4879 19.3346 31.2778 19.2635L25.8822 17.3339L31.2784 15.4038C31.4886 15.3333 31.6714 15.1985 31.8009 15.0185C31.9303 14.8385 32 14.6224 32 14.4006C32 14.1789 31.9303 13.9628 31.8009 13.7828C31.6714 13.6028 31.4886 13.468 31.2784 13.3975L22.9052 10.4002C22.9196 10.3468 22.9377 10.2935 22.9505 10.2402L23.9356 9.93885C24.0893 9.8928 24.2258 9.80173 24.3273 9.67739C24.4289 9.55305 24.4908 9.40114 24.5052 9.24126C24.5265 9.00819 24.5366 8.77193 24.5366 8.53407C24.5366 8.2962 24.5265 8.05994 24.5052 7.82688C24.4907 7.66688 24.4287 7.51487 24.3271 7.39045C24.2255 7.26602 24.0889 7.17487 23.935 7.12876L22.9473 6.82743C22.7753 6.1226 22.4956 5.44855 22.118 4.82906L22.6017 3.92241C22.6784 3.78094 22.7109 3.61971 22.6949 3.45958C22.6789 3.29946 22.6152 3.14782 22.5121 3.02429C22.3621 2.84473 22.2021 2.67087 22.0321 2.50269C21.8622 2.33452 21.6881 2.17452 21.51 2.0227C21.3866 1.92004 21.2352 1.85665 21.0755 1.84069C20.9157 1.82472 20.7548 1.85691 20.6135 1.9331L19.7026 2.41736C19.0839 2.03973 18.4108 1.75948 17.7069 1.58644L17.4061 0.601391C17.3594 0.44778 17.268 0.311561 17.1436 0.210112C17.0191 0.108664 16.8673 0.0465863 16.7074 0.0318001C16.2369 -0.0106 15.7635 -0.0106 15.293 0.0318001C15.1331 0.0464483 14.9812 0.108548 14.8568 0.210131C14.7324 0.311715 14.6412 0.448148 14.5949 0.601925L14.2936 1.58644C13.589 1.75894 12.9152 2.03883 12.2957 2.4163L11.3859 1.93257C11.2442 1.85619 11.0829 1.82396 10.9228 1.84002C10.7626 1.85609 10.6109 1.91971 10.4872 2.0227C10.308 2.17203 10.1342 2.33203 9.96618 2.50269C9.79819 2.67336 9.63766 2.84456 9.48619 3.02375C9.38301 3.14712 9.31921 3.29861 9.30304 3.45863C9.28688 3.61864 9.3191 3.77983 9.39553 3.92134L9.87979 4.83173C9.50372 5.45073 9.22492 6.12381 9.05313 6.82743L8.06808 7.12876C7.9143 7.1748 7.77784 7.26587 7.67632 7.39021C7.57479 7.51455 7.51285 7.66646 7.49849 7.82635C7.47716 8.05941 7.46702 8.29567 7.46702 8.53353C7.46702 8.7714 7.47716 9.00766 7.49849 9.23966C7.51279 9.39982 7.57475 9.55203 7.67637 9.67665C7.77799 9.80127 7.91461 9.8926 8.06861 9.93885L9.05313 10.2396C9.06593 10.293 9.08406 10.3463 9.09846 10.3996L0.722063 13.3975C0.511835 13.468 0.329074 13.6028 0.199591 13.7828C0.0701072 13.9628 0.000446273 14.1789 0.000446273 14.4006C0.000446273 14.6224 0.0701072 14.8385 0.199591 15.0185C0.329074 15.1985 0.511835 15.3333 0.722063 15.4038L6.11824 17.3339L0.722063 19.2635C0.51171 19.334 0.328835 19.4689 0.19927 19.649C0.0697054 19.8291 0 20.0454 0 20.2672C0 20.4891 0.0697054 20.7053 0.19927 20.8854C0.328835 21.0655 0.51171 21.2004 0.722063 21.2709L5.37212 22.9338L0.722063 24.5973C0.51171 24.6678 0.328835 24.8027 0.19927 24.9828C0.0697054 25.1629 0 25.3791 0 25.601C0 25.8229 0.0697054 26.0391 0.19927 26.2192C0.328835 26.3993 0.51171 26.5342 0.722063 26.6047L15.6168 31.9332C15.864 32.0228 16.1348 32.0228 16.3821 31.9332L31.2778 26.6047C31.4882 26.5342 31.6711 26.3993 31.8006 26.2192C31.9302 26.0391 31.9999 25.8229 31.9999 25.601C31.9999 25.3791 31.9302 25.1629 31.8006 24.9828C31.6711 24.8027 31.4882 24.6678 31.2778 24.5973L26.6289 22.9338L31.2784 21.2709C31.4883 21.1998 31.6707 21.0647 31.8001 20.8848C31.9295 20.7048 31.9994 20.4889 32 20.2672ZM8.54701 8.96979C8.53794 8.8258 8.53367 8.6802 8.53367 8.53407C8.53367 8.38794 8.53794 8.24287 8.54701 8.09834L9.66166 7.75755C9.75404 7.72946 9.83706 7.67683 9.90187 7.60526C9.96668 7.53368 10.0108 7.44586 10.0296 7.35115C10.1846 6.56439 10.495 5.81646 10.9427 5.15119C10.9965 5.07096 11.0275 4.97763 11.0324 4.88116C11.0372 4.7847 11.0158 4.68871 10.9704 4.60346L10.4216 3.57414C10.5176 3.46748 10.6168 3.36081 10.7208 3.25682C10.8248 3.15282 10.9299 3.05309 11.0408 2.95762L12.0728 3.50641C12.1581 3.55174 12.2541 3.57306 12.3506 3.56808C12.4471 3.5631 12.5404 3.53202 12.6205 3.47815C13.2845 3.02964 14.0311 2.71781 14.8168 2.56083C14.9114 2.54211 14.9991 2.49811 15.0707 2.4335C15.1422 2.36888 15.1949 2.28608 15.2232 2.1939L15.5645 1.07872C15.8547 1.06058 16.1457 1.06058 16.4359 1.07872L16.7773 2.1939C16.8055 2.28608 16.8582 2.36888 16.9298 2.4335C17.0014 2.49811 17.0891 2.54211 17.1837 2.56083C17.9701 2.7158 18.7177 3.02622 19.3826 3.47388C19.4627 3.52775 19.5561 3.55884 19.6525 3.56381C19.749 3.56879 19.845 3.54748 19.9303 3.50215L20.9601 2.95549C21.0668 3.05095 21.1735 3.15122 21.2775 3.25468C21.3815 3.35815 21.4807 3.46375 21.5767 3.57201L21.03 4.60346C20.9845 4.68878 20.963 4.78486 20.9679 4.88143C20.9728 4.97801 21.0039 5.07143 21.0577 5.15172C21.5065 5.81649 21.8179 6.5643 21.9735 7.35115C21.9923 7.44586 22.0364 7.53368 22.1012 7.60526C22.1661 7.67683 22.2491 7.72946 22.3415 7.75755L23.4561 8.09834C23.4652 8.24234 23.4694 8.38794 23.4694 8.53407C23.4694 8.6802 23.4652 8.82526 23.4561 8.96979L22.3415 9.31059C22.2491 9.33867 22.1661 9.39131 22.1012 9.46288C22.0364 9.53445 21.9923 9.62228 21.9735 9.71698C21.8185 10.5037 21.5081 11.2517 21.0604 11.9169C21.0066 11.9972 20.9756 12.0905 20.9707 12.187C20.9659 12.2834 20.9873 12.3794 21.0327 12.4647L21.5788 13.494C21.4828 13.6007 21.3836 13.7073 21.2796 13.814C21.1756 13.9207 21.0705 14.0177 20.9623 14.1132L19.9303 13.5644C19.845 13.5191 19.749 13.4977 19.6525 13.5027C19.5561 13.5077 19.4627 13.5388 19.3826 13.5927C18.7178 14.0409 17.9702 14.3518 17.1837 14.5073C17.0891 14.526 17.0014 14.57 16.9298 14.6346C16.8582 14.6993 16.8055 14.7821 16.7773 14.8742L16.4359 15.9894C16.1457 16.0076 15.8547 16.0076 15.5645 15.9894L15.2232 14.8742C15.1949 14.7821 15.1422 14.6993 15.0707 14.6346C14.9991 14.57 14.9114 14.526 14.8168 14.5073C14.0301 14.3523 13.2823 14.0417 12.6173 13.5937C12.5371 13.5399 12.4438 13.5089 12.3473 13.5041C12.2509 13.4992 12.1549 13.5206 12.0696 13.566L11.0403 14.1121C10.9336 14.0172 10.827 13.9169 10.7203 13.8135C10.6136 13.71 10.5171 13.6044 10.4211 13.4935L10.9699 12.462C11.0154 12.3767 11.0369 12.2806 11.032 12.184C11.0271 12.0875 10.9961 11.994 10.9422 11.9137C10.4943 11.2488 10.1839 10.501 10.0291 9.71432C10.0103 9.61961 9.96615 9.53179 9.90134 9.46021C9.83653 9.38864 9.7535 9.33601 9.66112 9.30792L8.54701 8.96979ZM9.45366 11.406C9.57858 11.6926 9.72218 11.9707 9.88352 12.2385L9.39979 13.1452C9.3231 13.2867 9.29064 13.4479 9.30662 13.608C9.32259 13.7681 9.38626 13.9198 9.48939 14.0433C9.63943 14.2229 9.79943 14.3967 9.96938 14.5649C10.1393 14.7331 10.3134 14.8931 10.4915 15.0449C10.6151 15.1474 10.7664 15.2106 10.9261 15.2266C11.0858 15.2425 11.2466 15.2105 11.388 15.1345L12.2984 14.6502C12.917 15.0279 13.5899 15.3083 14.2936 15.4817L14.5944 16.4667C14.6409 16.6203 14.7321 16.7565 14.8565 16.8579C14.9809 16.9593 15.1327 17.0212 15.2925 17.0358C15.5256 17.0571 15.7618 17.0673 15.9997 17.0673C16.2376 17.0673 16.4738 17.0571 16.7069 17.0358C16.8668 17.0212 17.0188 16.9591 17.1432 16.8576C17.2676 16.756 17.3588 16.6195 17.405 16.4657L17.7058 15.4817C18.4104 15.3092 19.0842 15.0293 19.7036 14.6518L20.6135 15.1356C20.7551 15.2121 20.9164 15.2444 21.0766 15.2283C21.2368 15.2123 21.3885 15.1486 21.5121 15.0454C21.6913 14.8961 21.8652 14.7361 22.0332 14.5654C22.2012 14.3948 22.3617 14.2236 22.5132 14.0444C22.6164 13.921 22.6802 13.7695 22.6963 13.6095C22.7125 13.4495 22.6803 13.2883 22.6039 13.1468L22.1196 12.2364C22.2808 11.9686 22.4242 11.6905 22.5489 11.4039L30.9189 14.4006L15.9773 19.7275L1.08152 14.4006L9.45366 11.406ZM30.9189 25.6005L15.9773 30.9289L1.08152 25.6005L6.95503 23.4992L15.6173 26.5973C15.8645 26.6868 16.1354 26.6868 16.3826 26.5973L25.0454 23.5002L30.9189 25.6005ZM15.9773 25.5941L1.08152 20.2672L7.70169 17.9003L15.6173 20.7317C15.8645 20.8213 16.1354 20.8213 16.3826 20.7317L24.2988 17.9003L30.9189 20.2672L15.9773 25.5941Z" fill="url(#paint5_linear_551_908)"/>
<path d="M14.5861 22.9646L8.6219 20.8313C8.49003 20.7886 8.34673 20.799 8.22235 20.8601C8.09797 20.9212 8.00227 21.0284 7.95554 21.1589C7.90881 21.2894 7.91472 21.4329 7.972 21.5591C8.02929 21.6854 8.13345 21.7843 8.26244 21.835L14.2266 23.9683C14.2842 23.9892 14.3451 23.9998 14.4063 23.9998C14.5318 23.9996 14.6533 23.9552 14.7492 23.8743C14.8452 23.7935 14.9096 23.6814 14.9311 23.5577C14.9525 23.4341 14.9297 23.3068 14.8666 23.1983C14.8035 23.0898 14.7042 23.0071 14.5861 22.9646Z" fill="black"/>
<path d="M14.5861 22.9646L8.6219 20.8313C8.49003 20.7886 8.34673 20.799 8.22235 20.8601C8.09797 20.9212 8.00227 21.0284 7.95554 21.1589C7.90881 21.2894 7.91472 21.4329 7.972 21.5591C8.02929 21.6854 8.13345 21.7843 8.26244 21.835L14.2266 23.9683C14.2842 23.9892 14.3451 23.9998 14.4063 23.9998C14.5318 23.9996 14.6533 23.9552 14.7492 23.8743C14.8452 23.7935 14.9096 23.6814 14.9311 23.5577C14.9525 23.4341 14.9297 23.3068 14.8666 23.1983C14.8035 23.0898 14.7042 23.0071 14.5861 22.9646Z" fill="url(#paint6_linear_551_908)"/>
<path d="M14.5861 22.9646L8.6219 20.8313C8.49003 20.7886 8.34673 20.799 8.22235 20.8601C8.09797 20.9212 8.00227 21.0284 7.95554 21.1589C7.90881 21.2894 7.91472 21.4329 7.972 21.5591C8.02929 21.6854 8.13345 21.7843 8.26244 21.835L14.2266 23.9683C14.2842 23.9892 14.3451 23.9998 14.4063 23.9998C14.5318 23.9996 14.6533 23.9552 14.7492 23.8743C14.8452 23.7935 14.9096 23.6814 14.9311 23.5577C14.9525 23.4341 14.9297 23.3068 14.8666 23.1983C14.8035 23.0898 14.7042 23.0071 14.5861 22.9646Z" fill="url(#paint7_linear_551_908)"/>
<path d="M14.5861 28.2981L8.6219 26.1648C8.49003 26.1222 8.34673 26.1325 8.22235 26.1936C8.09797 26.2548 8.00227 26.3619 7.95554 26.4924C7.90881 26.6229 7.91472 26.7665 7.972 26.8927C8.02929 27.0189 8.13345 27.1178 8.26244 27.1686L14.2266 29.3019C14.2842 29.3227 14.3451 29.3334 14.4063 29.3333C14.5318 29.3331 14.6533 29.2887 14.7492 29.2079C14.8452 29.127 14.9096 29.0149 14.9311 28.8912C14.9525 28.7676 14.9297 28.6403 14.8666 28.5318C14.8035 28.4234 14.7042 28.3406 14.5861 28.2981Z" fill="black"/>
<path d="M14.5861 28.2981L8.6219 26.1648C8.49003 26.1222 8.34673 26.1325 8.22235 26.1936C8.09797 26.2548 8.00227 26.3619 7.95554 26.4924C7.90881 26.6229 7.91472 26.7665 7.972 26.8927C8.02929 27.0189 8.13345 27.1178 8.26244 27.1686L14.2266 29.3019C14.2842 29.3227 14.3451 29.3334 14.4063 29.3333C14.5318 29.3331 14.6533 29.2887 14.7492 29.2079C14.8452 29.127 14.9096 29.0149 14.9311 28.8912C14.9525 28.7676 14.9297 28.6403 14.8666 28.5318C14.8035 28.4234 14.7042 28.3406 14.5861 28.2981Z" fill="url(#paint8_linear_551_908)"/>
<path d="M14.5861 28.2981L8.6219 26.1648C8.49003 26.1222 8.34673 26.1325 8.22235 26.1936C8.09797 26.2548 8.00227 26.3619 7.95554 26.4924C7.90881 26.6229 7.91472 26.7665 7.972 26.8927C8.02929 27.0189 8.13345 27.1178 8.26244 27.1686L14.2266 29.3019C14.2842 29.3227 14.3451 29.3334 14.4063 29.3333C14.5318 29.3331 14.6533 29.2887 14.7492 29.2079C14.8452 29.127 14.9096 29.0149 14.9311 28.8912C14.9525 28.7676 14.9297 28.6403 14.8666 28.5318C14.8035 28.4234 14.7042 28.3406 14.5861 28.2981Z" fill="url(#paint9_linear_551_908)"/>
<defs>
<linearGradient id="paint0_linear_551_908" x1="12.4416" y1="5.65435" x2="19.1015" y2="11.6543" gradientUnits="userSpaceOnUse">
<stop stop-color="#1E3C72"/>
<stop offset="1" stop-color="#2A5298"/>
</linearGradient>
<linearGradient id="paint1_linear_551_908" x1="11.3722" y1="8.65737" x2="20.7025" y2="8.67698" gradientUnits="userSpaceOnUse">
<stop stop-color="#4E54C8"/>
<stop offset="1" stop-color="#8F94FB"/>
</linearGradient>
<linearGradient id="paint2_linear_551_908" x1="14.0335" y1="6.93408" x2="17.7334" y2="10.2674" gradientUnits="userSpaceOnUse">
<stop stop-color="#1E3C72"/>
<stop offset="1" stop-color="#2A5298"/>
</linearGradient>
<linearGradient id="paint3_linear_551_908" x1="13.4394" y1="8.60243" x2="18.6228" y2="8.61332" gradientUnits="userSpaceOnUse">
<stop stop-color="#4E54C8"/>
<stop offset="1" stop-color="#8F94FB"/>
</linearGradient>
<linearGradient id="paint4_linear_551_908" x1="4.2" y1="6.40007" x2="26.4002" y2="26.4" gradientUnits="userSpaceOnUse">
<stop stop-color="#1E3C72"/>
<stop offset="1" stop-color="#2A5298"/>
</linearGradient>
<linearGradient id="paint5_linear_551_908" x1="0.635236" y1="16.4104" x2="31.7366" y2="16.4758" gradientUnits="userSpaceOnUse">
<stop stop-color="#4E54C8"/>
<stop offset="1" stop-color="#8F94FB"/>
</linearGradient>
<linearGradient id="paint6_linear_551_908" x1="8.84498" y1="21.4443" x2="10.6392" y2="24.9937" gradientUnits="userSpaceOnUse">
<stop stop-color="#1E3C72"/>
<stop offset="1" stop-color="#2A5298"/>
</linearGradient>
<linearGradient id="paint7_linear_551_908" x1="8.06356" y1="22.4435" x2="14.8811" y2="22.475" gradientUnits="userSpaceOnUse">
<stop stop-color="#4E54C8"/>
<stop offset="1" stop-color="#8F94FB"/>
</linearGradient>
<linearGradient id="paint8_linear_551_908" x1="8.84498" y1="26.7778" x2="10.6392" y2="30.3272" gradientUnits="userSpaceOnUse">
<stop stop-color="#1E3C72"/>
<stop offset="1" stop-color="#2A5298"/>
</linearGradient>
<linearGradient id="paint9_linear_551_908" x1="8.06356" y1="27.7771" x2="14.8811" y2="27.8085" gradientUnits="userSpaceOnUse">
<stop stop-color="#4E54C8"/>
<stop offset="1" stop-color="#8F94FB"/>
</linearGradient>
</defs>
</svg>
