<svg width="37" height="40" viewBox="0 0 37 40" fill="none" xmlns="http://www.w3.org/2000/svg">
<path d="M36.2159 21.8839C36.2143 17.0488 34.3309 12.5038 30.9121 9.08504C28.2511 6.42396 24.9075 4.69365 21.2762 4.05639V3.16827C21.2762 2.32132 20.9463 1.5257 20.3484 0.928746C19.7505 0.329842 18.9548 0 18.108 0C16.361 0 14.9397 1.42124 14.9397 3.16827V4.0585C14.1906 4.19076 13.4509 4.36944 12.7246 4.59553C11.3557 5.02068 10.0362 5.61154 8.80301 6.35162C8.43231 6.57412 8.31223 7.05489 8.53473 7.4256C8.75707 7.79622 9.23785 7.91645 9.60879 7.69395C10.7348 7.01818 11.9393 6.47872 13.1895 6.09045C14.7747 5.59709 16.4295 5.34693 18.1081 5.34693C22.5267 5.34693 26.6808 7.06755 29.8052 10.192C32.9297 13.3165 34.6505 17.4709 34.6505 21.8902C34.6505 21.8944 34.6505 21.8988 34.6506 21.9031C34.72 26.086 32.93 30.3179 29.7395 33.5138C26.556 36.7026 22.324 38.4976 18.1198 38.4327C18.1159 38.4327 18.112 38.4326 18.1081 38.4326C16.4842 38.4326 14.8921 38.1992 13.3577 37.7396C13.7818 37.3463 14.1621 36.9065 14.49 36.428C15.6683 36.7216 16.8825 36.8706 18.1081 36.8706C26.3684 36.8706 33.0888 30.1504 33.0888 21.89C33.0888 13.6292 26.3684 6.90857 18.1081 6.90857C9.8477 6.90857 3.12733 13.6292 3.12733 21.8901C3.12733 23.1894 3.29452 24.4755 3.62444 25.7219C3.15116 26.0567 2.71694 26.4431 2.32999 26.8729C1.82304 25.2691 1.56554 23.599 1.56554 21.8902C1.56554 18.3912 2.64382 15.0474 4.68397 12.2203C4.93693 11.8698 4.85779 11.3805 4.50725 11.1275C4.1567 10.8745 3.66741 10.9536 3.41444 11.3043C1.1807 14.3996 0 18.0602 0 21.8902C0 24.1574 0.413123 26.3633 1.22734 28.4534C0.659841 29.5304 0.337967 30.756 0.337967 32.0556C0.337967 36.3306 3.816 39.8087 8.09106 39.8087C9.43098 39.8087 10.6926 39.4669 11.7934 38.8661C13.8106 39.6166 15.9309 39.9977 18.1024 39.9983C18.1795 39.9994 18.2557 40 18.3327 40C22.8766 39.9998 27.4257 38.0474 30.8474 34.62C34.3338 31.1276 36.2904 26.4858 36.2159 21.8839ZM16.5052 3.85217V3.16827C16.5052 2.28452 17.2242 1.56554 18.108 1.56554C18.5362 1.56554 18.9384 1.73218 19.2415 2.03577C19.5441 2.3378 19.7107 2.74007 19.7107 3.16827V3.85225C19.1807 3.80608 18.6463 3.78139 18.108 3.78139C17.5711 3.78139 17.0366 3.80553 16.5052 3.85217ZM4.72154 22.7623H5.79037C6.22263 22.7623 6.57318 22.4119 6.57318 21.9795C6.57318 21.5472 6.22271 21.1967 5.79037 21.1967H4.71061C4.87092 18.0624 6.11263 15.2092 8.06809 13.0024L8.85754 13.7919C9.01043 13.9447 9.21074 14.0211 9.41106 14.0211C9.61145 14.0211 9.81168 13.9447 9.96457 13.7919C10.2703 13.4862 10.2703 12.9906 9.96457 12.6849L9.17231 11.8926C11.375 9.9216 14.2299 8.66583 17.3693 8.49465V9.6177C17.3693 10.05 17.7198 10.4005 18.1521 10.4005C18.5844 10.4005 18.9349 10.05 18.9349 9.6177V8.50028C22.0616 8.69137 24.9022 9.9577 27.0904 11.9342L26.3397 12.6849C26.034 12.9906 26.034 13.4862 26.3397 13.7919C26.4926 13.9447 26.6929 14.0211 26.8933 14.0211C27.0936 14.0211 27.2939 13.9447 27.4468 13.7919L28.1894 13.0492C30.121 15.2495 31.3462 18.0845 31.5053 21.1966H30.5139C30.0816 21.1966 29.7311 21.5471 29.7311 21.9794C29.7311 22.4118 30.0815 22.7623 30.5139 22.7623H31.4939C31.2948 25.8487 30.0477 28.654 28.105 30.8253L27.4468 30.1671C27.141 29.8614 26.6455 29.8614 26.3397 30.1671C26.034 30.4728 26.034 30.9684 26.3397 31.2741L26.9953 31.9296C24.8201 33.8574 22.0166 35.0905 18.9349 35.2788V34.3413C18.9349 33.9089 18.5845 33.5585 18.1521 33.5585C17.7199 33.5585 17.3693 33.9089 17.3693 34.3413V35.2829C16.6584 35.2441 15.9538 35.151 15.2623 35.0009C15.6369 34.0923 15.8441 33.0977 15.8441 32.0555C15.8441 27.7804 12.366 24.3025 8.09098 24.3025C7.00841 24.3025 5.97716 24.5258 5.04037 24.9283C4.87529 24.2176 4.76881 23.4936 4.72154 22.7623ZM1.90351 32.0555C1.90351 28.6437 4.6792 25.868 8.09106 25.868C11.5029 25.868 14.2786 28.6437 14.2786 32.0555C14.2786 35.4673 11.5029 38.2431 8.09106 38.2431C4.6792 38.2431 1.90351 35.4673 1.90351 32.0555Z" fill="black"/>
<path d="M36.2159 21.8839C36.2143 17.0488 34.3309 12.5038 30.9121 9.08504C28.2511 6.42396 24.9075 4.69365 21.2762 4.05639V3.16827C21.2762 2.32132 20.9463 1.5257 20.3484 0.928746C19.7505 0.329842 18.9548 0 18.108 0C16.361 0 14.9397 1.42124 14.9397 3.16827V4.0585C14.1906 4.19076 13.4509 4.36944 12.7246 4.59553C11.3557 5.02068 10.0362 5.61154 8.80301 6.35162C8.43231 6.57412 8.31223 7.05489 8.53473 7.4256C8.75707 7.79622 9.23785 7.91645 9.60879 7.69395C10.7348 7.01818 11.9393 6.47872 13.1895 6.09045C14.7747 5.59709 16.4295 5.34693 18.1081 5.34693C22.5267 5.34693 26.6808 7.06755 29.8052 10.192C32.9297 13.3165 34.6505 17.4709 34.6505 21.8902C34.6505 21.8944 34.6505 21.8988 34.6506 21.9031C34.72 26.086 32.93 30.3179 29.7395 33.5138C26.556 36.7026 22.324 38.4976 18.1198 38.4327C18.1159 38.4327 18.112 38.4326 18.1081 38.4326C16.4842 38.4326 14.8921 38.1992 13.3577 37.7396C13.7818 37.3463 14.1621 36.9065 14.49 36.428C15.6683 36.7216 16.8825 36.8706 18.1081 36.8706C26.3684 36.8706 33.0888 30.1504 33.0888 21.89C33.0888 13.6292 26.3684 6.90857 18.1081 6.90857C9.8477 6.90857 3.12733 13.6292 3.12733 21.8901C3.12733 23.1894 3.29452 24.4755 3.62444 25.7219C3.15116 26.0567 2.71694 26.4431 2.32999 26.8729C1.82304 25.2691 1.56554 23.599 1.56554 21.8902C1.56554 18.3912 2.64382 15.0474 4.68397 12.2203C4.93693 11.8698 4.85779 11.3805 4.50725 11.1275C4.1567 10.8745 3.66741 10.9536 3.41444 11.3043C1.1807 14.3996 0 18.0602 0 21.8902C0 24.1574 0.413123 26.3633 1.22734 28.4534C0.659841 29.5304 0.337967 30.756 0.337967 32.0556C0.337967 36.3306 3.816 39.8087 8.09106 39.8087C9.43098 39.8087 10.6926 39.4669 11.7934 38.8661C13.8106 39.6166 15.9309 39.9977 18.1024 39.9983C18.1795 39.9994 18.2557 40 18.3327 40C22.8766 39.9998 27.4257 38.0474 30.8474 34.62C34.3338 31.1276 36.2904 26.4858 36.2159 21.8839ZM16.5052 3.85217V3.16827C16.5052 2.28452 17.2242 1.56554 18.108 1.56554C18.5362 1.56554 18.9384 1.73218 19.2415 2.03577C19.5441 2.3378 19.7107 2.74007 19.7107 3.16827V3.85225C19.1807 3.80608 18.6463 3.78139 18.108 3.78139C17.5711 3.78139 17.0366 3.80553 16.5052 3.85217ZM4.72154 22.7623H5.79037C6.22263 22.7623 6.57318 22.4119 6.57318 21.9795C6.57318 21.5472 6.22271 21.1967 5.79037 21.1967H4.71061C4.87092 18.0624 6.11263 15.2092 8.06809 13.0024L8.85754 13.7919C9.01043 13.9447 9.21074 14.0211 9.41106 14.0211C9.61145 14.0211 9.81168 13.9447 9.96457 13.7919C10.2703 13.4862 10.2703 12.9906 9.96457 12.6849L9.17231 11.8926C11.375 9.9216 14.2299 8.66583 17.3693 8.49465V9.6177C17.3693 10.05 17.7198 10.4005 18.1521 10.4005C18.5844 10.4005 18.9349 10.05 18.9349 9.6177V8.50028C22.0616 8.69137 24.9022 9.9577 27.0904 11.9342L26.3397 12.6849C26.034 12.9906 26.034 13.4862 26.3397 13.7919C26.4926 13.9447 26.6929 14.0211 26.8933 14.0211C27.0936 14.0211 27.2939 13.9447 27.4468 13.7919L28.1894 13.0492C30.121 15.2495 31.3462 18.0845 31.5053 21.1966H30.5139C30.0816 21.1966 29.7311 21.5471 29.7311 21.9794C29.7311 22.4118 30.0815 22.7623 30.5139 22.7623H31.4939C31.2948 25.8487 30.0477 28.654 28.105 30.8253L27.4468 30.1671C27.141 29.8614 26.6455 29.8614 26.3397 30.1671C26.034 30.4728 26.034 30.9684 26.3397 31.2741L26.9953 31.9296C24.8201 33.8574 22.0166 35.0905 18.9349 35.2788V34.3413C18.9349 33.9089 18.5845 33.5585 18.1521 33.5585C17.7199 33.5585 17.3693 33.9089 17.3693 34.3413V35.2829C16.6584 35.2441 15.9538 35.151 15.2623 35.0009C15.6369 34.0923 15.8441 33.0977 15.8441 32.0555C15.8441 27.7804 12.366 24.3025 8.09098 24.3025C7.00841 24.3025 5.97716 24.5258 5.04037 24.9283C4.87529 24.2176 4.76881 23.4936 4.72154 22.7623ZM1.90351 32.0555C1.90351 28.6437 4.6792 25.868 8.09106 25.868C11.5029 25.868 14.2786 28.6437 14.2786 32.0555C14.2786 35.4673 11.5029 38.2431 8.09106 38.2431C4.6792 38.2431 1.90351 35.4673 1.90351 32.0555Z" fill="url(#paint0_linear_560_7158)"/>
<path d="M18.1503 24.2363C18.541 24.2363 18.9094 24.1398 19.2338 23.9702L21.7093 26.4135C21.8618 26.5641 22.0605 26.6391 22.2592 26.6391C22.4612 26.6391 22.6631 26.5614 22.8163 26.4062C23.1199 26.0986 23.1167 25.603 22.809 25.2993L20.3019 22.8248C20.427 22.5381 20.4967 22.222 20.4967 21.8898C20.4967 20.871 19.8439 20.0021 18.9347 19.6786V13.2386C18.9347 12.8062 18.5842 12.4557 18.1519 12.4557C17.7196 12.4557 17.3691 12.8062 17.3691 13.2386V19.6775C16.4582 20.0001 15.8037 20.8698 15.8037 21.8899C15.8039 23.1837 16.8565 24.2363 18.1503 24.2363ZM17.3694 21.8899C17.3694 21.4592 17.7197 21.1089 18.1503 21.1089C18.581 21.1089 18.9313 21.4592 18.9313 21.8899C18.9313 22.3205 18.581 22.6709 18.1503 22.6709C17.7198 22.6708 17.3694 22.3205 17.3694 21.8899Z" fill="black"/>
<path d="M18.1503 24.2363C18.541 24.2363 18.9094 24.1398 19.2338 23.9702L21.7093 26.4135C21.8618 26.5641 22.0605 26.6391 22.2592 26.6391C22.4612 26.6391 22.6631 26.5614 22.8163 26.4062C23.1199 26.0986 23.1167 25.603 22.809 25.2993L20.3019 22.8248C20.427 22.5381 20.4967 22.222 20.4967 21.8898C20.4967 20.871 19.8439 20.0021 18.9347 19.6786V13.2386C18.9347 12.8062 18.5842 12.4557 18.1519 12.4557C17.7196 12.4557 17.3691 12.8062 17.3691 13.2386V19.6775C16.4582 20.0001 15.8037 20.8698 15.8037 21.8899C15.8039 23.1837 16.8565 24.2363 18.1503 24.2363ZM17.3694 21.8899C17.3694 21.4592 17.7197 21.1089 18.1503 21.1089C18.581 21.1089 18.9313 21.4592 18.9313 21.8899C18.9313 22.3205 18.581 22.6709 18.1503 22.6709C17.7198 22.6708 17.3694 22.3205 17.3694 21.8899Z" fill="url(#paint1_linear_560_7158)"/>
<path d="M10.6717 32.7683L8.87651 34.0976V28.5061C8.87651 28.0738 8.52604 27.7233 8.0937 27.7233C7.66136 27.7233 7.31089 28.0738 7.31089 28.5061V34.0046L5.64129 32.7683C5.29394 32.511 4.80371 32.5841 4.54637 32.9316C4.28903 33.279 4.36215 33.7692 4.70957 34.0265L7.22472 35.889C7.50339 36.0954 7.82987 36.1985 8.15643 36.1985C8.48292 36.1985 8.80948 36.0953 9.08807 35.889L11.6033 34.0265C11.9507 33.7692 12.0238 33.279 11.7665 32.9316C11.5094 32.5842 11.019 32.511 10.6717 32.7683Z" fill="black"/>
<path d="M10.6717 32.7683L8.87651 34.0976V28.5061C8.87651 28.0738 8.52604 27.7233 8.0937 27.7233C7.66136 27.7233 7.31089 28.0738 7.31089 28.5061V34.0046L5.64129 32.7683C5.29394 32.511 4.80371 32.5841 4.54637 32.9316C4.28903 33.279 4.36215 33.7692 4.70957 34.0265L7.22472 35.889C7.50339 36.0954 7.82987 36.1985 8.15643 36.1985C8.48292 36.1985 8.80948 36.0953 9.08807 35.889L11.6033 34.0265C11.9507 33.7692 12.0238 33.279 11.7665 32.9316C11.5094 32.5842 11.019 32.511 10.6717 32.7683Z" fill="url(#paint2_linear_560_7158)"/>
<path d="M6.38144 9.92753C6.81378 9.92753 7.16425 9.57705 7.16425 9.14472C7.16425 8.71238 6.81378 8.36191 6.38144 8.36191C5.94911 8.36191 5.59863 8.71238 5.59863 9.14472C5.59863 9.57705 5.94911 9.92753 6.38144 9.92753Z" fill="black"/>
<path d="M6.38144 9.92753C6.81378 9.92753 7.16425 9.57705 7.16425 9.14472C7.16425 8.71238 6.81378 8.36191 6.38144 8.36191C5.94911 8.36191 5.59863 8.71238 5.59863 9.14472C5.59863 9.57705 5.94911 9.92753 6.38144 9.92753Z" fill="url(#paint3_linear_560_7158)"/>
<defs>
<linearGradient id="paint0_linear_560_7158" x1="0.718968" y1="20.5128" x2="35.9199" y2="20.5798" gradientUnits="userSpaceOnUse">
<stop stop-color="#4E54C8"/>
<stop offset="1" stop-color="#8F94FB"/>
</linearGradient>
<linearGradient id="paint1_linear_560_7158" x1="15.9474" y1="19.7293" x2="22.9823" y2="19.7368" gradientUnits="userSpaceOnUse">
<stop stop-color="#4E54C8"/>
<stop offset="1" stop-color="#8F94FB"/>
</linearGradient>
<linearGradient id="paint2_linear_560_7158" x1="4.54201" y1="32.0696" x2="11.8583" y2="32.0832" gradientUnits="userSpaceOnUse">
<stop stop-color="#4E54C8"/>
<stop offset="1" stop-color="#8F94FB"/>
</linearGradient>
<linearGradient id="paint3_linear_560_7158" x1="5.62971" y1="9.16479" x2="7.15136" y2="9.16799" gradientUnits="userSpaceOnUse">
<stop stop-color="#4E54C8"/>
<stop offset="1" stop-color="#8F94FB"/>
</linearGradient>
</defs>
</svg>
