<svg width="36" height="36" viewBox="0 0 36 36" fill="none" xmlns="http://www.w3.org/2000/svg">
<path d="M36 4.80164C35.9985 3.52905 35.4924 2.30899 34.5925 1.40913C33.6926 0.509264 32.4726 0.00308795 31.2 0.00164481H28.8C28.1397 0.00145875 27.4865 0.137878 26.8815 0.402326C26.2764 0.666774 25.7327 1.05353 25.2843 1.53828C22.5438 0.326273 19.5441 -0.182486 16.5572 0.0581411C13.5703 0.298768 10.6907 1.28117 8.17951 2.91626C5.66835 4.55135 3.60505 6.78741 2.17672 9.42167C0.748384 12.0559 0.000195589 15.0051 0 18.0016C-1.15951e-06 21.5617 1.05568 25.0418 3.03354 28.0019C5.01141 30.962 7.82262 33.2691 11.1117 34.6315C14.4008 35.9938 18.02 36.3503 21.5116 35.6558C25.0033 34.9612 28.2106 33.2469 30.7279 30.7295C33.5334 27.9231 35.3333 24.2686 35.8479 20.3338C36.3625 16.3991 35.563 12.4046 33.5736 8.97108C34.3099 8.55194 34.9222 7.94545 35.3483 7.21317C35.7745 6.48089 35.9993 5.64889 36 4.80164ZM32.0925 8.28952C32.5942 7.81616 32.9885 7.24055 33.2485 6.60164H34.3157C34.0755 7.01634 33.7553 7.37914 33.3736 7.66891C32.992 7.95869 32.5565 8.16965 32.0925 8.28952ZM33.5611 4.20164H34.749C34.817 4.59876 34.817 5.00453 34.749 5.40164H33.5611C33.6129 5.00332 33.6129 4.59997 33.5611 4.20164ZM34.3157 3.00164H33.2485C32.9885 2.36273 32.5942 1.78712 32.0925 1.31376C32.5565 1.43363 32.992 1.64459 33.3736 1.93437C33.7553 2.22414 34.0755 2.58694 34.3157 3.00164ZM28.8 1.20164C29.512 1.20164 30.208 1.41278 30.8 1.80835C31.392 2.20393 31.8535 2.76617 32.1259 3.42398C32.3984 4.0818 32.4697 4.80563 32.3308 5.50397C32.1919 6.2023 31.849 6.84376 31.3456 7.34722C30.8421 7.85069 30.2006 8.19356 29.5023 8.33247C28.804 8.47137 28.0801 8.40008 27.4223 8.12761C26.7645 7.85513 26.2023 7.39371 25.8067 6.80169C25.4111 6.20968 25.2 5.51365 25.2 4.80164C25.2011 3.84719 25.5807 2.93215 26.2556 2.25725C26.9305 1.58235 27.8455 1.20272 28.8 1.20164ZM28.8728 24.2803L28.7272 24.4259C28.5595 24.5926 28.4266 24.791 28.3361 25.0095C28.2456 25.2279 28.1993 25.4622 28.2 25.6987V26.1367C28.1998 26.4713 28.293 26.7994 28.4692 27.0839L28.0242 27.5289C27.9116 27.6412 27.7591 27.7043 27.6 27.7043C27.4409 27.7043 27.2883 27.6412 27.1757 27.5289L26.7308 27.0839C26.9069 26.7994 27.0002 26.4713 27 26.1367V25.6987C27.0006 25.4622 26.9544 25.2279 26.8639 25.0095C26.7734 24.791 26.6404 24.5926 26.4727 24.4259L26.3272 24.2803C26.1595 24.1136 26.0266 23.9152 25.9361 23.6967C25.8456 23.4782 25.7993 23.244 25.8 23.0075V22.2016H29.4V23.0075C29.4006 23.244 29.3544 23.4782 29.2639 23.6967C29.1734 23.9152 29.0404 24.1136 28.8728 24.2803ZM25.8 21.0016C25.8005 20.6295 25.916 20.2667 26.1309 19.9629C26.3457 19.6591 26.6493 19.4293 27 19.3048V19.8016H28.2V19.3048C28.5506 19.4293 28.8542 19.6591 29.0691 19.9629C29.2839 20.2667 29.3995 20.6295 29.4 21.0016H25.8ZM27 18.0016V18.062C26.3229 18.2012 25.7144 18.5696 25.2773 19.105C24.8401 19.6405 24.6009 20.3104 24.6 21.0016H23.4V22.2016H24.6V23.0075C24.5989 23.4016 24.676 23.7921 24.8268 24.1562C24.9777 24.5203 25.1992 24.8509 25.4787 25.1288L25.6242 25.2744C25.6801 25.33 25.7244 25.3961 25.7546 25.4689C25.7848 25.5418 25.8002 25.6199 25.8 25.6987V26.1367C25.8001 26.2627 25.7605 26.3855 25.6869 26.4876C25.6132 26.5898 25.5092 26.6662 25.3897 26.7059L24.2513 27.0854C23.6723 27.2779 23.166 27.6427 22.8 28.1309C22.434 27.6427 21.9276 27.2779 21.3487 27.0854L20.2103 26.7059C20.0907 26.6662 19.9868 26.5898 19.9131 26.4877C19.8395 26.3855 19.7999 26.2627 19.8 26.1367V25.6987C19.7998 25.6199 19.8152 25.5418 19.8454 25.4689C19.8755 25.3961 19.9198 25.33 19.9757 25.2744L20.1213 25.1288C20.4008 24.8509 20.6223 24.5203 20.7731 24.1562C20.924 23.7921 21.0011 23.4016 21 23.0075V22.2016H22.2V21.0016H21C20.9991 20.3104 20.7599 19.6405 20.3227 19.105C19.8855 18.5696 19.2771 18.2012 18.6 18.062V16.7315C18.5996 16.3536 18.7184 15.9852 18.9393 15.6787C19.1603 15.3721 19.4722 15.143 19.8308 15.0238L20.9692 14.6444C20.9754 14.6423 20.9812 14.6396 20.9873 14.6375L21.5272 15.1774C21.865 15.5144 22.3228 15.7037 22.8 15.7037C23.2772 15.7037 23.7349 15.5144 24.0728 15.1774L24.6126 14.6375C24.6188 14.6396 24.6246 14.6423 24.6308 14.6444L25.7692 15.0238C26.1278 15.143 26.4397 15.3721 26.6607 15.6787C26.8816 15.9852 27.0003 16.3536 27 16.7315V18.0016ZM13.2 28.1309C12.834 27.6427 12.3276 27.2779 11.7487 27.0854L10.6103 26.7059C10.4908 26.6662 10.3868 26.5898 10.3131 26.4877C10.2395 26.3855 10.1999 26.2627 10.2 26.1367V25.6987C10.1998 25.6199 10.2152 25.5418 10.2454 25.4689C10.2755 25.3961 10.3198 25.33 10.3757 25.2744L10.5213 25.1288C10.8008 24.8509 11.0223 24.5203 11.1731 24.1562C11.324 23.7921 11.4011 23.4016 11.4 23.0075V22.2016H12.6V21.0016H11.4C11.3991 20.3104 11.1599 19.6405 10.7227 19.105C10.2855 18.5696 9.67711 18.2012 8.99999 18.062V16.7315C8.99964 16.3536 9.11838 15.9852 9.33932 15.6787C9.56027 15.3721 9.8722 15.143 10.2308 15.0238L11.3692 14.6444C11.3754 14.6423 11.3812 14.6396 11.3874 14.6375L11.9272 15.1774C12.265 15.5144 12.7228 15.7037 13.2 15.7037C13.6772 15.7037 14.1349 15.5144 14.4728 15.1774L15.0126 14.6375C15.0188 14.6396 15.0246 14.6423 15.0308 14.6444L16.1692 15.0238C16.5278 15.143 16.8397 15.3721 17.0607 15.6787C17.2816 15.9852 17.4003 16.3536 17.4 16.7315V18.062C16.7229 18.2012 16.1144 18.5696 15.6773 19.105C15.2401 19.6405 15.0009 20.3104 15 21.0016H13.8V22.2016H15V23.0075C14.9989 23.4016 15.076 23.7921 15.2268 24.1562C15.3777 24.5203 15.5992 24.8509 15.8787 25.1288L16.0242 25.2744C16.0801 25.33 16.1244 25.3961 16.1546 25.4689C16.1848 25.5418 16.2002 25.6199 16.2 25.6987V26.1367C16.2001 26.2627 16.1605 26.3855 16.0869 26.4876C16.0132 26.5898 15.9093 26.6662 15.7897 26.7059L14.6513 27.0854C14.0723 27.2779 13.566 27.6427 13.2 28.1309ZM7.27276 24.4259L7.12719 24.2803C6.95953 24.1136 6.8266 23.9152 6.73611 23.6967C6.64562 23.4782 6.59935 23.244 6.6 23.0075V22.2016H10.2V23.0075C10.2006 23.244 10.1544 23.4782 10.0639 23.6967C9.97338 23.9152 9.84046 24.1136 9.6728 24.2803L9.52723 24.4259C9.35955 24.5926 9.22662 24.791 9.13612 25.0095C9.04562 25.2279 8.99935 25.4622 8.99999 25.6987V26.1367C8.9998 26.4713 9.09305 26.7994 9.26922 27.0839L8.82425 27.5289C8.71164 27.6412 8.55906 27.7043 8.39999 27.7043C8.24092 27.7043 8.08835 27.6412 7.97574 27.5289L7.53077 27.0839C7.70695 26.7994 7.80019 26.4713 7.79999 26.1367V25.6987C7.80064 25.4622 7.75437 25.2279 7.66387 25.0095C7.57337 24.791 7.44044 24.5926 7.27276 24.4259ZM8.39999 19.2016C8.87722 19.2022 9.33474 19.392 9.67218 19.7294C10.0096 20.0669 10.1994 20.5244 10.2 21.0016H6.6C6.60054 20.5244 6.79036 20.0669 7.12781 19.7294C7.46525 19.392 7.92277 19.2022 8.39999 19.2016ZM11.4 9.00164H15V9.80752C15.0006 10.044 14.9544 10.2782 14.8639 10.4967C14.7734 10.7152 14.6405 10.9136 14.4728 11.0803L14.3272 11.2259C14.1595 11.3926 14.0266 11.591 13.9361 11.8095C13.8456 12.028 13.7993 12.2622 13.8 12.4987V12.9367C13.7998 13.2714 13.893 13.5994 14.0692 13.8839L13.6242 14.3289C13.5116 14.4412 13.3591 14.5043 13.2 14.5043C13.0409 14.5043 12.8883 14.4412 12.7757 14.3289L12.3308 13.8839C12.5069 13.5994 12.6002 13.2714 12.6 12.9367V12.4987C12.6006 12.2622 12.5544 12.028 12.4639 11.8095C12.3734 11.591 12.2404 11.3926 12.0728 11.2259L11.9272 11.0803C11.7595 10.9136 11.6266 10.7152 11.5361 10.4967C11.4456 10.2782 11.3994 10.044 11.4 9.80752V9.00164ZM13.8 6.60164V6.10486C14.1507 6.22928 14.4542 6.45915 14.6691 6.76294C14.8839 7.06673 14.9995 7.42955 15 7.80164H11.4C11.4005 7.42955 11.5161 7.06673 11.7309 6.76294C11.9457 6.45915 12.2493 6.22928 12.6 6.10486V6.60164H13.8ZM18.6 19.3048C18.9507 19.4293 19.2542 19.6591 19.4691 19.9629C19.6839 20.2667 19.7995 20.6295 19.8 21.0016H16.2C16.2005 20.6295 16.3161 20.2667 16.5309 19.9629C16.7457 19.6591 17.0493 19.4293 17.4 19.3048V19.8016H18.6V19.3048ZM16.8728 24.4259L16.7272 24.2803C16.5595 24.1136 16.4266 23.9152 16.3361 23.6967C16.2456 23.4782 16.1993 23.244 16.2 23.0075V22.2016H19.8V23.0075C19.8006 23.244 19.7544 23.4782 19.6639 23.6967C19.5734 23.9152 19.4405 24.1136 19.2728 24.2803L19.1272 24.4259C18.9595 24.5926 18.8266 24.791 18.7361 25.0095C18.6456 25.2279 18.5993 25.4622 18.6 25.6987V26.1367C18.5998 26.4713 18.693 26.7994 18.8692 27.0839L18.4242 27.5289C18.3116 27.6412 18.1591 27.7043 18 27.7043C17.8409 27.7043 17.6883 27.6412 17.5757 27.5289L17.1308 27.0839C17.3069 26.7994 17.4002 26.4713 17.4 26.1367V25.6987C17.4006 25.4622 17.3544 25.2279 17.2639 25.0095C17.1734 24.791 17.0404 24.5926 16.8728 24.4259ZM24.0728 11.0803L23.9272 11.2259C23.7595 11.3926 23.6266 11.591 23.5361 11.8095C23.4456 12.028 23.3993 12.2622 23.4 12.4987V12.9367C23.3998 13.2714 23.493 13.5994 23.6692 13.8839L23.2242 14.3289C23.1116 14.4412 22.9591 14.5043 22.8 14.5043C22.6409 14.5043 22.4883 14.4412 22.3757 14.3289L21.9308 13.8839C22.1069 13.5994 22.2002 13.2714 22.2 12.9367V12.4987C22.2006 12.2622 22.1544 12.028 22.0639 11.8095C21.9734 11.591 21.8404 11.3926 21.6728 11.2259L21.5272 11.0803C21.3595 10.9136 21.2266 10.7152 21.1361 10.4967C21.0456 10.2782 20.9993 10.044 21 9.80752V9.00164H24.6V9.80752C24.6006 10.044 24.5544 10.2782 24.4639 10.4967C24.3734 10.7152 24.2404 10.9136 24.0728 11.0803ZM23.4 6.60164V6.10486C23.7507 6.22928 24.0542 6.45915 24.2691 6.76294C24.4839 7.06673 24.5995 7.42955 24.6 7.80164H21C21.0005 7.42955 21.1161 7.06673 21.3309 6.76294C21.5457 6.45915 21.8493 6.22928 22.2 6.10486V6.60164H23.4ZM6.12059 6.12223C8.4893 3.75554 11.5106 2.14983 14.7975 1.51077C18.0844 0.871708 21.4872 1.22839 24.5701 2.53513C24.1951 3.23166 23.9991 4.01055 24 4.80164C24 4.88697 24.0023 4.97175 24.0068 5.05598C23.8121 4.96978 23.6086 4.90475 23.4 4.86201V4.20164H22.2V4.86201C21.5229 5.0012 20.9144 5.36958 20.4773 5.90506C20.0401 6.44053 19.8009 7.11036 19.8 7.80164H18.6V9.00164H19.8V9.80752C19.7989 10.2016 19.876 10.5921 20.0268 10.9562C20.1777 11.3203 20.3992 11.6509 20.6787 11.9288L20.8242 12.0744C20.8801 12.13 20.9244 12.1961 20.9546 12.2689C20.9848 12.3418 21.0002 12.4199 21 12.4987V12.9367C21.0001 13.0627 20.9605 13.1855 20.8869 13.2877C20.8132 13.3898 20.7093 13.4662 20.5897 13.506L19.4513 13.8854C18.8723 14.0779 18.366 14.4427 18 14.9309C17.634 14.4427 17.1276 14.0779 16.5487 13.8854L15.4103 13.506C15.2908 13.4662 15.1868 13.3899 15.1131 13.2877C15.0395 13.1855 14.9999 13.0627 15 12.9367V12.4987C14.9998 12.4199 15.0152 12.3418 15.0454 12.2689C15.0755 12.1961 15.1198 12.13 15.1757 12.0744L15.3213 11.9288C15.6008 11.6509 15.8223 11.3203 15.9731 10.9562C16.124 10.5921 16.2011 10.2016 16.2 9.80752V9.00164H17.4V7.80164H16.2C16.1991 7.11036 15.9599 6.44053 15.5227 5.90506C15.0855 5.36958 14.4771 5.0012 13.8 4.86201V4.20164H12.6V4.86201C11.9229 5.0012 11.3144 5.36958 10.8773 5.90506C10.4401 6.44053 10.2009 7.11036 10.2 7.80164H8.99999V9.00164H10.2V9.80752C10.1989 10.2016 10.276 10.5921 10.4268 10.9562C10.5777 11.3203 10.7992 11.6509 11.0787 11.9288L11.2242 12.0744C11.2801 12.13 11.3245 12.1961 11.3546 12.2689C11.3848 12.3418 11.4002 12.4199 11.4 12.4987V12.9367C11.4001 13.0627 11.3605 13.1855 11.2869 13.2877C11.2132 13.3898 11.1093 13.4662 10.9897 13.506L9.85132 13.8854C9.25367 14.084 8.73379 14.4659 8.36554 14.9768C7.9973 15.4877 7.79941 16.1017 7.79999 16.7315V18.062C7.12288 18.2012 6.51445 18.5696 6.07727 19.105C5.64009 19.6405 5.40089 20.3104 5.4 21.0016H4.2V22.2016H5.4V23.0075C5.39891 23.4016 5.47602 23.7921 5.62685 24.1562C5.77767 24.5203 5.99923 24.8509 6.27868 25.1288L6.42425 25.2744C6.48014 25.33 6.52446 25.3961 6.55462 25.4689C6.58479 25.5418 6.60021 25.6199 6.6 25.6987V26.1367C6.60011 26.2627 6.56053 26.3855 6.48688 26.4876C6.41324 26.5898 6.30926 26.6662 6.18973 26.7059L5.05133 27.0854C4.73505 27.191 4.43858 27.3486 4.17408 27.5516C1.94127 24.3159 0.913281 20.3998 1.26891 16.4846C1.62455 12.5694 3.3413 8.9027 6.12059 6.12223ZM4.89322 28.5127C5.05468 28.3865 5.23648 28.2888 5.43079 28.2238L6.56923 27.8443C6.5754 27.8423 6.58122 27.8396 6.58736 27.8375L7.12723 28.3774C7.46505 28.7144 7.92278 28.9037 8.39999 28.9037C8.87721 28.9037 9.33494 28.7144 9.67276 28.3774L10.2126 27.8375C10.2188 27.8396 10.2246 27.8423 10.2308 27.8443L11.3692 28.2238C11.7278 28.343 12.0397 28.5721 12.2607 28.8787C12.4816 29.1852 12.6003 29.5536 12.6 29.9315V33.9181C12.194 33.7808 11.794 33.6279 11.4 33.4594V30.6016H10.2V32.8892C8.6963 32.0979 7.32095 31.0837 6.12059 29.881C5.68722 29.4473 5.2775 28.9905 4.89322 28.5127ZM16.2 34.7058V30.6016H15V34.5352C14.5959 34.4628 14.1959 34.3758 13.8 34.2744V29.9315C13.7996 29.5536 13.9184 29.1852 14.1393 28.8787C14.3603 28.5721 14.6722 28.343 15.0308 28.2238L16.1692 27.8443C16.1754 27.8423 16.1812 27.8396 16.1874 27.8375L16.7272 28.3774C17.065 28.7144 17.5228 28.9037 18 28.9037C18.4772 28.9037 18.9349 28.7144 19.2728 28.3774L19.8126 27.8375C19.8188 27.8396 19.8246 27.8423 19.8308 27.8443L20.9692 28.2238C21.3278 28.343 21.6397 28.5721 21.8607 28.8787C22.0816 29.1852 22.2003 29.5536 22.2 29.9315V34.2744C21.8043 34.3758 21.4043 34.4627 21 34.5352V30.6016H19.8V34.7058C18.6034 34.8335 17.3966 34.8335 16.2 34.7058ZM29.8794 29.881C28.679 31.0837 27.3037 32.0979 25.8 32.8892V30.6016H24.6V33.4594C24.2062 33.6277 23.8062 33.7806 23.4 33.9181V29.9315C23.3996 29.5536 23.5184 29.1852 23.7393 28.8787C23.9603 28.5721 24.2722 28.343 24.6308 28.2238L25.7692 27.8443C25.7754 27.8423 25.7812 27.8396 25.7873 27.8375L26.3272 28.3774C26.665 28.7144 27.1228 28.9037 27.6 28.9037C28.0772 28.9037 28.5349 28.7144 28.8727 28.3774L29.4126 27.8375C29.4188 27.8396 29.4246 27.8423 29.4308 27.8443L30.5692 28.2238C30.7635 28.2888 30.9453 28.3865 31.1068 28.5127C30.7225 28.9905 30.3128 29.4473 29.8794 29.881ZM34.8 18.0016C34.809 21.4143 33.771 24.7475 31.8259 27.5516C31.5614 27.3486 31.2649 27.191 30.9486 27.0854L29.8103 26.7059C29.6907 26.6662 29.5868 26.5898 29.5131 26.4877C29.4394 26.3855 29.3999 26.2627 29.4 26.1367V25.6987C29.3998 25.6199 29.4152 25.5418 29.4454 25.4689C29.4755 25.3961 29.5198 25.33 29.5757 25.2744L29.7213 25.1288C30.0007 24.8509 30.2223 24.5203 30.3731 24.1562C30.524 23.7921 30.6011 23.4016 30.6 23.0075V22.2016H31.8V21.0016H30.6C30.5991 20.3104 30.3599 19.6405 29.9227 19.105C29.4855 18.5696 28.8771 18.2012 28.2 18.062V16.7315C28.2006 16.1017 28.0027 15.4877 27.6344 14.9768C27.2662 14.4659 26.7463 14.084 26.1487 13.8854L25.0103 13.506C24.8907 13.4662 24.7868 13.3899 24.7131 13.2877C24.6395 13.1855 24.5999 13.0627 24.6 12.9367V12.4987C24.5998 12.4199 24.6152 12.3418 24.6454 12.2689C24.6755 12.1961 24.7198 12.13 24.7757 12.0744L24.9213 11.9288C25.2008 11.6509 25.4223 11.3203 25.5731 10.9562C25.724 10.5921 25.8011 10.2016 25.8 9.80752V9.00164H26.4795C27.1893 9.3959 27.988 9.60243 28.8 9.60164H31.2C31.6235 9.6016 32.0451 9.54537 32.4538 9.43441C33.9937 12.0265 34.8043 14.9866 34.8 18.0016Z" fill="black"/>
<path d="M36 4.80164C35.9985 3.52905 35.4924 2.30899 34.5925 1.40913C33.6926 0.509264 32.4726 0.00308795 31.2 0.00164481H28.8C28.1397 0.00145875 27.4865 0.137878 26.8815 0.402326C26.2764 0.666774 25.7327 1.05353 25.2843 1.53828C22.5438 0.326273 19.5441 -0.182486 16.5572 0.0581411C13.5703 0.298768 10.6907 1.28117 8.17951 2.91626C5.66835 4.55135 3.60505 6.78741 2.17672 9.42167C0.748384 12.0559 0.000195589 15.0051 0 18.0016C-1.15951e-06 21.5617 1.05568 25.0418 3.03354 28.0019C5.01141 30.962 7.82262 33.2691 11.1117 34.6315C14.4008 35.9938 18.02 36.3503 21.5116 35.6558C25.0033 34.9612 28.2106 33.2469 30.7279 30.7295C33.5334 27.9231 35.3333 24.2686 35.8479 20.3338C36.3625 16.3991 35.563 12.4046 33.5736 8.97108C34.3099 8.55194 34.9222 7.94545 35.3483 7.21317C35.7745 6.48089 35.9993 5.64889 36 4.80164ZM32.0925 8.28952C32.5942 7.81616 32.9885 7.24055 33.2485 6.60164H34.3157C34.0755 7.01634 33.7553 7.37914 33.3736 7.66891C32.992 7.95869 32.5565 8.16965 32.0925 8.28952ZM33.5611 4.20164H34.749C34.817 4.59876 34.817 5.00453 34.749 5.40164H33.5611C33.6129 5.00332 33.6129 4.59997 33.5611 4.20164ZM34.3157 3.00164H33.2485C32.9885 2.36273 32.5942 1.78712 32.0925 1.31376C32.5565 1.43363 32.992 1.64459 33.3736 1.93437C33.7553 2.22414 34.0755 2.58694 34.3157 3.00164ZM28.8 1.20164C29.512 1.20164 30.208 1.41278 30.8 1.80835C31.392 2.20393 31.8535 2.76617 32.1259 3.42398C32.3984 4.0818 32.4697 4.80563 32.3308 5.50397C32.1919 6.2023 31.849 6.84376 31.3456 7.34722C30.8421 7.85069 30.2006 8.19356 29.5023 8.33247C28.804 8.47137 28.0801 8.40008 27.4223 8.12761C26.7645 7.85513 26.2023 7.39371 25.8067 6.80169C25.4111 6.20968 25.2 5.51365 25.2 4.80164C25.2011 3.84719 25.5807 2.93215 26.2556 2.25725C26.9305 1.58235 27.8455 1.20272 28.8 1.20164ZM28.8728 24.2803L28.7272 24.4259C28.5595 24.5926 28.4266 24.791 28.3361 25.0095C28.2456 25.2279 28.1993 25.4622 28.2 25.6987V26.1367C28.1998 26.4713 28.293 26.7994 28.4692 27.0839L28.0242 27.5289C27.9116 27.6412 27.7591 27.7043 27.6 27.7043C27.4409 27.7043 27.2883 27.6412 27.1757 27.5289L26.7308 27.0839C26.9069 26.7994 27.0002 26.4713 27 26.1367V25.6987C27.0006 25.4622 26.9544 25.2279 26.8639 25.0095C26.7734 24.791 26.6404 24.5926 26.4727 24.4259L26.3272 24.2803C26.1595 24.1136 26.0266 23.9152 25.9361 23.6967C25.8456 23.4782 25.7993 23.244 25.8 23.0075V22.2016H29.4V23.0075C29.4006 23.244 29.3544 23.4782 29.2639 23.6967C29.1734 23.9152 29.0404 24.1136 28.8728 24.2803ZM25.8 21.0016C25.8005 20.6295 25.916 20.2667 26.1309 19.9629C26.3457 19.6591 26.6493 19.4293 27 19.3048V19.8016H28.2V19.3048C28.5506 19.4293 28.8542 19.6591 29.0691 19.9629C29.2839 20.2667 29.3995 20.6295 29.4 21.0016H25.8ZM27 18.0016V18.062C26.3229 18.2012 25.7144 18.5696 25.2773 19.105C24.8401 19.6405 24.6009 20.3104 24.6 21.0016H23.4V22.2016H24.6V23.0075C24.5989 23.4016 24.676 23.7921 24.8268 24.1562C24.9777 24.5203 25.1992 24.8509 25.4787 25.1288L25.6242 25.2744C25.6801 25.33 25.7244 25.3961 25.7546 25.4689C25.7848 25.5418 25.8002 25.6199 25.8 25.6987V26.1367C25.8001 26.2627 25.7605 26.3855 25.6869 26.4876C25.6132 26.5898 25.5092 26.6662 25.3897 26.7059L24.2513 27.0854C23.6723 27.2779 23.166 27.6427 22.8 28.1309C22.434 27.6427 21.9276 27.2779 21.3487 27.0854L20.2103 26.7059C20.0907 26.6662 19.9868 26.5898 19.9131 26.4877C19.8395 26.3855 19.7999 26.2627 19.8 26.1367V25.6987C19.7998 25.6199 19.8152 25.5418 19.8454 25.4689C19.8755 25.3961 19.9198 25.33 19.9757 25.2744L20.1213 25.1288C20.4008 24.8509 20.6223 24.5203 20.7731 24.1562C20.924 23.7921 21.0011 23.4016 21 23.0075V22.2016H22.2V21.0016H21C20.9991 20.3104 20.7599 19.6405 20.3227 19.105C19.8855 18.5696 19.2771 18.2012 18.6 18.062V16.7315C18.5996 16.3536 18.7184 15.9852 18.9393 15.6787C19.1603 15.3721 19.4722 15.143 19.8308 15.0238L20.9692 14.6444C20.9754 14.6423 20.9812 14.6396 20.9873 14.6375L21.5272 15.1774C21.865 15.5144 22.3228 15.7037 22.8 15.7037C23.2772 15.7037 23.7349 15.5144 24.0728 15.1774L24.6126 14.6375C24.6188 14.6396 24.6246 14.6423 24.6308 14.6444L25.7692 15.0238C26.1278 15.143 26.4397 15.3721 26.6607 15.6787C26.8816 15.9852 27.0003 16.3536 27 16.7315V18.0016ZM13.2 28.1309C12.834 27.6427 12.3276 27.2779 11.7487 27.0854L10.6103 26.7059C10.4908 26.6662 10.3868 26.5898 10.3131 26.4877C10.2395 26.3855 10.1999 26.2627 10.2 26.1367V25.6987C10.1998 25.6199 10.2152 25.5418 10.2454 25.4689C10.2755 25.3961 10.3198 25.33 10.3757 25.2744L10.5213 25.1288C10.8008 24.8509 11.0223 24.5203 11.1731 24.1562C11.324 23.7921 11.4011 23.4016 11.4 23.0075V22.2016H12.6V21.0016H11.4C11.3991 20.3104 11.1599 19.6405 10.7227 19.105C10.2855 18.5696 9.67711 18.2012 8.99999 18.062V16.7315C8.99964 16.3536 9.11838 15.9852 9.33932 15.6787C9.56027 15.3721 9.8722 15.143 10.2308 15.0238L11.3692 14.6444C11.3754 14.6423 11.3812 14.6396 11.3874 14.6375L11.9272 15.1774C12.265 15.5144 12.7228 15.7037 13.2 15.7037C13.6772 15.7037 14.1349 15.5144 14.4728 15.1774L15.0126 14.6375C15.0188 14.6396 15.0246 14.6423 15.0308 14.6444L16.1692 15.0238C16.5278 15.143 16.8397 15.3721 17.0607 15.6787C17.2816 15.9852 17.4003 16.3536 17.4 16.7315V18.062C16.7229 18.2012 16.1144 18.5696 15.6773 19.105C15.2401 19.6405 15.0009 20.3104 15 21.0016H13.8V22.2016H15V23.0075C14.9989 23.4016 15.076 23.7921 15.2268 24.1562C15.3777 24.5203 15.5992 24.8509 15.8787 25.1288L16.0242 25.2744C16.0801 25.33 16.1244 25.3961 16.1546 25.4689C16.1848 25.5418 16.2002 25.6199 16.2 25.6987V26.1367C16.2001 26.2627 16.1605 26.3855 16.0869 26.4876C16.0132 26.5898 15.9093 26.6662 15.7897 26.7059L14.6513 27.0854C14.0723 27.2779 13.566 27.6427 13.2 28.1309ZM7.27276 24.4259L7.12719 24.2803C6.95953 24.1136 6.8266 23.9152 6.73611 23.6967C6.64562 23.4782 6.59935 23.244 6.6 23.0075V22.2016H10.2V23.0075C10.2006 23.244 10.1544 23.4782 10.0639 23.6967C9.97338 23.9152 9.84046 24.1136 9.6728 24.2803L9.52723 24.4259C9.35955 24.5926 9.22662 24.791 9.13612 25.0095C9.04562 25.2279 8.99935 25.4622 8.99999 25.6987V26.1367C8.9998 26.4713 9.09305 26.7994 9.26922 27.0839L8.82425 27.5289C8.71164 27.6412 8.55906 27.7043 8.39999 27.7043C8.24092 27.7043 8.08835 27.6412 7.97574 27.5289L7.53077 27.0839C7.70695 26.7994 7.80019 26.4713 7.79999 26.1367V25.6987C7.80064 25.4622 7.75437 25.2279 7.66387 25.0095C7.57337 24.791 7.44044 24.5926 7.27276 24.4259ZM8.39999 19.2016C8.87722 19.2022 9.33474 19.392 9.67218 19.7294C10.0096 20.0669 10.1994 20.5244 10.2 21.0016H6.6C6.60054 20.5244 6.79036 20.0669 7.12781 19.7294C7.46525 19.392 7.92277 19.2022 8.39999 19.2016ZM11.4 9.00164H15V9.80752C15.0006 10.044 14.9544 10.2782 14.8639 10.4967C14.7734 10.7152 14.6405 10.9136 14.4728 11.0803L14.3272 11.2259C14.1595 11.3926 14.0266 11.591 13.9361 11.8095C13.8456 12.028 13.7993 12.2622 13.8 12.4987V12.9367C13.7998 13.2714 13.893 13.5994 14.0692 13.8839L13.6242 14.3289C13.5116 14.4412 13.3591 14.5043 13.2 14.5043C13.0409 14.5043 12.8883 14.4412 12.7757 14.3289L12.3308 13.8839C12.5069 13.5994 12.6002 13.2714 12.6 12.9367V12.4987C12.6006 12.2622 12.5544 12.028 12.4639 11.8095C12.3734 11.591 12.2404 11.3926 12.0728 11.2259L11.9272 11.0803C11.7595 10.9136 11.6266 10.7152 11.5361 10.4967C11.4456 10.2782 11.3994 10.044 11.4 9.80752V9.00164ZM13.8 6.60164V6.10486C14.1507 6.22928 14.4542 6.45915 14.6691 6.76294C14.8839 7.06673 14.9995 7.42955 15 7.80164H11.4C11.4005 7.42955 11.5161 7.06673 11.7309 6.76294C11.9457 6.45915 12.2493 6.22928 12.6 6.10486V6.60164H13.8ZM18.6 19.3048C18.9507 19.4293 19.2542 19.6591 19.4691 19.9629C19.6839 20.2667 19.7995 20.6295 19.8 21.0016H16.2C16.2005 20.6295 16.3161 20.2667 16.5309 19.9629C16.7457 19.6591 17.0493 19.4293 17.4 19.3048V19.8016H18.6V19.3048ZM16.8728 24.4259L16.7272 24.2803C16.5595 24.1136 16.4266 23.9152 16.3361 23.6967C16.2456 23.4782 16.1993 23.244 16.2 23.0075V22.2016H19.8V23.0075C19.8006 23.244 19.7544 23.4782 19.6639 23.6967C19.5734 23.9152 19.4405 24.1136 19.2728 24.2803L19.1272 24.4259C18.9595 24.5926 18.8266 24.791 18.7361 25.0095C18.6456 25.2279 18.5993 25.4622 18.6 25.6987V26.1367C18.5998 26.4713 18.693 26.7994 18.8692 27.0839L18.4242 27.5289C18.3116 27.6412 18.1591 27.7043 18 27.7043C17.8409 27.7043 17.6883 27.6412 17.5757 27.5289L17.1308 27.0839C17.3069 26.7994 17.4002 26.4713 17.4 26.1367V25.6987C17.4006 25.4622 17.3544 25.2279 17.2639 25.0095C17.1734 24.791 17.0404 24.5926 16.8728 24.4259ZM24.0728 11.0803L23.9272 11.2259C23.7595 11.3926 23.6266 11.591 23.5361 11.8095C23.4456 12.028 23.3993 12.2622 23.4 12.4987V12.9367C23.3998 13.2714 23.493 13.5994 23.6692 13.8839L23.2242 14.3289C23.1116 14.4412 22.9591 14.5043 22.8 14.5043C22.6409 14.5043 22.4883 14.4412 22.3757 14.3289L21.9308 13.8839C22.1069 13.5994 22.2002 13.2714 22.2 12.9367V12.4987C22.2006 12.2622 22.1544 12.028 22.0639 11.8095C21.9734 11.591 21.8404 11.3926 21.6728 11.2259L21.5272 11.0803C21.3595 10.9136 21.2266 10.7152 21.1361 10.4967C21.0456 10.2782 20.9993 10.044 21 9.80752V9.00164H24.6V9.80752C24.6006 10.044 24.5544 10.2782 24.4639 10.4967C24.3734 10.7152 24.2404 10.9136 24.0728 11.0803ZM23.4 6.60164V6.10486C23.7507 6.22928 24.0542 6.45915 24.2691 6.76294C24.4839 7.06673 24.5995 7.42955 24.6 7.80164H21C21.0005 7.42955 21.1161 7.06673 21.3309 6.76294C21.5457 6.45915 21.8493 6.22928 22.2 6.10486V6.60164H23.4ZM6.12059 6.12223C8.4893 3.75554 11.5106 2.14983 14.7975 1.51077C18.0844 0.871708 21.4872 1.22839 24.5701 2.53513C24.1951 3.23166 23.9991 4.01055 24 4.80164C24 4.88697 24.0023 4.97175 24.0068 5.05598C23.8121 4.96978 23.6086 4.90475 23.4 4.86201V4.20164H22.2V4.86201C21.5229 5.0012 20.9144 5.36958 20.4773 5.90506C20.0401 6.44053 19.8009 7.11036 19.8 7.80164H18.6V9.00164H19.8V9.80752C19.7989 10.2016 19.876 10.5921 20.0268 10.9562C20.1777 11.3203 20.3992 11.6509 20.6787 11.9288L20.8242 12.0744C20.8801 12.13 20.9244 12.1961 20.9546 12.2689C20.9848 12.3418 21.0002 12.4199 21 12.4987V12.9367C21.0001 13.0627 20.9605 13.1855 20.8869 13.2877C20.8132 13.3898 20.7093 13.4662 20.5897 13.506L19.4513 13.8854C18.8723 14.0779 18.366 14.4427 18 14.9309C17.634 14.4427 17.1276 14.0779 16.5487 13.8854L15.4103 13.506C15.2908 13.4662 15.1868 13.3899 15.1131 13.2877C15.0395 13.1855 14.9999 13.0627 15 12.9367V12.4987C14.9998 12.4199 15.0152 12.3418 15.0454 12.2689C15.0755 12.1961 15.1198 12.13 15.1757 12.0744L15.3213 11.9288C15.6008 11.6509 15.8223 11.3203 15.9731 10.9562C16.124 10.5921 16.2011 10.2016 16.2 9.80752V9.00164H17.4V7.80164H16.2C16.1991 7.11036 15.9599 6.44053 15.5227 5.90506C15.0855 5.36958 14.4771 5.0012 13.8 4.86201V4.20164H12.6V4.86201C11.9229 5.0012 11.3144 5.36958 10.8773 5.90506C10.4401 6.44053 10.2009 7.11036 10.2 7.80164H8.99999V9.00164H10.2V9.80752C10.1989 10.2016 10.276 10.5921 10.4268 10.9562C10.5777 11.3203 10.7992 11.6509 11.0787 11.9288L11.2242 12.0744C11.2801 12.13 11.3245 12.1961 11.3546 12.2689C11.3848 12.3418 11.4002 12.4199 11.4 12.4987V12.9367C11.4001 13.0627 11.3605 13.1855 11.2869 13.2877C11.2132 13.3898 11.1093 13.4662 10.9897 13.506L9.85132 13.8854C9.25367 14.084 8.73379 14.4659 8.36554 14.9768C7.9973 15.4877 7.79941 16.1017 7.79999 16.7315V18.062C7.12288 18.2012 6.51445 18.5696 6.07727 19.105C5.64009 19.6405 5.40089 20.3104 5.4 21.0016H4.2V22.2016H5.4V23.0075C5.39891 23.4016 5.47602 23.7921 5.62685 24.1562C5.77767 24.5203 5.99923 24.8509 6.27868 25.1288L6.42425 25.2744C6.48014 25.33 6.52446 25.3961 6.55462 25.4689C6.58479 25.5418 6.60021 25.6199 6.6 25.6987V26.1367C6.60011 26.2627 6.56053 26.3855 6.48688 26.4876C6.41324 26.5898 6.30926 26.6662 6.18973 26.7059L5.05133 27.0854C4.73505 27.191 4.43858 27.3486 4.17408 27.5516C1.94127 24.3159 0.913281 20.3998 1.26891 16.4846C1.62455 12.5694 3.3413 8.9027 6.12059 6.12223ZM4.89322 28.5127C5.05468 28.3865 5.23648 28.2888 5.43079 28.2238L6.56923 27.8443C6.5754 27.8423 6.58122 27.8396 6.58736 27.8375L7.12723 28.3774C7.46505 28.7144 7.92278 28.9037 8.39999 28.9037C8.87721 28.9037 9.33494 28.7144 9.67276 28.3774L10.2126 27.8375C10.2188 27.8396 10.2246 27.8423 10.2308 27.8443L11.3692 28.2238C11.7278 28.343 12.0397 28.5721 12.2607 28.8787C12.4816 29.1852 12.6003 29.5536 12.6 29.9315V33.9181C12.194 33.7808 11.794 33.6279 11.4 33.4594V30.6016H10.2V32.8892C8.6963 32.0979 7.32095 31.0837 6.12059 29.881C5.68722 29.4473 5.2775 28.9905 4.89322 28.5127ZM16.2 34.7058V30.6016H15V34.5352C14.5959 34.4628 14.1959 34.3758 13.8 34.2744V29.9315C13.7996 29.5536 13.9184 29.1852 14.1393 28.8787C14.3603 28.5721 14.6722 28.343 15.0308 28.2238L16.1692 27.8443C16.1754 27.8423 16.1812 27.8396 16.1874 27.8375L16.7272 28.3774C17.065 28.7144 17.5228 28.9037 18 28.9037C18.4772 28.9037 18.9349 28.7144 19.2728 28.3774L19.8126 27.8375C19.8188 27.8396 19.8246 27.8423 19.8308 27.8443L20.9692 28.2238C21.3278 28.343 21.6397 28.5721 21.8607 28.8787C22.0816 29.1852 22.2003 29.5536 22.2 29.9315V34.2744C21.8043 34.3758 21.4043 34.4627 21 34.5352V30.6016H19.8V34.7058C18.6034 34.8335 17.3966 34.8335 16.2 34.7058ZM29.8794 29.881C28.679 31.0837 27.3037 32.0979 25.8 32.8892V30.6016H24.6V33.4594C24.2062 33.6277 23.8062 33.7806 23.4 33.9181V29.9315C23.3996 29.5536 23.5184 29.1852 23.7393 28.8787C23.9603 28.5721 24.2722 28.343 24.6308 28.2238L25.7692 27.8443C25.7754 27.8423 25.7812 27.8396 25.7873 27.8375L26.3272 28.3774C26.665 28.7144 27.1228 28.9037 27.6 28.9037C28.0772 28.9037 28.5349 28.7144 28.8727 28.3774L29.4126 27.8375C29.4188 27.8396 29.4246 27.8423 29.4308 27.8443L30.5692 28.2238C30.7635 28.2888 30.9453 28.3865 31.1068 28.5127C30.7225 28.9905 30.3128 29.4473 29.8794 29.881ZM34.8 18.0016C34.809 21.4143 33.771 24.7475 31.8259 27.5516C31.5614 27.3486 31.2649 27.191 30.9486 27.0854L29.8103 26.7059C29.6907 26.6662 29.5868 26.5898 29.5131 26.4877C29.4394 26.3855 29.3999 26.2627 29.4 26.1367V25.6987C29.3998 25.6199 29.4152 25.5418 29.4454 25.4689C29.4755 25.3961 29.5198 25.33 29.5757 25.2744L29.7213 25.1288C30.0007 24.8509 30.2223 24.5203 30.3731 24.1562C30.524 23.7921 30.6011 23.4016 30.6 23.0075V22.2016H31.8V21.0016H30.6C30.5991 20.3104 30.3599 19.6405 29.9227 19.105C29.4855 18.5696 28.8771 18.2012 28.2 18.062V16.7315C28.2006 16.1017 28.0027 15.4877 27.6344 14.9768C27.2662 14.4659 26.7463 14.084 26.1487 13.8854L25.0103 13.506C24.8907 13.4662 24.7868 13.3899 24.7131 13.2877C24.6395 13.1855 24.5999 13.0627 24.6 12.9367V12.4987C24.5998 12.4199 24.6152 12.3418 24.6454 12.2689C24.6755 12.1961 24.7198 12.13 24.7757 12.0744L24.9213 11.9288C25.2008 11.6509 25.4223 11.3203 25.5731 10.9562C25.724 10.5921 25.8011 10.2016 25.8 9.80752V9.00164H26.4795C27.1893 9.3959 27.988 9.60243 28.8 9.60164H31.2C31.6235 9.6016 32.0451 9.54537 32.4538 9.43441C33.9937 12.0265 34.8043 14.9866 34.8 18.0016Z" fill="url(#paint0_linear_560_7145)"/>
<path d="M29.3985 5.05036V2.40189H28.1985V4.55341L26.5742 6.17761L27.4228 7.02616L29.3985 5.05036Z" fill="black"/>
<path d="M29.3985 5.05036V2.40189H28.1985V4.55341L26.5742 6.17761L27.4228 7.02616L29.3985 5.05036Z" fill="url(#paint1_linear_560_7145)"/>
<defs>
<linearGradient id="paint0_linear_560_7145" x1="0.71464" y1="18.4624" x2="35.7037" y2="18.5359" gradientUnits="userSpaceOnUse">
<stop stop-color="#4E54C8"/>
<stop offset="1" stop-color="#8F94FB"/>
</linearGradient>
<linearGradient id="paint1_linear_560_7145" x1="26.6303" y1="4.77331" x2="29.3753" y2="4.77683" gradientUnits="userSpaceOnUse">
<stop stop-color="#4E54C8"/>
<stop offset="1" stop-color="#8F94FB"/>
</linearGradient>
</defs>
</svg>
