<svg width="50" height="50" viewBox="0 0 50 50" fill="none" xmlns="http://www.w3.org/2000/svg">
<path d="M32.1664 15.4754L30.773 16.8687L33.1297 19.2254L34.523 17.832C34.678 17.907 34.8364 17.9687 34.998 18.0254V20.0004H38.3314V18.0254C38.4947 17.9687 38.6514 17.907 38.8064 17.832L40.1997 19.2254L42.5564 16.8687L41.163 15.4754C41.238 15.3204 41.2997 15.162 41.3564 15.0004H43.3314V11.667H41.3564C41.2997 11.5037 41.238 11.347 41.163 11.192L42.5564 9.79869L40.1997 7.44202L38.8064 8.83536C38.6514 8.76036 38.4947 8.69869 38.3314 8.64202V6.66702H34.998V8.64202C34.8347 8.69869 34.678 8.76036 34.523 8.83536L33.1297 7.44202L30.773 9.79869L32.1664 11.192C32.0914 11.347 32.0297 11.5037 31.973 11.667H29.998V15.0004H31.973C32.0297 15.1637 32.0914 15.3204 32.1664 15.4754ZM36.6647 11.667C37.5814 11.667 38.3247 12.4087 38.3297 13.3254V13.342C38.3247 14.2587 37.5814 15.0004 36.6647 15.0004C35.7447 15.0004 34.998 14.2537 34.998 13.3337C34.998 12.4137 35.7447 11.667 36.6647 11.667Z" fill="#CBD5E1"/>
<path d="M50 13.3333C50 5.98167 44.0183 0 36.6667 0C34.9333 0 33.2817 0.343333 31.7617 0.946667C29.5583 0.328333 27.29 0 25 0C11.215 0 0 11.215 0 25C0 38.785 11.215 50 25 50C38.785 50 50 38.785 50 25C50 22.71 49.6717 20.4417 49.0533 18.2383C49.6567 16.7183 50 15.0667 50 13.3333ZM46.6667 13.3333C46.6667 18.8483 42.1817 23.3333 36.6667 23.3333C31.1517 23.3333 26.6667 18.8483 26.6667 13.3333C26.6667 7.81833 31.1517 3.33333 36.6667 3.33333C42.1817 3.33333 46.6667 7.81833 46.6667 13.3333ZM25 46.6667C21.56 46.6667 17.9533 42.23 16.16 35H33.8383C32.0467 42.23 28.44 46.6667 25 46.6667ZM15.49 31.6667C15.1767 29.605 15 27.3767 15 25C15 22.6233 15.1767 20.395 15.49 18.3333H24.315C26.0917 22.7067 30.1233 25.9233 34.9617 26.545C34.9033 28.345 34.755 30.0617 34.51 31.6667H15.49ZM3.33333 25C3.33333 22.6733 3.71167 20.4367 4.395 18.3333H12.1433C11.84 20.4517 11.6667 22.6783 11.6667 25C11.6667 27.3217 11.84 29.5483 12.1433 31.6667H4.395C3.71167 29.5633 3.33333 27.3267 3.33333 25ZM25 3.33333C25.7383 3.33333 26.4783 3.55333 27.2133 3.94167C24.8183 6.355 23.3333 9.67333 23.3333 13.3333C23.3333 13.9 23.38 14.4533 23.4483 15H16.16C17.9533 7.77 21.56 3.33333 25 3.33333ZM17.0217 4.875C15.155 7.45833 13.6683 10.9267 12.7433 15H5.79833C8.195 10.4167 12.18 6.80167 17.0217 4.875ZM5.79833 35H12.7433C13.6683 39.0733 15.1533 42.5417 17.02 45.125C12.18 43.1983 8.195 39.5833 5.79833 35ZM32.9783 45.125C34.845 42.5417 36.3317 39.0733 37.255 35H44.2C41.805 39.5833 37.82 43.1983 32.9783 45.125ZM46.6667 25C46.6667 27.3267 46.2883 29.5633 45.605 31.6667H37.8567C38.0917 30.03 38.2383 28.3217 38.2933 26.5583C41.5233 26.1633 44.395 24.6067 46.4883 22.3217C46.5983 23.2083 46.6667 24.1017 46.6667 25Z" fill="#CBD5E1"/>
</svg>
