<svg width="32" height="32" viewBox="0 0 32 32" fill="none" xmlns="http://www.w3.org/2000/svg">
<path d="M31.6694 13.4228L29.3548 12.5318C29.1732 11.8317 28.935 11.1427 28.6454 10.4801C28.5856 10.3433 28.4694 10.239 28.3269 10.1943C28.1844 10.1498 28.0295 10.1688 27.9022 10.2471L25.3515 11.8146C25.1389 11.9452 25.0502 12.2093 25.1407 12.4418C25.5826 13.5753 25.8066 14.7726 25.8066 16C25.8066 21.4072 21.4074 25.8064 16.0001 25.8064C10.5928 25.8064 6.19357 21.4072 6.19357 16C6.19357 14.7726 6.41757 13.5753 6.85932 12.4418C6.9499 12.2093 6.86119 11.9453 6.64861 11.8147L4.09821 10.2473C3.97092 10.1691 3.81602 10.1499 3.67356 10.1946C3.53105 10.2392 3.41492 10.3435 3.35505 10.4804C3.06537 11.143 2.82724 11.8318 2.64569 12.5318L0.330582 13.4229C0.131484 13.4995 0 13.691 0 13.9046V18.0955C0 18.3091 0.131484 18.5005 0.330711 18.5772L2.6453 19.4682C2.96575 20.7049 3.45582 21.8871 4.10505 22.9896L3.09769 25.2576C3.01098 25.4527 3.05343 25.681 3.2044 25.832L6.16796 28.7956C6.31893 28.9465 6.54738 28.9888 6.74241 28.9023L9.01139 27.8946C10.1141 28.5438 11.2961 29.0338 12.5317 29.354L13.4228 31.6693C13.4995 31.8685 13.691 32 13.9045 32H18.0955C18.309 32 18.5005 31.8685 18.5772 31.6693L19.4681 29.3547C20.7046 29.0344 21.8868 28.5443 22.9895 27.8949L25.2576 28.9023C25.4527 28.989 25.6811 28.9465 25.832 28.7956L28.7955 25.832C28.9465 25.681 28.989 25.4527 28.9023 25.2576L27.8946 22.9887C28.5439 21.8858 29.0339 20.7041 29.3541 19.4683L31.6693 18.5772C31.8686 18.5005 32 18.3091 32 18.0955V13.9046C32.0001 13.6909 31.8686 13.4995 31.6694 13.4228ZM30.9679 17.741L28.7326 18.6014C28.5739 18.6625 28.4553 18.798 28.4159 18.9636C28.1033 20.2773 27.5846 21.5284 26.8744 22.682C26.7851 22.8269 26.7731 23.0065 26.8422 23.162L27.8151 25.3526L25.3527 27.8149L23.163 26.8423C23.0074 26.7732 22.8278 26.7853 22.6829 26.8746C21.5296 27.5848 20.2783 28.1036 18.9636 28.4164C18.798 28.4557 18.6625 28.5742 18.6014 28.733L17.7412 30.9677H14.259L13.3986 28.7325C13.3375 28.5736 13.2021 28.4552 13.0364 28.4158C11.7227 28.1031 10.4717 27.5845 9.3181 26.8742C9.1732 26.785 8.99358 26.7729 8.83804 26.842L6.64738 27.8149L4.18498 25.3526L5.15757 23.1629C5.22667 23.0073 5.2146 22.8277 5.12531 22.6827C4.41524 21.5298 3.89647 20.2784 3.5835 18.9634C3.54408 18.7979 3.42563 18.6623 3.26679 18.6013L1.03226 17.7411V14.2589L3.26724 13.3986C3.42601 13.3375 3.54453 13.2019 3.58395 13.0364C3.71221 12.4974 3.87692 11.9642 4.07544 11.4448L5.74854 12.4731C5.35867 13.605 5.16131 14.7893 5.16131 16C5.16131 21.9765 10.0235 26.8387 16.0001 26.8387C21.9766 26.8387 26.8388 21.9765 26.8388 16C26.8388 14.7893 26.6415 13.605 26.2516 12.4731L27.9251 11.4447C28.1235 11.9641 28.2882 12.4973 28.4166 13.0366C28.4559 13.2021 28.5744 13.3377 28.7333 13.3987L30.9679 14.2589V17.741ZM9.40733 20.9478C9.39178 21.0934 9.43875 21.2388 9.53662 21.3477C9.63449 21.4566 9.77404 21.5188 9.92049 21.5188L22.0795 21.5187C22.226 21.5187 22.3655 21.4565 22.4634 21.3476C22.5613 21.2387 22.6083 21.0933 22.5927 20.9477C22.3101 18.3076 20.5131 16.1756 18.1168 15.3731C19.0194 14.7167 19.6078 13.6532 19.6078 12.4542C19.6078 10.4649 17.9893 8.8465 16 8.8465C14.0107 8.8465 12.3922 10.4649 12.3922 12.4542C12.3922 13.6531 12.9806 14.7167 13.8832 15.3731C11.487 16.1756 9.68985 18.3076 9.40733 20.9478ZM13.4246 12.4543C13.4246 11.0342 14.5799 9.87882 16.0001 9.87882C17.4202 9.87882 18.5756 11.0342 18.5756 12.4543C18.5756 13.8739 17.4211 15.0289 16.0017 15.0298C16.0012 15.0298 16.0006 15.0298 16.0001 15.0298C15.9995 15.0298 15.9989 15.0298 15.9984 15.0298C14.579 15.0289 13.4246 13.8739 13.4246 12.4543ZM15.9988 16.062H16.0001C16.0001 16.062 16.001 16.062 16.0015 16.062C18.6742 16.0627 20.9339 17.9279 21.4757 20.4865L10.5244 20.4866C11.0663 17.928 13.326 16.0627 15.9988 16.062ZM12.2286 3.64341L13.8055 4.91089L13.2748 6.86302C13.1997 7.13908 13.3007 7.42618 13.5322 7.59437C13.7636 7.7625 14.0679 7.77005 14.3074 7.61334L16.0001 6.50521L17.6928 7.61334C17.8076 7.68844 17.9374 7.72586 18.0668 7.72586C18.2072 7.72586 18.3474 7.68179 18.4679 7.59431C18.6993 7.42611 18.8003 7.13902 18.7253 6.86302L18.1945 4.91083L19.7714 3.64335C19.9944 3.46412 20.0814 3.17245 19.9929 2.90032C19.9045 2.62819 19.6627 2.44335 19.377 2.42948L17.3563 2.33096L16.6383 0.439806C16.5369 0.172645 16.2864 0 16.0001 0C15.7137 0 15.4632 0.172645 15.3619 0.439677L14.6438 2.33096L12.6231 2.42948C12.3373 2.44335 12.0956 2.62812 12.0071 2.90025C11.9187 3.17238 12.0056 3.46406 12.2286 3.64341ZM14.9224 3.35083C15.1936 3.33774 15.4311 3.16528 15.5275 2.91135L16.0001 1.66696L16.4725 2.91128C16.5688 3.16522 16.8064 3.33774 17.0775 3.35083L18.407 3.41567L17.3694 4.24967C17.158 4.41967 17.0673 4.69876 17.1385 4.96076L17.4877 6.24521L16.3739 5.51612C16.1467 5.36754 15.8534 5.36747 15.6262 5.51618L14.5125 6.24528L14.8617 4.96089C14.933 4.69883 14.8423 4.41967 14.6306 4.24967L13.5932 3.41574L14.9224 3.35083ZM20.7335 8.87276L22.7139 9.28611L23.1273 11.2666C23.1858 11.5466 23.4062 11.7564 23.6887 11.8012C23.7254 11.807 23.762 11.8098 23.7981 11.8098C24.0403 11.8098 24.2642 11.6822 24.388 11.4662L25.3931 9.7105L27.4043 9.92933C27.6885 9.95998 27.9565 9.81546 28.0864 9.5605C28.2163 9.30553 28.176 9.00385 27.9838 8.79205L26.6246 7.29353L27.4542 5.44838C27.5714 5.18786 27.5163 4.8887 27.3139 4.68625C27.1115 4.48386 26.8123 4.42864 26.5517 4.54586L24.7066 5.37547L23.208 4.01625C22.9962 3.82406 22.6945 3.78373 22.4395 3.91367C22.1845 4.0436 22.0398 4.31135 22.0708 4.59573L22.2896 6.60689L20.534 7.61205C20.2856 7.75418 20.1541 8.02863 20.1989 8.31121C20.2435 8.59385 20.4534 8.81424 20.7335 8.87276ZM23.0011 7.38908C23.2366 7.25418 23.3698 6.9927 23.3405 6.72289L23.1965 5.39954L24.1825 6.29386C24.3834 6.47612 24.6733 6.52218 24.9211 6.41076L26.1351 5.86489L25.5891 7.07921C25.4778 7.32689 25.5239 7.61676 25.7062 7.81747L26.6005 8.8034L25.2775 8.65953C25.0076 8.62927 24.746 8.76301 24.6109 8.99895L23.9496 10.1541L23.6776 8.85101C23.6221 8.58547 23.4147 8.37798 23.1489 8.32237L21.8458 8.05037L23.0011 7.38908ZM4.59582 9.92933L6.60706 9.7105L7.61216 11.4661C7.73584 11.6822 7.95971 11.8099 8.20203 11.8098C8.23816 11.8098 8.27468 11.807 8.31139 11.8012C8.59404 11.7565 8.81442 11.5466 8.87288 11.2665L9.28629 9.28618L11.2667 8.87276C11.5468 8.81431 11.7566 8.59392 11.8014 8.31134C11.8462 8.02876 11.7147 7.75431 11.4664 7.61211L9.71068 6.60695L9.92952 4.5958C9.96043 4.31141 9.81572 4.0436 9.56081 3.91373C9.30591 3.78386 9.00423 3.82412 8.79223 4.01631L7.29377 5.37554L5.4486 4.54593C5.18796 4.42877 4.88879 4.48393 4.68641 4.68631C4.48395 4.88883 4.42892 5.18799 4.54608 5.44844L5.3757 7.2936L4.0166 8.79205C3.82434 9.00392 3.78402 9.30559 3.91389 9.56056C4.04369 9.81553 4.31163 9.96056 4.59582 9.92933ZM6.2937 7.81779C6.47628 7.61682 6.52228 7.32682 6.41093 7.07908L5.86506 5.86502L7.07925 6.41102C7.32687 6.52225 7.61668 6.47624 7.81771 6.29399L8.80365 5.39967L8.65965 6.72308C8.63029 6.99315 8.76371 7.25463 8.99913 7.38921L10.1544 8.05056L8.85158 8.32256C8.58552 8.37792 8.3779 8.5856 8.32255 8.85134L8.05055 10.1543L7.38913 8.99895C7.26655 8.78508 7.03971 8.65566 6.79732 8.65566C6.77267 8.65566 6.74783 8.65702 6.72299 8.65966L5.39963 8.80359L6.2937 7.81779Z" fill="#6B7280"/>
<path d="M31.6694 13.4228L29.3548 12.5318C29.1732 11.8317 28.935 11.1427 28.6454 10.4801C28.5856 10.3433 28.4694 10.239 28.3269 10.1943C28.1844 10.1498 28.0295 10.1688 27.9022 10.2471L25.3515 11.8146C25.1389 11.9452 25.0502 12.2093 25.1407 12.4418C25.5826 13.5753 25.8066 14.7726 25.8066 16C25.8066 21.4072 21.4074 25.8064 16.0001 25.8064C10.5928 25.8064 6.19357 21.4072 6.19357 16C6.19357 14.7726 6.41757 13.5753 6.85932 12.4418C6.9499 12.2093 6.86119 11.9453 6.64861 11.8147L4.09821 10.2473C3.97092 10.1691 3.81602 10.1499 3.67356 10.1946C3.53105 10.2392 3.41492 10.3435 3.35505 10.4804C3.06537 11.143 2.82724 11.8318 2.64569 12.5318L0.330582 13.4229C0.131484 13.4995 0 13.691 0 13.9046V18.0955C0 18.3091 0.131484 18.5005 0.330711 18.5772L2.6453 19.4682C2.96575 20.7049 3.45582 21.8871 4.10505 22.9896L3.09769 25.2576C3.01098 25.4527 3.05343 25.681 3.2044 25.832L6.16796 28.7956C6.31893 28.9465 6.54738 28.9888 6.74241 28.9023L9.01139 27.8946C10.1141 28.5438 11.2961 29.0338 12.5317 29.354L13.4228 31.6693C13.4995 31.8685 13.691 32 13.9045 32H18.0955C18.309 32 18.5005 31.8685 18.5772 31.6693L19.4681 29.3547C20.7046 29.0344 21.8868 28.5443 22.9895 27.8949L25.2576 28.9023C25.4527 28.989 25.6811 28.9465 25.832 28.7956L28.7955 25.832C28.9465 25.681 28.989 25.4527 28.9023 25.2576L27.8946 22.9887C28.5439 21.8858 29.0339 20.7041 29.3541 19.4683L31.6693 18.5772C31.8686 18.5005 32 18.3091 32 18.0955V13.9046C32.0001 13.6909 31.8686 13.4995 31.6694 13.4228ZM30.9679 17.741L28.7326 18.6014C28.5739 18.6625 28.4553 18.798 28.4159 18.9636C28.1033 20.2773 27.5846 21.5284 26.8744 22.682C26.7851 22.8269 26.7731 23.0065 26.8422 23.162L27.8151 25.3526L25.3527 27.8149L23.163 26.8423C23.0074 26.7732 22.8278 26.7853 22.6829 26.8746C21.5296 27.5848 20.2783 28.1036 18.9636 28.4164C18.798 28.4557 18.6625 28.5742 18.6014 28.733L17.7412 30.9677H14.259L13.3986 28.7325C13.3375 28.5736 13.2021 28.4552 13.0364 28.4158C11.7227 28.1031 10.4717 27.5845 9.3181 26.8742C9.1732 26.785 8.99358 26.7729 8.83804 26.842L6.64738 27.8149L4.18498 25.3526L5.15757 23.1629C5.22667 23.0073 5.2146 22.8277 5.12531 22.6827C4.41524 21.5298 3.89647 20.2784 3.5835 18.9634C3.54408 18.7979 3.42563 18.6623 3.26679 18.6013L1.03226 17.7411V14.2589L3.26724 13.3986C3.42601 13.3375 3.54453 13.2019 3.58395 13.0364C3.71221 12.4974 3.87692 11.9642 4.07544 11.4448L5.74854 12.4731C5.35867 13.605 5.16131 14.7893 5.16131 16C5.16131 21.9765 10.0235 26.8387 16.0001 26.8387C21.9766 26.8387 26.8388 21.9765 26.8388 16C26.8388 14.7893 26.6415 13.605 26.2516 12.4731L27.9251 11.4447C28.1235 11.9641 28.2882 12.4973 28.4166 13.0366C28.4559 13.2021 28.5744 13.3377 28.7333 13.3987L30.9679 14.2589V17.741ZM9.40733 20.9478C9.39178 21.0934 9.43875 21.2388 9.53662 21.3477C9.63449 21.4566 9.77404 21.5188 9.92049 21.5188L22.0795 21.5187C22.226 21.5187 22.3655 21.4565 22.4634 21.3476C22.5613 21.2387 22.6083 21.0933 22.5927 20.9477C22.3101 18.3076 20.5131 16.1756 18.1168 15.3731C19.0194 14.7167 19.6078 13.6532 19.6078 12.4542C19.6078 10.4649 17.9893 8.8465 16 8.8465C14.0107 8.8465 12.3922 10.4649 12.3922 12.4542C12.3922 13.6531 12.9806 14.7167 13.8832 15.3731C11.487 16.1756 9.68985 18.3076 9.40733 20.9478ZM13.4246 12.4543C13.4246 11.0342 14.5799 9.87882 16.0001 9.87882C17.4202 9.87882 18.5756 11.0342 18.5756 12.4543C18.5756 13.8739 17.4211 15.0289 16.0017 15.0298C16.0012 15.0298 16.0006 15.0298 16.0001 15.0298C15.9995 15.0298 15.9989 15.0298 15.9984 15.0298C14.579 15.0289 13.4246 13.8739 13.4246 12.4543ZM15.9988 16.062H16.0001C16.0001 16.062 16.001 16.062 16.0015 16.062C18.6742 16.0627 20.9339 17.9279 21.4757 20.4865L10.5244 20.4866C11.0663 17.928 13.326 16.0627 15.9988 16.062ZM12.2286 3.64341L13.8055 4.91089L13.2748 6.86302C13.1997 7.13908 13.3007 7.42618 13.5322 7.59437C13.7636 7.7625 14.0679 7.77005 14.3074 7.61334L16.0001 6.50521L17.6928 7.61334C17.8076 7.68844 17.9374 7.72586 18.0668 7.72586C18.2072 7.72586 18.3474 7.68179 18.4679 7.59431C18.6993 7.42611 18.8003 7.13902 18.7253 6.86302L18.1945 4.91083L19.7714 3.64335C19.9944 3.46412 20.0814 3.17245 19.9929 2.90032C19.9045 2.62819 19.6627 2.44335 19.377 2.42948L17.3563 2.33096L16.6383 0.439806C16.5369 0.172645 16.2864 0 16.0001 0C15.7137 0 15.4632 0.172645 15.3619 0.439677L14.6438 2.33096L12.6231 2.42948C12.3373 2.44335 12.0956 2.62812 12.0071 2.90025C11.9187 3.17238 12.0056 3.46406 12.2286 3.64341ZM14.9224 3.35083C15.1936 3.33774 15.4311 3.16528 15.5275 2.91135L16.0001 1.66696L16.4725 2.91128C16.5688 3.16522 16.8064 3.33774 17.0775 3.35083L18.407 3.41567L17.3694 4.24967C17.158 4.41967 17.0673 4.69876 17.1385 4.96076L17.4877 6.24521L16.3739 5.51612C16.1467 5.36754 15.8534 5.36747 15.6262 5.51618L14.5125 6.24528L14.8617 4.96089C14.933 4.69883 14.8423 4.41967 14.6306 4.24967L13.5932 3.41574L14.9224 3.35083ZM20.7335 8.87276L22.7139 9.28611L23.1273 11.2666C23.1858 11.5466 23.4062 11.7564 23.6887 11.8012C23.7254 11.807 23.762 11.8098 23.7981 11.8098C24.0403 11.8098 24.2642 11.6822 24.388 11.4662L25.3931 9.7105L27.4043 9.92933C27.6885 9.95998 27.9565 9.81546 28.0864 9.5605C28.2163 9.30553 28.176 9.00385 27.9838 8.79205L26.6246 7.29353L27.4542 5.44838C27.5714 5.18786 27.5163 4.8887 27.3139 4.68625C27.1115 4.48386 26.8123 4.42864 26.5517 4.54586L24.7066 5.37547L23.208 4.01625C22.9962 3.82406 22.6945 3.78373 22.4395 3.91367C22.1845 4.0436 22.0398 4.31135 22.0708 4.59573L22.2896 6.60689L20.534 7.61205C20.2856 7.75418 20.1541 8.02863 20.1989 8.31121C20.2435 8.59385 20.4534 8.81424 20.7335 8.87276ZM23.0011 7.38908C23.2366 7.25418 23.3698 6.9927 23.3405 6.72289L23.1965 5.39954L24.1825 6.29386C24.3834 6.47612 24.6733 6.52218 24.9211 6.41076L26.1351 5.86489L25.5891 7.07921C25.4778 7.32689 25.5239 7.61676 25.7062 7.81747L26.6005 8.8034L25.2775 8.65953C25.0076 8.62927 24.746 8.76301 24.6109 8.99895L23.9496 10.1541L23.6776 8.85101C23.6221 8.58547 23.4147 8.37798 23.1489 8.32237L21.8458 8.05037L23.0011 7.38908ZM4.59582 9.92933L6.60706 9.7105L7.61216 11.4661C7.73584 11.6822 7.95971 11.8099 8.20203 11.8098C8.23816 11.8098 8.27468 11.807 8.31139 11.8012C8.59404 11.7565 8.81442 11.5466 8.87288 11.2665L9.28629 9.28618L11.2667 8.87276C11.5468 8.81431 11.7566 8.59392 11.8014 8.31134C11.8462 8.02876 11.7147 7.75431 11.4664 7.61211L9.71068 6.60695L9.92952 4.5958C9.96043 4.31141 9.81572 4.0436 9.56081 3.91373C9.30591 3.78386 9.00423 3.82412 8.79223 4.01631L7.29377 5.37554L5.4486 4.54593C5.18796 4.42877 4.88879 4.48393 4.68641 4.68631C4.48395 4.88883 4.42892 5.18799 4.54608 5.44844L5.3757 7.2936L4.0166 8.79205C3.82434 9.00392 3.78402 9.30559 3.91389 9.56056C4.04369 9.81553 4.31163 9.96056 4.59582 9.92933ZM6.2937 7.81779C6.47628 7.61682 6.52228 7.32682 6.41093 7.07908L5.86506 5.86502L7.07925 6.41102C7.32687 6.52225 7.61668 6.47624 7.81771 6.29399L8.80365 5.39967L8.65965 6.72308C8.63029 6.99315 8.76371 7.25463 8.99913 7.38921L10.1544 8.05056L8.85158 8.32256C8.58552 8.37792 8.3779 8.5856 8.32255 8.85134L8.05055 10.1543L7.38913 8.99895C7.26655 8.78508 7.03971 8.65566 6.79732 8.65566C6.77267 8.65566 6.74783 8.65702 6.72299 8.65966L5.39963 8.80359L6.2937 7.81779Z" fill="url(#paint0_linear_551_5194)"/>
<defs>
<linearGradient id="paint0_linear_551_5194" x1="0.635236" y1="16.4102" x2="31.7366" y2="16.4756" gradientUnits="userSpaceOnUse">
<stop stop-color="#4E54C8"/>
<stop offset="1" stop-color="#8F94FB"/>
</linearGradient>
</defs>
</svg>
