<svg width="26" height="26" viewBox="0 0 26 26" fill="none" xmlns="http://www.w3.org/2000/svg">
<path d="M13 6.09375C11.3196 6.09375 9.95312 7.46022 9.95312 9.14062C9.95312 10.8291 11.3172 12.1875 13 12.1875C14.713 12.1875 16.0469 10.8035 16.0469 9.14062C16.0469 7.46022 14.6804 6.09375 13 6.09375Z" fill="#1E3C72"/>
<path d="M13 0C7.95955 0 3.85938 4.10018 3.85938 9.14062C3.85938 10.8433 4.33098 12.5051 5.2229 13.9468L12.4793 25.6396C12.7802 26.1255 13.4896 26.1181 13.7811 25.6292L20.8523 13.8233C21.6943 12.4122 22.1406 10.7927 22.1406 9.14062C22.1406 4.10018 18.0404 0 13 0ZM13 13.7211C10.4434 13.7211 8.41953 11.6401 8.41953 9.14062C8.41953 6.6204 10.4798 4.56016 13 4.56016C15.5202 4.56016 17.5805 6.6204 17.5805 9.14062C17.5805 11.6181 15.5838 13.7211 13 13.7211Z" fill="#1E3C72"/>
</svg>
