<svg width="26" height="26" viewBox="0 0 26 26" fill="none" xmlns="http://www.w3.org/2000/svg">
<path d="M25.1637 18.72C25.0926 18.6637 19.9333 14.9448 18.5172 15.2117C17.8412 15.3313 17.4547 15.7924 16.679 16.7154C16.5542 16.8645 16.2543 17.2215 16.0212 17.4755C15.531 17.3156 15.0528 17.121 14.5903 16.8931C12.2031 15.7309 10.2743 13.8021 9.11213 11.4149C8.88408 10.9524 8.68945 10.4743 8.52973 9.984C8.78453 9.75 9.1416 9.45013 9.29413 9.32187C10.2128 8.55053 10.6747 8.164 10.7943 7.48627C11.0396 6.08227 7.32333 0.887467 7.28433 0.840667C7.11572 0.599795 6.89568 0.399414 6.64012 0.254023C6.38456 0.108631 6.09987 0.0218644 5.80667 0C4.3004 0 0 5.57873 0 6.5182C0 6.5728 0.0788667 12.1229 6.92293 19.0849C13.8779 25.9211 19.4272 26 19.4818 26C20.4221 26 26 21.6996 26 20.1933C25.9784 19.9012 25.8921 19.6174 25.7475 19.3626C25.6029 19.1078 25.4035 18.8883 25.1637 18.72Z" fill="#1E3C72"/>
</svg>
