<svg width="26" height="26" viewBox="0 0 26 26" fill="none" xmlns="http://www.w3.org/2000/svg">
<g clip-path="url(#clip0_352_4509)">
<path d="M15.1729 15.9297C14.526 16.3609 13.7747 16.5889 13 16.5889C12.2254 16.5889 11.474 16.3609 10.8272 15.9297L0.173113 8.82677C0.114004 8.78736 0.056418 8.74628 0 8.70403V20.3429C0 21.6774 1.08291 22.7364 2.39347 22.7364H23.6065C24.9409 22.7364 25.9999 21.6535 25.9999 20.3429V8.70398C25.9434 8.74633 25.8857 8.78752 25.8265 8.82697L15.1729 15.9297Z" fill="#1E3C72"/>
<path d="M1.01816 7.55924L11.6722 14.6622C12.0755 14.9311 12.5377 15.0655 12.9999 15.0655C13.4622 15.0655 13.9245 14.9311 14.3278 14.6622L24.9818 7.55924C25.6194 7.13445 26 6.42351 26 5.65621C26 4.33686 24.9266 3.26355 23.6073 3.26355H2.39266C1.07336 3.2636 0 4.33691 0 5.65748C0 6.42351 0.380656 7.13445 1.01816 7.55924Z" fill="#1E3C72"/>
</g>
<defs>
<clipPath id="clip0_352_4509">
<rect width="26" height="26" fill="white"/>
</clipPath>
</defs>
</svg>
