<svg width="18" height="18" viewBox="0 0 18 18" fill="none" xmlns="http://www.w3.org/2000/svg">
<path d="M17.2281 8.61411C17.2281 3.85669 13.3715 4.00543e-05 8.61407 4.00543e-05C3.85665 4.00543e-05 0 3.85669 0 8.61411C0 12.9136 3.15004 16.4773 7.26812 17.1235V11.1041H5.08096V8.61411H7.26812V6.71632C7.26812 4.55742 8.55414 3.36491 10.5218 3.36491C11.4642 3.36491 12.45 3.53316 12.45 3.53316V5.65302H11.3638C10.2937 5.65302 9.96002 6.31703 9.96002 6.99825V8.61411H12.3491L11.9672 11.1041H9.96002V17.1235C14.0781 16.4773 17.2281 12.9136 17.2281 8.61411Z" fill="#F5F4F4"/>
</svg>
