<svg width="21" height="18" viewBox="0 0 21 18" fill="none" xmlns="http://www.w3.org/2000/svg">
<g clip-path="url(#clip0_352_1846)">
<path d="M19.9695 16.8381C20.0146 16.8385 20.0592 16.8297 20.1008 16.8121C20.1423 16.7944 20.1797 16.7684 20.2108 16.7356C20.2419 16.7028 20.266 16.664 20.2815 16.6215C20.297 16.5789 20.3037 16.5336 20.3011 16.4884C20.3011 16.2404 20.1523 16.1219 19.847 16.1219H19.3537V17.4203H19.5392V16.8543H19.7672L19.7725 16.8612L20.1263 17.4203H20.3247L19.944 16.8417L19.9695 16.8381ZM19.7549 16.708H19.5398V16.2691H19.8125C19.9533 16.2691 20.1139 16.2922 20.1139 16.4777C20.1139 16.6909 19.9514 16.708 19.7538 16.708" fill="#F5F4F4"/>
<path d="M15.1294 15.211H12.4984V11.0685C12.4984 10.0807 12.4809 8.80904 11.13 8.80904C9.75966 8.80904 9.54999 9.88531 9.54999 10.9966V15.2107H6.91895V6.69206H9.44474V7.85622H9.4801C9.73288 7.4217 10.0981 7.06425 10.537 6.82193C10.9758 6.57961 11.4719 6.4615 11.9722 6.48017C14.6388 6.48017 15.1305 8.24363 15.1305 10.5378L15.1294 15.211ZM3.95028 5.52762C3.64831 5.52768 3.35309 5.4377 3.10197 5.26908C2.85086 5.10045 2.65514 4.86074 2.53952 4.58027C2.42391 4.2998 2.39361 3.99116 2.45247 3.69338C2.51133 3.3956 2.6567 3.12206 2.8702 2.90734C3.08369 2.69262 3.35572 2.54638 3.65188 2.48709C3.94804 2.42781 4.25503 2.45815 4.53404 2.57429C4.81305 2.69042 5.05154 2.88713 5.21936 3.13953C5.38717 3.39194 5.47678 3.68871 5.47683 3.99231C5.47687 4.19389 5.4374 4.39351 5.36071 4.57976C5.28401 4.76602 5.17159 4.93526 5.02983 5.07782C4.88808 5.22039 4.71977 5.33349 4.53455 5.41067C4.34932 5.48784 4.15079 5.52759 3.95028 5.52762ZM5.26579 15.211H2.63203V6.69206H5.26579V15.211ZM16.4411 0.00109421H1.30994C0.966508 -0.00280231 0.635568 0.130542 0.389873 0.371826C0.144177 0.613109 0.00382522 0.942591 -0.000366211 1.28787V16.5636C0.00368176 16.909 0.143951 17.2388 0.389639 17.4803C0.635326 17.7218 0.966338 17.8554 1.30994 17.8518H16.4411C16.7854 17.8561 17.1173 17.7229 17.364 17.4813C17.6106 17.2398 17.7518 16.9097 17.7566 16.5636V1.28677C17.7517 0.940804 17.6104 0.610947 17.3637 0.36967C17.1171 0.128392 16.7852 -0.00457125 16.4411 -8.39654e-06" fill="#F5F4F4"/>
<path d="M19.7774 15.5436C19.4573 15.5467 19.1515 15.6771 18.9267 15.9063C18.702 16.1355 18.5767 16.4449 18.5783 16.7667C18.5798 17.0886 18.7081 17.3967 18.935 17.6237C19.1619 17.8507 19.469 17.9782 19.7891 17.9782C20.1092 17.9782 20.4163 17.8507 20.6432 17.6237C20.8701 17.3967 20.9983 17.0886 20.9999 16.7667C21.0014 16.4449 20.8761 16.1355 20.6514 15.9063C20.4267 15.6771 20.1208 15.5467 19.8007 15.5436H19.7774ZM19.7774 17.8388C19.5675 17.8423 19.3612 17.7832 19.1847 17.6688C19.0082 17.5545 18.8693 17.3901 18.7858 17.1964C18.7022 17.0027 18.6776 16.7885 18.7151 16.5807C18.7527 16.373 18.8506 16.1812 18.9966 16.0294C19.1426 15.8777 19.3301 15.7728 19.5353 15.7282C19.7406 15.6836 19.9544 15.7011 20.1497 15.7787C20.345 15.8562 20.5131 15.9902 20.6326 16.1638C20.7522 16.3374 20.8178 16.5427 20.8213 16.7538C20.8213 16.7598 20.8213 16.7656 20.8213 16.7717C20.8272 17.0486 20.7235 17.3165 20.5329 17.5165C20.3423 17.7166 20.0805 17.8323 19.8051 17.8383H19.7777" fill="#F5F4F4"/>
</g>
<defs>
<clipPath id="clip0_352_1846">
<rect width="21" height="18" fill="white"/>
</clipPath>
</defs>
</svg>
