<svg width="304" height="184" viewBox="0 0 304 184" fill="none" xmlns="http://www.w3.org/2000/svg">
<path d="M-2.51371e-05 44.8891C2.67692 47.7323 5.57017 50.3644 8.65382 52.7618C19.817 61.4336 33.2111 66.7577 46.9669 67.2476C60.7227 67.7374 74.8355 63.4129 87.4607 52.7987C91.165 49.6837 94.7434 46.0258 98.1438 41.792C104.273 30.009 117.253 23.2664 132.288 15.458C140.824 11.0237 150.025 6.24334 159 -0.000919104H160.243C150.978 6.54974 141.449 11.5022 132.623 16.0849C117.685 23.8394 104.791 30.5404 98.7707 42.1438L98.7564 42.1722L98.7318 42.2024C95.2936 46.4854 91.6754 50.1867 87.9275 53.3377C75.1546 64.0767 60.8666 68.4599 46.9413 67.9549C33.016 67.45 19.4865 62.0804 8.20782 53.3179C5.9347 51.5508 3.76372 49.6564 1.70536 47.6438L1.8635 47.8254C6.59976 53.2671 12.0786 58.0167 18.1391 61.9348C28.7757 68.7843 40.8555 72.6909 52.9599 72.6143C65.0643 72.5377 77.182 68.4817 87.9219 59.4118C92.7786 55.3104 97.355 50.1801 101.516 43.9292C106.98 30.3494 121.051 23.4895 137.517 15.4646C146.5 11.0871 156.2 6.35871 165.591 -0.0018657H166.857C157.168 6.67835 147.12 11.5769 137.837 16.101C121.49 24.0673 107.524 30.8752 102.172 44.2262L102.158 44.2602L102.138 44.2905C97.9336 50.6104 93.3051 55.8002 88.3896 59.9508C77.5124 69.138 65.2234 73.246 52.9628 73.3235C40.7021 73.4011 28.4936 69.4519 17.7451 62.5296C13.375 59.7085 9.3023 56.4523 5.5896 52.811L5.78656 53.037C12.093 60.2364 19.5395 66.1638 27.5608 70.4316C37.494 75.7151 48.3115 78.4566 58.9454 77.9232C69.5792 77.3899 80.0208 73.5845 89.2277 65.7771C95.0256 60.8596 100.334 54.3534 104.888 46.0769C109.601 30.7343 124.678 23.8252 142.487 15.6679C152.017 11.3027 162.331 6.57433 172.242 0.000974083H173.529C163.313 6.90437 152.634 11.802 142.791 16.3109C125.131 24.4012 110.176 31.2525 105.569 46.3123L105.559 46.3435L105.539 46.3785C100.939 54.7515 95.5672 61.3343 89.6973 66.3123C80.3607 74.2295 69.76 78.0897 58.9813 78.6306C48.2026 79.1715 37.2639 76.3979 27.2209 71.0548C20.8453 67.6637 14.8334 63.236 9.45869 57.963L9.71341 58.2533C17.4355 67.0339 26.7664 73.9212 36.6863 78.2486C45.8315 82.2374 55.4778 84.055 64.8238 83.1783C74.1698 82.3017 83.2138 78.7346 91.1679 71.9589C97.7622 66.3445 103.614 58.5238 108.269 48.2037C112.183 31.14 128.213 24.2224 147.291 15.9904C157.44 11.6129 168.457 6.85897 178.952 -0.000919104H180.248C169.443 7.20509 158.05 12.1216 147.579 16.6429C128.667 24.8031 112.778 31.6592 108.961 48.4032L108.952 48.442L108.941 48.4685C104.239 58.9002 98.318 66.8145 91.6394 72.4979C83.5613 79.3739 74.3744 82.9949 64.892 83.8838C55.4096 84.7727 45.6497 82.9381 36.3965 78.8992C28.1053 75.282 20.2251 69.8964 13.3363 63.1235L13.6384 63.4677C22.6729 73.7056 33.7868 81.3721 45.3751 85.4688C53.7174 88.4192 62.3088 89.52 70.5469 88.4003C78.7851 87.2807 86.6606 83.9406 93.5986 78.0112C100.882 71.7887 107.131 62.7074 111.652 50.3428C114.727 31.5656 131.674 24.6641 151.99 16.3932C162.806 11.9892 174.582 7.19185 185.709 -0.00469971H187.015C175.577 7.55215 163.411 12.5084 152.264 17.0476C132.136 25.2428 115.35 32.0791 112.355 50.4922L112.349 50.5253L112.338 50.5565C107.772 63.0564 101.449 72.2445 94.0683 78.5483C87.0204 84.5694 79.0124 87.9606 70.6454 89.0973C62.2785 90.234 53.5839 89.119 45.1337 86.1317C35.1305 82.5949 25.4814 76.4291 17.1997 68.2585L17.5624 68.6699C27.8033 80.2354 40.5676 88.529 53.5754 92.1896C61.1507 94.3212 68.815 94.881 76.1063 93.5996C83.3975 92.3182 90.31 89.1975 96.4081 83.968C104.305 77.1998 110.839 66.8948 115.036 52.4772C117.253 32.0081 135.084 25.1416 156.6 16.8604C168.123 12.4242 180.711 7.57674 192.499 -0.000919104H193.813C181.711 7.95217 168.72 12.9548 156.857 17.5205C135.552 25.7213 117.895 32.5197 115.742 52.5869V52.6209L115.735 52.6474C111.497 67.223 104.882 77.649 96.8806 84.507C90.6774 89.8245 83.6409 92.9991 76.2322 94.3023C68.8236 95.6054 61.056 95.0333 53.3766 92.8753C41.9094 89.6486 30.6355 82.8634 21.0868 73.4351L21.4836 73.8871C32.8238 86.6537 47.0985 95.4541 61.2852 98.5436C68.1588 100.042 75.0154 100.197 81.5046 98.815C87.9938 97.4334 94.108 94.515 99.5197 89.8623C107.969 82.5967 114.703 71.0993 118.417 54.6182C119.754 32.4602 138.452 25.6419 161.151 17.3644C173.411 12.8942 186.846 7.99378 199.318 0.000974083H200.631C187.848 8.38245 174.002 13.4295 161.396 18.0302C138.931 26.2225 120.426 32.9718 119.13 54.6853V54.7089L119.123 54.7402C115.375 71.3972 108.555 83.0308 99.995 90.3919C94.4868 95.1278 88.2533 98.0991 81.659 99.5053C75.0647 100.912 68.1086 100.751 61.1337 99.2311C48.4261 96.4641 35.6617 89.1711 24.954 78.5796C25.1093 78.7573 25.2589 78.9209 25.4142 79.0997C37.7563 92.9547 53.4021 102.163 68.5556 104.609C74.8005 105.617 80.9602 105.476 86.7751 104.042C92.7304 102.575 98.2508 99.7137 102.88 95.6952C111.84 87.9701 118.707 75.2971 121.804 56.7431C122.259 32.9207 141.802 26.1573 165.662 17.9016C178.681 13.3964 192.994 8.44486 206.163 0.0028615H207.483C194.003 8.84109 179.271 13.9401 165.898 18.5673C142.288 26.737 122.951 33.4285 122.522 56.7828V56.8112V56.8339C119.397 75.5742 112.44 88.3928 103.358 96.2248C98.6414 100.318 93.0179 103.233 86.9513 104.727C81.0435 106.188 74.7815 106.335 68.441 105.309C54.7032 103.091 40.5771 95.3869 28.8259 83.7363C28.9983 83.933 29.1668 84.1146 29.3391 84.3141C38.8907 95.0068 50.3246 102.949 61.9329 107.219C71.6776 110.803 81.5453 111.798 90.5145 109.655C99.4837 107.512 107.549 102.239 113.729 93.2857C119.411 85.0583 123.488 73.7273 125.194 58.8633C124.757 33.3793 145.131 26.6783 170.139 18.4548C183.936 13.9156 199.156 8.91013 213.034 -0.0018657H214.354C200.169 9.32528 184.526 14.4669 170.368 19.1262C145.627 27.259 125.469 33.8919 125.915 58.8831V58.9276C124.195 73.9155 120.068 85.36 114.327 93.6791C108.037 102.791 99.8132 108.16 90.6869 110.34C81.5605 112.52 71.5592 111.513 61.6848 107.881C51.5168 104.141 41.4862 97.6131 32.7168 88.9063C32.9005 89.1162 33.0795 89.3101 33.2641 89.5228C43.4264 100.871 55.6198 109.145 67.8473 113.295C77.3997 116.537 86.9749 117.26 95.6023 114.962C104.23 112.664 111.915 107.355 117.727 98.5237C123.539 89.6921 127.471 77.353 128.584 60.9939C127.243 33.8531 148.442 27.2155 174.587 19.0326C189.173 14.4622 205.32 9.4085 219.909 2.74898e-05H221.221C206.326 9.835 189.751 15.0258 174.798 19.7069C148.936 27.8008 127.969 34.3647 129.297 60.9872V61.027C128.177 77.5195 124.2 89.9805 118.324 98.9086C112.409 107.892 104.57 113.308 95.7822 115.647C86.9939 117.986 77.2918 117.255 67.6077 113.966C56.7826 110.293 45.9878 103.42 36.5859 94.0677C36.7866 94.2966 36.9826 94.5084 37.1853 94.7392C47.911 106.686 60.7994 115.255 73.5695 119.275C82.9591 122.23 92.2852 122.722 100.633 120.288C108.981 117.854 116.34 112.497 121.837 103.749C127.753 94.3306 131.505 80.9844 131.968 63.133C129.716 34.3298 151.728 27.7649 179.006 19.6217C194.402 15.0296 211.492 9.92295 226.797 2.74898e-05H228.113C212.505 10.3655 194.977 15.597 179.214 20.2988C152.239 28.3474 130.471 34.8432 132.686 63.0914V63.1264C132.224 81.1253 128.431 94.5964 122.448 104.12C116.851 113.029 109.336 118.489 100.837 120.967C92.3373 123.446 82.8776 122.947 73.3526 119.949C61.9385 116.355 50.4373 109.168 40.4464 99.2103C40.669 99.4618 40.8858 99.6954 41.1093 99.9508C52.3615 112.455 65.891 121.293 79.1459 125.178C88.4019 127.892 97.5236 128.188 105.63 125.629C113.737 123.071 120.823 117.663 126.05 108.961C132.058 98.9578 135.597 84.6082 135.355 65.2522C132.196 34.8016 155.013 28.3077 183.409 20.2222C199.625 15.6055 217.676 10.4658 233.699 2.74898e-05H235.004C218.685 10.9131 200.195 16.1814 183.612 20.8993C155.533 28.894 132.969 35.3199 136.077 65.1908V65.2229C136.324 84.7292 132.747 99.2084 126.674 109.32C121.353 118.179 114.114 123.694 105.854 126.301C97.5927 128.908 88.3357 128.608 78.9432 125.855C67.0026 122.357 54.8471 114.879 44.3061 104.349C44.5513 104.626 44.7909 104.881 45.0371 105.161C56.7854 118.188 70.9096 127.272 84.5954 131.025C93.7444 133.533 102.698 133.658 110.605 130.985C118.513 128.311 125.367 122.845 130.356 114.165C136.437 103.586 139.738 88.2405 138.747 67.3819C134.676 35.2877 158.289 28.8609 187.798 20.8312C204.842 16.1975 223.862 11.0152 240.6 -0.00281229H241.902C224.872 11.4795 205.4 16.7791 187.989 21.5159C158.811 29.4548 135.46 35.8088 139.46 67.3005V67.3289C140.46 88.3427 137.123 103.823 130.977 114.518C125.895 123.361 118.893 128.935 110.834 131.66C102.776 134.385 93.6886 134.258 84.3993 131.71C71.9948 128.306 59.2332 120.572 48.1827 109.518C48.4431 109.81 48.696 110.081 48.9573 110.377C61.1725 123.9 75.8496 133.208 89.9312 136.834C98.996 139.169 107.812 139.144 115.551 136.361C123.29 133.578 129.944 128.05 134.728 119.366C140.871 108.213 143.913 91.8634 142.13 69.486C137.155 35.7709 161.56 29.4189 192.172 21.4507C210.048 16.7989 230.057 11.5911 247.512 -0.000919104H248.8C231.057 12.0583 210.601 17.3871 192.356 22.1353C162.083 30.0147 137.945 36.2967 142.847 69.4056V69.4274C144.641 91.9504 141.565 108.432 135.359 119.699C130.487 128.548 123.684 134.189 115.794 137.025C107.905 139.861 98.9534 139.885 89.7541 137.515C76.9064 134.205 63.572 126.215 52.0367 114.651C52.3207 114.967 52.5963 115.263 52.8813 115.584C65.5444 129.569 80.748 139.099 95.1875 142.603C104.189 144.788 112.895 144.63 120.488 141.747C128.081 138.865 134.573 133.265 139.173 124.556C145.365 112.83 148.129 95.4929 145.517 71.609C139.627 36.258 164.819 29.9778 196.536 22.0739C215.247 17.4108 236.246 12.1727 254.412 -0.0018657H255.705C237.254 12.655 215.797 18.0037 196.712 22.7604C165.347 30.5773 140.437 36.7866 146.231 71.5126V71.5315C148.854 95.5676 146.059 113.046 139.805 124.882C135.119 133.756 128.49 139.468 120.742 142.408C112.993 145.347 104.152 145.509 95.0086 143.29C81.7603 140.075 67.8871 131.847 55.8897 119.797C56.1955 120.136 56.4947 120.454 56.8015 120.799C69.8879 135.223 85.5877 144.959 100.36 148.349C109.315 150.404 117.929 150.127 125.408 147.147C132.888 144.167 139.228 138.493 143.665 129.747C149.896 117.461 152.365 99.128 148.903 73.733C142.099 36.7516 168.071 30.5452 200.889 22.7084C220.446 18.0359 242.453 12.7789 261.33 0.00192068H262.601C243.446 13.2649 220.987 18.6316 201.058 23.395C168.606 31.1495 142.918 37.2831 149.615 73.6233V73.6394C153.098 99.1885 150.6 117.659 144.312 130.064C139.792 138.98 133.311 144.77 125.682 147.808C118.053 150.847 109.3 151.13 100.2 149.038C86.564 145.908 72.1557 137.435 59.7076 124.894C60.0485 125.272 60.3837 125.626 60.7274 126.01C74.2238 140.857 90.3924 150.792 105.48 154.075C114.404 156.018 122.95 155.632 130.331 152.562C137.712 149.493 143.927 143.733 148.218 134.928C154.48 122.084 156.638 102.766 152.297 75.8655C144.574 37.2415 171.324 31.1107 205.238 23.3392C225.64 18.6638 248.653 13.385 268.235 2.74898e-05H269.515C249.658 13.8853 226.181 19.2671 205.401 24.0286C171.867 31.7131 145.411 37.7767 153.005 75.7302V75.7425C157.374 102.803 155.188 122.27 148.866 135.235C144.494 144.206 138.141 150.082 130.61 153.215C123.078 156.348 114.394 156.743 105.327 154.768C91.3412 151.725 76.4462 143.035 63.5796 130.051C63.9394 130.447 64.2926 130.821 64.6543 131.225C78.5465 146.483 95.1648 156.604 110.548 159.789C119.457 161.633 127.951 161.149 135.251 157.985C142.55 154.82 148.655 148.981 152.816 140.111C159.101 126.708 160.937 106.4 155.69 77.9866C147.045 37.7398 174.574 31.6819 209.579 23.9794C230.838 19.2993 254.867 14.0101 275.153 2.74898e-05H276.41C255.855 14.5132 231.364 19.9064 209.735 24.6659C175.12 32.2824 147.897 38.2723 156.395 77.8382V77.8476C161.675 106.422 159.812 126.876 153.469 140.405C149.231 149.445 142.99 155.404 135.54 158.633C128.091 161.863 119.456 162.356 110.402 160.481C96.0407 157.509 80.6287 148.566 67.3236 135.077C67.7431 135.534 68.156 135.97 68.5783 136.438C82.8521 152.091 99.9032 162.397 115.57 165.489C124.471 167.247 132.932 166.672 140.164 163.418C147.397 160.165 153.409 154.239 157.45 145.286C163.753 131.327 165.257 110.032 159.078 80.1021C149.514 38.2316 177.818 32.2512 213.911 24.6168C236.018 19.9423 261.067 14.6409 282.054 2.74898e-05H283.313C262.064 15.1563 236.545 20.5561 214.061 25.309C178.363 32.8554 150.378 38.7734 159.779 79.947V79.9555C165.993 110.043 164.466 131.485 158.106 145.572C153.988 154.695 147.844 160.741 140.461 164.062C133.079 167.382 124.478 167.969 115.428 166.183C100.742 163.284 84.8652 154.12 71.1596 140.198C71.6075 140.685 72.0497 141.152 72.5023 141.65C87.1492 157.687 104.618 168.173 120.555 171.18C129.468 172.861 137.898 172.2 145.08 168.861C152.263 165.522 158.189 159.499 162.125 150.462C168.439 135.946 169.601 113.664 162.472 82.2204C151.997 38.729 181.065 32.8186 218.246 25.2598C241.209 20.592 267.29 15.2839 288.968 2.74898e-05H290.209C268.272 15.8069 241.727 21.2076 218.382 25.953C181.611 33.4238 152.862 39.2747 163.166 82.0577V82.0634C170.332 113.668 169.151 136.097 162.781 150.739C158.774 159.951 152.714 166.091 145.384 169.501C138.055 172.911 129.476 173.584 120.421 171.876C105.39 169.039 89.026 159.63 74.9094 145.231C75.415 145.775 75.915 146.301 76.4244 146.862C91.434 163.272 109.31 173.935 125.509 176.863C134.435 178.475 142.852 177.736 149.989 174.31C157.126 170.884 162.987 164.771 166.819 155.634C173.14 140.565 173.95 117.296 165.853 84.3368C154.462 39.2283 184.296 33.3907 222.557 25.9048C246.38 21.2445 273.496 15.9393 295.867 0.000974083H297.098C274.467 16.466 246.892 21.8668 222.693 26.6008C184.848 34.0044 155.34 39.7778 166.549 84.1675C174.685 117.288 173.856 140.703 167.482 155.899C163.576 165.211 157.588 171.448 150.303 174.945C143.017 178.442 134.453 179.201 125.376 177.557C110.012 174.781 93.1706 165.126 78.6525 150.261C79.2207 150.867 79.7756 151.45 80.3465 152.072C95.7112 168.848 113.98 179.686 130.438 182.538C139.393 184.09 147.808 183.277 154.909 179.766C162.011 176.256 167.809 170.046 171.551 160.802C177.875 145.183 178.324 120.93 169.244 86.4523C159.585 49.7754 176.397 38.3261 203.143 31.5088C210.435 29.6487 218.457 28.1375 226.875 26.5526C251.556 21.9036 279.705 16.5947 302.761 0.000974083H304C280.69 17.1337 252.07 22.5278 227.016 27.2476C218.598 28.8326 210.581 30.3447 203.329 32.1925C176.993 38.9068 160.434 50.1792 169.944 86.2773C179.067 120.914 178.6 145.316 172.224 161.066C168.413 170.48 162.488 176.815 155.235 180.4C147.982 183.985 139.422 184.816 130.32 183.237C113.713 180.357 95.2936 169.44 79.821 152.548C41.8555 111.099 16.2301 109.625 0.00470828 118.756V117.856C15.8182 109.144 40.2949 110.399 75.9993 147.448L75.896 147.335C41.0496 109.093 16.5246 104.047 0.00470828 110.304V109.453C15.9365 103.545 39.1283 108.01 71.5639 141.682C39.7306 106.728 16.482 99.1394 0.00470828 102.703V101.87C15.7784 98.5389 37.6294 105.291 67.0841 135.863C38.0886 104.061 16.195 94.7032 0.00470828 95.8532V95.0238C15.429 93.9722 35.9391 102.341 62.698 130.139C36.2866 101.18 15.7481 90.6246 -2.51371e-05 89.6836V88.8552C14.8665 89.7602 33.9506 99.1432 58.114 124.208C34.2252 98.0651 15.1241 86.8154 -2.51371e-05 84.1174V83.2833C14.233 85.8205 31.9432 95.8484 53.7847 118.538C32.1553 94.8574 14.4262 83.2417 -2.51371e-05 79.1129V78.2675C13.4594 82.1069 29.7529 92.3892 49.3607 112.766C29.9139 91.4879 13.609 79.8562 -2.51371e-05 74.621V73.7557C12.5892 78.5786 27.4557 88.8108 44.9509 106.998C27.5779 87.9899 12.7047 76.622 -2.51371e-05 70.583V69.7044C11.6347 75.2073 25.0676 85.1387 40.5506 101.243C25.1623 84.4191 11.7218 73.5004 -2.51371e-05 66.9525V66.0617C10.6452 71.9797 22.7003 81.4761 36.3236 95.6792C22.7638 80.8321 10.7134 70.5404 -2.51371e-05 63.7325V62.8417C9.57327 68.894 20.2043 77.7001 32.017 90.0297C20.2573 77.1469 9.61967 67.6363 -2.51371e-05 60.8407V59.9423C8.40668 65.8508 17.5842 73.8115 27.6025 84.2687C17.6164 73.3358 8.44171 64.8276 -2.51371e-05 58.311V57.3842C7.18232 62.9013 14.8911 69.8463 23.1766 78.4944C14.9129 69.4519 7.20599 62.071 -2.51371e-05 56.0717V55.126C5.9286 60.0435 12.1905 65.8707 18.8256 72.8025C12.2038 65.5577 5.94754 59.3739 -2.51371e-05 54.0924V53.124C4.62281 57.2169 9.43218 61.8317 14.4603 67.0868C9.44165 61.5953 4.62944 56.7194 -2.51371e-05 52.3571V51.3707C3.26872 54.4366 6.62079 57.7398 10.0818 61.358C6.62553 57.5753 3.27251 54.099 -2.51371e-05 50.8544V49.8397C1.88149 51.6979 3.78289 53.6101 5.72596 55.6423C3.78479 53.5193 1.88339 51.5107 -2.51371e-05 49.5569V48.528C0.445024 48.9876 0.879658 49.4179 1.32565 49.887C0.877764 49.3971 0.44313 48.946 -2.51371e-05 48.4685V44.8891ZM-2.51371e-05 43.5652C11.3374 53.9552 25.8072 60.6998 41.1263 61.8365C56.7154 62.994 73.1945 58.3431 88.1595 45.8196C90.4729 43.8794 92.6832 41.8198 94.7813 39.6491C101.434 29.7347 113.175 23.2304 126.607 15.7889C134.858 11.2185 143.746 6.29062 152.483 0.00380809H153.701C144.686 6.58189 135.483 11.6828 126.961 16.4036C113.594 23.8092 101.912 30.2823 95.3618 40.0643L95.3409 40.0946L95.322 40.1154C93.2007 42.3111 90.9658 44.3944 88.6264 46.3568C73.5032 59.0127 56.8423 63.7098 41.0752 62.54C25.8091 61.4052 11.3809 54.7685 0.00186476 44.525L-2.51371e-05 43.5652ZM-2.51371e-05 41.7003C10.1187 49.7054 22.4314 55.0172 35.6674 56.4159C53.3036 58.2807 72.5847 53.2006 90.506 38.2779L91.4179 37.51C98.3 29.5957 108.532 23.5595 120.059 16.7601C128.312 11.8909 137.234 6.62634 146.055 0.00380809H147.237C138.147 6.91382 128.936 12.3495 120.429 17.3673C108.945 24.1411 98.7527 30.1537 91.9462 37.9904L91.9292 38.0103L91.9084 38.0273C91.5839 38.3053 91.2714 38.5692 90.9709 38.8189C72.8849 53.8739 53.4097 59.0042 35.5907 57.1204C22.4115 55.7274 10.1376 50.495 -2.51371e-05 42.6053V41.7003ZM-2.51371e-05 39.3617C10.1042 46.2474 21.8264 50.3931 34.0178 51.3925C50.9676 52.7892 69.6947 48.232 88.0573 35.3719C94.4679 29.7697 102.535 24.7548 111.417 19.234C120.318 13.7009 130.042 7.65617 139.723 0.00380809H140.869C130.938 7.93704 120.936 14.1501 111.8 19.8298C102.943 25.3355 94.8959 30.3371 88.525 35.9062L88.5146 35.9147L88.4938 35.9289C69.9731 48.9063 51.0746 53.5061 33.9582 52.0998C21.8081 51.1027 10.1167 47.0121 -2.51371e-05 40.2184V39.3617ZM-2.51371e-05 36.6022C8.46917 41.5528 18.2356 44.9014 28.8808 46.0958C45.8154 47.9937 64.9848 44.4427 84.7061 33.2347C87.9702 31.1287 91.4567 28.9735 95.0976 26.7228C106.792 19.4875 120.111 11.2526 133.495 2.74898e-05H134.602C120.966 11.559 107.384 19.9537 95.4801 27.3148C91.8516 29.5579 88.3783 31.7046 85.0915 33.8267L85.0745 33.8361C65.2035 45.134 45.8808 48.7096 28.7994 46.7918C18.2015 45.604 8.46538 42.3017 -0.00286865 37.4174L-2.51371e-05 36.6022ZM-2.51371e-05 33.4815C1.23854 34.1006 2.50298 34.6888 3.79331 35.2461C18.1864 41.4469 35.7696 43.602 55.3395 39.6482C74.9321 35.6896 96.5179 25.6059 118.877 7.33086C121.703 5.02154 124.541 2.5795 127.39 0.00475469H128.447C125.398 2.77872 122.362 5.40201 119.337 7.87463C96.8768 26.2301 75.1821 36.3601 55.4815 40.3414C35.7554 44.3264 18.0216 42.1504 3.5045 35.8967C2.31328 35.3829 1.14542 34.8423 0.000916922 34.2749L-2.51371e-05 33.4815Z" fill="#FB89C9"/>
</svg>
