<svg width="32" height="32" viewBox="0 0 32 32" fill="none" xmlns="http://www.w3.org/2000/svg">
<g clip-path="url(#clip0_551_4913)">
<path d="M1.9209 17.1454C1.9209 18.2031 2.78146 19.0636 3.83909 19.0636C4.89671 19.0636 5.75727 18.203 5.75727 17.1454C5.75727 17.0033 5.74127 16.8649 5.71184 16.7316L8.46771 15.3514C8.81977 15.7592 9.33984 16.0181 9.91959 16.0181C11.4076 16.0181 12.3297 14.3882 11.565 13.1152L15.0182 9.65613C15.81 10.1299 16.8364 9.97375 17.452 9.2605L20.2079 10.6408C19.9422 11.8444 20.8641 12.9727 22.0807 12.9727C23.7395 12.9727 24.6169 10.9959 23.501 9.76656L27.521 3.72619C28.7708 4.17006 30.0795 3.23537 30.0795 1.91825C30.0794 0.860562 29.2189 0 28.1612 0C27.1035 0 26.243 0.860562 26.243 1.91819C26.243 2.41344 26.4317 2.8655 26.741 3.20619L22.721 9.24656C21.9843 8.98488 21.1533 9.19538 20.6288 9.80306L17.873 8.42275C17.9024 8.28944 17.9184 8.15112 17.9184 8.00906C17.9184 6.95138 17.0578 6.09088 16.0002 6.09088C14.5127 6.09088 13.5898 7.72038 14.3548 8.99381L10.9016 12.4529C9.47202 11.5973 7.68327 12.8667 8.04696 14.5136L5.29109 15.8939C4.13534 14.5551 1.9209 15.3697 1.9209 17.1454ZM28.1612 0.9375C28.702 0.9375 29.1419 1.37744 29.1419 1.91819C29.1419 2.45894 28.702 2.89887 28.1612 2.89887C27.6205 2.89887 27.1805 2.45894 27.1805 1.91819C27.1805 1.37744 27.6204 0.9375 28.1612 0.9375ZM22.0807 10.0738C22.6215 10.0738 23.0614 10.5138 23.0614 11.0545C23.0614 11.5952 22.6215 12.0352 22.0807 12.0352C21.54 12.0352 21.1 11.5952 21.1 11.0545C21.1 10.5138 21.5399 10.0738 22.0807 10.0738ZM16.0001 7.02838C16.5409 7.02838 16.9808 7.46831 16.9808 8.00906C16.9808 8.54981 16.5409 8.98975 16.0001 8.98975C15.4594 8.98975 15.0195 8.54981 15.0195 8.00906C15.0195 7.46831 15.4593 7.02838 16.0001 7.02838ZM9.91959 13.1192C10.4603 13.1192 10.9003 13.5591 10.9003 14.0999C10.9003 14.6406 10.4603 15.0806 9.91959 15.0806C9.37884 15.0806 8.9389 14.6406 8.9389 14.0999C8.9389 13.5591 9.37884 13.1192 9.91959 13.1192ZM3.83909 18.1261C3.29834 18.1261 2.8584 17.6862 2.8584 17.1454C2.8584 16.6047 3.29834 16.1647 3.83909 16.1647C4.37984 16.1647 4.81977 16.6047 4.81977 17.1454C4.81977 17.6862 4.3799 18.1261 3.83909 18.1261Z" fill="black"/>
<path d="M1.9209 17.1454C1.9209 18.2031 2.78146 19.0636 3.83909 19.0636C4.89671 19.0636 5.75727 18.203 5.75727 17.1454C5.75727 17.0033 5.74127 16.8649 5.71184 16.7316L8.46771 15.3514C8.81977 15.7592 9.33984 16.0181 9.91959 16.0181C11.4076 16.0181 12.3297 14.3882 11.565 13.1152L15.0182 9.65613C15.81 10.1299 16.8364 9.97375 17.452 9.2605L20.2079 10.6408C19.9422 11.8444 20.8641 12.9727 22.0807 12.9727C23.7395 12.9727 24.6169 10.9959 23.501 9.76656L27.521 3.72619C28.7708 4.17006 30.0795 3.23537 30.0795 1.91825C30.0794 0.860562 29.2189 0 28.1612 0C27.1035 0 26.243 0.860562 26.243 1.91819C26.243 2.41344 26.4317 2.8655 26.741 3.20619L22.721 9.24656C21.9843 8.98488 21.1533 9.19538 20.6288 9.80306L17.873 8.42275C17.9024 8.28944 17.9184 8.15112 17.9184 8.00906C17.9184 6.95138 17.0578 6.09088 16.0002 6.09088C14.5127 6.09088 13.5898 7.72038 14.3548 8.99381L10.9016 12.4529C9.47202 11.5973 7.68327 12.8667 8.04696 14.5136L5.29109 15.8939C4.13534 14.5551 1.9209 15.3697 1.9209 17.1454ZM28.1612 0.9375C28.702 0.9375 29.1419 1.37744 29.1419 1.91819C29.1419 2.45894 28.702 2.89887 28.1612 2.89887C27.6205 2.89887 27.1805 2.45894 27.1805 1.91819C27.1805 1.37744 27.6204 0.9375 28.1612 0.9375ZM22.0807 10.0738C22.6215 10.0738 23.0614 10.5138 23.0614 11.0545C23.0614 11.5952 22.6215 12.0352 22.0807 12.0352C21.54 12.0352 21.1 11.5952 21.1 11.0545C21.1 10.5138 21.5399 10.0738 22.0807 10.0738ZM16.0001 7.02838C16.5409 7.02838 16.9808 7.46831 16.9808 8.00906C16.9808 8.54981 16.5409 8.98975 16.0001 8.98975C15.4594 8.98975 15.0195 8.54981 15.0195 8.00906C15.0195 7.46831 15.4593 7.02838 16.0001 7.02838ZM9.91959 13.1192C10.4603 13.1192 10.9003 13.5591 10.9003 14.0999C10.9003 14.6406 10.4603 15.0806 9.91959 15.0806C9.37884 15.0806 8.9389 14.6406 8.9389 14.0999C8.9389 13.5591 9.37884 13.1192 9.91959 13.1192ZM3.83909 18.1261C3.29834 18.1261 2.8584 17.6862 2.8584 17.1454C2.8584 16.6047 3.29834 16.1647 3.83909 16.1647C4.37984 16.1647 4.81977 16.6047 4.81977 17.1454C4.81977 17.6862 4.3799 18.1261 3.83909 18.1261Z" fill="url(#paint0_linear_551_4913)"/>
<path d="M1.9209 17.1454C1.9209 18.2031 2.78146 19.0636 3.83909 19.0636C4.89671 19.0636 5.75727 18.203 5.75727 17.1454C5.75727 17.0033 5.74127 16.8649 5.71184 16.7316L8.46771 15.3514C8.81977 15.7592 9.33984 16.0181 9.91959 16.0181C11.4076 16.0181 12.3297 14.3882 11.565 13.1152L15.0182 9.65613C15.81 10.1299 16.8364 9.97375 17.452 9.2605L20.2079 10.6408C19.9422 11.8444 20.8641 12.9727 22.0807 12.9727C23.7395 12.9727 24.6169 10.9959 23.501 9.76656L27.521 3.72619C28.7708 4.17006 30.0795 3.23537 30.0795 1.91825C30.0794 0.860562 29.2189 0 28.1612 0C27.1035 0 26.243 0.860562 26.243 1.91819C26.243 2.41344 26.4317 2.8655 26.741 3.20619L22.721 9.24656C21.9843 8.98488 21.1533 9.19538 20.6288 9.80306L17.873 8.42275C17.9024 8.28944 17.9184 8.15112 17.9184 8.00906C17.9184 6.95138 17.0578 6.09088 16.0002 6.09088C14.5127 6.09088 13.5898 7.72038 14.3548 8.99381L10.9016 12.4529C9.47202 11.5973 7.68327 12.8667 8.04696 14.5136L5.29109 15.8939C4.13534 14.5551 1.9209 15.3697 1.9209 17.1454ZM28.1612 0.9375C28.702 0.9375 29.1419 1.37744 29.1419 1.91819C29.1419 2.45894 28.702 2.89887 28.1612 2.89887C27.6205 2.89887 27.1805 2.45894 27.1805 1.91819C27.1805 1.37744 27.6204 0.9375 28.1612 0.9375ZM22.0807 10.0738C22.6215 10.0738 23.0614 10.5138 23.0614 11.0545C23.0614 11.5952 22.6215 12.0352 22.0807 12.0352C21.54 12.0352 21.1 11.5952 21.1 11.0545C21.1 10.5138 21.5399 10.0738 22.0807 10.0738ZM16.0001 7.02838C16.5409 7.02838 16.9808 7.46831 16.9808 8.00906C16.9808 8.54981 16.5409 8.98975 16.0001 8.98975C15.4594 8.98975 15.0195 8.54981 15.0195 8.00906C15.0195 7.46831 15.4593 7.02838 16.0001 7.02838ZM9.91959 13.1192C10.4603 13.1192 10.9003 13.5591 10.9003 14.0999C10.9003 14.6406 10.4603 15.0806 9.91959 15.0806C9.37884 15.0806 8.9389 14.6406 8.9389 14.0999C8.9389 13.5591 9.37884 13.1192 9.91959 13.1192ZM3.83909 18.1261C3.29834 18.1261 2.8584 17.6862 2.8584 17.1454C2.8584 16.6047 3.29834 16.1647 3.83909 16.1647C4.37984 16.1647 4.81977 16.6047 4.81977 17.1454C4.81977 17.6862 4.3799 18.1261 3.83909 18.1261Z" fill="url(#paint1_linear_551_4913)"/>
<path d="M31.1696 31.0625H30.5895V20.7621C30.5895 20.5032 30.3797 20.2934 30.1208 20.2934C29.8618 20.2934 29.652 20.5032 29.652 20.7621V31.0625H26.6702V7.70935H29.652V18.5747C29.652 18.8336 29.8618 19.0434 30.1208 19.0434C30.3797 19.0434 30.5895 18.8336 30.5895 18.5747V7.6326C30.5895 7.15798 30.2033 6.77185 29.7288 6.77185H26.5935C26.1189 6.77185 25.7328 7.15804 25.7328 7.6326V31.0625H24.509V16.8117C24.509 16.337 24.1229 15.9509 23.6483 15.9509H23.1744C22.9155 15.9509 22.7057 16.1607 22.7057 16.4197C22.7057 16.6786 22.9155 16.8884 23.1744 16.8884H23.5716V31.0625H20.5898V16.8884H20.9869C21.2459 16.8884 21.4557 16.6786 21.4557 16.4197C21.4557 16.1607 21.2459 15.9509 20.9869 15.9509H20.513C20.0384 15.9509 19.6523 16.3371 19.6523 16.8117V31.0625H18.4286V13.7397C18.4286 13.265 18.0424 12.879 17.5678 12.879H14.4326C13.9579 12.879 13.5719 13.2651 13.5719 13.7397V31.0625H12.3481V19.8571C12.3481 19.3825 11.9619 18.9964 11.4874 18.9964H8.35213C7.8775 18.9964 7.49138 19.3825 7.49138 19.8571V31.0625H6.26763V22.9025C6.26763 22.4279 5.8815 22.0418 5.40694 22.0418H2.27138C1.79675 22.0418 1.41063 22.4279 1.41063 22.9025V31.0625H0.830566C0.571629 31.0625 0.361816 31.2724 0.361816 31.5313C0.361816 31.7902 0.571629 32 0.830566 32H31.1696C31.4286 32 31.6384 31.7902 31.6384 31.5313C31.6384 31.2724 31.4285 31.0625 31.1696 31.0625ZM2.34813 31.0625V22.9793H5.32988V31.0625H2.34813ZM8.42863 31.0625V19.9338H11.4104V31.0625H8.42863ZM14.5092 31.0625V13.8165H17.4909V31.0625H14.5092Z" fill="black"/>
<path d="M31.1696 31.0625H30.5895V20.7621C30.5895 20.5032 30.3797 20.2934 30.1208 20.2934C29.8618 20.2934 29.652 20.5032 29.652 20.7621V31.0625H26.6702V7.70935H29.652V18.5747C29.652 18.8336 29.8618 19.0434 30.1208 19.0434C30.3797 19.0434 30.5895 18.8336 30.5895 18.5747V7.6326C30.5895 7.15798 30.2033 6.77185 29.7288 6.77185H26.5935C26.1189 6.77185 25.7328 7.15804 25.7328 7.6326V31.0625H24.509V16.8117C24.509 16.337 24.1229 15.9509 23.6483 15.9509H23.1744C22.9155 15.9509 22.7057 16.1607 22.7057 16.4197C22.7057 16.6786 22.9155 16.8884 23.1744 16.8884H23.5716V31.0625H20.5898V16.8884H20.9869C21.2459 16.8884 21.4557 16.6786 21.4557 16.4197C21.4557 16.1607 21.2459 15.9509 20.9869 15.9509H20.513C20.0384 15.9509 19.6523 16.3371 19.6523 16.8117V31.0625H18.4286V13.7397C18.4286 13.265 18.0424 12.879 17.5678 12.879H14.4326C13.9579 12.879 13.5719 13.2651 13.5719 13.7397V31.0625H12.3481V19.8571C12.3481 19.3825 11.9619 18.9964 11.4874 18.9964H8.35213C7.8775 18.9964 7.49138 19.3825 7.49138 19.8571V31.0625H6.26763V22.9025C6.26763 22.4279 5.8815 22.0418 5.40694 22.0418H2.27138C1.79675 22.0418 1.41063 22.4279 1.41063 22.9025V31.0625H0.830566C0.571629 31.0625 0.361816 31.2724 0.361816 31.5313C0.361816 31.7902 0.571629 32 0.830566 32H31.1696C31.4286 32 31.6384 31.7902 31.6384 31.5313C31.6384 31.2724 31.4285 31.0625 31.1696 31.0625ZM2.34813 31.0625V22.9793H5.32988V31.0625H2.34813ZM8.42863 31.0625V19.9338H11.4104V31.0625H8.42863ZM14.5092 31.0625V13.8165H17.4909V31.0625H14.5092Z" fill="url(#paint2_linear_551_4913)"/>
<path d="M31.1696 31.0625H30.5895V20.7621C30.5895 20.5032 30.3797 20.2934 30.1208 20.2934C29.8618 20.2934 29.652 20.5032 29.652 20.7621V31.0625H26.6702V7.70935H29.652V18.5747C29.652 18.8336 29.8618 19.0434 30.1208 19.0434C30.3797 19.0434 30.5895 18.8336 30.5895 18.5747V7.6326C30.5895 7.15798 30.2033 6.77185 29.7288 6.77185H26.5935C26.1189 6.77185 25.7328 7.15804 25.7328 7.6326V31.0625H24.509V16.8117C24.509 16.337 24.1229 15.9509 23.6483 15.9509H23.1744C22.9155 15.9509 22.7057 16.1607 22.7057 16.4197C22.7057 16.6786 22.9155 16.8884 23.1744 16.8884H23.5716V31.0625H20.5898V16.8884H20.9869C21.2459 16.8884 21.4557 16.6786 21.4557 16.4197C21.4557 16.1607 21.2459 15.9509 20.9869 15.9509H20.513C20.0384 15.9509 19.6523 16.3371 19.6523 16.8117V31.0625H18.4286V13.7397C18.4286 13.265 18.0424 12.879 17.5678 12.879H14.4326C13.9579 12.879 13.5719 13.2651 13.5719 13.7397V31.0625H12.3481V19.8571C12.3481 19.3825 11.9619 18.9964 11.4874 18.9964H8.35213C7.8775 18.9964 7.49138 19.3825 7.49138 19.8571V31.0625H6.26763V22.9025C6.26763 22.4279 5.8815 22.0418 5.40694 22.0418H2.27138C1.79675 22.0418 1.41063 22.4279 1.41063 22.9025V31.0625H0.830566C0.571629 31.0625 0.361816 31.2724 0.361816 31.5313C0.361816 31.7902 0.571629 32 0.830566 32H31.1696C31.4286 32 31.6384 31.7902 31.6384 31.5313C31.6384 31.2724 31.4285 31.0625 31.1696 31.0625ZM2.34813 31.0625V22.9793H5.32988V31.0625H2.34813ZM8.42863 31.0625V19.9338H11.4104V31.0625H8.42863ZM14.5092 31.0625V13.8165H17.4909V31.0625H14.5092Z" fill="url(#paint3_linear_551_4913)"/>
</g>
<defs>
<linearGradient id="paint0_linear_551_4913" x1="5.61671" y1="3.81271" x2="18.3893" y2="20.8093" gradientUnits="userSpaceOnUse">
<stop stop-color="#1E3C72"/>
<stop offset="1" stop-color="#2A5298"/>
</linearGradient>
<linearGradient id="paint1_linear_551_4913" x1="2.47988" y1="9.77618" x2="29.8475" y2="9.86112" gradientUnits="userSpaceOnUse">
<stop stop-color="#4E54C8"/>
<stop offset="1" stop-color="#8F94FB"/>
</linearGradient>
<linearGradient id="paint2_linear_551_4913" x1="4.46686" y1="11.8175" x2="21.9573" y2="31.3524" gradientUnits="userSpaceOnUse">
<stop stop-color="#1E3C72"/>
<stop offset="1" stop-color="#2A5298"/>
</linearGradient>
<linearGradient id="paint3_linear_551_4913" x1="0.982691" y1="19.7094" x2="31.3809" y2="19.7886" gradientUnits="userSpaceOnUse">
<stop stop-color="#4E54C8"/>
<stop offset="1" stop-color="#8F94FB"/>
</linearGradient>
<clipPath id="clip0_551_4913">
<rect width="32" height="32" fill="white"/>
</clipPath>
</defs>
</svg>
