<svg width="32" height="33" viewBox="0 0 32 33" fill="none" xmlns="http://www.w3.org/2000/svg">
<path d="M3.71152 19.7687H8.52011V17.7058C8.51651 16.9508 8.75824 16.2151 9.20891 15.6094C9.65958 15.0037 10.2948 14.5607 11.019 14.3472L13.863 13.494V13.1301C13.6653 13.0019 13.4815 12.8715 13.3132 12.7524C13.2186 12.6856 13.1289 12.622 13.0461 12.5659C12.7108 12.3361 12.4265 12.0397 12.2107 11.6951C11.995 11.3506 11.8525 10.9654 11.7921 10.5634L11.7574 10.0703C11.5492 10.0022 11.3574 9.89196 11.1937 9.74651C11.03 9.60106 10.898 9.42348 10.8059 9.22482C10.7137 9.02616 10.6635 8.81067 10.6583 8.59176C10.653 8.37285 10.6929 8.15519 10.7753 7.95235C10.436 7.8611 10.136 7.66086 9.92161 7.38244C9.7072 7.10403 9.59022 6.76287 9.58869 6.41146V5.87717C9.58869 5.59377 9.70127 5.32197 9.90167 5.12157C10.1021 4.92118 10.3739 4.80859 10.6573 4.80859V4.27431C10.6584 3.35247 10.9994 2.46343 11.6152 1.77739C12.2309 1.09136 13.0781 0.656545 13.9944 0.556194C14.0864 0.387936 14.2219 0.247515 14.3868 0.149655C14.5517 0.0517959 14.7398 0.000103914 14.9316 0L17.0687 0C17.2605 0.000103914 17.4486 0.0517959 17.6135 0.149655C17.7784 0.247515 17.9139 0.387936 18.0059 0.556194C18.9222 0.656545 19.7694 1.09136 20.3851 1.77739C21.0009 2.46343 21.3419 3.35247 21.343 4.27431V4.80859C21.6264 4.80859 21.8982 4.92118 22.0986 5.12157C22.299 5.32197 22.4116 5.59377 22.4116 5.87717V6.41146C22.4101 6.76279 22.2932 7.1039 22.0789 7.38231C21.8646 7.66072 21.5647 7.861 21.2255 7.95235C21.308 8.15529 21.3479 8.37306 21.3426 8.59209C21.3374 8.81112 21.287 9.02671 21.1948 9.22545C21.1026 9.42418 20.9704 9.6018 20.8066 9.74724C20.6427 9.89268 20.4507 10.0028 20.2424 10.0708L20.2029 10.612C20.1382 11.0051 19.9943 11.3808 19.7799 11.7165C19.5656 12.0522 19.2852 12.3409 18.9558 12.5649C18.8714 12.622 18.7817 12.6856 18.6887 12.7524C18.5204 12.8715 18.3366 13.0019 18.1389 13.1301V13.494L20.9829 14.3488C21.7065 14.5625 22.3412 15.0054 22.7915 15.6107C23.2419 16.2161 23.4835 16.9513 23.4802 17.7058V19.7687H28.2888C29.2293 19.7759 30.1326 20.1373 30.8186 20.7807C31.5046 21.4242 31.923 22.3025 31.9904 23.2406C32.0578 24.1787 31.7692 25.1078 31.1822 25.8427C30.5952 26.5776 29.7529 27.0644 28.8231 27.206V30.9887C28.8231 31.2721 28.7105 31.5439 28.5101 31.7443C28.3097 31.9447 28.0379 32.0573 27.7545 32.0573H4.24581C3.9624 32.0573 3.69061 31.9447 3.49021 31.7443C3.28981 31.5439 3.17723 31.2721 3.17723 30.9887V27.206C2.2474 27.0644 1.40506 26.5776 0.818068 25.8427C0.231073 25.1078 -0.057476 24.1787 0.00991631 23.2406C0.0773106 22.3025 0.495703 21.4242 1.18172 20.7807C1.86773 20.1373 2.77099 19.7759 3.71152 19.7687ZM9.58869 17.7058V19.7687H10.6573V15.6904C10.327 15.9125 10.0567 16.2126 9.87029 16.5641C9.68388 16.9157 9.58715 17.3079 9.58869 17.7058ZM20.2745 15.2481L19.5345 15.0263L19.3208 16.759C19.2729 17.1476 19.0844 17.5051 18.791 17.7643C18.4976 18.0234 18.1195 18.1663 17.728 18.1658H14.2723C13.8816 18.1658 13.5043 18.0231 13.2114 17.7646C12.9185 17.506 12.7301 17.1494 12.6817 16.7617L12.468 15.029L11.7258 15.2507V19.7687H20.2745V15.2481ZM17.5106 15.3993C17.2545 15.6567 16.9367 15.8443 16.5876 15.9442C16.2384 16.0441 15.8695 16.0529 15.516 15.9698C15.1624 15.8868 14.8361 15.7146 14.568 15.4696C14.2998 15.2247 14.0989 14.9152 13.9843 14.5706L13.5034 14.7148L13.7417 16.6265C13.7579 16.7558 13.8207 16.8747 13.9184 16.9609C14.0161 17.0471 14.142 17.0946 14.2723 17.0946H17.728C17.8583 17.0946 17.9842 17.0471 18.0819 16.9609C18.1796 16.8747 18.2424 16.7558 18.2586 16.6265L18.4969 14.7148L18.016 14.5706C17.9146 14.8833 17.7415 15.1679 17.5106 15.4019V15.3993ZM20.2745 4.27431C20.2737 3.6587 20.0607 3.06218 19.6714 2.58529C19.2821 2.1084 18.7403 1.7803 18.1373 1.65629V3.20573C18.1373 3.34743 18.081 3.48333 17.9808 3.58353C17.8806 3.68373 17.7447 3.74002 17.603 3.74002C17.4613 3.74002 17.3254 3.68373 17.2252 3.58353C17.125 3.48333 17.0687 3.34743 17.0687 3.20573V1.06858H14.9316V3.20573C14.9316 3.34743 14.8753 3.48333 14.7751 3.58353C14.6749 3.68373 14.539 3.74002 14.3973 3.74002C14.2556 3.74002 14.1197 3.68373 14.0195 3.58353C13.9193 3.48333 13.863 3.34743 13.863 3.20573V1.65629C13.26 1.7803 12.7182 2.1084 12.3289 2.58529C11.9396 3.06218 11.7266 3.6587 11.7258 4.27431V4.80859H20.2745V4.27431ZM21.343 5.87717H10.6573V6.41146C10.6573 6.55316 10.7136 6.68906 10.8138 6.78926C10.914 6.88946 11.0499 6.94575 11.1916 6.94575H20.8087C20.9504 6.94575 21.0863 6.88946 21.1865 6.78926C21.2867 6.68906 21.343 6.55316 21.343 6.41146V5.87717ZM19.1434 10.4881L19.2059 9.57979C19.2154 9.44467 19.2758 9.31819 19.375 9.22594C19.4742 9.1337 19.6047 9.08257 19.7402 9.0829C19.8819 9.0829 20.0178 9.02661 20.118 8.92641C20.2182 8.82621 20.2745 8.69031 20.2745 8.54861C20.2745 8.40691 20.2182 8.27101 20.118 8.17081C20.0178 8.07062 19.8819 8.01432 19.7402 8.01432H12.2601C12.1184 8.01432 11.9825 8.07062 11.8823 8.17081C11.7821 8.27101 11.7258 8.40691 11.7258 8.54861C11.7258 8.69031 11.7821 8.82621 11.8823 8.92641C11.9825 9.02661 12.1184 9.0829 12.2601 9.0829C12.3956 9.08257 12.5261 9.1337 12.6253 9.22594C12.7245 9.31819 12.7849 9.44467 12.7944 9.57979L12.8527 10.4389C12.894 10.689 12.9857 10.9281 13.1223 11.1416C13.2589 11.3552 13.4374 11.5387 13.6471 11.6811C13.7369 11.7421 13.8315 11.8094 13.9319 11.8799C14.5234 12.2999 15.2623 12.8229 16.0001 12.8229C16.738 12.8229 17.4769 12.2999 18.07 11.8799C18.1704 11.8094 18.265 11.7421 18.3558 11.6801C18.5593 11.5432 18.7337 11.3675 18.8688 11.1629C19.004 10.9583 19.0973 10.7289 19.1434 10.4881ZM16.0001 13.8915C15.6344 13.8866 15.2725 13.8162 14.9316 13.6837V13.8915C14.9316 14.1749 15.0442 14.4467 15.2446 14.6471C15.4449 14.8475 15.7167 14.9601 16.0001 14.9601C16.2836 14.9601 16.5553 14.8475 16.7557 14.6471C16.9561 14.4467 17.0687 14.1749 17.0687 13.8915V13.6837C16.7278 13.8162 16.3659 13.8866 16.0001 13.8915ZM22.4116 17.7058C22.4131 17.3079 22.3164 16.9157 22.13 16.5641C21.9436 16.2126 21.6733 15.9125 21.343 15.6904V19.7687H22.4116V17.7058ZM27.7545 30.9887V27.2487H4.24581V30.9887H27.7545ZM3.71152 26.1801H28.2888C28.9973 26.1801 29.6768 25.8987 30.1778 25.3977C30.6788 24.8967 30.9602 24.2172 30.9602 23.5087C30.9602 22.8002 30.6788 22.1207 30.1778 21.6197C29.6768 21.1187 28.9973 20.8372 28.2888 20.8372H3.71152C3.00301 20.8372 2.32351 21.1187 1.82252 21.6197C1.32153 22.1207 1.04008 22.8002 1.04008 23.5087C1.04008 24.2172 1.32153 24.8967 1.82252 25.3977C2.32351 25.8987 3.00301 26.1801 3.71152 26.1801Z" fill="black"/>
<path d="M3.71152 19.7687H8.52011V17.7058C8.51651 16.9508 8.75824 16.2151 9.20891 15.6094C9.65958 15.0037 10.2948 14.5607 11.019 14.3472L13.863 13.494V13.1301C13.6653 13.0019 13.4815 12.8715 13.3132 12.7524C13.2186 12.6856 13.1289 12.622 13.0461 12.5659C12.7108 12.3361 12.4265 12.0397 12.2107 11.6951C11.995 11.3506 11.8525 10.9654 11.7921 10.5634L11.7574 10.0703C11.5492 10.0022 11.3574 9.89196 11.1937 9.74651C11.03 9.60106 10.898 9.42348 10.8059 9.22482C10.7137 9.02616 10.6635 8.81067 10.6583 8.59176C10.653 8.37285 10.6929 8.15519 10.7753 7.95235C10.436 7.8611 10.136 7.66086 9.92161 7.38244C9.7072 7.10403 9.59022 6.76287 9.58869 6.41146V5.87717C9.58869 5.59377 9.70127 5.32197 9.90167 5.12157C10.1021 4.92118 10.3739 4.80859 10.6573 4.80859V4.27431C10.6584 3.35247 10.9994 2.46343 11.6152 1.77739C12.2309 1.09136 13.0781 0.656545 13.9944 0.556194C14.0864 0.387936 14.2219 0.247515 14.3868 0.149655C14.5517 0.0517959 14.7398 0.000103914 14.9316 0L17.0687 0C17.2605 0.000103914 17.4486 0.0517959 17.6135 0.149655C17.7784 0.247515 17.9139 0.387936 18.0059 0.556194C18.9222 0.656545 19.7694 1.09136 20.3851 1.77739C21.0009 2.46343 21.3419 3.35247 21.343 4.27431V4.80859C21.6264 4.80859 21.8982 4.92118 22.0986 5.12157C22.299 5.32197 22.4116 5.59377 22.4116 5.87717V6.41146C22.4101 6.76279 22.2932 7.1039 22.0789 7.38231C21.8646 7.66072 21.5647 7.861 21.2255 7.95235C21.308 8.15529 21.3479 8.37306 21.3426 8.59209C21.3374 8.81112 21.287 9.02671 21.1948 9.22545C21.1026 9.42418 20.9704 9.6018 20.8066 9.74724C20.6427 9.89268 20.4507 10.0028 20.2424 10.0708L20.2029 10.612C20.1382 11.0051 19.9943 11.3808 19.7799 11.7165C19.5656 12.0522 19.2852 12.3409 18.9558 12.5649C18.8714 12.622 18.7817 12.6856 18.6887 12.7524C18.5204 12.8715 18.3366 13.0019 18.1389 13.1301V13.494L20.9829 14.3488C21.7065 14.5625 22.3412 15.0054 22.7915 15.6107C23.2419 16.2161 23.4835 16.9513 23.4802 17.7058V19.7687H28.2888C29.2293 19.7759 30.1326 20.1373 30.8186 20.7807C31.5046 21.4242 31.923 22.3025 31.9904 23.2406C32.0578 24.1787 31.7692 25.1078 31.1822 25.8427C30.5952 26.5776 29.7529 27.0644 28.8231 27.206V30.9887C28.8231 31.2721 28.7105 31.5439 28.5101 31.7443C28.3097 31.9447 28.0379 32.0573 27.7545 32.0573H4.24581C3.9624 32.0573 3.69061 31.9447 3.49021 31.7443C3.28981 31.5439 3.17723 31.2721 3.17723 30.9887V27.206C2.2474 27.0644 1.40506 26.5776 0.818068 25.8427C0.231073 25.1078 -0.057476 24.1787 0.00991631 23.2406C0.0773106 22.3025 0.495703 21.4242 1.18172 20.7807C1.86773 20.1373 2.77099 19.7759 3.71152 19.7687ZM9.58869 17.7058V19.7687H10.6573V15.6904C10.327 15.9125 10.0567 16.2126 9.87029 16.5641C9.68388 16.9157 9.58715 17.3079 9.58869 17.7058ZM20.2745 15.2481L19.5345 15.0263L19.3208 16.759C19.2729 17.1476 19.0844 17.5051 18.791 17.7643C18.4976 18.0234 18.1195 18.1663 17.728 18.1658H14.2723C13.8816 18.1658 13.5043 18.0231 13.2114 17.7646C12.9185 17.506 12.7301 17.1494 12.6817 16.7617L12.468 15.029L11.7258 15.2507V19.7687H20.2745V15.2481ZM17.5106 15.3993C17.2545 15.6567 16.9367 15.8443 16.5876 15.9442C16.2384 16.0441 15.8695 16.0529 15.516 15.9698C15.1624 15.8868 14.8361 15.7146 14.568 15.4696C14.2998 15.2247 14.0989 14.9152 13.9843 14.5706L13.5034 14.7148L13.7417 16.6265C13.7579 16.7558 13.8207 16.8747 13.9184 16.9609C14.0161 17.0471 14.142 17.0946 14.2723 17.0946H17.728C17.8583 17.0946 17.9842 17.0471 18.0819 16.9609C18.1796 16.8747 18.2424 16.7558 18.2586 16.6265L18.4969 14.7148L18.016 14.5706C17.9146 14.8833 17.7415 15.1679 17.5106 15.4019V15.3993ZM20.2745 4.27431C20.2737 3.6587 20.0607 3.06218 19.6714 2.58529C19.2821 2.1084 18.7403 1.7803 18.1373 1.65629V3.20573C18.1373 3.34743 18.081 3.48333 17.9808 3.58353C17.8806 3.68373 17.7447 3.74002 17.603 3.74002C17.4613 3.74002 17.3254 3.68373 17.2252 3.58353C17.125 3.48333 17.0687 3.34743 17.0687 3.20573V1.06858H14.9316V3.20573C14.9316 3.34743 14.8753 3.48333 14.7751 3.58353C14.6749 3.68373 14.539 3.74002 14.3973 3.74002C14.2556 3.74002 14.1197 3.68373 14.0195 3.58353C13.9193 3.48333 13.863 3.34743 13.863 3.20573V1.65629C13.26 1.7803 12.7182 2.1084 12.3289 2.58529C11.9396 3.06218 11.7266 3.6587 11.7258 4.27431V4.80859H20.2745V4.27431ZM21.343 5.87717H10.6573V6.41146C10.6573 6.55316 10.7136 6.68906 10.8138 6.78926C10.914 6.88946 11.0499 6.94575 11.1916 6.94575H20.8087C20.9504 6.94575 21.0863 6.88946 21.1865 6.78926C21.2867 6.68906 21.343 6.55316 21.343 6.41146V5.87717ZM19.1434 10.4881L19.2059 9.57979C19.2154 9.44467 19.2758 9.31819 19.375 9.22594C19.4742 9.1337 19.6047 9.08257 19.7402 9.0829C19.8819 9.0829 20.0178 9.02661 20.118 8.92641C20.2182 8.82621 20.2745 8.69031 20.2745 8.54861C20.2745 8.40691 20.2182 8.27101 20.118 8.17081C20.0178 8.07062 19.8819 8.01432 19.7402 8.01432H12.2601C12.1184 8.01432 11.9825 8.07062 11.8823 8.17081C11.7821 8.27101 11.7258 8.40691 11.7258 8.54861C11.7258 8.69031 11.7821 8.82621 11.8823 8.92641C11.9825 9.02661 12.1184 9.0829 12.2601 9.0829C12.3956 9.08257 12.5261 9.1337 12.6253 9.22594C12.7245 9.31819 12.7849 9.44467 12.7944 9.57979L12.8527 10.4389C12.894 10.689 12.9857 10.9281 13.1223 11.1416C13.2589 11.3552 13.4374 11.5387 13.6471 11.6811C13.7369 11.7421 13.8315 11.8094 13.9319 11.8799C14.5234 12.2999 15.2623 12.8229 16.0001 12.8229C16.738 12.8229 17.4769 12.2999 18.07 11.8799C18.1704 11.8094 18.265 11.7421 18.3558 11.6801C18.5593 11.5432 18.7337 11.3675 18.8688 11.1629C19.004 10.9583 19.0973 10.7289 19.1434 10.4881ZM16.0001 13.8915C15.6344 13.8866 15.2725 13.8162 14.9316 13.6837V13.8915C14.9316 14.1749 15.0442 14.4467 15.2446 14.6471C15.4449 14.8475 15.7167 14.9601 16.0001 14.9601C16.2836 14.9601 16.5553 14.8475 16.7557 14.6471C16.9561 14.4467 17.0687 14.1749 17.0687 13.8915V13.6837C16.7278 13.8162 16.3659 13.8866 16.0001 13.8915ZM22.4116 17.7058C22.4131 17.3079 22.3164 16.9157 22.13 16.5641C21.9436 16.2126 21.6733 15.9125 21.343 15.6904V19.7687H22.4116V17.7058ZM27.7545 30.9887V27.2487H4.24581V30.9887H27.7545ZM3.71152 26.1801H28.2888C28.9973 26.1801 29.6768 25.8987 30.1778 25.3977C30.6788 24.8967 30.9602 24.2172 30.9602 23.5087C30.9602 22.8002 30.6788 22.1207 30.1778 21.6197C29.6768 21.1187 28.9973 20.8372 28.2888 20.8372H3.71152C3.00301 20.8372 2.32351 21.1187 1.82252 21.6197C1.32153 22.1207 1.04008 22.8002 1.04008 23.5087C1.04008 24.2172 1.32153 24.8967 1.82252 25.3977C2.32351 25.8987 3.00301 26.1801 3.71152 26.1801Z" fill="url(#paint0_linear_551_2035)"/>
<path d="M3.71152 19.7687H8.52011V17.7058C8.51651 16.9508 8.75824 16.2151 9.20891 15.6094C9.65958 15.0037 10.2948 14.5607 11.019 14.3472L13.863 13.494V13.1301C13.6653 13.0019 13.4815 12.8715 13.3132 12.7524C13.2186 12.6856 13.1289 12.622 13.0461 12.5659C12.7108 12.3361 12.4265 12.0397 12.2107 11.6951C11.995 11.3506 11.8525 10.9654 11.7921 10.5634L11.7574 10.0703C11.5492 10.0022 11.3574 9.89196 11.1937 9.74651C11.03 9.60106 10.898 9.42348 10.8059 9.22482C10.7137 9.02616 10.6635 8.81067 10.6583 8.59176C10.653 8.37285 10.6929 8.15519 10.7753 7.95235C10.436 7.8611 10.136 7.66086 9.92161 7.38244C9.7072 7.10403 9.59022 6.76287 9.58869 6.41146V5.87717C9.58869 5.59377 9.70127 5.32197 9.90167 5.12157C10.1021 4.92118 10.3739 4.80859 10.6573 4.80859V4.27431C10.6584 3.35247 10.9994 2.46343 11.6152 1.77739C12.2309 1.09136 13.0781 0.656545 13.9944 0.556194C14.0864 0.387936 14.2219 0.247515 14.3868 0.149655C14.5517 0.0517959 14.7398 0.000103914 14.9316 0L17.0687 0C17.2605 0.000103914 17.4486 0.0517959 17.6135 0.149655C17.7784 0.247515 17.9139 0.387936 18.0059 0.556194C18.9222 0.656545 19.7694 1.09136 20.3851 1.77739C21.0009 2.46343 21.3419 3.35247 21.343 4.27431V4.80859C21.6264 4.80859 21.8982 4.92118 22.0986 5.12157C22.299 5.32197 22.4116 5.59377 22.4116 5.87717V6.41146C22.4101 6.76279 22.2932 7.1039 22.0789 7.38231C21.8646 7.66072 21.5647 7.861 21.2255 7.95235C21.308 8.15529 21.3479 8.37306 21.3426 8.59209C21.3374 8.81112 21.287 9.02671 21.1948 9.22545C21.1026 9.42418 20.9704 9.6018 20.8066 9.74724C20.6427 9.89268 20.4507 10.0028 20.2424 10.0708L20.2029 10.612C20.1382 11.0051 19.9943 11.3808 19.7799 11.7165C19.5656 12.0522 19.2852 12.3409 18.9558 12.5649C18.8714 12.622 18.7817 12.6856 18.6887 12.7524C18.5204 12.8715 18.3366 13.0019 18.1389 13.1301V13.494L20.9829 14.3488C21.7065 14.5625 22.3412 15.0054 22.7915 15.6107C23.2419 16.2161 23.4835 16.9513 23.4802 17.7058V19.7687H28.2888C29.2293 19.7759 30.1326 20.1373 30.8186 20.7807C31.5046 21.4242 31.923 22.3025 31.9904 23.2406C32.0578 24.1787 31.7692 25.1078 31.1822 25.8427C30.5952 26.5776 29.7529 27.0644 28.8231 27.206V30.9887C28.8231 31.2721 28.7105 31.5439 28.5101 31.7443C28.3097 31.9447 28.0379 32.0573 27.7545 32.0573H4.24581C3.9624 32.0573 3.69061 31.9447 3.49021 31.7443C3.28981 31.5439 3.17723 31.2721 3.17723 30.9887V27.206C2.2474 27.0644 1.40506 26.5776 0.818068 25.8427C0.231073 25.1078 -0.057476 24.1787 0.00991631 23.2406C0.0773106 22.3025 0.495703 21.4242 1.18172 20.7807C1.86773 20.1373 2.77099 19.7759 3.71152 19.7687ZM9.58869 17.7058V19.7687H10.6573V15.6904C10.327 15.9125 10.0567 16.2126 9.87029 16.5641C9.68388 16.9157 9.58715 17.3079 9.58869 17.7058ZM20.2745 15.2481L19.5345 15.0263L19.3208 16.759C19.2729 17.1476 19.0844 17.5051 18.791 17.7643C18.4976 18.0234 18.1195 18.1663 17.728 18.1658H14.2723C13.8816 18.1658 13.5043 18.0231 13.2114 17.7646C12.9185 17.506 12.7301 17.1494 12.6817 16.7617L12.468 15.029L11.7258 15.2507V19.7687H20.2745V15.2481ZM17.5106 15.3993C17.2545 15.6567 16.9367 15.8443 16.5876 15.9442C16.2384 16.0441 15.8695 16.0529 15.516 15.9698C15.1624 15.8868 14.8361 15.7146 14.568 15.4696C14.2998 15.2247 14.0989 14.9152 13.9843 14.5706L13.5034 14.7148L13.7417 16.6265C13.7579 16.7558 13.8207 16.8747 13.9184 16.9609C14.0161 17.0471 14.142 17.0946 14.2723 17.0946H17.728C17.8583 17.0946 17.9842 17.0471 18.0819 16.9609C18.1796 16.8747 18.2424 16.7558 18.2586 16.6265L18.4969 14.7148L18.016 14.5706C17.9146 14.8833 17.7415 15.1679 17.5106 15.4019V15.3993ZM20.2745 4.27431C20.2737 3.6587 20.0607 3.06218 19.6714 2.58529C19.2821 2.1084 18.7403 1.7803 18.1373 1.65629V3.20573C18.1373 3.34743 18.081 3.48333 17.9808 3.58353C17.8806 3.68373 17.7447 3.74002 17.603 3.74002C17.4613 3.74002 17.3254 3.68373 17.2252 3.58353C17.125 3.48333 17.0687 3.34743 17.0687 3.20573V1.06858H14.9316V3.20573C14.9316 3.34743 14.8753 3.48333 14.7751 3.58353C14.6749 3.68373 14.539 3.74002 14.3973 3.74002C14.2556 3.74002 14.1197 3.68373 14.0195 3.58353C13.9193 3.48333 13.863 3.34743 13.863 3.20573V1.65629C13.26 1.7803 12.7182 2.1084 12.3289 2.58529C11.9396 3.06218 11.7266 3.6587 11.7258 4.27431V4.80859H20.2745V4.27431ZM21.343 5.87717H10.6573V6.41146C10.6573 6.55316 10.7136 6.68906 10.8138 6.78926C10.914 6.88946 11.0499 6.94575 11.1916 6.94575H20.8087C20.9504 6.94575 21.0863 6.88946 21.1865 6.78926C21.2867 6.68906 21.343 6.55316 21.343 6.41146V5.87717ZM19.1434 10.4881L19.2059 9.57979C19.2154 9.44467 19.2758 9.31819 19.375 9.22594C19.4742 9.1337 19.6047 9.08257 19.7402 9.0829C19.8819 9.0829 20.0178 9.02661 20.118 8.92641C20.2182 8.82621 20.2745 8.69031 20.2745 8.54861C20.2745 8.40691 20.2182 8.27101 20.118 8.17081C20.0178 8.07062 19.8819 8.01432 19.7402 8.01432H12.2601C12.1184 8.01432 11.9825 8.07062 11.8823 8.17081C11.7821 8.27101 11.7258 8.40691 11.7258 8.54861C11.7258 8.69031 11.7821 8.82621 11.8823 8.92641C11.9825 9.02661 12.1184 9.0829 12.2601 9.0829C12.3956 9.08257 12.5261 9.1337 12.6253 9.22594C12.7245 9.31819 12.7849 9.44467 12.7944 9.57979L12.8527 10.4389C12.894 10.689 12.9857 10.9281 13.1223 11.1416C13.2589 11.3552 13.4374 11.5387 13.6471 11.6811C13.7369 11.7421 13.8315 11.8094 13.9319 11.8799C14.5234 12.2999 15.2623 12.8229 16.0001 12.8229C16.738 12.8229 17.4769 12.2999 18.07 11.8799C18.1704 11.8094 18.265 11.7421 18.3558 11.6801C18.5593 11.5432 18.7337 11.3675 18.8688 11.1629C19.004 10.9583 19.0973 10.7289 19.1434 10.4881ZM16.0001 13.8915C15.6344 13.8866 15.2725 13.8162 14.9316 13.6837V13.8915C14.9316 14.1749 15.0442 14.4467 15.2446 14.6471C15.4449 14.8475 15.7167 14.9601 16.0001 14.9601C16.2836 14.9601 16.5553 14.8475 16.7557 14.6471C16.9561 14.4467 17.0687 14.1749 17.0687 13.8915V13.6837C16.7278 13.8162 16.3659 13.8866 16.0001 13.8915ZM22.4116 17.7058C22.4131 17.3079 22.3164 16.9157 22.13 16.5641C21.9436 16.2126 21.6733 15.9125 21.343 15.6904V19.7687H22.4116V17.7058ZM27.7545 30.9887V27.2487H4.24581V30.9887H27.7545ZM3.71152 26.1801H28.2888C28.9973 26.1801 29.6768 25.8987 30.1778 25.3977C30.6788 24.8967 30.9602 24.2172 30.9602 23.5087C30.9602 22.8002 30.6788 22.1207 30.1778 21.6197C29.6768 21.1187 28.9973 20.8372 28.2888 20.8372H3.71152C3.00301 20.8372 2.32351 21.1187 1.82252 21.6197C1.32153 22.1207 1.04008 22.8002 1.04008 23.5087C1.04008 24.2172 1.32153 24.8967 1.82252 25.3977C2.32351 25.8987 3.00301 26.1801 3.71152 26.1801Z" fill="url(#paint1_linear_551_2035)"/>
<path d="M16.0016 21.9056C16.3186 21.9056 16.6285 21.9996 16.8921 22.1758C17.1557 22.3519 17.3612 22.6022 17.4825 22.8951C17.6038 23.188 17.6355 23.5103 17.5737 23.8212C17.5118 24.1321 17.3592 24.4177 17.135 24.6419C16.9109 24.8661 16.6253 25.0187 16.3143 25.0806C16.0034 25.1424 15.6811 25.1107 15.3882 24.9894C15.0954 24.868 14.845 24.6626 14.6689 24.399C14.4928 24.1354 14.3988 23.8255 14.3988 23.5085C14.3988 23.0834 14.5676 22.6757 14.8682 22.3751C15.1688 22.0745 15.5765 21.9056 16.0016 21.9056ZM16.0016 24.0428C16.1073 24.0428 16.2106 24.0115 16.2985 23.9527C16.3863 23.894 16.4548 23.8106 16.4952 23.713C16.5357 23.6153 16.5463 23.5079 16.5256 23.4043C16.505 23.3006 16.4541 23.2054 16.3794 23.1307C16.3047 23.056 16.2095 23.0051 16.1059 22.9845C16.0022 22.9639 15.8948 22.9744 15.7972 23.0149C15.6995 23.0553 15.6161 23.1238 15.5574 23.2117C15.4987 23.2995 15.4673 23.4028 15.4673 23.5085C15.4673 23.6502 15.5236 23.7861 15.6238 23.8863C15.724 23.9865 15.8599 24.0428 16.0016 24.0428Z" fill="black"/>
<path d="M16.0016 21.9056C16.3186 21.9056 16.6285 21.9996 16.8921 22.1758C17.1557 22.3519 17.3612 22.6022 17.4825 22.8951C17.6038 23.188 17.6355 23.5103 17.5737 23.8212C17.5118 24.1321 17.3592 24.4177 17.135 24.6419C16.9109 24.8661 16.6253 25.0187 16.3143 25.0806C16.0034 25.1424 15.6811 25.1107 15.3882 24.9894C15.0954 24.868 14.845 24.6626 14.6689 24.399C14.4928 24.1354 14.3988 23.8255 14.3988 23.5085C14.3988 23.0834 14.5676 22.6757 14.8682 22.3751C15.1688 22.0745 15.5765 21.9056 16.0016 21.9056ZM16.0016 24.0428C16.1073 24.0428 16.2106 24.0115 16.2985 23.9527C16.3863 23.894 16.4548 23.8106 16.4952 23.713C16.5357 23.6153 16.5463 23.5079 16.5256 23.4043C16.505 23.3006 16.4541 23.2054 16.3794 23.1307C16.3047 23.056 16.2095 23.0051 16.1059 22.9845C16.0022 22.9639 15.8948 22.9744 15.7972 23.0149C15.6995 23.0553 15.6161 23.1238 15.5574 23.2117C15.4987 23.2995 15.4673 23.4028 15.4673 23.5085C15.4673 23.6502 15.5236 23.7861 15.6238 23.8863C15.724 23.9865 15.8599 24.0428 16.0016 24.0428Z" fill="url(#paint2_linear_551_2035)"/>
<path d="M16.0016 21.9056C16.3186 21.9056 16.6285 21.9996 16.8921 22.1758C17.1557 22.3519 17.3612 22.6022 17.4825 22.8951C17.6038 23.188 17.6355 23.5103 17.5737 23.8212C17.5118 24.1321 17.3592 24.4177 17.135 24.6419C16.9109 24.8661 16.6253 25.0187 16.3143 25.0806C16.0034 25.1424 15.6811 25.1107 15.3882 24.9894C15.0954 24.868 14.845 24.6626 14.6689 24.399C14.4928 24.1354 14.3988 23.8255 14.3988 23.5085C14.3988 23.0834 14.5676 22.6757 14.8682 22.3751C15.1688 22.0745 15.5765 21.9056 16.0016 21.9056ZM16.0016 24.0428C16.1073 24.0428 16.2106 24.0115 16.2985 23.9527C16.3863 23.894 16.4548 23.8106 16.4952 23.713C16.5357 23.6153 16.5463 23.5079 16.5256 23.4043C16.505 23.3006 16.4541 23.2054 16.3794 23.1307C16.3047 23.056 16.2095 23.0051 16.1059 22.9845C16.0022 22.9639 15.8948 22.9744 15.7972 23.0149C15.6995 23.0553 15.6161 23.1238 15.5574 23.2117C15.4987 23.2995 15.4673 23.4028 15.4673 23.5085C15.4673 23.6502 15.5236 23.7861 15.6238 23.8863C15.724 23.9865 15.8599 24.0428 16.0016 24.0428Z" fill="url(#paint3_linear_551_2035)"/>
<path d="M21.3444 21.9056C21.6614 21.9056 21.9713 21.9996 22.2349 22.1758C22.4985 22.3519 22.7039 22.6022 22.8253 22.8951C22.9466 23.188 22.9783 23.5103 22.9165 23.8212C22.8546 24.1321 22.702 24.4177 22.4778 24.6419C22.2536 24.8661 21.968 25.0187 21.6571 25.0806C21.3462 25.1424 21.0239 25.1107 20.731 24.9894C20.4381 24.868 20.1878 24.6626 20.0117 24.399C19.8355 24.1354 19.7415 23.8255 19.7415 23.5085C19.7415 23.0834 19.9104 22.6757 20.211 22.3751C20.5116 22.0745 20.9193 21.9056 21.3444 21.9056ZM21.3444 24.0428C21.4501 24.0428 21.5534 24.0115 21.6412 23.9527C21.7291 23.894 21.7976 23.8106 21.838 23.713C21.8785 23.6153 21.889 23.5079 21.8684 23.4043C21.8478 23.3006 21.7969 23.2054 21.7222 23.1307C21.6475 23.056 21.5523 23.0051 21.4486 22.9845C21.345 22.9639 21.2376 22.9744 21.1399 23.0149C21.0423 23.0553 20.9589 23.1238 20.9002 23.2117C20.8414 23.2995 20.8101 23.4028 20.8101 23.5085C20.8101 23.6502 20.8664 23.7861 20.9666 23.8863C21.0668 23.9865 21.2027 24.0428 21.3444 24.0428Z" fill="black"/>
<path d="M21.3444 21.9056C21.6614 21.9056 21.9713 21.9996 22.2349 22.1758C22.4985 22.3519 22.7039 22.6022 22.8253 22.8951C22.9466 23.188 22.9783 23.5103 22.9165 23.8212C22.8546 24.1321 22.702 24.4177 22.4778 24.6419C22.2536 24.8661 21.968 25.0187 21.6571 25.0806C21.3462 25.1424 21.0239 25.1107 20.731 24.9894C20.4381 24.868 20.1878 24.6626 20.0117 24.399C19.8355 24.1354 19.7415 23.8255 19.7415 23.5085C19.7415 23.0834 19.9104 22.6757 20.211 22.3751C20.5116 22.0745 20.9193 21.9056 21.3444 21.9056ZM21.3444 24.0428C21.4501 24.0428 21.5534 24.0115 21.6412 23.9527C21.7291 23.894 21.7976 23.8106 21.838 23.713C21.8785 23.6153 21.889 23.5079 21.8684 23.4043C21.8478 23.3006 21.7969 23.2054 21.7222 23.1307C21.6475 23.056 21.5523 23.0051 21.4486 22.9845C21.345 22.9639 21.2376 22.9744 21.1399 23.0149C21.0423 23.0553 20.9589 23.1238 20.9002 23.2117C20.8414 23.2995 20.8101 23.4028 20.8101 23.5085C20.8101 23.6502 20.8664 23.7861 20.9666 23.8863C21.0668 23.9865 21.2027 24.0428 21.3444 24.0428Z" fill="url(#paint4_linear_551_2035)"/>
<path d="M21.3444 21.9056C21.6614 21.9056 21.9713 21.9996 22.2349 22.1758C22.4985 22.3519 22.7039 22.6022 22.8253 22.8951C22.9466 23.188 22.9783 23.5103 22.9165 23.8212C22.8546 24.1321 22.702 24.4177 22.4778 24.6419C22.2536 24.8661 21.968 25.0187 21.6571 25.0806C21.3462 25.1424 21.0239 25.1107 20.731 24.9894C20.4381 24.868 20.1878 24.6626 20.0117 24.399C19.8355 24.1354 19.7415 23.8255 19.7415 23.5085C19.7415 23.0834 19.9104 22.6757 20.211 22.3751C20.5116 22.0745 20.9193 21.9056 21.3444 21.9056ZM21.3444 24.0428C21.4501 24.0428 21.5534 24.0115 21.6412 23.9527C21.7291 23.894 21.7976 23.8106 21.838 23.713C21.8785 23.6153 21.889 23.5079 21.8684 23.4043C21.8478 23.3006 21.7969 23.2054 21.7222 23.1307C21.6475 23.056 21.5523 23.0051 21.4486 22.9845C21.345 22.9639 21.2376 22.9744 21.1399 23.0149C21.0423 23.0553 20.9589 23.1238 20.9002 23.2117C20.8414 23.2995 20.8101 23.4028 20.8101 23.5085C20.8101 23.6502 20.8664 23.7861 20.9666 23.8863C21.0668 23.9865 21.2027 24.0428 21.3444 24.0428Z" fill="url(#paint5_linear_551_2035)"/>
<path d="M26.6872 21.9056C27.0042 21.9056 27.3141 21.9996 27.5777 22.1758C27.8413 22.3519 28.0467 22.6022 28.168 22.8951C28.2893 23.188 28.3211 23.5103 28.2592 23.8212C28.1974 24.1321 28.0447 24.4177 27.8206 24.6419C27.5964 24.8661 27.3108 25.0187 26.9999 25.0806C26.689 25.1424 26.3667 25.1107 26.0738 24.9894C25.7809 24.868 25.5306 24.6626 25.3544 24.399C25.1783 24.1354 25.0843 23.8255 25.0843 23.5085C25.0843 23.0834 25.2532 22.6757 25.5538 22.3751C25.8544 22.0745 26.2621 21.9056 26.6872 21.9056ZM26.6872 24.0428C26.7928 24.0428 26.8961 24.0115 26.984 23.9527C27.0719 23.894 27.1404 23.8106 27.1808 23.713C27.2212 23.6153 27.2318 23.5079 27.2112 23.4043C27.1906 23.3006 27.1397 23.2054 27.065 23.1307C26.9903 23.056 26.895 23.0051 26.7914 22.9845C26.6878 22.9639 26.5803 22.9744 26.4827 23.0149C26.3851 23.0553 26.3016 23.1238 26.2429 23.2117C26.1842 23.2995 26.1529 23.4028 26.1529 23.5085C26.1529 23.6502 26.2092 23.7861 26.3094 23.8863C26.4096 23.9865 26.5455 24.0428 26.6872 24.0428Z" fill="black"/>
<path d="M26.6872 21.9056C27.0042 21.9056 27.3141 21.9996 27.5777 22.1758C27.8413 22.3519 28.0467 22.6022 28.168 22.8951C28.2893 23.188 28.3211 23.5103 28.2592 23.8212C28.1974 24.1321 28.0447 24.4177 27.8206 24.6419C27.5964 24.8661 27.3108 25.0187 26.9999 25.0806C26.689 25.1424 26.3667 25.1107 26.0738 24.9894C25.7809 24.868 25.5306 24.6626 25.3544 24.399C25.1783 24.1354 25.0843 23.8255 25.0843 23.5085C25.0843 23.0834 25.2532 22.6757 25.5538 22.3751C25.8544 22.0745 26.2621 21.9056 26.6872 21.9056ZM26.6872 24.0428C26.7928 24.0428 26.8961 24.0115 26.984 23.9527C27.0719 23.894 27.1404 23.8106 27.1808 23.713C27.2212 23.6153 27.2318 23.5079 27.2112 23.4043C27.1906 23.3006 27.1397 23.2054 27.065 23.1307C26.9903 23.056 26.895 23.0051 26.7914 22.9845C26.6878 22.9639 26.5803 22.9744 26.4827 23.0149C26.3851 23.0553 26.3016 23.1238 26.2429 23.2117C26.1842 23.2995 26.1529 23.4028 26.1529 23.5085C26.1529 23.6502 26.2092 23.7861 26.3094 23.8863C26.4096 23.9865 26.5455 24.0428 26.6872 24.0428Z" fill="url(#paint6_linear_551_2035)"/>
<path d="M26.6872 21.9056C27.0042 21.9056 27.3141 21.9996 27.5777 22.1758C27.8413 22.3519 28.0467 22.6022 28.168 22.8951C28.2893 23.188 28.3211 23.5103 28.2592 23.8212C28.1974 24.1321 28.0447 24.4177 27.8206 24.6419C27.5964 24.8661 27.3108 25.0187 26.9999 25.0806C26.689 25.1424 26.3667 25.1107 26.0738 24.9894C25.7809 24.868 25.5306 24.6626 25.3544 24.399C25.1783 24.1354 25.0843 23.8255 25.0843 23.5085C25.0843 23.0834 25.2532 22.6757 25.5538 22.3751C25.8544 22.0745 26.2621 21.9056 26.6872 21.9056ZM26.6872 24.0428C26.7928 24.0428 26.8961 24.0115 26.984 23.9527C27.0719 23.894 27.1404 23.8106 27.1808 23.713C27.2212 23.6153 27.2318 23.5079 27.2112 23.4043C27.1906 23.3006 27.1397 23.2054 27.065 23.1307C26.9903 23.056 26.895 23.0051 26.7914 22.9845C26.6878 22.9639 26.5803 22.9744 26.4827 23.0149C26.3851 23.0553 26.3016 23.1238 26.2429 23.2117C26.1842 23.2995 26.1529 23.4028 26.1529 23.5085C26.1529 23.6502 26.2092 23.7861 26.3094 23.8863C26.4096 23.9865 26.5455 24.0428 26.6872 24.0428Z" fill="url(#paint7_linear_551_2035)"/>
<path d="M5.31608 21.9056C5.6331 21.9056 5.94299 21.9996 6.20658 22.1758C6.47017 22.3519 6.67562 22.6022 6.79693 22.8951C6.91825 23.188 6.94999 23.5103 6.88815 23.8212C6.8263 24.1321 6.67364 24.4177 6.44948 24.6419C6.22531 24.8661 5.93971 25.0187 5.62878 25.0806C5.31786 25.1424 4.99558 25.1107 4.70269 24.9894C4.40981 24.868 4.15947 24.6626 3.98335 24.399C3.80722 24.1354 3.71322 23.8255 3.71322 23.5085C3.71322 23.0834 3.88209 22.6757 4.18268 22.3751C4.48328 22.0745 4.89097 21.9056 5.31608 21.9056ZM5.31608 24.0428C5.42175 24.0428 5.52505 24.0115 5.61291 23.9527C5.70078 23.894 5.76926 23.8106 5.8097 23.713C5.85014 23.6153 5.86072 23.5079 5.8401 23.4043C5.81949 23.3006 5.7686 23.2054 5.69388 23.1307C5.61916 23.056 5.52396 23.0051 5.42031 22.9845C5.31667 22.9639 5.20925 22.9744 5.11162 23.0149C5.01399 23.0553 4.93054 23.1238 4.87183 23.2117C4.81313 23.2995 4.78179 23.4028 4.78179 23.5085C4.78179 23.6502 4.83808 23.7861 4.93828 23.8863C5.03848 23.9865 5.17438 24.0428 5.31608 24.0428Z" fill="black"/>
<path d="M5.31608 21.9056C5.6331 21.9056 5.94299 21.9996 6.20658 22.1758C6.47017 22.3519 6.67562 22.6022 6.79693 22.8951C6.91825 23.188 6.94999 23.5103 6.88815 23.8212C6.8263 24.1321 6.67364 24.4177 6.44948 24.6419C6.22531 24.8661 5.93971 25.0187 5.62878 25.0806C5.31786 25.1424 4.99558 25.1107 4.70269 24.9894C4.40981 24.868 4.15947 24.6626 3.98335 24.399C3.80722 24.1354 3.71322 23.8255 3.71322 23.5085C3.71322 23.0834 3.88209 22.6757 4.18268 22.3751C4.48328 22.0745 4.89097 21.9056 5.31608 21.9056ZM5.31608 24.0428C5.42175 24.0428 5.52505 24.0115 5.61291 23.9527C5.70078 23.894 5.76926 23.8106 5.8097 23.713C5.85014 23.6153 5.86072 23.5079 5.8401 23.4043C5.81949 23.3006 5.7686 23.2054 5.69388 23.1307C5.61916 23.056 5.52396 23.0051 5.42031 22.9845C5.31667 22.9639 5.20925 22.9744 5.11162 23.0149C5.01399 23.0553 4.93054 23.1238 4.87183 23.2117C4.81313 23.2995 4.78179 23.4028 4.78179 23.5085C4.78179 23.6502 4.83808 23.7861 4.93828 23.8863C5.03848 23.9865 5.17438 24.0428 5.31608 24.0428Z" fill="url(#paint8_linear_551_2035)"/>
<path d="M5.31608 21.9056C5.6331 21.9056 5.94299 21.9996 6.20658 22.1758C6.47017 22.3519 6.67562 22.6022 6.79693 22.8951C6.91825 23.188 6.94999 23.5103 6.88815 23.8212C6.8263 24.1321 6.67364 24.4177 6.44948 24.6419C6.22531 24.8661 5.93971 25.0187 5.62878 25.0806C5.31786 25.1424 4.99558 25.1107 4.70269 24.9894C4.40981 24.868 4.15947 24.6626 3.98335 24.399C3.80722 24.1354 3.71322 23.8255 3.71322 23.5085C3.71322 23.0834 3.88209 22.6757 4.18268 22.3751C4.48328 22.0745 4.89097 21.9056 5.31608 21.9056ZM5.31608 24.0428C5.42175 24.0428 5.52505 24.0115 5.61291 23.9527C5.70078 23.894 5.76926 23.8106 5.8097 23.713C5.85014 23.6153 5.86072 23.5079 5.8401 23.4043C5.81949 23.3006 5.7686 23.2054 5.69388 23.1307C5.61916 23.056 5.52396 23.0051 5.42031 22.9845C5.31667 22.9639 5.20925 22.9744 5.11162 23.0149C5.01399 23.0553 4.93054 23.1238 4.87183 23.2117C4.81313 23.2995 4.78179 23.4028 4.78179 23.5085C4.78179 23.6502 4.83808 23.7861 4.93828 23.8863C5.03848 23.9865 5.17438 24.0428 5.31608 24.0428Z" fill="url(#paint9_linear_551_2035)"/>
<path d="M10.6589 21.9056C10.9759 21.9056 11.2858 21.9996 11.5494 22.1758C11.8129 22.3519 12.0184 22.6022 12.1397 22.8951C12.261 23.188 12.2928 23.5103 12.2309 23.8212C12.1691 24.1321 12.0164 24.4177 11.7922 24.6419C11.5681 24.8661 11.2825 25.0187 10.9716 25.0806C10.6606 25.1424 10.3383 25.1107 10.0455 24.9894C9.75258 24.868 9.50225 24.6626 9.32612 24.399C9.15 24.1354 9.05599 23.8255 9.05599 23.5085C9.05599 23.0834 9.22486 22.6757 9.52546 22.3751C9.82605 22.0745 10.2337 21.9056 10.6589 21.9056ZM10.6589 24.0428C10.7645 24.0428 10.8678 24.0115 10.9557 23.9527C11.0436 23.894 11.112 23.8106 11.1525 23.713C11.1929 23.6153 11.2035 23.5079 11.1829 23.4043C11.1623 23.3006 11.1114 23.2054 11.0367 23.1307C10.9619 23.056 10.8667 23.0051 10.7631 22.9845C10.6594 22.9639 10.552 22.9744 10.4544 23.0149C10.3568 23.0553 10.2733 23.1238 10.2146 23.2117C10.1559 23.2995 10.1246 23.4028 10.1246 23.5085C10.1246 23.6502 10.1809 23.7861 10.2811 23.8863C10.3813 23.9865 10.5172 24.0428 10.6589 24.0428Z" fill="black"/>
<path d="M10.6589 21.9056C10.9759 21.9056 11.2858 21.9996 11.5494 22.1758C11.8129 22.3519 12.0184 22.6022 12.1397 22.8951C12.261 23.188 12.2928 23.5103 12.2309 23.8212C12.1691 24.1321 12.0164 24.4177 11.7922 24.6419C11.5681 24.8661 11.2825 25.0187 10.9716 25.0806C10.6606 25.1424 10.3383 25.1107 10.0455 24.9894C9.75258 24.868 9.50225 24.6626 9.32612 24.399C9.15 24.1354 9.05599 23.8255 9.05599 23.5085C9.05599 23.0834 9.22486 22.6757 9.52546 22.3751C9.82605 22.0745 10.2337 21.9056 10.6589 21.9056ZM10.6589 24.0428C10.7645 24.0428 10.8678 24.0115 10.9557 23.9527C11.0436 23.894 11.112 23.8106 11.1525 23.713C11.1929 23.6153 11.2035 23.5079 11.1829 23.4043C11.1623 23.3006 11.1114 23.2054 11.0367 23.1307C10.9619 23.056 10.8667 23.0051 10.7631 22.9845C10.6594 22.9639 10.552 22.9744 10.4544 23.0149C10.3568 23.0553 10.2733 23.1238 10.2146 23.2117C10.1559 23.2995 10.1246 23.4028 10.1246 23.5085C10.1246 23.6502 10.1809 23.7861 10.2811 23.8863C10.3813 23.9865 10.5172 24.0428 10.6589 24.0428Z" fill="url(#paint10_linear_551_2035)"/>
<path d="M10.6589 21.9056C10.9759 21.9056 11.2858 21.9996 11.5494 22.1758C11.8129 22.3519 12.0184 22.6022 12.1397 22.8951C12.261 23.188 12.2928 23.5103 12.2309 23.8212C12.1691 24.1321 12.0164 24.4177 11.7922 24.6419C11.5681 24.8661 11.2825 25.0187 10.9716 25.0806C10.6606 25.1424 10.3383 25.1107 10.0455 24.9894C9.75258 24.868 9.50225 24.6626 9.32612 24.399C9.15 24.1354 9.05599 23.8255 9.05599 23.5085C9.05599 23.0834 9.22486 22.6757 9.52546 22.3751C9.82605 22.0745 10.2337 21.9056 10.6589 21.9056ZM10.6589 24.0428C10.7645 24.0428 10.8678 24.0115 10.9557 23.9527C11.0436 23.894 11.112 23.8106 11.1525 23.713C11.1929 23.6153 11.2035 23.5079 11.1829 23.4043C11.1623 23.3006 11.1114 23.2054 11.0367 23.1307C10.9619 23.056 10.8667 23.0051 10.7631 22.9845C10.6594 22.9639 10.552 22.9744 10.4544 23.0149C10.3568 23.0553 10.2733 23.1238 10.2146 23.2117C10.1559 23.2995 10.1246 23.4028 10.1246 23.5085C10.1246 23.6502 10.1809 23.7861 10.2811 23.8863C10.3813 23.9865 10.5172 24.0428 10.6589 24.0428Z" fill="url(#paint11_linear_551_2035)"/>
<defs>
<linearGradient id="paint0_linear_551_2035" x1="27.8" y1="6.41146" x2="5.56448" y2="26.4075" gradientUnits="userSpaceOnUse">
<stop stop-color="#1E3C72"/>
<stop offset="1" stop-color="#2A5298"/>
</linearGradient>
<linearGradient id="paint1_linear_551_2035" x1="31.3648" y1="16.4396" x2="0.263693" y2="16.5049" gradientUnits="userSpaceOnUse">
<stop stop-color="#4E54C8"/>
<stop offset="1" stop-color="#8F94FB"/>
</linearGradient>
<linearGradient id="paint2_linear_551_2035" x1="17.1837" y1="22.5468" x2="14.9598" y2="24.5504" gradientUnits="userSpaceOnUse">
<stop stop-color="#1E3C72"/>
<stop offset="1" stop-color="#2A5298"/>
</linearGradient>
<linearGradient id="paint3_linear_551_2035" x1="17.5409" y1="23.5496" x2="14.4251" y2="23.5561" gradientUnits="userSpaceOnUse">
<stop stop-color="#4E54C8"/>
<stop offset="1" stop-color="#8F94FB"/>
</linearGradient>
<linearGradient id="paint4_linear_551_2035" x1="22.5265" y1="22.5468" x2="20.3025" y2="24.5504" gradientUnits="userSpaceOnUse">
<stop stop-color="#1E3C72"/>
<stop offset="1" stop-color="#2A5298"/>
</linearGradient>
<linearGradient id="paint5_linear_551_2035" x1="22.8836" y1="23.5496" x2="19.7679" y2="23.5561" gradientUnits="userSpaceOnUse">
<stop stop-color="#4E54C8"/>
<stop offset="1" stop-color="#8F94FB"/>
</linearGradient>
<linearGradient id="paint6_linear_551_2035" x1="27.8693" y1="22.5468" x2="25.6453" y2="24.5504" gradientUnits="userSpaceOnUse">
<stop stop-color="#1E3C72"/>
<stop offset="1" stop-color="#2A5298"/>
</linearGradient>
<linearGradient id="paint7_linear_551_2035" x1="28.2264" y1="23.5496" x2="25.1107" y2="23.5561" gradientUnits="userSpaceOnUse">
<stop stop-color="#4E54C8"/>
<stop offset="1" stop-color="#8F94FB"/>
</linearGradient>
<linearGradient id="paint8_linear_551_2035" x1="6.49819" y1="22.5468" x2="4.27422" y2="24.5504" gradientUnits="userSpaceOnUse">
<stop stop-color="#1E3C72"/>
<stop offset="1" stop-color="#2A5298"/>
</linearGradient>
<linearGradient id="paint9_linear_551_2035" x1="6.85531" y1="23.5496" x2="3.7396" y2="23.5561" gradientUnits="userSpaceOnUse">
<stop stop-color="#4E54C8"/>
<stop offset="1" stop-color="#8F94FB"/>
</linearGradient>
<linearGradient id="paint10_linear_551_2035" x1="11.841" y1="22.5468" x2="9.61699" y2="24.5504" gradientUnits="userSpaceOnUse">
<stop stop-color="#1E3C72"/>
<stop offset="1" stop-color="#2A5298"/>
</linearGradient>
<linearGradient id="paint11_linear_551_2035" x1="12.1981" y1="23.5496" x2="9.08238" y2="23.5561" gradientUnits="userSpaceOnUse">
<stop stop-color="#4E54C8"/>
<stop offset="1" stop-color="#8F94FB"/>
</linearGradient>
</defs>
</svg>
