<svg width="32" height="30" viewBox="0 0 32 30" fill="none" xmlns="http://www.w3.org/2000/svg">
<path d="M29.1099 0.1042C28.9997 0.0361958 28.8729 0 28.7436 0H7.85574C6.05997 0 4.59902 1.44783 4.59902 3.22225L4.47627 21.2239H0.70143C0.313999 21.2239 0 21.5382 0 21.9259V25.169C0.00246596 27.5505 1.93085 29.4804 4.31051 29.4831C4.35873 29.4831 4.40723 29.4782 4.45463 29.4683H21.8821C21.986 29.4757 22.0907 29.4807 22.1961 29.4807C24.6128 29.4763 26.5697 27.5151 26.5705 25.0966V14.5735H31.2986C31.686 14.5735 32 14.2592 32 13.8715V3.45094C31.9915 1.77524 30.7654 0.355103 29.1099 0.1042ZM1.40286 25.1693V22.6282H17.8218V25.0969C17.821 26.1967 18.2344 27.2563 18.98 28.0644H4.21461C4.18145 28.0647 4.14857 28.0671 4.11597 28.0721C2.59008 27.9681 1.40478 26.6999 1.40286 25.1693ZM25.1676 3.45094V25.0966C25.1663 25.8814 24.8547 26.6333 24.301 27.1886C23.7708 27.7329 23.0505 28.0507 22.2915 28.0748C22.2537 28.0682 22.2153 28.0649 22.1767 28.0647H21.9301C20.4023 27.9141 19.2348 26.6335 19.2247 25.0971V21.9259C19.2247 21.5384 18.9107 21.2239 18.5232 21.2239H5.87913L6.00188 3.22719C6.01202 2.21206 6.84113 1.39628 7.85574 1.40396H25.8644C25.4126 1.9905 25.1674 2.7103 25.1676 3.45094ZM30.5971 13.1695H26.5705V3.45094C26.5889 2.35108 27.4848 1.4695 28.5838 1.4695C29.6828 1.4695 30.5788 2.35108 30.5971 3.45094V13.1695Z" fill="black"/>
<path d="M29.1099 0.1042C28.9997 0.0361958 28.8729 0 28.7436 0H7.85574C6.05997 0 4.59902 1.44783 4.59902 3.22225L4.47627 21.2239H0.70143C0.313999 21.2239 0 21.5382 0 21.9259V25.169C0.00246596 27.5505 1.93085 29.4804 4.31051 29.4831C4.35873 29.4831 4.40723 29.4782 4.45463 29.4683H21.8821C21.986 29.4757 22.0907 29.4807 22.1961 29.4807C24.6128 29.4763 26.5697 27.5151 26.5705 25.0966V14.5735H31.2986C31.686 14.5735 32 14.2592 32 13.8715V3.45094C31.9915 1.77524 30.7654 0.355103 29.1099 0.1042ZM1.40286 25.1693V22.6282H17.8218V25.0969C17.821 26.1967 18.2344 27.2563 18.98 28.0644H4.21461C4.18145 28.0647 4.14857 28.0671 4.11597 28.0721C2.59008 27.9681 1.40478 26.6999 1.40286 25.1693ZM25.1676 3.45094V25.0966C25.1663 25.8814 24.8547 26.6333 24.301 27.1886C23.7708 27.7329 23.0505 28.0507 22.2915 28.0748C22.2537 28.0682 22.2153 28.0649 22.1767 28.0647H21.9301C20.4023 27.9141 19.2348 26.6335 19.2247 25.0971V21.9259C19.2247 21.5384 18.9107 21.2239 18.5232 21.2239H5.87913L6.00188 3.22719C6.01202 2.21206 6.84113 1.39628 7.85574 1.40396H25.8644C25.4126 1.9905 25.1674 2.7103 25.1676 3.45094ZM30.5971 13.1695H26.5705V3.45094C26.5889 2.35108 27.4848 1.4695 28.5838 1.4695C29.6828 1.4695 30.5788 2.35108 30.5971 3.45094V13.1695Z" fill="url(#paint0_linear_551_4890)"/>
<path d="M29.1099 0.1042C28.9997 0.0361958 28.8729 0 28.7436 0H7.85574C6.05997 0 4.59902 1.44783 4.59902 3.22225L4.47627 21.2239H0.70143C0.313999 21.2239 0 21.5382 0 21.9259V25.169C0.00246596 27.5505 1.93085 29.4804 4.31051 29.4831C4.35873 29.4831 4.40723 29.4782 4.45463 29.4683H21.8821C21.986 29.4757 22.0907 29.4807 22.1961 29.4807C24.6128 29.4763 26.5697 27.5151 26.5705 25.0966V14.5735H31.2986C31.686 14.5735 32 14.2592 32 13.8715V3.45094C31.9915 1.77524 30.7654 0.355103 29.1099 0.1042ZM1.40286 25.1693V22.6282H17.8218V25.0969C17.821 26.1967 18.2344 27.2563 18.98 28.0644H4.21461C4.18145 28.0647 4.14857 28.0671 4.11597 28.0721C2.59008 27.9681 1.40478 26.6999 1.40286 25.1693ZM25.1676 3.45094V25.0966C25.1663 25.8814 24.8547 26.6333 24.301 27.1886C23.7708 27.7329 23.0505 28.0507 22.2915 28.0748C22.2537 28.0682 22.2153 28.0649 22.1767 28.0647H21.9301C20.4023 27.9141 19.2348 26.6335 19.2247 25.0971V21.9259C19.2247 21.5384 18.9107 21.2239 18.5232 21.2239H5.87913L6.00188 3.22719C6.01202 2.21206 6.84113 1.39628 7.85574 1.40396H25.8644C25.4126 1.9905 25.1674 2.7103 25.1676 3.45094ZM30.5971 13.1695H26.5705V3.45094C26.5889 2.35108 27.4848 1.4695 28.5838 1.4695C29.6828 1.4695 30.5788 2.35108 30.5971 3.45094V13.1695Z" fill="url(#paint1_linear_551_4890)"/>
<path d="M8.99044 7.55051H15.8183C16.2165 7.55051 16.5392 7.2286 16.5392 6.83141C16.5392 6.43421 16.2165 6.1123 15.8183 6.1123H8.99044C8.59225 6.1123 8.26953 6.43421 8.26953 6.83141C8.26953 7.2286 8.59225 7.55051 8.99044 7.55051Z" fill="black"/>
<path d="M8.99044 7.55051H15.8183C16.2165 7.55051 16.5392 7.2286 16.5392 6.83141C16.5392 6.43421 16.2165 6.1123 15.8183 6.1123H8.99044C8.59225 6.1123 8.26953 6.43421 8.26953 6.83141C8.26953 7.2286 8.59225 7.55051 8.99044 7.55051Z" fill="url(#paint2_linear_551_4890)"/>
<path d="M8.99044 7.55051H15.8183C16.2165 7.55051 16.5392 7.2286 16.5392 6.83141C16.5392 6.43421 16.2165 6.1123 15.8183 6.1123H8.99044C8.59225 6.1123 8.26953 6.43421 8.26953 6.83141C8.26953 7.2286 8.59225 7.55051 8.99044 7.55051Z" fill="url(#paint3_linear_551_4890)"/>
<path d="M21.579 11.1461H8.98252C8.5887 11.1461 8.26953 11.468 8.26953 11.8652C8.26953 12.2621 8.5887 12.5843 8.98252 12.5843H21.579C21.9728 12.5843 22.292 12.2621 22.292 11.8652C22.292 11.468 21.9728 11.1461 21.579 11.1461Z" fill="black"/>
<path d="M21.579 11.1461H8.98252C8.5887 11.1461 8.26953 11.468 8.26953 11.8652C8.26953 12.2621 8.5887 12.5843 8.98252 12.5843H21.579C21.9728 12.5843 22.292 12.2621 22.292 11.8652C22.292 11.468 21.9728 11.1461 21.579 11.1461Z" fill="url(#paint4_linear_551_4890)"/>
<path d="M21.579 11.1461H8.98252C8.5887 11.1461 8.26953 11.468 8.26953 11.8652C8.26953 12.2621 8.5887 12.5843 8.98252 12.5843H21.579C21.9728 12.5843 22.292 12.2621 22.292 11.8652C22.292 11.468 21.9728 11.1461 21.579 11.1461Z" fill="url(#paint5_linear_551_4890)"/>
<path d="M21.579 16.1798H8.98252C8.5887 16.1798 8.26953 16.502 8.26953 16.8989C8.26953 17.2961 8.5887 17.618 8.98252 17.618H21.579C21.9728 17.618 22.292 17.2961 22.292 16.8989C22.292 16.502 21.9728 16.1798 21.579 16.1798Z" fill="black"/>
<path d="M21.579 16.1798H8.98252C8.5887 16.1798 8.26953 16.502 8.26953 16.8989C8.26953 17.2961 8.5887 17.618 8.98252 17.618H21.579C21.9728 17.618 22.292 17.2961 22.292 16.8989C22.292 16.502 21.9728 16.1798 21.579 16.1798Z" fill="url(#paint6_linear_551_4890)"/>
<path d="M21.579 16.1798H8.98252C8.5887 16.1798 8.26953 16.502 8.26953 16.8989C8.26953 17.2961 8.5887 17.618 8.98252 17.618H21.579C21.9728 17.618 22.292 17.2961 22.292 16.8989C22.292 16.502 21.9728 16.1798 21.579 16.1798Z" fill="url(#paint7_linear_551_4890)"/>
<defs>
<linearGradient id="paint0_linear_551_4890" x1="4.2" y1="5.89663" x2="24.7602" y2="26.0006" gradientUnits="userSpaceOnUse">
<stop stop-color="#1E3C72"/>
<stop offset="1" stop-color="#2A5298"/>
</linearGradient>
<linearGradient id="paint1_linear_551_4890" x1="0.635236" y1="15.1196" x2="31.7366" y2="15.1905" gradientUnits="userSpaceOnUse">
<stop stop-color="#4E54C8"/>
<stop offset="1" stop-color="#8F94FB"/>
</linearGradient>
<linearGradient id="paint2_linear_551_4890" x1="9.35492" y1="6.39995" x2="9.72833" y2="8.33424" gradientUnits="userSpaceOnUse">
<stop stop-color="#1E3C72"/>
<stop offset="1" stop-color="#2A5298"/>
</linearGradient>
<linearGradient id="paint3_linear_551_4890" x1="8.43369" y1="6.84984" x2="16.47" y2="6.94693" gradientUnits="userSpaceOnUse">
<stop stop-color="#4E54C8"/>
<stop offset="1" stop-color="#8F94FB"/>
</linearGradient>
<linearGradient id="paint4_linear_551_4890" x1="10.11" y1="11.4338" x2="10.3355" y2="13.4145" gradientUnits="userSpaceOnUse">
<stop stop-color="#1E3C72"/>
<stop offset="1" stop-color="#2A5298"/>
</linearGradient>
<linearGradient id="paint5_linear_551_4890" x1="8.54789" y1="11.8837" x2="22.1709" y2="12.1627" gradientUnits="userSpaceOnUse">
<stop stop-color="#4E54C8"/>
<stop offset="1" stop-color="#8F94FB"/>
</linearGradient>
<linearGradient id="paint6_linear_551_4890" x1="10.11" y1="16.4675" x2="10.3355" y2="18.4482" gradientUnits="userSpaceOnUse">
<stop stop-color="#1E3C72"/>
<stop offset="1" stop-color="#2A5298"/>
</linearGradient>
<linearGradient id="paint7_linear_551_4890" x1="8.54789" y1="16.9173" x2="22.1709" y2="17.1964" gradientUnits="userSpaceOnUse">
<stop stop-color="#4E54C8"/>
<stop offset="1" stop-color="#8F94FB"/>
</linearGradient>
</defs>
</svg>
