<svg width="32" height="32" viewBox="0 0 32 32" fill="none" xmlns="http://www.w3.org/2000/svg">
<g clip-path="url(#clip0_551_4901)">
<path d="M0.10136 2.93538L2.2355 6.66992C2.30749 6.79611 2.42798 6.88741 2.56888 6.92275L4.55993 7.42051L11.3888 14.2494L12.1433 13.4951L5.20759 6.55952C5.13934 6.49105 5.05374 6.44254 4.96003 6.41906L3.04689 5.93907L1.22988 2.75761L2.7877 1.1998L5.97048 3.01856L6.45068 4.9317C6.47394 5.02563 6.52267 5.11145 6.59092 5.1797L13.5267 12.1155L14.281 11.3609L7.45213 4.53204L6.95437 2.54209C6.91903 2.40097 6.82773 2.28026 6.70154 2.20805L2.96678 0.074128C2.75851 -0.0443867 2.49646 -0.00927121 2.32658 0.159942L0.19266 2.29409C0.021033 2.46286 -0.0162772 2.72535 0.10136 2.93538Z" fill="black"/>
<path d="M0.10136 2.93538L2.2355 6.66992C2.30749 6.79611 2.42798 6.88741 2.56888 6.92275L4.55993 7.42051L11.3888 14.2494L12.1433 13.4951L5.20759 6.55952C5.13934 6.49105 5.05374 6.44254 4.96003 6.41906L3.04689 5.93907L1.22988 2.75761L2.7877 1.1998L5.97048 3.01856L6.45068 4.9317C6.47394 5.02563 6.52267 5.11145 6.59092 5.1797L13.5267 12.1155L14.281 11.3609L7.45213 4.53204L6.95437 2.54209C6.91903 2.40097 6.82773 2.28026 6.70154 2.20805L2.96678 0.074128C2.75851 -0.0443867 2.49646 -0.00927121 2.32658 0.159942L0.19266 2.29409C0.021033 2.46286 -0.0162772 2.72535 0.10136 2.93538Z" fill="url(#paint0_linear_551_4901)"/>
<path d="M22.2822 10.5147L10.5451 22.2521L9.79053 21.4975L21.5279 9.76038L22.2822 10.5147Z" fill="black"/>
<path d="M22.2822 10.5147L10.5451 22.2521L9.79053 21.4975L21.5279 9.76038L22.2822 10.5147Z" fill="url(#paint1_linear_551_4901)"/>
<path d="M8.4906 22.6673C8.39403 22.5067 8.22065 22.4086 8.03322 22.4086H4.83222C4.64501 22.4086 4.47141 22.5067 4.37506 22.6673L2.77445 25.3348C2.67284 25.5038 2.67284 25.7151 2.77445 25.8843L4.37506 28.5518C4.47141 28.7122 4.64501 28.8106 4.83222 28.8106H8.03322C8.22065 28.8106 8.39403 28.7122 8.4906 28.5518L10.091 25.8843C10.1926 25.7151 10.1926 25.5038 10.091 25.3348L8.4906 22.6673ZM7.73145 27.7435H5.13422L3.85382 25.6096L5.13422 23.4754H7.73145L9.01184 25.6096L7.73145 27.7435Z" fill="black"/>
<path d="M8.4906 22.6673C8.39403 22.5067 8.22065 22.4086 8.03322 22.4086H4.83222C4.64501 22.4086 4.47141 22.5067 4.37506 22.6673L2.77445 25.3348C2.67284 25.5038 2.67284 25.7151 2.77445 25.8843L4.37506 28.5518C4.47141 28.7122 4.64501 28.8106 4.83222 28.8106H8.03322C8.22065 28.8106 8.39403 28.7122 8.4906 28.5518L10.091 25.8843C10.1926 25.7151 10.1926 25.5038 10.091 25.3348L8.4906 22.6673ZM7.73145 27.7435H5.13422L3.85382 25.6096L5.13422 23.4754H7.73145L9.01184 25.6096L7.73145 27.7435Z" fill="url(#paint2_linear_551_4901)"/>
<path d="M25.6392 12.8053C29.1628 12.8171 32.0291 9.97015 32.041 6.44653C32.0427 5.91014 31.9769 5.37595 31.845 4.85602C31.7739 4.57005 31.4844 4.39601 31.1984 4.46712C31.1045 4.4906 31.0189 4.5391 30.9504 4.60736L27.6293 7.92621L24.9944 7.04811L24.1156 4.41379L27.4367 1.09208C27.6449 0.883581 27.6447 0.545814 27.4362 0.337535C27.3675 0.268841 27.281 0.220118 27.1865 0.196854C23.7693 -0.668524 20.2979 1.4 19.4325 4.81696C19.3011 5.33535 19.2354 5.86823 19.2372 6.40308C19.2385 6.82315 19.2817 7.2419 19.3669 7.65319L7.68287 19.337C7.27158 19.2521 6.85283 19.2088 6.43298 19.2073C2.89706 19.2073 0.0307617 22.0736 0.0307617 25.6095C0.0307617 29.1452 2.89706 32.0115 6.43298 32.0115C9.96867 32.0115 12.835 29.1452 12.835 25.6095C12.8337 25.1894 12.7902 24.7707 12.7053 24.3594L15.5024 21.5622L16.7258 22.7856C16.9343 22.9938 17.2718 22.9938 17.4803 22.7856L17.747 22.5187C17.9809 22.2863 18.3591 22.2863 18.593 22.5187C18.8268 22.7518 18.8272 23.1301 18.5941 23.3639C18.5939 23.3641 18.5935 23.3645 18.593 23.365L18.3264 23.6316C18.1181 23.8399 18.1181 24.1777 18.3264 24.3859L24.6906 30.7502C26.3645 32.4395 29.0908 32.4518 30.7801 30.7778C32.4691 29.1039 32.4814 26.3774 30.8075 24.6884C30.7985 24.6792 30.7893 24.6699 30.7801 24.6607L24.4158 18.2967C24.2076 18.0884 23.8698 18.0884 23.6615 18.2967L23.3949 18.5634C23.1607 18.796 22.7828 18.796 22.5486 18.5634C22.3151 18.3303 22.3144 17.9519 22.5475 17.7184C22.5479 17.718 22.5484 17.7177 22.5486 17.7173L22.8155 17.4504C23.0237 17.2421 23.0237 16.9044 22.8155 16.6961L21.5921 15.4728L24.3893 12.6756C24.8006 12.7605 25.2193 12.804 25.6392 12.8053ZM27.7354 30.9446C27.3478 30.944 26.9635 30.874 26.6007 30.7377L30.7674 26.5708C31.3961 28.2434 30.5501 30.1089 28.8775 30.7377C28.5125 30.8748 28.1256 30.9451 27.7354 30.9446ZM21.6913 17.0786C21.1005 17.7834 21.1931 18.8337 21.8978 19.4243C22.5172 19.9434 23.4199 19.943 24.0386 19.4228L30.0258 25.4153C30.0907 25.4805 30.1515 25.5491 30.2103 25.6189L25.6488 30.1804C25.5788 30.1218 25.5101 30.061 25.4449 29.9959L19.4531 24.0036C20.044 23.2989 19.9513 22.2485 19.2466 21.6579C18.6273 21.1386 17.7244 21.1393 17.1057 21.6592L16.2521 20.8057L20.8376 16.2271L21.6913 17.0786ZM23.8457 11.7128L11.7429 23.8131C11.6101 23.9457 11.5568 24.1382 11.602 24.3201C12.3339 27.1945 10.597 30.1181 7.72237 30.8498C4.84795 31.5818 1.92436 29.8449 1.19243 26.9702C0.460707 24.0958 2.19761 21.1722 5.07225 20.4403C5.9418 20.2191 6.85283 20.2191 7.72237 20.4403C7.90431 20.4848 8.09635 20.4315 8.22935 20.2996L20.3293 8.19902C20.4618 8.06646 20.5152 7.87398 20.4695 7.69226C19.7426 4.85141 21.4563 1.95921 24.2971 1.2321C24.8339 1.09493 25.3892 1.04226 25.9423 1.07672L23.128 3.8921C22.9851 4.03476 22.9351 4.24611 22.9989 4.43771L24.0658 7.63893C24.1191 7.79804 24.2442 7.92314 24.4036 7.97603L27.6048 9.04311C27.7961 9.10697 28.0075 9.05715 28.1504 8.9145L30.9647 6.10021C30.971 6.20204 30.9743 6.30278 30.9743 6.40308C30.9892 9.33456 28.6251 11.7231 25.6936 11.7382C25.2404 11.7404 24.7887 11.6847 24.3498 11.5723C24.1678 11.5269 23.9754 11.58 23.8428 11.7125L23.8457 11.7128Z" fill="black"/>
<path d="M25.6392 12.8053C29.1628 12.8171 32.0291 9.97015 32.041 6.44653C32.0427 5.91014 31.9769 5.37595 31.845 4.85602C31.7739 4.57005 31.4844 4.39601 31.1984 4.46712C31.1045 4.4906 31.0189 4.5391 30.9504 4.60736L27.6293 7.92621L24.9944 7.04811L24.1156 4.41379L27.4367 1.09208C27.6449 0.883581 27.6447 0.545814 27.4362 0.337535C27.3675 0.268841 27.281 0.220118 27.1865 0.196854C23.7693 -0.668524 20.2979 1.4 19.4325 4.81696C19.3011 5.33535 19.2354 5.86823 19.2372 6.40308C19.2385 6.82315 19.2817 7.2419 19.3669 7.65319L7.68287 19.337C7.27158 19.2521 6.85283 19.2088 6.43298 19.2073C2.89706 19.2073 0.0307617 22.0736 0.0307617 25.6095C0.0307617 29.1452 2.89706 32.0115 6.43298 32.0115C9.96867 32.0115 12.835 29.1452 12.835 25.6095C12.8337 25.1894 12.7902 24.7707 12.7053 24.3594L15.5024 21.5622L16.7258 22.7856C16.9343 22.9938 17.2718 22.9938 17.4803 22.7856L17.747 22.5187C17.9809 22.2863 18.3591 22.2863 18.593 22.5187C18.8268 22.7518 18.8272 23.1301 18.5941 23.3639C18.5939 23.3641 18.5935 23.3645 18.593 23.365L18.3264 23.6316C18.1181 23.8399 18.1181 24.1777 18.3264 24.3859L24.6906 30.7502C26.3645 32.4395 29.0908 32.4518 30.7801 30.7778C32.4691 29.1039 32.4814 26.3774 30.8075 24.6884C30.7985 24.6792 30.7893 24.6699 30.7801 24.6607L24.4158 18.2967C24.2076 18.0884 23.8698 18.0884 23.6615 18.2967L23.3949 18.5634C23.1607 18.796 22.7828 18.796 22.5486 18.5634C22.3151 18.3303 22.3144 17.9519 22.5475 17.7184C22.5479 17.718 22.5484 17.7177 22.5486 17.7173L22.8155 17.4504C23.0237 17.2421 23.0237 16.9044 22.8155 16.6961L21.5921 15.4728L24.3893 12.6756C24.8006 12.7605 25.2193 12.804 25.6392 12.8053ZM27.7354 30.9446C27.3478 30.944 26.9635 30.874 26.6007 30.7377L30.7674 26.5708C31.3961 28.2434 30.5501 30.1089 28.8775 30.7377C28.5125 30.8748 28.1256 30.9451 27.7354 30.9446ZM21.6913 17.0786C21.1005 17.7834 21.1931 18.8337 21.8978 19.4243C22.5172 19.9434 23.4199 19.943 24.0386 19.4228L30.0258 25.4153C30.0907 25.4805 30.1515 25.5491 30.2103 25.6189L25.6488 30.1804C25.5788 30.1218 25.5101 30.061 25.4449 29.9959L19.4531 24.0036C20.044 23.2989 19.9513 22.2485 19.2466 21.6579C18.6273 21.1386 17.7244 21.1393 17.1057 21.6592L16.2521 20.8057L20.8376 16.2271L21.6913 17.0786ZM23.8457 11.7128L11.7429 23.8131C11.6101 23.9457 11.5568 24.1382 11.602 24.3201C12.3339 27.1945 10.597 30.1181 7.72237 30.8498C4.84795 31.5818 1.92436 29.8449 1.19243 26.9702C0.460707 24.0958 2.19761 21.1722 5.07225 20.4403C5.9418 20.2191 6.85283 20.2191 7.72237 20.4403C7.90431 20.4848 8.09635 20.4315 8.22935 20.2996L20.3293 8.19902C20.4618 8.06646 20.5152 7.87398 20.4695 7.69226C19.7426 4.85141 21.4563 1.95921 24.2971 1.2321C24.8339 1.09493 25.3892 1.04226 25.9423 1.07672L23.128 3.8921C22.9851 4.03476 22.9351 4.24611 22.9989 4.43771L24.0658 7.63893C24.1191 7.79804 24.2442 7.92314 24.4036 7.97603L27.6048 9.04311C27.7961 9.10697 28.0075 9.05715 28.1504 8.9145L30.9647 6.10021C30.971 6.20204 30.9743 6.30278 30.9743 6.40308C30.9892 9.33456 28.6251 11.7231 25.6936 11.7382C25.2404 11.7404 24.7887 11.6847 24.3498 11.5723C24.1678 11.5269 23.9754 11.58 23.8428 11.7125L23.8457 11.7128Z" fill="url(#paint3_linear_551_4901)"/>
<path d="M25.6392 12.8053C29.1628 12.8171 32.0291 9.97015 32.041 6.44653C32.0427 5.91014 31.9769 5.37595 31.845 4.85602C31.7739 4.57005 31.4844 4.39601 31.1984 4.46712C31.1045 4.4906 31.0189 4.5391 30.9504 4.60736L27.6293 7.92621L24.9944 7.04811L24.1156 4.41379L27.4367 1.09208C27.6449 0.883581 27.6447 0.545814 27.4362 0.337535C27.3675 0.268841 27.281 0.220118 27.1865 0.196854C23.7693 -0.668524 20.2979 1.4 19.4325 4.81696C19.3011 5.33535 19.2354 5.86823 19.2372 6.40308C19.2385 6.82315 19.2817 7.2419 19.3669 7.65319L7.68287 19.337C7.27158 19.2521 6.85283 19.2088 6.43298 19.2073C2.89706 19.2073 0.0307617 22.0736 0.0307617 25.6095C0.0307617 29.1452 2.89706 32.0115 6.43298 32.0115C9.96867 32.0115 12.835 29.1452 12.835 25.6095C12.8337 25.1894 12.7902 24.7707 12.7053 24.3594L15.5024 21.5622L16.7258 22.7856C16.9343 22.9938 17.2718 22.9938 17.4803 22.7856L17.747 22.5187C17.9809 22.2863 18.3591 22.2863 18.593 22.5187C18.8268 22.7518 18.8272 23.1301 18.5941 23.3639C18.5939 23.3641 18.5935 23.3645 18.593 23.365L18.3264 23.6316C18.1181 23.8399 18.1181 24.1777 18.3264 24.3859L24.6906 30.7502C26.3645 32.4395 29.0908 32.4518 30.7801 30.7778C32.4691 29.1039 32.4814 26.3774 30.8075 24.6884C30.7985 24.6792 30.7893 24.6699 30.7801 24.6607L24.4158 18.2967C24.2076 18.0884 23.8698 18.0884 23.6615 18.2967L23.3949 18.5634C23.1607 18.796 22.7828 18.796 22.5486 18.5634C22.3151 18.3303 22.3144 17.9519 22.5475 17.7184C22.5479 17.718 22.5484 17.7177 22.5486 17.7173L22.8155 17.4504C23.0237 17.2421 23.0237 16.9044 22.8155 16.6961L21.5921 15.4728L24.3893 12.6756C24.8006 12.7605 25.2193 12.804 25.6392 12.8053ZM27.7354 30.9446C27.3478 30.944 26.9635 30.874 26.6007 30.7377L30.7674 26.5708C31.3961 28.2434 30.5501 30.1089 28.8775 30.7377C28.5125 30.8748 28.1256 30.9451 27.7354 30.9446ZM21.6913 17.0786C21.1005 17.7834 21.1931 18.8337 21.8978 19.4243C22.5172 19.9434 23.4199 19.943 24.0386 19.4228L30.0258 25.4153C30.0907 25.4805 30.1515 25.5491 30.2103 25.6189L25.6488 30.1804C25.5788 30.1218 25.5101 30.061 25.4449 29.9959L19.4531 24.0036C20.044 23.2989 19.9513 22.2485 19.2466 21.6579C18.6273 21.1386 17.7244 21.1393 17.1057 21.6592L16.2521 20.8057L20.8376 16.2271L21.6913 17.0786ZM23.8457 11.7128L11.7429 23.8131C11.6101 23.9457 11.5568 24.1382 11.602 24.3201C12.3339 27.1945 10.597 30.1181 7.72237 30.8498C4.84795 31.5818 1.92436 29.8449 1.19243 26.9702C0.460707 24.0958 2.19761 21.1722 5.07225 20.4403C5.9418 20.2191 6.85283 20.2191 7.72237 20.4403C7.90431 20.4848 8.09635 20.4315 8.22935 20.2996L20.3293 8.19902C20.4618 8.06646 20.5152 7.87398 20.4695 7.69226C19.7426 4.85141 21.4563 1.95921 24.2971 1.2321C24.8339 1.09493 25.3892 1.04226 25.9423 1.07672L23.128 3.8921C22.9851 4.03476 22.9351 4.24611 22.9989 4.43771L24.0658 7.63893C24.1191 7.79804 24.2442 7.92314 24.4036 7.97603L27.6048 9.04311C27.7961 9.10697 28.0075 9.05715 28.1504 8.9145L30.9647 6.10021C30.971 6.20204 30.9743 6.30278 30.9743 6.40308C30.9892 9.33456 28.6251 11.7231 25.6936 11.7382C25.2404 11.7404 24.7887 11.6847 24.3498 11.5723C24.1678 11.5269 23.9754 11.58 23.8428 11.7125L23.8457 11.7128Z" fill="url(#paint4_linear_551_4901)"/>
<path d="M0.0989183 2.93587L2.23306 6.6704C2.30505 6.7966 2.42554 6.8879 2.56644 6.92324L4.55749 7.421L11.3864 14.2499L12.1409 13.4955L5.20515 6.56001C5.13689 6.49153 5.0513 6.44303 4.95759 6.41955L3.04445 5.93956L1.22744 2.7581L2.78525 1.20029L5.96803 3.01905L6.44824 4.93219C6.4715 5.02612 6.52023 5.11193 6.58848 5.18019L13.5242 12.1159L14.2786 11.3614L7.44969 4.53253L6.95193 2.54258C6.91659 2.40146 6.82529 2.28075 6.6991 2.20854L2.96434 0.0746163C2.75606 -0.0438984 2.49401 -0.00878292 2.32414 0.16043L0.190219 2.29457C0.0185916 2.46335 -0.0187186 2.72584 0.0989183 2.93587Z" fill="black"/>
<path d="M0.0989183 2.93587L2.23306 6.6704C2.30505 6.7966 2.42554 6.8879 2.56644 6.92324L4.55749 7.421L11.3864 14.2499L12.1409 13.4955L5.20515 6.56001C5.13689 6.49153 5.0513 6.44303 4.95759 6.41955L3.04445 5.93956L1.22744 2.7581L2.78525 1.20029L5.96803 3.01905L6.44824 4.93219C6.4715 5.02612 6.52023 5.11193 6.58848 5.18019L13.5242 12.1159L14.2786 11.3614L7.44969 4.53253L6.95193 2.54258C6.91659 2.40146 6.82529 2.28075 6.6991 2.20854L2.96434 0.0746163C2.75606 -0.0438984 2.49401 -0.00878292 2.32414 0.16043L0.190219 2.29457C0.0185916 2.46335 -0.0187186 2.72584 0.0989183 2.93587Z" fill="url(#paint5_linear_551_4901)"/>
<path d="M0.0989183 2.93587L2.23306 6.6704C2.30505 6.7966 2.42554 6.8879 2.56644 6.92324L4.55749 7.421L11.3864 14.2499L12.1409 13.4955L5.20515 6.56001C5.13689 6.49153 5.0513 6.44303 4.95759 6.41955L3.04445 5.93956L1.22744 2.7581L2.78525 1.20029L5.96803 3.01905L6.44824 4.93219C6.4715 5.02612 6.52023 5.11193 6.58848 5.18019L13.5242 12.1159L14.2786 11.3614L7.44969 4.53253L6.95193 2.54258C6.91659 2.40146 6.82529 2.28075 6.6991 2.20854L2.96434 0.0746163C2.75606 -0.0438984 2.49401 -0.00878292 2.32414 0.16043L0.190219 2.29457C0.0185916 2.46335 -0.0187186 2.72584 0.0989183 2.93587Z" fill="url(#paint6_linear_551_4901)"/>
<path d="M22.2803 10.5151L10.5431 22.2524L9.78857 21.4979L21.5259 9.76074L22.2803 10.5151Z" fill="black"/>
<path d="M22.2803 10.5151L10.5431 22.2524L9.78857 21.4979L21.5259 9.76074L22.2803 10.5151Z" fill="url(#paint7_linear_551_4901)"/>
<path d="M22.2803 10.5151L10.5431 22.2524L9.78857 21.4979L21.5259 9.76074L22.2803 10.5151Z" fill="url(#paint8_linear_551_4901)"/>
<path d="M8.48718 22.667C8.39061 22.5063 8.21723 22.4082 8.0298 22.4082H4.8288C4.64159 22.4082 4.46799 22.5063 4.37164 22.667L2.77104 25.3344C2.66942 25.5034 2.66942 25.7148 2.77104 25.884L4.37164 28.5514C4.46799 28.7119 4.64159 28.8102 4.8288 28.8102H8.0298C8.21723 28.8102 8.39061 28.7119 8.48718 28.5514L10.0876 25.884C10.1892 25.7148 10.1892 25.5034 10.0876 25.3344L8.48718 22.667ZM7.72803 27.7431H5.1308L3.8504 25.6092L5.1308 23.4751H7.72803L9.00843 25.6092L7.72803 27.7431Z" fill="black"/>
<path d="M8.48718 22.667C8.39061 22.5063 8.21723 22.4082 8.0298 22.4082H4.8288C4.64159 22.4082 4.46799 22.5063 4.37164 22.667L2.77104 25.3344C2.66942 25.5034 2.66942 25.7148 2.77104 25.884L4.37164 28.5514C4.46799 28.7119 4.64159 28.8102 4.8288 28.8102H8.0298C8.21723 28.8102 8.39061 28.7119 8.48718 28.5514L10.0876 25.884C10.1892 25.7148 10.1892 25.5034 10.0876 25.3344L8.48718 22.667ZM7.72803 27.7431H5.1308L3.8504 25.6092L5.1308 23.4751H7.72803L9.00843 25.6092L7.72803 27.7431Z" fill="url(#paint9_linear_551_4901)"/>
<path d="M8.48718 22.667C8.39061 22.5063 8.21723 22.4082 8.0298 22.4082H4.8288C4.64159 22.4082 4.46799 22.5063 4.37164 22.667L2.77104 25.3344C2.66942 25.5034 2.66942 25.7148 2.77104 25.884L4.37164 28.5514C4.46799 28.7119 4.64159 28.8102 4.8288 28.8102H8.0298C8.21723 28.8102 8.39061 28.7119 8.48718 28.5514L10.0876 25.884C10.1892 25.7148 10.1892 25.5034 10.0876 25.3344L8.48718 22.667ZM7.72803 27.7431H5.1308L3.8504 25.6092L5.1308 23.4751H7.72803L9.00843 25.6092L7.72803 27.7431Z" fill="url(#paint10_linear_551_4901)"/>
<path d="M25.6392 12.8053C29.1628 12.8171 32.0291 9.97015 32.041 6.44653C32.0427 5.91014 31.9769 5.37595 31.845 4.85602C31.7739 4.57005 31.4844 4.39601 31.1984 4.46712C31.1045 4.4906 31.0189 4.5391 30.9504 4.60736L27.6293 7.92621L24.9944 7.04811L24.1156 4.41379L27.4367 1.09208C27.6449 0.883581 27.6447 0.545814 27.4362 0.337535C27.3675 0.268841 27.281 0.220118 27.1865 0.196854C23.7693 -0.668524 20.2979 1.4 19.4325 4.81696C19.3011 5.33535 19.2354 5.86823 19.2372 6.40308C19.2385 6.82315 19.2817 7.2419 19.3669 7.65319L7.68287 19.337C7.27158 19.2521 6.85283 19.2088 6.43298 19.2073C2.89706 19.2073 0.0307617 22.0736 0.0307617 25.6095C0.0307617 29.1452 2.89706 32.0115 6.43298 32.0115C9.96867 32.0115 12.835 29.1452 12.835 25.6095C12.8337 25.1894 12.7902 24.7707 12.7053 24.3594L15.5024 21.5622L16.7258 22.7856C16.9343 22.9938 17.2718 22.9938 17.4803 22.7856L17.747 22.5187C17.9809 22.2863 18.3591 22.2863 18.593 22.5187C18.8268 22.7518 18.8272 23.1301 18.5941 23.3639C18.5939 23.3641 18.5935 23.3645 18.593 23.365L18.3264 23.6316C18.1181 23.8399 18.1181 24.1777 18.3264 24.3859L24.6906 30.7502C26.3645 32.4395 29.0908 32.4518 30.7801 30.7778C32.4691 29.1039 32.4814 26.3774 30.8075 24.6884C30.7985 24.6792 30.7893 24.6699 30.7801 24.6607L24.4158 18.2967C24.2076 18.0884 23.8698 18.0884 23.6615 18.2967L23.3949 18.5634C23.1607 18.796 22.7828 18.796 22.5486 18.5634C22.3151 18.3303 22.3144 17.9519 22.5475 17.7184C22.5479 17.718 22.5484 17.7177 22.5486 17.7173L22.8155 17.4504C23.0237 17.2421 23.0237 16.9044 22.8155 16.6961L21.5921 15.4728L24.3893 12.6756C24.8006 12.7605 25.2193 12.804 25.6392 12.8053ZM27.7354 30.9446C27.3478 30.944 26.9635 30.874 26.6007 30.7377L30.7674 26.5708C31.3961 28.2434 30.5501 30.1089 28.8775 30.7377C28.5125 30.8748 28.1256 30.9451 27.7354 30.9446ZM21.6913 17.0786C21.1005 17.7834 21.1931 18.8337 21.8978 19.4243C22.5172 19.9434 23.4199 19.943 24.0386 19.4228L30.0258 25.4153C30.0907 25.4805 30.1515 25.5491 30.2103 25.6189L25.6488 30.1804C25.5788 30.1218 25.5101 30.061 25.4449 29.9959L19.4531 24.0036C20.044 23.2989 19.9513 22.2485 19.2466 21.6579C18.6273 21.1386 17.7244 21.1393 17.1057 21.6592L16.2521 20.8057L20.8376 16.2271L21.6913 17.0786ZM23.8457 11.7128L11.7429 23.8131C11.6101 23.9457 11.5568 24.1382 11.602 24.3201C12.3339 27.1945 10.597 30.1181 7.72237 30.8498C4.84795 31.5818 1.92436 29.8449 1.19243 26.9702C0.460707 24.0958 2.19761 21.1722 5.07225 20.4403C5.9418 20.2191 6.85283 20.2191 7.72237 20.4403C7.90431 20.4848 8.09635 20.4315 8.22935 20.2996L20.3293 8.19902C20.4618 8.06646 20.5152 7.87398 20.4695 7.69226C19.7426 4.85141 21.4563 1.95921 24.2971 1.2321C24.8339 1.09493 25.3892 1.04226 25.9423 1.07672L23.128 3.8921C22.9851 4.03476 22.9351 4.24611 22.9989 4.43771L24.0658 7.63893C24.1191 7.79804 24.2442 7.92314 24.4036 7.97603L27.6048 9.04311C27.7961 9.10697 28.0075 9.05715 28.1504 8.9145L30.9647 6.10021C30.971 6.20204 30.9743 6.30278 30.9743 6.40308C30.9892 9.33456 28.6251 11.7231 25.6936 11.7382C25.2404 11.7404 24.7887 11.6847 24.3498 11.5723C24.1678 11.5269 23.9754 11.58 23.8428 11.7125L23.8457 11.7128Z" fill="black"/>
<path d="M25.6392 12.8053C29.1628 12.8171 32.0291 9.97015 32.041 6.44653C32.0427 5.91014 31.9769 5.37595 31.845 4.85602C31.7739 4.57005 31.4844 4.39601 31.1984 4.46712C31.1045 4.4906 31.0189 4.5391 30.9504 4.60736L27.6293 7.92621L24.9944 7.04811L24.1156 4.41379L27.4367 1.09208C27.6449 0.883581 27.6447 0.545814 27.4362 0.337535C27.3675 0.268841 27.281 0.220118 27.1865 0.196854C23.7693 -0.668524 20.2979 1.4 19.4325 4.81696C19.3011 5.33535 19.2354 5.86823 19.2372 6.40308C19.2385 6.82315 19.2817 7.2419 19.3669 7.65319L7.68287 19.337C7.27158 19.2521 6.85283 19.2088 6.43298 19.2073C2.89706 19.2073 0.0307617 22.0736 0.0307617 25.6095C0.0307617 29.1452 2.89706 32.0115 6.43298 32.0115C9.96867 32.0115 12.835 29.1452 12.835 25.6095C12.8337 25.1894 12.7902 24.7707 12.7053 24.3594L15.5024 21.5622L16.7258 22.7856C16.9343 22.9938 17.2718 22.9938 17.4803 22.7856L17.747 22.5187C17.9809 22.2863 18.3591 22.2863 18.593 22.5187C18.8268 22.7518 18.8272 23.1301 18.5941 23.3639C18.5939 23.3641 18.5935 23.3645 18.593 23.365L18.3264 23.6316C18.1181 23.8399 18.1181 24.1777 18.3264 24.3859L24.6906 30.7502C26.3645 32.4395 29.0908 32.4518 30.7801 30.7778C32.4691 29.1039 32.4814 26.3774 30.8075 24.6884C30.7985 24.6792 30.7893 24.6699 30.7801 24.6607L24.4158 18.2967C24.2076 18.0884 23.8698 18.0884 23.6615 18.2967L23.3949 18.5634C23.1607 18.796 22.7828 18.796 22.5486 18.5634C22.3151 18.3303 22.3144 17.9519 22.5475 17.7184C22.5479 17.718 22.5484 17.7177 22.5486 17.7173L22.8155 17.4504C23.0237 17.2421 23.0237 16.9044 22.8155 16.6961L21.5921 15.4728L24.3893 12.6756C24.8006 12.7605 25.2193 12.804 25.6392 12.8053ZM27.7354 30.9446C27.3478 30.944 26.9635 30.874 26.6007 30.7377L30.7674 26.5708C31.3961 28.2434 30.5501 30.1089 28.8775 30.7377C28.5125 30.8748 28.1256 30.9451 27.7354 30.9446ZM21.6913 17.0786C21.1005 17.7834 21.1931 18.8337 21.8978 19.4243C22.5172 19.9434 23.4199 19.943 24.0386 19.4228L30.0258 25.4153C30.0907 25.4805 30.1515 25.5491 30.2103 25.6189L25.6488 30.1804C25.5788 30.1218 25.5101 30.061 25.4449 29.9959L19.4531 24.0036C20.044 23.2989 19.9513 22.2485 19.2466 21.6579C18.6273 21.1386 17.7244 21.1393 17.1057 21.6592L16.2521 20.8057L20.8376 16.2271L21.6913 17.0786ZM23.8457 11.7128L11.7429 23.8131C11.6101 23.9457 11.5568 24.1382 11.602 24.3201C12.3339 27.1945 10.597 30.1181 7.72237 30.8498C4.84795 31.5818 1.92436 29.8449 1.19243 26.9702C0.460707 24.0958 2.19761 21.1722 5.07225 20.4403C5.9418 20.2191 6.85283 20.2191 7.72237 20.4403C7.90431 20.4848 8.09635 20.4315 8.22935 20.2996L20.3293 8.19902C20.4618 8.06646 20.5152 7.87398 20.4695 7.69226C19.7426 4.85141 21.4563 1.95921 24.2971 1.2321C24.8339 1.09493 25.3892 1.04226 25.9423 1.07672L23.128 3.8921C22.9851 4.03476 22.9351 4.24611 22.9989 4.43771L24.0658 7.63893C24.1191 7.79804 24.2442 7.92314 24.4036 7.97603L27.6048 9.04311C27.7961 9.10697 28.0075 9.05715 28.1504 8.9145L30.9647 6.10021C30.971 6.20204 30.9743 6.30278 30.9743 6.40308C30.9892 9.33456 28.6251 11.7231 25.6936 11.7382C25.2404 11.7404 24.7887 11.6847 24.3498 11.5723C24.1678 11.5269 23.9754 11.58 23.8428 11.7125L23.8457 11.7128Z" fill="url(#paint11_linear_551_4901)"/>
<path d="M25.6392 12.8053C29.1628 12.8171 32.0291 9.97015 32.041 6.44653C32.0427 5.91014 31.9769 5.37595 31.845 4.85602C31.7739 4.57005 31.4844 4.39601 31.1984 4.46712C31.1045 4.4906 31.0189 4.5391 30.9504 4.60736L27.6293 7.92621L24.9944 7.04811L24.1156 4.41379L27.4367 1.09208C27.6449 0.883581 27.6447 0.545814 27.4362 0.337535C27.3675 0.268841 27.281 0.220118 27.1865 0.196854C23.7693 -0.668524 20.2979 1.4 19.4325 4.81696C19.3011 5.33535 19.2354 5.86823 19.2372 6.40308C19.2385 6.82315 19.2817 7.2419 19.3669 7.65319L7.68287 19.337C7.27158 19.2521 6.85283 19.2088 6.43298 19.2073C2.89706 19.2073 0.0307617 22.0736 0.0307617 25.6095C0.0307617 29.1452 2.89706 32.0115 6.43298 32.0115C9.96867 32.0115 12.835 29.1452 12.835 25.6095C12.8337 25.1894 12.7902 24.7707 12.7053 24.3594L15.5024 21.5622L16.7258 22.7856C16.9343 22.9938 17.2718 22.9938 17.4803 22.7856L17.747 22.5187C17.9809 22.2863 18.3591 22.2863 18.593 22.5187C18.8268 22.7518 18.8272 23.1301 18.5941 23.3639C18.5939 23.3641 18.5935 23.3645 18.593 23.365L18.3264 23.6316C18.1181 23.8399 18.1181 24.1777 18.3264 24.3859L24.6906 30.7502C26.3645 32.4395 29.0908 32.4518 30.7801 30.7778C32.4691 29.1039 32.4814 26.3774 30.8075 24.6884C30.7985 24.6792 30.7893 24.6699 30.7801 24.6607L24.4158 18.2967C24.2076 18.0884 23.8698 18.0884 23.6615 18.2967L23.3949 18.5634C23.1607 18.796 22.7828 18.796 22.5486 18.5634C22.3151 18.3303 22.3144 17.9519 22.5475 17.7184C22.5479 17.718 22.5484 17.7177 22.5486 17.7173L22.8155 17.4504C23.0237 17.2421 23.0237 16.9044 22.8155 16.6961L21.5921 15.4728L24.3893 12.6756C24.8006 12.7605 25.2193 12.804 25.6392 12.8053ZM27.7354 30.9446C27.3478 30.944 26.9635 30.874 26.6007 30.7377L30.7674 26.5708C31.3961 28.2434 30.5501 30.1089 28.8775 30.7377C28.5125 30.8748 28.1256 30.9451 27.7354 30.9446ZM21.6913 17.0786C21.1005 17.7834 21.1931 18.8337 21.8978 19.4243C22.5172 19.9434 23.4199 19.943 24.0386 19.4228L30.0258 25.4153C30.0907 25.4805 30.1515 25.5491 30.2103 25.6189L25.6488 30.1804C25.5788 30.1218 25.5101 30.061 25.4449 29.9959L19.4531 24.0036C20.044 23.2989 19.9513 22.2485 19.2466 21.6579C18.6273 21.1386 17.7244 21.1393 17.1057 21.6592L16.2521 20.8057L20.8376 16.2271L21.6913 17.0786ZM23.8457 11.7128L11.7429 23.8131C11.6101 23.9457 11.5568 24.1382 11.602 24.3201C12.3339 27.1945 10.597 30.1181 7.72237 30.8498C4.84795 31.5818 1.92436 29.8449 1.19243 26.9702C0.460707 24.0958 2.19761 21.1722 5.07225 20.4403C5.9418 20.2191 6.85283 20.2191 7.72237 20.4403C7.90431 20.4848 8.09635 20.4315 8.22935 20.2996L20.3293 8.19902C20.4618 8.06646 20.5152 7.87398 20.4695 7.69226C19.7426 4.85141 21.4563 1.95921 24.2971 1.2321C24.8339 1.09493 25.3892 1.04226 25.9423 1.07672L23.128 3.8921C22.9851 4.03476 22.9351 4.24611 22.9989 4.43771L24.0658 7.63893C24.1191 7.79804 24.2442 7.92314 24.4036 7.97603L27.6048 9.04311C27.7961 9.10697 28.0075 9.05715 28.1504 8.9145L30.9647 6.10021C30.971 6.20204 30.9743 6.30278 30.9743 6.40308C30.9892 9.33456 28.6251 11.7231 25.6936 11.7382C25.2404 11.7404 24.7887 11.6847 24.3498 11.5723C24.1678 11.5269 23.9754 11.58 23.8428 11.7125L23.8457 11.7128Z" fill="url(#paint12_linear_551_4901)"/>
<path d="M27.6202 26.833L26.8657 27.5875L21.5308 22.2526L22.2851 21.498L27.6202 26.833Z" fill="black"/>
<path d="M27.6202 26.833L26.8657 27.5875L21.5308 22.2526L22.2851 21.498L27.6202 26.833Z" fill="url(#paint13_linear_551_4901)"/>
<path d="M27.6202 26.833L26.8657 27.5875L21.5308 22.2526L22.2851 21.498L27.6202 26.833Z" fill="url(#paint14_linear_551_4901)"/>
<path d="M27.6173 26.8326L26.8628 27.5871L21.5278 22.2522L22.2822 21.4977L27.6173 26.8326Z" fill="black"/>
<path d="M27.6173 26.8326L26.8628 27.5871L21.5278 22.2522L22.2822 21.4977L27.6173 26.8326Z" fill="url(#paint15_linear_551_4901)"/>
</g>
<defs>
<linearGradient id="paint0_linear_551_4901" x1="1.90323" y1="2.85339" x2="11.7859" y2="11.7584" gradientUnits="userSpaceOnUse">
<stop stop-color="#1E3C72"/>
<stop offset="1" stop-color="#2A5298"/>
</linearGradient>
<linearGradient id="paint1_linear_551_4901" x1="11.4301" y1="12.2587" x2="20.0962" y2="20.066" gradientUnits="userSpaceOnUse">
<stop stop-color="#1E3C72"/>
<stop offset="1" stop-color="#2A5298"/>
</linearGradient>
<linearGradient id="paint2_linear_551_4901" x1="3.67854" y1="23.689" x2="8.13861" y2="28.3767" gradientUnits="userSpaceOnUse">
<stop stop-color="#1E3C72"/>
<stop offset="1" stop-color="#2A5298"/>
</linearGradient>
<linearGradient id="paint3_linear_551_4901" x1="4.23394" y1="6.40505" x2="26.4514" y2="26.4201" gradientUnits="userSpaceOnUse">
<stop stop-color="#1E3C72"/>
<stop offset="1" stop-color="#2A5298"/>
</linearGradient>
<linearGradient id="paint4_linear_551_4901" x1="0.666478" y1="16.4232" x2="31.7914" y2="16.4886" gradientUnits="userSpaceOnUse">
<stop stop-color="#4E54C8"/>
<stop offset="1" stop-color="#8F94FB"/>
</linearGradient>
<linearGradient id="paint5_linear_551_4901" x1="4.23394" y1="6.40505" x2="26.4514" y2="26.4201" gradientUnits="userSpaceOnUse">
<stop stop-color="#1E3C72"/>
<stop offset="1" stop-color="#2A5298"/>
</linearGradient>
<linearGradient id="paint6_linear_551_4901" x1="0.666478" y1="16.4232" x2="31.7914" y2="16.4886" gradientUnits="userSpaceOnUse">
<stop stop-color="#4E54C8"/>
<stop offset="1" stop-color="#8F94FB"/>
</linearGradient>
<linearGradient id="paint7_linear_551_4901" x1="4.23394" y1="6.40505" x2="26.4514" y2="26.4201" gradientUnits="userSpaceOnUse">
<stop stop-color="#1E3C72"/>
<stop offset="1" stop-color="#2A5298"/>
</linearGradient>
<linearGradient id="paint8_linear_551_4901" x1="0.666478" y1="16.4232" x2="31.7914" y2="16.4886" gradientUnits="userSpaceOnUse">
<stop stop-color="#4E54C8"/>
<stop offset="1" stop-color="#8F94FB"/>
</linearGradient>
<linearGradient id="paint9_linear_551_4901" x1="4.23394" y1="6.40505" x2="26.4514" y2="26.4201" gradientUnits="userSpaceOnUse">
<stop stop-color="#1E3C72"/>
<stop offset="1" stop-color="#2A5298"/>
</linearGradient>
<linearGradient id="paint10_linear_551_4901" x1="0.666478" y1="16.4232" x2="31.7914" y2="16.4886" gradientUnits="userSpaceOnUse">
<stop stop-color="#4E54C8"/>
<stop offset="1" stop-color="#8F94FB"/>
</linearGradient>
<linearGradient id="paint11_linear_551_4901" x1="4.23394" y1="6.40505" x2="26.4514" y2="26.4201" gradientUnits="userSpaceOnUse">
<stop stop-color="#1E3C72"/>
<stop offset="1" stop-color="#2A5298"/>
</linearGradient>
<linearGradient id="paint12_linear_551_4901" x1="0.666478" y1="16.4232" x2="31.7914" y2="16.4886" gradientUnits="userSpaceOnUse">
<stop stop-color="#4E54C8"/>
<stop offset="1" stop-color="#8F94FB"/>
</linearGradient>
<linearGradient id="paint13_linear_551_4901" x1="4.23394" y1="6.40505" x2="26.4514" y2="26.4201" gradientUnits="userSpaceOnUse">
<stop stop-color="#1E3C72"/>
<stop offset="1" stop-color="#2A5298"/>
</linearGradient>
<linearGradient id="paint14_linear_551_4901" x1="0.666478" y1="16.4232" x2="31.7914" y2="16.4886" gradientUnits="userSpaceOnUse">
<stop stop-color="#4E54C8"/>
<stop offset="1" stop-color="#8F94FB"/>
</linearGradient>
<linearGradient id="paint15_linear_551_4901" x1="22.3271" y1="22.7156" x2="26.5516" y2="26.5215" gradientUnits="userSpaceOnUse">
<stop stop-color="#1E3C72"/>
<stop offset="1" stop-color="#2A5298"/>
</linearGradient>
<clipPath id="clip0_551_4901">
<rect width="32" height="32" fill="white"/>
</clipPath>
</defs>
</svg>
