<svg width="28" height="32" viewBox="0 0 28 32" fill="none" xmlns="http://www.w3.org/2000/svg">
<path d="M8.41575 16.0376C8.30544 15.9272 8.13952 15.8942 7.99541 15.954C7.8513 16.0136 7.75732 16.1543 7.75732 16.3103V23.1554C7.75732 23.3684 7.92998 23.5411 8.14303 23.5411H14.9881C15.1441 23.5411 15.2847 23.4471 15.3445 23.303C15.4041 23.1589 15.3711 22.993 15.2609 22.8827L8.41575 16.0376ZM8.52873 22.7697V17.2414L14.0569 22.7697H8.52873Z" fill="black"/>
<path d="M8.41575 16.0376C8.30544 15.9272 8.13952 15.8942 7.99541 15.954C7.8513 16.0136 7.75732 16.1543 7.75732 16.3103V23.1554C7.75732 23.3684 7.92998 23.5411 8.14303 23.5411H14.9881C15.1441 23.5411 15.2847 23.4471 15.3445 23.303C15.4041 23.1589 15.3711 22.993 15.2609 22.8827L8.41575 16.0376ZM8.52873 22.7697V17.2414L14.0569 22.7697H8.52873Z" fill="url(#paint0_linear_551_2020)"/>
<path d="M8.41575 16.0376C8.30544 15.9272 8.13952 15.8942 7.99541 15.954C7.8513 16.0136 7.75732 16.1543 7.75732 16.3103V23.1554C7.75732 23.3684 7.92998 23.5411 8.14303 23.5411H14.9881C15.1441 23.5411 15.2847 23.4471 15.3445 23.303C15.4041 23.1589 15.3711 22.993 15.2609 22.8827L8.41575 16.0376ZM8.52873 22.7697V17.2414L14.0569 22.7697H8.52873Z" fill="url(#paint1_linear_551_2020)"/>
<path d="M27.887 2.37607L25.8816 0.370625C25.7309 0.219991 25.4868 0.220061 25.3361 0.370625L13.746 11.9608C13.7089 11.9979 13.6798 12.0421 13.6603 12.0908L12.3899 15.2808L7.27772 10.1685L8.19514 9.25119C8.34577 9.10056 8.34577 8.85637 8.19514 8.70574C8.0445 8.5551 7.80032 8.5551 7.64968 8.70574L6.73227 9.62308L5.19339 8.08419V0.385703C5.19339 0.172655 5.02073 0 4.80768 0H0.385703C0.172655 0 0 0.172655 0 0.385703V31.1011C0 31.3142 0.172655 31.4868 0.385703 31.4868H4.80768C5.02073 31.4868 5.19339 31.3142 5.19339 31.1011V26.883H22.9013L23.9785 27.9602C24.0538 28.0355 24.1524 28.0731 24.2512 28.0731C24.3499 28.0731 24.4486 28.0355 24.5239 27.9602C24.6745 27.8095 24.6745 27.5653 24.5239 27.4147L12.9769 15.8677L16.1668 14.5972C16.2155 14.5778 16.2598 14.5487 16.2969 14.5117L27.887 2.92152C27.9593 2.84922 28 2.75111 28 2.6488C28 2.54648 27.9593 2.44837 27.887 2.37607ZM4.42191 30.7154H0.771406V30.0291H1.4339C1.64695 30.0291 1.81961 29.8564 1.81961 29.6434C1.81961 29.4303 1.64695 29.2577 1.4339 29.2577H0.771406V28.0433H1.4339C1.64695 28.0433 1.81961 27.8707 1.81961 27.6576C1.81961 27.4446 1.64695 27.2719 1.4339 27.2719H0.771406V26.0577H1.4339C1.64695 26.0577 1.81961 25.885 1.81961 25.672C1.81961 25.4589 1.64695 25.2863 1.4339 25.2863H0.771406V24.0719H1.4339C1.64695 24.0719 1.81961 23.8993 1.81961 23.6862C1.81961 23.4732 1.64695 23.3005 1.4339 23.3005H0.771406V22.0863H1.4339C1.64695 22.0863 1.81961 21.9136 1.81961 21.7006C1.81961 21.4875 1.64695 21.3149 1.4339 21.3149H0.771406V20.1005H1.4339C1.64695 20.1005 1.81961 19.9279 1.81961 19.7148C1.81961 19.5018 1.64695 19.3291 1.4339 19.3291H0.771406V18.1149H1.4339C1.64695 18.1149 1.81961 17.9422 1.81961 17.7292C1.81961 17.5161 1.64695 17.3434 1.4339 17.3434H0.771406V16.1291H1.4339C1.64695 16.1291 1.81961 15.9565 1.81961 15.7434C1.81961 15.5304 1.64695 15.3577 1.4339 15.3577H0.771406V14.1434H1.4339C1.64695 14.1434 1.81961 13.9708 1.81961 13.7577C1.81961 13.5447 1.64695 13.372 1.4339 13.372H0.771406V12.1577H1.4339C1.64695 12.1577 1.81961 11.9851 1.81961 11.772C1.81961 11.559 1.64695 11.3863 1.4339 11.3863H0.771406V10.172H1.4339C1.64695 10.172 1.81961 9.99938 1.81961 9.78634C1.81961 9.57329 1.64695 9.40063 1.4339 9.40063H0.771406V8.1863H1.4339C1.64695 8.1863 1.81961 8.01365 1.81961 7.8006C1.81961 7.58755 1.64695 7.41489 1.4339 7.41489H0.771406V6.20056H1.4339C1.64695 6.20056 1.81961 6.02791 1.81961 5.81486C1.81961 5.60181 1.64695 5.42915 1.4339 5.42915H0.771406V4.21489H1.4339C1.64695 4.21489 1.81961 4.04224 1.81961 3.82919C1.81961 3.61614 1.64695 3.44349 1.4339 3.44349H0.771406V2.22915H1.4339C1.64695 2.22915 1.81961 2.0565 1.81961 1.84345C1.81961 1.6304 1.64695 1.45775 1.4339 1.45775H0.771406V0.771406H4.42198L4.42191 30.7154ZM5.19332 26.1116V9.17503L7.07036 11.0521L5.97293 12.1495C5.82229 12.3001 5.82229 12.5443 5.97293 12.695C6.04824 12.7703 6.14691 12.8079 6.24565 12.8079C6.34439 12.8079 6.44306 12.7703 6.51838 12.695L7.61581 11.5975L8.47445 12.4562L7.37702 13.5536C7.22639 13.7042 7.22639 13.9484 7.37702 14.0991C7.45234 14.1744 7.55101 14.212 7.64975 14.212C7.74849 14.212 7.84716 14.1744 7.92248 14.0991L9.01991 13.0016L9.87855 13.8603L8.78112 14.9577C8.63049 15.1083 8.63049 15.3525 8.78112 15.5032C8.85644 15.5785 8.95511 15.6161 9.05385 15.6161C9.15259 15.6161 9.25126 15.5785 9.32658 15.5032L10.424 14.4057L11.2827 15.2644L10.1852 16.3618C10.0346 16.5124 10.0346 16.7566 10.1852 16.9073C10.2605 16.9826 10.3592 17.0202 10.458 17.0202C10.5567 17.0202 10.6554 16.9826 10.7307 16.9073L11.8281 15.8098L12.6868 16.6685L11.5893 17.7659C11.4387 17.9165 11.4387 18.1607 11.5893 18.3114C11.6646 18.3867 11.7633 18.4243 11.862 18.4243C11.9608 18.4243 12.0595 18.3867 12.1348 18.3114L13.2322 17.2139L14.0909 18.0726L12.9934 19.17C12.8428 19.3206 12.8428 19.5648 12.9934 19.7155C13.0687 19.7908 13.1674 19.8284 13.2661 19.8284C13.3649 19.8284 13.4636 19.7908 13.5389 19.7155L14.6363 18.618L15.4949 19.4767L14.3975 20.5741C14.2469 20.7247 14.2469 20.9689 14.3975 21.1195C14.4728 21.1949 14.5715 21.2325 14.6702 21.2325C14.769 21.2325 14.8677 21.1949 14.943 21.1195L16.0404 20.0221L16.899 20.8808L15.8016 21.9782C15.651 22.1288 15.651 22.373 15.8016 22.5236C15.8769 22.599 15.9756 22.6366 16.0743 22.6366C16.173 22.6366 16.2718 22.599 16.3471 22.5236L17.4445 21.4262L18.3031 22.2849L17.2057 23.3823C17.0551 23.5329 17.0551 23.7771 17.2057 23.9277C17.281 24.0031 17.3797 24.0407 17.4784 24.0407C17.5772 24.0407 17.6759 24.0031 17.7512 23.9277L18.8486 22.8303L19.7072 23.689L18.6098 24.7864C18.4592 24.937 18.4592 25.1812 18.6098 25.3318C18.6851 25.4072 18.7838 25.4448 18.8825 25.4448C18.9813 25.4448 19.08 25.4072 19.1553 25.3318L20.2527 24.2344L22.1297 26.1115H5.19332V26.1116ZM15.5669 13.2362L25.1575 3.64559L25.6147 4.10283L16.0241 13.6934L15.5669 13.2362ZM15.0214 12.6907L14.5642 12.2335L24.1548 2.64291L24.6121 3.10014L15.0214 12.6907ZM14.1603 12.9206L15.3371 14.0974L13.3814 14.8763L14.1603 12.9206ZM26.1603 3.55737L24.7003 2.09745L25.6089 1.18888L27.0688 2.6488L26.1603 3.55737Z" fill="black"/>
<path d="M27.887 2.37607L25.8816 0.370625C25.7309 0.219991 25.4868 0.220061 25.3361 0.370625L13.746 11.9608C13.7089 11.9979 13.6798 12.0421 13.6603 12.0908L12.3899 15.2808L7.27772 10.1685L8.19514 9.25119C8.34577 9.10056 8.34577 8.85637 8.19514 8.70574C8.0445 8.5551 7.80032 8.5551 7.64968 8.70574L6.73227 9.62308L5.19339 8.08419V0.385703C5.19339 0.172655 5.02073 0 4.80768 0H0.385703C0.172655 0 0 0.172655 0 0.385703V31.1011C0 31.3142 0.172655 31.4868 0.385703 31.4868H4.80768C5.02073 31.4868 5.19339 31.3142 5.19339 31.1011V26.883H22.9013L23.9785 27.9602C24.0538 28.0355 24.1524 28.0731 24.2512 28.0731C24.3499 28.0731 24.4486 28.0355 24.5239 27.9602C24.6745 27.8095 24.6745 27.5653 24.5239 27.4147L12.9769 15.8677L16.1668 14.5972C16.2155 14.5778 16.2598 14.5487 16.2969 14.5117L27.887 2.92152C27.9593 2.84922 28 2.75111 28 2.6488C28 2.54648 27.9593 2.44837 27.887 2.37607ZM4.42191 30.7154H0.771406V30.0291H1.4339C1.64695 30.0291 1.81961 29.8564 1.81961 29.6434C1.81961 29.4303 1.64695 29.2577 1.4339 29.2577H0.771406V28.0433H1.4339C1.64695 28.0433 1.81961 27.8707 1.81961 27.6576C1.81961 27.4446 1.64695 27.2719 1.4339 27.2719H0.771406V26.0577H1.4339C1.64695 26.0577 1.81961 25.885 1.81961 25.672C1.81961 25.4589 1.64695 25.2863 1.4339 25.2863H0.771406V24.0719H1.4339C1.64695 24.0719 1.81961 23.8993 1.81961 23.6862C1.81961 23.4732 1.64695 23.3005 1.4339 23.3005H0.771406V22.0863H1.4339C1.64695 22.0863 1.81961 21.9136 1.81961 21.7006C1.81961 21.4875 1.64695 21.3149 1.4339 21.3149H0.771406V20.1005H1.4339C1.64695 20.1005 1.81961 19.9279 1.81961 19.7148C1.81961 19.5018 1.64695 19.3291 1.4339 19.3291H0.771406V18.1149H1.4339C1.64695 18.1149 1.81961 17.9422 1.81961 17.7292C1.81961 17.5161 1.64695 17.3434 1.4339 17.3434H0.771406V16.1291H1.4339C1.64695 16.1291 1.81961 15.9565 1.81961 15.7434C1.81961 15.5304 1.64695 15.3577 1.4339 15.3577H0.771406V14.1434H1.4339C1.64695 14.1434 1.81961 13.9708 1.81961 13.7577C1.81961 13.5447 1.64695 13.372 1.4339 13.372H0.771406V12.1577H1.4339C1.64695 12.1577 1.81961 11.9851 1.81961 11.772C1.81961 11.559 1.64695 11.3863 1.4339 11.3863H0.771406V10.172H1.4339C1.64695 10.172 1.81961 9.99938 1.81961 9.78634C1.81961 9.57329 1.64695 9.40063 1.4339 9.40063H0.771406V8.1863H1.4339C1.64695 8.1863 1.81961 8.01365 1.81961 7.8006C1.81961 7.58755 1.64695 7.41489 1.4339 7.41489H0.771406V6.20056H1.4339C1.64695 6.20056 1.81961 6.02791 1.81961 5.81486C1.81961 5.60181 1.64695 5.42915 1.4339 5.42915H0.771406V4.21489H1.4339C1.64695 4.21489 1.81961 4.04224 1.81961 3.82919C1.81961 3.61614 1.64695 3.44349 1.4339 3.44349H0.771406V2.22915H1.4339C1.64695 2.22915 1.81961 2.0565 1.81961 1.84345C1.81961 1.6304 1.64695 1.45775 1.4339 1.45775H0.771406V0.771406H4.42198L4.42191 30.7154ZM5.19332 26.1116V9.17503L7.07036 11.0521L5.97293 12.1495C5.82229 12.3001 5.82229 12.5443 5.97293 12.695C6.04824 12.7703 6.14691 12.8079 6.24565 12.8079C6.34439 12.8079 6.44306 12.7703 6.51838 12.695L7.61581 11.5975L8.47445 12.4562L7.37702 13.5536C7.22639 13.7042 7.22639 13.9484 7.37702 14.0991C7.45234 14.1744 7.55101 14.212 7.64975 14.212C7.74849 14.212 7.84716 14.1744 7.92248 14.0991L9.01991 13.0016L9.87855 13.8603L8.78112 14.9577C8.63049 15.1083 8.63049 15.3525 8.78112 15.5032C8.85644 15.5785 8.95511 15.6161 9.05385 15.6161C9.15259 15.6161 9.25126 15.5785 9.32658 15.5032L10.424 14.4057L11.2827 15.2644L10.1852 16.3618C10.0346 16.5124 10.0346 16.7566 10.1852 16.9073C10.2605 16.9826 10.3592 17.0202 10.458 17.0202C10.5567 17.0202 10.6554 16.9826 10.7307 16.9073L11.8281 15.8098L12.6868 16.6685L11.5893 17.7659C11.4387 17.9165 11.4387 18.1607 11.5893 18.3114C11.6646 18.3867 11.7633 18.4243 11.862 18.4243C11.9608 18.4243 12.0595 18.3867 12.1348 18.3114L13.2322 17.2139L14.0909 18.0726L12.9934 19.17C12.8428 19.3206 12.8428 19.5648 12.9934 19.7155C13.0687 19.7908 13.1674 19.8284 13.2661 19.8284C13.3649 19.8284 13.4636 19.7908 13.5389 19.7155L14.6363 18.618L15.4949 19.4767L14.3975 20.5741C14.2469 20.7247 14.2469 20.9689 14.3975 21.1195C14.4728 21.1949 14.5715 21.2325 14.6702 21.2325C14.769 21.2325 14.8677 21.1949 14.943 21.1195L16.0404 20.0221L16.899 20.8808L15.8016 21.9782C15.651 22.1288 15.651 22.373 15.8016 22.5236C15.8769 22.599 15.9756 22.6366 16.0743 22.6366C16.173 22.6366 16.2718 22.599 16.3471 22.5236L17.4445 21.4262L18.3031 22.2849L17.2057 23.3823C17.0551 23.5329 17.0551 23.7771 17.2057 23.9277C17.281 24.0031 17.3797 24.0407 17.4784 24.0407C17.5772 24.0407 17.6759 24.0031 17.7512 23.9277L18.8486 22.8303L19.7072 23.689L18.6098 24.7864C18.4592 24.937 18.4592 25.1812 18.6098 25.3318C18.6851 25.4072 18.7838 25.4448 18.8825 25.4448C18.9813 25.4448 19.08 25.4072 19.1553 25.3318L20.2527 24.2344L22.1297 26.1115H5.19332V26.1116ZM15.5669 13.2362L25.1575 3.64559L25.6147 4.10283L16.0241 13.6934L15.5669 13.2362ZM15.0214 12.6907L14.5642 12.2335L24.1548 2.64291L24.6121 3.10014L15.0214 12.6907ZM14.1603 12.9206L15.3371 14.0974L13.3814 14.8763L14.1603 12.9206ZM26.1603 3.55737L24.7003 2.09745L25.6089 1.18888L27.0688 2.6488L26.1603 3.55737Z" fill="url(#paint2_linear_551_2020)"/>
<path d="M27.887 2.37607L25.8816 0.370625C25.7309 0.219991 25.4868 0.220061 25.3361 0.370625L13.746 11.9608C13.7089 11.9979 13.6798 12.0421 13.6603 12.0908L12.3899 15.2808L7.27772 10.1685L8.19514 9.25119C8.34577 9.10056 8.34577 8.85637 8.19514 8.70574C8.0445 8.5551 7.80032 8.5551 7.64968 8.70574L6.73227 9.62308L5.19339 8.08419V0.385703C5.19339 0.172655 5.02073 0 4.80768 0H0.385703C0.172655 0 0 0.172655 0 0.385703V31.1011C0 31.3142 0.172655 31.4868 0.385703 31.4868H4.80768C5.02073 31.4868 5.19339 31.3142 5.19339 31.1011V26.883H22.9013L23.9785 27.9602C24.0538 28.0355 24.1524 28.0731 24.2512 28.0731C24.3499 28.0731 24.4486 28.0355 24.5239 27.9602C24.6745 27.8095 24.6745 27.5653 24.5239 27.4147L12.9769 15.8677L16.1668 14.5972C16.2155 14.5778 16.2598 14.5487 16.2969 14.5117L27.887 2.92152C27.9593 2.84922 28 2.75111 28 2.6488C28 2.54648 27.9593 2.44837 27.887 2.37607ZM4.42191 30.7154H0.771406V30.0291H1.4339C1.64695 30.0291 1.81961 29.8564 1.81961 29.6434C1.81961 29.4303 1.64695 29.2577 1.4339 29.2577H0.771406V28.0433H1.4339C1.64695 28.0433 1.81961 27.8707 1.81961 27.6576C1.81961 27.4446 1.64695 27.2719 1.4339 27.2719H0.771406V26.0577H1.4339C1.64695 26.0577 1.81961 25.885 1.81961 25.672C1.81961 25.4589 1.64695 25.2863 1.4339 25.2863H0.771406V24.0719H1.4339C1.64695 24.0719 1.81961 23.8993 1.81961 23.6862C1.81961 23.4732 1.64695 23.3005 1.4339 23.3005H0.771406V22.0863H1.4339C1.64695 22.0863 1.81961 21.9136 1.81961 21.7006C1.81961 21.4875 1.64695 21.3149 1.4339 21.3149H0.771406V20.1005H1.4339C1.64695 20.1005 1.81961 19.9279 1.81961 19.7148C1.81961 19.5018 1.64695 19.3291 1.4339 19.3291H0.771406V18.1149H1.4339C1.64695 18.1149 1.81961 17.9422 1.81961 17.7292C1.81961 17.5161 1.64695 17.3434 1.4339 17.3434H0.771406V16.1291H1.4339C1.64695 16.1291 1.81961 15.9565 1.81961 15.7434C1.81961 15.5304 1.64695 15.3577 1.4339 15.3577H0.771406V14.1434H1.4339C1.64695 14.1434 1.81961 13.9708 1.81961 13.7577C1.81961 13.5447 1.64695 13.372 1.4339 13.372H0.771406V12.1577H1.4339C1.64695 12.1577 1.81961 11.9851 1.81961 11.772C1.81961 11.559 1.64695 11.3863 1.4339 11.3863H0.771406V10.172H1.4339C1.64695 10.172 1.81961 9.99938 1.81961 9.78634C1.81961 9.57329 1.64695 9.40063 1.4339 9.40063H0.771406V8.1863H1.4339C1.64695 8.1863 1.81961 8.01365 1.81961 7.8006C1.81961 7.58755 1.64695 7.41489 1.4339 7.41489H0.771406V6.20056H1.4339C1.64695 6.20056 1.81961 6.02791 1.81961 5.81486C1.81961 5.60181 1.64695 5.42915 1.4339 5.42915H0.771406V4.21489H1.4339C1.64695 4.21489 1.81961 4.04224 1.81961 3.82919C1.81961 3.61614 1.64695 3.44349 1.4339 3.44349H0.771406V2.22915H1.4339C1.64695 2.22915 1.81961 2.0565 1.81961 1.84345C1.81961 1.6304 1.64695 1.45775 1.4339 1.45775H0.771406V0.771406H4.42198L4.42191 30.7154ZM5.19332 26.1116V9.17503L7.07036 11.0521L5.97293 12.1495C5.82229 12.3001 5.82229 12.5443 5.97293 12.695C6.04824 12.7703 6.14691 12.8079 6.24565 12.8079C6.34439 12.8079 6.44306 12.7703 6.51838 12.695L7.61581 11.5975L8.47445 12.4562L7.37702 13.5536C7.22639 13.7042 7.22639 13.9484 7.37702 14.0991C7.45234 14.1744 7.55101 14.212 7.64975 14.212C7.74849 14.212 7.84716 14.1744 7.92248 14.0991L9.01991 13.0016L9.87855 13.8603L8.78112 14.9577C8.63049 15.1083 8.63049 15.3525 8.78112 15.5032C8.85644 15.5785 8.95511 15.6161 9.05385 15.6161C9.15259 15.6161 9.25126 15.5785 9.32658 15.5032L10.424 14.4057L11.2827 15.2644L10.1852 16.3618C10.0346 16.5124 10.0346 16.7566 10.1852 16.9073C10.2605 16.9826 10.3592 17.0202 10.458 17.0202C10.5567 17.0202 10.6554 16.9826 10.7307 16.9073L11.8281 15.8098L12.6868 16.6685L11.5893 17.7659C11.4387 17.9165 11.4387 18.1607 11.5893 18.3114C11.6646 18.3867 11.7633 18.4243 11.862 18.4243C11.9608 18.4243 12.0595 18.3867 12.1348 18.3114L13.2322 17.2139L14.0909 18.0726L12.9934 19.17C12.8428 19.3206 12.8428 19.5648 12.9934 19.7155C13.0687 19.7908 13.1674 19.8284 13.2661 19.8284C13.3649 19.8284 13.4636 19.7908 13.5389 19.7155L14.6363 18.618L15.4949 19.4767L14.3975 20.5741C14.2469 20.7247 14.2469 20.9689 14.3975 21.1195C14.4728 21.1949 14.5715 21.2325 14.6702 21.2325C14.769 21.2325 14.8677 21.1949 14.943 21.1195L16.0404 20.0221L16.899 20.8808L15.8016 21.9782C15.651 22.1288 15.651 22.373 15.8016 22.5236C15.8769 22.599 15.9756 22.6366 16.0743 22.6366C16.173 22.6366 16.2718 22.599 16.3471 22.5236L17.4445 21.4262L18.3031 22.2849L17.2057 23.3823C17.0551 23.5329 17.0551 23.7771 17.2057 23.9277C17.281 24.0031 17.3797 24.0407 17.4784 24.0407C17.5772 24.0407 17.6759 24.0031 17.7512 23.9277L18.8486 22.8303L19.7072 23.689L18.6098 24.7864C18.4592 24.937 18.4592 25.1812 18.6098 25.3318C18.6851 25.4072 18.7838 25.4448 18.8825 25.4448C18.9813 25.4448 19.08 25.4072 19.1553 25.3318L20.2527 24.2344L22.1297 26.1115H5.19332V26.1116ZM15.5669 13.2362L25.1575 3.64559L25.6147 4.10283L16.0241 13.6934L15.5669 13.2362ZM15.0214 12.6907L14.5642 12.2335L24.1548 2.64291L24.6121 3.10014L15.0214 12.6907ZM14.1603 12.9206L15.3371 14.0974L13.3814 14.8763L14.1603 12.9206ZM26.1603 3.55737L24.7003 2.09745L25.6089 1.18888L27.0688 2.6488L26.1603 3.55737Z" fill="url(#paint3_linear_551_2020)"/>
<path d="M25.4597 28.3558C25.3091 28.2051 25.0649 28.2051 24.9142 28.3558C24.7636 28.5064 24.7636 28.7506 24.9142 28.9012L26.1043 30.0913C26.1796 30.1666 26.2783 30.2043 26.377 30.2043C26.4757 30.2043 26.5745 30.1666 26.6498 30.0913C26.8004 29.9407 26.8004 29.6965 26.6498 29.5458L25.4597 28.3558Z" fill="black"/>
<path d="M25.4597 28.3558C25.3091 28.2051 25.0649 28.2051 24.9142 28.3558C24.7636 28.5064 24.7636 28.7506 24.9142 28.9012L26.1043 30.0913C26.1796 30.1666 26.2783 30.2043 26.377 30.2043C26.4757 30.2043 26.5745 30.1666 26.6498 30.0913C26.8004 29.9407 26.8004 29.6965 26.6498 29.5458L25.4597 28.3558Z" fill="url(#paint4_linear_551_2020)"/>
<path d="M25.4597 28.3558C25.3091 28.2051 25.0649 28.2051 24.9142 28.3558C24.7636 28.5064 24.7636 28.7506 24.9142 28.9012L26.1043 30.0913C26.1796 30.1666 26.2783 30.2043 26.377 30.2043C26.4757 30.2043 26.5745 30.1666 26.6498 30.0913C26.8004 29.9407 26.8004 29.6965 26.6498 29.5458L25.4597 28.3558Z" fill="url(#paint5_linear_551_2020)"/>
<path d="M27.5944 30.4884C27.4437 30.3378 27.1995 30.3379 27.0489 30.4886C26.8983 30.6393 26.8984 30.8835 27.0491 31.034L27.0734 31.0582C27.1487 31.1335 27.2473 31.1711 27.346 31.1711C27.4448 31.1711 27.5435 31.1334 27.6189 31.0581C27.7695 30.9074 27.7694 30.6632 27.6187 30.5126L27.5944 30.4884Z" fill="black"/>
<path d="M27.5944 30.4884C27.4437 30.3378 27.1995 30.3379 27.0489 30.4886C26.8983 30.6393 26.8984 30.8835 27.0491 31.034L27.0734 31.0582C27.1487 31.1335 27.2473 31.1711 27.346 31.1711C27.4448 31.1711 27.5435 31.1334 27.6189 31.0581C27.7695 30.9074 27.7694 30.6632 27.6187 30.5126L27.5944 30.4884Z" fill="url(#paint6_linear_551_2020)"/>
<path d="M27.5944 30.4884C27.4437 30.3378 27.1995 30.3379 27.0489 30.4886C26.8983 30.6393 26.8984 30.8835 27.0491 31.034L27.0734 31.0582C27.1487 31.1335 27.2473 31.1711 27.346 31.1711C27.4448 31.1711 27.5435 31.1334 27.6189 31.0581C27.7695 30.9074 27.7694 30.6632 27.6187 30.5126L27.5944 30.4884Z" fill="url(#paint7_linear_551_2020)"/>
<path d="M15.268 2.02557C15.3667 2.02557 15.4654 1.98791 15.5408 1.91252L15.6023 1.85102C15.7528 1.70039 15.7528 1.45613 15.6022 1.30557C15.4516 1.15493 15.2073 1.155 15.0567 1.30564L14.9952 1.36721C14.8447 1.51784 14.8447 1.76203 14.9953 1.91266C15.0706 1.98791 15.1693 2.02557 15.268 2.02557Z" fill="black"/>
<path d="M15.268 2.02557C15.3667 2.02557 15.4654 1.98791 15.5408 1.91252L15.6023 1.85102C15.7528 1.70039 15.7528 1.45613 15.6022 1.30557C15.4516 1.15493 15.2073 1.155 15.0567 1.30564L14.9952 1.36721C14.8447 1.51784 14.8447 1.76203 14.9953 1.91266C15.0706 1.98791 15.1693 2.02557 15.268 2.02557Z" fill="url(#paint8_linear_551_2020)"/>
<path d="M15.268 2.02557C15.3667 2.02557 15.4654 1.98791 15.5408 1.91252L15.6023 1.85102C15.7528 1.70039 15.7528 1.45613 15.6022 1.30557C15.4516 1.15493 15.2073 1.155 15.0567 1.30564L14.9952 1.36721C14.8447 1.51784 14.8447 1.76203 14.9953 1.91266C15.0706 1.98791 15.1693 2.02557 15.268 2.02557Z" fill="url(#paint9_linear_551_2020)"/>
<path d="M13.1333 4.15774C13.2319 4.15774 13.3307 4.12008 13.406 4.04476L14.5961 2.85469C14.7468 2.70406 14.7468 2.45987 14.5961 2.30924C14.4455 2.15867 14.2013 2.1586 14.0507 2.30924L12.8605 3.49931C12.7099 3.64994 12.7099 3.89413 12.8605 4.04476C12.9359 4.12008 13.0346 4.15774 13.1333 4.15774Z" fill="black"/>
<path d="M13.1333 4.15774C13.2319 4.15774 13.3307 4.12008 13.406 4.04476L14.5961 2.85469C14.7468 2.70406 14.7468 2.45987 14.5961 2.30924C14.4455 2.15867 14.2013 2.1586 14.0507 2.30924L12.8605 3.49931C12.7099 3.64994 12.7099 3.89413 12.8605 4.04476C12.9359 4.12008 13.0346 4.15774 13.1333 4.15774Z" fill="url(#paint10_linear_551_2020)"/>
<path d="M13.1333 4.15774C13.2319 4.15774 13.3307 4.12008 13.406 4.04476L14.5961 2.85469C14.7468 2.70406 14.7468 2.45987 14.5961 2.30924C14.4455 2.15867 14.2013 2.1586 14.0507 2.30924L12.8605 3.49931C12.7099 3.64994 12.7099 3.89413 12.8605 4.04476C12.9359 4.12008 13.0346 4.15774 13.1333 4.15774Z" fill="url(#paint11_linear_551_2020)"/>
<path d="M10.9986 6.28936C11.0972 6.28936 11.196 6.2517 11.2713 6.17638L12.4614 4.98631C12.6121 4.83568 12.6121 4.59149 12.4614 4.44086C12.3108 4.29022 12.0666 4.29022 11.916 4.44086L10.7258 5.63093C10.5751 5.78156 10.5751 6.02575 10.7258 6.17638C10.8012 6.2517 10.8998 6.28936 10.9986 6.28936Z" fill="black"/>
<path d="M10.9986 6.28936C11.0972 6.28936 11.196 6.2517 11.2713 6.17638L12.4614 4.98631C12.6121 4.83568 12.6121 4.59149 12.4614 4.44086C12.3108 4.29022 12.0666 4.29022 11.916 4.44086L10.7258 5.63093C10.5751 5.78156 10.5751 6.02575 10.7258 6.17638C10.8012 6.2517 10.8998 6.28936 10.9986 6.28936Z" fill="url(#paint12_linear_551_2020)"/>
<path d="M10.9986 6.28936C11.0972 6.28936 11.196 6.2517 11.2713 6.17638L12.4614 4.98631C12.6121 4.83568 12.6121 4.59149 12.4614 4.44086C12.3108 4.29022 12.0666 4.29022 11.916 4.44086L10.7258 5.63093C10.5751 5.78156 10.5751 6.02575 10.7258 6.17638C10.8012 6.2517 10.8998 6.28936 10.9986 6.28936Z" fill="url(#paint13_linear_551_2020)"/>
<path d="M8.87252 8.42202C8.97126 8.42202 9.06993 8.38436 9.14525 8.30904L10.3353 7.11898C10.486 6.96834 10.486 6.72416 10.3353 6.57352C10.1847 6.42289 9.94043 6.42296 9.78986 6.57352L8.59979 7.76366C8.44916 7.91429 8.44916 8.15848 8.59979 8.30911C8.67511 8.38443 8.77385 8.42202 8.87252 8.42202Z" fill="black"/>
<path d="M8.87252 8.42202C8.97126 8.42202 9.06993 8.38436 9.14525 8.30904L10.3353 7.11898C10.486 6.96834 10.486 6.72416 10.3353 6.57352C10.1847 6.42289 9.94043 6.42296 9.78986 6.57352L8.59979 7.76366C8.44916 7.91429 8.44916 8.15848 8.59979 8.30911C8.67511 8.38443 8.77385 8.42202 8.87252 8.42202Z" fill="url(#paint14_linear_551_2020)"/>
<path d="M8.87252 8.42202C8.97126 8.42202 9.06993 8.38436 9.14525 8.30904L10.3353 7.11898C10.486 6.96834 10.486 6.72416 10.3353 6.57352C10.1847 6.42289 9.94043 6.42296 9.78986 6.57352L8.59979 7.76366C8.44916 7.91429 8.44916 8.15848 8.59979 8.30911C8.67511 8.38443 8.77385 8.42202 8.87252 8.42202Z" fill="url(#paint15_linear_551_2020)"/>
<defs>
<linearGradient id="paint0_linear_551_2020" x1="8.75699" y1="17.4479" x2="14.0409" y2="22.2082" gradientUnits="userSpaceOnUse">
<stop stop-color="#1E3C72"/>
<stop offset="1" stop-color="#2A5298"/>
</linearGradient>
<linearGradient id="paint1_linear_551_2020" x1="7.90852" y1="19.8305" x2="15.3111" y2="19.846" gradientUnits="userSpaceOnUse">
<stop stop-color="#4E54C8"/>
<stop offset="1" stop-color="#8F94FB"/>
</linearGradient>
<linearGradient id="paint2_linear_551_2020" x1="3.675" y1="6.29736" x2="25.109" y2="23.4689" gradientUnits="userSpaceOnUse">
<stop stop-color="#1E3C72"/>
<stop offset="1" stop-color="#2A5298"/>
</linearGradient>
<linearGradient id="paint3_linear_551_2020" x1="0.555831" y1="16.1471" x2="27.7696" y2="16.1979" gradientUnits="userSpaceOnUse">
<stop stop-color="#4E54C8"/>
<stop offset="1" stop-color="#8F94FB"/>
</linearGradient>
<linearGradient id="paint4_linear_551_2020" x1="25.0587" y1="28.6351" x2="26.4195" y2="29.861" gradientUnits="userSpaceOnUse">
<stop stop-color="#1E3C72"/>
<stop offset="1" stop-color="#2A5298"/>
</linearGradient>
<linearGradient id="paint5_linear_551_2020" x1="24.8402" y1="29.2487" x2="26.7466" y2="29.2527" gradientUnits="userSpaceOnUse">
<stop stop-color="#4E54C8"/>
<stop offset="1" stop-color="#8F94FB"/>
</linearGradient>
<linearGradient id="paint6_linear_551_2020" x1="27.0405" y1="30.5346" x2="27.5925" y2="31.032" gradientUnits="userSpaceOnUse">
<stop stop-color="#1E3C72"/>
<stop offset="1" stop-color="#2A5298"/>
</linearGradient>
<linearGradient id="paint7_linear_551_2020" x1="26.9518" y1="30.7835" x2="27.7252" y2="30.7851" gradientUnits="userSpaceOnUse">
<stop stop-color="#4E54C8"/>
<stop offset="1" stop-color="#8F94FB"/>
</linearGradient>
<linearGradient id="paint8_linear_551_2020" x1="14.9916" y1="1.35922" x2="15.5695" y2="1.87974" gradientUnits="userSpaceOnUse">
<stop stop-color="#1E3C72"/>
<stop offset="1" stop-color="#2A5298"/>
</linearGradient>
<linearGradient id="paint9_linear_551_2020" x1="14.8989" y1="1.61978" x2="15.7083" y2="1.62148" gradientUnits="userSpaceOnUse">
<stop stop-color="#4E54C8"/>
<stop offset="1" stop-color="#8F94FB"/>
</linearGradient>
<linearGradient id="paint10_linear_551_2020" x1="13.005" y1="2.58858" x2="14.3658" y2="3.81455" gradientUnits="userSpaceOnUse">
<stop stop-color="#1E3C72"/>
<stop offset="1" stop-color="#2A5298"/>
</linearGradient>
<linearGradient id="paint11_linear_551_2020" x1="12.7865" y1="3.20216" x2="14.693" y2="3.20617" gradientUnits="userSpaceOnUse">
<stop stop-color="#4E54C8"/>
<stop offset="1" stop-color="#8F94FB"/>
</linearGradient>
<linearGradient id="paint12_linear_551_2020" x1="10.8703" y1="4.72018" x2="12.231" y2="5.94619" gradientUnits="userSpaceOnUse">
<stop stop-color="#1E3C72"/>
<stop offset="1" stop-color="#2A5298"/>
</linearGradient>
<linearGradient id="paint13_linear_551_2020" x1="10.6517" y1="5.33376" x2="12.5583" y2="5.33777" gradientUnits="userSpaceOnUse">
<stop stop-color="#4E54C8"/>
<stop offset="1" stop-color="#8F94FB"/>
</linearGradient>
<linearGradient id="paint14_linear_551_2020" x1="8.74426" y1="6.85286" x2="10.105" y2="8.07878" gradientUnits="userSpaceOnUse">
<stop stop-color="#1E3C72"/>
<stop offset="1" stop-color="#2A5298"/>
</linearGradient>
<linearGradient id="paint15_linear_551_2020" x1="8.52575" y1="7.46644" x2="10.4321" y2="7.47045" gradientUnits="userSpaceOnUse">
<stop stop-color="#4E54C8"/>
<stop offset="1" stop-color="#8F94FB"/>
</linearGradient>
</defs>
</svg>
