<svg width="32" height="36" viewBox="0 0 32 36" fill="none" xmlns="http://www.w3.org/2000/svg">
<path d="M32 10.2C32 8.5458 30.6708 7.2 29.037 7.2C28.1321 7.2 27.331 7.6218 26.787 8.271L18.819 3.8766C18.9037 3.5976 18.963 3.3072 18.963 3C18.963 1.3458 17.6338 0 16 0C14.3662 0 13.037 1.3458 13.037 3C13.037 3.3072 13.0963 3.5976 13.181 3.8766L5.21304 8.271C4.66904 7.6218 3.86785 7.2 2.96296 7.2C1.32919 7.2 0 8.5458 0 10.2C0 11.6484 1.01985 12.8604 2.37037 13.1394V22.8606C1.01985 23.1396 0 24.351 0 25.8C0 27.4542 1.32919 28.8 2.96296 28.8C3.86785 28.8 4.66904 28.3782 5.21304 27.729L13.181 32.1234C13.0963 32.4024 13.037 32.6928 13.037 33C13.037 34.6542 14.3662 36 16 36C17.6338 36 18.963 34.6542 18.963 33C18.963 32.6928 18.9037 32.4024 18.819 32.1234L26.787 27.729C27.331 28.3782 28.1321 28.8 29.037 28.8C30.6708 28.8 32 27.4542 32 25.8C32 24.3516 30.9801 23.1396 29.6296 22.8606V13.1394C30.9801 12.8604 32 11.649 32 10.2ZM26.8492 23.7948L24.1582 22.179C24.9719 21.3792 25.4815 20.256 25.4815 19.0104C25.4815 17.4174 24.6323 15.9504 23.2913 15.18C23.261 14.9202 23.2089 14.6682 23.1461 14.4204L26.8492 12.204C27.2652 12.669 27.8151 13.0086 28.445 13.1388V22.86C27.8157 22.9902 27.2658 23.3292 26.8498 23.7942L26.8492 23.7948ZM10.483 22.2C8.95052 22.2 7.7043 20.9112 7.7043 19.3266C7.7043 17.8296 8.79111 16.5996 10.2317 16.4658C10.5375 16.437 10.7698 16.1622 10.7698 15.8526C10.7698 14.9652 11.4667 14.2422 12.3224 14.2422C12.5742 14.2422 12.8154 14.304 13.0388 14.4246C13.1876 14.5044 13.3618 14.5164 13.5182 14.46C13.6759 14.4024 13.8021 14.2806 13.8655 14.124C14.5416 12.4692 16.1013 11.4 17.84 11.4C20.1203 11.4 22.0077 13.2426 22.1387 15.5952C22.1511 15.8166 22.2827 16.0134 22.4812 16.1064C23.584 16.623 24.2969 17.7636 24.2969 19.011C24.2969 20.7696 22.9126 22.2 21.2113 22.2H10.483ZM3.55615 22.8606V13.1394C4.18607 13.0092 4.736 12.6696 5.152 12.2046L9.73807 14.9526C9.69541 15.0816 9.6557 15.2118 9.63141 15.348C7.82578 15.7482 6.51911 17.3784 6.51911 19.3266C6.51911 20.4732 6.98489 21.5094 7.72978 22.2504L5.152 23.7954C4.736 23.3304 4.18607 22.9902 3.55615 22.8606ZM29.037 8.4C30.0172 8.4 30.8148 9.2076 30.8148 10.2C30.8148 11.1924 30.0172 12 29.037 12C28.0569 12 27.2593 11.1924 27.2593 10.2C27.2593 9.2076 28.0569 8.4 29.037 8.4ZM26.2181 9.3234C26.1333 9.6024 26.0741 9.8928 26.0741 10.2C26.0741 10.5414 26.1428 10.8648 26.2471 11.1708L22.7253 13.2786C21.8121 11.4456 19.9603 10.1994 17.8388 10.1994C17.4116 10.1994 16.9961 10.2606 16.592 10.3566V5.9388C17.2545 5.802 17.8276 5.4324 18.2495 4.9284L26.2175 9.3228L26.2181 9.3234ZM16 1.2C16.9801 1.2 17.7778 2.0076 17.7778 3C17.7778 3.9924 16.9801 4.8 16 4.8C15.0199 4.8 14.2222 3.9924 14.2222 3C14.2222 2.0076 15.0199 1.2 16 1.2ZM13.7499 4.929C14.1719 5.433 14.7449 5.8026 15.4074 5.9394V10.794C14.4107 11.3004 13.5674 12.1032 13.0181 13.1346C12.7911 13.0734 12.557 13.0422 12.3218 13.0422C11.5431 13.0422 10.8456 13.3842 10.3467 13.9236L5.7523 11.1708C5.85659 10.8648 5.92533 10.5414 5.92533 10.1994C5.92533 9.8922 5.86607 9.6018 5.78133 9.3228L13.7493 4.9284L13.7499 4.929ZM1.18519 10.2C1.18519 9.2076 1.98281 8.4 2.96296 8.4C3.94311 8.4 4.74074 9.2076 4.74074 10.2C4.74074 11.1924 3.94311 12 2.96296 12C1.98281 12 1.18519 11.1924 1.18519 10.2ZM2.96296 27.6C1.98281 27.6 1.18519 26.7924 1.18519 25.8C1.18519 24.8076 1.98281 24 2.96296 24C3.94311 24 4.74074 24.8076 4.74074 25.8C4.74074 26.7924 3.94311 27.6 2.96296 27.6ZM5.78193 26.6766C5.86667 26.3976 5.92593 26.1072 5.92593 25.8C5.92593 25.4586 5.85719 25.1352 5.75289 24.8292L8.79407 23.007C9.30726 23.2566 9.87793 23.4006 10.4824 23.4006H15.4074V30.0612C14.7449 30.198 14.1719 30.5676 13.7499 31.0716L5.78193 26.6772V26.6766ZM16 34.8C15.0199 34.8 14.2222 33.9924 14.2222 33C14.2222 32.0076 15.0199 31.2 16 31.2C16.9801 31.2 17.7778 32.0076 17.7778 33C17.7778 33.9924 16.9801 34.8 16 34.8ZM18.2501 31.071C17.8281 30.567 17.2551 30.1974 16.5926 30.0606V23.4H21.2107C21.8904 23.4 22.531 23.232 23.1022 22.9404L26.2477 24.8286C26.1434 25.1352 26.0747 25.458 26.0747 25.8C26.0747 26.1072 26.1339 26.3976 26.2187 26.6766L18.2501 31.071ZM30.8148 25.8C30.8148 26.7924 30.0172 27.6 29.037 27.6C28.0569 27.6 27.2593 26.7924 27.2593 25.8C27.2593 24.8076 28.0569 24 29.037 24C30.0172 24 30.8148 24.8076 30.8148 25.8Z" fill="black"/>
<path d="M32 10.2C32 8.5458 30.6708 7.2 29.037 7.2C28.1321 7.2 27.331 7.6218 26.787 8.271L18.819 3.8766C18.9037 3.5976 18.963 3.3072 18.963 3C18.963 1.3458 17.6338 0 16 0C14.3662 0 13.037 1.3458 13.037 3C13.037 3.3072 13.0963 3.5976 13.181 3.8766L5.21304 8.271C4.66904 7.6218 3.86785 7.2 2.96296 7.2C1.32919 7.2 0 8.5458 0 10.2C0 11.6484 1.01985 12.8604 2.37037 13.1394V22.8606C1.01985 23.1396 0 24.351 0 25.8C0 27.4542 1.32919 28.8 2.96296 28.8C3.86785 28.8 4.66904 28.3782 5.21304 27.729L13.181 32.1234C13.0963 32.4024 13.037 32.6928 13.037 33C13.037 34.6542 14.3662 36 16 36C17.6338 36 18.963 34.6542 18.963 33C18.963 32.6928 18.9037 32.4024 18.819 32.1234L26.787 27.729C27.331 28.3782 28.1321 28.8 29.037 28.8C30.6708 28.8 32 27.4542 32 25.8C32 24.3516 30.9801 23.1396 29.6296 22.8606V13.1394C30.9801 12.8604 32 11.649 32 10.2ZM26.8492 23.7948L24.1582 22.179C24.9719 21.3792 25.4815 20.256 25.4815 19.0104C25.4815 17.4174 24.6323 15.9504 23.2913 15.18C23.261 14.9202 23.2089 14.6682 23.1461 14.4204L26.8492 12.204C27.2652 12.669 27.8151 13.0086 28.445 13.1388V22.86C27.8157 22.9902 27.2658 23.3292 26.8498 23.7942L26.8492 23.7948ZM10.483 22.2C8.95052 22.2 7.7043 20.9112 7.7043 19.3266C7.7043 17.8296 8.79111 16.5996 10.2317 16.4658C10.5375 16.437 10.7698 16.1622 10.7698 15.8526C10.7698 14.9652 11.4667 14.2422 12.3224 14.2422C12.5742 14.2422 12.8154 14.304 13.0388 14.4246C13.1876 14.5044 13.3618 14.5164 13.5182 14.46C13.6759 14.4024 13.8021 14.2806 13.8655 14.124C14.5416 12.4692 16.1013 11.4 17.84 11.4C20.1203 11.4 22.0077 13.2426 22.1387 15.5952C22.1511 15.8166 22.2827 16.0134 22.4812 16.1064C23.584 16.623 24.2969 17.7636 24.2969 19.011C24.2969 20.7696 22.9126 22.2 21.2113 22.2H10.483ZM3.55615 22.8606V13.1394C4.18607 13.0092 4.736 12.6696 5.152 12.2046L9.73807 14.9526C9.69541 15.0816 9.6557 15.2118 9.63141 15.348C7.82578 15.7482 6.51911 17.3784 6.51911 19.3266C6.51911 20.4732 6.98489 21.5094 7.72978 22.2504L5.152 23.7954C4.736 23.3304 4.18607 22.9902 3.55615 22.8606ZM29.037 8.4C30.0172 8.4 30.8148 9.2076 30.8148 10.2C30.8148 11.1924 30.0172 12 29.037 12C28.0569 12 27.2593 11.1924 27.2593 10.2C27.2593 9.2076 28.0569 8.4 29.037 8.4ZM26.2181 9.3234C26.1333 9.6024 26.0741 9.8928 26.0741 10.2C26.0741 10.5414 26.1428 10.8648 26.2471 11.1708L22.7253 13.2786C21.8121 11.4456 19.9603 10.1994 17.8388 10.1994C17.4116 10.1994 16.9961 10.2606 16.592 10.3566V5.9388C17.2545 5.802 17.8276 5.4324 18.2495 4.9284L26.2175 9.3228L26.2181 9.3234ZM16 1.2C16.9801 1.2 17.7778 2.0076 17.7778 3C17.7778 3.9924 16.9801 4.8 16 4.8C15.0199 4.8 14.2222 3.9924 14.2222 3C14.2222 2.0076 15.0199 1.2 16 1.2ZM13.7499 4.929C14.1719 5.433 14.7449 5.8026 15.4074 5.9394V10.794C14.4107 11.3004 13.5674 12.1032 13.0181 13.1346C12.7911 13.0734 12.557 13.0422 12.3218 13.0422C11.5431 13.0422 10.8456 13.3842 10.3467 13.9236L5.7523 11.1708C5.85659 10.8648 5.92533 10.5414 5.92533 10.1994C5.92533 9.8922 5.86607 9.6018 5.78133 9.3228L13.7493 4.9284L13.7499 4.929ZM1.18519 10.2C1.18519 9.2076 1.98281 8.4 2.96296 8.4C3.94311 8.4 4.74074 9.2076 4.74074 10.2C4.74074 11.1924 3.94311 12 2.96296 12C1.98281 12 1.18519 11.1924 1.18519 10.2ZM2.96296 27.6C1.98281 27.6 1.18519 26.7924 1.18519 25.8C1.18519 24.8076 1.98281 24 2.96296 24C3.94311 24 4.74074 24.8076 4.74074 25.8C4.74074 26.7924 3.94311 27.6 2.96296 27.6ZM5.78193 26.6766C5.86667 26.3976 5.92593 26.1072 5.92593 25.8C5.92593 25.4586 5.85719 25.1352 5.75289 24.8292L8.79407 23.007C9.30726 23.2566 9.87793 23.4006 10.4824 23.4006H15.4074V30.0612C14.7449 30.198 14.1719 30.5676 13.7499 31.0716L5.78193 26.6772V26.6766ZM16 34.8C15.0199 34.8 14.2222 33.9924 14.2222 33C14.2222 32.0076 15.0199 31.2 16 31.2C16.9801 31.2 17.7778 32.0076 17.7778 33C17.7778 33.9924 16.9801 34.8 16 34.8ZM18.2501 31.071C17.8281 30.567 17.2551 30.1974 16.5926 30.0606V23.4H21.2107C21.8904 23.4 22.531 23.232 23.1022 22.9404L26.2477 24.8286C26.1434 25.1352 26.0747 25.458 26.0747 25.8C26.0747 26.1072 26.1339 26.3976 26.2187 26.6766L18.2501 31.071ZM30.8148 25.8C30.8148 26.7924 30.0172 27.6 29.037 27.6C28.0569 27.6 27.2593 26.7924 27.2593 25.8C27.2593 24.8076 28.0569 24 29.037 24C30.0172 24 30.8148 24.8076 30.8148 25.8Z" fill="url(#paint0_linear_551_4859)"/>
<path d="M32 10.2C32 8.5458 30.6708 7.2 29.037 7.2C28.1321 7.2 27.331 7.6218 26.787 8.271L18.819 3.8766C18.9037 3.5976 18.963 3.3072 18.963 3C18.963 1.3458 17.6338 0 16 0C14.3662 0 13.037 1.3458 13.037 3C13.037 3.3072 13.0963 3.5976 13.181 3.8766L5.21304 8.271C4.66904 7.6218 3.86785 7.2 2.96296 7.2C1.32919 7.2 0 8.5458 0 10.2C0 11.6484 1.01985 12.8604 2.37037 13.1394V22.8606C1.01985 23.1396 0 24.351 0 25.8C0 27.4542 1.32919 28.8 2.96296 28.8C3.86785 28.8 4.66904 28.3782 5.21304 27.729L13.181 32.1234C13.0963 32.4024 13.037 32.6928 13.037 33C13.037 34.6542 14.3662 36 16 36C17.6338 36 18.963 34.6542 18.963 33C18.963 32.6928 18.9037 32.4024 18.819 32.1234L26.787 27.729C27.331 28.3782 28.1321 28.8 29.037 28.8C30.6708 28.8 32 27.4542 32 25.8C32 24.3516 30.9801 23.1396 29.6296 22.8606V13.1394C30.9801 12.8604 32 11.649 32 10.2ZM26.8492 23.7948L24.1582 22.179C24.9719 21.3792 25.4815 20.256 25.4815 19.0104C25.4815 17.4174 24.6323 15.9504 23.2913 15.18C23.261 14.9202 23.2089 14.6682 23.1461 14.4204L26.8492 12.204C27.2652 12.669 27.8151 13.0086 28.445 13.1388V22.86C27.8157 22.9902 27.2658 23.3292 26.8498 23.7942L26.8492 23.7948ZM10.483 22.2C8.95052 22.2 7.7043 20.9112 7.7043 19.3266C7.7043 17.8296 8.79111 16.5996 10.2317 16.4658C10.5375 16.437 10.7698 16.1622 10.7698 15.8526C10.7698 14.9652 11.4667 14.2422 12.3224 14.2422C12.5742 14.2422 12.8154 14.304 13.0388 14.4246C13.1876 14.5044 13.3618 14.5164 13.5182 14.46C13.6759 14.4024 13.8021 14.2806 13.8655 14.124C14.5416 12.4692 16.1013 11.4 17.84 11.4C20.1203 11.4 22.0077 13.2426 22.1387 15.5952C22.1511 15.8166 22.2827 16.0134 22.4812 16.1064C23.584 16.623 24.2969 17.7636 24.2969 19.011C24.2969 20.7696 22.9126 22.2 21.2113 22.2H10.483ZM3.55615 22.8606V13.1394C4.18607 13.0092 4.736 12.6696 5.152 12.2046L9.73807 14.9526C9.69541 15.0816 9.6557 15.2118 9.63141 15.348C7.82578 15.7482 6.51911 17.3784 6.51911 19.3266C6.51911 20.4732 6.98489 21.5094 7.72978 22.2504L5.152 23.7954C4.736 23.3304 4.18607 22.9902 3.55615 22.8606ZM29.037 8.4C30.0172 8.4 30.8148 9.2076 30.8148 10.2C30.8148 11.1924 30.0172 12 29.037 12C28.0569 12 27.2593 11.1924 27.2593 10.2C27.2593 9.2076 28.0569 8.4 29.037 8.4ZM26.2181 9.3234C26.1333 9.6024 26.0741 9.8928 26.0741 10.2C26.0741 10.5414 26.1428 10.8648 26.2471 11.1708L22.7253 13.2786C21.8121 11.4456 19.9603 10.1994 17.8388 10.1994C17.4116 10.1994 16.9961 10.2606 16.592 10.3566V5.9388C17.2545 5.802 17.8276 5.4324 18.2495 4.9284L26.2175 9.3228L26.2181 9.3234ZM16 1.2C16.9801 1.2 17.7778 2.0076 17.7778 3C17.7778 3.9924 16.9801 4.8 16 4.8C15.0199 4.8 14.2222 3.9924 14.2222 3C14.2222 2.0076 15.0199 1.2 16 1.2ZM13.7499 4.929C14.1719 5.433 14.7449 5.8026 15.4074 5.9394V10.794C14.4107 11.3004 13.5674 12.1032 13.0181 13.1346C12.7911 13.0734 12.557 13.0422 12.3218 13.0422C11.5431 13.0422 10.8456 13.3842 10.3467 13.9236L5.7523 11.1708C5.85659 10.8648 5.92533 10.5414 5.92533 10.1994C5.92533 9.8922 5.86607 9.6018 5.78133 9.3228L13.7493 4.9284L13.7499 4.929ZM1.18519 10.2C1.18519 9.2076 1.98281 8.4 2.96296 8.4C3.94311 8.4 4.74074 9.2076 4.74074 10.2C4.74074 11.1924 3.94311 12 2.96296 12C1.98281 12 1.18519 11.1924 1.18519 10.2ZM2.96296 27.6C1.98281 27.6 1.18519 26.7924 1.18519 25.8C1.18519 24.8076 1.98281 24 2.96296 24C3.94311 24 4.74074 24.8076 4.74074 25.8C4.74074 26.7924 3.94311 27.6 2.96296 27.6ZM5.78193 26.6766C5.86667 26.3976 5.92593 26.1072 5.92593 25.8C5.92593 25.4586 5.85719 25.1352 5.75289 24.8292L8.79407 23.007C9.30726 23.2566 9.87793 23.4006 10.4824 23.4006H15.4074V30.0612C14.7449 30.198 14.1719 30.5676 13.7499 31.0716L5.78193 26.6772V26.6766ZM16 34.8C15.0199 34.8 14.2222 33.9924 14.2222 33C14.2222 32.0076 15.0199 31.2 16 31.2C16.9801 31.2 17.7778 32.0076 17.7778 33C17.7778 33.9924 16.9801 34.8 16 34.8ZM18.2501 31.071C17.8281 30.567 17.2551 30.1974 16.5926 30.0606V23.4H21.2107C21.8904 23.4 22.531 23.232 23.1022 22.9404L26.2477 24.8286C26.1434 25.1352 26.0747 25.458 26.0747 25.8C26.0747 26.1072 26.1339 26.3976 26.2187 26.6766L18.2501 31.071ZM30.8148 25.8C30.8148 26.7924 30.0172 27.6 29.037 27.6C28.0569 27.6 27.2593 26.7924 27.2593 25.8C27.2593 24.8076 28.0569 24 29.037 24C30.0172 24 30.8148 24.8076 30.8148 25.8Z" fill="url(#paint1_linear_551_4859)"/>
<defs>
<linearGradient id="paint0_linear_551_4859" x1="4.2" y1="7.2" x2="28.704" y2="26.8228" gradientUnits="userSpaceOnUse">
<stop stop-color="#1E3C72"/>
<stop offset="1" stop-color="#2A5298"/>
</linearGradient>
<linearGradient id="paint1_linear_551_4859" x1="0.635236" y1="18.4615" x2="31.7366" y2="18.5196" gradientUnits="userSpaceOnUse">
<stop stop-color="#4E54C8"/>
<stop offset="1" stop-color="#8F94FB"/>
</linearGradient>
</defs>
</svg>
