<svg width="32" height="32" viewBox="0 0 32 32" fill="none" xmlns="http://www.w3.org/2000/svg">
<path d="M3.61284 26.8387C2.75926 26.8387 2.06445 27.5336 2.06445 28.3871C2.06445 29.2407 2.75926 29.9355 3.61284 29.9355C4.46642 29.9355 5.16123 29.2407 5.16123 28.3871C5.16123 27.5336 4.46642 26.8387 3.61284 26.8387ZM3.61284 28.9033C3.32857 28.9033 3.09671 28.6719 3.09671 28.3871C3.09671 28.1024 3.32857 27.871 3.61284 27.871C3.89711 27.871 4.12897 28.1024 4.12897 28.3871C4.12897 28.6719 3.89711 28.9033 3.61284 28.9033Z" fill="url(#paint0_linear_551_1999)"/>
<path d="M3.61284 26.8387C2.75926 26.8387 2.06445 27.5336 2.06445 28.3871C2.06445 29.2407 2.75926 29.9355 3.61284 29.9355C4.46642 29.9355 5.16123 29.2407 5.16123 28.3871C5.16123 27.5336 4.46642 26.8387 3.61284 26.8387ZM3.61284 28.9033C3.32857 28.9033 3.09671 28.6719 3.09671 28.3871C3.09671 28.1024 3.32857 27.871 3.61284 27.871C3.89711 27.871 4.12897 28.1024 4.12897 28.3871C4.12897 28.6719 3.89711 28.9033 3.61284 28.9033Z" fill="url(#paint1_linear_551_1999)"/>
<path d="M32 3.80066C32 1.70539 30.2951 0 28.1993 0C27.184 0 26.2296 0.395413 25.5118 1.11341L23.6734 2.95111C23.2712 2.71598 22.8165 2.58065 22.338 2.58065C21.4239 2.58065 20.5852 3.04158 20.094 3.81275L16.8904 8.84652L17.8503 9.80645L16.5161 11.1411L16.1694 10.7944C15.8652 10.4899 15.4607 10.3226 15.0302 10.3226C14.1419 10.3226 13.4194 11.0451 13.4194 11.9335C13.4194 12.3576 13.5912 12.7727 13.8911 13.0726L14.2379 13.4194L12.9032 14.754L12.5565 14.4073C12.2523 14.1028 11.8478 13.9355 11.4173 13.9355C10.529 13.9355 9.80645 14.658 9.80645 15.5464C9.80645 15.9705 9.97833 16.3856 10.2782 16.6855L10.625 17.0323L9.29032 18.3669L8.94355 18.0202C8.63936 17.7157 8.23488 17.5484 7.80444 17.5484C6.91608 17.5484 6.19355 18.2709 6.19355 19.1593C6.19355 19.5834 6.36542 19.9985 6.66532 20.2984L7.0121 20.6452L5.67742 21.9798L5.33065 21.6331C5.02646 21.3286 4.62198 21.1613 4.19153 21.1613C3.30318 21.1613 2.58065 21.8838 2.58065 22.7722C2.58065 23.1963 2.75252 23.6114 3.05242 23.9113L3.39919 24.2581L0.899194 26.7576C0.319556 27.3377 0 28.1089 0 28.9289C0 30.6225 1.37752 32 3.07107 32C3.89113 32 4.6623 31.6804 5.24244 31.1003L7.74194 28.6008L8.08871 28.9476C8.39289 29.252 8.79738 29.4194 9.22782 29.4194C10.1162 29.4194 10.8387 28.6968 10.8387 27.8085C10.8387 27.3843 10.6668 26.9693 10.3669 26.6694L10.0202 26.3226L11.3548 24.9879L11.7016 25.3347C12.0058 25.6391 12.4103 25.8064 12.8407 25.8064C13.7291 25.8064 14.4516 25.0839 14.4516 24.1956C14.4516 23.7714 14.2797 23.3563 13.9798 23.0565L13.6331 22.7097L14.9677 21.375L15.3145 21.7218C15.6187 22.0262 16.0232 22.1935 16.4536 22.1935C17.342 22.1935 18.0645 21.471 18.0645 20.5827C18.0645 20.1585 17.8926 19.7434 17.5927 19.4435L17.246 19.0968L18.5806 17.7621L18.9274 18.1089C19.2316 18.4133 19.6361 18.5806 20.0665 18.5806C20.9549 18.5806 21.6774 17.8581 21.6774 16.9698C21.6774 16.5456 21.5055 16.1305 21.2056 15.8306L20.8589 15.4839L22.1935 14.1492L23.1535 15.1091L28.1872 11.9055C28.9589 11.4153 29.4194 10.5766 29.4194 9.66255C29.4194 9.18397 29.284 8.72933 29.0481 8.32661L30.8866 6.48866C31.6046 5.77092 32 4.81603 32 3.80066ZM4.5121 30.3705C4.12752 30.7555 3.61542 30.9677 3.07107 30.9677C1.94682 30.9677 1.03226 30.0532 1.03226 28.9289C1.03226 28.3846 1.24446 27.8725 1.62954 27.4874L4.12903 24.9879L7.0121 27.871L4.5121 30.3705ZM9.22782 28.3871C9.07308 28.3871 8.92792 28.3271 8.81855 28.2177L3.78226 23.1815C3.6749 23.0736 3.6129 22.9244 3.6129 22.7722C3.6129 22.4531 3.87248 22.1935 4.19153 22.1935C4.34627 22.1935 4.49143 22.2535 4.60081 22.3629L9.6371 27.3992C9.74446 27.5071 9.80645 27.6562 9.80645 27.8085C9.80645 28.1275 9.54688 28.3871 9.22782 28.3871ZM9.29032 25.5927L6.40726 22.7097L7.74194 21.375L10.625 24.2581L9.29032 25.5927ZM12.8407 24.7742C12.686 24.7742 12.5408 24.7142 12.4315 24.6048L7.39516 19.5685C7.2878 19.4607 7.22581 19.3115 7.22581 19.1593C7.22581 18.8402 7.48538 18.5806 7.80444 18.5806C7.95917 18.5806 8.10433 18.6406 8.21371 18.75L13.25 23.7863C13.3574 23.8942 13.4194 24.0433 13.4194 24.1956C13.4194 24.5146 13.1598 24.7742 12.8407 24.7742ZM12.9032 21.9798L10.0202 19.0968L11.3548 17.7621L14.2379 20.6452L12.9032 21.9798ZM16.4536 21.1613C16.2989 21.1613 16.1537 21.1013 16.0444 20.9919L11.0081 15.9556C10.9007 15.8478 10.8387 15.6986 10.8387 15.5464C10.8387 15.2273 11.0983 14.9677 11.4173 14.9677C11.5721 14.9677 11.7172 15.0277 11.8266 15.1371L16.8629 20.1734C16.9703 20.2812 17.0323 20.4304 17.0323 20.5827C17.0323 20.9017 16.7727 21.1613 16.4536 21.1613ZM16.5161 18.3669L13.6331 15.4839L14.9677 14.1492L17.8508 17.0323L16.5161 18.3669ZM20.0665 17.5484C19.9118 17.5484 19.7666 17.4884 19.6573 17.379L14.621 12.3427C14.5136 12.2349 14.4516 12.0857 14.4516 11.9335C14.4516 11.6144 14.7112 11.3548 15.0302 11.3548C15.185 11.3548 15.3301 11.4148 15.4395 11.5242L20.4758 16.5605C20.5832 16.6683 20.6452 16.8175 20.6452 16.9698C20.6452 17.2888 20.3856 17.5484 20.0665 17.5484ZM20.129 14.754L17.246 11.871L18.5806 10.5363L21.4637 13.4194L20.129 14.754ZM18.2059 8.70186L20.4486 5.17843L26.8216 11.5514L23.2981 13.7941L18.2059 8.70186ZM27.7054 10.9756L21.0244 4.29461C21.3306 3.86996 21.8105 3.6129 22.338 3.6129C22.7727 3.6129 23.1815 3.78226 23.4884 4.08972L27.9103 8.51109C28.2177 8.81855 28.3871 9.22732 28.3871 9.66255C28.3871 10.19 28.13 10.6699 27.7054 10.9756ZM28.3871 7.52823L24.4718 3.6129L26.2414 1.84299C26.7644 1.32031 27.4602 1.03226 28.1993 1.03226C29.7261 1.03226 30.9677 2.27394 30.9677 3.80066C30.9677 4.54032 30.6797 5.23563 30.157 5.75857L28.3871 7.52823Z" fill="url(#paint2_linear_551_1999)"/>
<path d="M32 3.80066C32 1.70539 30.2951 0 28.1993 0C27.184 0 26.2296 0.395413 25.5118 1.11341L23.6734 2.95111C23.2712 2.71598 22.8165 2.58065 22.338 2.58065C21.4239 2.58065 20.5852 3.04158 20.094 3.81275L16.8904 8.84652L17.8503 9.80645L16.5161 11.1411L16.1694 10.7944C15.8652 10.4899 15.4607 10.3226 15.0302 10.3226C14.1419 10.3226 13.4194 11.0451 13.4194 11.9335C13.4194 12.3576 13.5912 12.7727 13.8911 13.0726L14.2379 13.4194L12.9032 14.754L12.5565 14.4073C12.2523 14.1028 11.8478 13.9355 11.4173 13.9355C10.529 13.9355 9.80645 14.658 9.80645 15.5464C9.80645 15.9705 9.97833 16.3856 10.2782 16.6855L10.625 17.0323L9.29032 18.3669L8.94355 18.0202C8.63936 17.7157 8.23488 17.5484 7.80444 17.5484C6.91608 17.5484 6.19355 18.2709 6.19355 19.1593C6.19355 19.5834 6.36542 19.9985 6.66532 20.2984L7.0121 20.6452L5.67742 21.9798L5.33065 21.6331C5.02646 21.3286 4.62198 21.1613 4.19153 21.1613C3.30318 21.1613 2.58065 21.8838 2.58065 22.7722C2.58065 23.1963 2.75252 23.6114 3.05242 23.9113L3.39919 24.2581L0.899194 26.7576C0.319556 27.3377 0 28.1089 0 28.9289C0 30.6225 1.37752 32 3.07107 32C3.89113 32 4.6623 31.6804 5.24244 31.1003L7.74194 28.6008L8.08871 28.9476C8.39289 29.252 8.79738 29.4194 9.22782 29.4194C10.1162 29.4194 10.8387 28.6968 10.8387 27.8085C10.8387 27.3843 10.6668 26.9693 10.3669 26.6694L10.0202 26.3226L11.3548 24.9879L11.7016 25.3347C12.0058 25.6391 12.4103 25.8064 12.8407 25.8064C13.7291 25.8064 14.4516 25.0839 14.4516 24.1956C14.4516 23.7714 14.2797 23.3563 13.9798 23.0565L13.6331 22.7097L14.9677 21.375L15.3145 21.7218C15.6187 22.0262 16.0232 22.1935 16.4536 22.1935C17.342 22.1935 18.0645 21.471 18.0645 20.5827C18.0645 20.1585 17.8926 19.7434 17.5927 19.4435L17.246 19.0968L18.5806 17.7621L18.9274 18.1089C19.2316 18.4133 19.6361 18.5806 20.0665 18.5806C20.9549 18.5806 21.6774 17.8581 21.6774 16.9698C21.6774 16.5456 21.5055 16.1305 21.2056 15.8306L20.8589 15.4839L22.1935 14.1492L23.1535 15.1091L28.1872 11.9055C28.9589 11.4153 29.4194 10.5766 29.4194 9.66255C29.4194 9.18397 29.284 8.72933 29.0481 8.32661L30.8866 6.48866C31.6046 5.77092 32 4.81603 32 3.80066ZM4.5121 30.3705C4.12752 30.7555 3.61542 30.9677 3.07107 30.9677C1.94682 30.9677 1.03226 30.0532 1.03226 28.9289C1.03226 28.3846 1.24446 27.8725 1.62954 27.4874L4.12903 24.9879L7.0121 27.871L4.5121 30.3705ZM9.22782 28.3871C9.07308 28.3871 8.92792 28.3271 8.81855 28.2177L3.78226 23.1815C3.6749 23.0736 3.6129 22.9244 3.6129 22.7722C3.6129 22.4531 3.87248 22.1935 4.19153 22.1935C4.34627 22.1935 4.49143 22.2535 4.60081 22.3629L9.6371 27.3992C9.74446 27.5071 9.80645 27.6562 9.80645 27.8085C9.80645 28.1275 9.54688 28.3871 9.22782 28.3871ZM9.29032 25.5927L6.40726 22.7097L7.74194 21.375L10.625 24.2581L9.29032 25.5927ZM12.8407 24.7742C12.686 24.7742 12.5408 24.7142 12.4315 24.6048L7.39516 19.5685C7.2878 19.4607 7.22581 19.3115 7.22581 19.1593C7.22581 18.8402 7.48538 18.5806 7.80444 18.5806C7.95917 18.5806 8.10433 18.6406 8.21371 18.75L13.25 23.7863C13.3574 23.8942 13.4194 24.0433 13.4194 24.1956C13.4194 24.5146 13.1598 24.7742 12.8407 24.7742ZM12.9032 21.9798L10.0202 19.0968L11.3548 17.7621L14.2379 20.6452L12.9032 21.9798ZM16.4536 21.1613C16.2989 21.1613 16.1537 21.1013 16.0444 20.9919L11.0081 15.9556C10.9007 15.8478 10.8387 15.6986 10.8387 15.5464C10.8387 15.2273 11.0983 14.9677 11.4173 14.9677C11.5721 14.9677 11.7172 15.0277 11.8266 15.1371L16.8629 20.1734C16.9703 20.2812 17.0323 20.4304 17.0323 20.5827C17.0323 20.9017 16.7727 21.1613 16.4536 21.1613ZM16.5161 18.3669L13.6331 15.4839L14.9677 14.1492L17.8508 17.0323L16.5161 18.3669ZM20.0665 17.5484C19.9118 17.5484 19.7666 17.4884 19.6573 17.379L14.621 12.3427C14.5136 12.2349 14.4516 12.0857 14.4516 11.9335C14.4516 11.6144 14.7112 11.3548 15.0302 11.3548C15.185 11.3548 15.3301 11.4148 15.4395 11.5242L20.4758 16.5605C20.5832 16.6683 20.6452 16.8175 20.6452 16.9698C20.6452 17.2888 20.3856 17.5484 20.0665 17.5484ZM20.129 14.754L17.246 11.871L18.5806 10.5363L21.4637 13.4194L20.129 14.754ZM18.2059 8.70186L20.4486 5.17843L26.8216 11.5514L23.2981 13.7941L18.2059 8.70186ZM27.7054 10.9756L21.0244 4.29461C21.3306 3.86996 21.8105 3.6129 22.338 3.6129C22.7727 3.6129 23.1815 3.78226 23.4884 4.08972L27.9103 8.51109C28.2177 8.81855 28.3871 9.22732 28.3871 9.66255C28.3871 10.19 28.13 10.6699 27.7054 10.9756ZM28.3871 7.52823L24.4718 3.6129L26.2414 1.84299C26.7644 1.32031 27.4602 1.03226 28.1993 1.03226C29.7261 1.03226 30.9677 2.27394 30.9677 3.80066C30.9677 4.54032 30.6797 5.23563 30.157 5.75857L28.3871 7.52823Z" fill="url(#paint3_linear_551_1999)"/>
<path d="M28.3873 2.06458C27.5337 2.06458 26.8389 2.75938 26.8389 3.61296C26.8389 4.46654 27.5337 5.16135 28.3873 5.16135C29.2408 5.16135 29.9356 4.46654 29.9356 3.61296C29.9356 2.75938 29.2408 2.06458 28.3873 2.06458ZM28.3873 4.12909C28.103 4.12909 27.8711 3.89774 27.8711 3.61296C27.8711 3.32818 28.103 3.09683 28.3873 3.09683C28.6715 3.09683 28.9034 3.32818 28.9034 3.61296C28.9034 3.89774 28.6715 4.12909 28.3873 4.12909Z" fill="url(#paint4_linear_551_1999)"/>
<path d="M28.3873 2.06458C27.5337 2.06458 26.8389 2.75938 26.8389 3.61296C26.8389 4.46654 27.5337 5.16135 28.3873 5.16135C29.2408 5.16135 29.9356 4.46654 29.9356 3.61296C29.9356 2.75938 29.2408 2.06458 28.3873 2.06458ZM28.3873 4.12909C28.103 4.12909 27.8711 3.89774 27.8711 3.61296C27.8711 3.32818 28.103 3.09683 28.3873 3.09683C28.6715 3.09683 28.9034 3.32818 28.9034 3.61296C28.9034 3.89774 28.6715 4.12909 28.3873 4.12909Z" fill="url(#paint5_linear_551_1999)"/>
<defs>
<linearGradient id="paint0_linear_551_1999" x1="2.4709" y1="27.4581" x2="4.61929" y2="29.3936" gradientUnits="userSpaceOnUse">
<stop stop-color="#1E3C72"/>
<stop offset="1" stop-color="#2A5298"/>
</linearGradient>
<linearGradient id="paint1_linear_551_1999" x1="2.12593" y1="28.4268" x2="5.13574" y2="28.4332" gradientUnits="userSpaceOnUse">
<stop stop-color="#4E54C8"/>
<stop offset="1" stop-color="#8F94FB"/>
</linearGradient>
<linearGradient id="paint2_linear_551_1999" x1="4.2" y1="6.4" x2="26.4" y2="26.4" gradientUnits="userSpaceOnUse">
<stop stop-color="#1E3C72"/>
<stop offset="1" stop-color="#2A5298"/>
</linearGradient>
<linearGradient id="paint3_linear_551_1999" x1="0.635236" y1="16.4102" x2="31.7366" y2="16.4756" gradientUnits="userSpaceOnUse">
<stop stop-color="#4E54C8"/>
<stop offset="1" stop-color="#8F94FB"/>
</linearGradient>
<linearGradient id="paint4_linear_551_1999" x1="27.2453" y1="2.68393" x2="29.3937" y2="4.61941" gradientUnits="userSpaceOnUse">
<stop stop-color="#1E3C72"/>
<stop offset="1" stop-color="#2A5298"/>
</linearGradient>
<linearGradient id="paint5_linear_551_1999" x1="26.9003" y1="3.65266" x2="29.9102" y2="3.65899" gradientUnits="userSpaceOnUse">
<stop stop-color="#4E54C8"/>
<stop offset="1" stop-color="#8F94FB"/>
</linearGradient>
</defs>
</svg>
