<svg width="30" height="36" viewBox="0 0 30 36" fill="none" xmlns="http://www.w3.org/2000/svg">
<path d="M29.4556 6.07445C24.6155 4.74828 19.747 2.68329 15.3764 0.102803C15.1442 -0.0342675 14.8561 -0.0342675 14.624 0.102803C10.1273 2.75743 5.5219 4.71069 0.544433 6.07445C0.222885 6.16247 0 6.45475 0 6.78818V14.3491C0 22.1352 3.59192 27.289 6.60527 30.2414C9.84933 33.4201 13.6282 35.178 15.0002 35.178C16.3721 35.178 20.1509 33.4201 23.395 30.2414C26.4083 27.2891 30 22.1352 30 14.3491V6.78811C30 6.45475 29.7771 6.16247 29.4556 6.07445ZM28.5201 14.349C28.5201 21.6212 25.1698 26.4303 22.3592 29.1842C19.1691 32.31 15.7582 33.6979 15.0002 33.6979C14.2422 33.6979 10.8311 32.31 7.64095 29.1842C4.83036 26.4302 1.48001 21.6212 1.48001 14.349V7.34986C6.23988 5.9984 10.6727 4.11233 15.0003 1.59745C19.2199 4.04561 23.8739 6.02547 28.5201 7.34958V14.349Z" fill="black"/>
<path d="M29.4556 6.07445C24.6155 4.74828 19.747 2.68329 15.3764 0.102803C15.1442 -0.0342675 14.8561 -0.0342675 14.624 0.102803C10.1273 2.75743 5.5219 4.71069 0.544433 6.07445C0.222885 6.16247 0 6.45475 0 6.78818V14.3491C0 22.1352 3.59192 27.289 6.60527 30.2414C9.84933 33.4201 13.6282 35.178 15.0002 35.178C16.3721 35.178 20.1509 33.4201 23.395 30.2414C26.4083 27.2891 30 22.1352 30 14.3491V6.78811C30 6.45475 29.7771 6.16247 29.4556 6.07445ZM28.5201 14.349C28.5201 21.6212 25.1698 26.4303 22.3592 29.1842C19.1691 32.31 15.7582 33.6979 15.0002 33.6979C14.2422 33.6979 10.8311 32.31 7.64095 29.1842C4.83036 26.4302 1.48001 21.6212 1.48001 14.349V7.34986C6.23988 5.9984 10.6727 4.11233 15.0003 1.59745C19.2199 4.04561 23.8739 6.02547 28.5201 7.34958V14.349Z" fill="url(#paint0_linear_551_4875)"/>
<path d="M29.4556 6.07445C24.6155 4.74828 19.747 2.68329 15.3764 0.102803C15.1442 -0.0342675 14.8561 -0.0342675 14.624 0.102803C10.1273 2.75743 5.5219 4.71069 0.544433 6.07445C0.222885 6.16247 0 6.45475 0 6.78818V14.3491C0 22.1352 3.59192 27.289 6.60527 30.2414C9.84933 33.4201 13.6282 35.178 15.0002 35.178C16.3721 35.178 20.1509 33.4201 23.395 30.2414C26.4083 27.2891 30 22.1352 30 14.3491V6.78811C30 6.45475 29.7771 6.16247 29.4556 6.07445ZM28.5201 14.349C28.5201 21.6212 25.1698 26.4303 22.3592 29.1842C19.1691 32.31 15.7582 33.6979 15.0002 33.6979C14.2422 33.6979 10.8311 32.31 7.64095 29.1842C4.83036 26.4302 1.48001 21.6212 1.48001 14.349V7.34986C6.23988 5.9984 10.6727 4.11233 15.0003 1.59745C19.2199 4.04561 23.8739 6.02547 28.5201 7.34958V14.349Z" fill="url(#paint1_linear_551_4875)"/>
<path d="M8.44268 7.26683C8.2929 6.88654 7.86328 6.69973 7.48292 6.84958C6.161 7.37044 4.80418 7.84988 3.45017 8.27463C3.14161 8.3715 2.93164 8.65732 2.93164 8.98066V11.8382C2.93164 12.2469 3.26301 12.5782 3.67161 12.5782C4.08021 12.5782 4.41158 12.2469 4.41158 11.8382V9.52145C5.62625 9.12844 6.83961 8.69374 8.02542 8.22646C8.40572 8.07675 8.59253 7.64713 8.44268 7.26683Z" fill="black"/>
<path d="M8.44268 7.26683C8.2929 6.88654 7.86328 6.69973 7.48292 6.84958C6.161 7.37044 4.80418 7.84988 3.45017 8.27463C3.14161 8.3715 2.93164 8.65732 2.93164 8.98066V11.8382C2.93164 12.2469 3.26301 12.5782 3.67161 12.5782C4.08021 12.5782 4.41158 12.2469 4.41158 11.8382V9.52145C5.62625 9.12844 6.83961 8.69374 8.02542 8.22646C8.40572 8.07675 8.59253 7.64713 8.44268 7.26683Z" fill="url(#paint2_linear_551_4875)"/>
<path d="M8.44268 7.26683C8.2929 6.88654 7.86328 6.69973 7.48292 6.84958C6.161 7.37044 4.80418 7.84988 3.45017 8.27463C3.14161 8.3715 2.93164 8.65732 2.93164 8.98066V11.8382C2.93164 12.2469 3.26301 12.5782 3.67161 12.5782C4.08021 12.5782 4.41158 12.2469 4.41158 11.8382V9.52145C5.62625 9.12844 6.83961 8.69374 8.02542 8.22646C8.40572 8.07675 8.59253 7.64713 8.44268 7.26683Z" fill="url(#paint3_linear_551_4875)"/>
<path d="M9.8525 7.40692C9.95178 7.40692 10.0526 7.38693 10.1492 7.34474L10.1629 7.33883C10.5372 7.17476 10.7058 6.73895 10.5418 6.36471C10.3776 5.99032 9.93928 5.82096 9.56531 5.9849L9.55335 5.99005C9.17876 6.15364 9.00961 6.5891 9.1732 6.96356C9.2946 7.24154 9.56703 7.40692 9.8525 7.40692Z" fill="black"/>
<path d="M9.8525 7.40692C9.95178 7.40692 10.0526 7.38693 10.1492 7.34474L10.1629 7.33883C10.5372 7.17476 10.7058 6.73895 10.5418 6.36471C10.3776 5.99032 9.93928 5.82096 9.56531 5.9849L9.55335 5.99005C9.17876 6.15364 9.00961 6.5891 9.1732 6.96356C9.2946 7.24154 9.56703 7.40692 9.8525 7.40692Z" fill="url(#paint4_linear_551_4875)"/>
<path d="M9.8525 7.40692C9.95178 7.40692 10.0526 7.38693 10.1492 7.34474L10.1629 7.33883C10.5372 7.17476 10.7058 6.73895 10.5418 6.36471C10.3776 5.99032 9.93928 5.82096 9.56531 5.9849L9.55335 5.99005C9.17876 6.15364 9.00961 6.5891 9.1732 6.96356C9.2946 7.24154 9.56703 7.40692 9.8525 7.40692Z" fill="url(#paint5_linear_551_4875)"/>
<path d="M23.8117 23.8608C23.4698 23.6373 23.0112 23.7334 22.7874 24.0755C22.1777 25.0088 21.4623 25.9026 20.6609 26.7317C20.0019 27.4134 19.2877 28.0488 18.5383 28.6201C18.2134 28.8678 18.1509 29.3321 18.3986 29.6572C18.5443 29.8481 18.7647 29.9486 18.9875 29.9486C19.1441 29.9486 19.3017 29.8992 19.4357 29.7969C20.2441 29.1806 21.0143 28.4954 21.7248 27.7603C22.5913 26.8641 23.3656 25.8967 24.0264 24.885C24.2501 24.5429 24.1538 24.0843 23.8117 23.8608Z" fill="black"/>
<path d="M23.8117 23.8608C23.4698 23.6373 23.0112 23.7334 22.7874 24.0755C22.1777 25.0088 21.4623 25.9026 20.6609 26.7317C20.0019 27.4134 19.2877 28.0488 18.5383 28.6201C18.2134 28.8678 18.1509 29.3321 18.3986 29.6572C18.5443 29.8481 18.7647 29.9486 18.9875 29.9486C19.1441 29.9486 19.3017 29.8992 19.4357 29.7969C20.2441 29.1806 21.0143 28.4954 21.7248 27.7603C22.5913 26.8641 23.3656 25.8967 24.0264 24.885C24.2501 24.5429 24.1538 24.0843 23.8117 23.8608Z" fill="url(#paint6_linear_551_4875)"/>
<path d="M23.8117 23.8608C23.4698 23.6373 23.0112 23.7334 22.7874 24.0755C22.1777 25.0088 21.4623 25.9026 20.6609 26.7317C20.0019 27.4134 19.2877 28.0488 18.5383 28.6201C18.2134 28.8678 18.1509 29.3321 18.3986 29.6572C18.5443 29.8481 18.7647 29.9486 18.9875 29.9486C19.1441 29.9486 19.3017 29.8992 19.4357 29.7969C20.2441 29.1806 21.0143 28.4954 21.7248 27.7603C22.5913 26.8641 23.3656 25.8967 24.0264 24.885C24.2501 24.5429 24.1538 24.0843 23.8117 23.8608Z" fill="url(#paint7_linear_551_4875)"/>
<path d="M16.8264 29.7797L16.784 29.8047C16.4303 30.0095 16.3095 30.4622 16.5142 30.8158C16.6514 31.0528 16.8998 31.1852 17.1553 31.1852C17.281 31.1852 17.4087 31.1531 17.5253 31.0854L17.5743 31.0566C17.927 30.8501 18.0454 30.3968 17.8389 30.0442C17.6322 29.6916 17.1789 29.5734 16.8264 29.7797Z" fill="black"/>
<path d="M16.8264 29.7797L16.784 29.8047C16.4303 30.0095 16.3095 30.4622 16.5142 30.8158C16.6514 31.0528 16.8998 31.1852 17.1553 31.1852C17.281 31.1852 17.4087 31.1531 17.5253 31.0854L17.5743 31.0566C17.927 30.8501 18.0454 30.3968 17.8389 30.0442C17.6322 29.6916 17.1789 29.5734 16.8264 29.7797Z" fill="url(#paint8_linear_551_4875)"/>
<path d="M16.8264 29.7797L16.784 29.8047C16.4303 30.0095 16.3095 30.4622 16.5142 30.8158C16.6514 31.0528 16.8998 31.1852 17.1553 31.1852C17.281 31.1852 17.4087 31.1531 17.5253 31.0854L17.5743 31.0566C17.927 30.8501 18.0454 30.3968 17.8389 30.0442C17.6322 29.6916 17.1789 29.5734 16.8264 29.7797Z" fill="url(#paint9_linear_551_4875)"/>
<path d="M9.96094 16.0793C9.50659 15.6248 8.90231 15.3747 8.25962 15.3747C7.61694 15.3747 7.0126 15.6249 6.55803 16.0793C5.61998 17.0175 5.61998 18.5442 6.55803 19.4824L10.9275 23.8517C11.3819 24.306 11.9862 24.5562 12.629 24.5562C13.2717 24.5562 13.876 24.306 14.3305 23.8516L23.4521 14.7299C24.3901 13.7915 24.3901 12.265 23.4519 11.3271C22.9975 10.8727 22.3932 10.6226 21.7504 10.6226C21.1077 10.6226 20.5034 10.8727 20.0489 11.3271L12.6289 18.7471L9.96094 16.0793ZM21.0954 12.3736C21.2703 12.1988 21.503 12.1025 21.7505 12.1025C21.9981 12.1025 22.2306 12.1988 22.4056 12.3736C22.7667 12.7347 22.7667 13.3224 22.4055 13.6836L13.284 22.8051C13.1092 22.98 12.8764 23.0762 12.629 23.0762C12.3815 23.0762 12.1488 22.98 11.9738 22.8051L7.60451 18.4359C7.24331 18.0747 7.24331 17.487 7.60437 17.1259C7.7793 16.9511 8.01201 16.8547 8.25956 16.8547C8.50711 16.8547 8.73968 16.9509 8.91454 17.1258L12.1056 20.3169C12.2445 20.4557 12.4326 20.5337 12.6289 20.5337C12.8252 20.5337 13.0133 20.4557 13.152 20.3169L21.0954 12.3736Z" fill="black"/>
<path d="M9.96094 16.0793C9.50659 15.6248 8.90231 15.3747 8.25962 15.3747C7.61694 15.3747 7.0126 15.6249 6.55803 16.0793C5.61998 17.0175 5.61998 18.5442 6.55803 19.4824L10.9275 23.8517C11.3819 24.306 11.9862 24.5562 12.629 24.5562C13.2717 24.5562 13.876 24.306 14.3305 23.8516L23.4521 14.7299C24.3901 13.7915 24.3901 12.265 23.4519 11.3271C22.9975 10.8727 22.3932 10.6226 21.7504 10.6226C21.1077 10.6226 20.5034 10.8727 20.0489 11.3271L12.6289 18.7471L9.96094 16.0793ZM21.0954 12.3736C21.2703 12.1988 21.503 12.1025 21.7505 12.1025C21.9981 12.1025 22.2306 12.1988 22.4056 12.3736C22.7667 12.7347 22.7667 13.3224 22.4055 13.6836L13.284 22.8051C13.1092 22.98 12.8764 23.0762 12.629 23.0762C12.3815 23.0762 12.1488 22.98 11.9738 22.8051L7.60451 18.4359C7.24331 18.0747 7.24331 17.487 7.60437 17.1259C7.7793 16.9511 8.01201 16.8547 8.25956 16.8547C8.50711 16.8547 8.73968 16.9509 8.91454 17.1258L12.1056 20.3169C12.2445 20.4557 12.4326 20.5337 12.6289 20.5337C12.8252 20.5337 13.0133 20.4557 13.152 20.3169L21.0954 12.3736Z" fill="url(#paint10_linear_551_4875)"/>
<path d="M9.96094 16.0793C9.50659 15.6248 8.90231 15.3747 8.25962 15.3747C7.61694 15.3747 7.0126 15.6249 6.55803 16.0793C5.61998 17.0175 5.61998 18.5442 6.55803 19.4824L10.9275 23.8517C11.3819 24.306 11.9862 24.5562 12.629 24.5562C13.2717 24.5562 13.876 24.306 14.3305 23.8516L23.4521 14.7299C24.3901 13.7915 24.3901 12.265 23.4519 11.3271C22.9975 10.8727 22.3932 10.6226 21.7504 10.6226C21.1077 10.6226 20.5034 10.8727 20.0489 11.3271L12.6289 18.7471L9.96094 16.0793ZM21.0954 12.3736C21.2703 12.1988 21.503 12.1025 21.7505 12.1025C21.9981 12.1025 22.2306 12.1988 22.4056 12.3736C22.7667 12.7347 22.7667 13.3224 22.4055 13.6836L13.284 22.8051C13.1092 22.98 12.8764 23.0762 12.629 23.0762C12.3815 23.0762 12.1488 22.98 11.9738 22.8051L7.60451 18.4359C7.24331 18.0747 7.24331 17.487 7.60437 17.1259C7.7793 16.9511 8.01201 16.8547 8.25956 16.8547C8.50711 16.8547 8.73968 16.9509 8.91454 17.1258L12.1056 20.3169C12.2445 20.4557 12.4326 20.5337 12.6289 20.5337C12.8252 20.5337 13.0133 20.4557 13.152 20.3169L21.0954 12.3736Z" fill="url(#paint11_linear_551_4875)"/>
<defs>
<linearGradient id="paint0_linear_551_4875" x1="3.9375" y1="7.03559" x2="27.6468" y2="25.2513" gradientUnits="userSpaceOnUse">
<stop stop-color="#1E3C72"/>
<stop offset="1" stop-color="#2A5298"/>
</linearGradient>
<linearGradient id="paint1_linear_551_4875" x1="0.595533" y1="18.04" x2="29.7531" y2="18.0922" gradientUnits="userSpaceOnUse">
<stop stop-color="#4E54C8"/>
<stop offset="1" stop-color="#8F94FB"/>
</linearGradient>
<linearGradient id="paint2_linear_551_4875" x1="3.66175" y1="7.95392" x2="7.65301" y2="11.4143" gradientUnits="userSpaceOnUse">
<stop stop-color="#1E3C72"/>
<stop offset="1" stop-color="#2A5298"/>
</linearGradient>
<linearGradient id="paint3_linear_551_4875" x1="3.04207" y1="9.76214" x2="8.44862" y2="9.77307" gradientUnits="userSpaceOnUse">
<stop stop-color="#4E54C8"/>
<stop offset="1" stop-color="#8F94FB"/>
</linearGradient>
<linearGradient id="paint4_linear_551_4875" x1="9.30688" y1="6.21927" x2="10.3374" y2="7.1534" gradientUnits="userSpaceOnUse">
<stop stop-color="#1E3C72"/>
<stop offset="1" stop-color="#2A5298"/>
</linearGradient>
<linearGradient id="paint5_linear_551_4875" x1="9.14049" y1="6.68367" x2="10.5922" y2="6.68674" gradientUnits="userSpaceOnUse">
<stop stop-color="#4E54C8"/>
<stop offset="1" stop-color="#8F94FB"/>
</linearGradient>
<linearGradient id="paint6_linear_551_4875" x1="19.0214" y1="24.9819" x2="23.3003" y2="28.6452" gradientUnits="userSpaceOnUse">
<stop stop-color="#1E3C72"/>
<stop offset="1" stop-color="#2A5298"/>
</linearGradient>
<linearGradient id="paint7_linear_551_4875" x1="18.3642" y1="26.924" x2="24.0985" y2="26.9354" gradientUnits="userSpaceOnUse">
<stop stop-color="#4E54C8"/>
<stop offset="1" stop-color="#8F94FB"/>
</linearGradient>
<linearGradient id="paint8_linear_551_4875" x1="16.6148" y1="29.9796" x2="17.6615" y2="30.9345" gradientUnits="userSpaceOnUse">
<stop stop-color="#1E3C72"/>
<stop offset="1" stop-color="#2A5298"/>
</linearGradient>
<linearGradient id="paint9_linear_551_4875" x1="16.4448" y1="30.451" x2="17.9279" y2="30.4542" gradientUnits="userSpaceOnUse">
<stop stop-color="#4E54C8"/>
<stop offset="1" stop-color="#8F94FB"/>
</linearGradient>
<linearGradient id="paint10_linear_551_4875" x1="8.25651" y1="13.4093" x2="17.8396" y2="24.7488" gradientUnits="userSpaceOnUse">
<stop stop-color="#1E3C72"/>
<stop offset="1" stop-color="#2A5298"/>
</linearGradient>
<linearGradient id="paint11_linear_551_4875" x1="6.21779" y1="17.768" x2="24.0048" y2="17.8171" gradientUnits="userSpaceOnUse">
<stop stop-color="#4E54C8"/>
<stop offset="1" stop-color="#8F94FB"/>
</linearGradient>
</defs>
</svg>
