<svg width="28" height="31" viewBox="0 0 28 31" fill="none" xmlns="http://www.w3.org/2000/svg">
<path d="M22.0767 22.0187L19.1989 21.0596L18.1658 18.9933C19.0965 18.046 19.7428 16.7926 19.9607 15.4852L20.0895 14.7129H21.1914C22.193 14.7129 23.0078 13.8981 23.0078 12.8965V9.08203C23.0078 4.0742 18.9336 0 13.9258 0C8.90511 0 4.84375 4.06251 4.84375 9.08203V12.8965C4.84375 13.6858 5.34998 14.3588 6.05469 14.6088V15.3184C6.05469 16.3199 6.86953 17.1348 7.87109 17.1348H8.40282C8.66529 17.7049 9.00502 18.233 9.41843 18.7074C9.50416 18.806 9.59359 18.9015 9.6852 18.9945L8.65263 21.0596L5.77478 22.0187C2.42866 23.1345 0 26.657 0 30.3945C0 30.7289 0.271068 31 0.605469 31H27.2461C27.5804 31 27.8516 30.7289 27.8516 30.3945C27.8516 26.657 25.423 23.1345 22.0767 22.0187ZM21.7969 12.8965C21.7969 13.2303 21.5253 13.502 21.1914 13.502H20.2673C20.4213 12.3098 20.5238 11.0411 20.565 9.79164C20.5663 9.7564 20.5672 9.72213 20.5683 9.6875H21.7969V12.8965ZM6.66016 13.502C6.3263 13.502 6.05469 13.2303 6.05469 12.8965V9.6875H7.28367C7.28567 9.75065 7.28779 9.8141 7.29015 9.87798C7.29021 9.88016 7.29033 9.88228 7.29039 9.88446C7.29039 9.88464 7.29039 9.88482 7.29039 9.885C7.33277 11.1003 7.43401 12.336 7.5844 13.5019H6.66016V13.502ZM7.87109 15.9238C7.53724 15.9238 7.26562 15.6522 7.26562 15.3184V14.7129H7.76199L7.89083 15.4854C7.91541 15.6322 7.94563 15.7785 7.98056 15.9238H7.87109ZM7.26665 8.47656H6.0777C6.38437 4.41865 9.77087 1.21094 13.9258 1.21094C18.0622 1.21094 21.4636 4.41823 21.7738 8.47656H20.585C20.5414 5.13274 17.8184 2.42188 14.4677 2.42188H13.3839C10.0333 2.42188 7.31019 5.13274 7.26665 8.47656ZM13.3839 3.63281H14.4677C17.1807 3.63281 19.3766 5.85192 19.375 8.56193C19.375 8.75247 19.3735 8.91837 19.3703 9.06932C19.3703 9.07125 19.3702 9.07325 19.3702 9.07525L18.6129 8.96705C16.5555 8.67328 14.6129 7.70199 13.143 6.23203C13.0294 6.1185 12.8754 6.05469 12.7148 6.05469C11.0888 6.05469 9.53226 6.79554 8.50332 8.04716C8.7569 5.58176 10.8411 3.63281 13.3839 3.63281ZM9.23582 15.9238C8.93272 14.9155 8.58591 11.9487 8.50926 10.0476L9.32416 8.961C10.0726 7.96343 11.237 7.34361 12.4756 7.27247C14.1053 8.82344 16.2137 9.84765 18.4417 10.1658L19.333 10.2932C19.2735 11.5577 19.1517 12.8266 18.9773 13.9937C18.9772 13.994 18.9771 13.9944 18.9771 13.9949C18.9216 14.3701 18.8779 14.6115 18.7663 15.286C18.4456 17.2092 17.0105 18.9484 15.1161 19.4221C14.3364 19.6168 13.515 19.6167 12.7358 19.4221C11.5529 19.1264 10.4683 18.3079 9.76827 17.1348H11.0026C11.2525 17.8395 11.9255 18.3457 12.7148 18.3457H13.9258C14.9293 18.3457 15.7422 17.5329 15.7422 16.5293C15.7422 15.5277 14.9273 14.7129 13.9258 14.7129H12.7148C11.9079 14.7129 11.2449 15.2341 11.0015 15.9238H9.23582ZM12.6639 20.6475C13.0792 20.7349 13.5026 20.7797 13.9258 20.7797C14.257 20.7797 14.5883 20.752 14.9159 20.6982L13.846 21.8296L12.6639 20.6475ZM13.0136 22.7099L11.0932 24.7407C10.5645 23.7287 10.1102 22.6755 9.73763 21.5973L10.4588 20.155L13.0136 22.7099ZM17.2901 19.9498L18.1138 21.5973C17.7406 22.6773 17.2862 23.7309 16.758 24.7416L14.7026 22.6862L17.2901 19.9498ZM12.1094 16.5293C12.1094 16.195 12.3805 15.9238 12.7148 15.9238H13.9258C14.2596 15.9238 14.5312 16.1954 14.5312 16.5293C14.5312 16.8636 14.2601 17.1348 13.9258 17.1348H12.7148C12.381 17.1348 12.1094 16.8632 12.1094 16.5293ZM1.23516 29.7891C1.4751 26.7896 3.47127 24.0633 6.15774 23.1675L8.7064 22.3181C9.17334 23.6093 9.7518 24.8642 10.4297 26.0563C10.4309 26.0583 10.432 26.0604 10.4331 26.0624L10.4332 26.0625C10.9285 26.9337 11.486 27.7851 12.0905 28.5933L12.8353 29.7891H1.23516ZM13.9258 29.2493L13.1046 27.9311C13.0954 27.9163 13.0856 27.9019 13.0752 27.888C12.5849 27.234 12.1275 26.55 11.711 25.8499L13.8703 23.5664L16.1455 25.8416C15.7261 26.5468 15.2672 27.2337 14.7765 27.8879C14.7468 27.9274 14.7889 27.8651 13.9258 29.2493ZM15.0162 29.7891L15.761 28.5934C16.3681 27.7821 16.9296 26.9239 17.4299 26.0424C17.433 26.0371 17.4358 26.0316 17.4388 26.0263C17.4392 26.0257 17.4396 26.025 17.4399 26.0244C18.1093 24.8437 18.6817 23.5997 19.1452 22.3181L21.6938 23.1675C24.3803 24.0633 26.3765 26.7896 26.6164 29.7891H15.0162Z" fill="black"/>
<path d="M22.0767 22.0187L19.1989 21.0596L18.1658 18.9933C19.0965 18.046 19.7428 16.7926 19.9607 15.4852L20.0895 14.7129H21.1914C22.193 14.7129 23.0078 13.8981 23.0078 12.8965V9.08203C23.0078 4.0742 18.9336 0 13.9258 0C8.90511 0 4.84375 4.06251 4.84375 9.08203V12.8965C4.84375 13.6858 5.34998 14.3588 6.05469 14.6088V15.3184C6.05469 16.3199 6.86953 17.1348 7.87109 17.1348H8.40282C8.66529 17.7049 9.00502 18.233 9.41843 18.7074C9.50416 18.806 9.59359 18.9015 9.6852 18.9945L8.65263 21.0596L5.77478 22.0187C2.42866 23.1345 0 26.657 0 30.3945C0 30.7289 0.271068 31 0.605469 31H27.2461C27.5804 31 27.8516 30.7289 27.8516 30.3945C27.8516 26.657 25.423 23.1345 22.0767 22.0187ZM21.7969 12.8965C21.7969 13.2303 21.5253 13.502 21.1914 13.502H20.2673C20.4213 12.3098 20.5238 11.0411 20.565 9.79164C20.5663 9.7564 20.5672 9.72213 20.5683 9.6875H21.7969V12.8965ZM6.66016 13.502C6.3263 13.502 6.05469 13.2303 6.05469 12.8965V9.6875H7.28367C7.28567 9.75065 7.28779 9.8141 7.29015 9.87798C7.29021 9.88016 7.29033 9.88228 7.29039 9.88446C7.29039 9.88464 7.29039 9.88482 7.29039 9.885C7.33277 11.1003 7.43401 12.336 7.5844 13.5019H6.66016V13.502ZM7.87109 15.9238C7.53724 15.9238 7.26562 15.6522 7.26562 15.3184V14.7129H7.76199L7.89083 15.4854C7.91541 15.6322 7.94563 15.7785 7.98056 15.9238H7.87109ZM7.26665 8.47656H6.0777C6.38437 4.41865 9.77087 1.21094 13.9258 1.21094C18.0622 1.21094 21.4636 4.41823 21.7738 8.47656H20.585C20.5414 5.13274 17.8184 2.42188 14.4677 2.42188H13.3839C10.0333 2.42188 7.31019 5.13274 7.26665 8.47656ZM13.3839 3.63281H14.4677C17.1807 3.63281 19.3766 5.85192 19.375 8.56193C19.375 8.75247 19.3735 8.91837 19.3703 9.06932C19.3703 9.07125 19.3702 9.07325 19.3702 9.07525L18.6129 8.96705C16.5555 8.67328 14.6129 7.70199 13.143 6.23203C13.0294 6.1185 12.8754 6.05469 12.7148 6.05469C11.0888 6.05469 9.53226 6.79554 8.50332 8.04716C8.7569 5.58176 10.8411 3.63281 13.3839 3.63281ZM9.23582 15.9238C8.93272 14.9155 8.58591 11.9487 8.50926 10.0476L9.32416 8.961C10.0726 7.96343 11.237 7.34361 12.4756 7.27247C14.1053 8.82344 16.2137 9.84765 18.4417 10.1658L19.333 10.2932C19.2735 11.5577 19.1517 12.8266 18.9773 13.9937C18.9772 13.994 18.9771 13.9944 18.9771 13.9949C18.9216 14.3701 18.8779 14.6115 18.7663 15.286C18.4456 17.2092 17.0105 18.9484 15.1161 19.4221C14.3364 19.6168 13.515 19.6167 12.7358 19.4221C11.5529 19.1264 10.4683 18.3079 9.76827 17.1348H11.0026C11.2525 17.8395 11.9255 18.3457 12.7148 18.3457H13.9258C14.9293 18.3457 15.7422 17.5329 15.7422 16.5293C15.7422 15.5277 14.9273 14.7129 13.9258 14.7129H12.7148C11.9079 14.7129 11.2449 15.2341 11.0015 15.9238H9.23582ZM12.6639 20.6475C13.0792 20.7349 13.5026 20.7797 13.9258 20.7797C14.257 20.7797 14.5883 20.752 14.9159 20.6982L13.846 21.8296L12.6639 20.6475ZM13.0136 22.7099L11.0932 24.7407C10.5645 23.7287 10.1102 22.6755 9.73763 21.5973L10.4588 20.155L13.0136 22.7099ZM17.2901 19.9498L18.1138 21.5973C17.7406 22.6773 17.2862 23.7309 16.758 24.7416L14.7026 22.6862L17.2901 19.9498ZM12.1094 16.5293C12.1094 16.195 12.3805 15.9238 12.7148 15.9238H13.9258C14.2596 15.9238 14.5312 16.1954 14.5312 16.5293C14.5312 16.8636 14.2601 17.1348 13.9258 17.1348H12.7148C12.381 17.1348 12.1094 16.8632 12.1094 16.5293ZM1.23516 29.7891C1.4751 26.7896 3.47127 24.0633 6.15774 23.1675L8.7064 22.3181C9.17334 23.6093 9.7518 24.8642 10.4297 26.0563C10.4309 26.0583 10.432 26.0604 10.4331 26.0624L10.4332 26.0625C10.9285 26.9337 11.486 27.7851 12.0905 28.5933L12.8353 29.7891H1.23516ZM13.9258 29.2493L13.1046 27.9311C13.0954 27.9163 13.0856 27.9019 13.0752 27.888C12.5849 27.234 12.1275 26.55 11.711 25.8499L13.8703 23.5664L16.1455 25.8416C15.7261 26.5468 15.2672 27.2337 14.7765 27.8879C14.7468 27.9274 14.7889 27.8651 13.9258 29.2493ZM15.0162 29.7891L15.761 28.5934C16.3681 27.7821 16.9296 26.9239 17.4299 26.0424C17.433 26.0371 17.4358 26.0316 17.4388 26.0263C17.4392 26.0257 17.4396 26.025 17.4399 26.0244C18.1093 24.8437 18.6817 23.5997 19.1452 22.3181L21.6938 23.1675C24.3803 24.0633 26.3765 26.7896 26.6164 29.7891H15.0162Z" fill="url(#paint0_linear_551_4866)"/>
<path d="M22.0767 22.0187L19.1989 21.0596L18.1658 18.9933C19.0965 18.046 19.7428 16.7926 19.9607 15.4852L20.0895 14.7129H21.1914C22.193 14.7129 23.0078 13.8981 23.0078 12.8965V9.08203C23.0078 4.0742 18.9336 0 13.9258 0C8.90511 0 4.84375 4.06251 4.84375 9.08203V12.8965C4.84375 13.6858 5.34998 14.3588 6.05469 14.6088V15.3184C6.05469 16.3199 6.86953 17.1348 7.87109 17.1348H8.40282C8.66529 17.7049 9.00502 18.233 9.41843 18.7074C9.50416 18.806 9.59359 18.9015 9.6852 18.9945L8.65263 21.0596L5.77478 22.0187C2.42866 23.1345 0 26.657 0 30.3945C0 30.7289 0.271068 31 0.605469 31H27.2461C27.5804 31 27.8516 30.7289 27.8516 30.3945C27.8516 26.657 25.423 23.1345 22.0767 22.0187ZM21.7969 12.8965C21.7969 13.2303 21.5253 13.502 21.1914 13.502H20.2673C20.4213 12.3098 20.5238 11.0411 20.565 9.79164C20.5663 9.7564 20.5672 9.72213 20.5683 9.6875H21.7969V12.8965ZM6.66016 13.502C6.3263 13.502 6.05469 13.2303 6.05469 12.8965V9.6875H7.28367C7.28567 9.75065 7.28779 9.8141 7.29015 9.87798C7.29021 9.88016 7.29033 9.88228 7.29039 9.88446C7.29039 9.88464 7.29039 9.88482 7.29039 9.885C7.33277 11.1003 7.43401 12.336 7.5844 13.5019H6.66016V13.502ZM7.87109 15.9238C7.53724 15.9238 7.26562 15.6522 7.26562 15.3184V14.7129H7.76199L7.89083 15.4854C7.91541 15.6322 7.94563 15.7785 7.98056 15.9238H7.87109ZM7.26665 8.47656H6.0777C6.38437 4.41865 9.77087 1.21094 13.9258 1.21094C18.0622 1.21094 21.4636 4.41823 21.7738 8.47656H20.585C20.5414 5.13274 17.8184 2.42188 14.4677 2.42188H13.3839C10.0333 2.42188 7.31019 5.13274 7.26665 8.47656ZM13.3839 3.63281H14.4677C17.1807 3.63281 19.3766 5.85192 19.375 8.56193C19.375 8.75247 19.3735 8.91837 19.3703 9.06932C19.3703 9.07125 19.3702 9.07325 19.3702 9.07525L18.6129 8.96705C16.5555 8.67328 14.6129 7.70199 13.143 6.23203C13.0294 6.1185 12.8754 6.05469 12.7148 6.05469C11.0888 6.05469 9.53226 6.79554 8.50332 8.04716C8.7569 5.58176 10.8411 3.63281 13.3839 3.63281ZM9.23582 15.9238C8.93272 14.9155 8.58591 11.9487 8.50926 10.0476L9.32416 8.961C10.0726 7.96343 11.237 7.34361 12.4756 7.27247C14.1053 8.82344 16.2137 9.84765 18.4417 10.1658L19.333 10.2932C19.2735 11.5577 19.1517 12.8266 18.9773 13.9937C18.9772 13.994 18.9771 13.9944 18.9771 13.9949C18.9216 14.3701 18.8779 14.6115 18.7663 15.286C18.4456 17.2092 17.0105 18.9484 15.1161 19.4221C14.3364 19.6168 13.515 19.6167 12.7358 19.4221C11.5529 19.1264 10.4683 18.3079 9.76827 17.1348H11.0026C11.2525 17.8395 11.9255 18.3457 12.7148 18.3457H13.9258C14.9293 18.3457 15.7422 17.5329 15.7422 16.5293C15.7422 15.5277 14.9273 14.7129 13.9258 14.7129H12.7148C11.9079 14.7129 11.2449 15.2341 11.0015 15.9238H9.23582ZM12.6639 20.6475C13.0792 20.7349 13.5026 20.7797 13.9258 20.7797C14.257 20.7797 14.5883 20.752 14.9159 20.6982L13.846 21.8296L12.6639 20.6475ZM13.0136 22.7099L11.0932 24.7407C10.5645 23.7287 10.1102 22.6755 9.73763 21.5973L10.4588 20.155L13.0136 22.7099ZM17.2901 19.9498L18.1138 21.5973C17.7406 22.6773 17.2862 23.7309 16.758 24.7416L14.7026 22.6862L17.2901 19.9498ZM12.1094 16.5293C12.1094 16.195 12.3805 15.9238 12.7148 15.9238H13.9258C14.2596 15.9238 14.5312 16.1954 14.5312 16.5293C14.5312 16.8636 14.2601 17.1348 13.9258 17.1348H12.7148C12.381 17.1348 12.1094 16.8632 12.1094 16.5293ZM1.23516 29.7891C1.4751 26.7896 3.47127 24.0633 6.15774 23.1675L8.7064 22.3181C9.17334 23.6093 9.7518 24.8642 10.4297 26.0563C10.4309 26.0583 10.432 26.0604 10.4331 26.0624L10.4332 26.0625C10.9285 26.9337 11.486 27.7851 12.0905 28.5933L12.8353 29.7891H1.23516ZM13.9258 29.2493L13.1046 27.9311C13.0954 27.9163 13.0856 27.9019 13.0752 27.888C12.5849 27.234 12.1275 26.55 11.711 25.8499L13.8703 23.5664L16.1455 25.8416C15.7261 26.5468 15.2672 27.2337 14.7765 27.8879C14.7468 27.9274 14.7889 27.8651 13.9258 29.2493ZM15.0162 29.7891L15.761 28.5934C16.3681 27.7821 16.9296 26.9239 17.4299 26.0424C17.433 26.0371 17.4358 26.0316 17.4388 26.0263C17.4392 26.0257 17.4396 26.025 17.4399 26.0244C18.1093 24.8437 18.6817 23.5997 19.1452 22.3181L21.6938 23.1675C24.3803 24.0633 26.3765 26.7896 26.6164 29.7891H15.0162Z" fill="url(#paint1_linear_551_4866)"/>
<defs>
<linearGradient id="paint0_linear_551_4866" x1="3.65552" y1="6.2" x2="24.8044" y2="23.318" gradientUnits="userSpaceOnUse">
<stop stop-color="#1E3C72"/>
<stop offset="1" stop-color="#2A5298"/>
</linearGradient>
<linearGradient id="paint1_linear_551_4866" x1="0.552885" y1="15.8974" x2="27.6223" y2="15.9485" gradientUnits="userSpaceOnUse">
<stop stop-color="#4E54C8"/>
<stop offset="1" stop-color="#8F94FB"/>
</linearGradient>
</defs>
</svg>
