<svg width="32" height="24" viewBox="0 0 32 24" fill="none" xmlns="http://www.w3.org/2000/svg">
<path d="M0.279938 11.5881L2.75706 13.0183C3.0055 13.1617 3.30744 13.1094 3.49475 12.9201L5.34513 13.9884C4.96369 15.2002 5.80163 16.4435 7.06169 16.5532C6.784 17.5961 7.39513 18.6862 8.46056 18.9717C8.74713 19.0486 9.04819 19.0619 9.34525 19.0047C9.23156 20.1677 10.1484 21.1711 11.3159 21.1711C11.6752 21.1711 12.0187 21.0719 12.3014 20.9065C12.3574 21.9456 13.219 22.7736 14.2787 22.7736C14.6139 22.7736 14.9534 22.6884 15.2639 22.5091C15.6909 22.2626 15.7334 22.2419 15.8419 22.1636L16.9461 22.8011C17.4141 23.0712 17.9813 23.1414 18.5023 22.9965C19.4028 22.7461 19.9689 21.9326 19.9375 21.0439C20.8789 21.5569 22.1093 21.2491 22.6443 20.2804C22.8271 19.9494 22.9037 19.5859 22.8853 19.2305C23.2866 19.3806 23.7196 19.3964 24.1337 19.2721C25.1992 18.9521 25.8203 17.7824 25.4035 16.6732C25.9462 16.5677 26.4424 16.2369 26.7398 15.7216C26.7445 15.7135 26.7489 15.7052 26.7531 15.6969C27.037 15.1292 27.026 14.4716 26.7781 13.9172L28.5051 12.9201C28.693 13.1099 28.9951 13.1614 29.2428 13.0184L31.7198 11.5882C31.8926 11.4886 31.9999 11.3027 31.9999 11.1033V0.560431C31.9999 0.130431 31.5329 -0.139568 31.1601 0.0755568L24.1177 4.14149C23.8671 4.28618 23.7644 4.57531 23.8339 4.82943L21.9669 5.90737C21.8159 5.99462 21.7163 6.13712 21.6789 6.29481C21.0506 6.65112 20.2738 6.64862 19.6477 6.28712L17.5801 5.09343C16.6487 4.55568 15.4914 4.55562 14.5599 5.09343L11.7262 6.72943C11.234 6.69693 10.771 6.55431 10.3208 6.29493C10.2834 6.13724 10.1838 5.99462 10.0327 5.90731L8.16575 4.82943C8.23512 4.57581 8.133 4.28637 7.882 4.14149L5.74556 2.90806C5.52138 2.77856 5.23469 2.85543 5.10525 3.07962C4.97581 3.30381 5.05263 3.59049 5.27681 3.71993L7.12937 4.78949L2.94206 12.0426L0.9375 10.8852V1.21449L3.34288 2.60324C3.567 2.73268 3.85375 2.65587 3.98319 2.43168C4.11263 2.20749 4.03581 1.92081 3.81163 1.79137L0.83975 0.0754938C0.467375 -0.139381 0 0.130056 0 0.560431V11.1033C0 11.3027 0.107313 11.4886 0.279938 11.5881ZM6.33012 15.1039C6.0435 14.6074 6.21425 13.9702 6.71069 13.6836L8.05181 12.9093C8.54831 12.6226 9.18544 12.7934 9.47206 13.2899C9.75869 13.7863 9.58794 14.4235 9.0915 14.7101C7.82688 15.4402 9.03119 14.7449 7.75037 15.4844C7.25394 15.771 6.61681 15.6004 6.33012 15.1039ZM8.70325 18.0662C8.14825 17.9176 7.81931 17.348 7.96806 16.7929C8.03994 16.5246 8.212 16.3004 8.4525 16.1616C8.99894 15.8461 8.78925 15.9671 9.25037 15.7009C9.74675 15.4152 10.383 15.5862 10.6694 16.0822C10.956 16.5786 10.7852 17.2158 10.2888 17.5024L9.49212 17.9624C9.25169 18.1012 8.97144 18.1381 8.70325 18.0662ZM10.4123 19.7142C10.1257 19.2178 10.2964 18.5806 10.7929 18.294L11.5118 17.8789C11.7527 17.7399 12.0329 17.7033 12.3007 17.7751C12.8558 17.9238 13.1847 18.4933 13.0359 19.0484C12.9661 19.3089 12.7984 19.5372 12.5515 19.6797L11.8326 20.0949C11.3361 20.3815 10.699 20.2107 10.4123 19.7142ZM15.2031 21.4619L14.7952 21.6974C14.2987 21.9839 13.6616 21.8132 13.375 21.3168C13.0874 20.8187 13.2607 20.1823 13.7556 19.8966L14.1634 19.6611C14.6631 19.3726 15.2989 19.5484 15.5837 20.0416C15.8703 20.5381 15.6996 21.1752 15.2031 21.4619ZM24.2854 5.65137L26.3551 9.23606C26.4846 9.46025 26.7713 9.53712 26.9954 9.40762C27.2196 9.27818 27.2964 8.9915 27.167 8.76731L24.8704 4.78949L31.0625 1.21449V10.8852L29.0579 12.0426L28.2823 10.6991C28.1529 10.4749 27.8662 10.3981 27.642 10.5276C27.4178 10.657 27.341 10.9437 27.4704 11.1679L28.0191 12.1182L26.4534 13.0222L22.7197 6.55524L24.2854 5.65137ZM10.8056 7.51493C10.0774 8.65174 10.6725 10.1497 11.9568 10.4938C12.4669 10.6305 12.9998 10.5604 13.4571 10.2963L16.3784 8.61012C16.4165 8.58812 16.4638 8.58818 16.5018 8.61012L17.9649 9.45487C18.1889 9.58431 18.4757 9.50743 18.6052 9.28331C18.7346 9.05912 18.6578 8.77243 18.4336 8.64299L16.9706 7.79831C16.6434 7.60937 16.2369 7.60943 15.9098 7.79824L12.9884 9.48443C12.4919 9.77112 11.8548 9.60031 11.5682 9.10387C11.2816 8.60743 11.4523 7.97031 11.9487 7.68362C18.4265 3.94374 12.0613 7.61862 15.0289 5.90531C15.6712 5.53449 16.4692 5.53443 17.1116 5.90531L19.1791 7.09899C20.0461 7.59962 21.1114 7.62831 22.0009 7.18512L25.047 12.4612L20.3864 9.77049C20.1623 9.64099 19.8755 9.71787 19.7461 9.94206C19.6167 10.1662 19.6935 10.4529 19.9177 10.5824L25.4667 13.7861C25.9649 14.0737 26.1707 14.7481 25.9209 15.2651C25.6311 15.7522 25.0003 15.9179 24.5078 15.6336C24.4359 15.5857 25.0684 15.9572 21.1619 13.7017C20.9377 13.5722 20.651 13.6491 20.5216 13.8733C20.3921 14.0975 20.4689 14.3842 20.6931 14.5136C20.7263 14.5328 24.04 16.4459 24.085 16.4719C24.5434 16.7366 24.7307 17.3601 24.4916 17.8384C24.2188 18.3837 23.5737 18.5777 23.0453 18.2727L21.9028 17.6131C21.9025 17.613 21.9023 17.6128 21.902 17.6127L19.6534 16.3144C19.4291 16.1849 19.1425 16.2618 19.0131 16.486C18.8836 16.7102 18.9604 16.9969 19.1846 17.1263L21.4333 18.4246C21.9204 18.7058 22.0956 19.3351 21.8238 19.8272C21.5419 20.3376 20.8692 20.5 20.3642 20.2084C20.2878 20.1643 18.1722 18.9428 18.145 18.9272C17.9207 18.7977 17.6341 18.8746 17.5047 19.0987C17.3752 19.3229 17.4521 19.6096 17.6763 19.7391L18.4841 20.2055C18.9856 20.5005 19.1396 21.1284 18.8747 21.6081C18.5888 22.1256 17.9128 22.2766 17.4151 21.9893L16.4561 21.4357C16.7373 20.8633 16.7377 20.1655 16.3957 19.5729C15.9094 18.7306 14.8925 18.3814 14.0084 18.703C13.9652 17.5503 12.9209 16.6422 11.7331 16.8239C11.8419 15.8701 11.2498 14.9805 10.3325 14.7079C10.6256 14.1312 10.6309 13.4221 10.284 12.8212C9.73888 11.8771 8.52725 11.5525 7.58313 12.0976L6.953 12.4614L9.9975 7.18812C10.255 7.32543 10.5262 7.43493 10.8056 7.51493ZM5.54656 13.0222L3.98088 12.1183L7.71456 5.65137L9.28025 6.55531L5.54656 13.0222Z" fill="black"/>
<path d="M0.279938 11.5881L2.75706 13.0183C3.0055 13.1617 3.30744 13.1094 3.49475 12.9201L5.34513 13.9884C4.96369 15.2002 5.80163 16.4435 7.06169 16.5532C6.784 17.5961 7.39513 18.6862 8.46056 18.9717C8.74713 19.0486 9.04819 19.0619 9.34525 19.0047C9.23156 20.1677 10.1484 21.1711 11.3159 21.1711C11.6752 21.1711 12.0187 21.0719 12.3014 20.9065C12.3574 21.9456 13.219 22.7736 14.2787 22.7736C14.6139 22.7736 14.9534 22.6884 15.2639 22.5091C15.6909 22.2626 15.7334 22.2419 15.8419 22.1636L16.9461 22.8011C17.4141 23.0712 17.9813 23.1414 18.5023 22.9965C19.4028 22.7461 19.9689 21.9326 19.9375 21.0439C20.8789 21.5569 22.1093 21.2491 22.6443 20.2804C22.8271 19.9494 22.9037 19.5859 22.8853 19.2305C23.2866 19.3806 23.7196 19.3964 24.1337 19.2721C25.1992 18.9521 25.8203 17.7824 25.4035 16.6732C25.9462 16.5677 26.4424 16.2369 26.7398 15.7216C26.7445 15.7135 26.7489 15.7052 26.7531 15.6969C27.037 15.1292 27.026 14.4716 26.7781 13.9172L28.5051 12.9201C28.693 13.1099 28.9951 13.1614 29.2428 13.0184L31.7198 11.5882C31.8926 11.4886 31.9999 11.3027 31.9999 11.1033V0.560431C31.9999 0.130431 31.5329 -0.139568 31.1601 0.0755568L24.1177 4.14149C23.8671 4.28618 23.7644 4.57531 23.8339 4.82943L21.9669 5.90737C21.8159 5.99462 21.7163 6.13712 21.6789 6.29481C21.0506 6.65112 20.2738 6.64862 19.6477 6.28712L17.5801 5.09343C16.6487 4.55568 15.4914 4.55562 14.5599 5.09343L11.7262 6.72943C11.234 6.69693 10.771 6.55431 10.3208 6.29493C10.2834 6.13724 10.1838 5.99462 10.0327 5.90731L8.16575 4.82943C8.23512 4.57581 8.133 4.28637 7.882 4.14149L5.74556 2.90806C5.52138 2.77856 5.23469 2.85543 5.10525 3.07962C4.97581 3.30381 5.05263 3.59049 5.27681 3.71993L7.12937 4.78949L2.94206 12.0426L0.9375 10.8852V1.21449L3.34288 2.60324C3.567 2.73268 3.85375 2.65587 3.98319 2.43168C4.11263 2.20749 4.03581 1.92081 3.81163 1.79137L0.83975 0.0754938C0.467375 -0.139381 0 0.130056 0 0.560431V11.1033C0 11.3027 0.107313 11.4886 0.279938 11.5881ZM6.33012 15.1039C6.0435 14.6074 6.21425 13.9702 6.71069 13.6836L8.05181 12.9093C8.54831 12.6226 9.18544 12.7934 9.47206 13.2899C9.75869 13.7863 9.58794 14.4235 9.0915 14.7101C7.82688 15.4402 9.03119 14.7449 7.75037 15.4844C7.25394 15.771 6.61681 15.6004 6.33012 15.1039ZM8.70325 18.0662C8.14825 17.9176 7.81931 17.348 7.96806 16.7929C8.03994 16.5246 8.212 16.3004 8.4525 16.1616C8.99894 15.8461 8.78925 15.9671 9.25037 15.7009C9.74675 15.4152 10.383 15.5862 10.6694 16.0822C10.956 16.5786 10.7852 17.2158 10.2888 17.5024L9.49212 17.9624C9.25169 18.1012 8.97144 18.1381 8.70325 18.0662ZM10.4123 19.7142C10.1257 19.2178 10.2964 18.5806 10.7929 18.294L11.5118 17.8789C11.7527 17.7399 12.0329 17.7033 12.3007 17.7751C12.8558 17.9238 13.1847 18.4933 13.0359 19.0484C12.9661 19.3089 12.7984 19.5372 12.5515 19.6797L11.8326 20.0949C11.3361 20.3815 10.699 20.2107 10.4123 19.7142ZM15.2031 21.4619L14.7952 21.6974C14.2987 21.9839 13.6616 21.8132 13.375 21.3168C13.0874 20.8187 13.2607 20.1823 13.7556 19.8966L14.1634 19.6611C14.6631 19.3726 15.2989 19.5484 15.5837 20.0416C15.8703 20.5381 15.6996 21.1752 15.2031 21.4619ZM24.2854 5.65137L26.3551 9.23606C26.4846 9.46025 26.7713 9.53712 26.9954 9.40762C27.2196 9.27818 27.2964 8.9915 27.167 8.76731L24.8704 4.78949L31.0625 1.21449V10.8852L29.0579 12.0426L28.2823 10.6991C28.1529 10.4749 27.8662 10.3981 27.642 10.5276C27.4178 10.657 27.341 10.9437 27.4704 11.1679L28.0191 12.1182L26.4534 13.0222L22.7197 6.55524L24.2854 5.65137ZM10.8056 7.51493C10.0774 8.65174 10.6725 10.1497 11.9568 10.4938C12.4669 10.6305 12.9998 10.5604 13.4571 10.2963L16.3784 8.61012C16.4165 8.58812 16.4638 8.58818 16.5018 8.61012L17.9649 9.45487C18.1889 9.58431 18.4757 9.50743 18.6052 9.28331C18.7346 9.05912 18.6578 8.77243 18.4336 8.64299L16.9706 7.79831C16.6434 7.60937 16.2369 7.60943 15.9098 7.79824L12.9884 9.48443C12.4919 9.77112 11.8548 9.60031 11.5682 9.10387C11.2816 8.60743 11.4523 7.97031 11.9487 7.68362C18.4265 3.94374 12.0613 7.61862 15.0289 5.90531C15.6712 5.53449 16.4692 5.53443 17.1116 5.90531L19.1791 7.09899C20.0461 7.59962 21.1114 7.62831 22.0009 7.18512L25.047 12.4612L20.3864 9.77049C20.1623 9.64099 19.8755 9.71787 19.7461 9.94206C19.6167 10.1662 19.6935 10.4529 19.9177 10.5824L25.4667 13.7861C25.9649 14.0737 26.1707 14.7481 25.9209 15.2651C25.6311 15.7522 25.0003 15.9179 24.5078 15.6336C24.4359 15.5857 25.0684 15.9572 21.1619 13.7017C20.9377 13.5722 20.651 13.6491 20.5216 13.8733C20.3921 14.0975 20.4689 14.3842 20.6931 14.5136C20.7263 14.5328 24.04 16.4459 24.085 16.4719C24.5434 16.7366 24.7307 17.3601 24.4916 17.8384C24.2188 18.3837 23.5737 18.5777 23.0453 18.2727L21.9028 17.6131C21.9025 17.613 21.9023 17.6128 21.902 17.6127L19.6534 16.3144C19.4291 16.1849 19.1425 16.2618 19.0131 16.486C18.8836 16.7102 18.9604 16.9969 19.1846 17.1263L21.4333 18.4246C21.9204 18.7058 22.0956 19.3351 21.8238 19.8272C21.5419 20.3376 20.8692 20.5 20.3642 20.2084C20.2878 20.1643 18.1722 18.9428 18.145 18.9272C17.9207 18.7977 17.6341 18.8746 17.5047 19.0987C17.3752 19.3229 17.4521 19.6096 17.6763 19.7391L18.4841 20.2055C18.9856 20.5005 19.1396 21.1284 18.8747 21.6081C18.5888 22.1256 17.9128 22.2766 17.4151 21.9893L16.4561 21.4357C16.7373 20.8633 16.7377 20.1655 16.3957 19.5729C15.9094 18.7306 14.8925 18.3814 14.0084 18.703C13.9652 17.5503 12.9209 16.6422 11.7331 16.8239C11.8419 15.8701 11.2498 14.9805 10.3325 14.7079C10.6256 14.1312 10.6309 13.4221 10.284 12.8212C9.73888 11.8771 8.52725 11.5525 7.58313 12.0976L6.953 12.4614L9.9975 7.18812C10.255 7.32543 10.5262 7.43493 10.8056 7.51493ZM5.54656 13.0222L3.98088 12.1183L7.71456 5.65137L9.28025 6.55531L5.54656 13.0222Z" fill="url(#paint0_linear_551_2090)"/>
<path d="M0.279938 11.5881L2.75706 13.0183C3.0055 13.1617 3.30744 13.1094 3.49475 12.9201L5.34513 13.9884C4.96369 15.2002 5.80163 16.4435 7.06169 16.5532C6.784 17.5961 7.39513 18.6862 8.46056 18.9717C8.74713 19.0486 9.04819 19.0619 9.34525 19.0047C9.23156 20.1677 10.1484 21.1711 11.3159 21.1711C11.6752 21.1711 12.0187 21.0719 12.3014 20.9065C12.3574 21.9456 13.219 22.7736 14.2787 22.7736C14.6139 22.7736 14.9534 22.6884 15.2639 22.5091C15.6909 22.2626 15.7334 22.2419 15.8419 22.1636L16.9461 22.8011C17.4141 23.0712 17.9813 23.1414 18.5023 22.9965C19.4028 22.7461 19.9689 21.9326 19.9375 21.0439C20.8789 21.5569 22.1093 21.2491 22.6443 20.2804C22.8271 19.9494 22.9037 19.5859 22.8853 19.2305C23.2866 19.3806 23.7196 19.3964 24.1337 19.2721C25.1992 18.9521 25.8203 17.7824 25.4035 16.6732C25.9462 16.5677 26.4424 16.2369 26.7398 15.7216C26.7445 15.7135 26.7489 15.7052 26.7531 15.6969C27.037 15.1292 27.026 14.4716 26.7781 13.9172L28.5051 12.9201C28.693 13.1099 28.9951 13.1614 29.2428 13.0184L31.7198 11.5882C31.8926 11.4886 31.9999 11.3027 31.9999 11.1033V0.560431C31.9999 0.130431 31.5329 -0.139568 31.1601 0.0755568L24.1177 4.14149C23.8671 4.28618 23.7644 4.57531 23.8339 4.82943L21.9669 5.90737C21.8159 5.99462 21.7163 6.13712 21.6789 6.29481C21.0506 6.65112 20.2738 6.64862 19.6477 6.28712L17.5801 5.09343C16.6487 4.55568 15.4914 4.55562 14.5599 5.09343L11.7262 6.72943C11.234 6.69693 10.771 6.55431 10.3208 6.29493C10.2834 6.13724 10.1838 5.99462 10.0327 5.90731L8.16575 4.82943C8.23512 4.57581 8.133 4.28637 7.882 4.14149L5.74556 2.90806C5.52138 2.77856 5.23469 2.85543 5.10525 3.07962C4.97581 3.30381 5.05263 3.59049 5.27681 3.71993L7.12937 4.78949L2.94206 12.0426L0.9375 10.8852V1.21449L3.34288 2.60324C3.567 2.73268 3.85375 2.65587 3.98319 2.43168C4.11263 2.20749 4.03581 1.92081 3.81163 1.79137L0.83975 0.0754938C0.467375 -0.139381 0 0.130056 0 0.560431V11.1033C0 11.3027 0.107313 11.4886 0.279938 11.5881ZM6.33012 15.1039C6.0435 14.6074 6.21425 13.9702 6.71069 13.6836L8.05181 12.9093C8.54831 12.6226 9.18544 12.7934 9.47206 13.2899C9.75869 13.7863 9.58794 14.4235 9.0915 14.7101C7.82688 15.4402 9.03119 14.7449 7.75037 15.4844C7.25394 15.771 6.61681 15.6004 6.33012 15.1039ZM8.70325 18.0662C8.14825 17.9176 7.81931 17.348 7.96806 16.7929C8.03994 16.5246 8.212 16.3004 8.4525 16.1616C8.99894 15.8461 8.78925 15.9671 9.25037 15.7009C9.74675 15.4152 10.383 15.5862 10.6694 16.0822C10.956 16.5786 10.7852 17.2158 10.2888 17.5024L9.49212 17.9624C9.25169 18.1012 8.97144 18.1381 8.70325 18.0662ZM10.4123 19.7142C10.1257 19.2178 10.2964 18.5806 10.7929 18.294L11.5118 17.8789C11.7527 17.7399 12.0329 17.7033 12.3007 17.7751C12.8558 17.9238 13.1847 18.4933 13.0359 19.0484C12.9661 19.3089 12.7984 19.5372 12.5515 19.6797L11.8326 20.0949C11.3361 20.3815 10.699 20.2107 10.4123 19.7142ZM15.2031 21.4619L14.7952 21.6974C14.2987 21.9839 13.6616 21.8132 13.375 21.3168C13.0874 20.8187 13.2607 20.1823 13.7556 19.8966L14.1634 19.6611C14.6631 19.3726 15.2989 19.5484 15.5837 20.0416C15.8703 20.5381 15.6996 21.1752 15.2031 21.4619ZM24.2854 5.65137L26.3551 9.23606C26.4846 9.46025 26.7713 9.53712 26.9954 9.40762C27.2196 9.27818 27.2964 8.9915 27.167 8.76731L24.8704 4.78949L31.0625 1.21449V10.8852L29.0579 12.0426L28.2823 10.6991C28.1529 10.4749 27.8662 10.3981 27.642 10.5276C27.4178 10.657 27.341 10.9437 27.4704 11.1679L28.0191 12.1182L26.4534 13.0222L22.7197 6.55524L24.2854 5.65137ZM10.8056 7.51493C10.0774 8.65174 10.6725 10.1497 11.9568 10.4938C12.4669 10.6305 12.9998 10.5604 13.4571 10.2963L16.3784 8.61012C16.4165 8.58812 16.4638 8.58818 16.5018 8.61012L17.9649 9.45487C18.1889 9.58431 18.4757 9.50743 18.6052 9.28331C18.7346 9.05912 18.6578 8.77243 18.4336 8.64299L16.9706 7.79831C16.6434 7.60937 16.2369 7.60943 15.9098 7.79824L12.9884 9.48443C12.4919 9.77112 11.8548 9.60031 11.5682 9.10387C11.2816 8.60743 11.4523 7.97031 11.9487 7.68362C18.4265 3.94374 12.0613 7.61862 15.0289 5.90531C15.6712 5.53449 16.4692 5.53443 17.1116 5.90531L19.1791 7.09899C20.0461 7.59962 21.1114 7.62831 22.0009 7.18512L25.047 12.4612L20.3864 9.77049C20.1623 9.64099 19.8755 9.71787 19.7461 9.94206C19.6167 10.1662 19.6935 10.4529 19.9177 10.5824L25.4667 13.7861C25.9649 14.0737 26.1707 14.7481 25.9209 15.2651C25.6311 15.7522 25.0003 15.9179 24.5078 15.6336C24.4359 15.5857 25.0684 15.9572 21.1619 13.7017C20.9377 13.5722 20.651 13.6491 20.5216 13.8733C20.3921 14.0975 20.4689 14.3842 20.6931 14.5136C20.7263 14.5328 24.04 16.4459 24.085 16.4719C24.5434 16.7366 24.7307 17.3601 24.4916 17.8384C24.2188 18.3837 23.5737 18.5777 23.0453 18.2727L21.9028 17.6131C21.9025 17.613 21.9023 17.6128 21.902 17.6127L19.6534 16.3144C19.4291 16.1849 19.1425 16.2618 19.0131 16.486C18.8836 16.7102 18.9604 16.9969 19.1846 17.1263L21.4333 18.4246C21.9204 18.7058 22.0956 19.3351 21.8238 19.8272C21.5419 20.3376 20.8692 20.5 20.3642 20.2084C20.2878 20.1643 18.1722 18.9428 18.145 18.9272C17.9207 18.7977 17.6341 18.8746 17.5047 19.0987C17.3752 19.3229 17.4521 19.6096 17.6763 19.7391L18.4841 20.2055C18.9856 20.5005 19.1396 21.1284 18.8747 21.6081C18.5888 22.1256 17.9128 22.2766 17.4151 21.9893L16.4561 21.4357C16.7373 20.8633 16.7377 20.1655 16.3957 19.5729C15.9094 18.7306 14.8925 18.3814 14.0084 18.703C13.9652 17.5503 12.9209 16.6422 11.7331 16.8239C11.8419 15.8701 11.2498 14.9805 10.3325 14.7079C10.6256 14.1312 10.6309 13.4221 10.284 12.8212C9.73888 11.8771 8.52725 11.5525 7.58313 12.0976L6.953 12.4614L9.9975 7.18812C10.255 7.32543 10.5262 7.43493 10.8056 7.51493ZM5.54656 13.0222L3.98088 12.1183L7.71456 5.65137L9.28025 6.55531L5.54656 13.0222Z" fill="url(#paint1_linear_551_2090)"/>
<defs>
<linearGradient id="paint0_linear_551_2090" x1="4.19998" y1="4.61406" x2="19.9008" y2="24.2339" gradientUnits="userSpaceOnUse">
<stop stop-color="#1E3C72"/>
<stop offset="1" stop-color="#2A5298"/>
</linearGradient>
<linearGradient id="paint1_linear_551_2090" x1="0.635233" y1="11.8309" x2="31.7363" y2="11.9216" gradientUnits="userSpaceOnUse">
<stop stop-color="#4E54C8"/>
<stop offset="1" stop-color="#8F94FB"/>
</linearGradient>
</defs>
</svg>
