<svg width="33" height="32" viewBox="0 0 33 32" fill="none" xmlns="http://www.w3.org/2000/svg">
<path d="M17.2295 25.326H15.4355C14.5295 25.326 13.7921 24.594 13.7921 23.6946V22.936C13.7921 22.8066 13.7048 22.6873 13.5701 22.6313C13.4241 22.5726 13.2801 22.5946 13.1894 22.684L12.6461 23.2233C12.0048 23.8586 10.9621 23.8586 10.3214 23.2233L9.05276 21.964C8.41209 21.3286 8.41209 20.2933 9.05276 19.6579L9.5961 19.1186C9.68676 19.0286 9.7101 18.8859 9.65543 18.7546C9.5941 18.6073 9.4741 18.5206 9.34276 18.5206H8.57809C7.67142 18.5206 6.93408 17.7886 6.93408 16.8893V15.1086C6.93408 14.2092 7.67142 13.4779 8.57809 13.4779H9.34276C9.47343 13.4779 9.5941 13.3912 9.6501 13.2566C9.7101 13.1126 9.68676 12.9692 9.5961 12.8792L9.05276 12.3399C8.41209 11.7039 8.41209 10.6686 9.05276 10.0332L10.3214 8.77455C10.9421 8.15788 12.0248 8.15788 12.6461 8.77455L13.1894 9.31389C13.2801 9.40389 13.4248 9.42722 13.5568 9.37256C13.7055 9.31189 13.7928 9.19255 13.7928 9.06255V8.30322C13.7928 7.40388 14.5301 6.67188 15.4361 6.67188H17.2301C18.1361 6.67188 18.8741 7.40321 18.8741 8.30322V9.06255C18.8741 9.19255 18.9615 9.31189 19.0961 9.36722C19.2421 9.42722 19.3861 9.40389 19.4768 9.31389L20.0202 8.77455C20.6402 8.15788 21.7242 8.15788 22.3442 8.77455L23.6128 10.0332C24.2535 10.6686 24.2535 11.7039 23.6128 12.3399L23.0695 12.8792C22.9788 12.9686 22.9555 13.1119 23.0108 13.2439C23.0722 13.3912 23.1922 13.4779 23.3228 13.4779H24.0875C24.9935 13.4779 25.7315 14.2092 25.7315 15.1086V16.8893C25.7315 17.7886 24.9942 18.5206 24.0875 18.5206H23.3228C23.1922 18.5206 23.0715 18.6073 23.0162 18.7406C22.9548 18.8879 22.9775 19.0273 23.0695 19.1186L23.6128 19.6579C24.2542 20.2933 24.2542 21.3286 23.6128 21.964L22.3442 23.2233C21.7035 23.8586 20.6608 23.8586 20.0202 23.2233L19.4768 22.684C19.3848 22.5926 19.2455 22.57 19.1101 22.626L19.0961 22.6313C18.9541 22.6973 18.8741 22.8113 18.8741 22.936V23.6946C18.8728 24.594 18.1355 25.326 17.2295 25.326ZM13.4101 21.29C13.6275 21.29 13.8475 21.332 14.0581 21.418C14.7008 21.6793 15.1088 22.274 15.1088 22.936V23.6946C15.1088 23.8733 15.2548 24.0186 15.4355 24.0186H17.2295C17.4095 24.0186 17.5561 23.8733 17.5561 23.6946V22.936C17.5561 22.274 17.9641 21.68 18.5948 21.4226L18.6321 21.4073C19.2521 21.166 19.9462 21.3013 20.4068 21.76L20.9502 22.2993C21.0775 22.426 21.2848 22.426 21.4122 22.2993L22.6808 21.04C22.8082 20.9133 22.8082 20.708 22.6808 20.582L22.1375 20.0426C21.6788 19.5873 21.5402 18.9059 21.7768 18.2946L21.8035 18.2306C22.0568 17.6179 22.6555 17.2133 23.3222 17.2133H24.0868C24.2668 17.2133 24.4135 17.0679 24.4135 16.8893V15.1086C24.4135 14.9299 24.2668 14.7846 24.0868 14.7846H23.3222C22.6548 14.7846 22.0562 14.3799 21.7975 13.7532C21.5342 13.1212 21.6695 12.4199 22.1375 11.9552L22.6808 11.4159C22.8082 11.2892 22.8082 11.0839 22.6808 10.9572L21.4122 9.69856C21.3288 9.61589 21.2315 9.60322 21.1815 9.60322C21.1315 9.60322 21.0342 9.61589 20.9508 9.69856L20.4075 10.2379C19.9395 10.7026 19.2335 10.8379 18.6068 10.5806C17.9641 10.3186 17.5568 9.72456 17.5568 9.06255V8.30322C17.5568 8.12455 17.4101 7.97922 17.2301 7.97922H15.4361C15.2561 7.97922 15.1095 8.12455 15.1095 8.30322V9.06255C15.1095 9.72522 14.7015 10.3192 14.0701 10.5766C13.4341 10.8366 12.7261 10.7032 12.2588 10.2386L11.7154 9.69922C11.6321 9.61656 11.5348 9.60389 11.4841 9.60389C11.4334 9.60389 11.3368 9.61656 11.2534 9.69922L9.98477 10.9579C9.85743 11.0846 9.85743 11.2899 9.98477 11.4166L10.5281 11.9559C10.9961 12.4206 11.1321 13.1219 10.8734 13.7426C10.6094 14.3806 10.0108 14.7853 9.34343 14.7853H8.57876C8.39876 14.7853 8.25209 14.9306 8.25209 15.1093V16.8899C8.25209 17.0686 8.39876 17.2139 8.57876 17.2139H9.34343C10.0108 17.2139 10.6094 17.6186 10.8688 18.2446C11.1321 18.8773 10.9961 19.5786 10.5281 20.0433L9.98477 20.5826C9.85743 20.7093 9.85743 20.9146 9.98477 21.0406L11.2534 22.3C11.3808 22.4266 11.5881 22.4266 11.7154 22.3L12.2588 21.7606C12.5681 21.4526 12.9834 21.29 13.4101 21.29Z" fill="url(#paint0_linear_551_2098)"/>
<path d="M17.2295 25.326H15.4355C14.5295 25.326 13.7921 24.594 13.7921 23.6946V22.936C13.7921 22.8066 13.7048 22.6873 13.5701 22.6313C13.4241 22.5726 13.2801 22.5946 13.1894 22.684L12.6461 23.2233C12.0048 23.8586 10.9621 23.8586 10.3214 23.2233L9.05276 21.964C8.41209 21.3286 8.41209 20.2933 9.05276 19.6579L9.5961 19.1186C9.68676 19.0286 9.7101 18.8859 9.65543 18.7546C9.5941 18.6073 9.4741 18.5206 9.34276 18.5206H8.57809C7.67142 18.5206 6.93408 17.7886 6.93408 16.8893V15.1086C6.93408 14.2092 7.67142 13.4779 8.57809 13.4779H9.34276C9.47343 13.4779 9.5941 13.3912 9.6501 13.2566C9.7101 13.1126 9.68676 12.9692 9.5961 12.8792L9.05276 12.3399C8.41209 11.7039 8.41209 10.6686 9.05276 10.0332L10.3214 8.77455C10.9421 8.15788 12.0248 8.15788 12.6461 8.77455L13.1894 9.31389C13.2801 9.40389 13.4248 9.42722 13.5568 9.37256C13.7055 9.31189 13.7928 9.19255 13.7928 9.06255V8.30322C13.7928 7.40388 14.5301 6.67188 15.4361 6.67188H17.2301C18.1361 6.67188 18.8741 7.40321 18.8741 8.30322V9.06255C18.8741 9.19255 18.9615 9.31189 19.0961 9.36722C19.2421 9.42722 19.3861 9.40389 19.4768 9.31389L20.0202 8.77455C20.6402 8.15788 21.7242 8.15788 22.3442 8.77455L23.6128 10.0332C24.2535 10.6686 24.2535 11.7039 23.6128 12.3399L23.0695 12.8792C22.9788 12.9686 22.9555 13.1119 23.0108 13.2439C23.0722 13.3912 23.1922 13.4779 23.3228 13.4779H24.0875C24.9935 13.4779 25.7315 14.2092 25.7315 15.1086V16.8893C25.7315 17.7886 24.9942 18.5206 24.0875 18.5206H23.3228C23.1922 18.5206 23.0715 18.6073 23.0162 18.7406C22.9548 18.8879 22.9775 19.0273 23.0695 19.1186L23.6128 19.6579C24.2542 20.2933 24.2542 21.3286 23.6128 21.964L22.3442 23.2233C21.7035 23.8586 20.6608 23.8586 20.0202 23.2233L19.4768 22.684C19.3848 22.5926 19.2455 22.57 19.1101 22.626L19.0961 22.6313C18.9541 22.6973 18.8741 22.8113 18.8741 22.936V23.6946C18.8728 24.594 18.1355 25.326 17.2295 25.326ZM13.4101 21.29C13.6275 21.29 13.8475 21.332 14.0581 21.418C14.7008 21.6793 15.1088 22.274 15.1088 22.936V23.6946C15.1088 23.8733 15.2548 24.0186 15.4355 24.0186H17.2295C17.4095 24.0186 17.5561 23.8733 17.5561 23.6946V22.936C17.5561 22.274 17.9641 21.68 18.5948 21.4226L18.6321 21.4073C19.2521 21.166 19.9462 21.3013 20.4068 21.76L20.9502 22.2993C21.0775 22.426 21.2848 22.426 21.4122 22.2993L22.6808 21.04C22.8082 20.9133 22.8082 20.708 22.6808 20.582L22.1375 20.0426C21.6788 19.5873 21.5402 18.9059 21.7768 18.2946L21.8035 18.2306C22.0568 17.6179 22.6555 17.2133 23.3222 17.2133H24.0868C24.2668 17.2133 24.4135 17.0679 24.4135 16.8893V15.1086C24.4135 14.9299 24.2668 14.7846 24.0868 14.7846H23.3222C22.6548 14.7846 22.0562 14.3799 21.7975 13.7532C21.5342 13.1212 21.6695 12.4199 22.1375 11.9552L22.6808 11.4159C22.8082 11.2892 22.8082 11.0839 22.6808 10.9572L21.4122 9.69856C21.3288 9.61589 21.2315 9.60322 21.1815 9.60322C21.1315 9.60322 21.0342 9.61589 20.9508 9.69856L20.4075 10.2379C19.9395 10.7026 19.2335 10.8379 18.6068 10.5806C17.9641 10.3186 17.5568 9.72456 17.5568 9.06255V8.30322C17.5568 8.12455 17.4101 7.97922 17.2301 7.97922H15.4361C15.2561 7.97922 15.1095 8.12455 15.1095 8.30322V9.06255C15.1095 9.72522 14.7015 10.3192 14.0701 10.5766C13.4341 10.8366 12.7261 10.7032 12.2588 10.2386L11.7154 9.69922C11.6321 9.61656 11.5348 9.60389 11.4841 9.60389C11.4334 9.60389 11.3368 9.61656 11.2534 9.69922L9.98477 10.9579C9.85743 11.0846 9.85743 11.2899 9.98477 11.4166L10.5281 11.9559C10.9961 12.4206 11.1321 13.1219 10.8734 13.7426C10.6094 14.3806 10.0108 14.7853 9.34343 14.7853H8.57876C8.39876 14.7853 8.25209 14.9306 8.25209 15.1093V16.8899C8.25209 17.0686 8.39876 17.2139 8.57876 17.2139H9.34343C10.0108 17.2139 10.6094 17.6186 10.8688 18.2446C11.1321 18.8773 10.9961 19.5786 10.5281 20.0433L9.98477 20.5826C9.85743 20.7093 9.85743 20.9146 9.98477 21.0406L11.2534 22.3C11.3808 22.4266 11.5881 22.4266 11.7154 22.3L12.2588 21.7606C12.5681 21.4526 12.9834 21.29 13.4101 21.29Z" fill="url(#paint1_linear_551_2098)"/>
<path d="M16.3342 19.6339C14.3155 19.6339 12.6729 18.0039 12.6729 15.9999C12.6729 13.9966 14.3155 12.3666 16.3342 12.3666C18.3535 12.3666 19.9956 13.9966 19.9956 15.9999C19.9956 18.0039 18.3535 19.6339 16.3342 19.6339ZM16.3342 13.6733C15.0415 13.6733 13.9902 14.7173 13.9902 15.9999C13.9902 17.2826 15.0422 18.3266 16.3342 18.3266C17.6262 18.3266 18.6789 17.2826 18.6789 15.9999C18.6789 14.7173 17.6269 13.6733 16.3342 13.6733Z" fill="url(#paint2_linear_551_2098)"/>
<path d="M16.3342 19.6339C14.3155 19.6339 12.6729 18.0039 12.6729 15.9999C12.6729 13.9966 14.3155 12.3666 16.3342 12.3666C18.3535 12.3666 19.9956 13.9966 19.9956 15.9999C19.9956 18.0039 18.3535 19.6339 16.3342 19.6339ZM16.3342 13.6733C15.0415 13.6733 13.9902 14.7173 13.9902 15.9999C13.9902 17.2826 15.0422 18.3266 16.3342 18.3266C17.6262 18.3266 18.6789 17.2826 18.6789 15.9999C18.6789 14.7173 17.6269 13.6733 16.3342 13.6733Z" fill="url(#paint3_linear_551_2098)"/>
<path d="M2.55259 14.3645C2.52126 14.3645 2.48926 14.3625 2.45726 14.3579C2.09726 14.3059 1.84792 13.9745 1.89992 13.6179C2.76393 7.69249 7.30395 2.84847 13.1987 1.56379C13.5513 1.48446 13.9047 1.70913 13.9827 2.0618C14.0607 2.4138 13.836 2.76313 13.4807 2.8398C8.11929 4.00847 3.98927 8.4145 3.20326 13.8045C3.15593 14.1299 2.8746 14.3645 2.55259 14.3645Z" fill="url(#paint4_linear_551_2098)"/>
<path d="M2.55259 14.3645C2.52126 14.3645 2.48926 14.3625 2.45726 14.3579C2.09726 14.3059 1.84792 13.9745 1.89992 13.6179C2.76393 7.69249 7.30395 2.84847 13.1987 1.56379C13.5513 1.48446 13.9047 1.70913 13.9827 2.0618C14.0607 2.4138 13.836 2.76313 13.4807 2.8398C8.11929 4.00847 3.98927 8.4145 3.20326 13.8045C3.15593 14.1299 2.8746 14.3645 2.55259 14.3645Z" fill="url(#paint5_linear_551_2098)"/>
<path d="M13.3384 29.8692C13.2918 29.8692 13.2444 29.8639 13.1964 29.8539C7.17772 28.5425 2.62236 23.5852 1.85969 17.5185C1.81436 17.1605 2.07036 16.8338 2.4317 16.7891C2.7957 16.7485 3.1217 16.9985 3.16703 17.3565C3.86104 22.8752 8.00506 27.3852 13.4798 28.5779C13.8351 28.6552 14.0598 29.0032 13.9818 29.3565C13.9131 29.6612 13.6411 29.8692 13.3384 29.8692Z" fill="url(#paint6_linear_551_2098)"/>
<path d="M13.3384 29.8692C13.2918 29.8692 13.2444 29.8639 13.1964 29.8539C7.17772 28.5425 2.62236 23.5852 1.85969 17.5185C1.81436 17.1605 2.07036 16.8338 2.4317 16.7891C2.7957 16.7485 3.1217 16.9985 3.16703 17.3565C3.86104 22.8752 8.00506 27.3852 13.4798 28.5779C13.8351 28.6552 14.0598 29.0032 13.9818 29.3565C13.9131 29.6612 13.6411 29.8692 13.3384 29.8692Z" fill="url(#paint7_linear_551_2098)"/>
<path d="M18.7678 29.9819C18.4538 29.9819 18.1765 29.7586 18.1198 29.4413C18.0572 29.0859 18.2965 28.7473 18.6552 28.6846C24.3359 27.6939 28.8019 23.0352 29.5159 17.3559C29.5612 16.9979 29.8866 16.7452 30.2512 16.7885C30.6119 16.8332 30.8679 17.1599 30.8232 17.5179C30.0386 23.7619 25.1285 28.8833 18.8832 29.9726C18.8438 29.9786 18.8058 29.9819 18.7678 29.9819Z" fill="url(#paint8_linear_551_2098)"/>
<path d="M18.7678 29.9819C18.4538 29.9819 18.1765 29.7586 18.1198 29.4413C18.0572 29.0859 18.2965 28.7473 18.6552 28.6846C24.3359 27.6939 28.8019 23.0352 29.5159 17.3559C29.5612 16.9979 29.8866 16.7452 30.2512 16.7885C30.6119 16.8332 30.8679 17.1599 30.8232 17.5179C30.0386 23.7619 25.1285 28.8833 18.8832 29.9726C18.8438 29.9786 18.8058 29.9819 18.7678 29.9819Z" fill="url(#paint9_linear_551_2098)"/>
<path d="M30.131 14.3646C29.809 14.3646 29.527 14.1299 29.4804 13.8046C28.6577 8.16785 24.3077 3.71783 18.655 2.73182C18.297 2.66916 18.0576 2.33049 18.1196 1.97515C18.183 1.61915 18.5256 1.38182 18.8823 1.44448C25.097 2.52782 29.8797 7.41985 30.783 13.6172C30.835 13.9746 30.5857 14.3059 30.2264 14.3572C30.1944 14.3626 30.163 14.3646 30.131 14.3646Z" fill="url(#paint10_linear_551_2098)"/>
<path d="M30.131 14.3646C29.809 14.3646 29.527 14.1299 29.4804 13.8046C28.6577 8.16785 24.3077 3.71783 18.655 2.73182C18.297 2.66916 18.0576 2.33049 18.1196 1.97515C18.183 1.61915 18.5256 1.38182 18.8823 1.44448C25.097 2.52782 29.8797 7.41985 30.783 13.6172C30.835 13.9746 30.5857 14.3059 30.2264 14.3572C30.1944 14.3626 30.163 14.3646 30.131 14.3646Z" fill="url(#paint11_linear_551_2098)"/>
<path d="M12.6752 5.34316C12.6006 5.34316 12.5252 5.33049 12.4512 5.30382C12.1092 5.18049 11.9325 4.80582 12.0559 4.46649L12.9086 2.13314L10.5005 1.2678C10.1585 1.14447 9.98187 0.769799 10.1052 0.43113C10.2292 0.0917951 10.6079 -0.0835391 10.9485 0.0391283L13.9759 1.12713C14.1399 1.18647 14.2739 1.3078 14.3486 1.46447C14.4226 1.62114 14.4306 1.80114 14.3712 1.96381L13.2952 4.91182C13.1979 5.17849 12.9452 5.34316 12.6752 5.34316Z" fill="url(#paint12_linear_551_2098)"/>
<path d="M12.6752 5.34316C12.6006 5.34316 12.5252 5.33049 12.4512 5.30382C12.1092 5.18049 11.9325 4.80582 12.0559 4.46649L12.9086 2.13314L10.5005 1.2678C10.1585 1.14447 9.98187 0.769799 10.1052 0.43113C10.2292 0.0917951 10.6079 -0.0835391 10.9485 0.0391283L13.9759 1.12713C14.1399 1.18647 14.2739 1.3078 14.3486 1.46447C14.4226 1.62114 14.4306 1.80114 14.3712 1.96381L13.2952 4.91182C13.1979 5.17849 12.9452 5.34316 12.6752 5.34316Z" fill="url(#paint13_linear_551_2098)"/>
<path d="M30.411 14.6727C30.3004 14.6727 30.1884 14.6453 30.0857 14.5867L27.341 13.0333C27.0244 12.8546 26.9144 12.4553 27.0957 12.142C27.2744 11.828 27.677 11.7186 27.9937 11.898L30.1664 13.128L31.4357 10.92C31.6144 10.6066 32.0171 10.4966 32.3337 10.676C32.6504 10.8553 32.7604 11.254 32.5791 11.5673L30.9837 14.3427C30.8624 14.554 30.6397 14.6727 30.411 14.6727Z" fill="url(#paint14_linear_551_2098)"/>
<path d="M30.411 14.6727C30.3004 14.6727 30.1884 14.6453 30.0857 14.5867L27.341 13.0333C27.0244 12.8546 26.9144 12.4553 27.0957 12.142C27.2744 11.828 27.677 11.7186 27.9937 11.898L30.1664 13.128L31.4357 10.92C31.6144 10.6066 32.0171 10.4966 32.3337 10.676C32.6504 10.8553 32.7604 11.254 32.5791 11.5673L30.9837 14.3427C30.8624 14.554 30.6397 14.6727 30.411 14.6727Z" fill="url(#paint15_linear_551_2098)"/>
<path d="M20.7571 32.0001C20.6077 32.0001 20.4577 31.9501 20.3344 31.8474L17.867 29.7947C17.733 29.6827 17.6497 29.5234 17.6344 29.3514C17.619 29.1787 17.6737 29.0067 17.7857 28.874L19.8164 26.4714C20.0504 26.1954 20.4651 26.1594 20.7444 26.39C21.0231 26.622 21.0597 27.0347 20.8264 27.3107L19.219 29.2127L21.1817 30.8461C21.4604 31.0781 21.4971 31.4907 21.2637 31.7667C21.1324 31.9201 20.9457 32.0001 20.7571 32.0001Z" fill="url(#paint16_linear_551_2098)"/>
<path d="M20.7571 32.0001C20.6077 32.0001 20.4577 31.9501 20.3344 31.8474L17.867 29.7947C17.733 29.6827 17.6497 29.5234 17.6344 29.3514C17.619 29.1787 17.6737 29.0067 17.7857 28.874L19.8164 26.4714C20.0504 26.1954 20.4651 26.1594 20.7444 26.39C21.0231 26.622 21.0597 27.0347 20.8264 27.3107L19.219 29.2127L21.1817 30.8461C21.4604 31.0781 21.4971 31.4907 21.2637 31.7667C21.1324 31.9201 20.9457 32.0001 20.7571 32.0001Z" fill="url(#paint17_linear_551_2098)"/>
<path d="M0.657683 20.4239C0.523016 20.4239 0.387682 20.3833 0.271014 20.2986C-0.0229873 20.0859 -0.0876544 19.6779 0.12568 19.3853L2.02036 16.8019C2.23436 16.5106 2.64569 16.4452 2.94036 16.6586L5.49504 18.5033C5.78904 18.7159 5.85371 19.1239 5.64038 19.4166C5.42638 19.7079 5.01437 19.7719 4.72037 19.5599L2.69769 18.0992L1.19035 20.1546C1.06169 20.3306 0.861017 20.4239 0.657683 20.4239Z" fill="url(#paint18_linear_551_2098)"/>
<path d="M0.657683 20.4239C0.523016 20.4239 0.387682 20.3833 0.271014 20.2986C-0.0229873 20.0859 -0.0876544 19.6779 0.12568 19.3853L2.02036 16.8019C2.23436 16.5106 2.64569 16.4452 2.94036 16.6586L5.49504 18.5033C5.78904 18.7159 5.85371 19.1239 5.64038 19.4166C5.42638 19.7079 5.01437 19.7719 4.72037 19.5599L2.69769 18.0992L1.19035 20.1546C1.06169 20.3306 0.861017 20.4239 0.657683 20.4239Z" fill="url(#paint19_linear_551_2098)"/>
<defs>
<linearGradient id="paint0_linear_551_2098" x1="9.40124" y1="10.4027" x2="22.3525" y2="22.1601" gradientUnits="userSpaceOnUse">
<stop stop-color="#1E3C72"/>
<stop offset="1" stop-color="#2A5298"/>
</linearGradient>
<linearGradient id="paint1_linear_551_2098" x1="7.30723" y1="16.2381" x2="25.5768" y2="16.2768" gradientUnits="userSpaceOnUse">
<stop stop-color="#4E54C8"/>
<stop offset="1" stop-color="#8F94FB"/>
</linearGradient>
<linearGradient id="paint2_linear_551_2098" x1="13.634" y1="13.8201" x2="18.6795" y2="18.4002" gradientUnits="userSpaceOnUse">
<stop stop-color="#1E3C72"/>
<stop offset="1" stop-color="#2A5298"/>
</linearGradient>
<linearGradient id="paint3_linear_551_2098" x1="12.8182" y1="16.0934" x2="19.9353" y2="16.1085" gradientUnits="userSpaceOnUse">
<stop stop-color="#4E54C8"/>
<stop offset="1" stop-color="#8F94FB"/>
</linearGradient>
<linearGradient id="paint4_linear_551_2098" x1="3.48185" y1="4.11119" x2="12.3066" y2="11.62" gradientUnits="userSpaceOnUse">
<stop stop-color="#1E3C72"/>
<stop offset="1" stop-color="#2A5298"/>
</linearGradient>
<linearGradient id="paint5_linear_551_2098" x1="2.13337" y1="8.1205" x2="13.8985" y2="8.14385" gradientUnits="userSpaceOnUse">
<stop stop-color="#4E54C8"/>
<stop offset="1" stop-color="#8F94FB"/>
</linearGradient>
<linearGradient id="paint6_linear_551_2098" x1="3.44823" y1="19.4017" x2="12.4306" y2="26.9115" gradientUnits="userSpaceOnUse">
<stop stop-color="#1E3C72"/>
<stop offset="1" stop-color="#2A5298"/>
</linearGradient>
<linearGradient id="paint7_linear_551_2098" x1="2.09554" y1="23.4947" x2="13.8973" y2="23.5177" gradientUnits="userSpaceOnUse">
<stop stop-color="#4E54C8"/>
<stop offset="1" stop-color="#8F94FB"/>
</linearGradient>
<linearGradient id="paint8_linear_551_2098" x1="19.7792" y1="19.4233" x2="28.8941" y2="27.3365" gradientUnits="userSpaceOnUse">
<stop stop-color="#1E3C72"/>
<stop offset="1" stop-color="#2A5298"/>
</linearGradient>
<linearGradient id="paint9_linear_551_2098" x1="18.3623" y1="23.552" x2="30.7236" y2="23.577" gradientUnits="userSpaceOnUse">
<stop stop-color="#4E54C8"/>
<stop offset="1" stop-color="#8F94FB"/>
</linearGradient>
<linearGradient id="paint10_linear_551_2098" x1="19.7741" y1="4.02047" x2="28.7245" y2="11.9279" gradientUnits="userSpaceOnUse">
<stop stop-color="#1E3C72"/>
<stop offset="1" stop-color="#2A5298"/>
</linearGradient>
<linearGradient id="paint11_linear_551_2098" x1="18.3616" y1="8.06527" x2="30.6855" y2="8.09066" gradientUnits="userSpaceOnUse">
<stop stop-color="#4E54C8"/>
<stop offset="1" stop-color="#8F94FB"/>
</linearGradient>
<linearGradient id="paint12_linear_551_2098" x1="10.6362" y1="1.06863" x2="14.1897" y2="3.67173" gradientUnits="userSpaceOnUse">
<stop stop-color="#1E3C72"/>
<stop offset="1" stop-color="#2A5298"/>
</linearGradient>
<linearGradient id="paint13_linear_551_2098" x1="10.1522" y1="2.74008" x2="14.3748" y2="2.74729" gradientUnits="userSpaceOnUse">
<stop stop-color="#4E54C8"/>
<stop offset="1" stop-color="#8F94FB"/>
</linearGradient>
<linearGradient id="paint14_linear_551_2098" x1="27.7509" y1="11.4064" x2="30.5301" y2="14.8762" gradientUnits="userSpaceOnUse">
<stop stop-color="#1E3C72"/>
<stop offset="1" stop-color="#2A5298"/>
</linearGradient>
<linearGradient id="paint15_linear_551_2098" x1="27.1206" y1="12.6836" x2="32.6199" y2="12.6996" gradientUnits="userSpaceOnUse">
<stop stop-color="#4E54C8"/>
<stop offset="1" stop-color="#8F94FB"/>
</linearGradient>
<linearGradient id="paint16_linear_551_2098" x1="18.1287" y1="27.3905" x2="21.652" y2="29.4759" gradientUnits="userSpaceOnUse">
<stop stop-color="#1E3C72"/>
<stop offset="1" stop-color="#2A5298"/>
</linearGradient>
<linearGradient id="paint17_linear_551_2098" x1="17.707" y1="29.193" x2="21.3861" y2="29.1981" gradientUnits="userSpaceOnUse">
<stop stop-color="#4E54C8"/>
<stop offset="1" stop-color="#8F94FB"/>
</linearGradient>
<linearGradient id="paint18_linear_551_2098" x1="0.756795" y1="17.3112" x2="3.36136" y2="20.7884" gradientUnits="userSpaceOnUse">
<stop stop-color="#1E3C72"/>
<stop offset="1" stop-color="#2A5298"/>
</linearGradient>
<linearGradient id="paint19_linear_551_2098" x1="0.114463" y1="18.5283" x2="5.71857" y2="18.5458" gradientUnits="userSpaceOnUse">
<stop stop-color="#4E54C8"/>
<stop offset="1" stop-color="#8F94FB"/>
</linearGradient>
</defs>
</svg>
