<svg width="181" height="104" viewBox="0 0 181 104" fill="none" xmlns="http://www.w3.org/2000/svg">
<g clip-path="url(#clip0_733_1977)">
<path d="M4.69096 94.77C5.40443 95.0217 6.17046 95.0848 6.91526 94.9531C7.66006 94.8214 8.35852 94.4995 8.94335 94.0183C10.4327 92.7635 10.8998 90.6971 11.2797 88.7832L12.4035 83.1219L10.0506 84.7479C8.35849 85.9172 6.62834 87.1241 5.45682 88.8178C4.2853 90.5114 3.77421 92.8236 4.71521 94.6563" fill="#E6E6E6"/>
<path d="M5.05498 102.018C4.75884 99.8527 4.45414 97.6593 4.66237 95.4707C4.8469 93.527 5.43778 91.6288 6.64071 90.0718C7.27922 89.2471 8.05617 88.5404 8.93664 87.9837C9.16617 87.8383 9.37748 88.2033 9.14893 88.3482C7.62545 89.3144 6.44707 90.7413 5.7837 92.4231C5.05106 94.2932 4.93342 96.332 5.05961 98.3186C5.13589 99.52 5.29798 100.714 5.46077 101.906C5.47362 101.96 5.4656 102.016 5.43832 102.065C5.41104 102.113 5.36654 102.149 5.31382 102.165C5.26004 102.18 5.20272 102.172 5.15428 102.145C5.10585 102.117 5.07022 102.072 5.05512 102.018L5.05498 102.018Z" fill="#F2F2F2"/>
<path d="M7.1875 98.5435C7.49345 99.0104 7.91404 99.3903 8.40876 99.6466C8.90348 99.903 9.45565 100.027 10.0121 100.007C11.4423 99.939 12.6341 98.9376 13.7069 97.9865L16.8808 95.1741L14.7803 95.0732C13.2697 95.0006 11.7202 94.9324 10.2814 95.4005C8.84264 95.8686 7.51576 96.9933 7.2527 98.4879" fill="#E6E6E6"/>
<path d="M4.21907 103.263C5.64481 100.731 7.2984 97.9171 10.2534 97.0177C11.0749 96.7685 11.9363 96.6793 12.7913 96.7547C13.0608 96.7781 12.9935 97.1949 12.7246 97.1717C11.2914 97.0523 9.86103 97.4321 8.67422 98.2471C7.53214 99.0273 6.64288 100.112 5.89033 101.262C5.42929 101.967 5.01635 102.701 4.60341 103.435C4.47146 103.669 4.08559 103.5 4.21907 103.263Z" fill="#F2F2F2"/>
<path d="M71.7759 32.3902C72.4201 32.3902 72.9424 31.8661 72.9424 31.2195C72.9424 30.5729 72.4201 30.0488 71.7759 30.0488C71.1316 30.0488 70.6094 30.5729 70.6094 31.2195C70.6094 31.8661 71.1316 32.3902 71.7759 32.3902Z" fill="#E5E5E5"/>
<path d="M99.6747 40.3454C95.1366 38.4554 90.777 36.1599 86.6483 33.4866C76.7339 27.086 69.9738 19.6829 69.8268 15.0648C69.7838 13.715 70.2833 12.6446 71.3116 11.8835C72.975 10.6521 75.9404 10.3566 79.8875 11.0284L79.79 11.6055C76.0027 10.9607 73.1906 11.2198 71.6578 12.3545C70.7932 12.9946 70.3732 13.9001 70.4097 15.0461C70.5509 19.4804 77.2035 26.6932 86.9638 32.9943C91.0625 35.6483 95.3906 37.9273 99.8958 39.8037L99.6747 40.3454Z" fill="#3F3D56"/>
<path d="M113.71 43.8135C111.981 43.8135 109.932 43.534 107.603 42.9736L107.739 42.4045C112.63 43.5809 116.331 43.4831 118.16 42.1286C119.025 41.4885 119.445 40.5829 119.408 39.437C119.267 35.0027 112.614 27.7899 102.854 21.489C97.9073 18.2954 92.6533 15.6357 87.6602 13.7976L87.861 13.248C92.8938 15.1007 98.1874 17.7801 103.17 20.9966C113.084 27.3971 119.844 34.8002 119.991 39.4184C120.034 40.7681 119.535 41.8385 118.506 42.5997C117.414 43.4081 115.793 43.8135 113.71 43.8135Z" fill="#3F3D56"/>
<path d="M76.1244 43.8073C74.0356 43.8074 72.3998 43.4052 71.3116 42.5997C70.2833 41.8385 69.7838 40.7681 69.8268 39.4184C69.9738 34.8002 76.7339 27.3971 86.6483 20.9966C97.729 13.8432 110.167 9.60376 116.222 10.9168L116.099 11.489C110.18 10.205 97.927 14.4113 86.9638 21.489C77.2035 27.7899 70.5509 35.0027 70.4097 39.437C70.3732 40.5829 70.7932 41.4885 71.6578 42.1286C76.0371 45.37 90.0323 41.2727 102.856 32.9943C111.664 27.3077 117.924 20.945 119.19 16.3895L119.752 16.5469C118.449 21.2347 112.095 27.7256 103.171 33.4867C96.8909 37.541 90.1381 40.727 84.1567 42.4579C81.0498 43.357 78.3338 43.8072 76.1244 43.8073Z" fill="#3F3D56"/>
<path d="M83.8708 13.9512C84.8372 13.9512 85.6206 13.165 85.6206 12.1951C85.6206 11.2253 84.8372 10.439 83.8708 10.439C82.9045 10.439 82.1211 11.2253 82.1211 12.1951C82.1211 13.165 82.9045 13.9512 83.8708 13.9512Z" fill="#6C63FF"/>
<path d="M83.8708 13.9512C84.8372 13.9512 85.6206 13.165 85.6206 12.1951C85.6206 11.2253 84.8372 10.439 83.8708 10.439C82.9045 10.439 82.1211 11.2253 82.1211 12.1951C82.1211 13.165 82.9045 13.9512 83.8708 13.9512Z" fill="url(#paint0_linear_733_1977)"/>
<path d="M103.41 43.3171C104.376 43.3171 105.16 42.5308 105.16 41.561C105.16 40.5911 104.376 39.8049 103.41 39.8049C102.444 39.8049 101.66 40.5911 101.66 41.561C101.66 42.5308 102.444 43.3171 103.41 43.3171Z" fill="#6C63FF"/>
<path d="M103.41 43.3171C104.376 43.3171 105.16 42.5308 105.16 41.561C105.16 40.5911 104.376 39.8049 103.41 39.8049C102.444 39.8049 101.66 40.5911 101.66 41.561C101.66 42.5308 102.444 43.3171 103.41 43.3171Z" fill="url(#paint1_linear_733_1977)"/>
<path d="M108.854 58.7317C109.498 58.7317 110.02 58.2076 110.02 57.561C110.02 56.9144 109.498 56.3903 108.854 56.3903C108.21 56.3903 107.688 56.9144 107.688 57.561C107.688 58.2076 108.21 58.7317 108.854 58.7317Z" fill="#E5E5E5"/>
<path d="M80.0806 2.34146C80.7248 2.34146 81.247 1.81731 81.247 1.17073C81.247 0.524154 80.7248 0 80.0806 0C79.4363 0 78.9141 0.524154 78.9141 1.17073C78.9141 1.81731 79.4363 2.34146 80.0806 2.34146Z" fill="#E5E5E5"/>
<path d="M118.769 14.8293C119.736 14.8293 120.519 14.043 120.519 13.0732C120.519 12.1033 119.736 11.3171 118.769 11.3171C117.803 11.3171 117.02 12.1033 117.02 13.0732C117.02 14.043 117.803 14.8293 118.769 14.8293Z" fill="#6C63FF"/>
<path d="M118.769 14.8293C119.736 14.8293 120.519 14.043 120.519 13.0732C120.519 12.1033 119.736 11.3171 118.769 11.3171C117.803 11.3171 117.02 12.1033 117.02 13.0732C117.02 14.043 117.803 14.8293 118.769 14.8293Z" fill="url(#paint2_linear_733_1977)"/>
<path d="M61.8238 104H0.194415C0.142853 104 0.0934024 103.979 0.0569426 103.943C0.0204828 103.906 0 103.857 0 103.805C0 103.753 0.0204828 103.703 0.0569426 103.667C0.0934024 103.63 0.142853 103.61 0.194415 103.61H61.8238C61.8754 103.61 61.9249 103.63 61.9613 103.667C61.9978 103.703 62.0183 103.753 62.0183 103.805C62.0183 103.857 61.9978 103.906 61.9613 103.943C61.9249 103.979 61.8754 104 61.8238 104Z" fill="#CBCBCB"/>
<path d="M36.684 101.387L39.0675 101.387L40.2013 92.1598L36.6836 92.16L36.684 101.387Z" fill="#C39AA0"/>
<path d="M36.0781 100.606L40.7721 100.606H40.7723C41.5656 100.606 42.3264 100.922 42.8874 101.485C43.4484 102.048 43.7636 102.812 43.7636 103.608V103.705L36.0783 103.706L36.0781 100.606Z" fill="#2F2E41"/>
<path d="M27.1605 101.582L29.5441 101.582L30.6779 92.3549L27.1602 92.3551L27.1605 101.582Z" fill="#C39AA0"/>
<path d="M26.5508 100.801L31.2447 100.801H31.2449C32.0383 100.801 32.7991 101.117 33.3601 101.68C33.921 102.243 34.2362 103.007 34.2363 103.803V103.901L26.5509 103.901L26.5508 100.801Z" fill="#2F2E41"/>
<path d="M41.6893 62.5941L40.4775 98.1463H36.5892L32.904 66.2868L31.34 98.5366H26.4796L25.1367 60.3375L40.0581 60.1324L41.6893 62.5941Z" fill="#2F2E41"/>
<path d="M29.734 33.7787L36.5875 33.561L38.1146 61.8761L27.2812 61.6583L29.734 33.7787Z" fill="#CBCBCB"/>
<path d="M35.1497 63.4147L42.3038 63.2096L40.2598 52.9523L40.4642 47.003L42.0994 37.3612L37.6025 34.6943L36.5805 33.4634C36.5805 33.4634 34.9453 35.1046 34.9453 42.695C34.9453 50.2854 35.1497 63.4147 35.1497 63.4147Z" fill="#2F2E41"/>
<path d="M29.0188 63.2096C29.0188 63.2096 35.1509 48.3906 32.4936 41.7476C32.4936 41.7476 31.5891 34.4891 30.0996 33.4634L27.7924 34.4891L22.8867 36.9509L24.7263 42.0795L24.1131 46.3876L23.7043 61.3633L29.0188 63.2096Z" fill="#2F2E41"/>
<path d="M24.7904 63.5153C24.5368 63.3957 24.3124 63.2218 24.133 63.0058C23.9536 62.7898 23.8236 62.5369 23.7521 62.265C23.6806 61.993 23.6694 61.7087 23.7192 61.432C23.769 61.1552 23.8787 60.8928 24.0406 60.6632L21.707 56.9432L23.6136 54.9686L26.8355 60.2684C27.2018 60.5669 27.4462 60.9897 27.5226 61.457C27.599 61.9242 27.5019 62.4033 27.2498 62.8035C26.9978 63.2037 26.6082 63.4972 26.1549 63.6284C25.7016 63.7596 25.2161 63.7193 24.7904 63.5153Z" fill="#C39AA0"/>
<path d="M43.4278 67.0691C43.2189 66.8817 43.0534 66.6506 42.9432 66.3921C42.8329 66.1335 42.7804 65.8539 42.7894 65.5728C42.7985 65.2917 42.8688 65.0161 42.9955 64.7652C43.1222 64.5144 43.3021 64.2945 43.5227 64.121L42.3477 59.8862L44.7376 58.5419L46.3132 64.5456C46.5791 64.9367 46.6928 65.4121 46.6327 65.8818C46.5726 66.3514 46.343 66.7826 45.9873 67.0936C45.6317 67.4047 45.1746 67.574 44.7029 67.5695C44.2312 67.565 43.7775 67.3869 43.4278 67.0691Z" fill="#C39AA0"/>
<path d="M25.1346 36.5406L22.8861 36.9509L17.9805 48.8494L22.4773 60.5427L25.5434 57.6707L22.6817 50.6957C22.6817 50.6957 22.8861 49.8751 22.6817 49.7725C22.4773 49.67 22.9821 49.0096 22.8861 48.9584C22.6817 48.8494 23.2949 47.8236 23.2949 47.8236L25.7478 42.695L25.1346 36.5406Z" fill="#2F2E41"/>
<path d="M39.8515 37.3612H42.1001L44.5528 50.0802L44.3485 52.1317L45.166 57.2603L46.2903 62.4915L42.7132 62.5942L40.8735 52.9522L39.2383 46.3877L39.8515 37.3612Z" fill="#2F2E41"/>
<path d="M33.275 31.8859C35.9122 31.8859 38.05 29.7402 38.05 27.0935C38.05 24.4467 35.9122 22.3011 33.275 22.3011C30.6379 22.3011 28.5 24.4467 28.5 27.0935C28.5 29.7402 30.6379 31.8859 33.275 31.8859Z" fill="#C39AA0"/>
<path d="M37.0681 23.2214L37.916 22.9119C37.916 22.9119 36.1432 21.1327 33.6767 21.2874L34.3704 20.5912C34.3704 20.5912 32.6747 19.9723 31.1332 21.5968C30.3228 22.4508 29.3852 23.4546 28.8007 24.5854H27.8927L28.2717 25.3461L26.9453 26.1067L28.3067 25.9701C28.1777 26.6268 28.2221 27.306 28.4355 27.9402L28.7438 28.7911C28.7438 28.7911 29.977 26.3157 29.977 26.0062V26.7798C29.977 26.7798 30.8249 26.0836 30.8249 25.6195L31.2873 26.1609L31.5186 25.31L34.3704 26.1609L33.908 25.4647L35.6808 25.6968L34.987 24.8459C34.987 24.8459 36.991 25.8515 37.0681 26.7025C37.1452 27.5534 38.1472 28.6364 38.1472 28.6364L38.6097 27.8628C38.6097 27.8628 39.3034 24.3817 37.0681 23.2214Z" fill="#2F2E41"/>
<path d="M146.019 92.3846L142.604 91.3891L141.113 100.666L143.427 101.34L146.019 92.3846Z" fill="#C39AA0"/>
<path d="M136.027 101.521L136.126 101.182C136.316 100.524 136.759 99.9691 137.357 99.6391C137.955 99.3092 138.659 99.2311 139.314 99.4222L144.114 100.821L143.298 103.641L136.027 101.521Z" fill="#2F2E41"/>
<path d="M167.333 92.0698L163.777 92.0696L164.923 101.395L167.332 101.396L167.333 92.0698Z" fill="#C39AA0"/>
<path d="M160.277 103.641L160.277 103.287C160.277 102.948 160.344 102.612 160.473 102.299C160.603 101.985 160.792 101.701 161.031 101.461C161.27 101.221 161.554 101.031 161.866 100.901C162.178 100.771 162.512 100.705 162.85 100.705L167.849 100.705L167.849 103.641L160.277 103.641Z" fill="#2F2E41"/>
<path d="M164.064 69.4711C164.54 69.2426 164.905 68.834 165.08 68.3352C165.255 67.8364 165.225 67.2882 164.998 66.8114L164.324 60.4467L160.969 59.0074L162.22 65.9421C161.773 66.1985 161.443 66.6186 161.299 67.1142C161.155 67.6098 161.208 68.1422 161.447 68.5994C161.686 69.0565 162.092 69.4029 162.58 69.5655C163.069 69.728 163.601 69.6942 164.064 69.4711Z" fill="#C39AA0"/>
<path d="M163.465 52.328L159.528 40.3338C159.446 40.1963 158.466 38.6485 156.332 39.3069C156.097 39.3734 155.878 39.4878 155.688 39.6429C155.498 39.7981 155.343 39.9907 155.23 40.2089C154.606 41.4107 155.188 43.2672 155.191 43.277L160.037 54.1772L160.042 54.1885L161.572 65.3826L164.876 64.7095L163.465 52.328Z" fill="#6C63FF"/>
<path d="M163.465 52.328L159.528 40.3338C159.446 40.1963 158.466 38.6485 156.332 39.3069C156.097 39.3734 155.878 39.4878 155.688 39.6429C155.498 39.7981 155.343 39.9907 155.23 40.2089C154.606 41.4107 155.188 43.2672 155.191 43.277L160.037 54.1772L160.042 54.1885L161.572 65.3826L164.876 64.7095L163.465 52.328Z" fill="url(#paint3_linear_733_1977)"/>
<path d="M137.301 96.7L143.226 78.4648L150.096 62.7046L149.997 55.0608L158.15 53.1529L159.099 56.3563C164.59 59.9924 162.781 66.9871 162.652 67.4559L170.925 98.0988L161.904 99.1047L155.849 70.0916L150.265 81.8806L146.316 99.5151L137.301 96.7Z" fill="#2F2E41"/>
<path d="M149.408 48.6443C147.787 45.5259 148.959 44.3385 150.731 42.5424C151.455 41.833 152.135 41.0791 152.766 40.285C155.531 36.7176 158.739 38.4696 158.771 38.4878L158.789 38.498L159.582 39.6914C162.195 42.3303 158.233 49.5815 157.932 50.1215L158.131 55.3066L149.706 56.1119L149.408 48.6443Z" fill="#6C63FF"/>
<path d="M149.408 48.6443C147.787 45.5259 148.959 44.3385 150.731 42.5424C151.455 41.833 152.135 41.0791 152.766 40.285C155.531 36.7176 158.739 38.4696 158.771 38.4878L158.789 38.498L159.582 39.6914C162.195 42.3303 158.233 49.5815 157.932 50.1215L158.131 55.3066L149.706 56.1119L149.408 48.6443Z" fill="url(#paint4_linear_733_1977)"/>
<path d="M154.611 36.9487C157.277 36.9487 159.438 34.7801 159.438 32.1049C159.438 29.4297 157.277 27.2611 154.611 27.2611C151.946 27.2611 149.785 29.4297 149.785 32.1049C149.785 34.7801 151.946 36.9487 154.611 36.9487Z" fill="#C39AA0"/>
<path d="M152.617 68.6618C152.818 69.106 153.175 69.4606 153.62 69.6584C154.064 69.8561 154.566 69.8833 155.029 69.7347C155.493 69.5862 155.885 69.2722 156.133 68.8524C156.382 68.4325 156.468 67.9359 156.375 67.4567L157.328 61.1281L154.445 58.8836L153.907 65.9103C153.627 65.9841 153.368 66.1185 153.146 66.3039C152.923 66.4894 152.745 66.7215 152.622 66.9838C152.499 67.2461 152.434 67.5323 152.434 67.8223C152.433 68.1122 152.495 68.3988 152.617 68.6618Z" fill="#C39AA0"/>
<path d="M153.228 65.3675L154.589 53.99L152.649 42.2166C152.645 42.134 152.548 40.1815 153.504 39.1233C153.683 38.9233 153.901 38.7625 154.144 38.6506C154.387 38.5388 154.651 38.4785 154.919 38.4733C157.343 38.3667 157.922 40.3936 157.928 40.414L158.717 53.0621L156.936 65.5743L153.228 65.3675Z" fill="#6C63FF"/>
<path d="M153.228 65.3675L154.589 53.99L152.649 42.2166C152.645 42.134 152.548 40.1815 153.504 39.1233C153.683 38.9233 153.901 38.7625 154.144 38.6506C154.387 38.5388 154.651 38.4785 154.919 38.4733C157.343 38.3667 157.922 40.3936 157.928 40.414L158.717 53.0621L156.936 65.5743L153.228 65.3675Z" fill="url(#paint5_linear_733_1977)"/>
<path d="M149.69 31.2663L149.953 30.842C150.606 30.7112 151.284 30.7883 151.891 31.0627C152.499 31.337 153.006 31.7948 153.342 32.3722C153.507 31.7593 154.493 31.7909 154.857 32.31C155.222 32.8291 155.141 33.5306 155.023 34.1545C154.904 34.7784 154.771 35.4564 155.058 36.0224C155.211 36.2868 155.431 36.5057 155.696 36.6568C155.961 36.808 156.261 36.886 156.565 36.883C157.176 36.8682 157.771 36.6785 158.278 36.3361C159.211 35.7402 159.956 34.8916 160.429 33.8884C160.902 32.8852 161.082 31.7682 160.949 30.6665C160.826 29.8085 160.509 28.9902 160.021 28.2749C160.3 28.2537 160.561 28.1264 160.751 27.9188C160.882 27.7474 160.963 27.543 160.986 27.3282C161.008 27.1133 160.971 26.8964 160.879 26.7013C160.717 26.3602 160.47 26.0666 160.163 25.8486C160.384 26.0256 160.643 26.1473 160.92 26.2037C161.261 26.253 161.659 26.0754 161.72 25.7461C161.779 25.4323 161.529 25.1467 161.297 24.9167C161.147 24.7674 160.997 24.6182 160.847 24.469C160.925 24.3806 160.997 24.2874 161.064 24.1901C161.314 23.8383 161.457 23.4214 161.477 22.9897C161.497 22.5579 161.392 22.1296 161.176 21.7561C161.605 22.4922 161.228 23.3682 160.472 23.965C160.447 23.9842 160.42 24.001 160.395 24.0197L160.108 23.7343C159.883 23.4784 159.608 23.272 159.3 23.1281C158.983 23.0059 158.577 23.0416 158.37 23.301C158.148 23.5787 158.21 24.0204 157.95 24.2647C157.723 24.4784 157.353 24.4426 157.047 24.3524C156.742 24.2623 156.425 24.1303 156.116 24.1979C155.909 24.2595 155.731 24.3965 155.618 24.5822C155.505 24.7679 155.465 24.9891 155.505 25.2028C155.54 25.3871 155.617 25.5605 155.731 25.7092C154.877 25.6364 154.018 25.6337 153.163 25.7012C152.157 25.7575 151.128 25.8275 150.2 26.2217C149.272 26.6159 148.447 27.4 148.276 28.3968C148.105 29.3936 148.686 31.1787 149.69 31.2663Z" fill="#2F2E41"/>
<path d="M180.804 104H119.175C119.123 104 119.074 103.979 119.037 103.943C119.001 103.906 118.98 103.857 118.98 103.805C118.98 103.753 119.001 103.703 119.037 103.667C119.074 103.63 119.123 103.61 119.175 103.61H180.804C180.856 103.61 180.905 103.63 180.942 103.667C180.978 103.703 180.999 103.753 180.999 103.805C180.999 103.857 180.978 103.906 180.942 103.943C180.905 103.979 180.856 104 180.804 104Z" fill="#CBCBCB"/>
</g>
<defs>
<linearGradient id="paint0_linear_733_1977" x1="82.1906" y1="12.2402" x2="85.5918" y2="12.2473" gradientUnits="userSpaceOnUse">
<stop stop-color="#4E54C8"/>
<stop offset="1" stop-color="#8F94FB"/>
</linearGradient>
<linearGradient id="paint1_linear_733_1977" x1="101.73" y1="41.606" x2="105.131" y2="41.6131" gradientUnits="userSpaceOnUse">
<stop stop-color="#4E54C8"/>
<stop offset="1" stop-color="#8F94FB"/>
</linearGradient>
<linearGradient id="paint2_linear_733_1977" x1="117.089" y1="13.1182" x2="120.49" y2="13.1253" gradientUnits="userSpaceOnUse">
<stop stop-color="#4E54C8"/>
<stop offset="1" stop-color="#8F94FB"/>
</linearGradient>
<linearGradient id="paint3_linear_733_1977" x1="155.139" y1="52.6" x2="164.794" y2="52.6076" gradientUnits="userSpaceOnUse">
<stop stop-color="#4E54C8"/>
<stop offset="1" stop-color="#8F94FB"/>
</linearGradient>
<linearGradient id="paint4_linear_733_1977" x1="148.872" y1="47.3085" x2="160.372" y2="47.3243" gradientUnits="userSpaceOnUse">
<stop stop-color="#4E54C8"/>
<stop offset="1" stop-color="#8F94FB"/>
</linearGradient>
<linearGradient id="paint5_linear_733_1977" x1="152.765" y1="52.3693" x2="158.667" y2="52.372" gradientUnits="userSpaceOnUse">
<stop stop-color="#4E54C8"/>
<stop offset="1" stop-color="#8F94FB"/>
</linearGradient>
<clipPath id="clip0_733_1977">
<rect width="181" height="104" fill="white"/>
</clipPath>
</defs>
</svg>
