<svg width="206" height="87" viewBox="0 0 206 87" fill="none" xmlns="http://www.w3.org/2000/svg">
<g clip-path="url(#clip0_733_2120)">
<path d="M62.8504 0.809383C65.8418 -0.458875 69.5918 -0.319415 72.0392 1.81913C68.5597 2.43138 65.4087 4.25594 63.1437 6.97C62.274 8.01987 61.4158 9.27823 60.0784 9.53862C59.2462 9.70065 58.3768 9.42178 57.6664 8.95871C56.956 8.4956 56.3777 7.85999 55.8078 7.23165L55.6094 7.15792C57.5222 4.52929 59.8589 2.07764 62.8504 0.809383Z" fill="#F0F0F0"/>
<path d="M72.0031 1.8761C69.3701 1.32995 66.632 1.62821 64.178 2.72851C63.6455 2.95599 63.1521 3.26607 62.7161 3.64734C62.3033 4.03249 62.0011 4.52127 61.8408 5.06289C61.6812 5.56488 61.5761 6.09687 61.2974 6.55131C61.1513 6.7818 60.9582 6.97877 60.7307 7.12931C60.5032 7.27985 60.2465 7.38055 59.9774 7.4248C59.3098 7.55254 58.6362 7.43253 57.9815 7.29225C57.2546 7.1365 56.502 6.96318 55.7631 7.14585C55.6736 7.16798 55.6445 7.02763 55.7339 7.00553C57.0194 6.68772 58.2628 7.3955 59.5491 7.33163C60.1493 7.30183 60.7442 7.09077 61.1037 6.58483C61.418 6.1424 61.5269 5.59391 61.6841 5.08422C61.8327 4.55356 62.1088 4.0674 62.4884 3.6682C62.9036 3.26594 63.3843 2.93734 63.9096 2.69649C65.0838 2.13537 66.3388 1.76255 67.6286 1.59168C69.0996 1.38851 70.5945 1.43873 72.0486 1.74018C72.1386 1.75887 72.0925 1.89467 72.0031 1.8761Z" fill="white"/>
<path d="M64.9452 2.3277C64.8167 1.89047 64.8477 1.42174 65.0325 1.00522C65.2173 0.588703 65.5441 0.251523 65.9543 0.0538951C66.0375 0.0141925 66.103 0.141676 66.0198 0.18143C65.6374 0.364754 65.3331 0.678867 65.1617 1.06708C64.9904 1.45529 64.9633 1.89203 65.0854 2.29846C65.1118 2.38682 64.9715 2.41555 64.9452 2.3277Z" fill="white"/>
<path d="M61.8895 4.79771C62.7026 5.25106 63.6565 5.38097 64.561 5.16153C64.6506 5.13972 64.6797 5.28006 64.5902 5.30185C63.6485 5.52844 62.6561 5.39124 61.811 4.91761C61.7305 4.87241 61.8094 4.75276 61.8895 4.79771Z" fill="white"/>
<path d="M69.0475 1.57163C69.062 1.75118 69.1209 1.92431 69.2187 2.07547C69.3166 2.22664 69.4505 2.3511 69.6083 2.43768C69.6893 2.48184 69.6103 2.60145 69.5298 2.55758C69.3559 2.4611 69.2082 2.32347 69.0997 2.15669C68.9912 1.98992 68.9252 1.79909 68.9074 1.60087C68.9041 1.58233 68.908 1.56324 68.9184 1.54749C68.9287 1.53175 68.9446 1.52052 68.9628 1.51609C68.9814 1.51231 69.0007 1.51603 69.0166 1.52643C69.0325 1.53683 69.0436 1.55307 69.0475 1.57163Z" fill="white"/>
<path d="M71.7472 12.8262C71.6958 12.8001 71.6445 12.774 71.592 12.7484C70.8992 12.4007 70.1794 12.1099 69.4396 11.8788C69.3827 11.8601 69.3247 11.8419 69.2674 11.8248C67.4791 11.2872 65.6067 11.0867 63.7453 11.2334C63.0047 11.2924 62.2696 11.4078 61.5464 11.5785C60.5477 11.8143 59.4836 12.1495 58.4946 12.0443C58.3913 12.0345 58.2887 12.0183 58.1873 11.9958L55.5357 7.40598C55.5349 7.39252 55.533 7.37961 55.5322 7.3661L55.418 7.18769C55.4547 7.17629 55.4929 7.16523 55.5296 7.15382C55.5509 7.14712 55.5727 7.14144 55.594 7.13473C55.6083 7.13058 55.6227 7.12648 55.6354 7.12192C55.6402 7.12052 55.645 7.11916 55.6487 7.11837C55.6615 7.1138 55.6737 7.11092 55.6854 7.10696C55.8993 7.04462 56.114 6.98368 56.3294 6.92414C56.3305 6.92354 56.3305 6.92354 56.3321 6.92395C57.9697 6.45454 59.6571 6.18124 61.359 6.1098C61.4099 6.10835 61.4617 6.10625 61.5137 6.1069C62.2752 6.08925 63.0368 6.13392 63.7909 6.24048C64.2037 6.30016 64.6132 6.38071 65.0178 6.48184C66.0628 6.74515 67.06 7.17137 67.9726 7.74487C69.7919 8.8884 71.2256 10.6016 71.7117 12.668C71.7241 12.7209 71.7359 12.7728 71.7472 12.8262Z" fill="#F0F0F0"/>
<path d="M71.6846 12.8496C69.9107 10.8266 67.5452 9.41449 64.924 8.81393C64.362 8.67462 63.7816 8.62485 63.2041 8.66647C62.6429 8.7252 62.1076 8.93331 61.6539 9.26918C61.2246 9.57383 60.8207 9.93522 60.3249 10.1301C60.0696 10.2261 59.7969 10.267 59.5248 10.25C59.2526 10.2331 58.9871 10.1588 58.7456 10.032C58.1357 9.7316 57.67 9.22977 57.2317 8.72318C56.7449 8.1607 56.2483 7.56874 55.5485 7.26927C55.4637 7.23298 55.5249 7.1034 55.6096 7.13963C56.8271 7.66065 57.3942 8.97517 58.4597 9.69944C58.9568 10.0374 59.5587 10.2274 60.15 10.0401C60.6671 9.87631 61.0839 9.50399 61.516 9.19176C61.9538 8.85762 62.4667 8.63588 63.0098 8.54591C63.5833 8.475 64.1647 8.5023 64.729 8.62664C66.004 8.88629 67.2302 9.345 68.3629 9.98598C69.6596 10.7103 70.823 11.6514 71.8027 12.7685C71.8633 12.8377 71.7448 12.9183 71.6846 12.8496Z" fill="white"/>
<path d="M65.7784 8.95754C65.9388 8.53097 66.2454 8.17536 66.6435 7.95421C67.0416 7.73305 67.5053 7.66075 67.9517 7.75022C68.042 7.76863 68.0176 7.90992 67.9272 7.89149C67.5117 7.80741 67.0798 7.8748 66.7095 8.0815C66.3392 8.2882 66.0549 8.62059 65.908 9.01869C65.8759 9.10516 65.7466 9.04352 65.7784 8.95754Z" fill="white"/>
<path d="M61.8482 9.08597C62.2247 9.938 62.9082 10.6167 63.7624 10.9866C63.8471 11.0232 63.7859 11.1528 63.7014 11.1162C62.8132 10.7296 62.1033 10.0219 61.7134 9.13441C61.6763 9.0498 61.8113 9.00181 61.8482 9.08597Z" fill="white"/>
<path d="M69.5084 10.8259C69.412 10.978 69.3548 11.1517 69.3421 11.3313C69.3293 11.511 69.3613 11.6911 69.4352 11.8553C69.4734 11.9394 69.3384 11.9873 69.3005 11.9037C69.2196 11.7219 69.1845 11.523 69.1982 11.3245C69.2119 11.1259 69.2739 10.9337 69.3789 10.7647C69.3874 10.748 69.4021 10.7351 69.4198 10.7287C69.4375 10.7224 69.4569 10.723 69.4742 10.7305C69.4913 10.7386 69.5045 10.7533 69.5109 10.7711C69.5173 10.789 69.5164 10.8087 69.5084 10.8259Z" fill="white"/>
<path d="M175.925 84.6167H173.578L172.461 75.5522L175.926 75.5525L175.925 84.6167Z" fill="#A0616A"/>
<path d="M176.526 86.8947L168.957 86.8945V86.7986C168.957 86.0164 169.268 85.2663 169.82 84.7132C170.373 84.1601 171.122 83.8493 171.903 83.8493L176.527 83.8495L176.526 86.8947Z" fill="#2F2E41"/>
<path d="M194.205 83.5995L191.884 83.9507L189.426 75.1553L192.469 74.637L194.205 83.5995Z" fill="#A0616A"/>
<path d="M195.137 85.7623L187.653 86.8947L187.639 86.8C187.522 86.0265 187.717 85.2384 188.18 84.6088C188.644 83.9793 189.339 83.5599 190.111 83.4429L194.683 82.7512L195.137 85.7623Z" fill="#2F2E41"/>
<path d="M127.243 86.8947H57.0977V16.675H127.243V86.8947Z" fill="white"/>
<path d="M127.243 86.8947H57.0977V16.675H127.243V86.8947ZM58.134 85.8572H126.207V17.7125H58.134V85.8572Z" fill="#F0F0F0"/>
<path d="M116.549 46.8616H71.5625V48.4513H116.549V46.8616Z" fill="#6C63FF"/>
<path d="M116.549 46.8616H71.5625V48.4513H116.549V46.8616Z" fill="url(#paint0_linear_733_2120)"/>
<path d="M116.549 50.9949H71.5625V52.5846H116.549V50.9949Z" fill="#6C63FF"/>
<path d="M116.549 50.9949H71.5625V52.5846H116.549V50.9949Z" fill="url(#paint1_linear_733_2120)"/>
<path d="M116.549 55.1282H71.5625V56.7179H116.549V55.1282Z" fill="#6C63FF"/>
<path d="M116.549 55.1282H71.5625V56.7179H116.549V55.1282Z" fill="url(#paint2_linear_733_2120)"/>
<path d="M68.8333 48.9268C69.4057 48.9268 69.8697 48.4624 69.8697 47.8894C69.8697 47.3164 69.4057 46.8519 68.8333 46.8519C68.2609 46.8519 67.7969 47.3164 67.7969 47.8894C67.7969 48.4624 68.2609 48.9268 68.8333 48.9268Z" fill="#6C63FF"/>
<path d="M68.8333 48.9268C69.4057 48.9268 69.8697 48.4624 69.8697 47.8894C69.8697 47.3164 69.4057 46.8519 68.8333 46.8519C68.2609 46.8519 67.7969 47.3164 67.7969 47.8894C67.7969 48.4624 68.2609 48.9268 68.8333 48.9268Z" fill="url(#paint3_linear_733_2120)"/>
<path d="M116.549 29.0513H71.5625V30.6411H116.549V29.0513Z" fill="#F0F0F0"/>
<path d="M116.549 33.1846H71.5625V34.7744H116.549V33.1846Z" fill="#F0F0F0"/>
<path d="M116.549 37.3179H71.5625V38.9076H116.549V37.3179Z" fill="#F0F0F0"/>
<path d="M68.8333 30.9436C69.4057 30.9436 69.8697 30.4791 69.8697 29.9061C69.8697 29.3332 69.4057 28.8687 68.8333 28.8687C68.2609 28.8687 67.7969 29.3332 67.7969 29.9061C67.7969 30.4791 68.2609 30.9436 68.8333 30.9436Z" fill="#F0F0F0"/>
<path d="M116.549 64.8447H71.5625V66.4345H116.549V64.8447Z" fill="#F0F0F0"/>
<path d="M116.549 68.978H71.5625V70.5678H116.549V68.978Z" fill="#F0F0F0"/>
<path d="M116.549 73.1113H71.5625V74.7011H116.549V73.1113Z" fill="#F0F0F0"/>
<path d="M68.8333 66.7371C69.4057 66.7371 69.8697 66.2726 69.8697 65.6996C69.8697 65.1266 69.4057 64.6621 68.8333 64.6621C68.2609 64.6621 67.7969 65.1266 67.7969 65.6996C67.7969 66.2726 68.2609 66.7371 68.8333 66.7371Z" fill="#E5E5E5"/>
<path d="M164.899 59.1558H124.084C123.473 59.1542 122.977 58.1395 122.977 56.8867V26.4909C122.977 25.2384 123.473 24.2239 124.084 24.2219H164.899C165.51 24.2234 166.006 25.2381 166.007 26.4909V56.8864C166.006 58.139 165.509 59.1542 164.899 59.1558Z" fill="white"/>
<path d="M164.899 59.1558H124.084C123.473 59.1542 122.977 58.1395 122.977 56.8867V26.4909C122.977 25.2384 123.473 24.2239 124.084 24.2219H164.899C165.51 24.2234 166.006 25.2381 166.007 26.4909V56.8864C166.006 58.139 165.509 59.1542 164.899 59.1558ZM124.084 25.1294C123.717 25.1294 123.42 25.7394 123.42 26.4909V56.8864C123.42 57.6379 123.717 58.2471 124.084 58.2479H164.899C165.266 58.2479 165.563 57.6382 165.563 56.8864V26.4909C165.563 25.7395 165.266 25.1302 164.899 25.1295L124.084 25.1294Z" fill="#E6E6E6"/>
<path d="M150.017 49.0058H139.031V49.8324H150.017V49.0058Z" fill="#6C63FF"/>
<path d="M150.017 49.0058H139.031V49.8324H150.017V49.0058Z" fill="url(#paint4_linear_733_2120)"/>
<path d="M151.389 51.1537H137.562V51.9803H151.389V51.1537Z" fill="#6C63FF"/>
<path d="M151.389 51.1537H137.562V51.9803H151.389V51.1537Z" fill="url(#paint5_linear_733_2120)"/>
<path d="M151.664 38.5783C151.664 39.8207 151.341 41.0417 150.729 42.1221C150.116 43.2026 149.234 44.1054 148.168 44.7426C147.103 45.3798 145.891 45.7294 144.65 45.7575C143.409 45.7855 142.182 45.4909 141.089 44.9024L141.088 44.901C139.971 44.2989 139.034 43.4113 138.372 42.3285C137.71 41.2458 137.346 40.0067 137.318 38.7375C137.29 37.4682 137.599 36.2142 138.212 35.1033C138.826 33.9923 139.723 33.0641 140.812 32.4131C141.901 31.7622 143.143 31.4118 144.411 31.3978C145.679 31.3837 146.928 31.7064 148.031 32.333C149.134 32.9596 150.051 33.8678 150.689 34.9648C151.328 36.0619 151.664 37.3088 151.664 38.5783Z" fill="#CACACA"/>
<path d="M144.528 38.2297C145.605 38.2297 146.478 37.3557 146.478 36.2776C146.478 35.1995 145.605 34.3255 144.528 34.3255C143.451 34.3255 142.578 35.1995 142.578 36.2776C142.578 37.3557 143.451 38.2297 144.528 38.2297Z" fill="white"/>
<path d="M147.858 42.2632C145.678 43.0293 143.3 43.02 141.126 42.2371L141.125 42.2362L142.578 39.3654H146.478L147.858 42.2632Z" fill="white"/>
<path d="M115.738 70.0245H146.363V56.5825H145.891V69.5527H115.738V70.0245Z" fill="#3F3D56"/>
<path d="M146.126 61.3545C147.558 61.3545 148.718 60.1931 148.718 58.7605C148.718 57.3278 147.558 56.1664 146.126 56.1664C144.695 56.1664 143.535 57.3278 143.535 58.7605C143.535 60.1931 144.695 61.3545 146.126 61.3545Z" fill="#3F3D56"/>
<path d="M59.1096 40.5404H18.2953C17.6839 40.5388 17.1883 39.5241 17.1875 38.2713V7.87553C17.1875 6.62295 17.6839 5.60853 18.2953 5.60645H59.1096C59.7211 5.608 60.2167 6.62269 60.2175 7.87553V38.271C60.2167 39.5236 59.7203 40.5388 59.1096 40.5404Z" fill="white"/>
<path d="M59.1096 40.5404H18.2953C17.6839 40.5388 17.1883 39.5241 17.1875 38.2713V7.87553C17.1875 6.62295 17.6839 5.60853 18.2953 5.60645H59.1096C59.7211 5.608 60.2167 6.62269 60.2175 7.87553V38.271C60.2167 39.5236 59.7203 40.5388 59.1096 40.5404ZM18.2953 6.51401C17.9283 6.51401 17.631 7.12402 17.6305 7.87551V38.271C17.6305 39.0225 17.9283 39.6317 18.2953 39.6325H59.1096C59.4766 39.6325 59.7739 39.0227 59.7744 38.271V7.87553C59.7744 7.12404 59.4767 6.51481 59.1096 6.51403L18.2953 6.51401Z" fill="#E6E6E6"/>
<path d="M47.764 15.1022C45.9478 13.1719 43.4476 12.0319 40.8008 11.9273V22.0728L47.764 15.1022Z" fill="#46426E"/>
<path d="M47.764 16.3655L40.8008 23.3361H50.5321C50.5355 20.7434 49.5447 18.2482 47.764 16.3655Z" fill="#E4E4E4"/>
<path d="M50.5427 24.0651C50.5431 24.6975 50.4847 25.3285 50.3681 25.95C50.3591 25.9992 50.3496 26.0479 50.3395 26.0966C50.1198 27.1808 49.7232 28.2212 49.1656 29.1763C49.136 29.2275 49.1053 29.2787 49.0747 29.329V29.3295C48.5252 30.2347 47.838 31.0485 47.0379 31.7417C46.9982 31.7763 46.9586 31.8105 46.9185 31.8441C45.199 33.2923 43.0462 34.125 40.8008 34.2106V24.0651H50.5427Z" fill="#F0F0F0"/>
<path d="M39.8164 34.2195C39.9511 34.2195 40.085 34.216 40.2184 34.2108V24.0649L32.8477 31.4434C34.729 33.2291 37.2238 34.2229 39.8164 34.2195Z" fill="#CACACA"/>
<path d="M39.8275 13.1815C38.4953 13.1815 37.1763 13.4442 35.9456 13.9545C34.7149 14.4648 33.5966 15.2128 32.6547 16.1557C31.7127 17.0987 30.9655 18.2181 30.4557 19.4501C29.946 20.6821 29.6836 22.0026 29.6836 23.3361H40.24V13.1906C40.1031 13.1851 39.9657 13.1815 39.8275 13.1815Z" fill="#6C63FF"/>
<path d="M39.8275 13.1815C38.4953 13.1815 37.1763 13.4442 35.9456 13.9545C34.7149 14.4648 33.5966 15.2128 32.6547 16.1557C31.7127 17.0987 30.9655 18.2181 30.4557 19.4501C29.946 20.6821 29.6836 22.0026 29.6836 23.3361H40.24V13.1906C40.1031 13.1851 39.9657 13.1815 39.8275 13.1815Z" fill="url(#paint6_linear_733_2120)"/>
<path d="M37.4095 24.0651L35.2768 26.2001L35.207 26.2699L35.2055 26.2714L33.3457 28.1327L33.275 28.2035L31.2657 30.2149L31.1949 30.2857V30.2862L30.0385 31.4433C29.0344 30.4954 28.2347 29.3519 27.6886 28.083C27.1426 26.8141 26.8617 25.4468 26.8633 24.0651H37.4095Z" fill="#6C63FF"/>
<path d="M37.4095 24.0651L35.2768 26.2001L35.207 26.2699L35.2055 26.2714L33.3457 28.1327L33.275 28.2035L31.2657 30.2149L31.1949 30.2857V30.2862L30.0385 31.4433C29.0344 30.4954 28.2347 29.3519 27.6886 28.083C27.1426 26.8141 26.8617 25.4468 26.8633 24.0651H37.4095Z" fill="url(#paint7_linear_733_2120)"/>
<path d="M71.6788 51.8227H41.0547V38.3807H41.5258V51.3509H71.6788V51.8227Z" fill="#3F3D56"/>
<path d="M41.2905 43.1527C42.7216 43.1527 43.8818 41.9913 43.8818 40.5587C43.8818 39.126 42.7216 37.9647 41.2905 37.9647C39.8594 37.9647 38.6992 39.126 38.6992 40.5587C38.6992 41.9913 39.8594 43.1527 41.2905 43.1527Z" fill="#3F3D56"/>
<path d="M186.967 39.6957L184.361 40.3794L184.534 44.6098L184.555 52.312C184.299 52.4898 184.102 52.7414 183.991 53.0337C183.88 53.3259 183.861 53.6449 183.935 53.9485C184.009 54.2521 184.174 54.526 184.407 54.7339C184.64 54.9419 184.931 55.0741 185.24 55.113C185.55 55.152 185.864 55.0959 186.142 54.9522C186.419 54.8084 186.646 54.5838 186.793 54.308C186.94 54.0322 187 53.7183 186.965 53.4077C186.93 53.0971 186.801 52.8045 186.596 52.5687L187.397 44.8382L186.967 39.6957Z" fill="#A0616A"/>
<path d="M187.698 42.2394L183.888 40.9551L183.879 40.8976C183.873 40.8615 183.314 37.2493 183.321 34.771C183.313 34.495 183.366 34.2206 183.475 33.967C183.584 33.7134 183.748 33.4867 183.953 33.3027C184.239 33.0413 184.596 32.8692 184.978 32.8076C185.361 32.746 185.753 32.7976 186.107 32.956C186.484 33.112 186.809 33.3735 187.043 33.7094C187.276 34.0453 187.407 34.4414 187.422 34.8502L187.698 42.2394Z" fill="#E4E4E4"/>
<path d="M180.609 41.8851L174.782 40.3751L172.088 49.4566L171.992 83.289L176.448 83.2611L178.311 55.8781L190.183 81.1805L194.97 80.6054L184.534 53.482C184.534 53.482 185.109 48.6899 183.29 46.2938L183.673 43.8019L180.609 41.8851Z" fill="#2F2E41"/>
<path d="M183.845 44.4729L183.404 44.4659L174.449 40.8827L178.733 31.3307L180.767 31.7007L180.397 30.218L184.892 29.1182L185.674 32.2494L186.827 33.2994C187.118 33.564 187.326 33.9075 187.425 34.288C187.524 34.6685 187.511 35.0697 187.387 35.4429L184.729 43.4255C184.751 43.5542 184.744 43.6861 184.71 43.812C184.676 43.9379 184.614 44.0548 184.53 44.1545C184.446 44.2543 184.341 44.3344 184.223 44.3894C184.105 44.4444 183.976 44.4729 183.845 44.4729Z" fill="#E4E4E4"/>
<path d="M177.112 37.3202L174.756 36.0112L171.961 39.1889L166.659 44.771C166.351 44.7218 166.035 44.7676 165.753 44.9021C165.471 45.0367 165.237 45.2537 165.081 45.5245C164.925 45.7953 164.855 46.1071 164.88 46.4187C164.905 46.7302 165.024 47.0269 165.221 47.2694C165.418 47.5119 165.684 47.6888 165.983 47.7767C166.283 47.8646 166.602 47.8593 166.899 47.7616C167.195 47.664 167.455 47.4785 167.644 47.2296C167.833 46.9808 167.942 46.6805 167.957 46.3682L173.873 41.3347L177.112 37.3202Z" fill="#A0616A"/>
<path d="M175.883 39.6634L174.016 36.0995L174.049 36.0518C174.07 36.0218 176.159 33.0241 177.875 31.2376C178.06 31.0328 178.288 30.8709 178.542 30.7631C178.796 30.6554 179.07 30.6044 179.346 30.6137C179.733 30.6229 180.109 30.745 180.428 30.9651C180.747 31.1852 180.995 31.4936 181.141 31.8527C181.307 32.2267 181.361 32.6406 181.298 33.0447C181.235 33.4488 181.056 33.8262 180.785 34.1316L175.883 39.6634Z" fill="#E4E4E4"/>
<path d="M181.567 28.5356C183.539 28.5356 185.138 26.9351 185.138 24.9609C185.138 22.9866 183.539 21.3862 181.567 21.3862C179.595 21.3862 177.996 22.9866 177.996 24.9609C177.996 26.9351 179.595 28.5356 181.567 28.5356Z" fill="#A0616A"/>
<path d="M177.27 22.8648C177.87 21.7886 178.1 21.3391 178.874 20.6847C179.559 20.1059 180.401 19.936 181.08 20.4843C181.884 20.1368 182.778 20.058 183.63 20.2596C184.482 20.4613 185.246 20.9326 185.809 21.6037C186.372 22.2747 186.704 23.1097 186.755 23.9845C186.806 24.8593 186.574 25.7273 186.093 26.4596C185.612 27.1918 184.908 27.7493 184.086 28.0492C183.263 28.349 182.366 28.3753 181.527 28.124C180.689 27.8728 179.953 27.3574 179.431 26.6545C178.908 25.9516 178.626 25.0987 178.626 24.2224C178.626 24.0685 178.636 23.9148 178.653 23.7619C178.063 23.6789 177.86 22.9478 177.27 22.8648Z" fill="#2F2E41"/>
<path d="M19.3362 54.1155C19.5043 54.0143 19.6482 53.8775 19.7578 53.7147C19.8673 53.5519 19.9399 53.367 19.9703 53.173C20.0008 52.9791 19.9884 52.7808 19.934 52.5922C19.8797 52.4036 19.7847 52.2292 19.6557 52.0813L21.399 34.5692L18.488 34.7625L17.6816 52.0066C17.4478 52.24 17.3076 52.5511 17.2876 52.8811C17.2676 53.211 17.3693 53.5368 17.5732 53.7967C17.7772 54.0567 18.0693 54.2327 18.3942 54.2915C18.7191 54.3502 19.0543 54.2876 19.3362 54.1155Z" fill="#FFB8B8"/>
<path d="M17.3086 33.9205L18.0718 39.7269L17.9658 43.2856L21.1674 43.5791L21.809 40.6193L22.1625 32.7835C22.1892 32.1925 21.9911 31.6133 21.6081 31.1627C21.2252 30.7121 20.6858 30.4236 20.0988 30.3553C19.4898 30.2844 18.8773 30.456 18.3936 30.8332C17.9099 31.2104 17.5937 31.7629 17.5133 32.3713L17.3086 33.9205Z" fill="#2F2E41"/>
<path d="M29.5707 85.0101H31.5127L32.4365 77.5114H29.5703L29.5707 85.0101Z" fill="#FFB7B7"/>
<path d="M29.0742 84.3755L32.8989 84.3753C33.5453 84.3753 34.1653 84.6324 34.6224 85.09C35.0795 85.5475 35.3363 86.1681 35.3364 86.8152V86.8945L29.0743 86.8947L29.0742 84.3755Z" fill="#2F2E41"/>
<path d="M13.5356 85.0101H15.4776L16.4014 77.5114H13.5352L13.5356 85.0101Z" fill="#FFB7B7"/>
<path d="M13.0391 84.3755L16.8637 84.3753C17.5101 84.3753 18.1302 84.6324 18.5873 85.09C19.0444 85.5475 19.3012 86.1681 19.3012 86.8152V86.8945L13.0392 86.8947L13.0391 84.3755Z" fill="#2F2E41"/>
<path d="M21.0856 27.5951C23.411 27.5951 25.2962 25.708 25.2962 23.3801C25.2962 21.0522 23.411 19.165 21.0856 19.165C18.7601 19.165 16.875 21.0522 16.875 23.3801C16.875 25.708 18.7601 27.5951 21.0856 27.5951Z" fill="#FFB8B8"/>
<path d="M21.6323 29.3064L18.7103 29.6407C17.9997 30.6495 17.539 31.8129 17.3661 33.035C17.1932 34.2572 17.3132 35.503 17.716 36.6695L19.9208 43.0546C19.9208 43.0546 16.8601 49.1969 16.8601 54.8997C16.8601 60.6026 11.0312 80.9589 11.0312 80.9589L19.236 81.8156L22.816 60.1304L27.7494 81.7282L33.3814 80.8104L30.2794 52.4934L28.2297 43.1729L28.1423 38.6277C28.1423 38.6277 29.0139 35.2171 26.8326 33.0334L24.1694 29.3185L21.6323 29.3064Z" fill="#2F2E41"/>
<path d="M42.2321 44.3214C42.2236 44.1065 42.1681 43.896 42.0695 43.7049C41.9709 43.5138 41.8317 43.3466 41.6616 43.2151C41.4915 43.0837 41.2946 42.9912 41.085 42.9442C40.8753 42.8971 40.6579 42.8966 40.448 42.9428L24.5584 32.043L23.2109 34.9446L39.3367 44.8021C39.4375 45.15 39.6623 45.4486 39.9685 45.6416C40.2746 45.8346 40.6408 45.9085 40.9977 45.8492C41.3546 45.7899 41.6774 45.6017 41.9049 45.3201C42.1324 45.0385 42.2488 44.6832 42.2321 44.3214Z" fill="#FFB8B8"/>
<path d="M21.78 35.6354L27.7548 37.9595L31.1145 39.9356L33.0823 37.0109L30.5795 34.8349L23.2451 30.368C22.6919 30.0311 22.0317 29.9166 21.3975 30.0476C20.7634 30.1787 20.2024 30.5454 19.8276 31.0741C19.4388 31.6225 19.2811 32.302 19.3883 32.9659C19.4956 33.6298 19.8593 34.2248 20.4009 34.6226L21.78 35.6354Z" fill="#2F2E41"/>
<path d="M25.9959 21.8748H19.8086V19.1749C21.1666 18.6348 22.4956 18.1755 23.2989 19.1749C24.0142 19.1749 24.7002 19.4594 25.206 19.9657C25.7118 20.472 25.9959 21.1587 25.9959 21.8748Z" fill="#2F2E41"/>
<path d="M20.91 18.9053C17.2111 18.9217 16.1758 23.5466 16.1758 26.165C16.1758 27.6253 16.8355 28.1476 17.8721 28.3243L18.2382 26.3697L19.0957 28.4084C19.3869 28.4098 19.6928 28.4042 20.0099 28.3983L20.3007 27.799L20.949 28.3876C23.5455 28.3914 27.3188 28.1593 25.6442 26.165C23.4007 23.4934 24.1341 18.891 20.91 18.9053Z" fill="#2F2E41"/>
<path d="M190.458 33.4399C190.295 32.8201 190.27 32.1718 190.387 31.5415C190.559 30.3241 190.947 29.1497 191.302 27.9726C191.657 26.7955 191.983 25.5952 192.024 24.3664C192.065 23.1375 191.799 21.8635 191.067 20.8762C190.335 19.8888 189.087 19.2418 187.873 19.4275C186.712 19.6048 185.699 20.6524 185.693 21.8147C185.486 22.1908 185.754 22.7045 186.136 22.9276C186.537 23.1616 187.02 23.1927 187.464 23.3258C187.9 23.467 188.303 23.697 188.646 24.0012C188.99 24.3054 189.266 24.6773 189.459 25.0937C189.841 25.9343 189.942 26.8751 189.749 27.7777C189.574 28.6524 189.171 29.4619 188.869 30.3012C188.567 31.1405 188.366 32.0621 188.608 32.9204C188.81 33.5544 189.233 34.0941 189.8 34.4403C190.368 34.7864 191.041 34.9156 191.696 34.804C191.397 34.6901 191.129 34.5072 190.914 34.2702C190.699 34.0332 190.543 33.7487 190.458 33.4399Z" fill="#2F2E41"/>
<path d="M205.793 87H0.20662C0.151821 87 0.0992661 86.9782 0.0605174 86.9394C0.0217687 86.9006 0 86.848 0 86.7931C0 86.7383 0.0217687 86.6857 0.0605174 86.6469C0.0992661 86.6081 0.151821 86.5863 0.20662 86.5863H205.793C205.848 86.5863 205.901 86.6081 205.939 86.6469C205.978 86.6857 206 86.7383 206 86.7931C206 86.848 205.978 86.9006 205.939 86.9394C205.901 86.9782 205.848 87 205.793 87Z" fill="#CACACA"/>
<path d="M158.882 76.9444C158.481 73.7172 156.483 70.5374 153.409 69.4872C154.621 72.8089 154.621 76.4529 153.408 79.7745C152.936 81.0538 152.277 82.4274 152.722 83.7168C152.998 84.519 153.674 85.1328 154.431 85.5166C155.187 85.9004 156.026 86.0833 156.854 86.2626L157.018 86.3976C158.333 83.4241 159.283 80.1717 158.882 76.9444Z" fill="#F0F0F0"/>
<path d="M153.379 69.5482C155.17 71.5565 156.282 74.0785 156.559 76.756C156.629 77.3314 156.608 77.9142 156.497 78.4829C156.37 79.0334 156.099 79.54 155.711 79.95C155.357 80.3396 154.949 80.6971 154.696 81.1661C154.57 81.4081 154.496 81.6741 154.48 81.9466C154.463 82.219 154.505 82.4919 154.601 82.7472C154.825 83.3897 155.266 83.9134 155.715 84.4105C156.214 84.9625 156.74 85.5278 156.952 86.2596C156.978 86.3482 157.114 86.3032 157.088 86.2146C156.72 84.9415 155.485 84.2184 154.896 83.0718C154.622 82.5367 154.506 81.9155 154.764 81.3507C154.989 80.8568 155.409 80.4879 155.771 80.0965C156.155 79.7021 156.438 79.2194 156.593 78.6906C156.733 78.1294 156.776 77.5484 156.721 76.9725C156.619 75.6741 156.313 74.3999 155.815 73.1966C155.254 71.8202 154.462 70.5499 153.474 69.4407C153.413 69.3721 153.318 69.4801 153.379 69.5482Z" fill="white"/>
<path d="M156.519 75.8886C156.962 75.7811 157.352 75.5196 157.619 75.1509C157.887 74.7822 158.015 74.3303 157.98 73.8758C157.973 73.7839 157.83 73.7909 157.837 73.883C157.87 74.3061 157.751 74.7271 157.501 75.0699C157.251 75.4127 156.887 75.6548 156.474 75.7525C156.385 75.7739 156.43 75.9098 156.519 75.8886Z" fill="white"/>
<path d="M155.916 79.7762C155.117 79.2985 154.527 78.5369 154.264 77.6433C154.238 77.5547 154.102 77.5997 154.128 77.6882C154.404 78.6177 155.019 79.409 155.852 79.9042C155.931 79.9513 155.995 79.823 155.916 79.7762Z" fill="white"/>
<path d="M155.122 71.956C154.959 72.0333 154.78 72.069 154.6 72.0598C154.421 72.0507 154.246 71.997 154.092 71.9036C154.013 71.8555 153.95 71.9838 154.028 72.0316C154.198 72.134 154.391 72.1931 154.59 72.2036C154.788 72.2141 154.986 72.1758 155.167 72.0921C155.184 72.0856 155.199 72.0726 155.207 72.0558C155.216 72.039 155.218 72.0196 155.212 72.0015C155.206 71.9835 155.193 71.9687 155.176 71.9601C155.159 71.9516 155.14 71.9501 155.122 71.956Z" fill="white"/>
<path d="M144.039 75.2515C144.087 75.2829 144.136 75.3144 144.184 75.347C144.832 75.7733 145.443 76.2515 146.014 76.7769C146.058 76.8168 146.103 76.8579 146.147 76.8991C147.507 78.1796 148.618 79.7018 149.423 81.3883C149.742 82.0596 150.011 82.7544 150.225 83.4665C150.521 84.45 150.764 85.5399 151.35 86.3444C151.41 86.429 151.476 86.5098 151.546 86.5863H156.842C156.854 86.5803 156.866 86.5754 156.879 86.5694L157.09 86.5791C157.082 86.5416 157.072 86.5029 157.063 86.4654C157.059 86.4436 157.053 86.4218 157.048 86.4001C157.044 86.3855 157.04 86.371 157.038 86.3577C157.037 86.3529 157.036 86.348 157.034 86.3444C157.032 86.3311 157.028 86.319 157.026 86.3069C156.973 86.0904 156.918 85.8738 156.862 85.6573C156.862 85.6561 156.862 85.6561 156.86 85.6549C156.447 84.0008 155.838 82.4017 155.048 80.8911C155.024 80.8463 154.999 80.8004 154.973 80.7556C154.607 80.0869 154.187 79.4493 153.717 78.8491C153.459 78.5213 153.184 78.2068 152.894 77.9068C152.143 77.133 151.276 76.4823 150.323 75.9785C148.423 74.9744 146.224 74.5898 144.194 75.2031C144.142 75.2188 144.091 75.2345 144.039 75.2515Z" fill="#F0F0F0"/>
<path d="M144.05 75.3187C146.688 75.8431 149.093 77.1861 150.925 79.1569C151.327 79.5741 151.66 80.0522 151.913 80.5735C152.144 81.0892 152.232 81.6573 152.168 82.2186C152.12 82.7431 152.009 83.2741 152.089 83.8013C152.134 84.0706 152.235 84.3273 152.386 84.5547C152.537 84.7821 152.734 84.975 152.965 85.1207C153.53 85.4988 154.197 85.6512 154.854 85.7774C155.584 85.9176 156.345 86.0516 156.954 86.5081C157.028 86.5634 157.11 86.4455 157.036 86.3903C155.976 85.5961 154.555 85.7627 153.395 85.202C152.854 84.9404 152.389 84.5139 152.255 83.9077C152.137 83.3777 152.251 82.83 152.304 82.2993C152.374 81.7527 152.309 81.1972 152.115 80.6815C151.889 80.149 151.574 79.6589 151.184 79.2321C150.322 78.2572 149.311 77.4242 148.19 76.7636C146.914 76.0026 145.518 75.4655 144.061 75.1758C143.971 75.1579 143.961 75.301 144.05 75.3187Z" fill="white"/>
<path d="M150.371 78.4876C150.66 78.1351 150.814 77.6913 150.806 77.2356C150.798 76.7799 150.628 76.3419 150.327 75.9999C150.266 75.9309 150.156 76.0227 150.217 76.0918C150.498 76.4098 150.656 76.8178 150.663 77.2422C150.669 77.6665 150.524 78.0793 150.253 78.406C150.195 78.477 150.313 78.5582 150.371 78.4876Z" fill="white"/>
<path d="M152.228 81.9559C151.303 82.0561 150.374 81.8035 149.626 81.2485C149.552 81.1935 149.471 81.3114 149.545 81.3664C150.324 81.9425 151.291 82.2033 152.254 82.0969C152.346 82.0867 152.319 81.9457 152.228 81.9559Z" fill="white"/>
<path d="M146.887 76.1911C146.804 76.3508 146.682 76.4872 146.534 76.5883C146.385 76.6893 146.213 76.7517 146.034 76.7698C145.942 76.7789 145.968 76.9198 146.059 76.9109C146.257 76.8899 146.447 76.8207 146.611 76.7095C146.776 76.5982 146.911 76.4483 147.005 76.2727C147.015 76.2569 147.019 76.2378 147.016 76.2192C147.012 76.2007 147.002 76.1842 146.987 76.173C146.971 76.1622 146.952 76.1581 146.933 76.1615C146.915 76.1649 146.898 76.1755 146.887 76.1911Z" fill="white"/>
<path d="M39.6904 76.9444C40.0913 73.7172 42.0893 70.5374 45.1638 69.4872C43.9513 72.8089 43.9516 76.4529 45.1646 79.7745C45.637 81.0538 46.2956 82.4274 45.8512 83.7168C45.5747 84.519 44.8983 85.1328 44.1422 85.5166C43.386 85.9004 42.5469 86.0833 41.7182 86.2626L41.5551 86.3976C40.2397 83.4241 39.2895 80.1717 39.6904 76.9444Z" fill="#F0F0F0"/>
<path d="M45.193 69.5482C43.4025 71.5565 42.2897 74.0785 42.0125 76.756C41.9427 77.3314 41.9638 77.9142 42.0752 78.4829C42.2016 79.0334 42.473 79.54 42.8611 79.95C43.2153 80.3396 43.6227 80.6971 43.8762 81.1661C44.0023 81.4081 44.076 81.6741 44.0923 81.9466C44.1086 82.219 44.0671 82.4919 43.9707 82.7472C43.7469 83.3897 43.3059 83.9134 42.8568 84.4105C42.3582 84.9625 41.8316 85.5278 41.6196 86.2596C41.5939 86.3482 41.458 86.3032 41.4837 86.2146C41.8524 84.9415 43.0869 84.2184 43.6757 83.0718C43.9504 82.5367 44.0657 81.9155 43.8082 81.3507C43.583 80.8568 43.1632 80.4879 42.8011 80.0965C42.4166 79.7021 42.1345 79.2194 41.9793 78.6906C41.8393 78.1294 41.7958 77.5484 41.8505 76.9725C41.9531 75.6741 42.259 74.3999 42.757 73.1966C43.3178 71.8202 44.1096 70.5499 45.0983 69.4407C45.1595 69.3721 45.2538 69.4801 45.193 69.5482Z" fill="white"/>
<path d="M42.0525 75.8886C41.6101 75.7811 41.2202 75.5196 40.9526 75.1509C40.685 74.7822 40.557 74.3303 40.5915 73.8758C40.5988 73.7839 40.7418 73.7909 40.7345 73.883C40.7016 74.3061 40.8209 74.7271 41.0708 75.0699C41.3207 75.4127 41.6848 75.6548 42.0974 75.7525C42.1871 75.7739 42.1416 75.9098 42.0525 75.8886Z" fill="white"/>
<path d="M42.6572 79.7762C43.4563 79.2985 44.0462 78.5369 44.3093 77.6433C44.3352 77.5547 44.4712 77.5997 44.4452 77.6882C44.1697 78.6177 43.5542 79.409 42.7216 79.9042C42.6422 79.9513 42.5782 79.823 42.6572 79.7762Z" fill="white"/>
<path d="M43.4528 71.956C43.6154 72.0333 43.7945 72.069 43.9742 72.0598C44.1539 72.0507 44.3286 71.997 44.4825 71.9036C44.5612 71.8555 44.6251 71.9838 44.5469 72.0316C44.3764 72.134 44.1834 72.1931 43.9849 72.2036C43.7864 72.2141 43.5883 72.1758 43.4079 72.0921C43.3903 72.0856 43.3757 72.0726 43.3673 72.0558C43.3588 72.039 43.3571 72.0196 43.3624 72.0015C43.3684 71.9835 43.3813 71.9687 43.3982 71.9601C43.4152 71.9516 43.4348 71.9501 43.4528 71.956Z" fill="white"/>
<path d="M54.5353 75.2515C54.487 75.2829 54.4387 75.3144 54.3903 75.347C53.7428 75.7733 53.1309 76.2515 52.5608 76.7769C52.5161 76.8168 52.4713 76.8579 52.4278 76.8991C51.0677 78.1796 49.9569 79.7018 49.1518 81.3883C48.8321 82.0596 48.5639 82.7544 48.3494 83.4665C48.0533 84.45 47.8105 85.5399 47.2244 86.3444C47.1642 86.429 47.0988 86.5098 47.0286 86.5863H41.7321C41.72 86.5803 41.7079 86.5754 41.6959 86.5694L41.4844 86.5791C41.4929 86.5416 41.5025 86.5029 41.511 86.4654C41.5158 86.4436 41.5218 86.4218 41.5267 86.4001C41.5303 86.3855 41.534 86.371 41.5364 86.3577C41.5376 86.3529 41.5388 86.348 41.54 86.3444C41.5424 86.3311 41.546 86.319 41.5485 86.3069C41.6016 86.0904 41.6564 85.8738 41.7128 85.6573C41.7128 85.6561 41.7128 85.6561 41.714 85.6549C42.1279 84.0008 42.7363 82.4017 43.5266 80.8911C43.5508 80.8463 43.5749 80.8004 43.6015 80.7556C43.9675 80.0869 44.3874 79.4493 44.8571 78.8491C45.1154 78.5213 45.39 78.2068 45.68 77.9068C46.4309 77.133 47.2987 76.4823 48.2515 75.9785C50.1512 74.9744 52.3505 74.5898 54.3807 75.2031C54.4326 75.2188 54.4834 75.2345 54.5353 75.2515Z" fill="#F0F0F0"/>
<path d="M54.5222 75.3187C51.8848 75.8431 49.4794 77.1861 47.6478 79.1569C47.246 79.5741 46.9124 80.0522 46.6593 80.5735C46.4291 81.0892 46.3411 81.6573 46.4044 82.2186C46.4529 82.7431 46.5632 83.2741 46.4835 83.8013C46.4387 84.0706 46.3375 84.3273 46.1866 84.5547C46.0357 84.7821 45.8385 84.975 45.608 85.1207C45.0429 85.4988 44.3758 85.6512 43.7183 85.7774C42.9882 85.9176 42.2277 86.0516 41.6183 86.5081C41.5445 86.5634 41.4631 86.4455 41.5368 86.3903C42.5969 85.5961 44.0175 85.7627 45.1773 85.202C45.7184 84.9404 46.1841 84.5139 46.3181 83.9077C46.4353 83.3777 46.3221 82.83 46.2684 82.2993C46.1986 81.7527 46.2636 81.1972 46.4577 80.6815C46.6835 80.149 46.9982 79.6589 47.3882 79.2321C48.2511 78.2572 49.2616 77.4242 50.383 76.7636C51.6585 76.0026 53.0548 75.4655 54.5112 75.1758C54.6014 75.1579 54.6118 75.301 54.5222 75.3187Z" fill="white"/>
<path d="M48.2005 78.4876C47.9119 78.1351 47.7579 77.6913 47.7659 77.2356C47.774 76.7799 47.9436 76.3419 48.2445 75.9999C48.3056 75.9309 48.4156 76.0227 48.3544 76.0918C48.0736 76.4098 47.9157 76.8178 47.909 77.2422C47.9024 77.6665 48.0475 78.0793 48.3182 78.406C48.3769 78.477 48.2589 78.5582 48.2005 78.4876Z" fill="white"/>
<path d="M46.3445 81.9559C47.2698 82.0561 48.1988 81.8036 48.9464 81.2485C49.0204 81.1935 49.1018 81.3114 49.0279 81.3664C48.2489 81.9425 47.2816 82.2033 46.3189 82.0969C46.2272 82.0867 46.2532 81.9457 46.3445 81.9559Z" fill="white"/>
<path d="M51.6842 76.1911C51.7675 76.3508 51.8891 76.4872 52.0381 76.5883C52.1871 76.6893 52.3588 76.7517 52.5378 76.7698C52.6296 76.7789 52.6035 76.9198 52.5122 76.9109C52.3145 76.8899 52.125 76.8207 51.9601 76.7095C51.7953 76.5982 51.6601 76.4483 51.5665 76.2727C51.5563 76.2569 51.5525 76.2378 51.5559 76.2192C51.5592 76.2007 51.5695 76.1842 51.5846 76.173C51.6003 76.1622 51.6195 76.1581 51.6381 76.1615C51.6568 76.1649 51.6734 76.1755 51.6842 76.1911Z" fill="white"/>
</g>
<defs>
<linearGradient id="paint0_linear_733_2120" x1="72.4555" y1="47.6768" x2="116.025" y2="50.2673" gradientUnits="userSpaceOnUse">
<stop stop-color="#4E54C8"/>
<stop offset="1" stop-color="#8F94FB"/>
</linearGradient>
<linearGradient id="paint1_linear_733_2120" x1="72.4555" y1="51.8101" x2="116.025" y2="54.4006" gradientUnits="userSpaceOnUse">
<stop stop-color="#4E54C8"/>
<stop offset="1" stop-color="#8F94FB"/>
</linearGradient>
<linearGradient id="paint2_linear_733_2120" x1="72.4555" y1="55.9434" x2="116.025" y2="58.5339" gradientUnits="userSpaceOnUse">
<stop stop-color="#4E54C8"/>
<stop offset="1" stop-color="#8F94FB"/>
</linearGradient>
<linearGradient id="paint3_linear_733_2120" x1="67.838" y1="47.916" x2="69.8526" y2="47.9202" gradientUnits="userSpaceOnUse">
<stop stop-color="#4E54C8"/>
<stop offset="1" stop-color="#8F94FB"/>
</linearGradient>
<linearGradient id="paint4_linear_733_2120" x1="139.249" y1="49.4297" x2="149.919" y2="49.7276" gradientUnits="userSpaceOnUse">
<stop stop-color="#4E54C8"/>
<stop offset="1" stop-color="#8F94FB"/>
</linearGradient>
<linearGradient id="paint5_linear_733_2120" x1="137.837" y1="51.5776" x2="151.258" y2="52.0493" gradientUnits="userSpaceOnUse">
<stop stop-color="#4E54C8"/>
<stop offset="1" stop-color="#8F94FB"/>
</linearGradient>
<linearGradient id="paint6_linear_733_2120" x1="29.8932" y1="18.389" x2="40.1531" y2="18.4114" gradientUnits="userSpaceOnUse">
<stop stop-color="#4E54C8"/>
<stop offset="1" stop-color="#8F94FB"/>
</linearGradient>
<linearGradient id="paint7_linear_733_2120" x1="27.0726" y1="27.8488" x2="37.3226" y2="27.8796" gradientUnits="userSpaceOnUse">
<stop stop-color="#4E54C8"/>
<stop offset="1" stop-color="#8F94FB"/>
</linearGradient>
<clipPath id="clip0_733_2120">
<rect width="206" height="87" fill="white"/>
</clipPath>
</defs>
</svg>
