<svg width="109" height="110" viewBox="0 0 109 110" fill="none" xmlns="http://www.w3.org/2000/svg">
<g clip-path="url(#clip0_733_2237)">
<path d="M27.4939 105.557C27.3736 105.563 27.2545 105.531 27.1528 105.467C27.0511 105.402 26.9716 105.308 26.9251 105.197C26.8787 105.085 26.8675 104.962 26.8931 104.845C26.9187 104.727 26.9799 104.62 27.0683 104.538C27.0831 104.479 27.0937 104.436 27.1085 104.377C26.9934 104.085 26.7936 103.833 26.5347 103.654C26.2759 103.476 25.9697 103.379 25.6555 103.376C25.3412 103.373 25.0333 103.464 24.7711 103.638C24.5089 103.811 24.3044 104.059 24.1838 104.35C23.4879 105.982 22.5872 107.671 23.0351 109.468C20.0764 103.187 21.0826 95.3731 25.4552 90.0012C26.6638 89.3343 27.6434 88.1494 27.8985 86.7735C27.3003 86.9765 26.5545 86.4891 27.0042 85.858C27.1992 85.6167 27.396 85.3774 27.5909 85.1362C25.3187 82.7121 22.6114 86.5219 25.1125 89.7936C24.2943 90.8212 23.5856 91.9316 22.998 93.1068C23.1337 91.8589 22.9717 90.5966 22.5254 89.4236C22.073 88.3305 21.2252 87.4099 20.4785 86.4649C19.5707 85.3134 17.7023 85.8446 17.5801 87.3059C18.4179 87.5817 18.5268 88.794 17.5684 88.9599C17.8194 91.6782 19.5923 94.1763 22.034 95.3685C21.1323 97.9029 20.7802 100.601 21.0012 103.282C20.5702 100.148 17.2121 99.3879 14.8649 98.1423C14.7155 98.0464 14.5415 97.996 14.364 97.9974C14.1865 97.9989 14.0133 98.052 13.8655 98.1504C13.7177 98.2487 13.6016 98.388 13.5315 98.5513C13.4613 98.7146 13.4401 98.8949 13.4705 99.07C13.7945 99.202 14.1045 99.3658 14.3962 99.5592C14.5328 99.6512 14.6377 99.7833 14.6964 99.9374C14.7552 100.092 14.7649 100.26 14.7243 100.42C14.6837 100.58 14.5947 100.723 14.4696 100.83C14.3445 100.937 14.1893 101.003 14.0254 101.019C15.2085 103.952 18.2673 105.922 21.409 105.911C21.7109 107.225 22.1483 108.504 22.7142 109.728H27.377C27.3937 109.676 27.4088 109.622 27.4238 109.57C26.9922 109.597 26.5589 109.571 26.1336 109.493C27.2755 108.139 28.1586 107.448 27.494 105.557L27.4939 105.557Z" fill="#F2F2F2"/>
<path d="M69.0647 105.557C69.185 105.563 69.3041 105.531 69.4058 105.467C69.5075 105.402 69.587 105.308 69.6335 105.197C69.6799 105.085 69.6911 104.962 69.6655 104.845C69.6399 104.727 69.5787 104.62 69.4903 104.538C69.4755 104.479 69.4649 104.436 69.4501 104.377C69.5652 104.085 69.765 103.833 70.0239 103.654C70.2828 103.476 70.5889 103.379 70.9032 103.376C71.2174 103.373 71.5253 103.464 71.7875 103.638C72.0497 103.811 72.2542 104.059 72.3748 104.35C73.0707 105.982 73.9714 107.671 73.5235 109.468C76.4822 103.187 75.476 95.3731 71.1035 90.0012C69.8948 89.3343 68.9152 88.1494 68.6602 86.7735C69.2583 86.9765 70.0041 86.4891 69.5544 85.858C69.3594 85.6167 69.1626 85.3774 68.9677 85.1362C71.2399 82.7121 73.9472 86.5219 71.4461 89.7936C72.2643 90.8212 72.973 91.9316 73.5607 93.1068C73.4249 91.8589 73.5869 90.5966 74.0332 89.4236C74.4856 88.3305 75.3335 87.4099 76.0801 86.4649C76.9879 85.3134 78.8563 85.8446 78.9785 87.3059C78.1407 87.5817 78.0318 88.794 78.9902 88.9599C78.7392 91.6782 76.9663 94.1763 74.5246 95.3685C75.4263 97.9029 75.7784 100.601 75.5574 103.282C75.9884 100.148 79.3465 99.3879 81.6937 98.1423C81.8431 98.0464 82.0171 97.996 82.1946 97.9974C82.3721 97.9989 82.5453 98.052 82.6931 98.1504C82.841 98.2487 82.957 98.388 83.0272 98.5513C83.0973 98.7146 83.1185 98.8949 83.0881 99.07C82.7641 99.202 82.4541 99.3658 82.1624 99.5592C82.0258 99.6512 81.9209 99.7833 81.8622 99.9374C81.8034 100.092 81.7937 100.26 81.8343 100.42C81.8749 100.58 81.9639 100.723 82.089 100.83C82.2141 100.937 82.3693 101.003 82.5332 101.019C81.3501 103.952 78.2913 105.922 75.1496 105.911C74.8477 107.225 74.4103 108.504 73.8444 109.728H69.1816C69.1649 109.676 69.1498 109.622 69.1348 109.57C69.5664 109.597 69.9997 109.571 70.425 109.493C69.2831 108.139 68.4002 107.448 69.0647 105.557Z" fill="#F2F2F2"/>
<path d="M70.7962 106.251L68.7882 106.708L66.0703 99.1673L69.0341 98.4919L70.7962 106.251Z" fill="#FFB6B6"/>
<path d="M71.3402 108.333L65.1651 109.74L65.1474 109.662C65.0023 109.024 65.1165 108.354 65.4646 107.799C65.8128 107.245 66.3665 106.852 67.0039 106.707L67.9372 105.592L70.2365 105.97L70.7755 105.847L71.3402 108.333Z" fill="#2F2E41"/>
<path d="M103.186 69.4934L104.29 71.2348L98.1098 76.3293L96.4805 73.7589L103.186 69.4934Z" fill="#FFB6B6"/>
<path d="M104.961 68.2783L108.356 73.6334L108.288 73.6764C107.736 74.0275 107.068 74.1446 106.43 74.0019C105.792 73.8593 105.237 73.4686 104.886 72.9159L103.525 72.4089L103.109 70.1125L102.812 69.645L104.961 68.2783Z" fill="#2F2E41"/>
<path d="M39.1796 50.875L38.6836 47.9954L46.2238 44.5846L47.8522 41.6967C47.7996 41.4432 47.8179 41.1802 47.9052 40.9365C47.9925 40.6929 48.1453 40.4782 48.3468 40.3161C48.5483 40.154 48.7905 40.0509 49.0468 40.0181C49.3031 39.9852 49.5635 40.024 49.7992 40.1301C50.0349 40.2362 50.2367 40.4055 50.3824 40.6193C50.528 40.8331 50.6119 41.0831 50.6246 41.3416C50.6374 41.6001 50.5786 41.8571 50.4546 42.0843C50.3307 42.3114 50.1465 42.4998 49.9224 42.6287L47.2438 46.7772L39.1796 50.875Z" fill="#A0616A"/>
<path d="M36.8867 48.521L40.2823 46.7835L41.1811 50.1644L38.8226 51.9157L36.8867 48.521Z" fill="#6C63FF"/>
<path d="M36.8867 48.521L40.2823 46.7835L41.1811 50.1644L38.8226 51.9157L36.8867 48.521Z" fill="url(#paint0_linear_733_2237)"/>
<path d="M29.2661 105.989L31.3191 105.989L32.2959 98.0559L29.2656 98.0561L29.2661 105.989Z" fill="#A0616A"/>
<path d="M32.0026 106.174V104.78L31.4629 104.813L29.2657 104.943L28.7572 104.974L28.3685 109.644L28.3477 109.894H29.8055L29.8523 109.646L30.0641 108.516L30.6107 109.646L30.7305 109.894H34.5954C34.8254 109.893 35.0456 109.801 35.208 109.637C35.3705 109.474 35.4622 109.254 35.4632 109.023C35.6263 108.26 32.4122 106.61 32.0026 106.174Z" fill="#2F2E41"/>
<path d="M4.89657 74.5068L4.41797 76.5069L11.8912 79.3079L12.5974 76.3561L4.89657 74.5068Z" fill="#A0616A"/>
<path d="M4.23895 77.1291L5.59246 77.4542L5.68624 76.9207L6.07195 74.7501L6.16013 74.2475L1.71771 72.78L1.47954 72.7014L1.13963 74.1214L1.37004 74.225L2.41766 74.6948L1.19321 74.9638L0.923951 75.0225L0.0228008 78.7874C-0.0294081 79.0118 0.00885067 79.2477 0.129277 79.444C0.249703 79.6403 0.442569 79.7811 0.665992 79.8358C1.36884 80.1726 3.71985 77.4264 4.23895 77.1291Z" fill="#2F2E41"/>
<path d="M32.4423 54.6482L29.7996 53.4108L24.5296 59.7994L21.3196 60.6127C21.0894 60.4951 20.8312 60.4436 20.5736 60.4638C20.316 60.484 20.0689 60.5752 19.8598 60.7272C19.6507 60.8792 19.4875 61.0861 19.3884 61.3252C19.2893 61.5642 19.2581 61.8261 19.2983 62.0818C19.3384 62.3375 19.4483 62.5771 19.6158 62.7741C19.7834 62.9712 20.002 63.118 20.2477 63.1984C20.4933 63.2788 20.7563 63.2896 21.0077 63.2297C21.259 63.1697 21.489 63.0414 21.6721 62.8587L26.3726 61.3624L32.4423 54.6482Z" fill="#A0616A"/>
<path d="M69.9065 30.9983C69.3463 30.9983 68.7987 30.8319 68.333 30.5202C67.8672 30.2084 67.5042 29.7653 67.2898 29.2469C67.0754 28.7285 67.0194 28.158 67.1286 27.6077C67.2379 27.0573 67.5077 26.5518 67.9038 26.155C68.2999 25.7582 68.8045 25.488 69.3539 25.3786C69.9033 25.2691 70.4728 25.3253 70.9903 25.54C71.5078 25.7547 71.9502 26.1184 72.2614 26.5849C72.5726 27.0515 72.7387 27.6 72.7387 28.1612C72.7379 28.9134 72.4392 29.6345 71.9082 30.1664C71.3773 30.6983 70.6574 30.9975 69.9065 30.9983ZM69.9065 25.6496C69.4106 25.6496 68.9258 25.7969 68.5135 26.0729C68.1012 26.3489 67.7799 26.7411 67.5901 27.2C67.4003 27.659 67.3507 28.164 67.4474 28.6511C67.5442 29.1383 67.7829 29.5858 68.1336 29.9371C68.4842 30.2883 68.931 30.5275 69.4173 30.6244C69.9037 30.7214 70.4078 30.6716 70.8659 30.4815C71.3241 30.2914 71.7156 29.9695 71.9911 29.5565C72.2666 29.1435 72.4137 28.6579 72.4137 28.1612C72.4129 27.4953 72.1485 26.8569 71.6785 26.3861C71.2085 25.9152 70.5712 25.6504 69.9065 25.6496Z" fill="#E6E6E6"/>
<path d="M69.7058 29.23C69.7001 29.23 69.6944 29.2299 69.6887 29.2296C69.6385 29.2271 69.5893 29.2138 69.5446 29.1906C69.5 29.1673 69.4608 29.1347 69.4299 29.0949L68.9838 28.5203C68.9556 28.484 68.9348 28.4426 68.9227 28.3982C68.9105 28.3539 68.9072 28.3077 68.9128 28.2621C68.9185 28.2165 68.9331 28.1724 68.9558 28.1325C68.9785 28.0925 69.0088 28.0574 69.045 28.0292L69.0611 28.0167C69.0973 27.9885 69.1387 27.9677 69.1829 27.9555C69.2272 27.9433 69.2734 27.9399 69.3189 27.9456C69.3644 27.9513 69.4084 27.966 69.4483 27.9887C69.4882 28.0114 69.5232 28.0418 69.5514 28.0781C69.5739 28.1071 69.6024 28.1308 69.635 28.1478C69.6675 28.1647 69.7033 28.1744 69.74 28.1762C69.7766 28.178 69.8132 28.1718 69.8472 28.1581C69.8813 28.1444 69.9119 28.1236 69.9372 28.0969L70.8431 27.1389C70.9068 27.0716 70.9946 27.0324 71.0872 27.0299C71.1798 27.0274 71.2696 27.0618 71.3369 27.1255L71.3518 27.1397C71.3851 27.1713 71.4119 27.2091 71.4306 27.2511C71.4492 27.293 71.4595 27.3383 71.4608 27.3842C71.462 27.4302 71.4542 27.4759 71.4378 27.5188C71.4213 27.5617 71.3967 27.601 71.3651 27.6343L69.9593 29.1207C69.9267 29.1553 69.8874 29.1828 69.8438 29.2016C69.8002 29.2204 69.7533 29.23 69.7058 29.23Z" fill="#E6E6E6"/>
<path d="M55.7697 65.3478C55.2096 65.3478 54.662 65.1814 54.1962 64.8696C53.7305 64.5579 53.3675 64.1148 53.1531 63.5964C52.9387 63.078 52.8826 62.5075 52.9919 61.9572C53.1012 61.4068 53.371 60.9013 53.767 60.5045C54.1631 60.1077 54.6678 59.8375 55.2172 59.728C55.7666 59.6186 56.3361 59.6748 56.8536 59.8895C57.3711 60.1042 57.8135 60.4679 58.1247 60.9344C58.4359 61.401 58.602 61.9495 58.602 62.5106C58.6011 63.2628 58.3025 63.984 57.7715 64.5159C57.2405 65.0478 56.5206 65.3469 55.7697 65.3478ZM55.7697 59.9991C55.2739 59.9991 54.7891 60.1464 54.3768 60.4224C53.9645 60.6984 53.6431 61.0906 53.4534 61.5495C53.2636 62.0085 53.214 62.5134 53.3107 63.0006C53.4074 63.4878 53.6462 63.9353 53.9969 64.2866C54.3475 64.6378 54.7943 64.877 55.2806 64.9739C55.767 65.0708 56.2711 65.0211 56.7292 64.831C57.1874 64.6409 57.5789 64.319 57.8544 63.906C58.1299 63.493 58.277 63.0074 58.277 62.5106C58.2762 61.8448 58.0118 61.2064 57.5418 60.7356C57.0717 60.2647 56.4345 59.9999 55.7697 59.9991Z" fill="#E6E6E6"/>
<path d="M55.5691 63.5795C55.5634 63.5795 55.5577 63.5793 55.552 63.5791C55.5017 63.5766 55.4526 63.5633 55.4079 63.5401C55.3632 63.5168 55.3241 63.4842 55.2932 63.4444L54.8471 62.8698C54.8189 62.8335 54.7981 62.792 54.786 62.7477C54.7738 62.7034 54.7704 62.6571 54.7761 62.6115C54.7818 62.5659 54.7964 62.5219 54.8191 62.482C54.8418 62.442 54.8721 62.4069 54.9083 62.3787L54.9243 62.3662C54.9606 62.338 55.002 62.3172 55.0462 62.305C55.0904 62.2928 55.1367 62.2894 55.1822 62.2951C55.2277 62.3008 55.2717 62.3154 55.3116 62.3382C55.3515 62.3609 55.3865 62.3913 55.4146 62.4276C55.4372 62.4566 55.4657 62.4803 55.4983 62.4973C55.5308 62.5142 55.5666 62.5239 55.6032 62.5257C55.6399 62.5275 55.6765 62.5213 55.7105 62.5076C55.7445 62.4939 55.7752 62.4731 55.8005 62.4464L56.7063 61.4884C56.7701 61.4211 56.8579 61.3819 56.9505 61.3794C57.0431 61.3769 57.1329 61.4112 57.2002 61.475L57.2151 61.4891C57.2484 61.5207 57.2751 61.5586 57.2938 61.6006C57.3125 61.6425 57.3228 61.6878 57.324 61.7337C57.3253 61.7796 57.3175 61.8254 57.301 61.8683C57.2846 61.9112 57.2599 61.9505 57.2284 61.9838L55.8226 63.4702C55.79 63.5048 55.7507 63.5323 55.7071 63.551C55.6635 63.5698 55.6166 63.5795 55.5691 63.5795Z" fill="#E6E6E6"/>
<path d="M24.7268 27.0913C24.1666 27.0913 23.619 26.9249 23.1533 26.6131C22.6875 26.3014 22.3245 25.8583 22.1101 25.3398C21.8958 24.8214 21.8397 24.251 21.949 23.7006C22.0582 23.1503 22.328 22.6447 22.7241 22.248C23.1202 21.8512 23.6248 21.581 24.1742 21.4715C24.7236 21.362 25.2931 21.4182 25.8106 21.633C26.3282 21.8477 26.7705 22.2113 27.0817 22.6779C27.3929 23.1445 27.559 23.693 27.559 24.2541C27.5582 25.0063 27.2595 25.7275 26.7286 26.2593C26.1976 26.7912 25.4777 27.0904 24.7268 27.0913ZM24.7268 21.7426C24.2309 21.7426 23.7462 21.8899 23.3338 22.1659C22.9215 22.4418 22.6002 22.8341 22.4104 23.293C22.2206 23.7519 22.171 24.2569 22.2677 24.7441C22.3645 25.2313 22.6033 25.6788 22.9539 26.0301C23.3046 26.3813 23.7513 26.6205 24.2376 26.7174C24.724 26.8143 25.2281 26.7646 25.6863 26.5745C26.1444 26.3844 26.536 26.0625 26.8115 25.6495C27.087 25.2364 27.234 24.7509 27.234 24.2541C27.2332 23.5882 26.9689 22.9499 26.4988 22.479C26.0288 22.0082 25.3915 21.7433 24.7268 21.7426Z" fill="#E6E6E6"/>
<path d="M24.5261 25.323C24.5204 25.323 24.5148 25.3228 24.5091 25.3225C24.4588 25.3201 24.4096 25.3068 24.3649 25.2835C24.3203 25.2603 24.2812 25.2276 24.2503 25.1878L23.8041 24.6132C23.7759 24.577 23.7552 24.5355 23.743 24.4912C23.7308 24.4469 23.7275 24.4006 23.7332 24.355C23.7388 24.3094 23.7534 24.2654 23.7761 24.2254C23.7988 24.1855 23.8291 24.1504 23.8653 24.1222L23.8814 24.1097C23.9176 24.0814 23.959 24.0606 24.0032 24.0484C24.0475 24.0362 24.0937 24.0329 24.1392 24.0386C24.1848 24.0443 24.2287 24.0589 24.2686 24.0816C24.3085 24.1044 24.3435 24.1348 24.3717 24.1711C24.3942 24.2 24.4227 24.2238 24.4553 24.2407C24.4878 24.2577 24.5236 24.2673 24.5603 24.2691C24.5969 24.2709 24.6335 24.2648 24.6675 24.2511C24.7016 24.2374 24.7323 24.2165 24.7575 24.1899L25.6634 23.2319C25.7271 23.1646 25.8149 23.1254 25.9075 23.1229C26.0001 23.1204 26.0899 23.1547 26.1572 23.2184L26.1721 23.2326C26.2054 23.2642 26.2322 23.3021 26.2509 23.344C26.2696 23.386 26.2798 23.4312 26.2811 23.4772C26.2823 23.5231 26.2745 23.5688 26.2581 23.6118C26.2417 23.6547 26.217 23.6939 26.1854 23.7273L24.7796 25.2137C24.747 25.2482 24.7077 25.2757 24.6641 25.2945C24.6205 25.3133 24.5736 25.323 24.5261 25.323Z" fill="#E6E6E6"/>
<path d="M47.4014 75.8965C40.8338 75.8965 33.2859 68.5958 26.6079 72.0646C6.3888 82.567 9.17208 64.9928 3.36328 58.4568L3.55398 58.0737C9.96332 63.8306 17.9656 68.5145 26.6957 71.6189C34.5851 74.4246 42.5335 75.7245 49.679 75.3815L49.6914 75.842C48.9367 75.8785 48.1734 75.8967 47.4014 75.8965Z" fill="#F2F2F2"/>
<path d="M38.3923 26.5359C39.1505 26.5359 39.7652 25.7103 39.7652 24.6918C39.7652 23.6734 39.1505 22.8478 38.3923 22.8478C37.6342 22.8478 37.0195 23.6734 37.0195 24.6918C37.0195 25.7103 37.6342 26.5359 38.3923 26.5359Z" fill="#E6E6E6"/>
<path d="M54.2505 55.3032C53.6229 55.7221 52.9805 54.7251 53.6202 54.3248C54.2478 53.9059 54.8901 54.9029 54.2505 55.3032Z" fill="#E6E6E6"/>
<path opacity="0.3" d="M56.8881 29.7602L67.0603 0L55.8906 29.4039C55.8353 29.4737 55.7975 29.5557 55.7802 29.6431C55.7629 29.7304 55.7667 29.8207 55.7912 29.9063C55.8156 29.9919 55.8601 30.0705 55.921 30.1354C55.9818 30.2004 56.0573 30.2498 56.141 30.2798C56.2248 30.3097 56.3144 30.3191 56.4026 30.3074C56.4907 30.2957 56.5748 30.263 56.6478 30.2122C56.7209 30.1614 56.7808 30.0939 56.8225 30.0153C56.8643 29.9367 56.8868 29.8492 56.8881 29.7602Z" fill="#F0F0F0"/>
<path d="M46.6221 66.0167C47.5827 66.0167 48.3614 65.2367 48.3614 64.2744C48.3614 63.3122 47.5827 62.5322 46.6221 62.5322C45.6615 62.5322 44.8828 63.3122 44.8828 64.2744C44.8828 65.2367 45.6615 66.0167 46.6221 66.0167Z" fill="#F2F2F2"/>
<path d="M29.7747 64.939C29.7747 64.939 25.4388 67.7673 26.5853 69.6467C26.6248 69.7115 21.406 76.6161 21.406 76.6161L11.5541 75.9896L11.207 79.2927L19.9779 81.8373C19.9779 81.8373 22.1236 83.4164 23.7812 81.6766C25.4388 79.9367 30.9601 74.6088 30.9601 74.6088L31.2264 85.3657L28.4547 100.272L32.5931 100.009L36.6211 85.0544L38.1079 68.115L29.7747 64.939Z" fill="#2F2E41"/>
<path d="M32.866 47.9647L31.0426 49.3489L28.9644 53.7921L30.9628 56.5109C30.9628 56.5109 32.6438 59.4293 29.9531 62.2555C27.2624 65.0817 25.1962 68.1003 27.3498 67.9925C29.5035 67.8847 38.2261 72.3289 38.2835 68.6879C38.3409 65.0469 38.457 62.2555 38.457 62.2555L40.7439 56.4452C40.7439 56.4452 42.1063 52.9791 41.1498 51.9415C40.1932 50.904 38.9124 49.5782 38.9124 49.5782L36.5833 47.245H34.4802L32.866 47.9647Z" fill="#6C63FF"/>
<path d="M32.866 47.9647L31.0426 49.3489L28.9644 53.7921L30.9628 56.5109C30.9628 56.5109 32.6438 59.4293 29.9531 62.2555C27.2624 65.0817 25.1962 68.1003 27.3498 67.9925C29.5035 67.8847 38.2261 72.3289 38.2835 68.6879C38.3409 65.0469 38.457 62.2555 38.457 62.2555L40.7439 56.4452C40.7439 56.4452 42.1063 52.9791 41.1498 51.9415C40.1932 50.904 38.9124 49.5782 38.9124 49.5782L36.5833 47.245H34.4802L32.866 47.9647Z" fill="url(#paint1_linear_733_2237)"/>
<path d="M36.2671 39.4276C40.3577 41.7593 36.9995 47.9115 32.8327 45.7208C28.7423 43.3891 32.1005 37.237 36.2671 39.4276Z" fill="#A0616A"/>
<path d="M38.4564 40.7204C38.1698 41.0939 37.571 40.9188 36.3983 41.1852C36.4009 40.7871 36.355 40.3901 36.2616 40.003C36.1743 40.4822 35.9831 40.9364 35.7014 41.3335C34.6832 41.4466 35.9314 44.5454 35.4101 46.8237C34.7383 42.0172 33.3254 43.2764 34.0392 44.2298C34.4962 44.8401 34.1915 46.6711 32.8207 45.7556C30.5588 46.8324 27.3372 41.4833 30.9077 38.9747C30.8439 37.6187 32.3501 37.4045 33.2776 37.8214C35.5285 36.1417 38.1002 38.294 38.4564 40.7204Z" fill="#2F2E41"/>
<path d="M27.9601 37.2132C27.0494 42.8222 22.168 36.1817 19.8729 41.7015C19.1512 43.7004 20.3894 45.1304 21.1725 46.7896C21.3513 48.1532 19.5804 48.845 19.395 50.1001C19.3433 52.9777 23.9778 52.8016 25.2734 50.9861C26.6047 49.0856 25.015 46.5358 25.8152 44.4958C26.9398 41.6636 31.5135 41.6426 31.9119 38.3476C31.1403 37.2468 29.0653 35.9861 27.9601 37.2132Z" fill="#2F2E41"/>
<path d="M31.6483 37.7613C31.6185 37.7739 31.5887 37.7864 31.562 37.8006H31.5605C31.5354 37.8132 31.5103 37.8257 31.4852 37.8399C31.4821 37.8414 31.4805 37.843 31.4774 37.8446C31.4444 37.8132 31.4115 37.7817 31.377 37.7503C31.3681 37.8015 31.3702 37.854 31.3833 37.9042L31.388 37.9231C31.4194 37.9561 31.4523 37.9875 31.4868 38.0205C31.5181 37.9969 31.5479 37.9718 31.5793 37.9482C31.5981 37.9325 31.6169 37.9168 31.6373 37.9011C31.6404 37.8603 31.6452 37.8132 31.6499 37.7613L31.6483 37.7613ZM32.5923 36.0146C31.8929 35.8544 31.6671 36.7702 31.5997 37.2115C31.3456 35.6094 30.2888 36.1136 30.6541 37.2068C30.7706 37.5305 30.9539 37.8259 31.192 38.0739C31.2249 38.1116 31.261 38.1493 31.2986 38.187C31.2563 38.4069 31.4695 38.3504 31.758 38.1477C31.9711 37.9959 32.1681 37.8228 32.3461 37.6309C32.9216 37.0262 33.37 36.2172 32.5923 36.0146ZM32.6142 36.9162C32.3985 37.1949 32.1564 37.4522 31.8913 37.6844C31.8082 37.7597 31.7236 37.832 31.6373 37.9011C31.6357 37.9152 31.6357 37.9278 31.6342 37.9388C31.6281 37.9541 31.6208 37.9688 31.6122 37.9828C31.5244 38.1414 31.4256 38.055 31.388 37.9231C31.3849 37.9184 31.3802 37.9137 31.377 37.909C31.2517 37.7793 31.1427 37.6348 31.0524 37.4786C30.4048 36.3539 31.4476 35.5889 31.3958 37.6891C31.3863 37.7083 31.3799 37.729 31.377 37.7503C31.3681 37.8015 31.3702 37.854 31.3833 37.9042L31.388 37.9231C31.4194 37.9561 31.4523 37.9875 31.4868 38.0205C31.5181 37.9969 31.5479 37.9718 31.5793 37.9482C31.5981 37.9325 31.6169 37.9168 31.6373 37.9011C31.6404 37.8603 31.6452 37.8132 31.6499 37.7613V37.7597C31.6906 37.3388 31.802 36.5817 32.0074 36.3759C32.459 36.0288 33.0439 36.4042 32.6142 36.9162ZM31.6483 37.7613C31.6185 37.7739 31.5887 37.7864 31.562 37.8006H31.5605C31.5354 37.8132 31.5103 37.8257 31.4852 37.8399C31.4821 37.8414 31.4805 37.843 31.4774 37.8446C31.4444 37.8132 31.4115 37.7817 31.377 37.7503C31.3681 37.8015 31.3702 37.854 31.3833 37.9042L31.388 37.9231C31.4194 37.9561 31.4523 37.9875 31.4868 38.0205C31.5181 37.9969 31.5479 37.9718 31.5793 37.9482C31.5981 37.9325 31.6169 37.9168 31.6373 37.9011C31.6404 37.8603 31.6452 37.8132 31.6499 37.7613L31.6483 37.7613Z" fill="#2F2E41"/>
<path d="M69.4571 68.6856L67.9463 72.6322L60.8594 86.6358L67.0866 102.926L70.3005 102.076L67.6516 86.6358L75.2513 77.3858L84.2767 83.5177C84.2767 83.5177 88.2794 86.648 89.8022 83.6805C91.3249 80.7131 101.178 74.4013 101.178 74.4013L98.7404 71.7966L87.3939 77.1157L79.5625 66.0737L69.4571 68.6856Z" fill="#2F2E41"/>
<path d="M77.0815 50.0694L74.5946 47.3929L70.3286 46.805L65.1016 50.4706L65.1542 54.5279L67.7382 64.0887C67.7382 64.0887 66.7539 70.9576 69.5031 70.8887C72.2522 70.8198 73.7506 69.4469 74.8703 69.7264C75.99 70.0058 80.7496 71.1953 81.0513 69.9494C81.3529 68.7035 82.9563 69.5956 82.8859 68.4169C82.8155 67.2383 78.5453 58.7427 78.5453 58.7427L79.6071 50.2461L77.0815 50.0694Z" fill="#6C63FF"/>
<path d="M77.0815 50.0694L74.5946 47.3929L70.3286 46.805L65.1016 50.4706L65.1542 54.5279L67.7382 64.0887C67.7382 64.0887 66.7539 70.9576 69.5031 70.8887C72.2522 70.8198 73.7506 69.4469 74.8703 69.7264C75.99 70.0058 80.7496 71.1953 81.0513 69.9494C81.3529 68.7035 82.9563 69.5956 82.8859 68.4169C82.8155 67.2383 78.5453 58.7427 78.5453 58.7427L79.6071 50.2461L77.0815 50.0694Z" fill="#4E54C8"/>
<path d="M92.8278 37.749C92.85 37.971 92.8234 38.1952 92.7498 38.4057C92.6763 38.6163 92.5575 38.8081 92.4019 38.9677C92.2463 39.1273 92.0577 39.2508 91.8493 39.3294C91.6409 39.4081 91.4178 39.44 91.1958 39.423L85.4768 50.3182L83.9414 47.9571L89.7869 37.6744C89.8402 37.3026 90.0278 36.9634 90.3141 36.7209C90.6005 36.4784 90.9656 36.3495 91.3405 36.3587C91.7153 36.3679 92.0737 36.5146 92.3478 36.7708C92.622 37.027 92.7927 37.3751 92.8278 37.749Z" fill="#FFB6B6"/>
<path d="M74.8231 52.0953C74.8231 52.0953 74.5963 54.0333 76.7743 54.5131C78.9524 54.9928 84.9866 51.539 85.9758 51.0114C86.2856 50.8462 86.7059 50.0365 87.1372 49.0022C87.3308 48.5378 87.5266 48.0282 87.7156 47.5112C87.825 47.2121 88.3488 47.1304 88.4519 46.8337C88.5544 46.5387 88.2363 46.0286 88.3291 45.7505C88.7697 44.4306 89.0819 43.3835 89.0819 43.3835L87.6383 40.6672C85.6194 41.7364 84.5839 44.0915 83.8223 46.8047L74.8231 52.0953Z" fill="#6C63FF"/>
<path d="M74.8231 52.0953C74.8231 52.0953 74.5963 54.0333 76.7743 54.5131C78.9524 54.9928 84.9866 51.539 85.9758 51.0114C86.2856 50.8462 86.7059 50.0365 87.1372 49.0022C87.3308 48.5378 87.5266 48.0282 87.7156 47.5112C87.825 47.2121 88.3488 47.1304 88.4519 46.8337C88.5544 46.5387 88.2363 46.0286 88.3291 45.7505C88.7697 44.4306 89.0819 43.3835 89.0819 43.3835L87.6383 40.6672C85.6194 41.7364 84.5839 44.0915 83.8223 46.8047L74.8231 52.0953Z" fill="#4E54C8"/>
<path d="M49.3866 40.251C49.4205 40.4715 49.5023 40.6819 49.6261 40.8673C49.7499 41.0527 49.9129 41.2086 50.1034 41.3241C50.2939 41.4396 50.5074 41.5119 50.7288 41.5358C50.9502 41.5598 51.1741 41.5348 51.3849 41.4626L59.6438 50.5775L60.5404 47.9066L52.312 39.4165C52.1675 39.0699 51.9012 38.7884 51.5634 38.6254C51.2256 38.4625 50.8398 38.4293 50.4793 38.5321C50.1187 38.635 49.8083 38.8668 49.6069 39.1836C49.4055 39.5004 49.3271 39.8802 49.3866 40.251Z" fill="#FFB6B6"/>
<path d="M70.3994 49.6273C70.3994 49.6273 71.1032 51.4468 69.1143 52.4573C67.1255 53.4678 60.4204 51.6366 59.3309 51.3738C58.9897 51.2916 58.3805 50.613 57.7045 49.7197C57.401 49.3186 57.0841 48.8743 56.772 48.4212C56.5913 48.1589 56.0638 48.2112 55.8899 47.9498C55.7169 47.6898 55.8975 47.1162 55.7382 46.8702C54.9818 45.7028 54.418 44.7673 54.418 44.7673L55.137 41.7755C57.3588 42.3046 58.9497 44.3251 60.3649 46.7611L70.3994 49.6273Z" fill="#6C63FF"/>
<path d="M70.3994 49.6273C70.3994 49.6273 71.1032 51.4468 69.1143 52.4573C67.1255 53.4678 60.4204 51.6366 59.3309 51.3738C58.9897 51.2916 58.3805 50.613 57.7045 49.7197C57.401 49.3186 57.0841 48.8743 56.772 48.4212C56.5913 48.1589 56.0638 48.2112 55.8899 47.9498C55.7169 47.6898 55.8975 47.1162 55.7382 46.8702C54.9818 45.7028 54.418 44.7673 54.418 44.7673L55.137 41.7755C57.3588 42.3046 58.9497 44.3251 60.3649 46.7611L70.3994 49.6273Z" fill="#4E54C8"/>
<path d="M72.5472 46.1241C74.7889 46.1241 76.6062 44.3038 76.6062 42.0582C76.6062 39.8126 74.7889 37.9922 72.5472 37.9922C70.3055 37.9922 68.4883 39.8126 68.4883 42.0582C68.4883 44.3038 70.3055 46.1241 72.5472 46.1241Z" fill="#FFB6B6"/>
<path d="M77.1784 39.7301C76.7515 39.0685 75.9502 38.6275 75.1735 38.7514C75.1012 38.2548 74.8943 37.7877 74.5753 37.4008C74.2563 37.0139 73.8375 36.722 73.3644 36.5571C72.8913 36.3921 72.3821 36.3603 71.8922 36.4651C71.4023 36.57 70.9506 36.8075 70.5861 37.1517C70.4662 37.0672 70.3266 37.0151 70.1808 37.0004C70.0349 36.9858 69.8877 37.0092 69.7535 37.0682C69.4862 37.19 69.2536 37.377 69.0771 37.6121C68.6314 38.1689 68.3448 38.8363 68.2477 39.5433C68.1506 40.2503 68.2467 40.9705 68.5258 41.6271C68.4309 41.2814 68.7767 40.9562 69.1262 40.8787C69.4756 40.8011 69.8421 40.8745 70.1964 40.8239C70.6506 40.7592 71.0588 40.4953 71.5137 40.4359C71.8994 40.4108 72.2864 40.4606 72.6532 40.5826C73.02 40.7046 73.4064 40.7566 73.7923 40.7358C74.1751 40.6903 74.6683 42.1436 74.6617 43.1673C74.6604 43.3613 74.7003 43.6103 74.8895 43.6515C75.1226 43.7022 75.2577 43.38 75.4795 43.2922C75.5817 43.2628 75.6914 43.2744 75.7853 43.3244C75.8792 43.3744 75.95 43.459 75.9829 43.5603C76.0108 43.6633 76.0138 43.7715 75.9916 43.8759C75.9694 43.9803 75.9226 44.0779 75.8551 44.1605C75.7188 44.3243 75.5569 44.465 75.3758 44.5771L75.4671 44.6532C75.5539 44.745 75.6698 44.8037 75.795 44.8193C75.9202 44.8349 76.0469 44.8063 76.1534 44.7386C76.3629 44.5965 76.5325 44.403 76.6461 44.1766C77.0743 43.5133 77.3804 42.7786 77.5499 42.0073C77.6929 41.2325 77.6054 40.3918 77.1784 39.7301Z" fill="#2F2E41"/>
<path d="M107.208 55.7665C101.972 59.7386 91.5549 58.4837 88.3221 65.2878C78.5343 85.8885 70.1606 70.1957 61.5906 68.4986L61.5117 68.0779C70.0908 68.7906 79.2931 67.6847 88.1235 64.8794C96.1036 62.3444 103.223 58.5735 108.713 53.9784L109 54.338C108.421 54.8235 107.823 55.2996 107.208 55.7665Z" fill="#F2F2F2"/>
<path d="M85.0733 109.722C84.9486 110.092 13.7556 110.092 13.6211 109.723C13.7456 109.352 84.9386 109.352 85.0733 109.722Z" fill="#CCCCCC"/>
</g>
<defs>
<linearGradient id="paint0_linear_733_2237" x1="36.972" y1="49.4154" x2="41.1458" y2="49.4228" gradientUnits="userSpaceOnUse">
<stop stop-color="#4E54C8"/>
<stop offset="1" stop-color="#8F94FB"/>
</linearGradient>
<linearGradient id="paint1_linear_733_2237" x1="26.7516" y1="58.9778" x2="41.3666" y2="58.9979" gradientUnits="userSpaceOnUse">
<stop stop-color="#4E54C8"/>
<stop offset="1" stop-color="#8F94FB"/>
</linearGradient>
<clipPath id="clip0_733_2237">
<rect width="109" height="110" fill="white"/>
</clipPath>
</defs>
</svg>
