<svg width="192" height="62" viewBox="0 0 192 62" fill="none" xmlns="http://www.w3.org/2000/svg">
<g clip-path="url(#clip0_733_2019)">
<path d="M186.803 55.5367H179.746C179.587 55.5363 179.43 55.5708 179.285 55.6377C179.141 55.7045 179.012 55.8022 178.91 55.9239C178.649 55.876 178.381 55.8906 178.128 55.9664C177.874 56.0423 177.642 56.1773 177.451 56.3603C177.26 56.5434 177.114 56.7692 177.027 57.0193C176.94 57.2695 176.913 57.5367 176.949 57.7992C176.985 58.0617 177.083 58.3119 177.234 58.5293C177.385 58.7467 177.586 58.9251 177.819 59.0498C178.053 59.1746 178.312 59.2421 178.577 59.2469C178.842 59.2516 179.104 59.1935 179.341 59.0773L179.927 60.9813C179.996 61.207 180.136 61.4044 180.325 61.5447C180.515 61.685 180.745 61.7606 180.98 61.7606H185.568C185.804 61.7606 186.034 61.6849 186.223 61.5447C186.413 61.4044 186.553 61.207 186.622 60.9813L187.857 56.9652C187.907 56.8001 187.919 56.6254 187.89 56.4551C187.861 56.2848 187.792 56.1237 187.69 55.9848C187.587 55.8458 187.453 55.7329 187.299 55.6551C187.145 55.5772 186.975 55.5367 186.803 55.5367ZM178.612 58.7683C178.295 58.7683 177.991 58.6422 177.767 58.4178C177.542 58.1933 177.416 57.8889 177.416 57.5714C177.416 57.254 177.542 56.9496 177.767 56.7251C177.991 56.5006 178.295 56.3745 178.612 56.3745C178.634 56.3745 178.654 56.3798 178.676 56.381C178.628 56.5736 178.634 56.7756 178.692 56.9652L179.197 58.6085C179.019 58.712 178.818 58.7671 178.612 58.7683Z" fill="#F0F0F0"/>
<path d="M14.8847 50.5096H7.82811C7.66893 50.5093 7.51158 50.5437 7.36709 50.6106C7.2226 50.6775 7.09445 50.7752 6.9916 50.8968C6.73133 50.8489 6.46342 50.8635 6.20987 50.9394C5.95632 51.0153 5.72436 51.1503 5.53302 51.3333C5.34169 51.5163 5.19643 51.7422 5.10919 51.9923C5.02194 52.2424 4.99519 52.5097 5.03113 52.7722C5.06707 53.0347 5.16467 53.2849 5.31593 53.5023C5.46718 53.7197 5.66778 53.8981 5.90125 54.0228C6.13472 54.1475 6.39441 54.2151 6.659 54.2198C6.92359 54.2246 7.18554 54.1665 7.42334 54.0502L8.24771 60.9813C8.31704 61.207 8.45682 61.4044 8.6465 61.5447C8.83619 61.685 9.0658 61.7606 9.30161 61.7606H13.8895C14.1253 61.7606 14.3549 61.6849 14.5446 61.5447C14.7342 61.4044 14.874 61.207 14.9433 60.9813L15.9386 51.9382C15.9893 51.7731 16.0007 51.5984 15.9717 51.4281C15.9427 51.2578 15.8741 51.0967 15.7716 50.9577C15.6691 50.8188 15.5355 50.7058 15.3814 50.628C15.2274 50.5502 15.0572 50.5097 14.8847 50.5096ZM6.69389 53.7413C6.37682 53.7413 6.07273 53.6152 5.84853 53.3907C5.62433 53.1663 5.49837 52.8618 5.49837 52.5444C5.49837 52.227 5.62433 51.9225 5.84853 51.6981C6.07273 51.4736 6.37682 51.3475 6.69389 51.3475C6.71572 51.3475 6.73604 51.3528 6.75763 51.3539C6.71009 51.5466 6.71586 51.7486 6.77433 51.9382L7.27927 53.5815C7.10139 53.6849 6.89959 53.74 6.69389 53.7413Z" fill="#F0F0F0"/>
<path d="M98.2514 44.7645C98.2514 44.3857 98.1393 44.0155 97.9291 43.7005C97.7189 43.3856 97.4201 43.1402 97.0706 42.9952C96.7211 42.8503 96.3365 42.8123 95.9654 42.8862C95.5944 42.9601 95.2536 43.1425 94.986 43.4103C94.7185 43.6782 94.5363 44.0194 94.4625 44.3909C94.3887 44.7624 94.4266 45.1474 94.5714 45.4973C94.7162 45.8473 94.9613 46.1464 95.2759 46.3568C95.5905 46.5672 95.9603 46.6795 96.3386 46.6795C96.3624 46.6795 96.3855 46.6768 96.4091 46.676C96.8822 48.2152 97.1349 49.8138 97.1597 51.4241C97.1779 52.2268 97.1321 53.0298 97.0227 53.8252C96.9394 54.3897 96.784 55.0372 96.2243 55.3009C95.8069 55.4975 96.1706 56.1168 96.5863 55.921C97.2176 55.6236 97.5247 54.9572 97.6623 54.3058C97.8193 53.4659 97.8917 52.6125 97.8783 51.7581C97.8857 49.9822 97.6266 48.2152 97.1096 46.5163C97.4492 46.3666 97.7379 46.1213 97.9406 45.8103C98.1434 45.4993 98.2514 45.1359 98.2514 44.7645Z" fill="#E6E6E6"/>
<path d="M97.6682 56.3044C97.6682 56.3044 95.1033 49.9837 102.798 45.2433L97.6682 56.3044Z" fill="#E6E6E6"/>
<path d="M97.5294 56.1894C97.5294 56.1894 96.7471 51.6843 90.6914 51.723L97.5294 56.1894Z" fill="#E6E6E6"/>
<path d="M101.818 61.7223H91.3026C91.1009 61.7223 90.9032 61.6655 90.7322 61.5584C90.5612 61.4513 90.4237 61.2982 90.3354 61.1165L88.0459 56.4048C87.9661 56.2406 87.9293 56.0588 87.939 55.8765C87.9487 55.6942 88.0045 55.5174 88.1012 55.3626C88.1979 55.2078 88.3324 55.0802 88.4919 54.9918C88.6514 54.9033 88.8307 54.8569 89.0131 54.8569H104.108C104.29 54.8569 104.47 54.9033 104.629 54.9918C104.789 55.0802 104.923 55.2078 105.02 55.3626C105.116 55.5174 105.172 55.6942 105.182 55.8765C105.192 56.0588 105.155 56.2406 105.075 56.4048L102.786 61.1165C102.697 61.2982 102.56 61.4513 102.389 61.5584C102.218 61.6655 102.02 61.7223 101.818 61.7223Z" fill="#F0F0F0"/>
<path d="M191.761 62H0.239103C0.175689 62 0.114872 61.9748 0.0700316 61.9299C0.025191 61.885 0 61.8241 0 61.7606C0 61.6971 0.025191 61.6363 0.0700316 61.5914C0.114872 61.5465 0.175689 61.5212 0.239103 61.5212H191.761C191.824 61.5212 191.885 61.5465 191.93 61.5914C191.975 61.6363 192 61.6971 192 61.7606C192 61.8241 191.975 61.885 191.93 61.9299C191.885 61.9748 191.824 62 191.761 62Z" fill="#3F3D56"/>
<path d="M39.9467 48.0984L35.2997 30.5073L34.7617 28.4767L35.2662 28.0077L43.927 23.712L56.303 24.0206L63.5686 27.7549L63.6079 30.5073L63.9665 55.3052L65.416 61.392H38.8334L40.8973 51.6979L39.9467 48.0984Z" fill="#6C63FF"/>
<path d="M39.9467 48.0984L35.2997 30.5073L34.7617 28.4767L35.2662 28.0077L43.927 23.712L56.303 24.0206L63.5686 27.7549L63.6079 30.5073L63.9665 55.3052L65.416 61.392H38.8334L40.8973 51.6979L39.9467 48.0984Z" fill="url(#paint0_linear_733_2019)"/>
<path d="M70.52 61.392H63.5924L61.6797 47.5653L62.1803 30.5074L62.2493 28.1868L63.5717 27.7548C64.5685 28.4836 65.3924 29.4235 65.9849 30.5074C66.8348 31.9884 67.5408 34.1109 67.3653 36.9645C67.3653 36.9645 67.5222 40.3341 67.3727 42.5781C67.27 44.1115 69.0575 53.8036 70.52 61.392Z" fill="#6C63FF"/>
<path d="M70.52 61.392H63.5924L61.6797 47.5653L62.1803 30.5074L62.2493 28.1868L63.5717 27.7548C64.5685 28.4836 65.3924 29.4235 65.9849 30.5074C66.8348 31.9884 67.5408 34.1109 67.3653 36.9645C67.3653 36.9645 67.5222 40.3341 67.3727 42.5781C67.27 44.1115 69.0575 53.8036 70.52 61.392Z" fill="url(#paint1_linear_733_2019)"/>
<path d="M39.9729 47.9225L39.9486 48.0983L38.1107 61.392H30.1445C30.7833 53.8597 31.5342 44.4425 31.4333 42.9334C31.2839 40.6913 31.4408 37.3198 31.4408 37.3198C31.2503 34.2287 32.0964 31.9997 33.0359 30.5074C33.5085 29.7489 34.0907 29.0645 34.7636 28.4766C34.9128 28.3455 35.07 28.2237 35.2343 28.112L36.5567 28.5421L36.9023 30.5074L39.9729 47.9225Z" fill="#6C63FF"/>
<path d="M39.9729 47.9225L39.9486 48.0983L38.1107 61.392H30.1445C30.7833 53.8597 31.5342 44.4425 31.4333 42.9334C31.2839 40.6913 31.4408 37.3198 31.4408 37.3198C31.2503 34.2287 32.0964 31.9997 33.0359 30.5074C33.5085 29.7489 34.0907 29.0645 34.7636 28.4766C34.9128 28.3455 35.07 28.2237 35.2343 28.112L36.5567 28.5421L36.9023 30.5074L39.9729 47.9225Z" fill="url(#paint2_linear_733_2019)"/>
<path d="M40.8906 12.1526C40.8906 13.8513 41.3938 15.5119 42.3365 16.9243C43.2791 18.3368 44.619 19.4376 46.1865 20.0877C47.7541 20.7378 49.4791 20.9079 51.1432 20.5765C52.8074 20.245 54.336 19.427 55.5358 18.2259C56.7355 17.0247 57.5526 15.4943 57.8836 13.8282C58.2146 12.1621 58.0448 10.4352 57.3954 8.86574C56.7461 7.29632 55.6465 5.95491 54.2357 5.01115C52.8249 4.06739 51.1663 3.56366 49.4696 3.56366C47.2 3.55798 45.0211 4.45518 43.4122 6.05789C41.8034 7.6606 40.8963 9.83753 40.8907 12.1098C40.8906 12.124 40.8906 12.1383 40.8906 12.1526Z" fill="#D7A5A5"/>
<path d="M76.87 60.0223C76.87 60.5125 76.6755 60.9827 76.3292 61.3293C75.983 61.676 75.5134 61.8707 75.0237 61.8707H25.6354C25.1457 61.8707 24.6761 61.676 24.3298 61.3293C23.9836 60.9827 23.7891 60.5125 23.7891 60.0223C23.7891 59.532 23.9836 59.0619 24.3298 58.7152C24.6761 58.3686 25.1457 58.1738 25.6354 58.1738H26.1835C26.1522 58.0637 26.1359 57.9498 26.135 57.8353V32.5916C26.135 32.1658 26.304 31.7575 26.6047 31.4564C26.9054 31.1553 27.3133 30.9862 27.7385 30.9862H72.9206C73.3458 30.9862 73.7537 31.1553 74.0544 31.4564C74.3551 31.7575 74.524 32.1658 74.524 32.5915V57.8353C74.5242 57.9499 74.5078 58.0639 74.4755 58.1738H75.0237C75.2661 58.1738 75.5062 58.2216 75.7302 58.3145C75.9542 58.4074 76.1578 58.5436 76.3292 58.7152C76.5007 58.8869 76.6367 59.0906 76.7295 59.3149C76.8223 59.5392 76.87 59.7795 76.87 60.0223Z" fill="#3F3D56"/>
<path d="M51.2876 45.4038C50.7231 45.4038 50.1713 45.2363 49.702 44.9223C49.2327 44.6083 48.8669 44.1621 48.6508 43.64C48.4348 43.1179 48.3783 42.5434 48.4884 41.9891C48.5985 41.4348 48.8704 40.9257 49.2695 40.5261C49.6686 40.1265 50.1772 39.8543 50.7308 39.7441C51.2844 39.6338 51.8582 39.6904 52.3797 39.9067C52.9012 40.1229 53.347 40.4891 53.6606 40.959C53.9742 41.4289 54.1416 41.9813 54.1416 42.5465C54.1408 43.304 53.8398 44.0303 53.3048 44.566C52.7697 45.1017 52.0443 45.403 51.2876 45.4038ZM51.2876 40.1679C50.8177 40.1679 50.3584 40.3074 49.9677 40.5688C49.577 40.8302 49.2725 41.2017 49.0926 41.6363C48.9128 42.0709 48.8658 42.5492 48.9575 43.0106C49.0491 43.472 49.2754 43.8958 49.6077 44.2284C49.9399 44.5611 50.3633 44.7876 50.8241 44.8794C51.285 44.9712 51.7627 44.924 52.1968 44.744C52.6309 44.564 53.002 44.2591 53.263 43.8679C53.5241 43.4768 53.6634 43.0169 53.6634 42.5464C53.6627 41.9158 53.4121 41.3113 52.9667 40.8654C52.5213 40.4195 51.9175 40.1687 51.2876 40.1679Z" fill="white"/>
<path d="M50.3298 44.2069C51.7739 44.2069 52.9447 43.0348 52.9447 41.589C52.9447 40.1431 51.7739 38.971 50.3298 38.971C48.8856 38.971 47.7148 40.1431 47.7148 41.589C47.7148 43.0348 48.8856 44.2069 50.3298 44.2069Z" fill="white"/>
<path d="M130.551 19.553V14.4826C130.551 11.4352 131.76 8.51258 133.912 6.35772C136.065 4.20286 138.984 2.99228 142.028 2.99228C145.072 2.99228 147.991 4.20286 150.143 6.35772C152.296 8.51258 153.505 11.4352 153.505 14.4826V19.553C153.504 20.2396 153.231 20.8979 152.746 21.3835C152.261 21.869 151.604 22.1421 150.918 22.1429H135.405L134.137 19.4467V22.1429H133.138C132.452 22.1421 131.794 21.869 131.309 21.3835C130.824 20.8979 130.552 20.2396 130.551 19.553Z" fill="#2F2E41"/>
<path d="M150.397 35.782L150.891 41.1448L151.116 43.5814L151.474 47.4612L151.519 47.9616L151.811 51.1125L151.818 51.147C152.002 51.7364 152.371 52.2508 152.87 52.6137C153.369 52.9766 153.972 53.1686 154.589 53.1612L167.902 52.9309L171.66 52.8656C171.732 52.9744 171.803 53.0723 171.873 53.1593C172.203 53.5606 172.614 53.8878 173.079 54.1199C173.543 54.3519 174.051 54.4836 174.57 54.5064C175.091 54.5304 175.611 54.4426 176.096 54.2491C176.581 54.0556 177.019 53.7607 177.38 53.3841C177.453 53.3098 177.523 53.2319 177.589 53.1503C178.081 52.5439 178.369 51.7973 178.412 51.0172C178.455 50.237 178.25 49.4632 177.828 48.8064C177.546 48.3666 177.174 47.9923 176.736 47.7083C176.298 47.4244 175.805 47.2375 175.289 47.1602C174.776 47.0815 174.252 47.1116 173.752 47.2488C173.251 47.3859 172.785 47.6269 172.384 47.9561C172.257 48.0612 172.137 48.1757 172.027 48.2988L167.902 47.6969L157.513 46.183L157.07 40.1821C157.068 40.1549 157.066 40.1277 157.064 40.0987L156.706 35.2562C156.646 34.4504 156.281 33.6979 155.686 33.1524C155.09 32.6069 154.309 32.3095 153.502 32.321C153.237 32.3237 152.972 32.3609 152.716 32.4316C152.429 32.5094 152.155 32.6279 151.901 32.7833C151.395 33.0916 150.985 33.5362 150.719 34.0664C150.453 34.5967 150.341 35.1912 150.397 35.782Z" fill="#9E616A"/>
<path d="M142.49 22.421C146.646 22.421 150.015 19.048 150.015 14.8872C150.015 10.7264 146.646 7.35342 142.49 7.35342C138.334 7.35342 134.965 10.7264 134.965 14.8872C134.965 19.048 138.334 22.421 142.49 22.421Z" fill="#D7A3AA"/>
<path d="M152.526 27.4435L153.894 26.9869C153.894 26.9869 156.63 28.1284 156.63 30.183C156.63 32.2377 157.086 40.4564 157.086 40.4564L150.93 41.1413L152.526 27.4435Z" fill="#6C63FF"/>
<path d="M152.526 27.4435L153.894 26.9869C153.894 26.9869 156.63 28.1284 156.63 30.183C156.63 32.2377 157.086 40.4564 157.086 40.4564L150.93 41.1413L152.526 27.4435Z" fill="url(#paint3_linear_733_2019)"/>
<path d="M123.418 61.6314H128.843L130.7 46.0597L131.371 40.4359L131.464 39.6599L131.96 35.4974C131.987 34.9747 131.87 34.4546 131.623 33.9934C131.376 33.5322 131.008 33.1474 130.558 32.8805C130.108 32.6136 129.594 32.4747 129.072 32.479C128.549 32.4833 128.037 32.6306 127.592 32.9048C127.48 32.9739 127.373 33.0509 127.272 33.1351C126.96 33.3914 126.707 33.7108 126.527 34.0724C126.348 34.4339 126.248 34.8294 126.232 35.2327L125.743 39.8104L123.418 61.6314Z" fill="#9E616A"/>
<path d="M131.555 40.4564L125.398 39.7715C125.398 39.7715 125.855 31.5528 125.855 29.4981C125.855 27.4435 128.591 26.302 128.591 26.302L129.959 26.7586L131.555 40.4564Z" fill="#6C63FF"/>
<path d="M131.555 40.4564L125.398 39.7715C125.398 39.7715 125.855 31.5528 125.855 29.4981C125.855 27.4435 128.591 26.302 128.591 26.302L129.959 26.7586L131.555 40.4564Z" fill="url(#paint4_linear_733_2019)"/>
<path d="M129.559 61.6314H155.296C154.481 58.5109 153.368 55.4759 151.973 52.5683C151.747 52.106 151.613 51.8594 151.613 51.8594C151.613 51.8594 140.668 51.6437 133.827 54.3831C133.39 54.5717 132.999 54.851 132.679 55.2026C131.494 56.4281 130.459 58.7288 129.559 61.6314Z" fill="#2F2E41"/>
<path d="M134.968 24.9322C134.968 24.9322 134.751 24.8155 147.737 25.2891L153.172 26.7877L153.894 26.9869C153.894 26.9869 153.21 40.6846 151.386 43.1959C149.562 45.7072 150.018 47.0769 150.474 47.3052C150.93 47.5335 152.07 47.0769 151.386 48.2184C150.702 49.3599 149.79 48.675 150.702 49.3599C151.614 50.0448 152.07 52.556 152.07 52.556L132.003 55.2956C132.003 55.2956 131.319 46.392 129.495 41.8261C127.671 37.2602 127.215 35.4338 127.215 35.4338L128.583 26.302L134.968 24.9322Z" fill="#6C63FF"/>
<path d="M134.968 24.9322C134.968 24.9322 134.751 24.8155 147.737 25.2891L153.172 26.7877L153.894 26.9869C153.894 26.9869 153.21 40.6846 151.386 43.1959C149.562 45.7072 150.018 47.0769 150.474 47.3052C150.93 47.5335 152.07 47.0769 151.386 48.2184C150.702 49.3599 149.79 48.675 150.702 49.3599C151.614 50.0448 152.07 52.556 152.07 52.556L132.003 55.2956C132.003 55.2956 131.319 46.392 129.495 41.8261C127.671 37.2602 127.215 35.4338 127.215 35.4338L128.583 26.302L134.968 24.9322Z" fill="url(#paint5_linear_733_2019)"/>
<path d="M134.375 10.6525C134.375 8.68438 135.156 6.79685 136.546 5.40517C137.936 4.01349 139.821 3.23166 141.787 3.23166C143.753 3.23166 145.638 4.01349 147.028 5.40517C148.418 6.79685 149.199 8.68438 149.199 10.6525V14.0039H134.375V10.6525Z" fill="#2F2E41"/>
<path d="M167.014 59.7477V60.4095C167.014 60.797 166.86 61.1686 166.586 61.4426C166.312 61.7167 165.941 61.8706 165.554 61.8707H117.01C116.623 61.8706 116.252 61.7167 115.978 61.4426C115.705 61.1686 115.551 60.797 115.551 60.4095V59.7477C115.551 59.3602 115.705 58.9886 115.978 58.7146C116.252 58.4405 116.623 58.2866 117.01 58.2865H117.872C117.842 58.1797 117.826 58.0693 117.825 57.9583V33.1532C117.825 32.8283 117.954 32.5167 118.184 32.2869C118.414 32.0571 118.725 31.9279 119.049 31.9277H163.515C163.84 31.9279 164.151 32.0571 164.38 32.2869C164.61 32.5167 164.739 32.8283 164.739 33.1532V57.9583C164.739 58.0694 164.723 58.1799 164.692 58.2865H165.554C165.941 58.2866 166.312 58.4405 166.586 58.7146C166.86 58.9886 167.014 59.3602 167.014 59.7477Z" fill="#3F3D56"/>
<path d="M142.239 45.9423C141.69 45.9423 141.154 45.7794 140.698 45.4742C140.242 45.169 139.886 44.7352 139.676 44.2277C139.466 43.7202 139.411 43.1617 139.518 42.6229C139.625 42.0841 139.889 41.5892 140.277 41.2008C140.665 40.8123 141.16 40.5478 141.698 40.4406C142.236 40.3334 142.794 40.3884 143.301 40.5987C143.808 40.8089 144.241 41.1649 144.546 41.6217C144.851 42.0784 145.013 42.6154 145.013 43.1648C145.013 43.9012 144.72 44.6072 144.2 45.1279C143.68 45.6486 142.975 45.9415 142.239 45.9423ZM142.239 40.866C141.785 40.866 141.341 41.0008 140.964 41.2534C140.586 41.506 140.292 41.865 140.118 42.2851C139.944 42.7051 139.899 43.1673 139.987 43.6133C140.076 44.0592 140.294 44.4688 140.616 44.7903C140.937 45.1118 141.346 45.3307 141.791 45.4194C142.237 45.5081 142.698 45.4626 143.118 45.2886C143.537 45.1146 143.896 44.82 144.148 44.4419C144.401 44.0639 144.535 43.6195 144.535 43.1648C144.535 42.5553 144.292 41.971 143.862 41.5401C143.432 41.1091 142.848 40.8667 142.239 40.866Z" fill="white"/>
<path d="M141.281 44.7454C142.681 44.7454 143.816 43.609 143.816 42.2072C143.816 40.8054 142.681 39.6691 141.281 39.6691C139.881 39.6691 138.746 40.8054 138.746 42.2072C138.746 43.609 139.881 44.7454 141.281 44.7454Z" fill="white"/>
<path d="M59.1884 5.018C58.4969 4.48337 57.9347 3.79942 57.5438 3.01709C57.4042 2.71974 57.2117 2.45033 56.9757 2.22206L55.3536 3.47104L56.3449 1.7424C53.8059 0.205911 48.848 1.02196 48.848 1.02196C43.6905 -1.7276 41.7967 1.70463 41.1365 3.88128C40.875 4.66899 40.4137 5.37527 39.798 5.9311C38.5257 7.1456 40.5292 9.50794 40.5292 9.50794V9.6749L41.0074 12.9266C41.0074 12.9266 41.4856 10.7722 42.7475 9.25825C43.5432 8.30374 44.8381 7.73622 45.4395 7.74797C53.2016 7.89961 54.6712 8.20733 54.6712 8.20733C54.6712 8.20733 55.9853 8.91414 56.5657 9.21105C58.4411 10.1705 57.9837 13.6448 57.9837 13.6448L59.3852 7.47854C59.7087 5.98381 59.529 5.29801 59.1884 5.018Z" fill="#2F2E41"/>
</g>
<defs>
<linearGradient id="paint0_linear_733_2019" x1="35.3702" y1="43.0351" x2="65.1637" y2="43.086" gradientUnits="userSpaceOnUse">
<stop stop-color="#4E54C8"/>
<stop offset="1" stop-color="#8F94FB"/>
</linearGradient>
<linearGradient id="paint1_linear_733_2019" x1="61.8552" y1="45.0046" x2="70.4473" y2="45.0094" gradientUnits="userSpaceOnUse">
<stop stop-color="#4E54C8"/>
<stop offset="1" stop-color="#8F94FB"/>
</linearGradient>
<linearGradient id="paint2_linear_733_2019" x1="30.3396" y1="45.1786" x2="39.892" y2="45.1846" gradientUnits="userSpaceOnUse">
<stop stop-color="#4E54C8"/>
<stop offset="1" stop-color="#8F94FB"/>
</linearGradient>
<linearGradient id="paint3_linear_733_2019" x1="151.052" y1="34.2455" x2="157.036" y2="34.251" gradientUnits="userSpaceOnUse">
<stop stop-color="#4E54C8"/>
<stop offset="1" stop-color="#8F94FB"/>
</linearGradient>
<linearGradient id="paint4_linear_733_2019" x1="125.521" y1="33.5606" x2="131.505" y2="33.5661" gradientUnits="userSpaceOnUse">
<stop stop-color="#4E54C8"/>
<stop offset="1" stop-color="#8F94FB"/>
</linearGradient>
<linearGradient id="paint5_linear_733_2019" x1="127.744" y1="40.497" x2="153.675" y2="40.5448" gradientUnits="userSpaceOnUse">
<stop stop-color="#4E54C8"/>
<stop offset="1" stop-color="#8F94FB"/>
</linearGradient>
<clipPath id="clip0_733_2019">
<rect width="192" height="62" fill="white"/>
</clipPath>
</defs>
</svg>
