<svg width="99" height="92" viewBox="0 0 99 92" fill="none" xmlns="http://www.w3.org/2000/svg">
<g clip-path="url(#clip0_733_2075)">
<path d="M91.5142 70.3827L95.9554 71.0723C97.4587 69.2638 98.4951 67.118 98.9744 64.8212C95.7269 67.4625 90.7883 66.0589 86.8505 67.5009C85.6258 67.96 84.5208 68.687 83.6173 69.6281C82.7139 70.5692 82.0351 71.7003 81.6314 72.9374L79.4609 75.2576C81.4256 76.0304 83.5356 76.3709 85.6455 76.2555C87.7554 76.1401 89.815 75.5715 91.6825 74.5891C92.7246 74.0276 93.6914 73.338 94.5601 72.5365C93.0062 71.5643 91.5142 70.3827 91.5142 70.3827Z" fill="#F2F2F2"/>
<path d="M89.9399 63.3253L94.2245 61.9745C94.7583 59.6896 94.7227 57.3098 94.1207 55.0417C92.3996 58.8448 87.3494 59.7769 84.4721 62.8125C83.5821 63.7661 82.9193 64.9065 82.5331 66.1492C82.1469 67.3918 82.0471 68.7049 82.2411 69.9911L81.3398 73.0296C83.4452 72.8507 85.4866 72.2204 87.3232 71.1822C89.1598 70.1439 90.7481 68.7224 91.9786 67.0156C92.6593 66.0513 93.2151 65.0056 93.6329 63.9033C91.8056 63.7217 89.9399 63.3253 89.9399 63.3253Z" fill="#F2F2F2"/>
<path d="M99 76.6631C99.0001 76.6859 98.9956 76.7084 98.9869 76.7295C98.9781 76.7505 98.9653 76.7697 98.9491 76.7858C98.9329 76.8019 98.9136 76.8146 98.8924 76.8233C98.8713 76.832 98.8485 76.8364 98.8256 76.8364H0.174361C0.128117 76.8364 0.0837676 76.8181 0.0510687 76.7856C0.0183698 76.7531 0 76.7091 0 76.6631C0 76.6172 0.0183698 76.5731 0.0510687 76.5406C0.0837676 76.5081 0.128117 76.4899 0.174361 76.4899H98.8256C98.8485 76.4898 98.8713 76.4942 98.8924 76.5029C98.9136 76.5116 98.9329 76.5244 98.9491 76.5405C98.9653 76.5566 98.9781 76.5757 98.9869 76.5967C98.9956 76.6178 99.0001 76.6403 99 76.6631Z" fill="#CCCCCC"/>
<path d="M40.881 69.2774C58.2791 69.2774 72.383 55.2639 72.383 37.9773C72.383 20.6908 58.2791 6.67725 40.881 6.67725C23.4829 6.67725 9.37891 20.6908 9.37891 37.9773C9.37891 55.2639 23.4829 69.2774 40.881 69.2774Z" fill="#E6E6E6"/>
<path d="M67.9863 37.9773C67.9895 42.1798 67.0014 46.3246 65.1015 50.0792C63.2015 53.8338 60.4424 57.0938 57.0455 59.5977C56.8184 59.7666 56.5869 59.9311 56.354 60.0912C51.8115 63.2285 46.4119 64.91 40.8799 64.91C35.3478 64.91 29.9482 63.2285 25.4058 60.0912C25.1728 59.9311 24.9413 59.7666 24.7142 59.5977C21.3196 57.0916 18.5623 53.8311 16.6626 50.077C14.7628 46.3229 13.7734 42.1792 13.7734 37.9773C13.7734 33.7754 14.7628 29.6317 16.6626 25.8776C18.5623 22.1235 21.3196 18.8631 24.7142 16.357C24.9413 16.1881 25.1728 16.0236 25.4058 15.8634C29.9482 12.7262 35.3478 11.0447 40.8799 11.0447C46.4119 11.0447 51.8115 12.7262 56.354 15.8634C56.5869 16.0236 56.8184 16.1881 57.0455 16.357C60.4424 18.8609 63.2015 22.1209 65.1015 25.8755C67.0014 29.6301 67.9895 33.7748 67.9863 37.9773Z" fill="white"/>
<path d="M40.8793 62.5807C54.555 62.5807 65.6414 51.5654 65.6414 37.9774C65.6414 24.3893 54.555 13.374 40.8793 13.374C27.2036 13.374 16.1172 24.3893 16.1172 37.9774C16.1172 51.5654 27.2036 62.5807 40.8793 62.5807Z" fill="#6C63FF"/>
<path d="M40.8793 62.5807C54.555 62.5807 65.6414 51.5654 65.6414 37.9774C65.6414 24.3893 54.555 13.374 40.8793 13.374C27.2036 13.374 16.1172 24.3893 16.1172 37.9774C16.1172 51.5654 27.2036 62.5807 40.8793 62.5807Z" fill="url(#paint0_linear_733_2075)"/>
<path opacity="0.2" d="M40.9418 13.4428C40.5664 13.4428 40.1933 13.4526 39.822 13.469C46.0805 14.0154 51.8959 16.9052 56.0901 21.5528C60.2843 26.2004 62.5436 32.2583 62.4102 38.4992C62.2769 44.7401 59.761 50.6973 55.3721 55.1639C50.9832 59.6305 45.0496 62.2724 38.7734 62.5545C39.4881 62.6161 40.211 62.6495 40.9418 62.6495C47.5091 62.6495 53.8074 60.0573 58.4512 55.4433C63.095 50.8293 65.7038 44.5714 65.7038 38.0462C65.7038 31.5209 63.095 25.263 58.4512 20.649C53.8074 16.0349 47.5091 13.4428 40.9418 13.4428Z" fill="black"/>
<path d="M40.9543 11.627C40.7407 11.6274 40.5359 11.7119 40.3849 11.8619C40.2338 12.012 40.1488 12.2155 40.1484 12.4277V15.9217C40.1484 16.134 40.2333 16.3377 40.3845 16.4879C40.5356 16.638 40.7406 16.7224 40.9543 16.7224C41.168 16.7224 41.373 16.638 41.5241 16.4879C41.6753 16.3377 41.7602 16.134 41.7602 15.9217V12.4277C41.7598 12.2155 41.6748 12.012 41.5237 11.8619C41.3727 11.7119 41.1679 11.6274 40.9543 11.627Z" fill="white"/>
<path d="M57.0444 16.357C56.8173 16.1881 56.5858 16.0236 56.3528 15.8635C56.213 15.8544 56.0733 15.8817 55.9474 15.9427C55.8215 16.0038 55.7138 16.0964 55.6349 16.2114L53.6554 19.0983C53.5351 19.2738 53.4899 19.4895 53.5298 19.6981C53.5696 19.9067 53.6912 20.091 53.8678 20.2105C54.0444 20.33 54.2616 20.3749 54.4715 20.3353C54.6815 20.2957 54.867 20.1749 54.9872 19.9994L56.9667 17.1125C57.0421 17.003 57.0886 16.8765 57.1022 16.7446C57.1158 16.6126 57.0959 16.4794 57.0444 16.357Z" fill="white"/>
<path d="M66.04 29.5205C66.0002 29.4231 65.9415 29.3345 65.8672 29.2598C65.7929 29.185 65.7046 29.1255 65.6071 29.0846C65.5097 29.0438 65.4051 29.0225 65.2994 29.0218C65.1937 29.0211 65.0888 29.0412 64.9909 29.0808L61.7323 30.3954C61.5345 30.4755 61.3768 30.6303 61.2938 30.8258C61.2108 31.0214 61.2093 31.2416 61.2897 31.4382C61.3701 31.6348 61.5258 31.7917 61.7225 31.8743C61.9192 31.9569 62.1409 31.9586 62.3389 31.8789L65.5975 30.5643C65.7952 30.4838 65.9528 30.3288 66.0357 30.1332C66.1186 29.9375 66.1202 29.7172 66.04 29.5205Z" fill="white"/>
<path d="M28.1033 19.0983L26.1238 16.2114C26.0449 16.0964 25.9372 16.0038 25.8113 15.9427C25.6854 15.8817 25.5456 15.8544 25.4059 15.8635C25.1729 16.0236 24.9414 16.1881 24.7143 16.357C24.6628 16.4794 24.6429 16.6126 24.6565 16.7446C24.67 16.8765 24.7166 17.003 24.7919 17.1125L26.7714 19.9994C26.8917 20.1749 27.0772 20.2957 27.2871 20.3353C27.4971 20.3749 27.7142 20.33 27.8909 20.2105C28.0675 20.091 28.1891 19.9067 28.2289 19.6981C28.2688 19.4895 28.2236 19.2738 28.1033 19.0983Z" fill="white"/>
<path d="M20.0277 30.3955L16.7691 29.0809C16.5711 29.001 16.3493 29.0025 16.1525 29.0851C15.9556 29.1677 15.7998 29.3246 15.7194 29.5213C15.639 29.718 15.6405 29.9384 15.7236 30.134C15.8067 30.3296 15.9646 30.4844 16.1625 30.5643L19.4211 31.8789C19.6191 31.9586 19.8408 31.957 20.0375 31.8744C20.2342 31.7917 20.3899 31.6349 20.4703 31.4383C20.5507 31.2417 20.5492 31.0214 20.4662 30.8259C20.3833 30.6303 20.2255 30.4755 20.0277 30.3955Z" fill="white"/>
<path d="M40.9543 59.2323C40.7407 59.2327 40.5359 59.3171 40.3849 59.4672C40.2338 59.6173 40.1488 59.8208 40.1484 60.033V63.527C40.1484 63.7393 40.2333 63.943 40.3845 64.0931C40.5356 64.2433 40.7406 64.3277 40.9543 64.3277C41.168 64.3277 41.373 64.2433 41.5241 64.0931C41.6753 63.943 41.7602 63.7393 41.7602 63.527V60.033C41.7598 59.8208 41.6748 59.6173 41.5237 59.4672C41.3727 59.3171 41.1679 59.2327 40.9543 59.2323Z" fill="white"/>
<path d="M56.9668 58.8421L54.9872 55.9552C54.9277 55.8683 54.8515 55.7939 54.763 55.7363C54.6745 55.6787 54.5755 55.6389 54.4715 55.6193C54.3676 55.5997 54.2608 55.6007 54.1572 55.6221C54.0536 55.6435 53.9553 55.685 53.8678 55.7441C53.7804 55.8033 53.7055 55.879 53.6475 55.9669C53.5895 56.0548 53.5495 56.1533 53.5298 56.2565C53.51 56.3598 53.511 56.4659 53.5325 56.5689C53.5541 56.6718 53.5958 56.7695 53.6554 56.8564L55.6349 59.7433C55.7137 59.8583 55.8215 59.9509 55.9474 60.0119C56.0733 60.0729 56.213 60.1003 56.3528 60.0912C56.5858 59.9311 56.8173 59.7666 57.0444 59.5977C57.0959 59.4753 57.1158 59.3421 57.1022 59.2101C57.0886 59.0781 57.0421 58.9516 56.9668 58.8421Z" fill="white"/>
<path d="M65.5941 45.3904L62.3355 44.0758C62.1375 43.9959 61.9157 43.9974 61.7189 44.08C61.522 44.1626 61.3663 44.3195 61.2858 44.5162C61.2054 44.7129 61.2069 44.9333 61.29 45.1289C61.3731 45.3245 61.531 45.4793 61.7289 45.5593L64.9875 46.8739C65.1855 46.9536 65.4072 46.9519 65.6039 46.8693C65.8006 46.7867 65.9563 46.6298 66.0367 46.4332C66.1171 46.2366 66.1156 46.0163 66.0326 45.8208C65.9497 45.6253 65.7919 45.4705 65.5941 45.3904Z" fill="white"/>
<path d="M27.8908 55.7441C27.7142 55.6247 27.4971 55.5798 27.2871 55.6194C27.0772 55.659 26.8917 55.7798 26.7714 55.9552L24.7919 58.8421C24.7166 58.9516 24.67 59.0781 24.6565 59.2101C24.6429 59.342 24.6628 59.4753 24.7143 59.5977C24.9414 59.7665 25.1729 59.9311 25.4059 60.0912C25.5456 60.1002 25.6854 60.0729 25.8113 60.0119C25.9372 59.9509 26.0449 59.8583 26.1238 59.7432L28.1033 56.8564C28.1629 56.7695 28.2046 56.6718 28.2262 56.5689C28.2477 56.4659 28.2487 56.3598 28.2289 56.2565C28.2092 56.1532 28.1692 56.0548 28.1112 55.9669C28.0532 55.879 27.9783 55.8033 27.8908 55.7441Z" fill="white"/>
<path d="M20.4697 44.5154C20.4299 44.4181 20.3712 44.3295 20.2969 44.2547C20.2226 44.1799 20.1343 44.1204 20.0368 44.0796C19.9394 44.0388 19.8348 44.0174 19.7291 44.0167C19.6234 44.0161 19.5185 44.0361 19.4206 44.0757L16.162 45.3903C15.9642 45.4704 15.8064 45.6252 15.7235 45.8207C15.6405 46.0163 15.639 46.2366 15.7194 46.4332C15.7998 46.6298 15.9555 46.7866 16.1522 46.8692C16.3489 46.9519 16.5706 46.9535 16.7686 46.8738L20.0272 45.5592C20.2249 45.4788 20.3825 45.3237 20.4654 45.1281C20.5483 44.9325 20.5499 44.7122 20.4697 44.5154Z" fill="white"/>
<path d="M41.9979 37.5801C42.0723 38.0177 41.9689 38.4668 41.7105 38.8289C41.4521 39.1909 41.0596 39.4364 40.6193 39.5113L26.3191 41.9281C26.101 41.965 25.8777 41.9588 25.6619 41.9099C25.4462 41.861 25.2422 41.7704 25.0618 41.6432C24.8813 41.516 24.7278 41.3548 24.61 41.1686C24.4922 40.9825 24.4125 40.7751 24.3754 40.5584C24.3383 40.3416 24.3445 40.1198 24.3937 39.9054C24.4429 39.691 24.5341 39.4884 24.6622 39.3091C24.7902 39.1298 24.9525 38.9772 25.1398 38.8602C25.3272 38.7432 25.5359 38.664 25.754 38.6272L40.0542 36.2103C40.4947 36.1364 40.9467 36.2391 41.3111 36.4959C41.6755 36.7526 41.9225 37.1426 41.9979 37.5801Z" fill="#3F3D56"/>
<path d="M57.0496 53.3219C56.8442 53.5272 56.5652 53.6431 56.2738 53.6443C55.9825 53.6454 55.7026 53.5317 55.4955 53.328L40.1016 38.1527C39.895 37.9487 39.7784 37.6715 39.7774 37.3821C39.7763 37.0927 39.891 36.8147 40.0962 36.6093C40.3013 36.4038 40.5802 36.2877 40.8714 36.2864C41.1627 36.2852 41.4426 36.3989 41.6495 36.6025L57.0435 51.7778C57.2501 51.9819 57.3668 52.2591 57.3679 52.5486C57.369 52.8381 57.2546 53.1162 57.0496 53.3219Z" fill="#3F3D56"/>
<path d="M40.8774 39.8699C41.9294 39.8699 42.7822 39.0226 42.7822 37.9773C42.7822 36.9321 41.9294 36.0848 40.8774 36.0848C39.8255 36.0848 38.9727 36.9321 38.9727 37.9773C38.9727 39.0226 39.8255 39.8699 40.8774 39.8699Z" fill="#CCCCCC"/>
<path d="M27.7608 5.16014C24.837 9.7274 20.3759 12.7585 14.8743 14.7497C14.7656 14.8306 14.6419 14.8894 14.5103 14.9228C14.3787 14.9562 14.2418 14.9635 14.1073 14.9444C13.9729 14.9252 13.8435 14.8799 13.7267 14.8111C13.6099 14.7422 13.5078 14.6512 13.4264 14.5432C10.438 10.5786 11.1128 4.91249 15.0569 1.88311C16.0104 1.15199 17.1006 0.61634 18.2642 0.307273C19.4278 -0.00179401 20.6416 -0.0781265 21.8352 0.0827091C23.0287 0.243545 24.1782 0.638343 25.2169 1.24418C26.2556 1.85003 27.1629 2.65484 27.886 3.61191L27.9686 3.72157C28.05 3.82958 28.1093 3.95248 28.1429 4.08323C28.1765 4.21398 28.1839 4.35003 28.1646 4.48362C28.1453 4.6172 28.0997 4.7457 28.0304 4.86178C27.9611 4.97786 27.8695 5.07924 27.7608 5.16014Z" fill="#E6E6E6"/>
<path d="M53.875 3.61185C54.5981 2.65478 55.5054 1.84996 56.5441 1.24412C57.5828 0.638281 58.7323 0.243484 59.9258 0.0826487C61.1194 -0.0781869 62.3332 -0.00185664 63.4967 0.30721C64.6603 0.616277 65.7506 1.15192 66.7041 1.88305C70.6482 4.91243 71.323 10.5786 68.3346 14.5431C68.2531 14.6511 68.1511 14.7422 68.0343 14.811C67.9175 14.8798 67.7881 14.9251 67.6537 14.9443C67.5192 14.9635 67.3823 14.9562 67.2507 14.9228C67.1191 14.8893 66.9954 14.8305 66.8867 14.7496C61.7794 12.8068 57.5911 9.44469 54.0002 5.16008C53.7806 4.99669 53.6354 4.75334 53.5964 4.48355C53.5575 4.21377 53.6279 3.93965 53.7924 3.7215L53.875 3.61185Z" fill="#E6E6E6"/>
<path d="M52.5915 65.0946C52.4053 65.1986 52.2681 65.3717 52.2101 65.5759C52.152 65.7802 52.1778 65.999 52.2818 66.1844L56.9327 74.4422C57.0371 74.6274 57.2112 74.7639 57.4169 74.8216C57.6226 74.8793 57.8429 74.8534 58.0293 74.7497C58.2158 74.646 58.3532 74.473 58.4113 74.2687C58.4694 74.0643 58.4435 73.8454 58.3391 73.6601L53.6883 65.4023C53.5836 65.2173 53.4095 65.081 53.2039 65.0234C52.9983 64.9657 52.7781 64.9913 52.5915 65.0946Z" fill="#E6E6E6"/>
<path d="M28.0698 65.4023L23.4189 73.6601C23.3146 73.8454 23.2887 74.0643 23.3468 74.2687C23.4049 74.473 23.5423 74.646 23.7287 74.7497C23.9152 74.8534 24.1355 74.8792 24.3412 74.8216C24.5468 74.7639 24.721 74.6274 24.8254 74.4421L29.4763 66.1844C29.528 66.0926 29.561 65.9916 29.5734 65.8872C29.5859 65.7827 29.5774 65.6769 29.5487 65.5757C29.5199 65.4745 29.4714 65.3799 29.4059 65.2973C29.3403 65.2147 29.259 65.1458 29.1667 65.0945C29.0743 65.0431 28.9727 65.0103 28.8675 64.998C28.7624 64.9857 28.6559 64.9941 28.554 65.0227C28.4522 65.0512 28.357 65.0995 28.2739 65.1646C28.1908 65.2298 28.1215 65.3106 28.0698 65.4023Z" fill="#E6E6E6"/>
<path d="M57.8737 76.5565C59.2493 76.5565 60.3645 75.4485 60.3645 74.0816C60.3645 72.7148 59.2493 71.6068 57.8737 71.6068C56.498 71.6068 55.3828 72.7148 55.3828 74.0816C55.3828 75.4485 56.498 76.5565 57.8737 76.5565Z" fill="#E6E6E6"/>
<path d="M59.6354 13.2284C61.0111 13.2284 62.1263 12.1204 62.1263 10.7535C62.1263 9.38667 61.0111 8.27863 59.6354 8.27863C58.2597 8.27863 57.1445 9.38667 57.1445 10.7535C57.1445 12.1204 58.2597 13.2284 59.6354 13.2284Z" fill="#E6E6E6"/>
<path d="M40.733 7.40517C42.1087 7.40517 43.2239 6.29712 43.2239 4.93027C43.2239 3.56343 42.1087 2.45538 40.733 2.45538C39.3574 2.45538 38.2422 3.56343 38.2422 4.93027C38.2422 6.29712 39.3574 7.40517 40.733 7.40517Z" fill="#E6E6E6"/>
<path d="M22.7096 12.9373C24.0853 12.9373 25.2005 11.8292 25.2005 10.4624C25.2005 9.09553 24.0853 7.98749 22.7096 7.98749C21.3339 7.98749 20.2188 9.09553 20.2188 10.4624C20.2188 11.8292 21.3339 12.9373 22.7096 12.9373Z" fill="#E6E6E6"/>
<path d="M24.3229 76.5565C25.6986 76.5565 26.8138 75.4485 26.8138 74.0816C26.8138 72.7148 25.6986 71.6068 24.3229 71.6068C22.9472 71.6068 21.832 72.7148 21.832 74.0816C21.832 75.4485 22.9472 76.5565 24.3229 76.5565Z" fill="#E6E6E6"/>
<path d="M55.9204 51.93C56.0186 52.0828 56.1493 52.2123 56.3033 52.3094C56.4573 52.4066 56.6309 52.469 56.8118 52.4923C56.9927 52.5155 57.1765 52.4991 57.3504 52.4441C57.5242 52.3892 57.6838 52.297 57.8179 52.1742L61.7264 54.255L61.5168 51.975L57.8373 50.3485C57.6147 50.1384 57.3221 50.0167 57.0152 50.0065C56.7082 49.9963 56.4082 50.0984 56.1719 50.2933C55.9356 50.4882 55.7795 50.7625 55.7331 51.0642C55.6868 51.3659 55.7534 51.6739 55.9204 51.93Z" fill="#FFB7B7"/>
<path d="M58.7695 52.7258L60.3012 50.6251L67.68 54.0909L76.862 52.3791C77.3159 52.2945 77.7829 52.3102 78.23 52.4251C78.6771 52.54 79.0932 52.7513 79.4488 53.044C79.8045 53.3366 80.0909 53.7035 80.2878 54.1185C80.4847 54.5336 80.5872 54.9866 80.5881 55.4454C80.5887 56.2741 80.2585 57.0693 79.6698 57.6563C79.0811 58.2434 78.282 58.5745 77.448 58.5769L66.9254 58.5963L58.7695 52.7258Z" fill="#3F3D56"/>
<path d="M56.4091 89.0086L54.8594 88.2722L56.9882 81.8364L59.2752 82.9233L56.4091 89.0086Z" fill="#FFB7B7"/>
<path d="M66.8001 87.9711C66.6874 88.0412 66.5747 88.1102 66.4609 88.1792C66.2344 88.3172 66.0056 88.4529 65.7768 88.5863C65.6618 88.6531 65.5457 88.7198 65.4307 88.7854V88.7888L65.4239 88.7899L65.4216 88.791L65.2463 88.834L64.9948 88.1735L64.8787 87.8693L64.7148 87.4384L64.4142 86.6501L62.832 82.4994L65.2919 81.8965L65.3841 82.2709H65.3852L65.4307 82.4564L66.2901 85.9195L66.4654 86.6275L66.4711 86.649L66.577 87.072L66.6681 87.4384L66.7694 87.8478L66.8001 87.9711Z" fill="#FFB7B7"/>
<path d="M81.472 73.3947C81.3161 73.6435 81.1567 73.8912 80.9962 74.1366C80.698 74.5935 80.3918 75.0437 80.0776 75.487C80.0776 75.4881 80.0765 75.4881 80.0754 75.4893C79.8921 75.658 79.6896 75.8049 79.4721 75.927C79.463 75.9337 79.4527 75.9383 79.4436 75.9439C79.2834 76.0319 79.1129 76.0999 78.9359 76.1464C78.8722 76.1622 78.8073 76.178 78.7436 76.1939C78.5136 76.2482 78.286 76.2945 78.0595 76.3352C77.6565 76.4065 77.2581 76.4574 76.862 76.4891C76.8301 76.4924 76.7983 76.4947 76.7664 76.497C75.1375 76.6157 73.5519 76.4246 71.8968 76.1113C71.0795 75.9575 70.2451 75.7731 69.3812 75.582C69.0989 75.5187 68.8155 75.4565 68.5286 75.3943C68.507 75.3897 68.4842 75.3841 68.4615 75.3796C68.0517 75.2902 67.6351 75.202 67.2082 75.1149C66.6709 75.0052 66.1166 74.8989 65.5406 74.7982L65.5816 75.6046C65.6157 76.2249 65.7455 76.8364 65.9663 77.4176C66.2122 78.1324 66.4069 78.6979 65.9959 79.8752L65.7979 80.4452C65.9005 80.7283 65.9358 81.0311 65.9008 81.33C65.8659 81.6289 65.7617 81.9156 65.5964 82.1677L65.5566 82.2277L67.2082 86.3795L67.3152 86.6487H66.4695L65.4291 86.6498H63.6659L61.1218 81.5785L61 81.3365V81.324L61.2629 71.5783C61.2664 71.4924 61.2732 71.4053 61.2846 71.3193C61.3309 70.9286 61.4552 70.5509 61.65 70.2084C61.8449 69.8658 62.1064 69.5653 62.4194 69.3243C62.7194 69.0914 63.0629 68.92 63.4301 68.8202C63.7973 68.7204 64.1808 68.6941 64.5583 68.7429L65.4291 68.8549L67.2082 69.0834L68.4614 69.2451L68.4865 69.2485L72.1825 69.7235L72.4477 68.6491L72.4967 68.631L74.0527 68.0643L79.4345 66.1043L79.4482 66.0998L79.8022 65.9709L79.8443 66.0387C79.8568 66.0591 79.8693 66.0795 79.8807 66.0998C80.2306 66.7231 80.5155 67.3802 80.731 68.061C81.0934 69.173 81.3917 70.3047 81.6246 71.4505C81.6348 71.5003 81.6439 71.5455 81.6519 71.5862L81.6553 71.5987C81.6587 71.6179 81.661 71.6303 81.6621 71.6337C81.7862 72.1472 81.6997 72.7738 81.472 73.3947Z" fill="#2F2E41"/>
<path d="M81.6998 69.8031C81.6827 69.7307 81.6611 69.6572 81.6383 69.586C81.4576 69.0463 81.2471 68.517 81.0077 68.0003C80.7391 67.4122 80.4169 66.7823 80.0333 66.1003C79.8478 65.77 79.6482 65.4266 79.4346 65.07C79.3276 64.8913 79.2164 64.7092 79.1011 64.5237C79.0966 64.5151 79.0916 64.5068 79.0863 64.4988L79.0533 64.4445L73.7284 65.1525L71.7455 65.416L71.6271 66.3977L71.5987 66.6409C71.5975 66.6409 71.5975 66.6409 71.5987 66.642L71.519 67.3048V67.3059L71.4131 68.1813L71.404 68.1802L68.4616 67.8013L65.4292 67.4111L63.8003 67.2019C63.4228 67.153 63.0393 67.1792 62.6721 67.279C62.3049 67.3788 61.9613 67.5502 61.6614 67.7832C61.3485 68.0243 61.087 68.3248 60.8921 68.6674C60.6973 69.0099 60.573 69.3875 60.5266 69.7783C60.5163 69.8574 60.5095 69.9389 60.5061 70.0192L58.9694 73.6372C58.0499 75.8009 57.4643 78.0902 57.2324 80.4276L56.1055 84.0072L56.266 84.0219L58.6541 84.2424L59.2847 84.3013L60.6734 82.287C60.8316 82.0574 60.9819 81.821 61.1219 81.579C61.3524 81.1837 61.5573 80.7742 61.7354 80.353L64.7394 73.2504C64.9716 73.29 65.2015 73.3277 65.4292 73.3635C66.4821 73.5331 67.4929 73.6715 68.4615 73.7786C71.6112 74.128 74.3385 74.1552 76.7665 73.8589C77.4483 73.7763 78.1074 73.6677 78.7437 73.5331C78.977 73.4845 79.2073 73.4321 79.4346 73.3759C79.4881 73.3635 79.5405 73.351 79.5928 73.3375C80.0633 73.2169 80.4957 72.9811 80.8507 72.6515C81.2057 72.3219 81.4718 71.9092 81.6247 71.451C81.8072 70.92 81.8333 70.3483 81.6998 69.8031Z" fill="#2F2E41"/>
<path d="M56.9051 87.9577L55.2284 87.1592L54.9654 87.0337L54.5454 88.0584L51.6132 88.6996C51.4682 88.7312 51.3372 88.808 51.2393 88.9189C51.1414 89.0297 51.0817 89.1687 51.069 89.3157C51.0562 89.4626 51.0912 89.6097 51.1686 89.7355C51.246 89.8614 51.3619 89.9593 51.4994 90.015L54.3644 91.1765L55.2739 90.3633L55.0508 91.4547L56.1299 91.8924L57.3126 88.1522L56.9051 87.9577Z" fill="#2F2E41"/>
<path d="M67.2109 86.3795L67.318 86.6487H67.2109V86.3795Z" fill="#2F2E41"/>
<path d="M66.6239 86.7062L64.8671 87.311L64.5913 87.4056L65.0185 88.4274L63.3891 90.933C63.3084 91.0568 63.2697 91.203 63.2786 91.3502C63.2875 91.4974 63.3436 91.6379 63.4386 91.7512C63.5336 91.8645 63.6626 91.9447 63.8067 91.9799C63.9508 92.0152 64.1025 92.0037 64.2396 91.9472L67.098 90.7696L67.1684 89.556L67.7828 90.4875L68.8595 90.0441L67.0513 86.5596L66.6239 86.7062Z" fill="#2F2E41"/>
<path d="M81.2622 71.4417C81.1579 71.4415 81.0552 71.4162 80.9629 71.3679L71.6918 66.5546L71.5847 66.1189L71.3828 64.74L71.3856 64.727L72.2673 60.6881C72.2511 60.6534 72.2174 60.5966 72.1792 60.5323C71.7856 59.8697 70.5877 57.8528 72.8739 55.0758L76.8879 50.426L80.333 50.2787L80.3723 50.3279C81.2934 51.4767 81.9147 52.8339 82.1808 54.2787C82.4469 55.7236 82.3496 57.2114 81.8976 58.6099L81.5389 65.0471L81.9236 66.3471C82.1486 67.111 82.1114 67.9276 81.8179 68.6683L81.9061 70.7732C81.9095 70.8595 81.8954 70.9456 81.8647 71.0264C81.8339 71.1071 81.787 71.1809 81.7269 71.2433C81.6669 71.3056 81.5947 71.3554 81.5149 71.3895C81.435 71.4236 81.3491 71.4413 81.2622 71.4417Z" fill="#3F3D56"/>
<path d="M73.2199 76.7504C73.377 76.6582 73.5118 76.533 73.6149 76.3834C73.7179 76.2339 73.7867 76.0637 73.8164 75.8848C73.8461 75.706 73.836 75.5229 73.7868 75.3484C73.7376 75.1738 73.6504 75.0122 73.5315 74.8747L75.7605 71.066L73.4598 71.1948L71.6959 74.7919C71.4767 75.0057 71.3441 75.292 71.3232 75.5964C71.3023 75.9009 71.3945 76.2024 71.5824 76.4438C71.7702 76.6852 72.0407 76.8497 72.3425 76.9063C72.6443 76.9628 72.9565 76.9073 73.2199 76.7504Z" fill="#FFB7B7"/>
<path d="M74.1183 73.9502L72.0586 72.3562L75.8013 65.1497L74.3989 55.9725C74.3296 55.5189 74.3616 55.0557 74.4928 54.6157C74.6239 54.1758 74.8509 53.77 75.1577 53.427C75.4644 53.084 75.8434 52.8124 76.2677 52.6313C76.692 52.4502 77.1512 52.3642 77.6127 52.3793C78.4463 52.4074 79.2346 52.763 79.8047 53.368C80.3747 53.973 80.6799 54.778 80.6534 55.6063L80.3069 66.0558L74.1183 73.9502Z" fill="#3F3D56"/>
<path d="M74.6797 48.4939V45.1067C74.6789 43.903 75.1594 42.7482 76.0156 41.8965C76.8717 41.0447 78.0333 40.5658 79.2448 40.565C80.4564 40.5642 81.6186 41.0417 82.4758 41.8923C83.3331 42.743 83.8151 43.8971 83.8159 45.1009V45.1067C84.621 46.7737 84.1173 47.5663 83.8159 48.494C83.8156 48.6555 83.7509 48.8104 83.6359 48.9246C83.521 49.0388 83.3651 49.1031 83.2025 49.1034H75.2933C75.1307 49.1032 74.9748 49.0389 74.8597 48.9247C74.7447 48.8104 74.68 48.6555 74.6797 48.4939Z" fill="#2F2E41"/>
<path d="M77.7475 48.8832C79.636 48.8832 81.1669 47.3622 81.1669 45.4858C81.1669 43.6094 79.636 42.0883 77.7475 42.0883C75.859 42.0883 74.3281 43.6094 74.3281 45.4858C74.3281 47.3622 75.859 48.8832 77.7475 48.8832Z" fill="#FFB7B7"/>
<path d="M81.3289 46.3764C81.2979 46.3716 81.2669 46.3651 81.2359 46.3602C80.7025 46.2662 80.1691 46.1738 79.6374 46.0782L79.5885 44.8806L78.9442 45.9534C77.4745 46.438 76.0995 46.1641 74.8061 45.5596C74.3794 45.3584 73.9654 45.1316 73.5664 44.8806C73.6751 44.2182 73.9314 43.5883 74.3166 43.037C74.7018 42.4857 75.2062 42.027 75.7929 41.6944C75.8418 41.6668 75.8891 41.6425 75.938 41.6182L75.9387 41.6181L75.9392 41.6177L75.9396 41.6172L75.9397 41.6166C76.0229 41.5777 76.1077 41.5404 76.1925 41.5064C76.8565 41.2485 77.5806 41.1832 78.2805 41.3181C78.9804 41.4529 79.6274 41.7823 80.1463 42.2681C81.1902 43.2583 81.66 44.8935 81.3289 46.3764Z" fill="#2F2E41"/>
</g>
<defs>
<linearGradient id="paint0_linear_733_2075" x1="17.1003" y1="38.6082" x2="65.2337" y2="38.71" gradientUnits="userSpaceOnUse">
<stop stop-color="#4E54C8"/>
<stop offset="1" stop-color="#8F94FB"/>
</linearGradient>
<clipPath id="clip0_733_2075">
<rect width="99" height="92" fill="white"/>
</clipPath>
</defs>
</svg>
