<svg width="124" height="85" viewBox="0 0 124 85" fill="none" xmlns="http://www.w3.org/2000/svg">
<g clip-path="url(#clip0_733_2047)">
<path d="M122.829 32.1735H122.796L103.581 40.3167L77.2917 51.4585C77.189 51.5013 77.0788 51.5237 76.9673 51.5243C76.8559 51.5249 76.7454 51.5036 76.6423 51.4618L49.5194 40.2935L29.8329 32.1868L29.8028 32.1735H29.7693C29.4586 32.1738 29.1608 32.2964 28.9412 32.5144C28.7215 32.7324 28.598 33.028 28.5977 33.3363V83.8371C28.598 84.1454 28.7215 84.441 28.9412 84.659C29.1608 84.877 29.4586 84.9996 29.7693 85H122.829C123.14 84.9996 123.438 84.877 123.657 84.659C123.877 84.441 124 84.1454 124.001 83.8371V33.3363C124 33.028 123.877 32.7324 123.657 32.5144C123.438 32.2964 123.14 32.1738 122.829 32.1735Z" fill="white"/>
<path d="M123.163 32.5057C123.129 32.5057 123.096 32.4953 123.068 32.4759L76.7792 0.480436C76.6383 0.383521 76.4709 0.331728 76.2995 0.332018C76.1281 0.332308 75.9609 0.384667 75.8204 0.482058L29.8651 32.4756C29.8471 32.4882 29.8268 32.497 29.8053 32.5018C29.7839 32.5065 29.7617 32.507 29.74 32.5032C29.7184 32.4995 29.6977 32.4915 29.6791 32.4798C29.6606 32.4681 29.6445 32.4529 29.6319 32.435C29.6193 32.4171 29.6103 32.397 29.6056 32.3757C29.6008 32.3544 29.6003 32.3324 29.6041 32.3109C29.6079 32.2894 29.6159 32.2688 29.6277 32.2504C29.6395 32.232 29.6548 32.2161 29.6728 32.2036L75.6282 0.210003C75.8249 0.0736755 76.059 0.00039298 76.299 1.57609e-06C76.5389 -0.000389828 76.7733 0.072128 76.9705 0.207813L123.259 32.2032C123.288 32.2235 123.31 32.2524 123.322 32.2859C123.333 32.3194 123.334 32.3556 123.323 32.3894C123.312 32.4231 123.291 32.4526 123.263 32.4735C123.234 32.4945 123.199 32.5057 123.163 32.5057Z" fill="#3F3D56"/>
<path d="M32.4922 33.6399L76.346 1.38196L120.533 35.9352L78.6055 60.6041L55.8427 55.4544L32.4922 33.6399Z" fill="#E6E6E6"/>
<path d="M57.7643 75.8411H36.0994C35.9664 75.8413 35.8346 75.8154 35.7117 75.765C35.5887 75.7146 35.477 75.6406 35.3829 75.5473C35.2887 75.454 35.2141 75.3432 35.1631 75.2212C35.1122 75.0993 35.0859 74.9685 35.0859 74.8365C35.0859 74.7045 35.1122 74.5737 35.1631 74.4518C35.2141 74.3298 35.2887 74.219 35.3829 74.1257C35.477 74.0324 35.5887 73.9584 35.7117 73.908C35.8346 73.8576 35.9664 73.8317 36.0994 73.8319H57.7643C57.8974 73.8317 58.0291 73.8576 58.1521 73.908C58.275 73.9584 58.3867 74.0324 58.4809 74.1257C58.575 74.219 58.6497 74.3298 58.7006 74.4518C58.7516 74.5737 58.7778 74.7045 58.7778 74.8365C58.7778 74.9685 58.7516 75.0993 58.7006 75.2212C58.6497 75.3432 58.575 75.454 58.4809 75.5473C58.3867 75.6406 58.275 75.7146 58.1521 75.765C58.0291 75.8154 57.8974 75.8413 57.7643 75.8411Z" fill="#6C63FF"/>
<path d="M57.7643 75.8411H36.0994C35.9664 75.8413 35.8346 75.8154 35.7117 75.765C35.5887 75.7146 35.477 75.6406 35.3829 75.5473C35.2887 75.454 35.2141 75.3432 35.1631 75.2212C35.1122 75.0993 35.0859 74.9685 35.0859 74.8365C35.0859 74.7045 35.1122 74.5737 35.1631 74.4518C35.2141 74.3298 35.2887 74.219 35.3829 74.1257C35.477 74.0324 35.5887 73.9584 35.7117 73.908C35.8346 73.8576 35.9664 73.8317 36.0994 73.8319H57.7643C57.8974 73.8317 58.0291 73.8576 58.1521 73.908C58.275 73.9584 58.3867 74.0324 58.4809 74.1257C58.575 74.219 58.6497 74.3298 58.7006 74.4518C58.7516 74.5737 58.7778 74.7045 58.7778 74.8365C58.7778 74.9685 58.7516 75.0993 58.7006 75.2212C58.6497 75.3432 58.575 75.454 58.4809 75.5473C58.3867 75.6406 58.275 75.7146 58.1521 75.765C58.0291 75.8154 57.8974 75.8413 57.7643 75.8411Z" fill="url(#paint0_linear_733_2047)"/>
<path d="M43.8723 71.5219H36.0994C35.9664 71.5221 35.8346 71.4963 35.7117 71.4459C35.5887 71.3954 35.477 71.3215 35.3829 71.2282C35.2887 71.1349 35.2141 71.0241 35.1631 70.9021C35.1122 70.7801 35.0859 70.6494 35.0859 70.5174C35.0859 70.3853 35.1122 70.2546 35.1631 70.1326C35.2141 70.0106 35.2887 69.8998 35.3829 69.8065C35.477 69.7132 35.5887 69.6393 35.7117 69.5889C35.8346 69.5384 35.9664 69.5126 36.0994 69.5128H43.8723C44.0053 69.5126 44.1371 69.5384 44.26 69.5889C44.383 69.6393 44.4947 69.7132 44.5889 69.8065C44.683 69.8998 44.7577 70.0106 44.8086 70.1326C44.8596 70.2546 44.8858 70.3853 44.8858 70.5174C44.8858 70.6494 44.8596 70.7801 44.8086 70.9021C44.7577 71.0241 44.683 71.1349 44.5889 71.2282C44.4947 71.3215 44.383 71.3954 44.26 71.4459C44.1371 71.4963 44.0053 71.5221 43.8723 71.5219Z" fill="#6C63FF"/>
<path d="M43.8723 71.5219H36.0994C35.9664 71.5221 35.8346 71.4963 35.7117 71.4459C35.5887 71.3954 35.477 71.3215 35.3829 71.2282C35.2887 71.1349 35.2141 71.0241 35.1631 70.9021C35.1122 70.7801 35.0859 70.6494 35.0859 70.5174C35.0859 70.3853 35.1122 70.2546 35.1631 70.1326C35.2141 70.0106 35.2887 69.8998 35.3829 69.8065C35.477 69.7132 35.5887 69.6393 35.7117 69.5889C35.8346 69.5384 35.9664 69.5126 36.0994 69.5128H43.8723C44.0053 69.5126 44.1371 69.5384 44.26 69.5889C44.383 69.6393 44.4947 69.7132 44.5889 69.8065C44.683 69.8998 44.7577 70.0106 44.8086 70.1326C44.8596 70.2546 44.8858 70.3853 44.8858 70.5174C44.8858 70.6494 44.8596 70.7801 44.8086 70.9021C44.7577 71.0241 44.683 71.1349 44.5889 71.2282C44.4947 71.3215 44.383 71.3954 44.26 71.4459C44.1371 71.4963 44.0053 71.5221 43.8723 71.5219Z" fill="url(#paint1_linear_733_2047)"/>
<path d="M76.9599 51.6071C76.7952 51.6073 76.6321 51.5756 76.4797 51.5137L49.4336 40.3755V5.51099C49.434 5.2027 49.5575 4.90713 49.7772 4.68913C49.9968 4.47113 50.2946 4.3485 50.6052 4.34814H102.491C102.802 4.3485 103.1 4.47113 103.319 4.68913C103.539 4.90713 103.662 5.2027 103.663 5.51099V40.3998L103.612 40.4214L77.4546 51.5083C77.298 51.5736 77.1298 51.6072 76.9599 51.6071Z" fill="white"/>
<path d="M76.9615 51.6901C76.7859 51.6903 76.612 51.6565 76.4494 51.5906L49.3516 40.431V5.51098C49.3519 5.18066 49.4843 4.86398 49.7197 4.63041C49.955 4.39684 50.2741 4.26545 50.6069 4.26508H102.493C102.826 4.26545 103.145 4.39684 103.38 4.63041C103.615 4.86398 103.748 5.18066 103.748 5.51098V40.4547L77.4892 51.5846C77.3221 51.6544 77.1427 51.6902 76.9615 51.6901ZM49.6863 40.209L76.5771 51.2834C76.8279 51.3844 77.1088 51.3828 77.3584 51.2788L103.413 40.2353V5.51098C103.413 5.26875 103.316 5.03653 103.143 4.86524C102.971 4.69396 102.737 4.59761 102.493 4.59732H50.6069C50.3628 4.59761 50.1288 4.69396 49.9563 4.86524C49.7837 5.03653 49.6866 5.26875 49.6863 5.51098V40.209Z" fill="#3F3D56"/>
<path d="M122.829 32.1735H122.796L103.581 40.3167L77.2917 51.4585C77.189 51.5013 77.0788 51.5237 76.9673 51.5243C76.8559 51.5249 76.7454 51.5036 76.6423 51.4618L49.5194 40.2935L29.8329 32.1868L29.8028 32.1735H29.7693C29.4586 32.1738 29.1608 32.2964 28.9412 32.5144C28.7215 32.7324 28.598 33.028 28.5977 33.3363V83.8371C28.598 84.1454 28.7215 84.441 28.9412 84.659C29.1608 84.877 29.4586 84.9996 29.7693 85H122.829C123.14 84.9996 123.438 84.877 123.657 84.659C123.877 84.441 124 84.1454 124.001 83.8371V33.3363C124 33.028 123.877 32.7324 123.657 32.5144C123.438 32.2964 123.14 32.1738 122.829 32.1735ZM123.666 83.8371C123.666 84.0574 123.578 84.2686 123.421 84.4244C123.264 84.5801 123.051 84.6676 122.829 84.6677H29.7693C29.5473 84.6676 29.3345 84.5801 29.1776 84.4244C29.0207 84.2686 28.9325 84.0574 28.9324 83.8371V33.3363C28.9327 33.1215 29.0167 32.9152 29.1667 32.7604C29.3167 32.6056 29.5212 32.5143 29.7375 32.5057L49.5194 40.6523L76.5135 51.7691C76.8057 51.8871 77.1331 51.8853 77.424 51.7641L103.581 40.6772L122.863 32.5057C123.078 32.515 123.282 32.6065 123.432 32.7612C123.582 32.9159 123.665 33.1219 123.666 33.3363V83.8371Z" fill="#3F3D56"/>
<path d="M72.7501 17.3807H54.339C53.9839 17.3807 53.6433 17.2406 53.3922 16.9914C53.1411 16.7422 53 16.4042 53 16.0517C53 15.6992 53.1411 15.3612 53.3922 15.112C53.6433 14.8627 53.9839 14.7227 54.339 14.7227H72.7501C73.1052 14.7227 73.4458 14.8627 73.6969 15.112C73.948 15.3612 74.0891 15.6992 74.0891 16.0517C74.0891 16.4042 73.948 16.7422 73.6969 16.9914C73.4458 17.2406 73.1052 17.3807 72.7501 17.3807Z" fill="#6C63FF"/>
<path d="M72.7501 17.3807H54.339C53.9839 17.3807 53.6433 17.2406 53.3922 16.9914C53.1411 16.7422 53 16.4042 53 16.0517C53 15.6992 53.1411 15.3612 53.3922 15.112C53.6433 14.8627 53.9839 14.7227 54.339 14.7227H72.7501C73.1052 14.7227 73.4458 14.8627 73.6969 15.112C73.948 15.3612 74.0891 15.6992 74.0891 16.0517C74.0891 16.4042 73.948 16.7422 73.6969 16.9914C73.4458 17.2406 73.1052 17.3807 72.7501 17.3807Z" fill="url(#paint2_linear_733_2047)"/>
<path d="M63.2098 11.7325H54.339C53.9839 11.7325 53.6433 11.5925 53.3922 11.3433C53.1411 11.094 53 10.756 53 10.4036C53 10.0511 53.1411 9.71306 53.3922 9.46383C53.6433 9.2146 53.9839 9.07458 54.339 9.07458H63.2098C63.5649 9.07458 63.9055 9.2146 64.1566 9.46383C64.4077 9.71306 64.5488 10.0511 64.5488 10.4036C64.5488 10.756 64.4077 11.094 64.1566 11.3433C63.9055 11.5925 63.5649 11.7325 63.2098 11.7325Z" fill="#6C63FF"/>
<path d="M63.2098 11.7325H54.339C53.9839 11.7325 53.6433 11.5925 53.3922 11.3433C53.1411 11.094 53 10.756 53 10.4036C53 10.0511 53.1411 9.71306 53.3922 9.46383C53.6433 9.2146 53.9839 9.07458 54.339 9.07458H63.2098C63.5649 9.07458 63.9055 9.2146 64.1566 9.46383C64.4077 9.71306 64.5488 10.0511 64.5488 10.4036C64.5488 10.756 64.4077 11.094 64.1566 11.3433C63.9055 11.5925 63.5649 11.7325 63.2098 11.7325Z" fill="url(#paint3_linear_733_2047)"/>
<path d="M90.3211 30.6703H62.2023C61.8471 30.6703 61.5066 30.5303 61.2555 30.2811C61.0044 30.0319 60.8633 29.6938 60.8633 29.3414C60.8633 28.9889 61.0044 28.6509 61.2555 28.4016C61.5066 28.1524 61.8471 28.0124 62.2023 28.0124H90.3211C90.6762 28.0124 91.0168 28.1524 91.2679 28.4016C91.519 28.6509 91.6601 28.9889 91.6601 29.3414C91.6601 29.6938 91.519 30.0319 91.2679 30.2811C91.0168 30.5303 90.6762 30.6703 90.3211 30.6703Z" fill="#CCCCCC"/>
<path d="M90.3211 36.8168H62.2023C61.8471 36.8168 61.5066 36.6768 61.2555 36.4276C61.0044 36.1783 60.8633 35.8403 60.8633 35.4878C60.8633 35.1354 61.0044 34.7973 61.2555 34.5481C61.5066 34.2989 61.8471 34.1589 62.2023 34.1589H90.3211C90.6762 34.1589 91.0168 34.2989 91.2679 34.5481C91.519 34.7973 91.6601 35.1354 91.6601 35.4878C91.6601 35.8403 91.519 36.1783 91.2679 36.4276C91.0168 36.6768 90.6762 36.8168 90.3211 36.8168Z" fill="#CCCCCC"/>
<path d="M6.85499 38.3704C6.68103 38.3701 6.51251 38.3102 6.37797 38.2007C6.24342 38.0912 6.15112 37.939 6.11669 37.7698L5.50767 34.7565C5.18468 33.1581 5.51464 31.4979 6.42497 30.141C7.33529 28.7842 8.75141 27.8418 10.3618 27.5212C11.9722 27.2007 13.6449 27.5281 15.012 28.4317C16.3791 29.3352 17.3286 30.7407 17.6516 32.339L18.2604 35.3523C18.2995 35.5467 18.2593 35.7485 18.1487 35.9134C18.038 36.0784 17.8659 36.193 17.6702 36.2322L7.00341 38.3557C6.95454 38.3655 6.90483 38.3704 6.85499 38.3704Z" fill="#2F2E41"/>
<path d="M25.792 83.2365L23.8786 83.2363L22.9688 75.911L25.7927 75.9112L25.792 83.2365Z" fill="#A0616A"/>
<path d="M22.511 82.6937H26.2012V84.9997H20.1875C20.1875 84.3881 20.4323 83.8016 20.868 83.3691C21.3038 82.9366 21.8947 82.6937 22.511 82.6937Z" fill="#2F2E41"/>
<path d="M5.85179 83.2174L4.08984 82.4768L6.1298 75.3792L8.73011 76.4724L5.85179 83.2174Z" fill="#A0616A"/>
<path d="M3.04575 81.4481L6.44375 82.8765L5.5376 85L9.36739e-05 82.6722C0.119092 82.3933 0.292264 82.1405 0.509724 81.928C0.727184 81.7156 0.984673 81.5477 1.26749 81.4341C1.5503 81.3204 1.85291 81.2631 2.15802 81.2655C2.46314 81.2679 2.76478 81.33 3.04575 81.4481Z" fill="#2F2E41"/>
<path d="M11.7554 37.6153C14.0258 37.6153 15.8663 35.7886 15.8663 33.5352C15.8663 31.2818 14.0258 29.4551 11.7554 29.4551C9.48503 29.4551 7.64453 31.2818 7.64453 33.5352C7.64453 35.7886 9.48503 37.6153 11.7554 37.6153Z" fill="#A0616A"/>
<path d="M11.9486 52.0962L11.9064 51.9602C10.7862 48.3463 9.62836 44.6111 8.46888 41.0584L8.4375 40.9626L8.50876 40.8907C10.3085 39.0736 13.6801 38.3487 16.3517 39.2052C19.0404 40.0667 20.8932 42.483 20.6616 44.8258C20.5384 46.2333 20.9194 47.6388 21.7375 48.795L21.8447 48.9494L21.677 49.0364C18.6735 50.5704 15.4338 51.5975 12.0905 52.0757L11.9486 52.0962Z" fill="#3F3D56"/>
<path d="M6.99134 81.9011C6.84475 81.9009 6.70082 81.8624 6.57401 81.7894L4.3534 80.5165C4.17124 80.4134 4.03504 80.2457 3.97204 80.0472C3.90903 79.8487 3.92387 79.6338 4.01359 79.4457L8.94789 67.8251L12.7189 50.8767L19.5914 48.3964L19.6539 48.425C27.022 51.7842 26.4525 75.8624 26.2634 80.6551C26.2549 80.8567 26.1728 81.0484 26.0325 81.1944C25.8921 81.3404 25.703 81.4307 25.5005 81.4485L23.4339 81.7165C23.2238 81.7349 23.0144 81.6745 22.8468 81.5474C22.6793 81.4202 22.5657 81.2354 22.5285 81.0293L18.3095 62.3151C18.3053 62.2795 18.2896 62.2463 18.2648 62.2203C18.24 62.1943 18.2074 62.177 18.1719 62.1709C18.1378 62.1644 18.1026 62.1688 18.0712 62.1835C18.0399 62.1982 18.014 62.2224 17.9974 62.2526L7.72315 81.4753C7.66903 81.5718 7.59598 81.6566 7.50831 81.7246C7.42065 81.7927 7.32015 81.8426 7.21273 81.8715C7.14059 81.891 7.06614 81.901 6.99134 81.9011Z" fill="#2F2E41"/>
<path d="M9.45928 64.8228C9.58905 64.635 9.67575 64.4212 9.71328 64.1966C9.7508 63.9719 9.73825 63.7418 9.67648 63.5225C9.61472 63.3032 9.50526 63.1 9.35581 62.9272C9.20636 62.7544 9.02055 62.6162 8.81148 62.5224L8.92387 58.9645L6.76209 58.3694L6.67449 63.396C6.53898 63.7551 6.54088 64.151 6.67983 64.5087C6.81877 64.8665 7.08511 65.1612 7.42837 65.3371C7.77163 65.513 8.16797 65.5577 8.54228 65.463C8.91659 65.3682 9.24286 65.1404 9.45928 64.8228Z" fill="#A0616A"/>
<path d="M6.7038 61.062L6.57693 61.0614C6.36781 61.06 6.16689 60.9804 6.01419 60.8386C5.8615 60.6968 5.76822 60.5031 5.75293 60.2961C5.54559 57.6463 4.90886 48.6201 5.42165 43.7264C5.48959 43.2698 5.6492 42.8313 5.89101 42.4369C6.13283 42.0426 6.45193 41.7005 6.82942 41.4308C7.20691 41.1611 7.6351 40.9693 8.08861 40.8669C8.54213 40.7645 9.01175 40.7535 9.46964 40.8345L9.60163 40.8634L9.60065 40.9977C9.55365 47.4363 9.55668 53.8372 9.55962 60.0275C9.56008 60.2165 9.49556 60.4 9.37671 60.5477C9.25787 60.6954 9.09181 60.7984 8.90598 60.8398C8.18153 60.9885 7.4436 61.063 6.7038 61.062Z" fill="#6C63FF"/>
<path d="M6.7038 61.062L6.57693 61.0614C6.36781 61.06 6.16689 60.9804 6.01419 60.8386C5.8615 60.6968 5.76822 60.5031 5.75293 60.2961C5.54559 57.6463 4.90886 48.6201 5.42165 43.7264C5.48959 43.2698 5.6492 42.8313 5.89101 42.4369C6.13283 42.0426 6.45193 41.7005 6.82942 41.4308C7.20691 41.1611 7.6351 40.9693 8.08861 40.8669C8.54213 40.7645 9.01175 40.7535 9.46964 40.8345L9.60163 40.8634L9.60065 40.9977C9.55365 47.4363 9.55668 53.8372 9.55962 60.0275C9.56008 60.2165 9.49556 60.4 9.37671 60.5477C9.25787 60.6954 9.09181 60.7984 8.90598 60.8398C8.18153 60.9885 7.4436 61.063 6.7038 61.062Z" fill="#676DE7"/>
<path d="M11.6261 68.7839C11.0728 68.7815 10.5392 68.5789 10.1256 68.214C9.71204 67.8491 9.44675 67.347 9.3795 66.8018L9.56155 51.9421L6.58581 44.4716C6.46058 43.4903 6.67327 42.4957 7.18933 41.6494C7.70538 40.8031 8.49451 40.1548 9.42859 39.8097L10.2241 39.5136C10.3744 39.4576 10.5344 39.4317 10.6948 39.4373C10.8553 39.4428 11.013 39.4798 11.159 39.546C11.3051 39.6123 11.4365 39.7064 11.5457 39.8232C11.655 39.94 11.7399 40.077 11.7957 40.2264L14.8641 48.449L14.8649 48.461C15.0777 51.7336 16.0379 68.0216 14.1233 68.5075C13.312 68.6961 12.4811 68.7888 11.6479 68.7837L11.6261 68.7839Z" fill="#6C63FF"/>
<path d="M11.6261 68.7839C11.0728 68.7815 10.5392 68.5789 10.1256 68.214C9.71204 67.8491 9.44675 67.347 9.3795 66.8018L9.56155 51.9421L6.58581 44.4716C6.46058 43.4903 6.67327 42.4957 7.18933 41.6494C7.70538 40.8031 8.49451 40.1548 9.42859 39.8097L10.2241 39.5136C10.3744 39.4576 10.5344 39.4317 10.6948 39.4373C10.8553 39.4428 11.013 39.4798 11.159 39.546C11.3051 39.6123 11.4365 39.7064 11.5457 39.8232C11.655 39.94 11.7399 40.077 11.7957 40.2264L14.8641 48.449L14.8649 48.461C15.0777 51.7336 16.0379 68.0216 14.1233 68.5075C13.312 68.6961 12.4811 68.7888 11.6479 68.7837L11.6261 68.7839Z" fill="#676DE7"/>
<path d="M29.3054 59.2127C29.0928 59.1271 28.9017 58.9963 28.7455 58.8294C28.5894 58.6626 28.472 58.4638 28.4016 58.2471C28.3312 58.0303 28.3096 57.8009 28.3382 57.5749C28.3668 57.349 28.445 57.132 28.5672 56.9393L26.4961 54.0332L27.9685 52.3533L30.8352 56.498C31.1478 56.7233 31.3663 57.0546 31.4492 57.429C31.5321 57.8035 31.4738 58.1951 31.2852 58.5298C31.0967 58.8644 30.791 59.1187 30.4261 59.2446C30.0612 59.3705 29.6625 59.3591 29.3054 59.2127Z" fill="#A0616A"/>
<path d="M27.2371 55.4779C27.1289 55.4747 27.0231 55.4458 26.9285 55.3935C26.834 55.3413 26.7534 55.2672 26.6937 55.1776L26.6829 55.1613C23.2559 50.0131 19.7122 44.6898 16.1207 39.383L16.082 39.3258L16.1315 39.2775C16.4465 38.9857 16.8177 38.7601 17.2228 38.6143C17.6279 38.4684 18.0585 38.4054 18.4888 38.429C18.9317 38.437 19.368 38.5377 19.7691 38.7244C20.1702 38.9111 20.5271 39.1797 20.8165 39.5127C23.955 43.3028 28.4342 51.1693 29.7323 53.4901C29.8142 53.6342 29.8385 53.8036 29.8002 53.9647C29.7619 54.1257 29.6639 54.2666 29.5257 54.3591C28.8884 54.7898 28.2056 55.1503 27.4896 55.4342C27.4093 55.4655 27.3234 55.4804 27.2371 55.4779Z" fill="#6C63FF"/>
<path d="M27.2371 55.4779C27.1289 55.4747 27.0231 55.4458 26.9285 55.3935C26.834 55.3413 26.7534 55.2672 26.6937 55.1776L26.6829 55.1613C23.2559 50.0131 19.7122 44.6898 16.1207 39.383L16.082 39.3258L16.1315 39.2775C16.4465 38.9857 16.8177 38.7601 17.2228 38.6143C17.6279 38.4684 18.0585 38.4054 18.4888 38.429C18.9317 38.437 19.368 38.5377 19.7691 38.7244C20.1702 38.9111 20.5271 39.1797 20.8165 39.5127C23.955 43.3028 28.4342 51.1693 29.7323 53.4901C29.8142 53.6342 29.8385 53.8036 29.8002 53.9647C29.7619 54.1257 29.6639 54.2666 29.5257 54.3591C28.8884 54.7898 28.2056 55.1503 27.4896 55.4342C27.4093 55.4655 27.3234 55.4804 27.2371 55.4779Z" fill="#676DE7"/>
<path d="M26.0846 65.472C24.0319 65.4733 16.6876 51.4377 15.2362 48.624L15.2236 48.59L13.618 39.9802C13.5888 39.8235 13.591 39.6627 13.6246 39.5069C13.6582 39.3511 13.7224 39.2034 13.8137 39.0723C13.9049 38.9412 14.0213 38.8293 14.1563 38.7429C14.2912 38.6566 14.442 38.5976 14.6 38.5692L15.4362 38.4192C16.4165 38.2408 17.4288 38.3966 18.3087 38.8612C19.1886 39.3258 19.8845 40.072 20.2833 40.9786L22.3812 49.7311L29.3964 61.5609C29.6268 62.0677 29.6606 62.6411 29.4915 63.1711C29.3223 63.7012 28.9621 64.1507 28.4797 64.4334C27.7667 64.8615 27.0051 65.2042 26.2109 65.4545C26.1698 65.4663 26.1273 65.4722 26.0846 65.472Z" fill="#6C63FF"/>
<path d="M26.0846 65.472C24.0319 65.4733 16.6876 51.4377 15.2362 48.624L15.2236 48.59L13.618 39.9802C13.5888 39.8235 13.591 39.6627 13.6246 39.5069C13.6582 39.3511 13.7224 39.2034 13.8137 39.0723C13.9049 38.9412 14.0213 38.8293 14.1563 38.7429C14.2912 38.6566 14.442 38.5976 14.6 38.5692L15.4362 38.4192C16.4165 38.2408 17.4288 38.3966 18.3087 38.8612C19.1886 39.3258 19.8845 40.072 20.2833 40.9786L22.3812 49.7311L29.3964 61.5609C29.6268 62.0677 29.6606 62.6411 29.4915 63.1711C29.3223 63.7012 28.9621 64.1507 28.4797 64.4334C27.7667 64.8615 27.0051 65.2042 26.2109 65.4545C26.1698 65.4663 26.1273 65.4722 26.0846 65.472Z" fill="#676DE7"/>
<path d="M14.9452 33.5705H6.66016V32.5737C6.6614 31.4727 7.10265 30.4171 7.8871 29.6385C8.67155 28.8599 9.73513 28.422 10.8445 28.4207H11.514C12.6234 28.422 13.687 28.8599 14.4714 29.6385C15.2558 30.4171 15.6971 31.4727 15.6983 32.5737V32.8229C15.6981 33.0211 15.6187 33.2111 15.4775 33.3513C15.3363 33.4914 15.1448 33.5703 14.9452 33.5705Z" fill="#2F2E41"/>
</g>
<defs>
<linearGradient id="paint0_linear_733_2047" x1="35.5562" y1="74.8623" x2="58.5688" y2="75.4324" gradientUnits="userSpaceOnUse">
<stop stop-color="#4E54C8"/>
<stop offset="1" stop-color="#8F94FB"/>
</linearGradient>
<linearGradient id="paint1_linear_733_2047" x1="35.2805" y1="70.5431" x2="44.8042" y2="70.6407" gradientUnits="userSpaceOnUse">
<stop stop-color="#4E54C8"/>
<stop offset="1" stop-color="#8F94FB"/>
</linearGradient>
<linearGradient id="paint2_linear_733_2047" x1="53.4186" y1="16.0858" x2="73.9099" y2="16.4274" gradientUnits="userSpaceOnUse">
<stop stop-color="#4E54C8"/>
<stop offset="1" stop-color="#8F94FB"/>
</linearGradient>
<linearGradient id="paint3_linear_733_2047" x1="53.2293" y1="10.4376" x2="64.4528" y2="10.5401" gradientUnits="userSpaceOnUse">
<stop stop-color="#4E54C8"/>
<stop offset="1" stop-color="#8F94FB"/>
</linearGradient>
<clipPath id="clip0_733_2047">
<rect width="124" height="85" fill="white"/>
</clipPath>
</defs>
</svg>
