<svg width="141" height="129" viewBox="0 0 141 129" fill="none" xmlns="http://www.w3.org/2000/svg">
<g clip-path="url(#clip0_733_1937)">
<path d="M62.6233 31.1477H0.0273438V71.3508H62.6233V31.1477Z" fill="#F2F2F2"/>
<path d="M60.8325 36.1902H1.81641V68.9724H60.8325V36.1902Z" fill="white"/>
<path d="M62.596 31.1121H0V33.7789H62.596V31.1121Z" fill="#6C63FF"/>
<path d="M62.596 31.1121H0V33.7789H62.596V31.1121Z" fill="url(#paint0_linear_733_1937)"/>
<path d="M1.97726 32.9698C2.24947 32.9698 2.47014 32.7485 2.47014 32.4755C2.47014 32.2025 2.24947 31.9812 1.97726 31.9812C1.70505 31.9812 1.48438 32.2025 1.48438 32.4755C1.48438 32.7485 1.70505 32.9698 1.97726 32.9698Z" fill="white"/>
<path d="M3.84835 32.9698C4.12056 32.9698 4.34123 32.7485 4.34123 32.4755C4.34123 32.2025 4.12056 31.9812 3.84835 31.9812C3.57614 31.9812 3.35547 32.2025 3.35547 32.4755C3.35547 32.7485 3.57614 32.9698 3.84835 32.9698Z" fill="white"/>
<path d="M5.71944 32.9698C5.99165 32.9698 6.21232 32.7485 6.21232 32.4755C6.21232 32.2025 5.99165 31.9812 5.71944 31.9812C5.44723 31.9812 5.22656 32.2025 5.22656 32.4755C5.22656 32.7485 5.44723 32.9698 5.71944 32.9698Z" fill="white"/>
<path d="M22.3441 39.5916H7.17969V65.5709H22.3441V39.5916Z" fill="#F2F2F2"/>
<path d="M37.5979 39.5916H24.9609V46.7427H37.5979V39.5916Z" fill="#6C63FF"/>
<path d="M37.5979 39.5916H24.9609V46.7427H37.5979V39.5916Z" fill="url(#paint1_linear_733_1937)"/>
<path d="M37.5979 48.7341H24.9609V56.4284H37.5979V48.7341Z" fill="#F2F2F2"/>
<path d="M37.5979 58.4198H24.9609V65.571H37.5979V58.4198Z" fill="#F2F2F2"/>
<path d="M55.4691 39.5916H40.3047V50.9132H55.4691V39.5916Z" fill="#F2F2F2"/>
<path d="M55.4691 54.2493H40.3047V65.5709H55.4691V54.2493Z" fill="#F2F2F2"/>
<path d="M140.998 31.1477H78.4023V71.3508H140.998V31.1477Z" fill="#F2F2F2"/>
<path d="M139.211 36.1902H80.1953V68.9724H139.211V36.1902Z" fill="white"/>
<path d="M140.975 31.1121H78.3789V33.7789H140.975V31.1121Z" fill="#6C63FF"/>
<path d="M140.975 31.1121H78.3789V33.7789H140.975V31.1121Z" fill="url(#paint2_linear_733_1937)"/>
<path d="M80.3523 32.9698C80.6245 32.9698 80.8451 32.7485 80.8451 32.4755C80.8451 32.2025 80.6245 31.9812 80.3523 31.9812C80.08 31.9812 79.8594 32.2025 79.8594 32.4755C79.8594 32.7485 80.08 32.9698 80.3523 32.9698Z" fill="white"/>
<path d="M82.2234 32.9698C82.4956 32.9698 82.7162 32.7485 82.7162 32.4755C82.7162 32.2025 82.4956 31.9812 82.2234 31.9812C81.9511 31.9812 81.7305 32.2025 81.7305 32.4755C81.7305 32.7485 81.9511 32.9698 82.2234 32.9698Z" fill="white"/>
<path d="M84.0944 32.9698C84.3667 32.9698 84.5873 32.7485 84.5873 32.4755C84.5873 32.2025 84.3667 31.9812 84.0944 31.9812C83.8222 31.9812 83.6016 32.2025 83.6016 32.4755C83.6016 32.7485 83.8222 32.9698 84.0944 32.9698Z" fill="white"/>
<path d="M133.832 39.5916H118.668V65.5709H133.832V39.5916Z" fill="#F2F2F2"/>
<path d="M116.157 39.5911H85.5703V46.7422H116.157V39.5911Z" fill="#6C63FF"/>
<path d="M116.157 39.5911H85.5703V46.7422H116.157V39.5911Z" fill="url(#paint3_linear_733_1937)"/>
<path d="M116.157 48.7337H85.5703V56.4279H116.157V48.7337Z" fill="#F2F2F2"/>
<path d="M116.157 58.4194H85.5703V65.5705H116.157V58.4194Z" fill="#F2F2F2"/>
<path d="M70.1468 0H69.7969V19.1706H70.1468V0Z" fill="#CCCCCC"/>
<path d="M105.134 31.101H104.784V19.3461H35.1546V31.101H34.8047V18.9952H105.134V31.101Z" fill="#CCCCCC"/>
<path d="M72.5447 53.5932L72.2812 52.2722C72.2812 52.2722 68.4062 50.9512 67.9727 53.5932H72.5447Z" fill="#E6E6E6"/>
<path d="M65.1084 126.329L62.5679 126.329L61.3594 116.503L65.1087 116.503L65.1084 126.329Z" fill="#FFB8B8"/>
<path d="M65.7578 128.799L57.5664 128.799V128.695C57.5665 127.847 57.9024 127.034 58.5003 126.434C59.0982 125.834 59.9091 125.497 60.7547 125.497H60.7549L65.7579 125.498L65.7578 128.799Z" fill="#2F2E41"/>
<path d="M73.8402 126.329L76.3806 126.329L77.5892 116.503L73.8398 116.503L73.8402 126.329Z" fill="#FFB8B8"/>
<path d="M73.1953 125.498L78.1983 125.497H78.1985C79.0441 125.497 79.855 125.834 80.4529 126.434C81.0508 127.034 81.3868 127.847 81.3868 128.695V128.799L73.1955 128.799L73.1953 125.498Z" fill="#2F2E41"/>
<path d="M76.2344 59.1414L79.1322 58.8772L80.9764 67.5958L80.7129 75.5218L77.815 86.0898L73.8633 83.7119L75.9709 72.8797L76.2344 59.1414Z" fill="#2F2E41"/>
<path d="M78.0682 85.165L77.4195 90.7131L78.2099 103.659V122.951L73.2043 122.681L72.1506 102.602L69.2525 93.3552L67.1449 103.923L65.8277 123.738L60.6903 123.325V103.854L60.5586 89.6564L62.4027 84.1083L78.0682 85.165Z" fill="#2F2E41"/>
<path d="M67.2777 53.8574C67.2777 53.8574 69.1218 51.2154 72.5467 53.0648L74.1274 55.1784L79.133 58.8772L78.0792 71.2945L79.3964 86.8823L60.6914 86.6181L63.8528 71.0303V54.3858L67.2777 53.8574Z" fill="#2F2E41"/>
<path opacity="0.25" d="M77.4186 63.2625L78.9292 81.3752L77.0234 71.5588L77.4186 63.2625Z" fill="black"/>
<path d="M63.6784 90.2505C63.8607 90.0321 63.9931 89.7762 64.0662 89.501C64.1392 89.2257 64.1512 88.9377 64.1013 88.6572C64.0514 88.3768 63.9407 88.1108 63.7772 87.8779C63.6136 87.6449 63.4011 87.4508 63.1547 87.3092L63.7179 82.8923L61.1249 81.8944L60.4169 88.1431C60.207 88.5741 60.1621 89.0673 60.2906 89.5292C60.4191 89.9912 60.7122 90.3898 61.1142 90.6496C61.5162 90.9094 61.9993 91.0122 62.4719 90.9387C62.9445 90.8651 63.3738 90.6203 63.6784 90.2505Z" fill="#FFB8B8"/>
<path d="M60.4254 85.8255H64.6406V83.9761H60.4254V85.8255Z" fill="#E6E6E6"/>
<path d="M66.6175 56.6315L63.8513 54.3858C63.8513 54.3858 61.8754 54.2537 61.612 57.1599C61.3485 60.0661 61.028 72.4834 61.028 72.4834L60.0312 84.9008L65.5637 85.165L66.6175 71.7252V56.6315Z" fill="#2F2E41"/>
<path d="M74.8489 48.0451C76.2504 45.4741 75.3082 42.2505 72.7445 40.8451C70.1808 39.4397 66.9664 40.3846 65.5649 42.9555C64.1634 45.5265 65.1056 48.7501 67.6694 50.1555C70.2331 51.5609 73.4475 50.6161 74.8489 48.0451Z" fill="#FFB8B8"/>
<path d="M69.8115 50.1803C71.1058 50.4919 72.4694 50.31 73.6375 49.6699C74.8055 49.0298 75.6947 47.9772 76.1323 46.7166C76.5699 45.4559 76.5246 44.0771 76.0054 42.848C75.4861 41.6189 74.5299 40.6272 73.3224 40.0655C72.3925 39.6493 71.3756 39.4663 70.3594 39.5323C68.7772 39.6157 67.2394 40.2022 65.6556 40.159L65.4261 40.529L64.5609 40.3186L64.3756 41.0074L64.1477 40.9995C63.7395 41.7602 64.3962 42.8494 65.2576 42.8402C65.5987 42.8365 65.9211 42.694 66.2546 42.6224C66.5881 42.5507 66.9809 42.5686 67.2108 42.8211C67.5097 43.1494 67.3796 43.6616 67.3173 44.1017C67.2549 44.5418 67.4106 45.1346 67.8536 45.1489C68.0799 45.1563 68.2951 44.9935 68.5175 45.0363C68.7765 45.0861 68.9074 45.3998 68.8696 45.6615C68.8054 45.9183 68.7008 46.1632 68.5597 46.387C67.9175 47.6725 68.4598 49.4213 69.7157 50.1149" fill="#2F2E41"/>
<path d="M103.299 129H36.6437C36.5973 129 36.5528 128.982 36.52 128.949C36.4872 128.916 36.4688 128.871 36.4688 128.825C36.4688 128.778 36.4872 128.733 36.52 128.7C36.5528 128.668 36.5973 128.649 36.6437 128.649H103.299C103.346 128.649 103.39 128.668 103.423 128.7C103.456 128.733 103.474 128.778 103.474 128.825C103.474 128.871 103.456 128.916 103.423 128.949C103.39 128.982 103.346 129 103.299 129Z" fill="#CCCCCC"/>
</g>
<defs>
<linearGradient id="paint0_linear_733_1937" x1="1.2426" y1="32.4797" x2="61.9334" y2="35.4728" gradientUnits="userSpaceOnUse">
<stop stop-color="#4E54C8"/>
<stop offset="1" stop-color="#8F94FB"/>
</linearGradient>
<linearGradient id="paint1_linear_733_1937" x1="25.2118" y1="43.2588" x2="37.4938" y2="43.3044" gradientUnits="userSpaceOnUse">
<stop stop-color="#4E54C8"/>
<stop offset="1" stop-color="#8F94FB"/>
</linearGradient>
<linearGradient id="paint2_linear_733_1937" x1="79.6215" y1="32.4797" x2="140.312" y2="35.4728" gradientUnits="userSpaceOnUse">
<stop stop-color="#4E54C8"/>
<stop offset="1" stop-color="#8F94FB"/>
</linearGradient>
<linearGradient id="paint3_linear_733_1937" x1="86.1775" y1="43.2584" x2="115.903" y2="43.5255" gradientUnits="userSpaceOnUse">
<stop stop-color="#4E54C8"/>
<stop offset="1" stop-color="#8F94FB"/>
</linearGradient>
<clipPath id="clip0_733_1937">
<rect width="141" height="129" fill="white"/>
</clipPath>
</defs>
</svg>
