<svg width="136" height="88" viewBox="0 0 136 88" fill="none" xmlns="http://www.w3.org/2000/svg">
<g clip-path="url(#clip0_733_2210)">
<path d="M98.6788 82.5591L97.9722 73.7335L95.9531 83.0663C95.9531 83.0663 95.9798 85.4208 96.0467 88H98.6334C98.7205 85.0517 98.6788 82.5591 98.6788 82.5591Z" fill="#F2F2F2"/>
<path d="M62.3442 85.6978C62.1453 84.8725 62.005 84.0341 61.9241 83.1888L61.6415 80.1359C61.5226 79.2997 61.4005 78.563 61.2778 77.9127C60.3777 73.2763 59.4485 73.1086 59.4485 73.1086C59.4086 73.1394 59.3698 73.1734 59.3299 73.2085C59.2207 73.3083 59.119 73.4161 59.0256 73.531C57.5458 75.4211 56.5419 80.3232 56.0145 83.5751C55.7232 85.3714 55.5781 86.664 55.5781 86.664C55.5781 86.664 55.71 87.2146 55.8898 88H62.6427C62.6171 87.2247 62.5171 86.4538 62.3442 85.6978Z" fill="#F2F2F2"/>
<path d="M115.443 0H20.5565C9.25043 0 0 9.29548 0 20.6566V67.3434C0 78.7045 9.25043 88 20.5565 88H50.6305L50.2425 86.164C50.2425 86.164 49.2443 79.6912 50.2425 74.6446C50.5648 73.0612 50.7859 71.4588 50.9046 69.847C51.0295 68.0274 51.3255 66.2238 51.7886 64.4603C51.815 64.3585 51.8446 64.2576 51.8722 64.1561C51.6287 64.0896 51.5169 64.0364 51.5734 64.0028C51.7294 63.9103 51.8152 63.6268 51.8579 63.2671C52.1238 60.8857 52.6308 58.5378 53.3712 56.2599C52.3625 56.8962 51.6928 56.9637 51.2544 56.7172C49.7138 56.2944 50.3534 52.8125 50.3534 52.8125C50.3534 52.8125 51.3108 45.2816 51.6289 42.5548C51.8117 40.9874 54.1545 40.0992 56.2284 39.6169C56.4469 39.1459 56.6043 38.6714 56.5044 38.1734C56.4977 38.1399 56.488 38.1075 56.4791 38.0747C56.2155 37.4862 55.6794 37.002 55.4783 36.3925C55.3891 36.2284 55.3263 36.0513 55.2922 35.8676C55.1141 34.8226 56.0864 33.92 56.3667 32.915C56.0808 32.6374 55.8672 32.2933 55.745 31.9132C55.3178 31.0326 55.5261 29.9758 56.898 29.1598C57.1719 28.9969 57.4621 28.8531 57.7569 28.7152C57.8648 28.6451 57.9823 28.5909 58.1056 28.5545C59.0872 28.1083 60.0739 27.6766 60.6613 26.8079C60.8126 26.5842 60.9453 26.3247 61.1901 26.2071C61.3054 26.1575 61.4288 26.1297 61.5542 26.1252C63.4456 25.9792 65.1582 27.6091 67.0407 27.3755C67.6109 27.3048 68.1931 27.0639 68.7404 27.2373C69.1001 27.3512 69.3808 27.6288 69.6226 27.9159C70.2804 28.7051 70.7568 29.6305 71.0178 30.626C71.2787 31.6216 71.3177 32.6627 71.1319 33.6751C70.8932 34.9213 70.3128 36.2056 70.7311 37.4046C71.0384 38.2855 71.8612 39.0005 71.867 39.9324C71.8718 40.6992 71.3302 41.311 70.8068 41.9077C70.8748 41.9776 70.9412 42.0494 71.0058 42.1232C72.2847 43.5875 72.043 44.8372 71.8627 45.3376L71.8627 45.3378L71.205 51.7154L70.6504 55.9941C70.6504 55.9941 70.5133 57.75 69.2217 58.1351C68.8453 58.31 68.3525 58.3561 67.7046 58.158C67.2841 58.0294 66.9299 57.9009 66.6292 57.776C66.9133 58.688 67.4025 60.55 67.323 62.3572C67.2121 64.8805 67.5449 65.0999 67.5449 65.0999C67.524 65.1258 67.5003 65.1493 67.4743 65.17C68.7918 68.095 68.8039 71.096 67.434 74.096C65.8812 77.497 67.5449 85.3961 67.5449 85.3961C67.5449 85.3961 67.6633 86.6282 67.7165 88H91.5365C91.1577 84.3689 90.7025 80.7337 90.5004 80.3274C90.1671 79.6575 90.5903 68.6214 90.7482 64.7881C90.678 64.7703 90.6094 64.7521 90.5448 64.7335C90.4322 64.701 90.331 64.6672 90.2374 64.6326C90.2327 64.8277 90.2532 65.0225 90.2985 65.2123C90.4387 65.541 90.1024 65.7826 89.531 65.9475C89.8634 67.5772 90.2739 70.6099 88.8851 71.1975C87.4566 71.8019 87.428 68.1303 87.5064 66.2165C87.3263 66.2232 87.1456 66.2267 86.967 66.2267C85.2508 66.2267 87.4718 46.2423 87.3709 44.9236C87.2699 43.6048 88.1785 38.2283 88.1785 38.2283C88.1785 38.2283 88.4813 37.1124 89.3899 36.9095C90.2984 36.7066 94.6394 34.1706 94.6394 34.1706C94.8835 33.8259 95.1921 33.5323 95.548 33.3062V33.1561C95.6611 33.0502 95.7815 32.9523 95.9083 32.8631C95.8553 31.9767 95.736 30.8332 95.649 30.0606C95.161 29.561 94.8314 28.9272 94.7018 28.2394C94.5158 28.0935 94.3392 27.9359 94.1732 27.7675C93.7563 27.2872 93.5172 26.6771 93.4961 26.0402C93.4776 25.4076 93.5687 24.7765 93.7653 24.1753C93.8167 23.9755 93.8954 23.7839 93.9992 23.6059C94.142 23.3994 94.3211 23.221 94.5277 23.0793C94.589 23.0336 94.6523 22.9909 94.7154 22.9478C94.8493 22.6865 95.0455 22.4626 95.2866 22.2963C95.8019 21.9563 96.4649 21.9841 97.0811 21.9995C97.0902 21.9998 97.0997 21.9997 97.109 21.9998C97.2233 21.9813 97.338 21.966 97.4531 21.9539C97.5204 21.9405 97.5824 21.9077 97.6314 21.8594C97.6804 21.8112 97.7144 21.7496 97.7291 21.6822C97.8125 21.7627 97.8959 21.8433 97.9793 21.9238C98.1045 21.9219 98.2295 21.9241 98.3545 21.9302C98.4099 21.8029 98.4749 21.6801 98.549 21.5629C98.5948 21.694 98.6405 21.825 98.6862 21.956C98.8118 21.9695 98.9369 21.9864 99.0614 22.0081C99.1595 21.9298 99.2576 21.8514 99.3557 21.7731C99.3775 21.7557 99.4556 22.0124 99.495 22.1005C99.5626 22.118 99.6299 22.1365 99.6966 22.1572C99.8009 22.1525 99.9168 22.1328 99.9812 22.1339C100.336 22.1218 100.688 22.2099 100.996 22.3881C101.265 22.5847 101.485 22.8405 101.641 23.136C102.037 23.7665 102.283 24.4806 102.36 25.2226C102.553 25.4909 102.689 25.796 102.76 26.1192C102.926 27.1376 101.963 27.9885 101.772 29.0026C101.671 29.5436 101.787 30.1427 101.513 30.6194C101.392 30.8113 101.235 30.977 101.05 31.1066C100.941 31.1886 100.827 31.2642 100.708 31.3328C100.715 31.9462 100.785 32.5573 100.917 33.1561L101.047 33.6566C101.249 33.8029 101.467 33.972 101.706 34.1706C101.706 34.1706 104.533 35.3879 105.542 35.9965C106.43 36.5316 107.395 36.5969 107.684 37.294L107.763 37.3153C107.763 37.3153 108.773 48.5756 108.874 50.503C108.975 52.4304 110.186 64.2993 109.984 64.8065C109.909 64.9942 109.433 65.2096 108.858 65.381C109.194 66.9216 109.736 70.2722 108.268 70.8931C106.78 71.5226 106.811 67.514 106.899 65.6836C106.701 65.6656 106.571 65.6134 106.552 65.5166C106.535 65.4342 106.483 65.0617 106.407 64.4938C106.281 64.5135 106.15 64.5338 106.012 64.5549C105.984 64.5592 105.954 64.5635 105.926 64.5678C107.206 68.6135 104.371 79.343 103.826 81.4433C103.541 82.5407 103.234 85.2542 102.957 88H115.443C126.75 88 136 78.7045 136 67.3434V20.6566C136 9.29548 126.75 0 115.443 0Z" fill="#F2F2F2"/>
<path d="M30.4459 37.2179C38.053 37.2179 44.2199 31.5788 44.2199 24.6225C44.2199 17.6663 38.053 12.0272 30.4459 12.0272C22.8387 12.0272 16.6719 17.6663 16.6719 24.6225C16.6719 31.5788 22.8387 37.2179 30.4459 37.2179Z" fill="#3F3D56"/>
<path d="M53.138 65.7815C53.138 65.7815 57.7777 62.5762 57.7777 61.1192C57.7777 59.6622 60.9675 50.192 62.7073 54.4172C64.4472 58.6424 60.2425 64.6159 60.2425 64.6159C60.2425 64.6159 55.6029 73.0662 52.8481 74.5232C50.0933 75.9801 47.7734 75.106 47.7734 75.106V71.1722L50.4241 67.2301C50.724 66.784 51.1283 66.4187 51.6015 66.1661C52.0747 65.9135 52.6023 65.7815 53.138 65.7815Z" fill="#D49A9A"/>
<path d="M39.9492 43.4662C39.9492 43.4662 46.9024 45.6755 47.6273 46.6953C48.3523 47.7152 48.6422 45.9669 50.6721 52.6688C52.702 59.3708 53.2094 65.8543 53.2094 65.8543C53.2094 65.8543 48.2073 67.5298 48.7872 74.0861C49.3672 80.6424 47.9173 87.7814 47.9173 87.7814H46.1072L42.1177 75.3973L46.9024 56.6026C46.9024 56.6026 40.1005 45.045 39.9492 43.4662Z" fill="#575A89"/>
<path d="M37.6251 37.3708C42.4297 37.3708 46.3245 33.457 46.3245 28.6291C46.3245 23.8012 42.4297 19.8874 37.6251 19.8874C32.8206 19.8874 28.9258 23.8012 28.9258 28.6291C28.9258 33.457 32.8206 37.3708 37.6251 37.3708Z" fill="#D49A9A"/>
<path d="M40.961 35.1854C40.961 35.1854 38.4962 43.3444 40.6711 44.5099C42.8459 45.6755 45.3107 50.9205 45.3107 50.9205L41.541 55.1457H32.8416L28.9269 50.7748L27.332 43.3444L29.5069 41.596C29.5069 41.596 31.8267 35.7682 31.8267 32.7086C31.8267 29.649 40.961 35.1854 40.961 35.1854Z" fill="#D49A9A"/>
<path d="M41.6853 44.2186C41.6853 44.2186 39.9454 43.7815 40.9603 45.5298C41.9752 47.2782 42.9902 50.4835 39.3654 50.6292C35.7407 50.7749 32.116 48.8808 30.956 44.947C29.7961 41.0133 29.3612 41.3047 28.9262 41.4504C28.4912 41.596 23.8516 46.404 23.8516 46.404L25.4464 55.4371L26.0264 87.7815H47.1948C47.1948 87.7815 48.0648 78.457 46.6149 76.2715C45.165 74.0861 47.9198 68.5497 47.9198 68.5497C47.9198 68.5497 50.3846 64.7616 48.4998 57.4768C46.6149 50.1921 42.4102 44.2186 41.6853 44.2186Z" fill="#6C63FF"/>
<path d="M41.6853 44.2186C41.6853 44.2186 39.9454 43.7815 40.9603 45.5298C41.9752 47.2782 42.9902 50.4835 39.3654 50.6292C35.7407 50.7749 32.116 48.8808 30.956 44.947C29.7961 41.0133 29.3612 41.3047 28.9262 41.4504C28.4912 41.596 23.8516 46.404 23.8516 46.404L25.4464 55.4371L26.0264 87.7815H47.1948C47.1948 87.7815 48.0648 78.457 46.6149 76.2715C45.165 74.0861 47.9198 68.5497 47.9198 68.5497C47.9198 68.5497 50.3846 64.7616 48.4998 57.4768C46.6149 50.1921 42.4102 44.2186 41.6853 44.2186Z" fill="url(#paint0_linear_733_2210)"/>
<path d="M29.939 41.4504C29.939 41.4504 27.7641 40.4305 25.8793 42.1788C23.9944 43.9272 19.7897 45.3841 19.7897 46.2583C19.7897 47.1325 23.4144 72.0464 20.9496 76.4173C18.4848 80.7881 15.875 87.7815 15.875 87.7815H27.9691C27.9691 87.7815 29.939 80.4967 31.9688 76.5629C33.9987 72.6292 33.8537 61.5563 33.2737 58.2053C32.6938 54.8543 29.939 41.4504 29.939 41.4504Z" fill="#575A89"/>
<path d="M17.1797 80.0596L17.8858 87.7814H25.722L25.0091 78.1655L17.1797 80.0596Z" fill="#D49A9A"/>
<path d="M52.8477 75.9801L54.7325 87.7814H96.6344L100.259 64.0331L52.8477 75.9801Z" fill="#3F3D56"/>
<path d="M101.854 62.4305L102.289 64.6159L48.0625 77.7285V75.8345L101.854 62.4305Z" fill="#3F3D56"/>
<path d="M78.9462 66.3642L78.6562 68.841L81.846 68.4039L80.5411 65.9271L78.9462 66.3642Z" fill="#3F3D56"/>
<path d="M61.4023 41.3046C61.4023 41.3046 67.7819 40.8675 69.5217 45.8212C71.2616 50.7748 75.3213 59.6623 76.9162 60.9735C78.5111 62.2848 80.251 65.7815 79.961 66.947" stroke="#3F3D56" stroke-width="5" stroke-miterlimit="10"/>
<path d="M62.3435 41.2318C62.3435 41.9158 61.6197 42.4702 60.4586 42.4702C59.2975 42.4702 58.7188 41.9158 58.7188 41.2318C58.7188 40.5479 59.2975 39.9934 60.4586 39.9934C61.6197 39.9934 62.3435 40.5479 62.3435 41.2318Z" fill="#6C63FF"/>
<path d="M62.3435 41.2318C62.3435 41.9158 61.6197 42.4702 60.4586 42.4702C59.2975 42.4702 58.7188 41.9158 58.7188 41.2318C58.7188 40.5479 59.2975 39.9934 60.4586 39.9934C61.6197 39.9934 62.3435 40.5479 62.3435 41.2318Z" fill="url(#paint1_linear_733_2210)"/>
<path d="M51.6145 63.9602C51.6145 63.9602 52.7019 59.3708 50.6721 52.6689C48.6422 45.9669 48.3523 47.7152 47.6273 46.6953C46.9024 45.6755 39.9492 43.4662 39.9492 43.4662C39.9989 43.985 40.7668 45.5812 41.7754 47.4908C41.5938 46.8025 41.3187 46.1426 40.9578 45.5298C39.9429 43.7814 41.6828 44.2185 41.6828 44.2185C42.4077 44.2185 46.6124 50.192 48.4973 57.4768C50.3821 64.7616 47.9173 68.5497 47.9173 68.5497L51.6145 63.9602Z" fill="#575A89"/>
<path d="M40.0156 43.4172C40.0156 43.4172 40.874 46.6892 41.6047 47.1658C42.3355 47.6424 46.6692 52.1668 46.6692 52.1668L46.1052 48.5166L43.7853 45.0199L43.1683 44.57L40.0156 43.4172Z" fill="#575A89"/>
<path opacity="0.1" d="M20.7349 53.4702L20.9371 45.9669C20.9371 45.9669 16.1677 48.0067 15.7328 56.7484C15.2978 65.4901 16.4577 81.9537 18.0526 82.0994C19.6475 82.2451 27.1869 80.4967 27.1869 80.4967C27.1869 80.4967 28.3469 59.3709 27.9119 56.6027C27.4769 53.8345 20.7349 53.4702 20.7349 53.4702Z" fill="black"/>
<path d="M21.0967 45.9669H19.9214C19.9214 45.9669 15.1521 48.0067 14.7172 56.7484C14.2822 65.4901 15.4421 81.9537 17.037 82.0994C18.6319 82.2451 26.1713 80.4967 26.1713 80.4967C26.1713 80.4967 27.3312 59.3709 26.8963 56.6027C26.4613 53.8345 21.0967 45.9669 21.0967 45.9669Z" fill="#575A89"/>
<path d="M27.2589 36.4238C32.2235 36.4238 36.2482 31.8903 36.2482 26.298C36.2482 20.7057 32.2235 16.1722 27.2589 16.1722C22.2942 16.1722 18.2695 20.7057 18.2695 26.298C18.2695 31.8903 22.2942 36.4238 27.2589 36.4238Z" fill="#3F3D56"/>
<path d="M33.7108 34.5298C34.7117 34.5298 35.5232 33.3231 35.5232 31.8345C35.5232 30.3459 34.7117 29.1391 33.7108 29.1391C32.7099 29.1391 31.8984 30.3459 31.8984 31.8345C31.8984 33.3231 32.7099 34.5298 33.7108 34.5298Z" fill="#D49A9A"/>
<path d="M18.2695 23.6026C22.3533 23.6026 25.6639 20.2759 25.6639 16.1722C25.6639 12.0684 22.3533 8.7417 18.2695 8.7417C14.1856 8.7417 10.875 12.0684 10.875 16.1722C10.875 20.2759 14.1856 23.6026 18.2695 23.6026Z" fill="#3F3D56"/>
<path d="M19.2238 22.1248C18.1496 22.6741 16.9581 22.9511 15.7529 22.9318C14.5478 22.9125 13.3656 22.5974 12.3094 22.0141C11.2531 21.4307 10.3548 20.5967 9.69267 19.5847C9.03051 18.5727 8.62458 17.4134 8.51024 16.2077C8.35234 17.2485 8.41635 18.3111 8.69803 19.3251C8.97972 20.3391 9.47265 21.2814 10.1442 22.0895C10.8157 22.8976 11.6504 23.553 12.5931 24.0124C13.5357 24.4719 14.5648 24.7247 15.6121 24.7542C16.6593 24.7837 17.7009 24.5893 18.6677 24.1837C19.6345 23.7782 20.5045 23.1707 21.2201 22.4017C21.9356 21.6328 22.4804 20.7197 22.8182 19.7232C23.156 18.7266 23.2792 17.6693 23.1796 16.6213C23.0037 17.7888 22.553 18.8972 21.865 19.8544C21.1769 20.8116 20.2715 21.59 19.2238 22.1248Z" fill="#3F3D56"/>
<path d="M14.2129 17.4003C13.4704 16.4463 12.9712 15.3244 12.7589 14.1322C12.5465 12.94 12.6274 11.7137 12.9945 10.5601C13.3617 9.40645 14.0039 8.36052 14.8652 7.51334C15.7266 6.66616 16.7809 6.04342 17.9366 5.69934C16.8898 5.74329 15.8643 6.01028 14.928 6.48263C13.9917 6.95497 13.1659 7.62188 12.5055 8.43916C11.8451 9.25643 11.3651 10.2054 11.0972 11.2232C10.8294 12.241 10.7799 13.3044 10.952 14.3429C11.1241 15.3814 11.5138 16.3712 12.0954 17.2469C12.677 18.1226 13.4372 18.864 14.3255 19.4222C15.2138 19.9803 16.2101 20.3423 17.2482 20.4843C18.2863 20.6263 19.3426 20.5449 20.347 20.2457C19.173 20.2962 18.004 20.0643 16.9371 19.5694C15.8702 19.0745 14.9363 18.3309 14.2129 17.4003Z" fill="#3F3D56"/>
<path d="M38.1337 25.6424C41.0164 25.6424 43.3533 23.9464 43.3533 21.8543C43.3533 19.7622 41.0164 18.0662 38.1337 18.0662C35.251 18.0662 32.9141 19.7622 32.9141 21.8543C32.9141 23.9464 35.251 25.6424 38.1337 25.6424Z" fill="#3F3D56"/>
</g>
<defs>
<linearGradient id="paint0_linear_733_2210" x1="24.3549" y1="65.1754" x2="49.001" y2="65.2037" gradientUnits="userSpaceOnUse">
<stop stop-color="#4E54C8"/>
<stop offset="1" stop-color="#8F94FB"/>
</linearGradient>
<linearGradient id="paint1_linear_733_2210" x1="58.7907" y1="41.2636" x2="62.3136" y2="41.2744" gradientUnits="userSpaceOnUse">
<stop stop-color="#4E54C8"/>
<stop offset="1" stop-color="#8F94FB"/>
</linearGradient>
<clipPath id="clip0_733_2210">
<rect width="136" height="88" fill="white"/>
</clipPath>
</defs>
</svg>
