<svg width="36" height="36" viewBox="0 0 36 36" fill="none" xmlns="http://www.w3.org/2000/svg">
<path d="M5.40016 24.0007C2.71619 24.0007 0 24.8251 0 26.4008V33.601C0 35.1766 2.71619 36.001 5.40016 36.001C8.08412 36.001 10.8003 35.1766 10.8003 33.601V26.4008C10.8003 24.8251 8.08412 24.0007 5.40016 24.0007ZM5.40016 25.2007C8.12836 25.2007 9.60028 26.0527 9.60028 26.4008C9.60028 26.7488 8.12836 27.6008 5.40016 27.6008C2.67195 27.6008 1.20003 26.7488 1.20003 26.4008C1.20003 26.0527 2.67195 25.2007 5.40016 25.2007ZM5.40016 34.801C2.67195 34.801 1.20003 33.949 1.20003 33.601V32.761C2.51814 33.3566 3.95461 33.6437 5.40016 33.601C6.8457 33.6437 8.28217 33.3566 9.60028 32.761V33.601C9.60028 33.949 8.12836 34.801 5.40016 34.801ZM5.40016 32.4009C2.67195 32.4009 1.20003 31.5489 1.20003 31.2009V30.3609C2.51814 30.9566 3.95461 31.2437 5.40016 31.2009C6.8457 31.2437 8.28217 30.9566 9.60028 30.3609V31.2009C9.60028 31.5489 8.12836 32.4009 5.40016 32.4009ZM5.40016 30.0009C2.67195 30.0009 1.20003 29.1489 1.20003 28.8008V27.9609C2.51814 28.5565 3.95461 28.8436 5.40016 28.8008C6.8457 28.8436 8.28217 28.5565 9.60028 27.9609V28.8008C9.60028 29.1489 8.12836 30.0009 5.40016 30.0009Z" fill="black"/>
<path d="M5.40016 24.0007C2.71619 24.0007 0 24.8251 0 26.4008V33.601C0 35.1766 2.71619 36.001 5.40016 36.001C8.08412 36.001 10.8003 35.1766 10.8003 33.601V26.4008C10.8003 24.8251 8.08412 24.0007 5.40016 24.0007ZM5.40016 25.2007C8.12836 25.2007 9.60028 26.0527 9.60028 26.4008C9.60028 26.7488 8.12836 27.6008 5.40016 27.6008C2.67195 27.6008 1.20003 26.7488 1.20003 26.4008C1.20003 26.0527 2.67195 25.2007 5.40016 25.2007ZM5.40016 34.801C2.67195 34.801 1.20003 33.949 1.20003 33.601V32.761C2.51814 33.3566 3.95461 33.6437 5.40016 33.601C6.8457 33.6437 8.28217 33.3566 9.60028 32.761V33.601C9.60028 33.949 8.12836 34.801 5.40016 34.801ZM5.40016 32.4009C2.67195 32.4009 1.20003 31.5489 1.20003 31.2009V30.3609C2.51814 30.9566 3.95461 31.2437 5.40016 31.2009C6.8457 31.2437 8.28217 30.9566 9.60028 30.3609V31.2009C9.60028 31.5489 8.12836 32.4009 5.40016 32.4009ZM5.40016 30.0009C2.67195 30.0009 1.20003 29.1489 1.20003 28.8008V27.9609C2.51814 28.5565 3.95461 28.8436 5.40016 28.8008C6.8457 28.8436 8.28217 28.5565 9.60028 27.9609V28.8008C9.60028 29.1489 8.12836 30.0009 5.40016 30.0009Z" fill="url(#paint0_linear_600_170)"/>
<path d="M18.0007 19.2005C15.3168 19.2005 12.6006 20.025 12.6006 21.6006V33.601C12.6006 35.1766 15.3168 36.001 18.0007 36.001C20.6847 36.001 23.4009 35.1766 23.4009 33.601V21.6006C23.4009 20.025 20.6847 19.2005 18.0007 19.2005ZM18.0007 20.4006C20.7289 20.4006 22.2009 21.2526 22.2009 21.6006C22.2009 21.9487 20.7289 22.8006 18.0007 22.8006C15.2725 22.8006 13.8006 21.9487 13.8006 21.6006C13.8006 21.2526 15.2725 20.4006 18.0007 20.4006ZM18.0007 34.801C15.2725 34.801 13.8006 33.949 13.8006 33.601V32.761C15.1187 33.3566 16.5552 33.6437 18.0007 33.601C19.4463 33.6437 20.8828 33.3566 22.2009 32.761V33.601C22.2009 33.949 20.7289 34.801 18.0007 34.801ZM18.0007 32.4009C15.2725 32.4009 13.8006 31.5489 13.8006 31.2009V30.3609C15.1187 30.9565 16.5552 31.2437 18.0007 31.2009C19.4463 31.2437 20.8828 30.9565 22.2009 30.3609V31.2009C22.2009 31.5489 20.7289 32.4009 18.0007 32.4009ZM18.0007 30.0009C15.2725 30.0009 13.8006 29.1489 13.8006 28.8008V27.9609C15.1187 28.5565 16.5552 28.8436 18.0007 28.8008C19.4463 28.8436 20.8828 28.5565 22.2009 27.9609V28.8008C22.2009 29.1489 20.7289 30.0009 18.0007 30.0009ZM18.0007 27.6008C15.2725 27.6008 13.8006 26.7488 13.8006 26.4008V25.5608C15.1187 26.1564 16.5552 26.4435 18.0007 26.4008C19.4463 26.4435 20.8828 26.1564 22.2009 25.5608V26.4008C22.2009 26.7488 20.7289 27.6008 18.0007 27.6008ZM18.0007 25.2007C15.2725 25.2007 13.8006 24.3487 13.8006 24.0007V23.1607C15.1187 23.7563 16.5552 24.0435 18.0007 24.0007C19.4463 24.0435 20.8828 23.7563 22.2009 23.1607V24.0007C22.2009 24.3487 20.7289 25.2007 18.0007 25.2007Z" fill="black"/>
<path d="M18.0007 19.2005C15.3168 19.2005 12.6006 20.025 12.6006 21.6006V33.601C12.6006 35.1766 15.3168 36.001 18.0007 36.001C20.6847 36.001 23.4009 35.1766 23.4009 33.601V21.6006C23.4009 20.025 20.6847 19.2005 18.0007 19.2005ZM18.0007 20.4006C20.7289 20.4006 22.2009 21.2526 22.2009 21.6006C22.2009 21.9487 20.7289 22.8006 18.0007 22.8006C15.2725 22.8006 13.8006 21.9487 13.8006 21.6006C13.8006 21.2526 15.2725 20.4006 18.0007 20.4006ZM18.0007 34.801C15.2725 34.801 13.8006 33.949 13.8006 33.601V32.761C15.1187 33.3566 16.5552 33.6437 18.0007 33.601C19.4463 33.6437 20.8828 33.3566 22.2009 32.761V33.601C22.2009 33.949 20.7289 34.801 18.0007 34.801ZM18.0007 32.4009C15.2725 32.4009 13.8006 31.5489 13.8006 31.2009V30.3609C15.1187 30.9565 16.5552 31.2437 18.0007 31.2009C19.4463 31.2437 20.8828 30.9565 22.2009 30.3609V31.2009C22.2009 31.5489 20.7289 32.4009 18.0007 32.4009ZM18.0007 30.0009C15.2725 30.0009 13.8006 29.1489 13.8006 28.8008V27.9609C15.1187 28.5565 16.5552 28.8436 18.0007 28.8008C19.4463 28.8436 20.8828 28.5565 22.2009 27.9609V28.8008C22.2009 29.1489 20.7289 30.0009 18.0007 30.0009ZM18.0007 27.6008C15.2725 27.6008 13.8006 26.7488 13.8006 26.4008V25.5608C15.1187 26.1564 16.5552 26.4435 18.0007 26.4008C19.4463 26.4435 20.8828 26.1564 22.2009 25.5608V26.4008C22.2009 26.7488 20.7289 27.6008 18.0007 27.6008ZM18.0007 25.2007C15.2725 25.2007 13.8006 24.3487 13.8006 24.0007V23.1607C15.1187 23.7563 16.5552 24.0435 18.0007 24.0007C19.4463 24.0435 20.8828 23.7563 22.2009 23.1607V24.0007C22.2009 24.3487 20.7289 25.2007 18.0007 25.2007Z" fill="url(#paint1_linear_600_170)"/>
<path d="M30.6013 12.0003C27.9174 12.0003 25.2012 12.8248 25.2012 14.4004V33.601C25.2012 35.1766 27.9174 36.001 30.6013 36.001C33.2853 36.001 36.0015 35.1766 36.0015 33.601V14.4004C36.0015 12.8248 33.2853 12.0003 30.6013 12.0003ZM30.6013 13.2004C33.3295 13.2004 34.8014 14.0523 34.8014 14.4004C34.8014 14.7485 33.3295 15.6004 30.6013 15.6004C27.8731 15.6004 26.4012 14.7485 26.4012 14.4004C26.4012 14.0523 27.8731 13.2004 30.6013 13.2004ZM30.6013 34.801C27.8731 34.801 26.4012 33.949 26.4012 33.601V32.761C27.7193 33.3566 29.1558 33.6437 30.6013 33.601C32.0469 33.6437 33.4833 33.3566 34.8014 32.761V33.601C34.8014 33.949 33.3295 34.801 30.6013 34.801ZM30.6013 32.4009C27.8731 32.4009 26.4012 31.5489 26.4012 31.2009V30.3609C27.7193 30.9565 29.1558 31.2437 30.6013 31.2009C32.0469 31.2437 33.4833 30.9565 34.8014 30.3609V31.2009C34.8014 31.5489 33.3295 32.4009 30.6013 32.4009ZM30.6013 30.0009C27.8731 30.0009 26.4012 29.1489 26.4012 28.8008V27.9609C27.7193 28.5565 29.1558 28.8436 30.6013 28.8008C32.0469 28.8436 33.4833 28.5565 34.8014 27.9609V28.8008C34.8014 29.1489 33.3295 30.0009 30.6013 30.0009ZM30.6013 27.6008C27.8731 27.6008 26.4012 26.7488 26.4012 26.4007V25.5608C27.7193 26.1564 29.1558 26.4435 30.6013 26.4007C32.0469 26.4435 33.4833 26.1564 34.8014 25.5608V26.4007C34.8014 26.7488 33.3295 27.6008 30.6013 27.6008ZM30.6013 25.2007C27.8731 25.2007 26.4012 24.3487 26.4012 24.0007V23.1607C27.7193 23.7563 29.1558 24.0435 30.6013 24.0007C32.0469 24.0435 33.4833 23.7563 34.8014 23.1607V24.0007C34.8014 24.3487 33.3295 25.2007 30.6013 25.2007ZM30.6013 22.8006C27.8731 22.8006 26.4012 21.9487 26.4012 21.6006V20.7606C27.7193 21.3563 29.1558 21.6434 30.6013 21.6006C32.0469 21.6434 33.4833 21.3563 34.8014 20.7606V21.6006C34.8014 21.9487 33.3295 22.8006 30.6013 22.8006ZM30.6013 20.4006C27.8731 20.4006 26.4012 19.5486 26.4012 19.2005V18.3606C27.7193 18.9562 29.1558 19.2433 30.6013 19.2005C32.0469 19.2433 33.4833 18.9562 34.8014 18.3606V19.2005C34.8014 19.5486 33.3295 20.4006 30.6013 20.4006ZM30.6013 18.0005C27.8731 18.0005 26.4012 17.1485 26.4012 16.8005V15.9605C27.7193 16.5561 29.1558 16.8432 30.6013 16.8005C32.0469 16.8432 33.4833 16.5561 34.8014 15.9605V16.8005C34.8014 17.1485 33.3295 18.0005 30.6013 18.0005Z" fill="black"/>
<path d="M30.6013 12.0003C27.9174 12.0003 25.2012 12.8248 25.2012 14.4004V33.601C25.2012 35.1766 27.9174 36.001 30.6013 36.001C33.2853 36.001 36.0015 35.1766 36.0015 33.601V14.4004C36.0015 12.8248 33.2853 12.0003 30.6013 12.0003ZM30.6013 13.2004C33.3295 13.2004 34.8014 14.0523 34.8014 14.4004C34.8014 14.7485 33.3295 15.6004 30.6013 15.6004C27.8731 15.6004 26.4012 14.7485 26.4012 14.4004C26.4012 14.0523 27.8731 13.2004 30.6013 13.2004ZM30.6013 34.801C27.8731 34.801 26.4012 33.949 26.4012 33.601V32.761C27.7193 33.3566 29.1558 33.6437 30.6013 33.601C32.0469 33.6437 33.4833 33.3566 34.8014 32.761V33.601C34.8014 33.949 33.3295 34.801 30.6013 34.801ZM30.6013 32.4009C27.8731 32.4009 26.4012 31.5489 26.4012 31.2009V30.3609C27.7193 30.9565 29.1558 31.2437 30.6013 31.2009C32.0469 31.2437 33.4833 30.9565 34.8014 30.3609V31.2009C34.8014 31.5489 33.3295 32.4009 30.6013 32.4009ZM30.6013 30.0009C27.8731 30.0009 26.4012 29.1489 26.4012 28.8008V27.9609C27.7193 28.5565 29.1558 28.8436 30.6013 28.8008C32.0469 28.8436 33.4833 28.5565 34.8014 27.9609V28.8008C34.8014 29.1489 33.3295 30.0009 30.6013 30.0009ZM30.6013 27.6008C27.8731 27.6008 26.4012 26.7488 26.4012 26.4007V25.5608C27.7193 26.1564 29.1558 26.4435 30.6013 26.4007C32.0469 26.4435 33.4833 26.1564 34.8014 25.5608V26.4007C34.8014 26.7488 33.3295 27.6008 30.6013 27.6008ZM30.6013 25.2007C27.8731 25.2007 26.4012 24.3487 26.4012 24.0007V23.1607C27.7193 23.7563 29.1558 24.0435 30.6013 24.0007C32.0469 24.0435 33.4833 23.7563 34.8014 23.1607V24.0007C34.8014 24.3487 33.3295 25.2007 30.6013 25.2007ZM30.6013 22.8006C27.8731 22.8006 26.4012 21.9487 26.4012 21.6006V20.7606C27.7193 21.3563 29.1558 21.6434 30.6013 21.6006C32.0469 21.6434 33.4833 21.3563 34.8014 20.7606V21.6006C34.8014 21.9487 33.3295 22.8006 30.6013 22.8006ZM30.6013 20.4006C27.8731 20.4006 26.4012 19.5486 26.4012 19.2005V18.3606C27.7193 18.9562 29.1558 19.2433 30.6013 19.2005C32.0469 19.2433 33.4833 18.9562 34.8014 18.3606V19.2005C34.8014 19.5486 33.3295 20.4006 30.6013 20.4006ZM30.6013 18.0005C27.8731 18.0005 26.4012 17.1485 26.4012 16.8005V15.9605C27.7193 16.5561 29.1558 16.8432 30.6013 16.8005C32.0469 16.8432 33.4833 16.5561 34.8014 15.9605V16.8005C34.8014 17.1485 33.3295 18.0005 30.6013 18.0005Z" fill="url(#paint2_linear_600_170)"/>
<path d="M29.4024 0V1.20003H33.9541L22.5538 12.6004H9.97626L0.206055 21.1488L0.997093 22.0524L10.4274 13.8004H23.0507L34.8026 2.0485V6.60019H36.0026V0H29.4024Z" fill="black"/>
<path d="M29.4024 0V1.20003H33.9541L22.5538 12.6004H9.97626L0.206055 21.1488L0.997093 22.0524L10.4274 13.8004H23.0507L34.8026 2.0485V6.60019H36.0026V0H29.4024Z" fill="url(#paint3_linear_600_170)"/>
<defs>
<linearGradient id="paint0_linear_600_170" x1="0.214398" y1="30.1547" x2="10.7114" y2="30.1746" gradientUnits="userSpaceOnUse">
<stop stop-color="#4E54C8"/>
<stop offset="1" stop-color="#8F94FB"/>
</linearGradient>
<linearGradient id="paint1_linear_600_170" x1="12.815" y1="27.8162" x2="23.312" y2="27.8304" gradientUnits="userSpaceOnUse">
<stop stop-color="#4E54C8"/>
<stop offset="1" stop-color="#8F94FB"/>
</linearGradient>
<linearGradient id="paint2_linear_600_170" x1="25.4156" y1="24.3084" x2="35.9126" y2="24.3183" gradientUnits="userSpaceOnUse">
<stop stop-color="#4E54C8"/>
<stop offset="1" stop-color="#8F94FB"/>
</linearGradient>
<linearGradient id="paint3_linear_600_170" x1="0.916656" y1="11.3089" x2="35.7077" y2="11.4276" gradientUnits="userSpaceOnUse">
<stop stop-color="#4E54C8"/>
<stop offset="1" stop-color="#8F94FB"/>
</linearGradient>
</defs>
</svg>
