<?xml version="1.0" ?><svg viewBox="0 0 64 64" xmlns="http://www.w3.org/2000/svg"><g id="outline"><path d="M18,30.5A7.508,7.508,0,0,0,25.5,38h14A7.5,7.5,0,0,0,40,23.017V23a8,8,0,0,0-16,0v.157A7.535,7.535,0,0,0,18,30.5Zm7.076-5.478a1,1,0,0,0,.924-1V23a6,6,0,0,1,12,0v1a1,1,0,0,0,1,1h.5a5.5,5.5,0,0,1,0,11h-14a5.5,5.5,0,0,1-.424-10.978Z"/><path d="M62,2H44a1,1,0,0,0-1,1V17a1,1,0,0,0,1,1h5.719l-.689,2.757A1,1,0,0,0,50,22h6a1,1,0,0,0,.97-1.243L56.281,18H62a1,1,0,0,0,1-1V3A1,1,0,0,0,62,2ZM51.281,20l.5-2h2.438l.5,2ZM61,16H45V14H61Zm0-4H45V4H61Z"/><path d="M3,21H13a1,1,0,0,0,1-1V3a1,1,0,0,0-1-1H3A1,1,0,0,0,2,3V20A1,1,0,0,0,3,21ZM4,4h8V6H4ZM4,8h8v7H4Zm0,9h8v2H4Z"/><rect height="2" width="2" x="6" y="56"/><rect height="2" width="2" x="6" y="48"/><path d="M3,62H21a1,1,0,0,0,1-1V45a1,1,0,0,0-1-1H10V42a1,1,0,0,0-2,0v2H3a1,1,0,0,0-1,1V61A1,1,0,0,0,3,62ZM13,46h7v6H13Zm0,8h7v6H13ZM4,46h7v6H4Zm0,8h7v6H4Z"/><path d="M6,39a1,1,0,0,0,2,0,1,1,0,0,1,2,0,1,1,0,0,0,2,0,3,3,0,0,0-6,0Z"/><path d="M3,40a1,1,0,0,0,1-1,5,5,0,0,1,10,0,1,1,0,0,0,2,0A7,7,0,0,0,2,39,1,1,0,0,0,3,40Z"/><rect height="2" width="2" x="16" y="18"/><rect height="2" width="2" x="20" y="18"/><rect height="2" width="2" x="24" y="48"/><rect height="2" width="2" x="28" y="48"/><rect height="2" width="2" x="28" y="44"/><rect height="2" width="2" x="28" y="40"/><rect height="2" width="2" x="41" y="44"/><rect height="2" width="2" x="37" y="44"/><rect height="2" width="2" x="37" y="40"/><rect height="2" width="2" x="52" y="24"/><rect height="2" width="2" x="48" y="24"/><path d="M46,42V61a1,1,0,0,0,1,1H61a1,1,0,0,0,1-1V42a1,1,0,0,0-1-1H47A1,1,0,0,0,46,42Zm2,1H60V60H48Z"/><rect height="2" width="2" x="53" y="56"/></g></svg>