<svg width="36" height="34" viewBox="0 0 36 34" fill="none" xmlns="http://www.w3.org/2000/svg">
<path d="M18.8148 25.5807H17.1912C16.6159 25.5807 16.1479 25.1127 16.1479 24.5374C16.1479 23.9036 15.7376 23.5078 15.3537 23.3487C14.9698 23.1897 14.3998 23.1794 13.9517 23.6276C13.7547 23.8247 13.4926 23.9332 13.2139 23.9332C12.9351 23.9332 12.6731 23.8246 12.4761 23.6276L11.328 22.4796C10.9212 22.0727 10.9212 21.4108 11.328 21.0039C11.7755 20.5566 11.7648 19.9866 11.6057 19.6024C11.4465 19.2183 11.051 18.8077 10.4183 18.8077C9.843 18.8077 9.375 18.3397 9.375 17.7644V16.1409C9.375 15.5655 9.84307 15.0975 10.4183 15.0975C11.051 15.0975 11.4465 14.687 11.6057 14.3029C11.7648 13.9187 11.7755 13.3487 11.328 12.9014C11.131 12.7044 11.0225 12.4423 11.0225 12.1636C11.0225 11.8848 11.1311 11.6228 11.3281 11.4258L12.4761 10.2777C12.6731 10.0807 12.9351 9.97215 13.2139 9.97215C13.4926 9.97215 13.7547 10.0807 13.9517 10.2777C14.399 10.7252 14.969 10.7143 15.3532 10.5554C15.7373 10.3962 16.1479 10.0008 16.1479 9.3681C16.1479 8.79268 16.6159 8.32468 17.1912 8.32468H18.8147C19.39 8.32468 19.858 8.79276 19.858 9.3681C19.858 10.0008 20.2686 10.3961 20.6527 10.5554C21.037 10.7145 21.607 10.7251 22.0542 10.2777C22.4612 9.871 23.1229 9.87093 23.5299 10.2777L24.6779 11.4258C24.8749 11.6228 24.9835 11.8848 24.9835 12.1636C24.9835 12.4423 24.875 12.7044 24.6779 12.9014C24.2305 13.3488 24.2412 13.9187 24.4003 14.3029C24.5594 14.687 24.9549 15.0975 25.5876 15.0975C26.1629 15.0975 26.6309 15.5656 26.6309 16.1409V17.7644C26.6309 18.3397 26.1628 18.8077 25.5876 18.8077C24.9549 18.8077 24.5595 19.2183 24.4003 19.6024C24.2411 19.9866 24.2305 20.5566 24.6779 21.0039C25.0847 21.4108 25.0847 22.0727 24.6779 22.4796L23.5299 23.6276C23.1229 24.0345 22.4611 24.0343 22.0542 23.6276C21.6069 23.1802 21.0371 23.191 20.6527 23.35C20.2686 23.5092 19.858 23.9046 19.858 24.5373C19.8581 25.1127 19.39 25.5807 18.8148 25.5807ZM14.8467 22.2247C15.146 22.2247 15.4497 22.2842 15.7441 22.4062C16.6225 22.77 17.1681 23.5866 17.1681 24.5373C17.1681 24.5501 17.1785 24.5604 17.1912 24.5604H18.8147C18.8274 24.5604 18.8378 24.55 18.8378 24.5373C18.8378 23.5875 19.3836 22.7714 20.2623 22.4074C21.1411 22.0433 22.1041 22.2346 22.7758 22.9061C22.7847 22.9151 22.7994 22.9153 22.8084 22.9061L23.9565 21.758C23.9655 21.7491 23.9655 21.7344 23.9565 21.7254C23.2849 21.0537 23.0938 20.0907 23.4578 19.212C23.8217 18.3332 24.6378 17.7874 25.5876 17.7874C25.6004 17.7874 25.6107 17.777 25.6107 17.7643V16.1408C25.6107 16.1281 25.6003 16.1177 25.5876 16.1177C24.6379 16.1177 23.8218 15.5719 23.4578 14.6932C23.0938 13.8144 23.2849 12.8514 23.9565 12.1798C23.9585 12.1778 23.9633 12.173 23.9633 12.1634C23.9633 12.1539 23.9587 12.1492 23.9566 12.1471L22.8084 10.999C22.7994 10.9898 22.7847 10.99 22.7758 10.999C22.104 11.6706 21.1409 11.8617 20.2623 11.4977C19.3836 11.1338 18.8378 10.3177 18.8378 9.36788C18.8378 9.35505 18.8274 9.3447 18.8147 9.3447H17.1912C17.1784 9.3447 17.1681 9.35513 17.1681 9.36788C17.1681 10.3176 16.6223 11.1337 15.7436 11.4977C14.8648 11.8618 13.9018 11.6705 13.2302 10.999C13.2282 10.997 13.2234 10.9922 13.2138 10.9922C13.2043 10.9922 13.1996 10.9968 13.1975 10.999L12.0494 12.1471C12.0473 12.1491 12.0426 12.1539 12.0426 12.1634C12.0426 12.173 12.0473 12.1778 12.0494 12.1798C12.7209 12.8514 12.9121 13.8145 12.5481 14.6932C12.1842 15.5719 11.368 16.1177 10.4182 16.1177C10.4054 16.1177 10.3951 16.1281 10.3951 16.1408V17.7643C10.3951 17.7771 10.4055 17.7874 10.4182 17.7874C11.368 17.7874 12.1841 18.3332 12.5481 19.212C12.9121 20.0907 12.721 21.0538 12.0494 21.7254C12.0404 21.7344 12.0404 21.7491 12.0494 21.758L13.1975 22.9061C13.1995 22.9082 13.2043 22.9129 13.2138 22.9129C13.2234 22.9129 13.2282 22.9082 13.2302 22.9061C13.6772 22.4592 14.2529 22.2247 14.8467 22.2247ZM18.003 21.4299C15.5343 21.4299 13.5258 19.4213 13.5258 16.9526C13.5258 14.4839 15.5343 12.4754 18.003 12.4754C20.4718 12.4754 22.4803 14.4839 22.4803 16.9526C22.4803 19.4214 20.4718 21.4299 18.003 21.4299ZM18.003 13.4956C16.0968 13.4956 14.546 15.0464 14.546 16.9526C14.546 18.8589 16.0968 20.4096 18.003 20.4096C19.9093 20.4096 21.46 18.8588 21.46 16.9526C21.46 15.0465 19.9092 13.4956 18.003 13.4956Z" fill="black"/>
<path d="M18.8148 25.5807H17.1912C16.6159 25.5807 16.1479 25.1127 16.1479 24.5374C16.1479 23.9036 15.7376 23.5078 15.3537 23.3487C14.9698 23.1897 14.3998 23.1794 13.9517 23.6276C13.7547 23.8247 13.4926 23.9332 13.2139 23.9332C12.9351 23.9332 12.6731 23.8246 12.4761 23.6276L11.328 22.4796C10.9212 22.0727 10.9212 21.4108 11.328 21.0039C11.7755 20.5566 11.7648 19.9866 11.6057 19.6024C11.4465 19.2183 11.051 18.8077 10.4183 18.8077C9.843 18.8077 9.375 18.3397 9.375 17.7644V16.1409C9.375 15.5655 9.84307 15.0975 10.4183 15.0975C11.051 15.0975 11.4465 14.687 11.6057 14.3029C11.7648 13.9187 11.7755 13.3487 11.328 12.9014C11.131 12.7044 11.0225 12.4423 11.0225 12.1636C11.0225 11.8848 11.1311 11.6228 11.3281 11.4258L12.4761 10.2777C12.6731 10.0807 12.9351 9.97215 13.2139 9.97215C13.4926 9.97215 13.7547 10.0807 13.9517 10.2777C14.399 10.7252 14.969 10.7143 15.3532 10.5554C15.7373 10.3962 16.1479 10.0008 16.1479 9.3681C16.1479 8.79268 16.6159 8.32468 17.1912 8.32468H18.8147C19.39 8.32468 19.858 8.79276 19.858 9.3681C19.858 10.0008 20.2686 10.3961 20.6527 10.5554C21.037 10.7145 21.607 10.7251 22.0542 10.2777C22.4612 9.871 23.1229 9.87093 23.5299 10.2777L24.6779 11.4258C24.8749 11.6228 24.9835 11.8848 24.9835 12.1636C24.9835 12.4423 24.875 12.7044 24.6779 12.9014C24.2305 13.3488 24.2412 13.9187 24.4003 14.3029C24.5594 14.687 24.9549 15.0975 25.5876 15.0975C26.1629 15.0975 26.6309 15.5656 26.6309 16.1409V17.7644C26.6309 18.3397 26.1628 18.8077 25.5876 18.8077C24.9549 18.8077 24.5595 19.2183 24.4003 19.6024C24.2411 19.9866 24.2305 20.5566 24.6779 21.0039C25.0847 21.4108 25.0847 22.0727 24.6779 22.4796L23.5299 23.6276C23.1229 24.0345 22.4611 24.0343 22.0542 23.6276C21.6069 23.1802 21.0371 23.191 20.6527 23.35C20.2686 23.5092 19.858 23.9046 19.858 24.5373C19.8581 25.1127 19.39 25.5807 18.8148 25.5807ZM14.8467 22.2247C15.146 22.2247 15.4497 22.2842 15.7441 22.4062C16.6225 22.77 17.1681 23.5866 17.1681 24.5373C17.1681 24.5501 17.1785 24.5604 17.1912 24.5604H18.8147C18.8274 24.5604 18.8378 24.55 18.8378 24.5373C18.8378 23.5875 19.3836 22.7714 20.2623 22.4074C21.1411 22.0433 22.1041 22.2346 22.7758 22.9061C22.7847 22.9151 22.7994 22.9153 22.8084 22.9061L23.9565 21.758C23.9655 21.7491 23.9655 21.7344 23.9565 21.7254C23.2849 21.0537 23.0938 20.0907 23.4578 19.212C23.8217 18.3332 24.6378 17.7874 25.5876 17.7874C25.6004 17.7874 25.6107 17.777 25.6107 17.7643V16.1408C25.6107 16.1281 25.6003 16.1177 25.5876 16.1177C24.6379 16.1177 23.8218 15.5719 23.4578 14.6932C23.0938 13.8144 23.2849 12.8514 23.9565 12.1798C23.9585 12.1778 23.9633 12.173 23.9633 12.1634C23.9633 12.1539 23.9587 12.1492 23.9566 12.1471L22.8084 10.999C22.7994 10.9898 22.7847 10.99 22.7758 10.999C22.104 11.6706 21.1409 11.8617 20.2623 11.4977C19.3836 11.1338 18.8378 10.3177 18.8378 9.36788C18.8378 9.35505 18.8274 9.3447 18.8147 9.3447H17.1912C17.1784 9.3447 17.1681 9.35513 17.1681 9.36788C17.1681 10.3176 16.6223 11.1337 15.7436 11.4977C14.8648 11.8618 13.9018 11.6705 13.2302 10.999C13.2282 10.997 13.2234 10.9922 13.2138 10.9922C13.2043 10.9922 13.1996 10.9968 13.1975 10.999L12.0494 12.1471C12.0473 12.1491 12.0426 12.1539 12.0426 12.1634C12.0426 12.173 12.0473 12.1778 12.0494 12.1798C12.7209 12.8514 12.9121 13.8145 12.5481 14.6932C12.1842 15.5719 11.368 16.1177 10.4182 16.1177C10.4054 16.1177 10.3951 16.1281 10.3951 16.1408V17.7643C10.3951 17.7771 10.4055 17.7874 10.4182 17.7874C11.368 17.7874 12.1841 18.3332 12.5481 19.212C12.9121 20.0907 12.721 21.0538 12.0494 21.7254C12.0404 21.7344 12.0404 21.7491 12.0494 21.758L13.1975 22.9061C13.1995 22.9082 13.2043 22.9129 13.2138 22.9129C13.2234 22.9129 13.2282 22.9082 13.2302 22.9061C13.6772 22.4592 14.2529 22.2247 14.8467 22.2247ZM18.003 21.4299C15.5343 21.4299 13.5258 19.4213 13.5258 16.9526C13.5258 14.4839 15.5343 12.4754 18.003 12.4754C20.4718 12.4754 22.4803 14.4839 22.4803 16.9526C22.4803 19.4214 20.4718 21.4299 18.003 21.4299ZM18.003 13.4956C16.0968 13.4956 14.546 15.0464 14.546 16.9526C14.546 18.8589 16.0968 20.4096 18.003 20.4096C19.9093 20.4096 21.46 18.8588 21.46 16.9526C21.46 15.0465 19.9092 13.4956 18.003 13.4956Z" fill="url(#paint0_linear_600_199)"/>
<path d="M32.2644 33.9051C32.2034 33.9051 32.1417 33.8941 32.0823 33.8714C31.8848 33.7958 31.7545 33.6064 31.7545 33.395V31.8284H18C9.79731 31.8284 3.12399 25.1551 3.12399 16.9525C3.12399 13.4353 4.37517 10.0218 6.6471 7.34094C6.74402 7.2266 6.88627 7.16058 7.03625 7.16058H11.5156C11.7383 7.16058 11.9352 7.30494 12.0021 7.51737C12.0691 7.72972 11.9905 7.96095 11.8081 8.08863C8.91509 10.1136 7.1879 13.4273 7.1879 16.9525C7.1879 22.9144 12.0383 27.7647 18 27.7647H31.7545V26.1982C31.7545 25.9868 31.8849 25.7973 32.0824 25.7217C32.28 25.6462 32.5034 25.7004 32.6446 25.8577L35.8698 29.4561C36.0434 29.6499 36.0434 29.9433 35.8698 30.137L32.6446 33.7354C32.5458 33.8455 32.4067 33.9051 32.2644 33.9051ZM7.2752 8.18089C5.25447 10.6495 4.14423 13.7549 4.14423 16.9525C4.14423 24.5926 10.3599 30.8082 18 30.8082H32.2646C32.5463 30.8082 32.7747 31.0366 32.7747 31.3183V32.0615L34.8047 29.7966L32.7747 27.5316V28.2748C32.7747 28.5565 32.5463 28.7849 32.2646 28.7849H18C11.4756 28.7849 6.16759 23.4769 6.16759 16.9525C6.16759 13.5936 7.60015 10.4105 10.0601 8.18089H7.2752ZM3.73541 33.9051C3.59316 33.9051 3.45411 33.8455 3.35537 33.7354L0.130245 30.137C-0.0434148 29.9433 -0.0434148 29.6499 0.130245 29.4561L3.35537 25.8577C3.49645 25.7004 3.71989 25.6462 3.91752 25.7217C4.11501 25.7973 4.24538 25.9868 4.24538 26.1982V27.7647H6.12736C6.26677 27.7647 6.40013 27.8217 6.4964 27.9227C7.61567 29.0958 8.9019 30.0881 10.3193 30.8719C10.5228 30.9845 10.6245 31.2205 10.5663 31.4458C10.5083 31.671 10.3051 31.8284 10.0725 31.8284H4.24538V33.395C4.24538 33.6064 4.11501 33.7958 3.91752 33.8714C3.85813 33.8941 3.79648 33.9051 3.73541 33.9051ZM1.19508 29.7966L3.22507 32.0615V31.3183C3.22507 31.0366 3.45346 30.8082 3.73519 30.8082H8.2942C7.44055 30.2096 6.64324 29.5329 5.91092 28.7849H3.73526C3.45353 28.7849 3.22514 28.5565 3.22514 28.2748V27.5316L1.19508 29.7966ZM28.9637 26.7444H24.4843C24.2616 26.7444 24.0647 26.6001 23.9978 26.3877C23.9308 26.1753 24.0094 25.9441 24.1918 25.8164C27.0848 23.7914 28.812 20.4778 28.812 16.9525C28.812 10.9906 23.9617 6.14041 17.9999 6.14041H4.24538V7.70684C4.24538 7.91825 4.11501 8.10772 3.91752 8.18329C3.71989 8.25886 3.49645 8.20465 3.35537 8.04731L0.130245 4.449C-0.0434148 4.25522 -0.0434148 3.96183 0.130245 3.76806L3.35537 0.169674C3.49645 0.0123386 3.71989 -0.0418799 3.91752 0.0336907C4.11501 0.109261 4.24538 0.298734 4.24538 0.510143V2.07665H18C26.2025 2.07665 32.8759 8.74996 32.8759 16.9525C32.8759 20.4698 31.6247 23.8832 29.3528 26.5642C29.2559 26.6785 29.1137 26.7444 28.9637 26.7444ZM25.9398 25.7242H28.7247C30.7455 23.2556 31.8556 20.1501 31.8556 16.9525C31.8556 9.31248 25.64 3.09689 18 3.09689H3.73526C3.45353 3.09689 3.22514 2.8685 3.22514 2.58677V1.8436L1.19516 4.10853L3.22514 6.37346V5.63036C3.22514 5.34863 3.45353 5.12024 3.73526 5.12024H18C24.5243 5.12024 29.8323 10.4282 29.8323 16.9525C29.8323 20.3115 28.3998 23.4947 25.9398 25.7242ZM32.2644 8.21703C32.2034 8.21703 32.1417 8.2061 32.0823 8.18337C31.8848 8.1078 31.7545 7.91832 31.7545 7.70691V6.14048H29.8726C29.7331 6.14048 29.5997 6.08342 29.5035 5.98242C28.3848 4.80965 27.0986 3.8174 25.6806 3.03312C25.4771 2.92053 25.3754 2.68457 25.4336 2.45931C25.4917 2.23406 25.6948 2.07665 25.9274 2.07665H31.7545V0.510143C31.7545 0.298734 31.8848 0.109261 32.0823 0.0336907C32.28 -0.0418799 32.5033 0.0123386 32.6445 0.169674L35.8697 3.76806C36.0433 3.96183 36.0433 4.25522 35.8697 4.449L32.6445 8.04738C32.5458 8.1575 32.4067 8.21703 32.2644 8.21703ZM30.089 5.12024H32.2646C32.5463 5.12024 32.7747 5.34863 32.7747 5.63036V6.37346L34.8047 4.10853L32.7747 1.8436V2.58677C32.7747 2.8685 32.5463 3.09689 32.2646 3.09689H27.7056C28.5597 3.6957 29.3569 4.37226 30.089 5.12024Z" fill="black"/>
<path d="M32.2644 33.9051C32.2034 33.9051 32.1417 33.8941 32.0823 33.8714C31.8848 33.7958 31.7545 33.6064 31.7545 33.395V31.8284H18C9.79731 31.8284 3.12399 25.1551 3.12399 16.9525C3.12399 13.4353 4.37517 10.0218 6.6471 7.34094C6.74402 7.2266 6.88627 7.16058 7.03625 7.16058H11.5156C11.7383 7.16058 11.9352 7.30494 12.0021 7.51737C12.0691 7.72972 11.9905 7.96095 11.8081 8.08863C8.91509 10.1136 7.1879 13.4273 7.1879 16.9525C7.1879 22.9144 12.0383 27.7647 18 27.7647H31.7545V26.1982C31.7545 25.9868 31.8849 25.7973 32.0824 25.7217C32.28 25.6462 32.5034 25.7004 32.6446 25.8577L35.8698 29.4561C36.0434 29.6499 36.0434 29.9433 35.8698 30.137L32.6446 33.7354C32.5458 33.8455 32.4067 33.9051 32.2644 33.9051ZM7.2752 8.18089C5.25447 10.6495 4.14423 13.7549 4.14423 16.9525C4.14423 24.5926 10.3599 30.8082 18 30.8082H32.2646C32.5463 30.8082 32.7747 31.0366 32.7747 31.3183V32.0615L34.8047 29.7966L32.7747 27.5316V28.2748C32.7747 28.5565 32.5463 28.7849 32.2646 28.7849H18C11.4756 28.7849 6.16759 23.4769 6.16759 16.9525C6.16759 13.5936 7.60015 10.4105 10.0601 8.18089H7.2752ZM3.73541 33.9051C3.59316 33.9051 3.45411 33.8455 3.35537 33.7354L0.130245 30.137C-0.0434148 29.9433 -0.0434148 29.6499 0.130245 29.4561L3.35537 25.8577C3.49645 25.7004 3.71989 25.6462 3.91752 25.7217C4.11501 25.7973 4.24538 25.9868 4.24538 26.1982V27.7647H6.12736C6.26677 27.7647 6.40013 27.8217 6.4964 27.9227C7.61567 29.0958 8.9019 30.0881 10.3193 30.8719C10.5228 30.9845 10.6245 31.2205 10.5663 31.4458C10.5083 31.671 10.3051 31.8284 10.0725 31.8284H4.24538V33.395C4.24538 33.6064 4.11501 33.7958 3.91752 33.8714C3.85813 33.8941 3.79648 33.9051 3.73541 33.9051ZM1.19508 29.7966L3.22507 32.0615V31.3183C3.22507 31.0366 3.45346 30.8082 3.73519 30.8082H8.2942C7.44055 30.2096 6.64324 29.5329 5.91092 28.7849H3.73526C3.45353 28.7849 3.22514 28.5565 3.22514 28.2748V27.5316L1.19508 29.7966ZM28.9637 26.7444H24.4843C24.2616 26.7444 24.0647 26.6001 23.9978 26.3877C23.9308 26.1753 24.0094 25.9441 24.1918 25.8164C27.0848 23.7914 28.812 20.4778 28.812 16.9525C28.812 10.9906 23.9617 6.14041 17.9999 6.14041H4.24538V7.70684C4.24538 7.91825 4.11501 8.10772 3.91752 8.18329C3.71989 8.25886 3.49645 8.20465 3.35537 8.04731L0.130245 4.449C-0.0434148 4.25522 -0.0434148 3.96183 0.130245 3.76806L3.35537 0.169674C3.49645 0.0123386 3.71989 -0.0418799 3.91752 0.0336907C4.11501 0.109261 4.24538 0.298734 4.24538 0.510143V2.07665H18C26.2025 2.07665 32.8759 8.74996 32.8759 16.9525C32.8759 20.4698 31.6247 23.8832 29.3528 26.5642C29.2559 26.6785 29.1137 26.7444 28.9637 26.7444ZM25.9398 25.7242H28.7247C30.7455 23.2556 31.8556 20.1501 31.8556 16.9525C31.8556 9.31248 25.64 3.09689 18 3.09689H3.73526C3.45353 3.09689 3.22514 2.8685 3.22514 2.58677V1.8436L1.19516 4.10853L3.22514 6.37346V5.63036C3.22514 5.34863 3.45353 5.12024 3.73526 5.12024H18C24.5243 5.12024 29.8323 10.4282 29.8323 16.9525C29.8323 20.3115 28.3998 23.4947 25.9398 25.7242ZM32.2644 8.21703C32.2034 8.21703 32.1417 8.2061 32.0823 8.18337C31.8848 8.1078 31.7545 7.91832 31.7545 7.70691V6.14048H29.8726C29.7331 6.14048 29.5997 6.08342 29.5035 5.98242C28.3848 4.80965 27.0986 3.8174 25.6806 3.03312C25.4771 2.92053 25.3754 2.68457 25.4336 2.45931C25.4917 2.23406 25.6948 2.07665 25.9274 2.07665H31.7545V0.510143C31.7545 0.298734 31.8848 0.109261 32.0823 0.0336907C32.28 -0.0418799 32.5033 0.0123386 32.6445 0.169674L35.8697 3.76806C36.0433 3.96183 36.0433 4.25522 35.8697 4.449L32.6445 8.04738C32.5458 8.1575 32.4067 8.21703 32.2644 8.21703ZM30.089 5.12024H32.2646C32.5463 5.12024 32.7747 5.34863 32.7747 5.63036V6.37346L34.8047 4.10853L32.7747 1.8436V2.58677C32.7747 2.8685 32.5463 3.09689 32.2646 3.09689H27.7056C28.5597 3.6957 29.3569 4.37226 30.089 5.12024Z" fill="url(#paint1_linear_600_199)"/>
<defs>
<linearGradient id="paint0_linear_600_199" x1="9.71755" y1="17.1739" x2="26.4889" y2="17.2092" gradientUnits="userSpaceOnUse">
<stop stop-color="#4E54C8"/>
<stop offset="1" stop-color="#8F94FB"/>
</linearGradient>
<linearGradient id="paint1_linear_600_199" x1="0.71464" y1="17.3872" x2="35.7037" y2="17.4653" gradientUnits="userSpaceOnUse">
<stop stop-color="#4E54C8"/>
<stop offset="1" stop-color="#8F94FB"/>
</linearGradient>
</defs>
</svg>
