<svg width="38" height="36" viewBox="0 0 38 36" fill="none" xmlns="http://www.w3.org/2000/svg">
<path d="M35.398 16.1998C35.0271 16.2014 34.6656 16.3175 34.3632 16.5323C34.0608 16.7471 33.8321 17.0501 33.7084 17.3998H29.998V18.5998H33.7084C33.819 18.9101 34.0127 19.1841 34.2684 19.3918C34.5241 19.5994 34.8319 19.7328 35.1583 19.7773C35.4847 19.8219 35.817 19.7758 36.119 19.6443C36.421 19.5127 36.681 19.3006 36.8706 19.0313C37.0602 18.7619 37.1722 18.4456 37.1942 18.117C37.2162 17.7883 37.1475 17.4599 36.9955 17.1677C36.8435 16.8754 36.6141 16.6306 36.3324 16.4599C36.0507 16.2892 35.7274 16.1993 35.398 16.1998ZM35.398 18.5998C35.2794 18.5998 35.1634 18.5646 35.0647 18.4987C34.966 18.4328 34.8891 18.3391 34.8437 18.2294C34.7983 18.1198 34.7864 17.9992 34.8096 17.8828C34.8327 17.7664 34.8899 17.6595 34.9738 17.5756C35.0577 17.4917 35.1646 17.4345 35.281 17.4114C35.3974 17.3882 35.518 17.4001 35.6276 17.4455C35.7373 17.4909 35.831 17.5678 35.8969 17.6665C35.9628 17.7652 35.998 17.8812 35.998 17.9998C35.998 18.159 35.9348 18.3116 35.8223 18.4241C35.7098 18.5366 35.5572 18.5998 35.398 18.5998Z" fill="black"/>
<path d="M35.398 16.1998C35.0271 16.2014 34.6656 16.3175 34.3632 16.5323C34.0608 16.7471 33.8321 17.0501 33.7084 17.3998H29.998V18.5998H33.7084C33.819 18.9101 34.0127 19.1841 34.2684 19.3918C34.5241 19.5994 34.8319 19.7328 35.1583 19.7773C35.4847 19.8219 35.817 19.7758 36.119 19.6443C36.421 19.5127 36.681 19.3006 36.8706 19.0313C37.0602 18.7619 37.1722 18.4456 37.1942 18.117C37.2162 17.7883 37.1475 17.4599 36.9955 17.1677C36.8435 16.8754 36.6141 16.6306 36.3324 16.4599C36.0507 16.2892 35.7274 16.1993 35.398 16.1998ZM35.398 18.5998C35.2794 18.5998 35.1634 18.5646 35.0647 18.4987C34.966 18.4328 34.8891 18.3391 34.8437 18.2294C34.7983 18.1198 34.7864 17.9992 34.8096 17.8828C34.8327 17.7664 34.8899 17.6595 34.9738 17.5756C35.0577 17.4917 35.1646 17.4345 35.281 17.4114C35.3974 17.3882 35.518 17.4001 35.6276 17.4455C35.7373 17.4909 35.831 17.5678 35.8969 17.6665C35.9628 17.7652 35.998 17.8812 35.998 17.9998C35.998 18.159 35.9348 18.3116 35.8223 18.4241C35.7098 18.5366 35.5572 18.5998 35.398 18.5998Z" fill="url(#paint0_linear_600_175)"/>
<path d="M29.3975 13.8001V15.0001H31.7975C31.8906 15.0001 31.9825 14.9784 32.0658 14.9367C32.1491 14.8951 32.2216 14.8346 32.2774 14.7601L33.0646 13.7107C33.2367 13.7674 33.4163 13.7976 33.5974 13.8001C33.9998 13.801 34.3908 13.6675 34.7085 13.4206C35.0262 13.1738 35.2523 12.8279 35.3509 12.4378C35.4494 12.0477 35.4147 11.6359 35.2524 11.2678C35.09 10.8997 34.8093 10.5964 34.4548 10.4062C34.1003 10.2159 33.6924 10.1496 33.2959 10.2178C32.8994 10.286 32.537 10.4847 32.2665 10.7825C31.9959 11.0802 31.8326 11.4598 31.8025 11.861C31.7724 12.2622 31.8773 12.6619 32.1005 12.9967L31.4975 13.8001H29.3975ZM33.5974 11.4001C33.7161 11.4001 33.8321 11.4353 33.9308 11.5012C34.0295 11.5672 34.1064 11.6609 34.1518 11.7705C34.1972 11.8801 34.2091 12.0008 34.1859 12.1172C34.1628 12.2335 34.1056 12.3405 34.0217 12.4244C33.9378 12.5083 33.8309 12.5654 33.7145 12.5886C33.5981 12.6117 33.4775 12.5998 33.3678 12.5544C33.2582 12.509 33.1645 12.4321 33.0986 12.3334C33.0326 12.2348 32.9974 12.1188 32.9974 12.0001C32.9974 11.841 33.0607 11.6884 33.1732 11.5758C33.2857 11.4633 33.4383 11.4001 33.5974 11.4001Z" fill="black"/>
<path d="M29.3975 13.8001V15.0001H31.7975C31.8906 15.0001 31.9825 14.9784 32.0658 14.9367C32.1491 14.8951 32.2216 14.8346 32.2774 14.7601L33.0646 13.7107C33.2367 13.7674 33.4163 13.7976 33.5974 13.8001C33.9998 13.801 34.3908 13.6675 34.7085 13.4206C35.0262 13.1738 35.2523 12.8279 35.3509 12.4378C35.4494 12.0477 35.4147 11.6359 35.2524 11.2678C35.09 10.8997 34.8093 10.5964 34.4548 10.4062C34.1003 10.2159 33.6924 10.1496 33.2959 10.2178C32.8994 10.286 32.537 10.4847 32.2665 10.7825C31.9959 11.0802 31.8326 11.4598 31.8025 11.861C31.7724 12.2622 31.8773 12.6619 32.1005 12.9967L31.4975 13.8001H29.3975ZM33.5974 11.4001C33.7161 11.4001 33.8321 11.4353 33.9308 11.5012C34.0295 11.5672 34.1064 11.6609 34.1518 11.7705C34.1972 11.8801 34.2091 12.0008 34.1859 12.1172C34.1628 12.2335 34.1056 12.3405 34.0217 12.4244C33.9378 12.5083 33.8309 12.5654 33.7145 12.5886C33.5981 12.6117 33.4775 12.5998 33.3678 12.5544C33.2582 12.509 33.1645 12.4321 33.0986 12.3334C33.0326 12.2348 32.9974 12.1188 32.9974 12.0001C32.9974 11.841 33.0607 11.6884 33.1732 11.5758C33.2857 11.4633 33.4383 11.4001 33.5974 11.4001Z" fill="url(#paint1_linear_600_175)"/>
<path d="M33.5974 22.1999C33.4163 22.2024 33.2367 22.2325 33.0646 22.2893L32.2774 21.2399C32.2216 21.1653 32.1491 21.1049 32.0658 21.0632C31.9825 21.0215 31.8906 20.9999 31.7975 20.9999H29.3975V22.1999H31.4975L32.1005 23.0033C31.8783 23.3373 31.7742 23.7361 31.8045 24.1361C31.8349 24.5361 31.9981 24.9146 32.2681 25.2113C32.5381 25.508 32.8995 25.706 33.2949 25.7739C33.6903 25.8418 34.0971 25.7756 34.4506 25.5859C34.8041 25.3962 35.084 25.0938 35.2461 24.7268C35.4081 24.3597 35.4428 23.9491 35.3448 23.5601C35.2468 23.1711 35.0216 22.8259 34.705 22.5795C34.3885 22.333 33.9986 22.1994 33.5974 22.1999ZM33.5974 24.5998C33.4788 24.5998 33.3628 24.5647 33.2641 24.4987C33.1654 24.4328 33.0885 24.3391 33.0431 24.2295C32.9977 24.1198 32.9858 23.9992 33.009 23.8828C33.0321 23.7664 33.0893 23.6595 33.1732 23.5756C33.2571 23.4917 33.364 23.4345 33.4804 23.4114C33.5968 23.3882 33.7174 23.4001 33.8271 23.4455C33.9367 23.4909 34.0304 23.5678 34.0963 23.6665C34.1623 23.7652 34.1974 23.8812 34.1974 23.9999C34.1974 24.159 34.1342 24.3116 34.0217 24.4241C33.9092 24.5366 33.7566 24.5998 33.5974 24.5998Z" fill="black"/>
<path d="M33.5974 22.1999C33.4163 22.2024 33.2367 22.2325 33.0646 22.2893L32.2774 21.2399C32.2216 21.1653 32.1491 21.1049 32.0658 21.0632C31.9825 21.0215 31.8906 20.9999 31.7975 20.9999H29.3975V22.1999H31.4975L32.1005 23.0033C31.8783 23.3373 31.7742 23.7361 31.8045 24.1361C31.8349 24.5361 31.9981 24.9146 32.2681 25.2113C32.5381 25.508 32.8995 25.706 33.2949 25.7739C33.6903 25.8418 34.0971 25.7756 34.4506 25.5859C34.8041 25.3962 35.084 25.0938 35.2461 24.7268C35.4081 24.3597 35.4428 23.9491 35.3448 23.5601C35.2468 23.1711 35.0216 22.8259 34.705 22.5795C34.3885 22.333 33.9986 22.1994 33.5974 22.1999ZM33.5974 24.5998C33.4788 24.5998 33.3628 24.5647 33.2641 24.4987C33.1654 24.4328 33.0885 24.3391 33.0431 24.2295C32.9977 24.1198 32.9858 23.9992 33.009 23.8828C33.0321 23.7664 33.0893 23.6595 33.1732 23.5756C33.2571 23.4917 33.364 23.4345 33.4804 23.4114C33.5968 23.3882 33.7174 23.4001 33.8271 23.4455C33.9367 23.4909 34.0304 23.5678 34.0963 23.6665C34.1623 23.7652 34.1974 23.8812 34.1974 23.9999C34.1974 24.159 34.1342 24.3116 34.0217 24.4241C33.9092 24.5366 33.7566 24.5998 33.5974 24.5998Z" fill="url(#paint2_linear_600_175)"/>
<path d="M1.8002 19.7998C2.17116 19.7983 2.53258 19.6822 2.83502 19.4674C3.13746 19.2526 3.36614 18.9496 3.48979 18.5998H7.20018V17.3998H3.48979C3.37926 17.0895 3.18556 16.8156 2.92986 16.6079C2.67416 16.4003 2.3663 16.2669 2.03992 16.2223C1.71355 16.1778 1.38121 16.2238 1.07922 16.3554C0.777238 16.487 0.517228 16.699 0.327606 16.9684C0.137984 17.2377 0.026045 17.554 0.00402149 17.8827C-0.018002 18.2114 0.0507374 18.5398 0.202728 18.832C0.354719 19.1242 0.584113 19.3691 0.865843 19.5398C1.14757 19.7104 1.4708 19.8004 1.8002 19.7998ZM1.8002 17.3998C1.91887 17.3998 2.03487 17.435 2.13354 17.501C2.23221 17.5669 2.30911 17.6606 2.35453 17.7702C2.39994 17.8799 2.41182 18.0005 2.38867 18.1169C2.36552 18.2333 2.30837 18.3402 2.22446 18.4241C2.14055 18.508 2.03364 18.5652 1.91725 18.5883C1.80087 18.6115 1.68023 18.5996 1.57059 18.5542C1.46096 18.5087 1.36725 18.4318 1.30132 18.3332C1.23539 18.2345 1.2002 18.1185 1.2002 17.9998C1.2002 17.8407 1.26342 17.6881 1.37594 17.5756C1.48846 17.463 1.64107 17.3998 1.8002 17.3998Z" fill="black"/>
<path d="M1.8002 19.7998C2.17116 19.7983 2.53258 19.6822 2.83502 19.4674C3.13746 19.2526 3.36614 18.9496 3.48979 18.5998H7.20018V17.3998H3.48979C3.37926 17.0895 3.18556 16.8156 2.92986 16.6079C2.67416 16.4003 2.3663 16.2669 2.03992 16.2223C1.71355 16.1778 1.38121 16.2238 1.07922 16.3554C0.777238 16.487 0.517228 16.699 0.327606 16.9684C0.137984 17.2377 0.026045 17.554 0.00402149 17.8827C-0.018002 18.2114 0.0507374 18.5398 0.202728 18.832C0.354719 19.1242 0.584113 19.3691 0.865843 19.5398C1.14757 19.7104 1.4708 19.8004 1.8002 19.7998ZM1.8002 17.3998C1.91887 17.3998 2.03487 17.435 2.13354 17.501C2.23221 17.5669 2.30911 17.6606 2.35453 17.7702C2.39994 17.8799 2.41182 18.0005 2.38867 18.1169C2.36552 18.2333 2.30837 18.3402 2.22446 18.4241C2.14055 18.508 2.03364 18.5652 1.91725 18.5883C1.80087 18.6115 1.68023 18.5996 1.57059 18.5542C1.46096 18.5087 1.36725 18.4318 1.30132 18.3332C1.23539 18.2345 1.2002 18.1185 1.2002 17.9998C1.2002 17.8407 1.26342 17.6881 1.37594 17.5756C1.48846 17.463 1.64107 17.3998 1.8002 17.3998Z" fill="url(#paint3_linear_600_175)"/>
<path d="M3.59782 13.8001C3.77893 13.7976 3.9586 13.7674 4.13062 13.7107L4.91782 14.7601C4.97371 14.8346 5.04618 14.8951 5.12949 14.9367C5.2128 14.9784 5.30467 15.0001 5.39782 15.0001H7.79781V13.8001H5.69781L5.09482 12.9967C5.31694 12.6626 5.42109 12.2639 5.39072 11.8638C5.36035 11.4638 5.19721 11.0854 4.9272 10.7887C4.65719 10.4919 4.29578 10.2939 3.90037 10.226C3.50496 10.1582 3.09822 10.2244 2.74472 10.4141C2.39122 10.6038 2.11123 10.9062 1.94921 11.2732C1.78719 11.6402 1.75243 12.0508 1.85045 12.4399C1.94846 12.8289 2.17364 13.174 2.49022 13.4205C2.8068 13.6669 3.19663 13.8005 3.59782 13.8001ZM3.59782 11.4001C3.71649 11.4001 3.83249 11.4353 3.93116 11.5012C4.02983 11.5671 4.10674 11.6609 4.15215 11.7705C4.19756 11.8801 4.20944 12.0008 4.18629 12.1172C4.16314 12.2335 4.106 12.3405 4.02208 12.4244C3.93817 12.5083 3.83126 12.5654 3.71488 12.5886C3.59849 12.6117 3.47785 12.5998 3.36821 12.5544C3.25858 12.509 3.16487 12.4321 3.09894 12.3334C3.03301 12.2348 2.99782 12.1188 2.99782 12.0001C2.99782 11.841 3.06104 11.6884 3.17356 11.5758C3.28608 11.4633 3.43869 11.4001 3.59782 11.4001Z" fill="black"/>
<path d="M3.59782 13.8001C3.77893 13.7976 3.9586 13.7674 4.13062 13.7107L4.91782 14.7601C4.97371 14.8346 5.04618 14.8951 5.12949 14.9367C5.2128 14.9784 5.30467 15.0001 5.39782 15.0001H7.79781V13.8001H5.69781L5.09482 12.9967C5.31694 12.6626 5.42109 12.2639 5.39072 11.8638C5.36035 11.4638 5.19721 11.0854 4.9272 10.7887C4.65719 10.4919 4.29578 10.2939 3.90037 10.226C3.50496 10.1582 3.09822 10.2244 2.74472 10.4141C2.39122 10.6038 2.11123 10.9062 1.94921 11.2732C1.78719 11.6402 1.75243 12.0508 1.85045 12.4399C1.94846 12.8289 2.17364 13.174 2.49022 13.4205C2.8068 13.6669 3.19663 13.8005 3.59782 13.8001ZM3.59782 11.4001C3.71649 11.4001 3.83249 11.4353 3.93116 11.5012C4.02983 11.5671 4.10674 11.6609 4.15215 11.7705C4.19756 11.8801 4.20944 12.0008 4.18629 12.1172C4.16314 12.2335 4.106 12.3405 4.02208 12.4244C3.93817 12.5083 3.83126 12.5654 3.71488 12.5886C3.59849 12.6117 3.47785 12.5998 3.36821 12.5544C3.25858 12.509 3.16487 12.4321 3.09894 12.3334C3.03301 12.2348 2.99782 12.1188 2.99782 12.0001C2.99782 11.841 3.06104 11.6884 3.17356 11.5758C3.28608 11.4633 3.43869 11.4001 3.59782 11.4001Z" fill="url(#paint4_linear_600_175)"/>
<path d="M7.7984 22.1999V20.9999H5.39841C5.30526 20.9999 5.21339 21.0215 5.13008 21.0632C5.04677 21.1049 4.9743 21.1653 4.91841 21.2399L4.13121 22.2893C3.95919 22.2325 3.77953 22.2024 3.59841 22.1999C3.1961 22.1989 2.80501 22.3325 2.48731 22.5793C2.16961 22.8262 1.94352 23.1721 1.84499 23.5622C1.74645 23.9522 1.78112 24.364 1.94348 24.7321C2.10584 25.1002 2.38658 25.4035 2.74107 25.5938C3.09556 25.784 3.50348 25.8503 3.89998 25.7821C4.29648 25.714 4.65881 25.5152 4.9294 25.2175C5.19999 24.9198 5.3633 24.5401 5.39338 24.1389C5.42345 23.7377 5.31858 23.338 5.09541 23.0033L5.69841 22.1999H7.7984ZM3.59841 24.5998C3.47975 24.5998 3.36374 24.5647 3.26507 24.4987C3.1664 24.4328 3.0895 24.3391 3.04409 24.2295C2.99868 24.1198 2.98679 23.9992 3.00995 23.8828C3.0331 23.7664 3.09024 23.6595 3.17415 23.5756C3.25806 23.4917 3.36497 23.4345 3.48136 23.4114C3.59775 23.3882 3.71839 23.4001 3.82802 23.4455C3.93766 23.4909 4.03137 23.5678 4.09729 23.6665C4.16322 23.7652 4.19841 23.8812 4.19841 23.9999C4.19841 24.159 4.1352 24.3116 4.02268 24.4241C3.91016 24.5366 3.75754 24.5998 3.59841 24.5998Z" fill="black"/>
<path d="M7.7984 22.1999V20.9999H5.39841C5.30526 20.9999 5.21339 21.0215 5.13008 21.0632C5.04677 21.1049 4.9743 21.1653 4.91841 21.2399L4.13121 22.2893C3.95919 22.2325 3.77953 22.2024 3.59841 22.1999C3.1961 22.1989 2.80501 22.3325 2.48731 22.5793C2.16961 22.8262 1.94352 23.1721 1.84499 23.5622C1.74645 23.9522 1.78112 24.364 1.94348 24.7321C2.10584 25.1002 2.38658 25.4035 2.74107 25.5938C3.09556 25.784 3.50348 25.8503 3.89998 25.7821C4.29648 25.714 4.65881 25.5152 4.9294 25.2175C5.19999 24.9198 5.3633 24.5401 5.39338 24.1389C5.42345 23.7377 5.31858 23.338 5.09541 23.0033L5.69841 22.1999H7.7984ZM3.59841 24.5998C3.47975 24.5998 3.36374 24.5647 3.26507 24.4987C3.1664 24.4328 3.0895 24.3391 3.04409 24.2295C2.99868 24.1198 2.98679 23.9992 3.00995 23.8828C3.0331 23.7664 3.09024 23.6595 3.17415 23.5756C3.25806 23.4917 3.36497 23.4345 3.48136 23.4114C3.59775 23.3882 3.71839 23.4001 3.82802 23.4455C3.93766 23.4909 4.03137 23.5678 4.09729 23.6665C4.16322 23.7652 4.19841 23.8812 4.19841 23.9999C4.19841 24.159 4.1352 24.3116 4.02268 24.4241C3.91016 24.5366 3.75754 24.5998 3.59841 24.5998Z" fill="url(#paint5_linear_600_175)"/>
<path d="M18.6023 1.20005C21.7883 1.1921 24.8982 2.17346 27.5026 4.00864L26.7826 4.72864C26.7076 4.80374 26.6538 4.8974 26.6268 5.00007C26.5998 5.10274 26.6005 5.21074 26.6289 5.31305C26.6573 5.41535 26.7123 5.5083 26.7883 5.5824C26.8643 5.6565 26.9587 5.7091 27.0616 5.73483L30.4552 6.58323C30.5034 6.59481 30.5527 6.60046 30.6022 6.60003C30.6934 6.60003 30.7834 6.57923 30.8654 6.53923C30.9474 6.49922 31.0191 6.44106 31.0752 6.36916C31.1313 6.29726 31.1703 6.21351 31.1892 6.12429C31.2081 6.03506 31.2064 5.9427 31.1842 5.85423L30.3358 2.46005C30.3101 2.35705 30.2575 2.26272 30.1834 2.1867C30.1093 2.11067 30.0164 2.05567 29.9141 2.0273C29.8117 1.99893 29.7037 1.99822 29.6011 2.02523C29.4984 2.05224 29.4047 2.10601 29.3296 2.18105L28.363 3.14824C25.5242 1.09311 22.1069 -0.00909318 18.6023 5.65078e-05C15.9692 0.00668096 13.3741 0.628977 11.0244 1.81724C8.67462 3.0055 6.63531 4.72679 5.06934 6.84363L6.03533 7.55643C7.48932 5.59038 9.38299 3.99165 11.565 2.88797C13.7471 1.78429 16.157 1.20626 18.6023 1.20005ZM29.4286 3.78004L29.7772 5.17564L28.3822 4.82644L29.4286 3.78004Z" fill="black"/>
<path d="M18.6023 1.20005C21.7883 1.1921 24.8982 2.17346 27.5026 4.00864L26.7826 4.72864C26.7076 4.80374 26.6538 4.8974 26.6268 5.00007C26.5998 5.10274 26.6005 5.21074 26.6289 5.31305C26.6573 5.41535 26.7123 5.5083 26.7883 5.5824C26.8643 5.6565 26.9587 5.7091 27.0616 5.73483L30.4552 6.58323C30.5034 6.59481 30.5527 6.60046 30.6022 6.60003C30.6934 6.60003 30.7834 6.57923 30.8654 6.53923C30.9474 6.49922 31.0191 6.44106 31.0752 6.36916C31.1313 6.29726 31.1703 6.21351 31.1892 6.12429C31.2081 6.03506 31.2064 5.9427 31.1842 5.85423L30.3358 2.46005C30.3101 2.35705 30.2575 2.26272 30.1834 2.1867C30.1093 2.11067 30.0164 2.05567 29.9141 2.0273C29.8117 1.99893 29.7037 1.99822 29.6011 2.02523C29.4984 2.05224 29.4047 2.10601 29.3296 2.18105L28.363 3.14824C25.5242 1.09311 22.1069 -0.00909318 18.6023 5.65078e-05C15.9692 0.00668096 13.3741 0.628977 11.0244 1.81724C8.67462 3.0055 6.63531 4.72679 5.06934 6.84363L6.03533 7.55643C7.48932 5.59038 9.38299 3.99165 11.565 2.88797C13.7471 1.78429 16.157 1.20626 18.6023 1.20005ZM29.4286 3.78004L29.7772 5.17564L28.3822 4.82644L29.4286 3.78004Z" fill="url(#paint6_linear_600_175)"/>
<path d="M6.86833 33.5398C6.89384 33.6427 6.94614 33.7369 7.01991 33.813C7.09369 33.8891 7.1863 33.9443 7.28833 33.973C7.34053 33.9873 7.3944 33.9945 7.44853 33.9946C7.60764 33.9946 7.76023 33.9313 7.87272 33.8188L8.83932 32.8522C11.6787 34.9075 15.0967 36.0095 18.6019 35.9998C21.235 35.9932 23.8301 35.3709 26.1798 34.1826C28.5295 32.9943 30.5689 31.273 32.1348 29.1562L31.1688 28.4434C29.7148 30.4095 27.8212 32.0082 25.6391 33.1119C23.4571 34.2155 21.0472 34.7936 18.6019 34.7998C15.4159 34.8077 12.3059 33.8264 9.70152 31.9912L10.4215 31.2712C10.4966 31.1961 10.5503 31.1024 10.5773 30.9998C10.6043 30.8971 10.6036 30.7891 10.5753 30.6868C10.5469 30.5845 10.4919 30.4915 10.4159 30.4174C10.3398 30.3433 10.2455 30.2907 10.1425 30.265L6.74773 29.4178C6.64718 29.3926 6.54182 29.3939 6.44192 29.4216C6.34202 29.4492 6.25098 29.5023 6.17769 29.5756C6.10439 29.6489 6.05134 29.7399 6.02369 29.8398C5.99604 29.9397 5.99475 30.045 6.01993 30.1456L6.86833 33.5398ZM8.82192 31.1734L7.77553 32.2198L7.42693 30.8242L8.82192 31.1734Z" fill="black"/>
<path d="M6.86833 33.5398C6.89384 33.6427 6.94614 33.7369 7.01991 33.813C7.09369 33.8891 7.1863 33.9443 7.28833 33.973C7.34053 33.9873 7.3944 33.9945 7.44853 33.9946C7.60764 33.9946 7.76023 33.9313 7.87272 33.8188L8.83932 32.8522C11.6787 34.9075 15.0967 36.0095 18.6019 35.9998C21.235 35.9932 23.8301 35.3709 26.1798 34.1826C28.5295 32.9943 30.5689 31.273 32.1348 29.1562L31.1688 28.4434C29.7148 30.4095 27.8212 32.0082 25.6391 33.1119C23.4571 34.2155 21.0472 34.7936 18.6019 34.7998C15.4159 34.8077 12.3059 33.8264 9.70152 31.9912L10.4215 31.2712C10.4966 31.1961 10.5503 31.1024 10.5773 30.9998C10.6043 30.8971 10.6036 30.7891 10.5753 30.6868C10.5469 30.5845 10.4919 30.4915 10.4159 30.4174C10.3398 30.3433 10.2455 30.2907 10.1425 30.265L6.74773 29.4178C6.64718 29.3926 6.54182 29.3939 6.44192 29.4216C6.34202 29.4492 6.25098 29.5023 6.17769 29.5756C6.10439 29.6489 6.05134 29.7399 6.02369 29.8398C5.99604 29.9397 5.99475 30.045 6.01993 30.1456L6.86833 33.5398ZM8.82192 31.1734L7.77553 32.2198L7.42693 30.8242L8.82192 31.1734Z" fill="url(#paint7_linear_600_175)"/>
<path d="M11.1594 15.0779C11.1449 15.1144 11.1195 15.1456 11.0866 15.167C11.0538 15.1885 11.0151 15.1993 10.9758 15.1979C10.6104 15.1989 10.2603 15.3447 10.0023 15.6034C9.74431 15.8621 9.59941 16.2125 9.59941 16.5779V17.3999H8.99941C8.84028 17.3999 8.68767 17.4631 8.57515 17.5756C8.46263 17.6882 8.39941 17.8408 8.39941 17.9999C8.39941 20.7051 9.47405 23.2995 11.3869 25.2124C13.2998 27.1252 15.8942 28.1999 18.5994 28.1999C21.3046 28.1999 23.899 27.1252 25.8118 25.2124C27.7247 23.2995 28.7993 20.7051 28.7993 17.9999C28.7993 17.8408 28.7361 17.6882 28.6236 17.5756C28.5111 17.4631 28.3585 17.3999 28.1993 17.3999H27.5993V16.5779C27.5993 16.2129 27.4548 15.8628 27.1973 15.6042C26.9398 15.3456 26.5903 15.1995 26.2253 15.1979C26.1861 15.1993 26.1474 15.1885 26.1145 15.167C26.0816 15.1456 26.0562 15.1144 26.0417 15.0779C25.9014 14.634 25.7221 14.2033 25.5059 13.7909C25.4878 13.7538 25.4819 13.7118 25.489 13.6711C25.4961 13.6304 25.5159 13.5929 25.5455 13.5641C25.6737 13.4371 25.7753 13.286 25.8446 13.1195C25.914 12.9529 25.9495 12.7743 25.9493 12.5939C25.9487 12.228 25.8036 11.8772 25.5455 11.6177L24.3816 10.4531C24.1194 10.1954 23.767 10.0503 23.3994 10.0487C23.2198 10.0487 23.042 10.0845 22.8764 10.154C22.7109 10.2236 22.5608 10.3255 22.4352 10.4537C22.4109 10.4881 22.3743 10.5117 22.333 10.5196C22.2918 10.5276 22.249 10.5192 22.2138 10.4963C21.7998 10.2785 21.3673 10.0978 20.9214 9.95633C20.8849 9.94186 20.8537 9.91644 20.8322 9.88357C20.8107 9.85069 20.8 9.81197 20.8014 9.77273C20.7995 9.40798 20.6532 9.05882 20.3946 8.80158C20.136 8.54433 19.7861 8.39993 19.4214 8.39993H17.7774C17.5951 8.39993 17.4147 8.43601 17.2465 8.50611C17.0783 8.57621 16.9256 8.67894 16.7973 8.80836C16.669 8.93778 16.5676 9.09132 16.499 9.26014C16.4303 9.42896 16.3958 9.6097 16.3974 9.79193C16.399 9.82653 16.3894 9.86074 16.3701 9.88948C16.3507 9.91822 16.3226 9.93997 16.29 9.95153C15.8412 10.0915 15.4062 10.2722 14.9904 10.4915C14.9533 10.51 14.9113 10.5162 14.8705 10.5091C14.8297 10.5019 14.7922 10.4819 14.7636 10.4519C14.5008 10.2027 14.1525 10.0638 13.7904 10.0638C13.4283 10.0638 13.0799 10.2027 12.8172 10.4519L11.6526 11.6159C11.5231 11.7447 11.4206 11.8981 11.3511 12.0671C11.2817 12.2361 11.2467 12.4172 11.2482 12.5999C11.2482 12.7795 11.284 12.9573 11.3535 13.1228C11.423 13.2884 11.5249 13.4384 11.6532 13.5641C11.6721 13.5822 11.6871 13.6039 11.6974 13.6279C11.7077 13.6519 11.7131 13.6778 11.7132 13.7039C11.7152 13.732 11.7098 13.7601 11.6976 13.7855C11.4804 14.1996 11.3003 14.6321 11.1594 15.0779ZM11.0868 22.9295C10.2302 21.6381 9.72444 20.146 9.61921 18.5999H12.8958C12.9295 19.8504 13.0993 21.0935 13.4022 22.3073C12.6153 22.4572 11.8406 22.6652 11.0844 22.9295H11.0868ZM11.8428 23.9339C12.469 23.7376 13.1066 23.5797 13.752 23.4611C14.1001 24.5104 14.6228 25.4934 15.2982 26.3687C13.9692 25.8421 12.7841 25.0076 11.8404 23.9339H11.8428ZM17.9994 26.9069C16.7706 26.5649 15.684 25.1987 14.9676 23.2667C15.9733 23.136 16.9854 23.0613 17.9994 23.0429V26.9069ZM17.9994 21.8429C16.8619 21.8631 15.7267 21.9515 14.5998 22.1075C14.3014 20.9607 14.1322 19.7842 14.0952 18.5999H17.9994V21.8429ZM14.9994 17.3999C14.9994 16.4451 15.3787 15.5295 16.0538 14.8543C16.7289 14.1792 17.6446 13.7999 18.5994 13.7999C19.5541 13.7999 20.4698 14.1792 21.1449 14.8543C21.8201 15.5295 22.1994 16.4451 22.1994 17.3999H14.9994ZM23.1036 18.5999C23.0666 19.7842 22.8973 20.9607 22.599 22.1075C21.4721 21.9515 20.3368 21.8631 19.1994 21.8429V18.5999H23.1036ZM19.1994 26.9069V23.0429C20.2133 23.0613 21.2255 23.136 22.2312 23.2667C21.5148 25.1999 20.4282 26.5649 19.1994 26.9069ZM21.903 26.3669C22.5783 25.4918 23.101 24.509 23.4492 23.4599C24.0946 23.5785 24.7321 23.7364 25.3583 23.9327C24.4155 25.0066 23.2312 25.8414 21.903 26.3687V26.3669ZM27.5795 18.5999C27.475 20.1458 26.9701 21.6378 26.1143 22.9295C25.3582 22.6652 24.5834 22.4572 23.7966 22.3073C24.0995 21.0935 24.2693 19.8504 24.303 18.5999H27.5795ZM12.2994 15.4379C12.4184 15.0601 12.5712 14.6938 12.756 14.3435C12.8585 14.146 12.9111 13.9264 12.909 13.7039C12.9092 13.5193 12.8727 13.3365 12.8016 13.1661C12.7306 12.9958 12.6263 12.8412 12.495 12.7115C12.4789 12.696 12.4662 12.6774 12.4577 12.6567C12.4492 12.6361 12.4452 12.6138 12.4458 12.5915C12.4458 12.5677 12.4505 12.5442 12.4597 12.5223C12.4689 12.5003 12.4823 12.4804 12.4992 12.4637L13.6632 11.2997C13.6971 11.2683 13.7417 11.2508 13.788 11.2508C13.8343 11.2508 13.8788 11.2683 13.9128 11.2997C14.122 11.51 14.3927 11.6482 14.6858 11.6942C14.9788 11.7401 15.2789 11.6915 15.5424 11.5553C15.8948 11.3704 16.2633 11.218 16.6434 11.0999C16.9247 11.0128 17.1699 10.8364 17.342 10.5975C17.5142 10.3586 17.6038 10.0701 17.5974 9.77573C17.5989 9.72904 17.6186 9.68478 17.6522 9.65231C17.6858 9.61984 17.7307 9.6017 17.7774 9.60173H19.4214C19.4681 9.6017 19.513 9.61984 19.5466 9.65231C19.5802 9.68478 19.5998 9.72904 19.6014 9.77573C19.6011 10.07 19.6938 10.3569 19.8662 10.5954C20.0386 10.834 20.2818 11.012 20.5614 11.1041C20.9392 11.2231 21.3054 11.3759 21.6558 11.5607C21.9213 11.6919 22.221 11.7372 22.5134 11.6904C22.8058 11.6437 23.0764 11.5071 23.2878 11.2997C23.3032 11.2836 23.3219 11.2709 23.3426 11.2624C23.3632 11.254 23.3854 11.2499 23.4078 11.2505C23.4564 11.2691 23.4888 11.2571 23.5356 11.3039L24.6996 12.4679C24.7327 12.5022 24.7514 12.548 24.7518 12.5957C24.7504 12.6409 24.7317 12.6839 24.6996 12.7157C24.4895 12.9244 24.3513 13.1945 24.3051 13.487C24.2588 13.7794 24.3068 14.079 24.4422 14.3423C24.6272 14.693 24.7802 15.0597 24.8993 15.4379C24.9915 15.7174 25.1695 15.9607 25.408 16.1331C25.6466 16.3055 25.9334 16.3982 26.2277 16.3979C26.2744 16.3995 26.3187 16.4191 26.3512 16.4527C26.3836 16.4863 26.4018 16.5312 26.4017 16.5779V17.3999H23.3994C23.3994 16.1269 22.8936 14.906 21.9935 14.0058C21.0933 13.1056 19.8724 12.5999 18.5994 12.5999C17.3263 12.5999 16.1054 13.1056 15.2053 14.0058C14.3051 14.906 13.7994 16.1269 13.7994 17.3999H10.7994V16.5779C10.7994 16.5312 10.8175 16.4863 10.85 16.4527C10.8825 16.4191 10.9267 16.3995 10.9734 16.3979C11.2673 16.3977 11.5536 16.3047 11.7917 16.1324C12.0297 15.9601 12.2074 15.717 12.2994 15.4379Z" fill="black"/>
<path d="M11.1594 15.0779C11.1449 15.1144 11.1195 15.1456 11.0866 15.167C11.0538 15.1885 11.0151 15.1993 10.9758 15.1979C10.6104 15.1989 10.2603 15.3447 10.0023 15.6034C9.74431 15.8621 9.59941 16.2125 9.59941 16.5779V17.3999H8.99941C8.84028 17.3999 8.68767 17.4631 8.57515 17.5756C8.46263 17.6882 8.39941 17.8408 8.39941 17.9999C8.39941 20.7051 9.47405 23.2995 11.3869 25.2124C13.2998 27.1252 15.8942 28.1999 18.5994 28.1999C21.3046 28.1999 23.899 27.1252 25.8118 25.2124C27.7247 23.2995 28.7993 20.7051 28.7993 17.9999C28.7993 17.8408 28.7361 17.6882 28.6236 17.5756C28.5111 17.4631 28.3585 17.3999 28.1993 17.3999H27.5993V16.5779C27.5993 16.2129 27.4548 15.8628 27.1973 15.6042C26.9398 15.3456 26.5903 15.1995 26.2253 15.1979C26.1861 15.1993 26.1474 15.1885 26.1145 15.167C26.0816 15.1456 26.0562 15.1144 26.0417 15.0779C25.9014 14.634 25.7221 14.2033 25.5059 13.7909C25.4878 13.7538 25.4819 13.7118 25.489 13.6711C25.4961 13.6304 25.5159 13.5929 25.5455 13.5641C25.6737 13.4371 25.7753 13.286 25.8446 13.1195C25.914 12.9529 25.9495 12.7743 25.9493 12.5939C25.9487 12.228 25.8036 11.8772 25.5455 11.6177L24.3816 10.4531C24.1194 10.1954 23.767 10.0503 23.3994 10.0487C23.2198 10.0487 23.042 10.0845 22.8764 10.154C22.7109 10.2236 22.5608 10.3255 22.4352 10.4537C22.4109 10.4881 22.3743 10.5117 22.333 10.5196C22.2918 10.5276 22.249 10.5192 22.2138 10.4963C21.7998 10.2785 21.3673 10.0978 20.9214 9.95633C20.8849 9.94186 20.8537 9.91644 20.8322 9.88357C20.8107 9.85069 20.8 9.81197 20.8014 9.77273C20.7995 9.40798 20.6532 9.05882 20.3946 8.80158C20.136 8.54433 19.7861 8.39993 19.4214 8.39993H17.7774C17.5951 8.39993 17.4147 8.43601 17.2465 8.50611C17.0783 8.57621 16.9256 8.67894 16.7973 8.80836C16.669 8.93778 16.5676 9.09132 16.499 9.26014C16.4303 9.42896 16.3958 9.6097 16.3974 9.79193C16.399 9.82653 16.3894 9.86074 16.3701 9.88948C16.3507 9.91822 16.3226 9.93997 16.29 9.95153C15.8412 10.0915 15.4062 10.2722 14.9904 10.4915C14.9533 10.51 14.9113 10.5162 14.8705 10.5091C14.8297 10.5019 14.7922 10.4819 14.7636 10.4519C14.5008 10.2027 14.1525 10.0638 13.7904 10.0638C13.4283 10.0638 13.0799 10.2027 12.8172 10.4519L11.6526 11.6159C11.5231 11.7447 11.4206 11.8981 11.3511 12.0671C11.2817 12.2361 11.2467 12.4172 11.2482 12.5999C11.2482 12.7795 11.284 12.9573 11.3535 13.1228C11.423 13.2884 11.5249 13.4384 11.6532 13.5641C11.6721 13.5822 11.6871 13.6039 11.6974 13.6279C11.7077 13.6519 11.7131 13.6778 11.7132 13.7039C11.7152 13.732 11.7098 13.7601 11.6976 13.7855C11.4804 14.1996 11.3003 14.6321 11.1594 15.0779ZM11.0868 22.9295C10.2302 21.6381 9.72444 20.146 9.61921 18.5999H12.8958C12.9295 19.8504 13.0993 21.0935 13.4022 22.3073C12.6153 22.4572 11.8406 22.6652 11.0844 22.9295H11.0868ZM11.8428 23.9339C12.469 23.7376 13.1066 23.5797 13.752 23.4611C14.1001 24.5104 14.6228 25.4934 15.2982 26.3687C13.9692 25.8421 12.7841 25.0076 11.8404 23.9339H11.8428ZM17.9994 26.9069C16.7706 26.5649 15.684 25.1987 14.9676 23.2667C15.9733 23.136 16.9854 23.0613 17.9994 23.0429V26.9069ZM17.9994 21.8429C16.8619 21.8631 15.7267 21.9515 14.5998 22.1075C14.3014 20.9607 14.1322 19.7842 14.0952 18.5999H17.9994V21.8429ZM14.9994 17.3999C14.9994 16.4451 15.3787 15.5295 16.0538 14.8543C16.7289 14.1792 17.6446 13.7999 18.5994 13.7999C19.5541 13.7999 20.4698 14.1792 21.1449 14.8543C21.8201 15.5295 22.1994 16.4451 22.1994 17.3999H14.9994ZM23.1036 18.5999C23.0666 19.7842 22.8973 20.9607 22.599 22.1075C21.4721 21.9515 20.3368 21.8631 19.1994 21.8429V18.5999H23.1036ZM19.1994 26.9069V23.0429C20.2133 23.0613 21.2255 23.136 22.2312 23.2667C21.5148 25.1999 20.4282 26.5649 19.1994 26.9069ZM21.903 26.3669C22.5783 25.4918 23.101 24.509 23.4492 23.4599C24.0946 23.5785 24.7321 23.7364 25.3583 23.9327C24.4155 25.0066 23.2312 25.8414 21.903 26.3687V26.3669ZM27.5795 18.5999C27.475 20.1458 26.9701 21.6378 26.1143 22.9295C25.3582 22.6652 24.5834 22.4572 23.7966 22.3073C24.0995 21.0935 24.2693 19.8504 24.303 18.5999H27.5795ZM12.2994 15.4379C12.4184 15.0601 12.5712 14.6938 12.756 14.3435C12.8585 14.146 12.9111 13.9264 12.909 13.7039C12.9092 13.5193 12.8727 13.3365 12.8016 13.1661C12.7306 12.9958 12.6263 12.8412 12.495 12.7115C12.4789 12.696 12.4662 12.6774 12.4577 12.6567C12.4492 12.6361 12.4452 12.6138 12.4458 12.5915C12.4458 12.5677 12.4505 12.5442 12.4597 12.5223C12.4689 12.5003 12.4823 12.4804 12.4992 12.4637L13.6632 11.2997C13.6971 11.2683 13.7417 11.2508 13.788 11.2508C13.8343 11.2508 13.8788 11.2683 13.9128 11.2997C14.122 11.51 14.3927 11.6482 14.6858 11.6942C14.9788 11.7401 15.2789 11.6915 15.5424 11.5553C15.8948 11.3704 16.2633 11.218 16.6434 11.0999C16.9247 11.0128 17.1699 10.8364 17.342 10.5975C17.5142 10.3586 17.6038 10.0701 17.5974 9.77573C17.5989 9.72904 17.6186 9.68478 17.6522 9.65231C17.6858 9.61984 17.7307 9.6017 17.7774 9.60173H19.4214C19.4681 9.6017 19.513 9.61984 19.5466 9.65231C19.5802 9.68478 19.5998 9.72904 19.6014 9.77573C19.6011 10.07 19.6938 10.3569 19.8662 10.5954C20.0386 10.834 20.2818 11.012 20.5614 11.1041C20.9392 11.2231 21.3054 11.3759 21.6558 11.5607C21.9213 11.6919 22.221 11.7372 22.5134 11.6904C22.8058 11.6437 23.0764 11.5071 23.2878 11.2997C23.3032 11.2836 23.3219 11.2709 23.3426 11.2624C23.3632 11.254 23.3854 11.2499 23.4078 11.2505C23.4564 11.2691 23.4888 11.2571 23.5356 11.3039L24.6996 12.4679C24.7327 12.5022 24.7514 12.548 24.7518 12.5957C24.7504 12.6409 24.7317 12.6839 24.6996 12.7157C24.4895 12.9244 24.3513 13.1945 24.3051 13.487C24.2588 13.7794 24.3068 14.079 24.4422 14.3423C24.6272 14.693 24.7802 15.0597 24.8993 15.4379C24.9915 15.7174 25.1695 15.9607 25.408 16.1331C25.6466 16.3055 25.9334 16.3982 26.2277 16.3979C26.2744 16.3995 26.3187 16.4191 26.3512 16.4527C26.3836 16.4863 26.4018 16.5312 26.4017 16.5779V17.3999H23.3994C23.3994 16.1269 22.8936 14.906 21.9935 14.0058C21.0933 13.1056 19.8724 12.5999 18.5994 12.5999C17.3263 12.5999 16.1054 13.1056 15.2053 14.0058C14.3051 14.906 13.7994 16.1269 13.7994 17.3999H10.7994V16.5779C10.7994 16.5312 10.8175 16.4863 10.85 16.4527C10.8825 16.4191 10.9267 16.3995 10.9734 16.3979C11.2673 16.3977 11.5536 16.3047 11.7917 16.1324C12.0297 15.9601 12.2074 15.717 12.2994 15.4379Z" fill="url(#paint8_linear_600_175)"/>
<defs>
<linearGradient id="paint0_linear_600_175" x1="30.141" y1="18.0429" x2="37.1389" y2="18.0724" gradientUnits="userSpaceOnUse">
<stop stop-color="#4E54C8"/>
<stop offset="1" stop-color="#8F94FB"/>
</linearGradient>
<linearGradient id="paint1_linear_600_175" x1="29.5167" y1="12.6575" x2="35.3563" y2="12.6729" gradientUnits="userSpaceOnUse">
<stop stop-color="#4E54C8"/>
<stop offset="1" stop-color="#8F94FB"/>
</linearGradient>
<linearGradient id="paint2_linear_600_175" x1="29.5166" y1="23.4614" x2="35.35" y2="23.4767" gradientUnits="userSpaceOnUse">
<stop stop-color="#4E54C8"/>
<stop offset="1" stop-color="#8F94FB"/>
</linearGradient>
<linearGradient id="paint3_linear_600_175" x1="0.142932" y1="18.0489" x2="7.14082" y2="18.0784" gradientUnits="userSpaceOnUse">
<stop stop-color="#4E54C8"/>
<stop offset="1" stop-color="#8F94FB"/>
</linearGradient>
<linearGradient id="paint4_linear_600_175" x1="1.91504" y1="12.6616" x2="7.74839" y2="12.677" gradientUnits="userSpaceOnUse">
<stop stop-color="#4E54C8"/>
<stop offset="1" stop-color="#8F94FB"/>
</linearGradient>
<linearGradient id="paint5_linear_600_175" x1="1.90931" y1="23.4657" x2="7.74893" y2="23.481" gradientUnits="userSpaceOnUse">
<stop stop-color="#4E54C8"/>
<stop offset="1" stop-color="#8F94FB"/>
</linearGradient>
<linearGradient id="paint6_linear_600_175" x1="5.5881" y1="3.87509" x2="30.9859" y2="4.05964" gradientUnits="userSpaceOnUse">
<stop stop-color="#4E54C8"/>
<stop offset="1" stop-color="#8F94FB"/>
</linearGradient>
<linearGradient id="paint7_linear_600_175" x1="6.52072" y1="32.3185" x2="31.9185" y2="32.503" gradientUnits="userSpaceOnUse">
<stop stop-color="#4E54C8"/>
<stop offset="1" stop-color="#8F94FB"/>
</linearGradient>
<linearGradient id="paint8_linear_600_175" x1="8.80438" y1="18.5537" x2="28.6314" y2="18.5967" gradientUnits="userSpaceOnUse">
<stop stop-color="#4E54C8"/>
<stop offset="1" stop-color="#8F94FB"/>
</linearGradient>
</defs>
</svg>
