<svg width="36" height="36" viewBox="0 0 36 36" fill="none" xmlns="http://www.w3.org/2000/svg">
<path d="M24.8571 36H4.28571C3.14949 35.9986 2.06019 35.5467 1.25676 34.7432C0.453327 33.9398 0.00136102 32.8505 0 31.7143V4.28571C0.00136102 3.14949 0.453327 2.06019 1.25676 1.25676C2.06019 0.453327 3.14949 0.00136102 4.28571 0H17.5371C18.1079 0.000382276 18.6729 0.114248 19.1992 0.334973C19.7256 0.555698 20.2028 0.878877 20.6031 1.28571L27.9214 8.77628C28.7064 9.57764 29.1451 10.6554 29.1429 11.7771V18.1629C29.1429 18.3902 29.0525 18.6082 28.8918 18.7689C28.7311 18.9297 28.513 19.02 28.2857 19.02C28.0584 19.02 27.8404 18.9297 27.6796 18.7689C27.5189 18.6082 27.4286 18.3902 27.4286 18.1629V11.7771C27.4289 11.1043 27.1655 10.458 26.6949 9.97714L19.3757 2.48571C19.1359 2.24143 18.8497 2.0474 18.5341 1.91495C18.2184 1.7825 17.8795 1.71428 17.5371 1.71429H4.28571C3.60373 1.71429 2.94968 1.9852 2.46744 2.46744C1.9852 2.94968 1.71429 3.60373 1.71429 4.28571V31.7143C1.71429 32.3963 1.9852 33.0503 2.46744 33.5325C2.94968 34.0148 3.60373 34.2857 4.28571 34.2857H24.8571C25.1805 34.287 25.5009 34.2243 25.8 34.1014C26.0103 34.0149 26.2463 34.0155 26.4562 34.103C26.666 34.1905 26.8325 34.3578 26.919 34.5681C27.0055 34.7784 27.0049 35.0144 26.9174 35.2243C26.8299 35.4341 26.6626 35.6006 26.4523 35.6871C25.9462 35.895 25.4042 36.0013 24.8571 36Z" fill="black"/>
<path d="M24.8571 36H4.28571C3.14949 35.9986 2.06019 35.5467 1.25676 34.7432C0.453327 33.9398 0.00136102 32.8505 0 31.7143V4.28571C0.00136102 3.14949 0.453327 2.06019 1.25676 1.25676C2.06019 0.453327 3.14949 0.00136102 4.28571 0H17.5371C18.1079 0.000382276 18.6729 0.114248 19.1992 0.334973C19.7256 0.555698 20.2028 0.878877 20.6031 1.28571L27.9214 8.77628C28.7064 9.57764 29.1451 10.6554 29.1429 11.7771V18.1629C29.1429 18.3902 29.0525 18.6082 28.8918 18.7689C28.7311 18.9297 28.513 19.02 28.2857 19.02C28.0584 19.02 27.8404 18.9297 27.6796 18.7689C27.5189 18.6082 27.4286 18.3902 27.4286 18.1629V11.7771C27.4289 11.1043 27.1655 10.458 26.6949 9.97714L19.3757 2.48571C19.1359 2.24143 18.8497 2.0474 18.5341 1.91495C18.2184 1.7825 17.8795 1.71428 17.5371 1.71429H4.28571C3.60373 1.71429 2.94968 1.9852 2.46744 2.46744C1.9852 2.94968 1.71429 3.60373 1.71429 4.28571V31.7143C1.71429 32.3963 1.9852 33.0503 2.46744 33.5325C2.94968 34.0148 3.60373 34.2857 4.28571 34.2857H24.8571C25.1805 34.287 25.5009 34.2243 25.8 34.1014C26.0103 34.0149 26.2463 34.0155 26.4562 34.103C26.666 34.1905 26.8325 34.3578 26.919 34.5681C27.0055 34.7784 27.0049 35.0144 26.9174 35.2243C26.8299 35.4341 26.6626 35.6006 26.4523 35.6871C25.9462 35.895 25.4042 36.0013 24.8571 36Z" fill="url(#paint0_linear_560_7148)"/>
<path d="M27.9343 11.1428H22.2857C21.1495 11.1415 20.0602 10.6895 19.2568 9.88607C18.4533 9.08263 18.0014 7.99334 18 6.85711V1.12283C18 0.8955 18.0903 0.677483 18.2511 0.516737C18.4118 0.355992 18.6298 0.265686 18.8571 0.265686C19.0845 0.265686 19.3025 0.355992 19.4632 0.516737C19.624 0.677483 19.7143 0.8955 19.7143 1.12283V6.85711C19.7143 7.5391 19.9852 8.19315 20.4674 8.67539C20.9497 9.15762 21.6037 9.42854 22.2857 9.42854H27.9343C28.1616 9.42854 28.3796 9.51885 28.5404 9.67959C28.7011 9.84034 28.7914 10.0584 28.7914 10.2857C28.7914 10.513 28.7011 10.731 28.5404 10.8918C28.3796 11.0525 28.1616 11.1428 27.9343 11.1428Z" fill="black"/>
<path d="M27.9343 11.1428H22.2857C21.1495 11.1415 20.0602 10.6895 19.2568 9.88607C18.4533 9.08263 18.0014 7.99334 18 6.85711V1.12283C18 0.8955 18.0903 0.677483 18.2511 0.516737C18.4118 0.355992 18.6298 0.265686 18.8571 0.265686C19.0845 0.265686 19.3025 0.355992 19.4632 0.516737C19.624 0.677483 19.7143 0.8955 19.7143 1.12283V6.85711C19.7143 7.5391 19.9852 8.19315 20.4674 8.67539C20.9497 9.15762 21.6037 9.42854 22.2857 9.42854H27.9343C28.1616 9.42854 28.3796 9.51885 28.5404 9.67959C28.7011 9.84034 28.7914 10.0584 28.7914 10.2857C28.7914 10.513 28.7011 10.731 28.5404 10.8918C28.3796 11.0525 28.1616 11.1428 27.9343 11.1428Z" fill="url(#paint1_linear_560_7148)"/>
<path d="M26.5692 35.8749C26.2312 35.8753 25.9007 35.7754 25.6195 35.5878L22.8663 33.7518C21.1038 32.5799 19.6586 30.99 18.6596 29.124C17.6605 27.258 17.1387 25.1738 17.1406 23.0572V21.5898C17.1423 21.2041 17.2734 20.8302 17.5129 20.5279C17.7524 20.2256 18.0864 20.0125 18.4615 19.9227C21.0071 19.219 23.4288 18.1264 25.6409 16.6835C25.9177 16.5052 26.24 16.4104 26.5692 16.4104C26.8984 16.4104 27.2207 16.5052 27.4975 16.6835C29.7095 18.1266 32.1312 19.2192 34.6769 19.9227C35.052 20.0125 35.386 20.2256 35.6255 20.5279C35.865 20.8302 35.9961 21.2041 35.9978 21.5898V23.0572C36.0003 25.1744 35.4787 27.2593 34.4797 29.126C33.4806 30.9926 32.0351 32.583 30.2721 33.7552L27.5198 35.5904C27.238 35.7772 26.9072 35.8762 26.5692 35.8749ZM26.5692 18.1235C24.1993 19.6695 21.6039 20.8383 18.8755 21.5881L18.8549 23.0572C18.8528 24.8921 19.3048 26.699 20.1706 28.3167C21.0364 29.9345 22.2891 31.3129 23.8169 32.3289L26.5692 34.1607L29.3215 32.3255C30.8488 31.3097 32.1012 29.9319 32.967 28.3148C33.8327 26.6977 34.285 24.8915 34.2835 23.0572V21.5898C31.5484 20.8404 28.946 19.6714 26.5692 18.1244V18.1235Z" fill="black"/>
<path d="M26.5692 35.8749C26.2312 35.8753 25.9007 35.7754 25.6195 35.5878L22.8663 33.7518C21.1038 32.5799 19.6586 30.99 18.6596 29.124C17.6605 27.258 17.1387 25.1738 17.1406 23.0572V21.5898C17.1423 21.2041 17.2734 20.8302 17.5129 20.5279C17.7524 20.2256 18.0864 20.0125 18.4615 19.9227C21.0071 19.219 23.4288 18.1264 25.6409 16.6835C25.9177 16.5052 26.24 16.4104 26.5692 16.4104C26.8984 16.4104 27.2207 16.5052 27.4975 16.6835C29.7095 18.1266 32.1312 19.2192 34.6769 19.9227C35.052 20.0125 35.386 20.2256 35.6255 20.5279C35.865 20.8302 35.9961 21.2041 35.9978 21.5898V23.0572C36.0003 25.1744 35.4787 27.2593 34.4797 29.126C33.4806 30.9926 32.0351 32.583 30.2721 33.7552L27.5198 35.5904C27.238 35.7772 26.9072 35.8762 26.5692 35.8749ZM26.5692 18.1235C24.1993 19.6695 21.6039 20.8383 18.8755 21.5881L18.8549 23.0572C18.8528 24.8921 19.3048 26.699 20.1706 28.3167C21.0364 29.9345 22.2891 31.3129 23.8169 32.3289L26.5692 34.1607L29.3215 32.3255C30.8488 31.3097 32.1012 29.9319 32.967 28.3148C33.8327 26.6977 34.285 24.8915 34.2835 23.0572V21.5898C31.5484 20.8404 28.946 19.6714 26.5692 18.1244V18.1235Z" fill="url(#paint2_linear_560_7148)"/>
<path d="M25.7123 28.2857C25.485 28.2857 25.267 28.1954 25.1063 28.0346L23.392 26.3203C23.2358 26.1586 23.1494 25.9421 23.1514 25.7174C23.1534 25.4927 23.2435 25.2777 23.4024 25.1187C23.5613 24.9598 23.7763 24.8697 24.0011 24.8677C24.2258 24.8658 24.4423 24.9522 24.604 25.1083L25.7123 26.2166L28.5348 23.394C28.6965 23.2379 28.913 23.1515 29.1377 23.1534C29.3625 23.1554 29.5775 23.2455 29.7364 23.4045C29.8953 23.5634 29.9855 23.7784 29.9874 24.0031C29.9894 24.2278 29.903 24.4444 29.7468 24.606L26.3183 28.0346C26.1576 28.1954 25.9396 28.2857 25.7123 28.2857Z" fill="black"/>
<path d="M25.7123 28.2857C25.485 28.2857 25.267 28.1954 25.1063 28.0346L23.392 26.3203C23.2358 26.1586 23.1494 25.9421 23.1514 25.7174C23.1534 25.4927 23.2435 25.2777 23.4024 25.1187C23.5613 24.9598 23.7763 24.8697 24.0011 24.8677C24.2258 24.8658 24.4423 24.9522 24.604 25.1083L25.7123 26.2166L28.5348 23.394C28.6965 23.2379 28.913 23.1515 29.1377 23.1534C29.3625 23.1554 29.5775 23.2455 29.7364 23.4045C29.8953 23.5634 29.9855 23.7784 29.9874 24.0031C29.9894 24.2278 29.903 24.4444 29.7468 24.606L26.3183 28.0346C26.1576 28.1954 25.9396 28.2857 25.7123 28.2857Z" fill="url(#paint3_linear_560_7148)"/>
<path d="M12.8569 8.57125H5.99972C5.77239 8.57125 5.55437 8.48094 5.39363 8.3202C5.23288 8.15945 5.14258 7.94143 5.14258 7.71411C5.14258 7.48678 5.23288 7.26876 5.39363 7.10802C5.55437 6.94727 5.77239 6.85696 5.99972 6.85696H12.8569C13.0842 6.85696 13.3022 6.94727 13.463 7.10802C13.6237 7.26876 13.714 7.48678 13.714 7.71411C13.714 7.94143 13.6237 8.15945 13.463 8.3202C13.3022 8.48094 13.0842 8.57125 12.8569 8.57125Z" fill="black"/>
<path d="M12.8569 8.57125H5.99972C5.77239 8.57125 5.55437 8.48094 5.39363 8.3202C5.23288 8.15945 5.14258 7.94143 5.14258 7.71411C5.14258 7.48678 5.23288 7.26876 5.39363 7.10802C5.55437 6.94727 5.77239 6.85696 5.99972 6.85696H12.8569C13.0842 6.85696 13.3022 6.94727 13.463 7.10802C13.6237 7.26876 13.714 7.48678 13.714 7.71411C13.714 7.94143 13.6237 8.15945 13.463 8.3202C13.3022 8.48094 13.0842 8.57125 12.8569 8.57125Z" fill="url(#paint4_linear_560_7148)"/>
<path d="M17.9997 13.7141H5.99972C5.77239 13.7141 5.55437 13.6238 5.39363 13.4631C5.23288 13.3023 5.14258 13.0843 5.14258 12.857C5.14258 12.6296 5.23288 12.4116 5.39363 12.2509C5.55437 12.0901 5.77239 11.9998 5.99972 11.9998H17.9997C18.227 11.9998 18.4451 12.0901 18.6058 12.2509C18.7666 12.4116 18.8569 12.6296 18.8569 12.857C18.8569 13.0843 18.7666 13.3023 18.6058 13.4631C18.4451 13.6238 18.227 13.7141 17.9997 13.7141Z" fill="black"/>
<path d="M17.9997 13.7141H5.99972C5.77239 13.7141 5.55437 13.6238 5.39363 13.4631C5.23288 13.3023 5.14258 13.0843 5.14258 12.857C5.14258 12.6296 5.23288 12.4116 5.39363 12.2509C5.55437 12.0901 5.77239 11.9998 5.99972 11.9998H17.9997C18.227 11.9998 18.4451 12.0901 18.6058 12.2509C18.7666 12.4116 18.8569 12.6296 18.8569 12.857C18.8569 13.0843 18.7666 13.3023 18.6058 13.4631C18.4451 13.6238 18.227 13.7141 17.9997 13.7141Z" fill="url(#paint5_linear_560_7148)"/>
<path d="M19.714 18.857H5.99972C5.77239 18.857 5.55437 18.7667 5.39363 18.6059C5.23288 18.4452 5.14258 18.2272 5.14258 17.9998C5.14258 17.7725 5.23288 17.5545 5.39363 17.3938C5.55437 17.233 5.77239 17.1427 5.99972 17.1427H19.714C19.9413 17.1427 20.1593 17.233 20.3201 17.3938C20.4808 17.5545 20.5711 17.7725 20.5711 17.9998C20.5711 18.2272 20.4808 18.4452 20.3201 18.6059C20.1593 18.7667 19.9413 18.857 19.714 18.857Z" fill="black"/>
<path d="M19.714 18.857H5.99972C5.77239 18.857 5.55437 18.7667 5.39363 18.6059C5.23288 18.4452 5.14258 18.2272 5.14258 17.9998C5.14258 17.7725 5.23288 17.5545 5.39363 17.3938C5.55437 17.233 5.77239 17.1427 5.99972 17.1427H19.714C19.9413 17.1427 20.1593 17.233 20.3201 17.3938C20.4808 17.5545 20.5711 17.7725 20.5711 17.9998C20.5711 18.2272 20.4808 18.4452 20.3201 18.6059C20.1593 18.7667 19.9413 18.857 19.714 18.857Z" fill="url(#paint6_linear_560_7148)"/>
<path d="M14.5711 23.9998H5.99972C5.77239 23.9998 5.55437 23.9095 5.39363 23.7488C5.23288 23.588 5.14258 23.37 5.14258 23.1427C5.14258 22.9154 5.23288 22.6973 5.39363 22.5366C5.55437 22.3759 5.77239 22.2856 5.99972 22.2856H14.5711C14.7985 22.2856 15.0165 22.3759 15.1772 22.5366C15.338 22.6973 15.4283 22.9154 15.4283 23.1427C15.4283 23.37 15.338 23.588 15.1772 23.7488C15.0165 23.9095 14.7985 23.9998 14.5711 23.9998Z" fill="black"/>
<path d="M14.5711 23.9998H5.99972C5.77239 23.9998 5.55437 23.9095 5.39363 23.7488C5.23288 23.588 5.14258 23.37 5.14258 23.1427C5.14258 22.9154 5.23288 22.6973 5.39363 22.5366C5.55437 22.3759 5.77239 22.2856 5.99972 22.2856H14.5711C14.7985 22.2856 15.0165 22.3759 15.1772 22.5366C15.338 22.6973 15.4283 22.9154 15.4283 23.1427C15.4283 23.37 15.338 23.588 15.1772 23.7488C15.0165 23.9095 14.7985 23.9998 14.5711 23.9998Z" fill="url(#paint7_linear_560_7148)"/>
<path d="M14.5711 29.1427H5.99972C5.77239 29.1427 5.55437 29.0524 5.39363 28.8916C5.23288 28.7309 5.14258 28.5129 5.14258 28.2855C5.14258 28.0582 5.23288 27.8402 5.39363 27.6795C5.55437 27.5187 5.77239 27.4284 5.99972 27.4284H14.5711C14.7985 27.4284 15.0165 27.5187 15.1772 27.6795C15.338 27.8402 15.4283 28.0582 15.4283 28.2855C15.4283 28.5129 15.338 28.7309 15.1772 28.8916C15.0165 29.0524 14.7985 29.1427 14.5711 29.1427Z" fill="black"/>
<path d="M14.5711 29.1427H5.99972C5.77239 29.1427 5.55437 29.0524 5.39363 28.8916C5.23288 28.7309 5.14258 28.5129 5.14258 28.2855C5.14258 28.0582 5.23288 27.8402 5.39363 27.6795C5.55437 27.5187 5.77239 27.4284 5.99972 27.4284H14.5711C14.7985 27.4284 15.0165 27.5187 15.1772 27.6795C15.338 27.8402 15.4283 28.0582 15.4283 28.2855C15.4283 28.5129 15.338 28.7309 15.1772 28.8916C15.0165 29.0524 14.7985 29.1427 14.5711 29.1427Z" fill="url(#paint8_linear_560_7148)"/>
<defs>
<linearGradient id="paint0_linear_560_7148" x1="0.578518" y1="18.4615" x2="28.903" y2="18.5097" gradientUnits="userSpaceOnUse">
<stop stop-color="#4E54C8"/>
<stop offset="1" stop-color="#8F94FB"/>
</linearGradient>
<linearGradient id="paint1_linear_560_7148" x1="18.2142" y1="5.8437" x2="28.7026" y2="5.86557" gradientUnits="userSpaceOnUse">
<stop stop-color="#4E54C8"/>
<stop offset="1" stop-color="#8F94FB"/>
</linearGradient>
<linearGradient id="paint2_linear_560_7148" x1="17.515" y1="26.3922" x2="35.8426" y2="26.4295" gradientUnits="userSpaceOnUse">
<stop stop-color="#4E54C8"/>
<stop offset="1" stop-color="#8F94FB"/>
</linearGradient>
<linearGradient id="paint3_linear_560_7148" x1="23.2871" y1="25.7854" x2="29.9312" y2="25.804" gradientUnits="userSpaceOnUse">
<stop stop-color="#4E54C8"/>
<stop offset="1" stop-color="#8F94FB"/>
</linearGradient>
<linearGradient id="paint4_linear_560_7148" x1="5.31273" y1="7.73608" x2="13.6426" y2="7.82359" gradientUnits="userSpaceOnUse">
<stop stop-color="#4E54C8"/>
<stop offset="1" stop-color="#8F94FB"/>
</linearGradient>
<linearGradient id="paint5_linear_560_7148" x1="5.41482" y1="12.8789" x2="18.7403" y2="13.1029" gradientUnits="userSpaceOnUse">
<stop stop-color="#4E54C8"/>
<stop offset="1" stop-color="#8F94FB"/>
</linearGradient>
<linearGradient id="paint6_linear_560_7148" x1="5.44885" y1="18.0218" x2="20.4389" y2="18.3053" gradientUnits="userSpaceOnUse">
<stop stop-color="#4E54C8"/>
<stop offset="1" stop-color="#8F94FB"/>
</linearGradient>
<linearGradient id="paint7_linear_560_7148" x1="5.34676" y1="23.1647" x2="15.3421" y2="23.2907" gradientUnits="userSpaceOnUse">
<stop stop-color="#4E54C8"/>
<stop offset="1" stop-color="#8F94FB"/>
</linearGradient>
<linearGradient id="paint8_linear_560_7148" x1="5.34676" y1="28.3075" x2="15.3421" y2="28.4335" gradientUnits="userSpaceOnUse">
<stop stop-color="#4E54C8"/>
<stop offset="1" stop-color="#8F94FB"/>
</linearGradient>
</defs>
</svg>
