<svg width="27" height="38" viewBox="0 0 27 38" fill="none" xmlns="http://www.w3.org/2000/svg">
<path d="M0 13.5C0 15.3808 0.581688 16.646 1.55117 16.9465C1.80808 17.8384 2.16679 18.6964 2.61759 19.5156C2.42855 19.8937 2.31706 20.4948 2.70485 21.3382C2.95691 21.886 3.40287 22.4919 3.95063 23.0445C4.22693 23.3208 4.51777 23.568 4.80862 23.7813L0.567145 32.1916C0.382944 32.56 0.450808 33.0059 0.736805 33.3016C1.0228 33.5973 1.46391 33.6797 1.83716 33.5101L6.37918 31.4305L7.41167 36.3167C7.49892 36.719 7.82855 37.0244 8.23573 37.0777C8.27935 37.0826 8.31813 37.0874 8.36176 37.0874C8.72532 37.0874 9.05978 36.8838 9.22944 36.5542L12.6905 29.6903C12.9329 29.2104 12.739 28.6287 12.2591 28.3864C11.7792 28.144 11.1975 28.3379 10.9551 28.8178L8.73986 33.2144L8.02729 29.8454C7.96912 29.5594 7.78007 29.3122 7.51347 29.1813C7.25171 29.0504 6.94147 29.0408 6.67486 29.1668L3.54345 30.6016L6.59246 24.5472C6.96571 24.5715 7.2614 24.4939 7.47953 24.3824C8.2939 24.8332 9.15673 25.1919 10.0487 25.4488C10.3201 26.3165 11.372 26.874 12.9425 26.9758L17.7706 36.5542C17.9354 36.8838 18.2747 37.0874 18.6382 37.0874C18.6819 37.0874 18.7206 37.0826 18.7643 37.0777C19.1715 37.0244 19.5011 36.719 19.5883 36.3167L20.6208 31.4305L25.1628 33.5101C25.5361 33.6797 25.9772 33.5973 26.2632 33.3016C26.5492 33.0059 26.6171 32.56 26.4329 32.1916L23.1172 25.6233C22.8749 25.1483 22.2932 24.9544 21.8133 25.1919C21.3334 25.4343 21.1443 26.016 21.3819 26.4959L23.4517 30.6016L20.3203 29.1668C20.0537 29.0456 19.7434 29.0504 19.4817 29.1813C19.2199 29.3122 19.0309 29.5594 18.9679 29.8454L18.2553 33.2144L15.0415 26.8352C16.0594 26.5977 16.7332 26.1226 16.9465 25.4488C17.8336 25.1919 18.6916 24.8381 19.5059 24.3873C20.4027 24.8574 21.7115 24.3776 23.0445 23.0445C24.3776 21.7115 24.8575 20.4075 24.3873 19.5059C24.8381 18.6916 25.1919 17.8336 25.4488 16.9465C26.4183 16.6411 27 15.3808 27 13.5C27 11.6192 26.4183 10.354 25.4488 10.0535C25.1919 9.16158 24.8332 8.30359 24.3824 7.48923C24.5375 7.18869 24.6345 6.75242 24.4794 6.16589C24.0964 4.74075 22.2592 2.90359 20.8341 2.52065C20.2476 2.36553 19.8113 2.46248 19.5108 2.61759C18.6964 2.16679 17.8384 1.80808 16.9465 1.55117C16.6411 0.581688 15.3808 0 13.5 0C11.6192 0 10.354 0.581688 10.0535 1.55117C9.16158 1.80808 8.30359 2.16679 7.48923 2.61759C7.18869 2.46248 6.74758 2.36553 6.16589 2.52065C4.74075 2.90359 2.90359 4.74075 2.52065 6.16589C2.36553 6.75242 2.46248 7.18869 2.61759 7.48923C2.16679 8.30359 1.80808 9.16158 1.55117 10.0535C0.581688 10.354 0 11.6192 0 13.5ZM2.20557 11.9197H2.3219C2.77271 11.9197 3.16535 11.6047 3.26715 11.1636C3.5289 10.0147 3.98456 8.91921 4.61472 7.9158C4.85709 7.53285 4.79892 7.03357 4.47899 6.71364L4.39659 6.63124C4.55655 5.9623 5.96715 4.55655 6.63124 4.39659L6.71364 4.47899C7.03357 4.79892 7.53285 4.85224 7.9158 4.61472C8.92406 3.97971 10.0147 3.5289 11.1636 3.26715C11.6047 3.16535 11.9198 2.77271 11.9198 2.3219V2.20557C12.5063 1.84686 14.4937 1.84686 15.0803 2.20557V2.3219C15.0803 2.77271 15.3953 3.16535 15.8364 3.26715C16.9853 3.5289 18.0808 3.98456 19.0842 4.61472C19.4671 4.85709 19.9664 4.79892 20.2864 4.47899L20.3688 4.39659C21.0377 4.55655 22.4434 5.96715 22.6034 6.63124L22.521 6.71364C22.2011 7.03357 22.1478 7.53285 22.3853 7.9158C23.0203 8.92406 23.4711 10.0147 23.7329 11.1636C23.8347 11.6047 24.2273 11.9197 24.6781 11.9197H24.7944C25.1531 12.5063 25.1531 14.4986 24.7944 15.0802H24.6781C24.2273 15.0802 23.8347 15.3953 23.7329 15.8364C23.4711 16.9853 23.0154 18.0808 22.3853 19.0842C22.1429 19.4671 22.2011 19.9664 22.521 20.2864L22.6034 20.3688C22.4434 21.0377 21.0329 22.4434 20.3688 22.6034L20.2864 22.521C19.9664 22.2011 19.4671 22.1478 19.0842 22.3853C18.0759 23.0203 16.9853 23.4711 15.8364 23.7329C15.3953 23.8346 15.0803 24.2273 15.0803 24.6781V24.7944C14.4937 25.1531 12.5063 25.1531 11.9198 24.7944V24.6781C11.9198 24.2273 11.6047 23.8346 11.1636 23.7329C10.0147 23.4711 8.91921 23.0154 7.9158 22.3853C7.53285 22.1429 7.03357 22.2011 6.71364 22.521L6.63124 22.6034C5.9623 22.4434 4.55655 21.0329 4.39659 20.3688L4.47899 20.2864C4.79892 19.9664 4.85224 19.4671 4.61472 19.0842C3.97971 18.0759 3.5289 16.9853 3.26715 15.8364C3.16535 15.3953 2.77271 15.0802 2.3219 15.0802H2.20557C1.84686 14.4986 1.84686 12.5063 2.20557 11.9197Z" fill="black"/>
<path d="M0 13.5C0 15.3808 0.581688 16.646 1.55117 16.9465C1.80808 17.8384 2.16679 18.6964 2.61759 19.5156C2.42855 19.8937 2.31706 20.4948 2.70485 21.3382C2.95691 21.886 3.40287 22.4919 3.95063 23.0445C4.22693 23.3208 4.51777 23.568 4.80862 23.7813L0.567145 32.1916C0.382944 32.56 0.450808 33.0059 0.736805 33.3016C1.0228 33.5973 1.46391 33.6797 1.83716 33.5101L6.37918 31.4305L7.41167 36.3167C7.49892 36.719 7.82855 37.0244 8.23573 37.0777C8.27935 37.0826 8.31813 37.0874 8.36176 37.0874C8.72532 37.0874 9.05978 36.8838 9.22944 36.5542L12.6905 29.6903C12.9329 29.2104 12.739 28.6287 12.2591 28.3864C11.7792 28.144 11.1975 28.3379 10.9551 28.8178L8.73986 33.2144L8.02729 29.8454C7.96912 29.5594 7.78007 29.3122 7.51347 29.1813C7.25171 29.0504 6.94147 29.0408 6.67486 29.1668L3.54345 30.6016L6.59246 24.5472C6.96571 24.5715 7.2614 24.4939 7.47953 24.3824C8.2939 24.8332 9.15673 25.1919 10.0487 25.4488C10.3201 26.3165 11.372 26.874 12.9425 26.9758L17.7706 36.5542C17.9354 36.8838 18.2747 37.0874 18.6382 37.0874C18.6819 37.0874 18.7206 37.0826 18.7643 37.0777C19.1715 37.0244 19.5011 36.719 19.5883 36.3167L20.6208 31.4305L25.1628 33.5101C25.5361 33.6797 25.9772 33.5973 26.2632 33.3016C26.5492 33.0059 26.6171 32.56 26.4329 32.1916L23.1172 25.6233C22.8749 25.1483 22.2932 24.9544 21.8133 25.1919C21.3334 25.4343 21.1443 26.016 21.3819 26.4959L23.4517 30.6016L20.3203 29.1668C20.0537 29.0456 19.7434 29.0504 19.4817 29.1813C19.2199 29.3122 19.0309 29.5594 18.9679 29.8454L18.2553 33.2144L15.0415 26.8352C16.0594 26.5977 16.7332 26.1226 16.9465 25.4488C17.8336 25.1919 18.6916 24.8381 19.5059 24.3873C20.4027 24.8574 21.7115 24.3776 23.0445 23.0445C24.3776 21.7115 24.8575 20.4075 24.3873 19.5059C24.8381 18.6916 25.1919 17.8336 25.4488 16.9465C26.4183 16.6411 27 15.3808 27 13.5C27 11.6192 26.4183 10.354 25.4488 10.0535C25.1919 9.16158 24.8332 8.30359 24.3824 7.48923C24.5375 7.18869 24.6345 6.75242 24.4794 6.16589C24.0964 4.74075 22.2592 2.90359 20.8341 2.52065C20.2476 2.36553 19.8113 2.46248 19.5108 2.61759C18.6964 2.16679 17.8384 1.80808 16.9465 1.55117C16.6411 0.581688 15.3808 0 13.5 0C11.6192 0 10.354 0.581688 10.0535 1.55117C9.16158 1.80808 8.30359 2.16679 7.48923 2.61759C7.18869 2.46248 6.74758 2.36553 6.16589 2.52065C4.74075 2.90359 2.90359 4.74075 2.52065 6.16589C2.36553 6.75242 2.46248 7.18869 2.61759 7.48923C2.16679 8.30359 1.80808 9.16158 1.55117 10.0535C0.581688 10.354 0 11.6192 0 13.5ZM2.20557 11.9197H2.3219C2.77271 11.9197 3.16535 11.6047 3.26715 11.1636C3.5289 10.0147 3.98456 8.91921 4.61472 7.9158C4.85709 7.53285 4.79892 7.03357 4.47899 6.71364L4.39659 6.63124C4.55655 5.9623 5.96715 4.55655 6.63124 4.39659L6.71364 4.47899C7.03357 4.79892 7.53285 4.85224 7.9158 4.61472C8.92406 3.97971 10.0147 3.5289 11.1636 3.26715C11.6047 3.16535 11.9198 2.77271 11.9198 2.3219V2.20557C12.5063 1.84686 14.4937 1.84686 15.0803 2.20557V2.3219C15.0803 2.77271 15.3953 3.16535 15.8364 3.26715C16.9853 3.5289 18.0808 3.98456 19.0842 4.61472C19.4671 4.85709 19.9664 4.79892 20.2864 4.47899L20.3688 4.39659C21.0377 4.55655 22.4434 5.96715 22.6034 6.63124L22.521 6.71364C22.2011 7.03357 22.1478 7.53285 22.3853 7.9158C23.0203 8.92406 23.4711 10.0147 23.7329 11.1636C23.8347 11.6047 24.2273 11.9197 24.6781 11.9197H24.7944C25.1531 12.5063 25.1531 14.4986 24.7944 15.0802H24.6781C24.2273 15.0802 23.8347 15.3953 23.7329 15.8364C23.4711 16.9853 23.0154 18.0808 22.3853 19.0842C22.1429 19.4671 22.2011 19.9664 22.521 20.2864L22.6034 20.3688C22.4434 21.0377 21.0329 22.4434 20.3688 22.6034L20.2864 22.521C19.9664 22.2011 19.4671 22.1478 19.0842 22.3853C18.0759 23.0203 16.9853 23.4711 15.8364 23.7329C15.3953 23.8346 15.0803 24.2273 15.0803 24.6781V24.7944C14.4937 25.1531 12.5063 25.1531 11.9198 24.7944V24.6781C11.9198 24.2273 11.6047 23.8346 11.1636 23.7329C10.0147 23.4711 8.91921 23.0154 7.9158 22.3853C7.53285 22.1429 7.03357 22.2011 6.71364 22.521L6.63124 22.6034C5.9623 22.4434 4.55655 21.0329 4.39659 20.3688L4.47899 20.2864C4.79892 19.9664 4.85224 19.4671 4.61472 19.0842C3.97971 18.0759 3.5289 16.9853 3.26715 15.8364C3.16535 15.3953 2.77271 15.0802 2.3219 15.0802H2.20557C1.84686 14.4986 1.84686 12.5063 2.20557 11.9197Z" fill="url(#paint0_linear_600_196)"/>
<path d="M13.4981 20.8436C17.5505 20.8436 20.8419 17.5474 20.8419 13.4998C20.8419 9.45224 17.5505 6.15601 13.4981 6.15601C9.44568 6.15601 6.1543 9.45224 6.1543 13.4998C6.1543 17.5474 9.44568 20.8436 13.4981 20.8436ZM13.4981 8.09497C16.4793 8.09497 18.903 10.5187 18.903 13.4998C18.903 16.481 16.4793 18.9047 13.4981 18.9047C10.517 18.9047 8.09326 16.481 8.09326 13.4998C8.09326 10.5187 10.517 8.09497 13.4981 8.09497Z" fill="black"/>
<path d="M13.4981 20.8436C17.5505 20.8436 20.8419 17.5474 20.8419 13.4998C20.8419 9.45224 17.5505 6.15601 13.4981 6.15601C9.44568 6.15601 6.1543 9.45224 6.1543 13.4998C6.1543 17.5474 9.44568 20.8436 13.4981 20.8436ZM13.4981 8.09497C16.4793 8.09497 18.903 10.5187 18.903 13.4998C18.903 16.481 16.4793 18.9047 13.4981 18.9047C10.517 18.9047 8.09326 16.481 8.09326 13.4998C8.09326 10.5187 10.517 8.09497 13.4981 8.09497Z" fill="url(#paint1_linear_600_196)"/>
<defs>
<linearGradient id="paint0_linear_600_196" x1="0.53598" y1="19.0192" x2="26.7778" y2="19.0593" gradientUnits="userSpaceOnUse">
<stop stop-color="#4E54C8"/>
<stop offset="1" stop-color="#8F94FB"/>
</linearGradient>
<linearGradient id="paint1_linear_600_196" x1="6.44586" y1="13.6881" x2="20.721" y2="13.7181" gradientUnits="userSpaceOnUse">
<stop stop-color="#4E54C8"/>
<stop offset="1" stop-color="#8F94FB"/>
</linearGradient>
</defs>
</svg>
