<svg width="36" height="36" viewBox="0 0 36 36" fill="none" xmlns="http://www.w3.org/2000/svg">
<path d="M3.77236 7.41055H3.62515C2.19594 7.42282 1.18998 7.69885 0.59499 8.2877C0.208553 8.67414 0 9.18326 0 9.77211V28.0451C0 29.4436 -2.92488e-07 31.7806 2.80934 31.8113L4.5207 31.8297H4.56364C4.77219 31.8297 4.98075 31.8113 5.17703 31.7806C6.55716 31.5598 7.41591 30.652 7.41591 29.4129V9.77211C7.42205 7.42282 5.04822 7.41055 3.77236 7.41055ZM6.21366 29.4129C6.21366 30.2717 5.44692 30.5232 4.98688 30.5968C4.83966 30.6213 4.68632 30.6336 4.53297 30.6274L2.8216 30.609C1.44761 30.5906 1.20225 29.922 1.20225 28.0451V9.76598C1.20225 9.49609 1.27586 9.29367 1.44147 9.13418C1.78497 8.79069 2.53944 8.60667 3.56994 8.60667H3.61901H3.77236C5.46532 8.6128 6.2198 8.77842 6.2198 9.76598V29.4129H6.21366Z" fill="black"/>
<path d="M3.77236 7.41055H3.62515C2.19594 7.42282 1.18998 7.69885 0.59499 8.2877C0.208553 8.67414 0 9.18326 0 9.77211V28.0451C0 29.4436 -2.92488e-07 31.7806 2.80934 31.8113L4.5207 31.8297H4.56364C4.77219 31.8297 4.98075 31.8113 5.17703 31.7806C6.55716 31.5598 7.41591 30.652 7.41591 29.4129V9.77211C7.42205 7.42282 5.04822 7.41055 3.77236 7.41055ZM6.21366 29.4129C6.21366 30.2717 5.44692 30.5232 4.98688 30.5968C4.83966 30.6213 4.68632 30.6336 4.53297 30.6274L2.8216 30.609C1.44761 30.5906 1.20225 29.922 1.20225 28.0451V9.76598C1.20225 9.49609 1.27586 9.29367 1.44147 9.13418C1.78497 8.79069 2.53944 8.60667 3.56994 8.60667H3.61901H3.77236C5.46532 8.6128 6.2198 8.77842 6.2198 9.76598V29.4129H6.21366Z" fill="url(#paint0_linear_600_185)"/>
<path d="M12.1165 12.9925C11.3559 12.9925 10.307 12.9864 9.57089 13.6366C8.73668 14.3727 8.81028 15.5013 8.86549 16.403C8.87776 16.6054 8.89002 16.8017 8.89002 16.9796V28.8058C8.89002 29.8485 8.89003 31.7869 11.4295 31.8114L12.9323 31.8237H12.9752C13.1531 31.8237 13.3371 31.8114 13.5089 31.7869C14.7663 31.6151 15.5515 30.8668 15.5515 29.8424V16.1822C15.5515 13.5323 14.3001 13.0048 12.1165 12.9925ZM14.3492 29.8485C14.3492 30.4006 13.6499 30.5601 13.3433 30.603C13.2144 30.6214 13.0795 30.6337 12.9445 30.6276L11.4417 30.6153C10.2702 30.603 10.0923 30.1982 10.0923 28.8119V16.9796C10.0923 16.7772 10.08 16.5563 10.0616 16.3232C10.0187 15.6178 9.9696 14.8818 10.3622 14.5321C10.7179 14.2193 11.3375 14.1886 11.9386 14.1886H12.1349C14.0119 14.1948 14.3431 14.4953 14.3431 16.176V29.8485H14.3492Z" fill="black"/>
<path d="M12.1165 12.9925C11.3559 12.9925 10.307 12.9864 9.57089 13.6366C8.73668 14.3727 8.81028 15.5013 8.86549 16.403C8.87776 16.6054 8.89002 16.8017 8.89002 16.9796V28.8058C8.89002 29.8485 8.89003 31.7869 11.4295 31.8114L12.9323 31.8237H12.9752C13.1531 31.8237 13.3371 31.8114 13.5089 31.7869C14.7663 31.6151 15.5515 30.8668 15.5515 29.8424V16.1822C15.5515 13.5323 14.3001 13.0048 12.1165 12.9925ZM14.3492 29.8485C14.3492 30.4006 13.6499 30.5601 13.3433 30.603C13.2144 30.6214 13.0795 30.6337 12.9445 30.6276L11.4417 30.6153C10.2702 30.603 10.0923 30.1982 10.0923 28.8119V16.9796C10.0923 16.7772 10.08 16.5563 10.0616 16.3232C10.0187 15.6178 9.9696 14.8818 10.3622 14.5321C10.7179 14.2193 11.3375 14.1886 11.9386 14.1886H12.1349C14.0119 14.1948 14.3431 14.4953 14.3431 16.176V29.8485H14.3492Z" fill="url(#paint1_linear_600_185)"/>
<path d="M20.7381 17.7583C19.953 17.7522 18.9777 17.7522 18.2661 18.2122C17.346 18.8072 17.4319 19.7825 17.4871 20.4327C17.4994 20.5738 17.5117 20.7087 17.5117 20.8314V29.4618C17.5117 30.615 17.8122 31.7988 20.0511 31.8172L21.5539 31.8295H21.5907C21.7625 31.8295 21.9342 31.8234 22.106 31.805C23.4002 31.6762 24.167 31.0812 24.167 30.2224V26.9592C24.167 24.3093 24.167 20.9602 24.167 20.2487C24.1731 17.9607 22.5599 17.7644 20.7381 17.7583ZM22.9708 26.9592V30.2224C22.9708 30.3206 22.6764 30.5353 21.9894 30.6089C21.8483 30.6211 21.7134 30.6273 21.5662 30.6273L20.0634 30.615C18.7139 30.6027 18.7139 30.2224 18.7139 29.4618V20.8314C18.7139 20.678 18.7016 20.5063 18.6832 20.3284C18.628 19.6966 18.6342 19.4022 18.9163 19.2243C19.2905 18.9789 19.9652 18.9605 20.5663 18.9605H20.7565C22.9647 18.9667 22.9647 19.3715 22.9647 20.2487C22.9708 20.9602 22.9708 24.3032 22.9708 26.9592Z" fill="black"/>
<path d="M20.7381 17.7583C19.953 17.7522 18.9777 17.7522 18.2661 18.2122C17.346 18.8072 17.4319 19.7825 17.4871 20.4327C17.4994 20.5738 17.5117 20.7087 17.5117 20.8314V29.4618C17.5117 30.615 17.8122 31.7988 20.0511 31.8172L21.5539 31.8295H21.5907C21.7625 31.8295 21.9342 31.8234 22.106 31.805C23.4002 31.6762 24.167 31.0812 24.167 30.2224V26.9592C24.167 24.3093 24.167 20.9602 24.167 20.2487C24.1731 17.9607 22.5599 17.7644 20.7381 17.7583ZM22.9708 26.9592V30.2224C22.9708 30.3206 22.6764 30.5353 21.9894 30.6089C21.8483 30.6211 21.7134 30.6273 21.5662 30.6273L20.0634 30.615C18.7139 30.6027 18.7139 30.2224 18.7139 29.4618V20.8314C18.7139 20.678 18.7016 20.5063 18.6832 20.3284C18.628 19.6966 18.6342 19.4022 18.9163 19.2243C19.2905 18.9789 19.9652 18.9605 20.5663 18.9605H20.7565C22.9647 18.9667 22.9647 19.3715 22.9647 20.2487C22.9708 20.9602 22.9708 24.3032 22.9708 26.9592Z" fill="url(#paint2_linear_600_185)"/>
<path d="M33.1606 25.1067C33.1545 24.9717 33.1606 24.8306 33.1606 24.6834C33.1729 24.0578 33.1913 23.2726 32.6638 22.6531C31.9277 21.7882 30.7868 21.7943 29.9587 21.8005H29.7256H29.6459C28.3332 21.8005 26.6832 21.7943 26.5053 24.0148C26.4072 25.2355 26.4808 26.542 26.5544 27.7995C26.5912 28.3883 26.6219 28.9649 26.6403 29.5292C26.6832 31.1424 27.3702 31.8049 29.0141 31.811L30.5169 31.8172H30.5598C30.7254 31.8172 30.8911 31.811 31.0567 31.7988C32.3693 31.7068 33.0686 31.3817 33.222 29.8359C33.3324 28.695 33.2772 27.5296 33.222 26.4009C33.1913 25.9777 33.1729 25.5422 33.1606 25.1067ZM32.0136 29.7316C31.9338 30.5045 31.8848 30.5475 30.9647 30.6088C30.8175 30.6211 30.6764 30.6211 30.5046 30.6211L29.0202 30.6149C28.0265 30.6088 27.8732 30.4616 27.8425 29.5047C27.8241 28.9281 27.7934 28.3331 27.7566 27.7381C27.6892 26.5175 27.6156 25.2539 27.7076 24.1191C27.7934 23.0886 28.186 23.015 29.5171 23.015H29.6397H29.7195H29.9648C30.6518 23.0089 31.3756 23.0027 31.7437 23.4444C31.9768 23.7204 31.9645 24.1559 31.9584 24.6712C31.9522 24.8306 31.9522 24.9901 31.9584 25.1496C31.9706 25.5912 31.989 26.0329 32.0136 26.4807C32.0626 27.5602 32.1179 28.6766 32.0136 29.7316Z" fill="black"/>
<path d="M33.1606 25.1067C33.1545 24.9717 33.1606 24.8306 33.1606 24.6834C33.1729 24.0578 33.1913 23.2726 32.6638 22.6531C31.9277 21.7882 30.7868 21.7943 29.9587 21.8005H29.7256H29.6459C28.3332 21.8005 26.6832 21.7943 26.5053 24.0148C26.4072 25.2355 26.4808 26.542 26.5544 27.7995C26.5912 28.3883 26.6219 28.9649 26.6403 29.5292C26.6832 31.1424 27.3702 31.8049 29.0141 31.811L30.5169 31.8172H30.5598C30.7254 31.8172 30.8911 31.811 31.0567 31.7988C32.3693 31.7068 33.0686 31.3817 33.222 29.8359C33.3324 28.695 33.2772 27.5296 33.222 26.4009C33.1913 25.9777 33.1729 25.5422 33.1606 25.1067ZM32.0136 29.7316C31.9338 30.5045 31.8848 30.5475 30.9647 30.6088C30.8175 30.6211 30.6764 30.6211 30.5046 30.6211L29.0202 30.6149C28.0265 30.6088 27.8732 30.4616 27.8425 29.5047C27.8241 28.9281 27.7934 28.3331 27.7566 27.7381C27.6892 26.5175 27.6156 25.2539 27.7076 24.1191C27.7934 23.0886 28.186 23.015 29.5171 23.015H29.6397H29.7195H29.9648C30.6518 23.0089 31.3756 23.0027 31.7437 23.4444C31.9768 23.7204 31.9645 24.1559 31.9584 24.6712C31.9522 24.8306 31.9522 24.9901 31.9584 25.1496C31.9706 25.5912 31.989 26.0329 32.0136 26.4807C32.0626 27.5602 32.1179 28.6766 32.0136 29.7316Z" fill="url(#paint3_linear_600_185)"/>
<path d="M31.2602 17.1573C31.297 17.1635 31.34 17.1696 31.3768 17.1696C31.6589 17.1696 31.9104 16.9672 31.9656 16.685C32.027 16.3599 31.8184 16.041 31.4872 15.9796C24.5068 14.6118 13.3124 9.66782 4.73716 0.197042C4.51634 -0.0483151 4.13603 -0.066717 3.88454 0.154104C3.63918 0.374925 3.62078 0.755228 3.8416 1.00672C12.6192 10.6922 24.0958 15.7588 31.2602 17.1573Z" fill="black"/>
<path d="M31.2602 17.1573C31.297 17.1635 31.34 17.1696 31.3768 17.1696C31.6589 17.1696 31.9104 16.9672 31.9656 16.685C32.027 16.3599 31.8184 16.041 31.4872 15.9796C24.5068 14.6118 13.3124 9.66782 4.73716 0.197042C4.51634 -0.0483151 4.13603 -0.066717 3.88454 0.154104C3.63918 0.374925 3.62078 0.755228 3.8416 1.00672C12.6192 10.6922 24.0958 15.7588 31.2602 17.1573Z" fill="url(#paint4_linear_600_185)"/>
<path d="M34.6139 17.6423C34.663 17.4337 34.6017 17.219 34.4483 17.0657C33.0314 15.6856 31.8169 14.1091 30.8477 12.3794C30.6821 12.0911 30.3202 11.9868 30.0258 12.1524C29.7375 12.318 29.6332 12.6799 29.7988 12.9744C30.6576 14.5017 31.7003 15.9248 32.8964 17.2006C31.4979 17.5871 30.081 17.9183 28.6579 18.1759C28.3328 18.2373 28.112 18.5501 28.1733 18.8752C28.2285 19.1635 28.48 19.3659 28.7622 19.3659C28.799 19.3659 28.8358 19.3598 28.8726 19.3536C30.6637 19.0224 32.4548 18.593 34.1968 18.0717C34.4054 18.0165 34.5649 17.8508 34.6139 17.6423Z" fill="black"/>
<path d="M34.6139 17.6423C34.663 17.4337 34.6017 17.219 34.4483 17.0657C33.0314 15.6856 31.8169 14.1091 30.8477 12.3794C30.6821 12.0911 30.3202 11.9868 30.0258 12.1524C29.7375 12.318 29.6332 12.6799 29.7988 12.9744C30.6576 14.5017 31.7003 15.9248 32.8964 17.2006C31.4979 17.5871 30.081 17.9183 28.6579 18.1759C28.3328 18.2373 28.112 18.5501 28.1733 18.8752C28.2285 19.1635 28.48 19.3659 28.7622 19.3659C28.799 19.3659 28.8358 19.3598 28.8726 19.3536C30.6637 19.0224 32.4548 18.593 34.1968 18.0717C34.4054 18.0165 34.5649 17.8508 34.6139 17.6423Z" fill="url(#paint5_linear_600_185)"/>
<path d="M1.76447 34.5896C0.850516 33.9946 0.365936 33.2217 0.255526 33.2831C0.151249 33.3137 0.513151 34.2829 1.52525 34.9454C2.53735 35.6201 3.56784 35.5772 3.55558 35.4667C3.56784 35.3441 2.66616 35.1969 1.76447 34.5896Z" fill="black"/>
<path d="M1.76447 34.5896C0.850516 33.9946 0.365936 33.2217 0.255526 33.2831C0.151249 33.3137 0.513151 34.2829 1.52525 34.9454C2.53735 35.6201 3.56784 35.5772 3.55558 35.4667C3.56784 35.3441 2.66616 35.1969 1.76447 34.5896Z" fill="url(#paint6_linear_600_185)"/>
<path d="M34.4608 33.8721C34.5794 33.8721 34.6755 32.9988 34.6755 31.9215C34.6755 30.8442 34.5794 29.9709 34.4608 29.9709C34.3422 29.9709 34.2461 30.8442 34.2461 31.9215C34.2461 32.9988 34.3422 33.8721 34.4608 33.8721Z" fill="black"/>
<path d="M34.4608 33.8721C34.5794 33.8721 34.6755 32.9988 34.6755 31.9215C34.6755 30.8442 34.5794 29.9709 34.4608 29.9709C34.3422 29.9709 34.2461 30.8442 34.2461 31.9215C34.2461 32.9988 34.3422 33.8721 34.4608 33.8721Z" fill="url(#paint7_linear_600_185)"/>
<path d="M35.9969 30.7561C35.9785 29.6642 35.7822 28.7993 35.6657 28.8116C35.543 28.8239 35.543 29.6949 35.5675 30.7683C35.592 31.8356 35.6288 32.7066 35.7454 32.7189C35.8619 32.7251 36.0153 31.8479 35.9969 30.7561Z" fill="black"/>
<path d="M35.9969 30.7561C35.9785 29.6642 35.7822 28.7993 35.6657 28.8116C35.543 28.8239 35.543 29.6949 35.5675 30.7683C35.592 31.8356 35.6288 32.7066 35.7454 32.7189C35.8619 32.7251 36.0153 31.8479 35.9969 30.7561Z" fill="url(#paint8_linear_600_185)"/>
<path d="M2.02557 33.5414C1.25883 33.0752 0.921466 32.382 0.811055 32.425C0.761984 32.4434 0.774252 32.6519 0.921466 32.9525C1.06868 33.2531 1.36311 33.6272 1.79862 33.8971C2.23413 34.1731 2.7003 34.2774 3.03153 34.2774C3.3689 34.2774 3.55905 34.1977 3.55905 34.1425C3.54678 34.0321 2.78004 34.0321 2.02557 33.5414Z" fill="black"/>
<path d="M2.02557 33.5414C1.25883 33.0752 0.921466 32.382 0.811055 32.425C0.761984 32.4434 0.774252 32.6519 0.921466 32.9525C1.06868 33.2531 1.36311 33.6272 1.79862 33.8971C2.23413 34.1731 2.7003 34.2774 3.03153 34.2774C3.3689 34.2774 3.55905 34.1977 3.55905 34.1425C3.54678 34.0321 2.78004 34.0321 2.02557 33.5414Z" fill="url(#paint9_linear_600_185)"/>
<defs>
<linearGradient id="paint0_linear_600_185" x1="0.147214" y1="19.9332" x2="7.35491" y2="19.9378" gradientUnits="userSpaceOnUse">
<stop stop-color="#4E54C8"/>
<stop offset="1" stop-color="#8F94FB"/>
</linearGradient>
<linearGradient id="paint1_linear_600_185" x1="8.96829" y1="22.6495" x2="15.4962" y2="22.6544" gradientUnits="userSpaceOnUse">
<stop stop-color="#4E54C8"/>
<stop offset="1" stop-color="#8F94FB"/>
</linearGradient>
<linearGradient id="paint2_linear_600_185" x1="17.5893" y1="24.9737" x2="24.1118" y2="24.9803" gradientUnits="userSpaceOnUse">
<stop stop-color="#4E54C8"/>
<stop offset="1" stop-color="#8F94FB"/>
</linearGradient>
<linearGradient id="paint3_linear_600_185" x1="26.5935" y1="26.9367" x2="33.2295" y2="26.9462" gradientUnits="userSpaceOnUse">
<stop stop-color="#4E54C8"/>
<stop offset="1" stop-color="#8F94FB"/>
</linearGradient>
<linearGradient id="paint4_linear_600_185" x1="4.24906" y1="8.80492" x2="31.7433" y2="8.9001" gradientUnits="userSpaceOnUse">
<stop stop-color="#4E54C8"/>
<stop offset="1" stop-color="#8F94FB"/>
</linearGradient>
<linearGradient id="paint5_linear_600_185" x1="28.2915" y1="15.8132" x2="34.5773" y2="15.8249" gradientUnits="userSpaceOnUse">
<stop stop-color="#4E54C8"/>
<stop offset="1" stop-color="#8F94FB"/>
</linearGradient>
<linearGradient id="paint6_linear_600_185" x1="0.304136" y1="34.434" x2="3.52838" y2="34.444" gradientUnits="userSpaceOnUse">
<stop stop-color="#4E54C8"/>
<stop offset="1" stop-color="#8F94FB"/>
</linearGradient>
<linearGradient id="paint7_linear_600_185" x1="34.2546" y1="31.9715" x2="34.6719" y2="31.9716" gradientUnits="userSpaceOnUse">
<stop stop-color="#4E54C8"/>
<stop offset="1" stop-color="#8F94FB"/>
</linearGradient>
<linearGradient id="paint8_linear_600_185" x1="35.5635" y1="30.8153" x2="35.9947" y2="30.8154" gradientUnits="userSpaceOnUse">
<stop stop-color="#4E54C8"/>
<stop offset="1" stop-color="#8F94FB"/>
</linearGradient>
<linearGradient id="paint9_linear_600_185" x1="0.840221" y1="33.374" x2="3.5362" y2="33.3825" gradientUnits="userSpaceOnUse">
<stop stop-color="#4E54C8"/>
<stop offset="1" stop-color="#8F94FB"/>
</linearGradient>
</defs>
</svg>
