<svg width="179" height="173" viewBox="0 0 179 173" fill="none" xmlns="http://www.w3.org/2000/svg">
<g clip-path="url(#clip0_522_9816)">
<g opacity="0.4">
<path d="M157.043 114.146L160.201 122.076H160.218L157.043 114.146Z" fill="#5056C9" fill-opacity="0.39"/>
<path d="M136.784 127.938H136.751L159.799 122.158L136.784 127.938Z" fill="#5056C9" fill-opacity="0.39"/>
<path d="M159.742 122.602V122.594L151.975 124.539L159.742 122.602Z" fill="#5056C9" fill-opacity="0.39"/>
<path d="M155.05 110.238L159.799 122.158H159.849L155.05 110.222L146.184 118.809L155.05 110.238Z" fill="#5056C9" fill-opacity="0.39"/>
<path d="M170.856 123.078H170.839L166.287 122.676L170.856 123.078Z" fill="#5056C9" fill-opacity="0.39"/>
<path d="M160.217 122.52L167.287 123.152L160.217 122.503V122.52Z" fill="#5056C9" fill-opacity="0.39"/>
<path d="M155.108 110.164L155.05 110.222L159.848 122.158L159.963 122.134L159.971 122.093L160.086 122.101L160.201 122.076L157.043 114.146L155.592 110.525L155.305 110.279L155.296 110.353L155.108 110.164Z" fill="#5056C9" fill-opacity="0.39"/>
<path d="M136.268 128.004L136.62 127.848L136.555 127.995L136.752 127.938H136.784L146.184 118.809L155.05 110.222L155.108 110.164L155.091 110.156L154.894 110.263L154.919 109.984L154.804 109.877L136.251 127.88L133.233 86.8408L148.39 102.989L133.233 86.8408L136.268 128.004Z" fill="#5056C9" fill-opacity="0.39"/>
<path d="M136.366 129.235L136.079 128.693L136.021 128.767L136.407 129.998L136.366 129.235Z" fill="#5056C9" fill-opacity="0.39"/>
<path d="M135.521 127.174L135.538 127.191L122.693 86.2087L135.521 127.174Z" fill="#5056C9" fill-opacity="0.39"/>
<path d="M132.06 86.4221L122.939 85.675V85.6915L132.06 86.4221Z" fill="#5056C9" fill-opacity="0.39"/>
<path d="M135.784 126.616L124.555 90.806L136.21 128.036L136.268 128.004L133.233 86.8408L132.97 86.5781L132.905 86.652L132.888 86.5945L132.831 86.6192L135.784 126.616Z" fill="#5056C9" fill-opacity="0.39"/>
<path d="M177.852 172.171L164.384 162.254L177.852 172.171Z" fill="#5056C9" fill-opacity="0.39"/>
<path d="M167.32 163.912L164.294 161.712L167.32 163.912Z" fill="#5056C9" fill-opacity="0.39"/>
<path d="M126.105 45.4072L116.607 43.9788L126.114 45.4072H126.105Z" fill="#5056C9" fill-opacity="0.39"/>
<path d="M100.064 41.8689H100.105L118.625 44.6766L100.064 41.8689Z" fill="#5056C9" fill-opacity="0.39"/>
<path d="M101.91 25.6057L108.52 31.024L101.91 25.6057Z" fill="#5056C9" fill-opacity="0.39"/>
<path d="M101.91 25.655L99.728 41.3271L101.91 25.655Z" fill="#5056C9" fill-opacity="0.39"/>
<path d="M99.4736 40.3255L99.9493 36.9021L99.4736 40.3091V40.3255Z" fill="#5056C9" fill-opacity="0.39"/>
<path d="M101.647 24.875L101.622 24.8503L101.606 25.0227H101.622L101.647 24.875Z" fill="#5056C9" fill-opacity="0.39"/>
<path d="M126.786 45.4565L125.572 44.4385L126.786 45.4565Z" fill="#5056C9" fill-opacity="0.39"/>
<path d="M126.106 45.4072H126.114L126.671 45.5139L126.721 45.4565L126.778 45.4811L136.793 37.3044L126.786 45.4565L125.572 44.4385L102.394 25.4662L101.926 25.4333L101.91 25.6058L108.52 31.0241L126.106 45.4072Z" fill="#5056C9" fill-opacity="0.39"/>
<path d="M102.024 25.0474L147.135 28.0849H147.119L102.024 25.0474Z" fill="#5056C9" fill-opacity="0.39"/>
<path d="M147.586 28.5036L132.486 27.4856L147.586 28.5036Z" fill="#5056C9" fill-opacity="0.39"/>
<path d="M101.606 25.0228L101.147 24.99L101.204 25.031H101.623V25.0228H101.606Z" fill="#5056C9" fill-opacity="0.39"/>
<path d="M147.119 28.0849H147.135L102.024 25.0474L106.248 7.56922L101.967 25.2608L101.926 25.4332L102.393 25.4661L132.486 27.4856L147.586 28.5036L147.709 28.3969L147.48 28.3148L147.562 28.2901L106.297 7.53638V7.5528L147.119 28.0849Z" fill="#5056C9" fill-opacity="0.39"/>
<path d="M106.847 7.36401L133.577 20.8113L106.847 7.36401Z" fill="#5056C9" fill-opacity="0.39"/>
<path d="M101.623 25.0228V25.031L105.56 8.71045V8.72687L101.647 24.8751L101.623 25.0228Z" fill="#5056C9" fill-opacity="0.39"/>
<path d="M72.0132 46.6959L73.793 23.6599L72.0132 46.6959Z" fill="#5056C9" fill-opacity="0.39"/>
<path d="M75.0972 17.7983L81.4373 25.0884L75.0972 17.7983Z" fill="#5056C9" fill-opacity="0.39"/>
<path d="M74.6382 17.8558L89.0736 34.5048L74.6218 17.8394L72.4072 46.5564L74.6382 17.8558Z" fill="#5056C9" fill-opacity="0.39"/>
<path d="M105.912 1.53519L102.566 0L105.912 1.55161V1.53519Z" fill="#5056C9" fill-opacity="0.39"/>
<path d="M106.249 7.56919L106.298 7.61023V7.55277V7.53635L106.249 7.51172V7.56919Z" fill="#5056C9" fill-opacity="0.39"/>
<path d="M105.912 1.50235V1.49414L104.428 0L105.199 0.788118L103.509 0H102.566L105.912 1.53519V1.50235Z" fill="#5056C9" fill-opacity="0.39"/>
<path d="M105.912 7.03559V6.83856L96.5703 0H95.8813L105.56 7.06843L105.912 7.03559Z" fill="#5056C9" fill-opacity="0.39"/>
<path d="M81.2486 0H81.2322L78.501 6.7893L81.2486 0Z" fill="#5056C9" fill-opacity="0.39"/>
<path d="M81.6671 0L80.8633 1.96208L81.6671 0Z" fill="#5056C9" fill-opacity="0.39"/>
<path d="M75.0975 17.3715L95.75 10.7463L75.0811 17.3715H75.0975Z" fill="#5056C9" fill-opacity="0.39"/>
<path d="M73.104 0L73.3747 4.01447L73.104 0Z" fill="#5056C9" fill-opacity="0.39"/>
<path d="M73.4897 0L74.0311 7.74982L73.4897 0Z" fill="#5056C9" fill-opacity="0.39"/>
<path d="M74.605 16.4602L74.6378 16.9199L74.7034 16.8542L74.6952 17.0513L74.8346 16.9938L80.8631 1.96208L81.6669 0H81.2486L78.5009 6.7893L74.605 16.4602Z" fill="#5056C9" fill-opacity="0.39"/>
<path d="M131.371 147.821L131.847 148.38L131.371 147.821Z" fill="#5056C9" fill-opacity="0.39"/>
<path d="M122.579 150.375L122.447 150.473L123.366 150.284L123.382 150.276L122.579 150.375Z" fill="#5056C9" fill-opacity="0.39"/>
<path d="M128.591 149.356L123.973 150.186L128.591 149.356Z" fill="#5056C9" fill-opacity="0.39"/>
<path d="M105.912 0.944092L105.929 0.96146V0.944092H105.912Z" fill="#5056C9" fill-opacity="0.39"/>
<path d="M107.462 3.0376L106.404 6.92072L107.462 3.05402V3.0376Z" fill="#5056C9" fill-opacity="0.39"/>
<path d="M105.945 7.01926L107.118 2.86523L106.043 2.80776L106.978 2.55326L105.912 1.50244V1.53528V1.5517V6.83865V7.03568L105.945 7.01926Z" fill="#5056C9" fill-opacity="0.39"/>
<path d="M171.971 123.603L179 124.58L171.946 123.603H171.971Z" fill="#5056C9" fill-opacity="0.39"/>
<path d="M179 124.178L176.022 123.767L179 124.178Z" fill="#5056C9" fill-opacity="0.39"/>
<path d="M172.34 123.275L179 121.124L172.34 123.266V123.275Z" fill="#5056C9" fill-opacity="0.39"/>
<path d="M164.86 160.866L163.867 161.137L171.585 123.767L163.867 161.137L164.86 160.866Z" fill="#5056C9" fill-opacity="0.39"/>
<path d="M171.143 123.907L165.844 149.685L171.143 123.907Z" fill="#5056C9" fill-opacity="0.39"/>
<path d="M168.518 160.16L164.597 161.334L168.518 160.16Z" fill="#5056C9" fill-opacity="0.39"/>
<path d="M171.388 123.037L171.397 122.987L171.339 122.905L171.323 122.979L171.388 123.037Z" fill="#5056C9" fill-opacity="0.39"/>
<path d="M172.34 123.275V123.267L171.643 123.496L171.585 123.767L179 132.305V131.706L171.971 123.603H171.946L179 124.58V124.178L176.023 123.767L172.34 123.275Z" fill="#5056C9" fill-opacity="0.39"/>
<path d="M133.077 85.9622V85.9458L131.108 80.2566L133.077 85.9622Z" fill="#5056C9" fill-opacity="0.39"/>
<path d="M126.778 67.7947L126.704 68.0902L126.778 68.1641L126.844 68.0492L126.778 67.7947Z" fill="#5056C9" fill-opacity="0.39"/>
<path d="M123.768 81.8083L122.923 85.2646L123.768 81.8083Z" fill="#5056C9" fill-opacity="0.39"/>
<path d="M132.741 86.1923L126.835 69.1985L132.716 86.0609L123.382 85.3221L123.112 85.478L123.423 85.6176L122.939 85.6504V85.6751L132.06 86.4221L132.511 86.4632L132.716 86.2744L132.659 86.2333L132.741 86.1923Z" fill="#5056C9" fill-opacity="0.39"/>
<path d="M120.274 70.8158L126.532 68.7798L122.693 84.4601V84.5586L120.003 70.9061L122.808 85.2646H122.923L123.768 81.8084L126.835 69.1985L126.671 68.7388L120.274 70.8158Z" fill="#5056C9" fill-opacity="0.39"/>
<path d="M122.39 85.1166L121.324 79.6409L122.39 85.1166Z" fill="#5056C9" fill-opacity="0.39"/>
<path d="M122.694 86.2087L122.571 85.7654L122.505 85.7736L122.653 86.3811L122.694 86.2087Z" fill="#5056C9" fill-opacity="0.39"/>
<path d="M119.527 70.6269L119.56 70.6187L119.527 70.6269Z" fill="#5056C9" fill-opacity="0.39"/>
<path d="M2.91972 2.76662L3.6497 0L2.90332 2.76662H2.91972Z" fill="#5056C9" fill-opacity="0.39"/>
<path d="M1.09912 0L1.80449 3.06217L1.09912 0Z" fill="#5056C9" fill-opacity="0.39"/>
<path d="M2.30469 3.48085V3.49727L3.24792 0L2.30469 3.48085Z" fill="#5056C9" fill-opacity="0.39"/>
<path d="M2.03397 5.18848L1.24658 16.8625L2.03397 5.18848Z" fill="#5056C9" fill-opacity="0.39"/>
<path d="M17.946 6.12448L9.77686 5.28711L17.946 6.12448Z" fill="#5056C9" fill-opacity="0.39"/>
<path d="M14.8622 5.40191L2.73145 4.15405L14.8622 5.40191Z" fill="#5056C9" fill-opacity="0.39"/>
<path d="M2.05875 4.19508L2.13257 4.17045L2.30481 3.49727V3.48085L1.50102 0H1.09912L1.80449 3.06217L2.05875 4.19508Z" fill="#5056C9" fill-opacity="0.39"/>
<path d="M123.579 150.317L125.285 157.886L115.312 156.433L125.285 157.886L123.579 150.317Z" fill="#5056C9" fill-opacity="0.39"/>
<path d="M96.2664 153.47L96.25 153.486L123.423 149.874L96.2664 153.47Z" fill="#5056C9" fill-opacity="0.39"/>
<path d="M125.63 157.615L124.367 152.025L125.63 157.615Z" fill="#5056C9" fill-opacity="0.39"/>
<path d="M123.383 150.276L97.0132 153.773H97.0378L122.579 150.375L123.383 150.276Z" fill="#5056C9" fill-opacity="0.39"/>
<path d="M132.142 148.371L132.175 148.314L131.847 148.38L132.142 148.371Z" fill="#5056C9" fill-opacity="0.39"/>
<path d="M124.941 149.619L123.957 150.128L123.973 150.186L128.591 149.357L131.338 148.856L131.527 148.593L131.396 148.454L124.941 149.619Z" fill="#5056C9" fill-opacity="0.39"/>
<path d="M125.63 157.615L124.366 152.025L123.94 150.202L123.842 150.219L123.694 150.531L123.612 150.301L123.579 150.317L125.285 157.886L125.441 157.911L125.589 157.681V157.714L129.837 151.187L125.63 157.615Z" fill="#5056C9" fill-opacity="0.39"/>
<path d="M127.336 45.7683L136.424 50.497L127.336 45.7683Z" fill="#5056C9" fill-opacity="0.39"/>
<path d="M137.843 51.0963L139.557 42.386H139.549L137.826 51.0963H137.843Z" fill="#5056C9" fill-opacity="0.39"/>
<path d="M139.401 42.312L133.602 43.9786L139.376 42.3284L139.401 42.312Z" fill="#5056C9" fill-opacity="0.39"/>
<path d="M127.68 45.2675L132.741 43.8062L127.688 45.251L127.68 45.2675Z" fill="#5056C9" fill-opacity="0.39"/>
<path d="M148.849 27.4529L148.218 27.9865L148.234 28.085L148.554 27.9865L148.849 27.4529Z" fill="#5056C9" fill-opacity="0.39"/>
<path d="M136.792 37.3043L126.778 45.4811L126.843 45.5221L127.089 45.5549L127.073 45.637L127.336 45.7684L133.602 43.9787L139.401 42.3122L139.63 41.9017L139.663 41.8689H139.671L139.688 41.8278L132.741 43.8063L127.68 45.2676L127.688 45.2512L147.316 29.2343L147.791 28.4298L147.709 28.397L147.586 28.5037L136.792 37.3043Z" fill="#5056C9" fill-opacity="0.39"/>
<path d="M126.433 46.0228L126.499 45.8833L126.343 45.8586L125.933 46.1706L126.433 46.0228Z" fill="#5056C9" fill-opacity="0.39"/>
<path d="M17.7407 48.4365L17.6177 48.5186V48.5925L17.9458 48.5761L17.7407 48.4365Z" fill="#5056C9" fill-opacity="0.39"/>
<path d="M156.149 70.4628L155.305 48.1738L156.149 70.4464V70.4628Z" fill="#5056C9" fill-opacity="0.39"/>
<path d="M156.535 70.3478L155.912 54.1667L156.535 70.3478Z" fill="#5056C9" fill-opacity="0.39"/>
<path d="M145.142 48.6499L138.285 51.5889L140.992 54.4376L138.285 51.5889L145.142 48.6499Z" fill="#5056C9" fill-opacity="0.39"/>
<path d="M154.804 44.0771L143.813 48.7894L154.804 44.0771Z" fill="#5056C9" fill-opacity="0.39"/>
<path d="M169.937 36.2698L166 38.4289L169.937 36.2698Z" fill="#5056C9" fill-opacity="0.39"/>
<path d="M156.149 43.8391L173.833 43.2644H173.792L156.166 43.8391H156.149Z" fill="#5056C9" fill-opacity="0.39"/>
<path d="M169.535 36.0237L166.763 37.5589L169.535 36.0237Z" fill="#5056C9" fill-opacity="0.39"/>
<path d="M146.299 38.2485L145.856 37.9612L148.161 28.9307L145.815 37.9612L146.299 38.2485Z" fill="#5056C9" fill-opacity="0.39"/>
<path d="M145.446 37.9446L147.062 31.6396L147.021 31.6971L145.446 37.9446Z" fill="#5056C9" fill-opacity="0.39"/>
<path d="M145.626 38.3059L146.299 38.7164L145.626 38.3059Z" fill="#5056C9" fill-opacity="0.39"/>
<path d="M169.871 36.1549L148.382 28.6267V28.7006L148.234 28.6267L148.161 28.9305L154.878 43.5435L155.124 43.6912L155.411 43.9047H156.149L165.992 38.5028L169.929 36.3437L169.888 36.2534L169.871 36.1549ZM148.505 28.7006L169.576 36.0892L166.804 37.6244L155.46 43.8554L148.505 28.7006Z" fill="#5056C9" fill-opacity="0.39"/>
<path d="M71.5459 47.1723H71.6935L71.792 47.0573L71.7345 47.0327L71.5459 47.1723Z" fill="#5056C9" fill-opacity="0.39"/>
<path d="M76.705 46.614L72.8172 46.7453L87.9745 35.7774L82.594 41.7868L89.0982 34.5459L89.0736 34.5049L72.4071 46.5565L72.3989 46.7618L76.705 46.614Z" fill="#5056C9" fill-opacity="0.39"/>
<path d="M90.7384 33.2981L90.3693 33.5772L89.6558 34.5049L90.7384 33.2981Z" fill="#5056C9" fill-opacity="0.39"/>
<path d="M98.7024 41.9836L97.71 42.2299L98.7024 41.9836Z" fill="#5056C9" fill-opacity="0.39"/>
<path d="M78.2389 46.9833V46.9751H77.9272L77.8042 47.0982L78.2389 46.9833Z" fill="#5056C9" fill-opacity="0.39"/>
<path d="M99.2193 41.1382L89.6558 34.5049L99.2193 41.1382Z" fill="#5056C9" fill-opacity="0.39"/>
<path d="M89.4097 34.8169L96.3403 39.6523L89.4097 34.8169Z" fill="#5056C9" fill-opacity="0.39"/>
<path d="M82.5938 41.7867L78.3042 46.5729H78.3534L85.6532 44.7832L78.9768 46.4169L89.3523 34.8332L89.221 34.6937L89.0734 34.5787L89.098 34.5459L82.5938 41.7867Z" fill="#5056C9" fill-opacity="0.39"/>
<path d="M153.5 43.1741L153.492 43.1576L149.883 41.8113L153.5 43.1741Z" fill="#5056C9" fill-opacity="0.39"/>
<path d="M138.474 51.0717L138.244 51.4411L138.367 51.515L138.285 51.5725V51.5889L145.142 48.6499L155.148 44.3645V44.1921L154.804 44.0771L143.813 48.7894L138.474 51.0717Z" fill="#5056C9" fill-opacity="0.39"/>
<path d="M140.648 46.458L138.4 51.0718L140.648 46.458Z" fill="#5056C9" fill-opacity="0.39"/>
<path d="M137.957 51.9583L137.941 51.9009L137.572 52.4591L137.465 52.9517L137.957 51.9583Z" fill="#5056C9" fill-opacity="0.39"/>
<path d="M140.393 41.4419L143.584 39.5948V39.5784L140.393 41.4419Z" fill="#5056C9" fill-opacity="0.39"/>
<path d="M141.418 41.2941L143.28 40.2105L138.441 50.0866L139.991 42.1315L139.556 42.386L137.842 51.0963L137.916 51.2031L137.982 51.1292L138.039 51.2441L138.4 51.0717L140.647 46.4579L143.822 39.9642L143.797 39.9478L143.28 40.4075L143.379 40.1694L141.418 41.2941Z" fill="#5056C9" fill-opacity="0.39"/>
<path d="M139.671 41.8689H139.663L139.63 41.9017L139.663 41.8853L139.671 41.8689Z" fill="#5056C9" fill-opacity="0.39"/>
<path d="M144.314 38.9461L145.446 37.961V37.9446L144.314 38.9461Z" fill="#5056C9" fill-opacity="0.39"/>
<path d="M145.815 37.9612L145.79 38.1746L145.741 38.1993L145.626 38.306L146.298 38.7165L153.492 43.1578L153.5 43.1742L149.883 41.8115L144.125 39.6523L143.928 39.833V39.8494L143.879 39.8822L143.797 39.9479L143.821 39.9643L154.804 44.0773L155.148 44.1922V44.1594L154.804 43.8803H155.124V43.6915L154.878 43.5519L146.298 38.2485L145.815 37.9612Z" fill="#5056C9" fill-opacity="0.39"/>
<path d="M144.224 39.02L145.897 34.6033L144.224 39.02Z" fill="#5056C9" fill-opacity="0.39"/>
<path d="M147.316 29.2342L139.688 41.8277L139.672 41.8687L139.663 41.8852L139.631 41.9016L139.401 42.312L139.376 42.3285L139.245 42.5583L139.549 42.3859H139.557L139.991 42.1314L141.419 41.2941L143.379 40.1694L143.568 39.6522L144.945 36.0399L143.584 39.5783V39.5947L140.393 41.4418L147.119 30.3343L147.833 28.4543L147.792 28.4297L147.316 29.2342Z" fill="#5056C9" fill-opacity="0.39"/>
<path d="M143.928 39.8492V39.8328L143.879 39.882L143.928 39.8492Z" fill="#5056C9" fill-opacity="0.39"/>
<path d="M147.833 28.4543L147.119 30.3425L144.945 36.0482L143.584 39.6522L143.395 40.1694L143.297 40.4075L143.814 39.9477L143.904 39.882L143.945 39.8328L144.142 39.6522L145.651 38.3058L145.757 38.1991H145.807V37.9856L148.152 28.9551L148.226 28.6514L148.087 28.5857H147.956V28.4872L147.833 28.4543ZM145.446 37.9446L144.314 38.9297L144.224 39.0036L145.905 34.5869L147.021 31.6807L147.062 31.6232L145.446 37.9446Z" fill="#5056C9" fill-opacity="0.39"/>
<path d="M129.181 144.086L128.205 140.671L129.181 144.086Z" fill="#5056C9" fill-opacity="0.39"/>
<path d="M128.533 140.457V140.441L129.591 144.143L128.533 140.457Z" fill="#5056C9" fill-opacity="0.39"/>
<path d="M128.148 139.842L128.164 139.858L128.32 139.628L128.296 139.53L128.148 139.842Z" fill="#5056C9" fill-opacity="0.39"/>
<path d="M123.71 149.545L126.343 143.758L123.71 149.529V149.545Z" fill="#5056C9" fill-opacity="0.39"/>
<path d="M129.927 146.836L129.78 146.664L124.137 149.586L123.907 150.046L123.956 150.128L124.941 149.619L130.067 146.976L130.009 146.918H129.968L129.927 146.836Z" fill="#5056C9" fill-opacity="0.39"/>
<path d="M123.579 150.243L123.382 150.276L123.366 150.284L123.292 150.473L123.579 150.317L123.612 150.301L123.579 150.243Z" fill="#5056C9" fill-opacity="0.39"/>
<path d="M56.6265 0L62.6549 5.94372L56.6265 0Z" fill="#5056C9" fill-opacity="0.39"/>
<path d="M74.4657 17.0923L74.6379 16.9199L74.6051 16.4602L74.0309 7.74982L73.4896 0H73.1041L73.3748 4.01447L74.236 16.8542L57.1841 0L74.4657 17.0923Z" fill="#5056C9" fill-opacity="0.39"/>
<path d="M42.5356 37.3863L40.8296 37.1318H40.846L42.5356 37.3863Z" fill="#5056C9" fill-opacity="0.39"/>
<path d="M47.7027 37.7722L39.0332 36.4504V36.4669L47.7027 37.7722Z" fill="#5056C9" fill-opacity="0.39"/>
<path d="M39.2056 36.0974L40.2308 34.3159L39.2056 36.0974Z" fill="#5056C9" fill-opacity="0.39"/>
<path d="M38.8115 36.0071L39.8778 34.1189L38.8115 36.0071Z" fill="#5056C9" fill-opacity="0.39"/>
<path d="M48.2523 37.7722L42.3387 30.8926H42.3223L48.2523 37.7722Z" fill="#5056C9" fill-opacity="0.39"/>
<path d="M73.2193 18.1021H73.2029L63.7378 25.5645L73.2193 18.1021Z" fill="#5056C9" fill-opacity="0.39"/>
<path d="M41.7482 30.8268L41.7974 30.794L41.74 30.7119L41.6826 30.7365L41.7482 30.8268Z" fill="#5056C9" fill-opacity="0.39"/>
<path d="M48.4902 38.076L51.0575 36.0647L48.4902 38.076Z" fill="#5056C9" fill-opacity="0.39"/>
<path d="M48.1785 38.3304L48.1949 38.314L48.1375 38.2483H48.1211L48.1785 38.3304Z" fill="#5056C9" fill-opacity="0.39"/>
<path d="M73.6047 17.511H73.5883L47.0303 28.5118L73.6047 17.511Z" fill="#5056C9" fill-opacity="0.39"/>
<path d="M42.0518 31.1553L47.7029 37.7722L48.1458 37.8461L48.2525 37.7722L42.3224 30.8926L42.142 30.9829L42.0518 31.1553Z" fill="#5056C9" fill-opacity="0.39"/>
<path d="M75.4499 16.838L75.7124 16.6245L74.8347 16.9939L74.6953 17.0514V17.0842L75.4499 16.838Z" fill="#5056C9" fill-opacity="0.39"/>
<path d="M74.8267 95.863H74.8185L64.4512 108.391L74.8267 95.863Z" fill="#5056C9" fill-opacity="0.39"/>
<path d="M96.3239 91.3643H96.2911L80.814 94.3443L96.3239 91.3643Z" fill="#5056C9" fill-opacity="0.39"/>
<path d="M74.5229 108.875L96.5125 91.9717V91.9553L74.5229 108.875Z" fill="#5056C9" fill-opacity="0.39"/>
<path d="M74.3673 108.53L96.0206 91.8403L74.4822 108.415L75.4746 95.7973H75.4336L75.3762 95.9533L75.245 95.822L75.0809 95.863L75.0481 96.2407L74.0967 108.317L74.2361 108.489L74.2935 108.333L74.3673 108.53Z" fill="#5056C9" fill-opacity="0.39"/>
<path d="M47.3337 71.9897L40.0913 88.8029L47.3337 72.0062V71.9897Z" fill="#5056C9" fill-opacity="0.39"/>
<path d="M75.7371 95.74L75.4336 95.7975H75.4746L75.7535 95.7646L75.7371 95.74Z" fill="#5056C9" fill-opacity="0.39"/>
<path d="M59.9072 81.9971L75.2039 95.2801L59.9072 81.9971Z" fill="#5056C9" fill-opacity="0.39"/>
<path d="M18.971 5.80416H18.9546L23.6871 5.97656L27.5011 0H27.4764L23.6871 5.97656L18.971 5.80416Z" fill="#5056C9" fill-opacity="0.39"/>
<path d="M23.7119 6.37882L21.8501 6.30493L23.7119 6.37882Z" fill="#5056C9" fill-opacity="0.39"/>
<path d="M17.8721 6.14914L18.0689 6.16556L18.0853 6.13272L17.9459 6.12451L17.8721 6.14914Z" fill="#5056C9" fill-opacity="0.39"/>
<path d="M163.17 161.351H163.195L162.941 161.146H162.908L163.17 161.351Z" fill="#5056C9" fill-opacity="0.39"/>
<path d="M164.294 161.712L175.867 162.943L163.999 161.663L164.384 162.254L177.852 172.171L179 173V172.499L167.32 163.912L164.294 161.712Z" fill="#5056C9" fill-opacity="0.39"/>
<path d="M164.597 161.334L179 162.869L164.597 161.334Z" fill="#5056C9" fill-opacity="0.39"/>
<path d="M162.604 161.523L162.924 161.548L163.236 161.392L163.195 161.351H163.17L162.604 161.523Z" fill="#5056C9" fill-opacity="0.39"/>
<path d="M163.867 161.137L163.826 161.351L163.982 161.466L163.9 161.507L163.998 161.663L175.867 162.943L179 163.272V162.869L164.597 161.334L168.518 160.16L179 157.024V156.605L164.86 160.866L163.867 161.137Z" fill="#5056C9" fill-opacity="0.39"/>
<path d="M179 108.645L175.063 116.518L179 108.645Z" fill="#5056C9" fill-opacity="0.39"/>
<path d="M171.774 123.16L171.93 123.193L171.643 123.447V123.496L172.34 123.267L179 121.124V120.713L171.856 123.004L171.774 123.16Z" fill="#5056C9" fill-opacity="0.39"/>
<path d="M179 107.759L175.719 114.294L179 107.759Z" fill="#5056C9" fill-opacity="0.39"/>
<path d="M179 93.8435L168.977 100.469L179 93.8435Z" fill="#5056C9" fill-opacity="0.39"/>
<path d="M154.804 109.877L154.919 109.983V109.967L154.804 109.852V109.868V109.877Z" fill="#5056C9" fill-opacity="0.39"/>
<path d="M179 94.3032L164.614 103.818L179 94.3032Z" fill="#5056C9" fill-opacity="0.39"/>
<path d="M171.397 122.988L171.389 123.037L171.323 122.979L155.469 109.893L155.305 110.008V110.279L155.592 110.525L170.839 123.078H170.856L171.389 123.135L171.774 122.774L171.7 123.16H171.774L171.856 123.004L175.063 116.518L179 108.645V107.759L175.719 114.294L171.397 122.988Z" fill="#5056C9" fill-opacity="0.39"/>
<path d="M148.693 72.1375V72.1211L140.475 79.3866L148.693 72.1375Z" fill="#5056C9" fill-opacity="0.39"/>
<path d="M145.503 71.2344L148.751 71.7516L145.503 71.2344Z" fill="#5056C9" fill-opacity="0.39"/>
<path d="M127.09 68.7387L126.893 68.7141L126.835 68.7962L126.729 68.7141L126.671 68.7387L126.835 69.1985L132.741 86.1923L132.856 86.1512L133.077 85.9624L131.109 80.2568L127.09 68.7387Z" fill="#5056C9" fill-opacity="0.39"/>
<path d="M132.971 86.5782L132.962 86.5371L132.889 86.5946L132.905 86.652L132.971 86.5782Z" fill="#5056C9" fill-opacity="0.39"/>
<path d="M137.039 50.2671L137.465 51.0388L137.867 51.2604L137.916 51.203L137.842 51.0963H137.826L137.039 50.2671Z" fill="#5056C9" fill-opacity="0.39"/>
<path d="M149.227 71.7762L149.891 71.6941L149.227 71.7762Z" fill="#5056C9" fill-opacity="0.39"/>
<path d="M156.765 71.1029L156.609 70.9634L156.592 70.988L156.666 71.1194L156.765 71.1029Z" fill="#5056C9" fill-opacity="0.39"/>
<path d="M148.751 71.7516L147.316 69.1245L148.751 71.7516Z" fill="#5056C9" fill-opacity="0.39"/>
<path d="M156.149 70.4463L140.992 54.4376L138.285 51.5889V51.5725L138.228 51.5971L138.86 52.7629L155.953 70.8321L156.166 70.7993L156.149 70.4627V70.4463Z" fill="#5056C9" fill-opacity="0.39"/>
<path d="M138.86 52.7629L138.228 51.5972L138.097 51.6711L127.049 68.4514L127.164 68.5827L126.917 68.6566V68.7141H127.114L147.8 71.9979L149.079 71.8091H149.145H149.251L138.86 52.7629ZM148.751 71.7516L145.47 71.2344L127.18 68.3365L137.605 52.4592L137.974 51.9009V51.9584L147.34 69.1246L148.751 71.7516Z" fill="#5056C9" fill-opacity="0.39"/>
<path d="M149.481 72.2688V72.2524L149.178 72.2031L149.481 72.2688Z" fill="#5056C9" fill-opacity="0.39"/>
<path d="M126.778 68.1641L128.722 65.2004L126.843 68.0492L126.778 68.1641Z" fill="#5056C9" fill-opacity="0.39"/>
<path d="M137.957 51.3016L138.039 51.2441L137.982 51.1292L137.916 51.203L137.867 51.2605L137.957 51.3016Z" fill="#5056C9" fill-opacity="0.39"/>
<path d="M1.91926 4.95874L0 6.82231L1.91926 4.95874Z" fill="#5056C9" fill-opacity="0.39"/>
<path d="M2.61621 4.15404H2.73104L3.10833 3.80103L2.73104 3.92417L2.61621 4.15404Z" fill="#5056C9" fill-opacity="0.39"/>
<path d="M30.3638 0L30.8887 1.53519L30.3638 0Z" fill="#5056C9" fill-opacity="0.39"/>
<path d="M38.5737 37.14L38.5901 37.2139L38.6311 37.1318V37.0825L38.5737 37.14Z" fill="#5056C9" fill-opacity="0.39"/>
<path d="M42.1256 30.5477L35.8921 15.0891L42.1092 30.5477H42.1256Z" fill="#5056C9" fill-opacity="0.39"/>
<path d="M38.2622 34.8086L38.0571 33.4705L38.2622 34.8086Z" fill="#5056C9" fill-opacity="0.39"/>
<path d="M40.2309 34.3159L42.0517 31.1552L42.1419 30.9828L41.8795 31.0813L41.8056 30.8925L36.0068 16.4519V16.4601L41.74 30.7119L41.7974 30.794L41.7482 30.8268L39.8782 34.1189L38.8119 36.0071L36.3103 18.4879L38.8447 36.2862L39.2056 36.0974L40.2309 34.3159Z" fill="#5056C9" fill-opacity="0.39"/>
<path d="M35.8511 14.687V14.7034L73.9493 17.1417L35.8511 14.687Z" fill="#5056C9" fill-opacity="0.39"/>
<path d="M41.8055 30.8925L41.8793 31.0813L42.1418 30.9828L42.3222 30.8925H42.3386L73.2027 18.102H73.2191L73.9491 17.5274L56.0934 16.3944L73.5882 17.5109H73.6046L47.0302 28.5117L42.1254 30.5477H42.109L35.8919 15.0891H35.8673L35.9493 15.2779L35.8345 15.2205L36.0067 16.4519L41.8055 30.8925Z" fill="#5056C9" fill-opacity="0.39"/>
<path d="M35.4078 15.0565V14.999L35.3504 14.9744L35.334 15.0565H35.4078Z" fill="#5056C9" fill-opacity="0.39"/>
<path d="M35.7525 14.7444L35.7853 14.7608V14.8182L35.8673 15.0892H35.8919L56.0934 16.3945L73.9491 17.5274L74.0476 17.4371L73.8425 17.355L74.1214 17.2565L73.8179 16.9117L74.4331 17.1416L74.4659 17.0923L57.1843 0H56.6266L62.655 5.94372L73.9491 17.1416L35.8509 14.7033V14.6869L40.1078 0H39.6731L35.5967 14.219L35.7525 14.7444Z" fill="#5056C9" fill-opacity="0.39"/>
<path d="M167.476 53.5182V53.51L159.069 46.811L167.476 53.5182Z" fill="#5056C9" fill-opacity="0.39"/>
<path d="M165.631 57.0892L165.647 57.0564L161.308 63.739L165.631 57.0892Z" fill="#5056C9" fill-opacity="0.39"/>
<path d="M155.148 44.192V44.3644L155.304 48.1737L156.149 70.4626L156.165 70.7992L156.264 70.7746L167.205 53.9203L156.535 70.3477L155.911 54.1666L155.534 44.4958L161.136 48.9536L155.148 44.1592V44.192Z" fill="#5056C9" fill-opacity="0.39"/>
<path d="M155.124 43.8803L155.304 43.8638H155.403L155.124 43.6504V43.6914V43.8803Z" fill="#5056C9" fill-opacity="0.39"/>
<path d="M174.161 43.0592L174.218 43.1906L174.161 43.051V43.0592Z" fill="#5056C9" fill-opacity="0.39"/>
<path d="M179 52.8779L175.292 45.9983L179 52.8779Z" fill="#5056C9" fill-opacity="0.39"/>
<path d="M167.206 53.9205L167.263 53.8384L167.206 53.9205Z" fill="#5056C9" fill-opacity="0.39"/>
<path d="M179 56.8594L167.903 54.0928L179 56.8594Z" fill="#5056C9" fill-opacity="0.39"/>
<path d="M167.837 53.6824L171.142 48.5186L167.837 53.6824Z" fill="#5056C9" fill-opacity="0.39"/>
<path d="M155.411 43.8636H155.305H155.124H154.804L155.149 44.1428L161.136 48.9289L167.263 53.8547L167.345 53.7562L167.419 53.5838L167.837 53.6987L171.118 48.5349L174.112 43.8472L173.882 43.4203L173.808 43.2808L156.125 43.8472L155.411 43.8636ZM173.792 43.6584L167.476 53.5099L159.069 46.8027L155.887 44.2331L173.8 43.6584H173.792Z" fill="#5056C9" fill-opacity="0.39"/>
<path d="M22.2684 8.15215L18.4873 6.2229V6.23111L22.2684 8.15215Z" fill="#5056C9" fill-opacity="0.39"/>
<path d="M28.305 10.7874L23.5561 6.20647L23.6545 6.07511V5.9766L18.9302 5.8042L18.7661 5.94376L28.305 10.7874ZM23.7119 6.37887L28.2968 10.7874L19.2746 6.20647L21.8172 6.30498L23.6791 6.37887H23.7119Z" fill="#5056C9" fill-opacity="0.39"/>
<path d="M24.0566 6.16553L29.1829 11.1077L24.0566 6.16553Z" fill="#5056C9" fill-opacity="0.39"/>
<path d="M23.6546 6.07507L23.5562 6.20643L28.3051 10.7874L29.0269 11.165V11.1486L29.1827 11.2471L29.355 0L29.1827 11.1075L24.0565 6.16538L27.9524 0H27.5013L23.6874 5.97656L23.6546 6.07507Z" fill="#5056C9" fill-opacity="0.39"/>
<path d="M17.7246 47.9931L29.3796 12.1666L34.7355 26.5087L29.3796 12.1501L17.7246 47.9931Z" fill="#5056C9" fill-opacity="0.39"/>
<path d="M38.4427 36.5161L29.5107 41.4665L38.4427 36.5161Z" fill="#5056C9" fill-opacity="0.39"/>
<path d="M38.057 37.1895L37.1958 37.6738L38.057 37.1895Z" fill="#5056C9" fill-opacity="0.39"/>
<path d="M29.0268 11.6084L20.3901 18.4716L29.0268 11.6084Z" fill="#5056C9" fill-opacity="0.39"/>
<path d="M29.7816 11.009L29.5684 11.1486V11.4523L29.6258 11.4606L29.7816 11.009Z" fill="#5056C9" fill-opacity="0.39"/>
<path d="M29.7568 11.5344L32.0862 12.7823L29.7568 11.5344Z" fill="#5056C9" fill-opacity="0.39"/>
<path d="M35.7524 14.7444L35.7853 14.8183V14.7608L35.7524 14.7444Z" fill="#5056C9" fill-opacity="0.39"/>
<path d="M29.1827 11.2472L29.0269 11.1487V11.1651L29.1827 11.2472Z" fill="#5056C9" fill-opacity="0.39"/>
<path d="M29.2974 11.8957L29.3794 12.1502L34.7353 26.5087L38.4426 36.5162H38.459L38.418 36.2945L38.6312 36.3684L38.7871 36.1385L38.8281 36.2945L38.8445 36.2863L36.3101 18.488L36.0066 16.4602V16.452L35.8343 15.2206L33.1441 13.7839L35.3504 14.9743L35.4078 14.9989V15.0564L38.0571 33.4704L38.2621 34.8086L29.7567 11.9942L29.3958 11.8054L29.2974 11.8957Z" fill="#5056C9" fill-opacity="0.39"/>
<path d="M29.757 11.5345L29.6258 11.4606L29.5684 11.4524L29.757 11.5345Z" fill="#5056C9" fill-opacity="0.39"/>
<path d="M29.1826 11.2471V11.5673V11.674L29.3959 11.8053L29.7568 11.9942L33.1442 13.7838L35.8344 15.2205L35.9493 15.278L35.8672 15.0892L35.7852 14.8183L35.7524 14.7444L35.5966 14.219L30.782 0H30.3637L30.8886 1.53519L35.2357 14.4734L32.0861 12.7823L29.7568 11.5344L29.5681 11.4523V11.1486L29.7568 0H29.3549L29.1826 11.2471Z" fill="#5056C9" fill-opacity="0.39"/>
<path d="M20.2017 63.2053L36.3678 39.6768L20.2017 63.2053Z" fill="#5056C9" fill-opacity="0.39"/>
<path d="M38.6313 37.0827V37.1319L41.338 48.0014L38.6313 37.0745L36.1953 40.5799L38.5739 37.1401L38.6313 37.0827Z" fill="#5056C9" fill-opacity="0.39"/>
<path d="M38.8282 36.2944L38.7872 36.1384L38.6313 36.3683L38.6888 36.3847L38.8282 36.2944Z" fill="#5056C9" fill-opacity="0.39"/>
<path d="M38.689 36.3849L38.7546 36.4095L38.7874 36.4259L39.0334 36.467V36.4506L39.3287 36.0237L39.2057 36.0976L38.8448 36.2864L38.8284 36.2946L38.689 36.3849Z" fill="#5056C9" fill-opacity="0.39"/>
<path d="M162.768 160.505L150.982 142.707H150.966L162.768 160.505Z" fill="#5056C9" fill-opacity="0.39"/>
<path d="M163.539 161.679L163.695 161.942L163.736 161.778L163.572 161.663L163.539 161.679Z" fill="#5056C9" fill-opacity="0.39"/>
<path d="M171.7 123.16L171.774 122.774L171.389 123.135L171.7 123.16Z" fill="#5056C9" fill-opacity="0.39"/>
<path d="M171.602 123.497L171.143 123.907L165.844 149.685L163.523 160.924L151.253 142.42L161.817 132.576L151.253 142.411L163.769 161.293L163.827 161.351L163.868 161.137L171.586 123.767L171.643 123.497V123.447L171.602 123.497Z" fill="#5056C9" fill-opacity="0.39"/>
<path d="M135.718 128.233L135.792 128.209L135.767 128.176L135.693 128.192L135.718 128.233Z" fill="#5056C9" fill-opacity="0.39"/>
<path d="M150.728 142.395L141.287 133.479L150.711 142.395H150.728Z" fill="#5056C9" fill-opacity="0.39"/>
<path d="M136.752 127.938L136.555 127.995L136.366 128.266L136.497 128.422L151.975 124.539L159.742 122.593L159.963 122.134L159.848 122.158H159.799L136.752 127.938Z" fill="#5056C9" fill-opacity="0.39"/>
<path d="M160.218 122.503L153.845 136.55L160.218 122.52V122.503Z" fill="#5056C9" fill-opacity="0.39"/>
<path d="M160.39 122.117L160.431 122.019L160.218 122.076H160.201L160.086 122.101H160.103L160.39 122.117Z" fill="#5056C9" fill-opacity="0.39"/>
<path d="M160.39 122.117H160.103H159.988V122.166L159.775 122.626L150.966 142.05L151.023 142.091L151.072 142.05L151.195 142.247L151.31 142.362L161.883 132.51L171.143 123.932L171.602 123.513V123.472L171.889 123.217H171.733H171.659H171.348L170.815 123.16L166.246 122.758L160.39 122.117ZM170.995 123.505L151.573 141.566L153.845 136.558L160.218 122.511L167.288 123.16L170.995 123.505Z" fill="#5056C9" fill-opacity="0.39"/>
<path d="M96.4635 91.4711L90.7139 87.2842L96.2912 91.3643H96.324L80.8141 94.3444L75.5894 95.346L75.4336 95.7975L75.7371 95.74L96.0206 91.8405L96.2502 91.6352H96.2256L96.4635 91.4711Z" fill="#5056C9" fill-opacity="0.39"/>
<path d="M75.2041 95.2802L76.0489 92.8831L75.2041 95.2802Z" fill="#5056C9" fill-opacity="0.39"/>
<path d="M75.1712 95.7645L75.0481 95.6824L75.0071 95.8384L74.9907 95.8794L75.0809 95.863L75.245 95.8219L75.1712 95.7645Z" fill="#5056C9" fill-opacity="0.39"/>
<path d="M48.0063 71.333L61.3018 74.7153L48.0063 71.333Z" fill="#5056C9" fill-opacity="0.39"/>
<path d="M75.5892 95.3457L80.9615 80.1909L80.9041 80.1416L80.6827 80.429V80.0267L80.6089 80.0185L76.0486 92.8829L75.2038 95.2801L59.9071 81.997L48.1454 71.7761L47.5467 71.6201L47.5303 71.7925L54.1903 77.5556L75.0479 95.6823L75.1709 95.7644L75.2448 95.8219L75.376 95.9532L75.4334 95.7973L75.5892 95.3457Z" fill="#5056C9" fill-opacity="0.39"/>
<path d="M84.1934 76.5459L94.7493 88.7864L84.2098 76.5459H84.1934Z" fill="#5056C9" fill-opacity="0.39"/>
<path d="M97.259 91.6844L96.9556 91.668V91.8239L98.071 92.6367L97.259 91.6844Z" fill="#5056C9" fill-opacity="0.39"/>
<path d="M80.9617 80.191L90.7139 87.2841L96.4635 91.4709L96.5291 91.4381L83.7832 76.6609L83.7668 76.6773L95.5366 90.3052L81.175 79.8298L81.0683 79.9611V80.1171L80.9453 80.0925L80.9043 80.1417L80.9617 80.191Z" fill="#5056C9" fill-opacity="0.39"/>
<path d="M74.0228 108.875L74.0392 108.834V108.777L73.9736 108.818L74.0228 108.875Z" fill="#5056C9" fill-opacity="0.39"/>
<path d="M142.395 3.89971L108.693 2.52051H108.676L142.395 3.89971Z" fill="#5056C9" fill-opacity="0.39"/>
<path d="M139.606 4.18695L121.635 3.4563L139.573 4.18695H139.606Z" fill="#5056C9" fill-opacity="0.39"/>
<path d="M123.612 5.93555L106.831 7.34759L106.847 7.36401L123.612 5.93555Z" fill="#5056C9" fill-opacity="0.39"/>
<path d="M105.945 7.01927H106.002L106.658 5.73037L106.404 6.92076L107.462 3.03764L107.306 2.88165L107.175 2.90628V2.86523H107.118L105.945 7.01927Z" fill="#5056C9" fill-opacity="0.39"/>
<path d="M107.544 2.42181L116.181 0.131348L107.544 2.4054V2.42181Z" fill="#5056C9" fill-opacity="0.39"/>
<path d="M106.043 2.80772L107.118 2.86519H107.175V2.76667L106.978 2.55322L106.043 2.80772Z" fill="#5056C9" fill-opacity="0.39"/>
<path d="M142.394 3.89954L108.676 2.52033H108.692L112.859 1.42025L107.561 2.82409L107.577 2.88155L121.635 3.45622L139.606 4.18687L142.411 3.94059L140.45 0L142.394 3.89954Z" fill="#5056C9" fill-opacity="0.39"/>
<path d="M142.411 3.94059H142.468L142.395 3.59579L142.665 3.80923L142.723 3.68609L140.877 0H140.451L142.411 3.94059Z" fill="#5056C9" fill-opacity="0.39"/>
<path d="M106.462 6.99463L106.298 7.28196L106.249 7.51183L106.298 7.53646L147.562 28.2902L147.865 28.1999L147.808 27.97L133.578 20.8113L106.847 7.36406L106.831 7.34764L123.612 5.9356L142.354 4.35936L142.468 4.15412L142.395 4.09666L142.493 4.03098L142.468 3.94067H142.411L139.606 4.18696H139.573L106.462 6.99463Z" fill="#5056C9" fill-opacity="0.39"/>
<path d="M105.986 7.05213L106.003 7.01929H105.945L105.912 7.03571L105.56 7.06854L105.404 7.07675L105.617 7.18348L105.986 7.05213Z" fill="#5056C9" fill-opacity="0.39"/>
<path d="M148.234 28.6268L148.374 28.7007V28.6268L148.103 28.5447L148.095 28.5611L148.234 28.6268Z" fill="#5056C9" fill-opacity="0.39"/>
<path d="M48.2031 69.9619L47.6454 70.6844L47.6372 70.8485L47.9653 70.5284L48.2031 69.9619Z" fill="#5056C9" fill-opacity="0.39"/>
<path d="M20.3901 64.0264L25.0571 77.1945L20.3901 64.0264Z" fill="#5056C9" fill-opacity="0.39"/>
<path d="M20.1441 63.5339L20.2343 63.5504L19.9719 62.8525L19.9062 63.4683L20.1441 63.5339Z" fill="#5056C9" fill-opacity="0.39"/>
<path d="M50.8443 41.0151L48.9824 58.4358L50.8443 41.0151Z" fill="#5056C9" fill-opacity="0.39"/>
<path d="M51.0571 40.6538L60.7683 43.4615L51.0571 40.6538Z" fill="#5056C9" fill-opacity="0.39"/>
<path d="M48.8101 56.3259L50.4669 40.9001L48.8101 56.3259Z" fill="#5056C9" fill-opacity="0.39"/>
<path d="M59.7351 58.9529L47.9653 70.5284L47.6372 70.8485L59.7351 58.9529Z" fill="#5056C9" fill-opacity="0.39"/>
<path d="M71.792 47.0572H71.8084L60.3584 43.7651L71.7345 47.0325L71.792 47.0572Z" fill="#5056C9" fill-opacity="0.39"/>
<path d="M47.1449 71.694L47.1367 71.9239L47.2762 71.7597L47.2433 71.6448L47.1449 71.694Z" fill="#5056C9" fill-opacity="0.39"/>
<path d="M40.8295 37.1318H40.8213L48.1375 39.6522L40.8459 37.1318H40.8295Z" fill="#5056C9" fill-opacity="0.39"/>
<path d="M47.3334 72.0061L47.4646 72.5069L47.5302 71.7926L47.5466 71.6202L47.4072 71.5874L47.2432 71.6449L47.276 71.7598L47.2924 71.8337L47.3334 71.9897V72.0061Z" fill="#5056C9" fill-opacity="0.39"/>
<path d="M38.6312 37.0743L41.3379 48.0013L47.0875 71.103L47.1449 71.2589L47.2761 71.2179L47.637 70.8485L47.6452 70.6843L48.9821 58.4356L50.844 41.0149L50.7291 40.9821L50.6799 41.0231L50.5651 40.9246L50.4667 40.9L48.8099 56.3258L47.3007 70.2574L38.9839 36.9102L38.6476 36.8034L38.746 36.4094L38.7871 36.4258L38.7542 36.4094L38.6886 36.3847L38.6312 36.3683L38.418 36.2944L38.459 36.5161L38.6312 37.0743Z" fill="#5056C9" fill-opacity="0.39"/>
<path d="M51.3035 41.1381L60.3667 43.7651L71.8084 47.0489L71.9068 46.9504L71.7674 46.7616H72.0873L72.1857 46.6631L72.2841 46.7534H72.3989V46.5482L74.6135 17.8147L74.4577 17.6177L50.959 40.7522L51.3035 41.1381ZM51.0574 40.6537L74.2198 17.8804L73.7933 23.6271L72.0135 46.6631L60.7439 43.4778L51.0328 40.6701L51.0574 40.6537Z" fill="#5056C9" fill-opacity="0.39"/>
<path d="M74.4741 17.1498L74.6956 17.0841V17.0513L74.7038 16.8542L74.6382 16.9199L74.4659 17.0923L74.4331 17.1416L74.4741 17.1498Z" fill="#5056C9" fill-opacity="0.39"/>
<path d="M50.3271 40.8425V40.8507L50.4666 40.9L50.565 40.9246L50.3271 40.8425Z" fill="#5056C9" fill-opacity="0.39"/>
<path d="M39.0334 36.4668L38.7874 36.4258H38.7464L38.6479 36.8116L38.9842 36.9266L50.3276 40.8589L50.5736 40.941H50.5244L47.908 38.0923L48.0966 37.961L48.154 37.9035L47.7111 37.8296L39.0334 36.4668ZM48.1951 38.314L49.9995 40.2925L48.1376 39.6521L40.8215 37.1236L42.5193 37.3863L48.1048 38.2483L48.1951 38.314Z" fill="#5056C9" fill-opacity="0.39"/>
<path d="M50.8438 41.0149L51.3524 41.1955L51.3031 41.138L50.9587 40.7522L50.729 40.9821L50.8438 41.0149Z" fill="#5056C9" fill-opacity="0.39"/>
<path d="M63.7375 25.5647L48.2522 37.7723L48.1538 37.8462L48.0963 37.9037L47.9077 38.035L50.5241 40.8838H50.5734L50.6882 40.9823H50.7292L50.9589 40.7524L74.4657 17.6425L74.3673 17.5358L74.0474 17.4373L73.949 17.5276L73.219 18.1022L63.7375 25.5647ZM71.7591 19.7441L50.6882 40.4651L48.4983 38.0761L51.0573 36.0894L71.7591 19.7441Z" fill="#5056C9" fill-opacity="0.39"/>
<path d="M119.585 61.5306L119.56 61.5142L119.872 68.7386L119.585 61.5306Z" fill="#5056C9" fill-opacity="0.39"/>
<path d="M119.158 61.4897L119.445 67.8686L119.158 61.4897Z" fill="#5056C9" fill-opacity="0.39"/>
<path d="M119.142 60.5457L119.29 60.7016L119.142 60.5457Z" fill="#5056C9" fill-opacity="0.39"/>
<path d="M126.917 68.6567L127.164 68.5828L127.049 68.4514L126.917 68.6567Z" fill="#5056C9" fill-opacity="0.39"/>
<path d="M126.663 68.6238L119.585 61.5308L126.434 68.4104L119.946 70.5038L119.979 70.7419L120.003 70.9061L120.274 70.8158L126.671 68.7388L126.729 68.7141L126.663 68.6238Z" fill="#5056C9" fill-opacity="0.39"/>
<path d="M137.514 51.5151L129.796 55.4721L137.514 51.5151Z" fill="#5056C9" fill-opacity="0.39"/>
<path d="M138.039 51.7037L137.383 52.0485L128.722 65.2002L126.778 68.1639L126.704 68.09L119.691 61.1037L119.56 61.1611V61.5142L119.585 61.5306L126.663 68.6236L126.729 68.7139L126.835 68.796L126.893 68.7139L126.917 68.6565L127.048 68.4512L138.097 51.6709L138.039 51.7037Z" fill="#5056C9" fill-opacity="0.39"/>
<path d="M137.958 51.3016L138.245 51.4411L138.474 51.0717L138.532 50.9978L138.4 51.0717L138.04 51.2441L137.958 51.3016Z" fill="#5056C9" fill-opacity="0.39"/>
<path d="M126.844 45.522L126.778 45.4809L126.721 45.4563L126.671 45.5138L126.844 45.522Z" fill="#5056C9" fill-opacity="0.39"/>
<path d="M138.244 51.4411L137.957 51.3016L137.875 51.2523L137.473 51.0389L136.423 50.497L127.336 45.7683L127.081 45.637L126.966 45.8094L119.585 60.997L119.634 61.0463L119.519 61.112V61.1612L119.65 61.1038L137.342 52.0733L137.998 51.7285H138.056L138.187 51.6546H138.244L138.334 51.5971L138.244 51.4411ZM119.798 60.603L126.901 45.9818L137.563 51.515L129.845 55.472L119.798 60.603Z" fill="#5056C9" fill-opacity="0.39"/>
<path d="M99.7607 42.1316L102.623 44.9228L99.7607 42.1316Z" fill="#5056C9" fill-opacity="0.39"/>
<path d="M119.347 60.7589L119.519 60.5865V60.956H119.585L126.966 45.7683L127.081 45.5959V45.5138H126.835H126.671L126.105 45.407L116.607 43.9786L99.9491 41.4583L99.7769 41.5978L119.347 60.7589ZM119.142 60.5455L100.113 41.8359H100.072L118.641 44.6436L126.359 45.8586H126.524L126.45 45.9981L119.289 60.7179L119.142 60.5455Z" fill="#5056C9" fill-opacity="0.39"/>
<path d="M125.54 158.568L129.181 166.441L125.54 158.56V158.568Z" fill="#5056C9" fill-opacity="0.39"/>
<path d="M125.441 157.911H125.474L125.589 157.714V157.681L125.441 157.911Z" fill="#5056C9" fill-opacity="0.39"/>
<path d="M97.3823 91.2903L103.78 91.4955L97.3823 91.2903Z" fill="#5056C9" fill-opacity="0.39"/>
<path d="M109.734 92.4724L97.1934 114.909L109.734 92.4888V92.4724Z" fill="#5056C9" fill-opacity="0.39"/>
<path d="M122.939 85.8228L122.669 85.6914L110.193 91.9389L122.505 85.7735L122.57 85.7653L122.693 86.2086L135.537 127.191L136.095 127.946L136.128 127.921L136.177 128.053L136.21 128.036L124.555 90.806L122.939 85.6914V85.675V85.6504H122.898L122.939 85.8228Z" fill="#5056C9" fill-opacity="0.39"/>
<path d="M107.036 89.7059L109.291 91.6844L103.78 91.4956L97.3822 91.2904L103.624 86.7505L96.9557 91.5941L96.9229 91.668L109.496 92.0703L109.579 91.9389L107.036 89.7059Z" fill="#5056C9" fill-opacity="0.39"/>
<path d="M97.3247 90.8471L99.4572 89.3037L97.3247 90.8471Z" fill="#5056C9" fill-opacity="0.39"/>
<path d="M96.5783 91.4955L96.5291 91.438L96.4634 91.4708L96.2256 91.635H96.2502L96.5127 91.6514L96.5783 91.4955Z" fill="#5056C9" fill-opacity="0.39"/>
<path d="M110.243 92.0949H110.399L110.194 91.939L110.136 91.9718L110.243 92.0949Z" fill="#5056C9" fill-opacity="0.39"/>
<path d="M103.312 86.496L103.435 86.3892V86.3071L103.156 86.3236L103.312 86.496Z" fill="#5056C9" fill-opacity="0.39"/>
<path d="M103.837 86.2908L109.062 86.0034L103.837 86.2908Z" fill="#5056C9" fill-opacity="0.39"/>
<path d="M122.923 85.2646H122.808L122.825 85.3303L123.112 85.478L123.382 85.3221L123.596 85.2153L122.923 85.2646Z" fill="#5056C9" fill-opacity="0.39"/>
<path d="M105.24 86.6192L121.718 85.7326L109.98 91.5778L110.022 91.7994L110.136 91.9718L110.194 91.939L122.669 85.6915L122.62 85.6587L105.24 86.6192Z" fill="#5056C9" fill-opacity="0.39"/>
<path d="M109.538 91.3643L104.141 86.6685L103.698 86.6931L103.624 86.7506L107.036 89.706L109.579 91.939L109.652 91.8569L109.538 91.3643Z" fill="#5056C9" fill-opacity="0.39"/>
<path d="M159.487 73.8533L162.366 75.1011L159.487 73.8533Z" fill="#5056C9" fill-opacity="0.39"/>
<path d="M155.354 109.507L156.379 94.3361L155.305 110.008L155.469 109.893L164.614 103.818L179 94.3032V93.8435L168.977 100.469L155.354 109.507Z" fill="#5056C9" fill-opacity="0.39"/>
<path d="M154.895 110.263L155.091 110.156L154.977 110.025L154.919 109.967V109.983L154.895 110.263Z" fill="#5056C9" fill-opacity="0.39"/>
<path d="M133.315 86.3483L132.962 86.5371L132.971 86.5782L133.233 86.8409L148.39 102.989L154.804 109.852L154.919 109.967L154.977 110.025L155.091 110.156L155.108 110.164L155.296 110.353L155.305 110.279V110.008L156.379 94.3362L157.798 73.5414L157.716 73.5085L157.609 73.6645L157.544 73.5414L157.38 73.6235L154.952 109.425L133.315 86.3483Z" fill="#5056C9" fill-opacity="0.39"/>
<path d="M147.004 78.6559L156.986 73.3525L147.004 78.6559Z" fill="#5056C9" fill-opacity="0.39"/>
<path d="M132.741 86.1922L132.659 86.2332L132.716 86.2743L132.856 86.1511L132.741 86.1922Z" fill="#5056C9" fill-opacity="0.39"/>
<path d="M179 77.9828L163.695 74.74L179 77.9828Z" fill="#5056C9" fill-opacity="0.39"/>
<path d="M159.487 73.8533L157.724 73.4839L157.716 73.5085L157.798 73.5414L179 82.7935V82.3502L162.366 75.1012L159.487 73.8533Z" fill="#5056C9" fill-opacity="0.39"/>
<path d="M158.183 73.1635L158.224 73.1553L158.159 73.1389L158.109 73.1635H158.183Z" fill="#5056C9" fill-opacity="0.39"/>
<path d="M148.694 72.1375L140.492 79.3865L133.11 85.9541L132.897 86.143L132.749 86.2661L132.552 86.4549L131.675 87.2266L132.864 86.6109H132.921L132.995 86.5534L133.348 86.3646L157.191 73.7383L157.347 73.4264L148.694 72.1375ZM147.004 78.6558L134.381 85.3466L149.145 72.2113L149.448 72.2606L156.953 73.3607L147.004 78.6558Z" fill="#5056C9" fill-opacity="0.39"/>
<path d="M149.063 71.7927L149.055 71.8091L149.12 71.7927H149.063Z" fill="#5056C9" fill-opacity="0.39"/>
<path d="M158.11 73.1635L158.159 73.1389L171.7 64.1084L157.872 73.3113L157.987 73.5083L157.724 73.4673V73.4837L159.488 73.8531L163.695 74.7398L179 77.9826V77.5803L158.183 73.1635H158.11Z" fill="#5056C9" fill-opacity="0.39"/>
<path d="M156.592 70.988L157.601 72.827L156.666 71.1194L156.592 70.988Z" fill="#5056C9" fill-opacity="0.39"/>
<path d="M157.601 73.2375L157.429 73.6069H157.281L146.044 71.965L147.685 71.8172L156.625 70.5283L156.322 70.9881L157.601 73.2375ZM149.038 72.006L157.142 73.1964L155.936 71.0127L149.038 72.006Z" fill="#5056C9" fill-opacity="0.39"/>
<path d="M157.724 73.4675L157.987 73.5086L157.872 73.3115L157.765 73.3854L157.724 73.4675Z" fill="#5056C9" fill-opacity="0.39"/>
<path d="M158.126 72.6628V72.6546L162.383 64.3137L158.126 72.6628Z" fill="#5056C9" fill-opacity="0.39"/>
<path d="M167.206 53.9204L156.264 70.7746L156.207 70.8731L156.141 70.9716L157.388 73.2539L157.445 73.1636L167.37 53.7397L167.288 53.8383L167.206 53.9204ZM165.631 57.0892L157.601 72.827L156.6 70.988L161.3 63.7636L165.639 57.081L165.631 57.0892Z" fill="#5056C9" fill-opacity="0.39"/>
<path d="M157.716 73.5084L157.724 73.4838V73.4673L157.765 73.3853L157.543 73.5412L157.609 73.6644L157.716 73.5084Z" fill="#5056C9" fill-opacity="0.39"/>
<path d="M167.837 53.6823L167.419 53.5674L167.345 53.7398L157.437 73.1636L157.379 73.2539L157.314 73.4099L157.15 73.7301L157.092 73.8286L157.379 73.6233L157.543 73.5412L157.765 73.3853L157.871 73.3114L171.7 64.1085L179 59.2812V58.7969L158.126 72.6546V72.6628L162.383 64.3137L167.615 54.0353L167.903 54.0928L179 56.8594V56.4571L167.837 53.6823Z" fill="#5056C9" fill-opacity="0.39"/>
<path d="M177.155 41.9016L178.844 41.1545L177.155 41.9016Z" fill="#5056C9" fill-opacity="0.39"/>
<path d="M174.046 43.6912L173.972 43.5517L173.907 43.4039L174.136 43.839L175.293 45.9981L179 52.8777V52.0486L174.481 43.6338L174.423 43.5517L179 41.5239L174.046 43.6912Z" fill="#5056C9" fill-opacity="0.39"/>
<path d="M178.844 41.1547L178.885 41.1382L178.828 41.1218L178.754 41.1382L178.844 41.1547Z" fill="#5056C9" fill-opacity="0.39"/>
<path d="M169.592 35.6377L169.699 35.6705L169.65 35.5638L169.51 35.4817L169.592 35.6377Z" fill="#5056C9" fill-opacity="0.39"/>
<path d="M170.839 36.2288L179 40.7522L170.855 36.2288H170.839Z" fill="#5056C9" fill-opacity="0.39"/>
<path d="M178.787 41.1136L178.828 41.1218L178.885 41.1383L178.844 41.1547L177.155 41.9018L174.218 43.1907L174.161 43.0593L170.544 36.4999L169.953 36.1961L169.896 36.1797L169.937 36.27L173.792 43.2645H173.833L173.907 43.4041L173.972 43.5519L174.046 43.6914L179 41.5241V41.2121L178.787 41.1136Z" fill="#5056C9" fill-opacity="0.39"/>
<path d="M170.281 36.196L170.322 36.311L169.994 36.196H169.953L170.544 36.4998L178.787 41.1136L179 41.2121V40.7523L170.839 36.2289H170.855L179 36.5244L170.281 36.196Z" fill="#5056C9" fill-opacity="0.39"/>
<path d="M96.7505 91.1261L103.665 76.4802H103.657L96.7505 91.1261Z" fill="#5056C9" fill-opacity="0.39"/>
<path d="M104.272 75.1831L104.141 75.4458L104.182 75.7331L104.255 75.6593L104.272 75.1831Z" fill="#5056C9" fill-opacity="0.39"/>
<path d="M104.083 79.9858L103.837 86.2908L104.083 79.9858Z" fill="#5056C9" fill-opacity="0.39"/>
<path d="M96.6523 91.5941L96.5785 91.4956L96.5129 91.6516L96.2832 92.0867L96.5129 91.9389L96.7671 91.7255L96.6523 91.5941Z" fill="#5056C9" fill-opacity="0.39"/>
<path d="M103.427 86.7094L103.435 86.5124L103.714 79.5835L103.435 86.3071V86.3892L103.312 86.4959L99.4572 89.3036L97.3247 90.847L99.531 86.1511L96.9556 91.5941L103.624 86.7504L103.698 86.693L103.427 86.7094Z" fill="#5056C9" fill-opacity="0.39"/>
<path d="M83.5209 76.3654L83.5619 76.3079L83.5455 76.1602H83.3486L83.5209 76.3654Z" fill="#5056C9" fill-opacity="0.39"/>
<path d="M103.484 75.9631L100.187 75.9878L103.484 75.9631Z" fill="#5056C9" fill-opacity="0.39"/>
<path d="M99.531 86.1511L103.812 77.1206L103.837 76.431L103.665 76.4802L96.7505 91.1261L94.7492 88.7864L84.1933 76.5459H84.2097L103.542 76.3489H103.558L83.8734 76.5459L83.7832 76.6608L96.5291 91.438L96.5783 91.4955L96.6521 91.594L96.7669 91.7254L96.8408 91.8403L96.9228 91.6679L96.9556 91.594L99.531 86.1511Z" fill="#5056C9" fill-opacity="0.39"/>
<path d="M111.76 79.7888L122.39 85.1168L111.76 79.7888Z" fill="#5056C9" fill-opacity="0.39"/>
<path d="M122.825 85.3303L122.899 85.6505H122.94L123.423 85.6177L123.112 85.4781L122.825 85.3303Z" fill="#5056C9" fill-opacity="0.39"/>
<path d="M103.886 76.4229L103.837 76.4311L103.812 77.1207L103.714 79.5835L103.435 86.5124L103.427 86.7094L103.697 86.693L104.14 86.6684L105.239 86.6191L122.619 85.6586L121.906 85.3056L109.062 86.0034L103.837 86.2907L104.083 79.9858L104.214 76.546L104.05 76.4229L103.894 76.5624L103.886 76.4229Z" fill="#5056C9" fill-opacity="0.39"/>
<path d="M104.797 75.6923L104.846 75.6594L104.797 75.6923Z" fill="#5056C9" fill-opacity="0.39"/>
<path d="M122.62 85.6585L122.669 85.6913L122.939 85.8227L122.898 85.6503L122.825 85.3301L122.808 85.2644L120.003 70.9059L119.979 70.7417V70.9059L119.831 70.9634L114.016 72.9336L119.601 71.029H119.634L121.324 79.6409L122.39 85.1166L111.76 79.7886L104.559 76.1764L104.428 76.2175L104.6 76.3488H104.255L104.272 76.4802L121.906 85.3055L122.62 85.6585Z" fill="#5056C9" fill-opacity="0.39"/>
<path d="M103.296 76.6034L103.657 76.4802H103.665L103.837 76.431L103.886 76.4228V76.3489H103.558H103.542L103.296 76.6034Z" fill="#5056C9" fill-opacity="0.39"/>
<path d="M119.085 61.0465V61.03L108.594 71.3577L119.085 61.0465Z" fill="#5056C9" fill-opacity="0.39"/>
<path d="M119.519 60.5867L119.347 60.7591L119.528 60.9561L119.519 60.5867Z" fill="#5056C9" fill-opacity="0.39"/>
<path d="M119.47 61.1695L107.036 73.451L119.158 61.4897L119.445 67.8685L119.56 70.6187L119.527 70.6269L104.846 75.6594L104.797 75.6922L104.329 76.1355L104.428 76.2176L104.559 76.1766L114.016 72.9338L119.831 70.9635L119.978 70.9061V70.7419L119.946 70.5038L119.872 68.7387L119.56 61.5143V61.1613L119.527 61.1121L119.47 61.1695Z" fill="#5056C9" fill-opacity="0.39"/>
<path d="M99.375 41.9592V41.9756L102.147 63.3123L99.375 41.9592Z" fill="#5056C9" fill-opacity="0.39"/>
<path d="M103.886 76.4228L103.894 76.5623L104.05 76.4228L103.968 76.3489H103.886V76.4228Z" fill="#5056C9" fill-opacity="0.39"/>
<path d="M104.329 76.1355L104.797 75.6922L107.036 73.451L119.478 61.1367L119.536 61.0792L119.65 61.0135L119.601 60.9643H119.536L119.347 60.7672L99.7769 41.5979L99.7031 41.6554L99.7769 42.0166L104.214 76.0616L104.329 76.1355ZM104.14 75.4459L99.7605 42.1315L102.623 44.9228L119.084 61.0299L108.594 71.3904L104.255 75.6922L104.181 75.7661L104.14 75.4459Z" fill="#5056C9" fill-opacity="0.39"/>
<path d="M80.9046 80.1418L80.9456 80.0925L80.8143 80.0597L80.6831 80.0269V80.4291L80.9046 80.1418Z" fill="#5056C9" fill-opacity="0.39"/>
<path d="M81.175 79.8298L83.7668 76.6773L83.7832 76.6609L83.8734 76.546H83.5946L83.5782 76.39L81.0684 59.7V59.7656L83.5454 76.1601L83.5618 76.3079L83.5208 76.3653L81.0684 79.3126V79.9611L81.175 79.8298Z" fill="#5056C9" fill-opacity="0.39"/>
<path d="M46.7923 71.4233L46.7759 71.4315L46.9891 71.4889L47.2434 71.2344L47.2762 71.218L47.145 71.2591L46.7923 71.4233Z" fill="#5056C9" fill-opacity="0.39"/>
<path d="M47.5467 71.6203L48.1536 71.7763L80.6088 79.9858H80.6827H80.8139H80.9533H81.0682V59.7L80.7155 57.4342L47.4072 71.5875L47.5467 71.6203ZM48.006 71.333L80.6827 57.3767V79.6L61.3014 74.6742L48.006 71.2919V71.333Z" fill="#5056C9" fill-opacity="0.39"/>
<path d="M81.1831 57.1057L88.5485 63.1479L81.1831 57.1057Z" fill="#5056C9" fill-opacity="0.39"/>
<path d="M104.428 76.2175L104.329 76.1354L104.214 76.0615L104.255 76.3489H104.6L104.428 76.2175Z" fill="#5056C9" fill-opacity="0.39"/>
<path d="M83.5783 76.39L83.5947 76.546H83.8736L103.558 76.3489H103.886H103.968L103.911 76.3079L103.485 75.9631L100.187 75.9877L83.9474 76.1601L81.1751 57.7625L80.847 57.3931L80.7568 57.4587L80.7404 57.3931H80.7158L81.0685 59.6999L83.5783 76.39Z" fill="#5056C9" fill-opacity="0.39"/>
<path d="M87.0885 52.1882L99.3751 41.9755V41.9591L102.147 63.3122L103.78 75.6922L88.5485 63.148L81.1831 57.1057L81.1585 57.1304L81.1995 57.1878L81.1011 57.2207L81.1995 57.6312L103.484 75.9631L103.911 76.3079L103.968 76.3489L104.05 76.4228L104.214 76.546L104.296 76.6034L104.272 76.4803L104.255 76.3489L104.214 76.0616L99.7442 42.0002L99.6457 41.9263L99.5145 42.8457L99.3751 41.9427L87.0885 52.1882Z" fill="#5056C9" fill-opacity="0.39"/>
<path d="M83.4961 54.651L98.7272 41.9836H98.7026L83.4961 54.651Z" fill="#5056C9" fill-opacity="0.39"/>
<path d="M72.5791 47.1475L80.4858 56.3586L72.5955 47.1475H72.5791Z" fill="#5056C9" fill-opacity="0.39"/>
<path d="M72.2842 46.7617L72.1858 46.6714L72.0874 46.7699L72.2842 46.7617Z" fill="#5056C9" fill-opacity="0.39"/>
<path d="M46.9893 71.4889L46.5054 71.9733L46.7924 71.8665L47.1451 71.6941L47.2435 71.6449L47.4076 71.5874L80.7158 57.3931H80.7404L80.683 57.2043L78.042 54.0928L80.5436 57.0319L48.2524 70.7993L72.1694 47.2625L71.9069 46.9587L71.8085 47.0573H71.7921L71.6937 47.1722L59.7352 58.9529L47.6372 70.8486L47.2764 71.218L47.2435 71.2344L46.9893 71.4889Z" fill="#5056C9" fill-opacity="0.39"/>
<path d="M81.1995 57.1878L81.1585 57.1304L81.1011 57.1878V57.2207L81.1995 57.1878Z" fill="#5056C9" fill-opacity="0.39"/>
<path d="M80.9945 56.7446L79.4033 50.1277L80.9945 56.7446Z" fill="#5056C9" fill-opacity="0.39"/>
<path d="M81.1748 57.7624L81.2568 57.8609L81.1994 57.6311L81.1009 57.2206V57.1877L80.8467 57.393L81.1748 57.7624Z" fill="#5056C9" fill-opacity="0.39"/>
<path d="M72.169 47.2626L78.0416 54.093L80.6826 57.2044V57.1633L80.0511 54.5527L80.4858 56.3588L72.5791 47.1477H72.5955L77.9268 46.9753H78.2385L78.1646 46.614L78.3533 46.573H78.3041L76.7047 46.614L72.3986 46.7618H72.2838L72.087 46.77H71.7671L71.9065 46.9588L72.169 47.2626Z" fill="#5056C9" fill-opacity="0.39"/>
<path d="M99.7769 41.5979L99.9492 41.4583L100.285 41.1792L99.7277 41.327L99.7031 41.5568V41.6554L99.7769 41.5979Z" fill="#5056C9" fill-opacity="0.39"/>
<path d="M99.0309 41.4993L85.6535 44.7831L78.3537 46.5728H78.165L78.2389 46.934L80.0515 54.5032L80.6831 57.1138L80.7405 57.3027V57.3683L80.8307 57.3027L81.0849 57.0974L81.1424 57.04L87.0478 52.1142L99.3508 41.8687L99.2933 41.6388L99.0309 41.4993ZM98.7274 41.9836L83.4963 54.651L80.9947 56.7444L79.4035 50.1275L78.649 46.9012L97.7104 42.2299L98.7028 41.9836H98.7274Z" fill="#5056C9" fill-opacity="0.39"/>
<path d="M99.0306 41.4994L99.3177 41.7129L99.2849 41.6144L96.4798 25.696L93.0595 30.1046L96.4798 25.7043L99.2192 41.1382L89.6557 34.5049L89.4097 34.8169L96.3403 39.6523L99.0306 41.4994Z" fill="#5056C9" fill-opacity="0.39"/>
<path d="M96.8242 25.4167L98.0709 32.4277L96.8242 25.4167Z" fill="#5056C9" fill-opacity="0.39"/>
<path d="M89.2214 34.6937V34.6608L89.0983 34.5459L89.0737 34.5787L89.2214 34.6937Z" fill="#5056C9" fill-opacity="0.39"/>
<path d="M99.7772 42.0166L99.7034 41.6554V41.5569L99.646 41.9263L99.7444 42.0002L99.7772 42.0166Z" fill="#5056C9" fill-opacity="0.39"/>
<path d="M99.2851 41.6144L99.3179 41.7129L99.3753 41.9428L99.5147 42.8459L99.6459 41.9264L99.7034 41.557L99.728 41.3271L101.91 25.655V25.6058L101.926 25.4334L101.967 25.261L101.926 25.417H101.532L99.9494 36.9021L99.4737 40.3255V40.3091L98.0712 32.4279L96.8245 25.417H96.7096L96.6932 25.4662L96.6522 25.4498L96.48 25.6961L99.2851 41.6144Z" fill="#5056C9" fill-opacity="0.39"/>
<path d="M75.0975 17.3716H75.0811L96.5128 24.9901V24.9736L75.0975 17.3716Z" fill="#5056C9" fill-opacity="0.39"/>
<path d="M74.392 17.1664L74.474 17.1499L74.433 17.1417L73.8179 16.9119L74.1213 17.2567L74.392 17.1664Z" fill="#5056C9" fill-opacity="0.39"/>
<path d="M74.6215 17.8394L89.0733 34.5048L89.0979 34.5458L89.221 34.6608V34.6936L89.3522 34.8332L89.3686 34.8496L89.4096 34.8168L89.6557 34.5048L90.3693 33.5771L93.0595 30.1045L96.4797 25.6959L96.652 25.4497L96.5699 25.4168H96.2665L96.2911 25.3347L79.8871 19.4895L96.2665 25.3183L89.3522 34.2175L81.4373 25.0884L75.0972 17.7984L74.3672 17.5356L74.4656 17.6424L74.6215 17.8394Z" fill="#5056C9" fill-opacity="0.39"/>
<path d="M106.002 7.01913L105.986 7.05196L106.404 6.92061L106.658 5.73022L106.002 7.01913Z" fill="#5056C9" fill-opacity="0.39"/>
<path d="M96.8243 25.4169H101.532H101.926L101.967 25.2609L106.248 7.56932V7.51185L106.298 7.28198L106.289 7.30661L99.7032 19.7769L105.559 8.72686V8.71045L101.622 25.031H101.204H96.9227L96.7095 25.4169H96.8243Z" fill="#5056C9" fill-opacity="0.39"/>
<path d="M96.5127 24.99L105.699 7.56934L96.5127 24.9736V24.99Z" fill="#5056C9" fill-opacity="0.39"/>
<path d="M96.5701 25.4168H96.5291L96.2912 25.3347L96.2666 25.4168H96.5701Z" fill="#5056C9" fill-opacity="0.39"/>
<path d="M74.3673 17.5358L75.0973 17.7985L79.8872 19.4897L96.2912 25.3349L96.5208 25.417H96.5619H96.6439H96.6849V25.3677L96.8981 24.9819L99.6786 19.7277L106.24 7.25743L106.396 6.9701L106.453 6.87158H106.339L105.92 7.00293L105.551 7.13429L75.45 16.838L74.6954 17.0843L74.4739 17.1499H74.3919L74.1212 17.232L73.8506 17.3388L74.0474 17.4209L74.3673 17.5358ZM105.699 7.56939L96.5126 24.9901L75.0809 17.3716L95.7499 10.7465L105.699 7.56939Z" fill="#5056C9" fill-opacity="0.39"/>
<path d="M106.298 1.87999L105.912 1.49414V1.50235L106.978 2.55317L107.175 2.76662V2.67632L106.978 0H106.363L106.298 1.87999Z" fill="#5056C9" fill-opacity="0.39"/>
<path d="M107.462 3.05409L107.602 3.17723L107.577 2.88169L107.561 2.82422L107.307 2.88169L107.462 3.03767V3.05409Z" fill="#5056C9" fill-opacity="0.39"/>
<path d="M107.175 2.67632V2.76662V2.86514V2.90618L107.307 2.88155L107.561 2.82409L112.859 1.42025L118.199 0H116.665L116.181 0.131353L107.544 2.42182V2.4054L107.372 0H106.979L107.175 2.67632Z" fill="#5056C9" fill-opacity="0.39"/>
<path d="M105.912 1.49414L106.298 1.87999L106.363 0H105.986L105.929 0.944099V0.960518L105.912 0.944099L104.985 0H104.428L105.912 1.49414Z" fill="#5056C9" fill-opacity="0.39"/>
<path d="M118.256 136.533L120.881 142.748L118.256 136.533Z" fill="#5056C9" fill-opacity="0.39"/>
<path d="M107.364 144.225L117.469 136.262L107.364 144.225Z" fill="#5056C9" fill-opacity="0.39"/>
<path d="M123.842 150.219L123.94 150.202H123.973V150.186L123.957 150.128L123.907 150.046L123.842 150.219Z" fill="#5056C9" fill-opacity="0.39"/>
<path d="M117.567 135.885L117.641 135.901V135.876L117.542 135.827L117.567 135.885Z" fill="#5056C9" fill-opacity="0.39"/>
<path d="M127.959 139.784V139.768L118.412 136.164L127.959 139.784Z" fill="#5056C9" fill-opacity="0.39"/>
<path d="M123.908 150.046L124.137 149.586L128.205 140.671L128.091 140.26L127.976 140.211L126.344 143.758L123.711 149.545V149.529L120.881 142.748L118.256 136.533L127.459 140.014L117.912 136.377L117.813 136.451L117.83 136.5L123.424 149.874L123.579 150.243L123.612 150.301L123.694 150.53L123.842 150.219L123.908 150.046Z" fill="#5056C9" fill-opacity="0.39"/>
<path d="M135.792 128.225V128.209L135.718 128.233L118.059 135.885V135.901L135.792 128.225Z" fill="#5056C9" fill-opacity="0.39"/>
<path d="M136.251 128.151L136.267 128.192L136.366 128.266L136.555 127.995L136.62 127.847L136.267 128.003L136.21 128.036L136.177 128.053L136.251 128.151Z" fill="#5056C9" fill-opacity="0.39"/>
<path d="M118.412 136.164L127.451 132.264L118.125 136.287L118.141 136.451L117.912 136.377L127.459 140.014L127.975 140.211L128.09 140.26L127.959 140.203L128.033 140.055L127.959 139.784L118.412 136.164Z" fill="#5056C9" fill-opacity="0.39"/>
<path d="M110.186 92.7107L113.032 108.333L110.186 92.7107Z" fill="#5056C9" fill-opacity="0.39"/>
<path d="M109.981 91.5776L109.923 91.3066L109.825 91.5119L110.022 91.7992L109.981 91.5776Z" fill="#5056C9" fill-opacity="0.39"/>
<path d="M118.141 136.451L118.125 136.287L117.912 136.377L118.141 136.451Z" fill="#5056C9" fill-opacity="0.39"/>
<path d="M135.538 127.215L110.259 92.136L110.161 92.0046L110.038 91.8404L109.841 91.5531L109.497 91.1016L109.554 91.4053L109.669 91.8897L117.715 136.221V136.344L117.756 136.476H117.813L117.912 136.41L118.125 136.32L127.451 132.297L135.554 128.783L135.882 128.307L135.407 127.38L136.071 128.028V127.979L135.538 127.215ZM118.059 135.909L113.032 108.333L110.186 92.7353L135.768 128.201L118.035 135.876L118.059 135.909Z" fill="#5056C9" fill-opacity="0.39"/>
<path d="M136.251 128.151V128.176L136.268 128.192L136.251 128.151Z" fill="#5056C9" fill-opacity="0.39"/>
<path d="M2.90332 2.76662V2.78304L4.43709 0L2.91972 2.76662H2.90332Z" fill="#5056C9" fill-opacity="0.39"/>
<path d="M18.4298 5.70564L12.1717 0H12.1553L18.4298 5.70564Z" fill="#5056C9" fill-opacity="0.39"/>
<path d="M2.49344 4.53166L9.7768 5.28694L17.946 6.12431L18.0854 6.13252L18.3315 6.16536L18.2987 6.12431L17.8311 5.70562L14.862 5.40187L2.7313 4.15402H2.61647L2.7313 3.92415L4.22406 1.20679L2.39502 4.53166H2.49344Z" fill="#5056C9" fill-opacity="0.39"/>
<path d="M1.97656 4.48246H2.05038L2.10779 4.24438L1.97656 4.48246Z" fill="#5056C9" fill-opacity="0.39"/>
<path d="M19.004 6.22285L18.7334 5.97656L18.4873 6.19001L19.004 6.22285Z" fill="#5056C9" fill-opacity="0.39"/>
<path d="M18.2988 6.12433L18.3316 6.16538L18.3972 6.23105L18.4874 6.19001L18.7335 5.97656L18.7991 5.94372L18.9549 5.80416H18.9713L26.2301 0H25.6149L18.43 5.70564L12.1555 0H11.5649L17.8313 5.70564L18.2988 6.12433Z" fill="#5056C9" fill-opacity="0.39"/>
<path d="M2.13265 4.17045L2.10804 4.24434L2.05063 4.48242L1.9194 4.95857L1.67334 5.8452L2.03423 5.18844L2.39511 4.53168L4.22416 1.2068L4.88031 0H4.43741L2.90364 2.78304V2.76662L3.65002 0H3.24812L2.30489 3.49727L2.13265 4.17045Z" fill="#5056C9" fill-opacity="0.39"/>
<path d="M142.583 4.44139L142.526 4.21152L142.469 4.15405L142.354 4.35929L142.132 4.74514L142.583 4.44139Z" fill="#5056C9" fill-opacity="0.39"/>
<path d="M148.44 0L144.97 2.33972L148.44 0Z" fill="#5056C9" fill-opacity="0.39"/>
<path d="M142.665 3.80923L142.739 3.8667L143.297 3.49727L145.216 0H144.781L142.722 3.68609L142.665 3.80923Z" fill="#5056C9" fill-opacity="0.39"/>
<path d="M146.848 148.01L149.005 149.718L146.848 148.01Z" fill="#5056C9" fill-opacity="0.39"/>
<path d="M163.769 161.293L163.9 161.507L163.982 161.466L163.826 161.351L163.769 161.293Z" fill="#5056C9" fill-opacity="0.39"/>
<path d="M126.114 157.615L145.274 148.027H145.257L126.114 157.615Z" fill="#5056C9" fill-opacity="0.39"/>
<path d="M125.285 158.026L125.326 158.108L125.416 157.952L125.285 158.026Z" fill="#5056C9" fill-opacity="0.39"/>
<path d="M147.709 145.802L150.728 142.395H150.711L147.709 145.802Z" fill="#5056C9" fill-opacity="0.39"/>
<path d="M151.154 142.247L151.023 142.05L150.982 142.091L151.154 142.247Z" fill="#5056C9" fill-opacity="0.39"/>
<path d="M163.769 161.293L151.253 142.411V142.395L151.138 142.51L148.292 145.728L150.966 142.707H150.982L162.768 160.505L149.005 149.718L146.848 148.01L146.561 147.985L146.643 148.15L146.291 148.01L146.25 148.035L146.299 148.084L163.572 161.663L163.736 161.778L163.785 161.827L164.425 162.344L164.384 162.254L163.999 161.663L163.9 161.507L163.769 161.293Z" fill="#5056C9" fill-opacity="0.39"/>
<path d="M147.193 147.526L146.7 147.551L146.561 147.698L146.7 147.748L147.193 147.526Z" fill="#5056C9" fill-opacity="0.39"/>
<path d="M131.847 148.38V148.396L137.514 148.068L132.142 148.371L131.847 148.38Z" fill="#5056C9" fill-opacity="0.39"/>
<path d="M125.818 158.215L145.815 148.183L146.159 148.027L146.118 147.969L131.683 148.79L131.625 148.716L131.527 148.601L131.346 148.864L129.837 151.196L125.589 157.763L125.474 157.96L125.416 158.001L125.334 158.157L125.228 158.321L124.998 158.675H125.088L125.474 158.477L125.818 158.215ZM131.871 148.782L145.257 148.027L126.114 157.591L131.855 148.766L131.871 148.782Z" fill="#5056C9" fill-opacity="0.39"/>
<path d="M130.264 146.532L145.085 147.509L145.068 147.493L130.264 146.532Z" fill="#5056C9" fill-opacity="0.39"/>
<path d="M129.78 146.664L129.928 146.836V146.779L129.837 146.508L129.624 146.491L129.78 146.664Z" fill="#5056C9" fill-opacity="0.39"/>
<path d="M142.952 147.747L137.515 148.068L131.847 148.396V148.38L131.371 147.821L130.568 146.951L130.01 146.918L130.067 146.976L131.396 148.453L131.527 148.593L131.626 148.716L131.683 148.782L146.118 147.969L146.102 147.953L142.952 147.747Z" fill="#5056C9" fill-opacity="0.39"/>
<path d="M147.373 148.035L146.7 147.747L146.561 147.698L146.471 147.797L146.561 147.986L146.848 148.01L147.373 148.035Z" fill="#5056C9" fill-opacity="0.39"/>
<path d="M127.959 139.76V139.768V139.784L128.033 140.055L128.09 139.981L128.164 139.858L128.148 139.842L127.959 139.76Z" fill="#5056C9" fill-opacity="0.39"/>
<path d="M128.205 140.671L129.181 144.086L129.837 146.508L129.928 146.779V146.836L129.969 146.918H130.01L130.567 146.951L142.952 147.747L146.102 147.953V147.928L145.085 147.509L130.264 146.532L129.591 144.143L128.533 140.441L128.09 140.26L128.205 140.671Z" fill="#5056C9" fill-opacity="0.39"/>
<path d="M136.366 128.266L136.268 128.192L136.251 128.176L136.268 128.209L136.809 129.268L141.287 133.479L150.728 142.395L147.71 145.802L146.274 147.411L146.471 147.797L146.561 147.698L146.701 147.55L148.292 145.728L151.138 142.51L151.253 142.395L151.269 142.362L151.154 142.247L150.982 142.091L150.925 142.05L136.498 128.422L136.366 128.266Z" fill="#5056C9" fill-opacity="0.39"/>
<path d="M135.406 127.347L135.882 128.274L136.062 127.995L135.406 127.347Z" fill="#5056C9" fill-opacity="0.39"/>
<path d="M146.159 147.953L146.102 147.928V147.953L146.118 147.969L146.159 148.026L146.184 148.109L146.25 148.035L146.291 148.01L146.159 147.953Z" fill="#5056C9" fill-opacity="0.39"/>
<path d="M146.471 147.797L146.274 147.411L136.809 129.268L136.268 128.209L136.202 128.036L136.145 127.905V127.954L135.956 128.233L135.628 128.71L128.394 139.587L128.238 139.817L128.164 139.94L128.107 140.014L128.041 140.162L128.164 140.219L128.607 140.4L145.142 147.436L146.159 147.854H146.217L146.348 147.912L146.701 148.051L146.619 147.887L146.471 147.797ZM145.79 147.362L128.566 140.014L136.054 128.767L136.112 128.693L136.399 129.235L145.823 147.362H145.79Z" fill="#5056C9" fill-opacity="0.39"/>
<path d="M164.958 13.5459L165.442 22.4861L164.958 13.5459Z" fill="#5056C9" fill-opacity="0.39"/>
<path d="M143.297 3.49727L142.739 3.8667L142.838 3.97343L158.873 17.1087L143.051 4.12941L149.12 0H148.44L144.97 2.33972L143.297 3.49727Z" fill="#5056C9" fill-opacity="0.39"/>
<path d="M165.861 22.527L165.803 21.4187L165.861 22.527Z" fill="#5056C9" fill-opacity="0.39"/>
<path d="M142.493 4.03101L142.395 4.09668L142.468 4.15415L142.526 4.21162L142.493 4.03101Z" fill="#5056C9" fill-opacity="0.39"/>
<path d="M166.418 22.5847L169.633 19.8345L166.418 22.5847Z" fill="#5056C9" fill-opacity="0.39"/>
<path d="M165.59 23.2987L165.54 23.2002L165.483 23.2166L165.499 23.3562L165.59 23.2987Z" fill="#5056C9" fill-opacity="0.39"/>
<path d="M165.442 22.486L165.688 22.683L172.701 16.7064L165.86 22.527L165.803 21.4187L164.581 0H164.187L164.958 13.5458L165.442 22.486Z" fill="#5056C9" fill-opacity="0.39"/>
<path d="M166.098 23.6026L166.09 23.5862L168.805 31.7711L166.098 23.6026Z" fill="#5056C9" fill-opacity="0.39"/>
<path d="M166.09 23.0525L178.524 34.1436L166.098 23.0525H166.09Z" fill="#5056C9" fill-opacity="0.39"/>
<path d="M166.549 26.1803L165.541 23.2002L165.59 23.2987L166.549 26.1803Z" fill="#5056C9" fill-opacity="0.39"/>
<path d="M170.281 36.196L179 36.5244V36.1385L170.15 35.7937L170.281 36.196Z" fill="#5056C9" fill-opacity="0.39"/>
<path d="M169.863 36.155V36.1797H169.896L169.953 36.1961H169.994L169.937 36.1797L169.863 36.155Z" fill="#5056C9" fill-opacity="0.39"/>
<path d="M165.688 22.6994V22.683L165.442 22.4859L165.253 22.2971L165.27 22.3546L165.688 22.6994Z" fill="#5056C9" fill-opacity="0.39"/>
<path d="M165.934 23.0854L166.09 23.5861L166.098 23.6026L179 35.0795V34.5459L178.524 34.1436L166.09 23.0525H166.098L179 20.0889L165.934 23.0854Z" fill="#5056C9" fill-opacity="0.39"/>
<path d="M148.554 27.9865L148.234 28.085V28.1014L160.759 24.2429L148.554 27.9865Z" fill="#5056C9" fill-opacity="0.39"/>
<path d="M147.71 28.397L147.792 28.4298L147.833 28.4544L147.931 28.4873L147.923 28.3724L147.865 28.2L147.562 28.2903L147.48 28.3149L147.71 28.397Z" fill="#5056C9" fill-opacity="0.39"/>
<path d="M156.986 25.8192L165.483 23.2168L165.54 23.2004L166.549 26.1805L169.65 35.564L169.699 35.6707L169.592 35.6379L148.735 28.3478L148.103 28.5448L148.374 28.6269L169.863 36.1551L169.937 36.1797L169.994 36.1961L170.322 36.311L170.281 36.1961L170.15 35.7938L168.805 31.7712L166.09 23.5862L165.934 23.0854L165.745 23.1265L156.986 25.8192Z" fill="#5056C9" fill-opacity="0.39"/>
<path d="M142.526 4.21166L142.583 4.44153L147.808 27.9701L147.865 28.2L147.922 28.3724V28.4873V28.5858H148.054L148.685 28.3888L156.936 25.8603L165.729 23.1265L164.909 23.3317L165.532 22.7981L165.68 22.6996L165.261 22.3548L158.864 17.1089L142.829 3.97359L142.763 3.86686L142.69 3.8094L142.419 3.59595L142.493 3.94075V4.03105L142.526 4.21166ZM148.267 28.1015V28.003L143.026 4.63035L165.261 22.872L160.808 24.243L148.267 28.1015Z" fill="#5056C9" fill-opacity="0.39"/>
<path d="M165.688 22.683V22.6995L165.541 22.798L164.909 23.3316L165.746 23.1264L165.934 23.0853L179 20.0888V19.6866L166.418 22.5845L169.634 19.8343L179 11.8957V11.3621L172.701 16.7065L165.688 22.683Z" fill="#5056C9" fill-opacity="0.39"/>
<path d="M74.3676 108.531L74.2937 108.333L74.2363 108.489L74.4168 108.736L74.4414 108.76L74.3676 108.531Z" fill="#5056C9" fill-opacity="0.39"/>
</g>
<path opacity="0.4" d="M156.272 73.3113C156.281 72.9965 156.381 72.6912 156.562 72.4334C156.742 72.1755 156.995 71.9768 157.288 71.8619C157.581 71.747 157.901 71.7211 158.208 71.7874C158.516 71.8537 158.797 72.0093 159.017 72.2348C159.236 72.4602 159.384 72.7454 159.443 73.0548C159.501 73.3642 159.467 73.6839 159.345 73.9741C159.223 74.2642 159.018 74.5118 158.756 74.686C158.494 74.8601 158.186 74.9531 157.872 74.9532C157.658 74.9533 157.447 74.9105 157.25 74.8275C157.053 74.7445 156.875 74.6229 156.726 74.4699C156.577 74.3169 156.46 74.1355 156.382 73.9365C156.304 73.7375 156.267 73.5249 156.272 73.3113Z" fill="#5056C9" fill-opacity="0.39"/>
<path opacity="0.4" d="M131.33 86.3481C131.338 86.0334 131.439 85.728 131.619 85.4702C131.8 85.2124 132.052 85.0136 132.345 84.8987C132.638 84.7838 132.958 84.7579 133.266 84.8243C133.573 84.8906 133.855 85.0462 134.074 85.2716C134.294 85.4971 134.442 85.7823 134.5 86.0917C134.559 86.401 134.525 86.7208 134.403 87.0109C134.281 87.3011 134.076 87.5487 133.814 87.7229C133.552 87.897 133.244 87.99 132.93 87.9901C132.716 87.9901 132.505 87.9474 132.308 87.8644C132.111 87.7814 131.933 87.6598 131.784 87.5068C131.635 87.3537 131.518 87.1724 131.44 86.9734C131.362 86.7744 131.325 86.5618 131.33 86.3481Z" fill="#5056C9" fill-opacity="0.39"/>
<path opacity="0.4" d="M95.1348 91.2493C95.1428 90.9345 95.2434 90.6291 95.424 90.3713C95.6046 90.1135 95.8571 89.9147 96.15 89.7999C96.4428 89.685 96.7631 89.6591 97.0706 89.7254C97.3781 89.7917 97.6592 89.9473 97.8788 90.1728C98.0984 90.3982 98.2467 90.6834 98.3051 90.9928C98.3636 91.3022 98.3296 91.6219 98.2075 91.912C98.0853 92.2022 97.8804 92.4498 97.6183 92.624C97.3563 92.7981 97.0487 92.8911 96.7342 92.8912C96.3062 92.8805 95.8995 92.7028 95.6006 92.396C95.3018 92.0892 95.1346 91.6777 95.1348 91.2493Z" fill="#5056C9" fill-opacity="0.39"/>
<path opacity="0.4" d="M102.065 76.4803C102.066 76.1538 102.163 75.8348 102.345 75.5639C102.527 75.2931 102.786 75.0828 103.088 74.9598C103.39 74.8368 103.722 74.8068 104.041 74.8736C104.361 74.9403 104.653 75.1008 104.88 75.3346C105.108 75.5683 105.261 75.8647 105.32 76.1859C105.378 76.507 105.34 76.8384 105.209 77.1376C105.079 77.4368 104.862 77.6903 104.587 77.8656C104.312 78.041 103.991 78.1303 103.665 78.1222C103.237 78.1115 102.83 77.9338 102.531 77.627C102.232 77.3202 102.065 76.9087 102.065 76.4803Z" fill="#5056C9" fill-opacity="0.39"/>
<path opacity="0.4" d="M138.285 53.1898C139.169 53.1898 139.885 52.473 139.885 51.5889C139.885 50.7048 139.169 49.988 138.285 49.988C137.402 49.988 136.686 50.7048 136.686 51.5889C136.686 52.473 137.402 53.1898 138.285 53.1898Z" fill="#5056C9" fill-opacity="0.39"/>
<path opacity="0.4" d="M146.364 28.5857C146.364 28.2593 146.462 27.9402 146.644 27.6694C146.826 27.3986 147.085 27.1883 147.387 27.0653C147.689 26.9423 148.021 26.9123 148.34 26.979C148.659 27.0458 148.951 27.2063 149.179 27.44C149.407 27.6738 149.56 27.9702 149.618 28.2913C149.677 28.6125 149.639 28.9438 149.508 29.243C149.378 29.5422 149.161 29.7957 148.886 29.9711C148.611 30.1465 148.29 30.2358 147.964 30.2276C147.75 30.2277 147.539 30.185 147.342 30.102C147.145 30.019 146.967 29.8974 146.818 29.7443C146.669 29.5913 146.552 29.41 146.474 29.211C146.396 29.012 146.359 28.7994 146.364 28.5857Z" fill="#5056C9" fill-opacity="0.39"/>
<path opacity="0.4" d="M154.247 44.2331C154.247 43.9183 154.34 43.6105 154.514 43.3482C154.688 43.0859 154.935 42.8808 155.225 42.7585C155.515 42.6362 155.834 42.6022 156.143 42.6607C156.452 42.7192 156.737 42.8677 156.963 43.0875C157.188 43.3073 157.343 43.5886 157.409 43.8964C157.476 44.2042 157.45 44.5247 157.335 44.8179C157.22 45.111 157.022 45.3638 156.764 45.5445C156.507 45.7252 156.201 45.8259 155.887 45.834C155.459 45.8341 155.048 45.6668 154.741 45.3677C154.435 45.0686 154.257 44.6615 154.247 44.2331Z" fill="#5056C9" fill-opacity="0.39"/>
<path opacity="0.4" d="M168.337 36.2698C168.345 35.955 168.446 35.6497 168.627 35.3918C168.807 35.134 169.06 34.9353 169.353 34.8204C169.645 34.7055 169.966 34.6796 170.273 34.7459C170.581 34.8122 170.862 34.9678 171.081 35.1933C171.301 35.4187 171.449 35.7039 171.508 36.0133C171.566 36.3227 171.532 36.6424 171.41 36.9326C171.288 37.2227 171.083 37.4703 170.821 37.6445C170.559 37.8186 170.251 37.9116 169.937 37.9117C169.509 37.901 169.102 37.7233 168.803 37.4165C168.504 37.1097 168.337 36.6982 168.337 36.2698Z" fill="#5056C9" fill-opacity="0.39"/>
<path opacity="0.4" d="M105.248 7.35575C105.248 7.02929 105.345 6.71026 105.527 6.43944C105.709 6.16861 105.968 5.95827 106.27 5.8353C106.572 5.71232 106.904 5.68229 107.223 5.74904C107.543 5.8158 107.835 5.9763 108.062 6.21005C108.29 6.4438 108.443 6.74018 108.502 7.06134C108.56 7.38249 108.522 7.71384 108.391 8.01305C108.261 8.31226 108.044 8.56575 107.769 8.74113C107.494 8.91651 107.173 9.00583 106.847 8.99767C106.633 8.99774 106.422 8.95501 106.225 8.872C106.029 8.789 105.85 8.66739 105.701 8.51436C105.552 8.36134 105.435 8.17998 105.357 7.98099C105.279 7.782 105.242 7.56941 105.248 7.35575Z" fill="#5056C9" fill-opacity="0.39"/>
<path opacity="0.4" d="M94.9131 24.99C94.9212 24.6752 95.0218 24.3699 95.2024 24.1121C95.3829 23.8543 95.6355 23.6555 95.9283 23.5406C96.2212 23.4257 96.5414 23.3998 96.8489 23.4661C97.1564 23.5324 97.4375 23.688 97.6571 23.9135C97.8767 24.1389 98.025 24.4242 98.0835 24.7335C98.142 25.0429 98.108 25.3626 97.9858 25.6528C97.8636 25.9429 97.6587 26.1905 97.3967 26.3647C97.1346 26.5389 96.8271 26.6318 96.5125 26.6319C96.299 26.632 96.0876 26.5892 95.8908 26.5062C95.694 26.4232 95.5159 26.3016 95.3668 26.1486C95.2178 25.9956 95.1008 25.8142 95.0229 25.6152C94.945 25.4162 94.9076 25.2036 94.9131 24.99Z" fill="#5056C9" fill-opacity="0.39"/>
<path opacity="0.4" d="M70.8076 46.5565C70.8076 46.2317 70.9038 45.9143 71.0841 45.6443C71.2643 45.3743 71.5205 45.1638 71.8203 45.0395C72.12 44.9153 72.4498 44.8827 72.7681 44.9461C73.0863 45.0095 73.3785 45.1658 73.6079 45.3955C73.8374 45.6251 73.9936 45.9176 74.0569 46.2361C74.1202 46.5546 74.0877 46.8848 73.9636 47.1848C73.8394 47.4848 73.6291 47.7412 73.3594 47.9217C73.0896 48.1021 72.7725 48.1984 72.448 48.1984C72.013 48.1984 71.5957 48.0254 71.2881 47.7175C70.9804 47.4096 70.8076 46.9919 70.8076 46.5565Z" fill="#5056C9" fill-opacity="0.39"/>
<path opacity="0.4" d="M46.4068 71.3329C46.3986 71.0065 46.4879 70.6851 46.6631 70.4098C46.8383 70.1344 47.0916 69.9176 47.3905 69.787C47.6894 69.6564 48.0205 69.618 48.3413 69.6766C48.6622 69.7352 48.9583 69.8883 49.1918 70.1162C49.4254 70.3441 49.5857 70.6365 49.6524 70.9561C49.7191 71.2757 49.6891 71.6079 49.5662 71.9103C49.4434 72.2127 49.2332 72.4716 48.9626 72.6539C48.6921 72.8362 48.3733 72.9336 48.0472 72.9337C47.6191 72.9339 47.208 72.7665 46.9015 72.4674C46.595 72.1683 46.4175 71.7612 46.4068 71.3329Z" fill="#5056C9" fill-opacity="0.39"/>
<path opacity="0.4" d="M33.9971 14.2188C33.9889 13.8925 34.0782 13.5711 34.2534 13.2957C34.4286 13.0204 34.6819 12.8036 34.9808 12.673C35.2797 12.5424 35.6108 12.504 35.9316 12.5626C36.2525 12.6212 36.5486 12.7743 36.7821 13.0022C37.0157 13.2301 37.176 13.5225 37.2427 13.8421C37.3094 14.1616 37.2794 14.4939 37.1566 14.7963C37.0337 15.0987 36.8235 15.3576 36.553 15.5399C36.2824 15.7222 35.9637 15.8196 35.6375 15.8197C35.424 15.8252 35.2116 15.7878 35.0128 15.7098C34.814 15.6318 34.6328 15.5148 34.4799 15.3656C34.3271 15.2164 34.2056 15.0381 34.1226 14.8411C34.0397 14.6442 33.997 14.4326 33.9971 14.2188Z" fill="#5056C9" fill-opacity="0.39"/>
<path opacity="0.4" d="M135.185 127.938C135.185 127.611 135.283 127.292 135.465 127.021C135.647 126.751 135.905 126.54 136.208 126.417C136.51 126.294 136.842 126.264 137.161 126.331C137.48 126.398 137.772 126.558 138 126.792C138.228 127.026 138.381 127.322 138.439 127.643C138.498 127.965 138.459 128.296 138.329 128.595C138.198 128.894 137.982 129.148 137.707 129.323C137.432 129.499 137.111 129.588 136.784 129.58C136.571 129.58 136.36 129.537 136.163 129.454C135.966 129.371 135.788 129.249 135.639 129.096C135.49 128.943 135.373 128.762 135.295 128.563C135.217 128.364 135.18 128.151 135.185 127.938Z" fill="#5056C9" fill-opacity="0.39"/>
<path opacity="0.4" d="M153.426 110.222C153.418 109.895 153.507 109.574 153.683 109.298C153.858 109.023 154.111 108.806 154.41 108.676C154.709 108.545 155.04 108.507 155.361 108.565C155.682 108.624 155.978 108.777 156.211 109.005C156.445 109.233 156.605 109.525 156.672 109.845C156.739 110.164 156.709 110.497 156.586 110.799C156.463 111.101 156.253 111.36 155.982 111.543C155.712 111.725 155.393 111.822 155.067 111.822C154.853 111.828 154.641 111.791 154.442 111.713C154.243 111.635 154.062 111.517 153.909 111.368C153.756 111.219 153.635 111.041 153.552 110.844C153.469 110.647 153.426 110.435 153.426 110.222Z" fill="#5056C9" fill-opacity="0.39"/>
<path opacity="0.4" d="M169.945 122.987C169.945 122.661 170.042 122.342 170.224 122.071C170.406 121.8 170.665 121.59 170.967 121.467C171.269 121.344 171.601 121.314 171.921 121.381C172.24 121.447 172.532 121.608 172.76 121.842C172.987 122.075 173.14 122.372 173.199 122.693C173.258 123.014 173.219 123.345 173.089 123.645C172.958 123.944 172.742 124.197 172.466 124.373C172.191 124.548 171.87 124.637 171.544 124.629C171.116 124.619 170.71 124.441 170.411 124.134C170.112 123.827 169.945 123.416 169.945 122.987Z" fill="#5056C9" fill-opacity="0.39"/>
<path opacity="0.4" d="M108.184 92.0949C108.192 91.7819 108.292 91.4782 108.471 91.2213C108.65 90.9645 108.9 90.7657 109.19 90.6497C109.481 90.5336 109.799 90.5054 110.105 90.5685C110.412 90.6315 110.693 90.7831 110.914 91.0045C111.135 91.2259 111.287 91.5073 111.35 91.814C111.413 92.1207 111.384 92.4391 111.268 92.7299C111.153 93.0206 110.954 93.271 110.697 93.45C110.441 93.629 110.137 93.7287 109.825 93.7368C109.608 93.7425 109.392 93.7039 109.19 93.6233C108.989 93.5428 108.806 93.4221 108.652 93.2685C108.499 93.1149 108.378 92.9316 108.298 92.7299C108.217 92.5281 108.178 92.3121 108.184 92.0949Z" fill="#5056C9" fill-opacity="0.39"/>
<path opacity="0.4" d="M124.834 68.5826C124.834 68.2561 124.931 67.9371 125.114 67.6662C125.296 67.3954 125.554 67.1851 125.856 67.0621C126.159 66.9391 126.491 66.9091 126.81 66.9759C127.129 67.0426 127.421 67.2031 127.649 67.4369C127.877 67.6706 128.03 67.967 128.088 68.2881C128.147 68.6093 128.108 68.9406 127.978 69.2399C127.847 69.5391 127.631 69.7926 127.356 69.9679C127.081 70.1433 126.759 70.2326 126.433 70.2245C126.22 70.2245 126.008 70.1818 125.812 70.0988C125.615 70.0158 125.437 69.8942 125.288 69.7412C125.139 69.5881 125.022 69.4068 124.944 69.2078C124.866 69.0088 124.829 68.7962 124.834 68.5826Z" fill="#5056C9" fill-opacity="0.39"/>
<path opacity="0.4" d="M79.7397 79.6492C79.7478 79.3344 79.8484 79.0291 80.029 78.7712C80.2096 78.5134 80.4621 78.3146 80.755 78.1998C81.0478 78.0849 81.368 78.059 81.6755 78.1253C81.983 78.1916 82.2642 78.3472 82.4838 78.5727C82.7034 78.7981 82.8517 79.0833 82.9101 79.3927C82.9686 79.7021 82.9346 80.0218 82.8124 80.312C82.6903 80.6021 82.4853 80.8497 82.2233 81.0239C81.9612 81.198 81.6537 81.291 81.3391 81.2911C80.9112 81.2804 80.5044 81.1027 80.2056 80.7959C79.9068 80.4891 79.7396 80.0776 79.7397 79.6492Z" fill="#5056C9" fill-opacity="0.39"/>
<path opacity="0.4" d="M118.256 138.134C119.139 138.134 119.856 137.417 119.856 136.533C119.856 135.649 119.139 134.932 118.256 134.932C117.373 134.932 116.657 135.649 116.657 136.533C116.657 137.417 117.373 138.134 118.256 138.134Z" fill="#5056C9" fill-opacity="0.39"/>
<path opacity="0.4" d="M128.673 146.533C128.673 146.216 128.767 145.906 128.942 145.643C129.118 145.38 129.368 145.175 129.66 145.054C129.952 144.932 130.274 144.901 130.584 144.962C130.895 145.024 131.179 145.177 131.403 145.401C131.627 145.624 131.779 145.91 131.841 146.22C131.903 146.531 131.871 146.853 131.75 147.145C131.629 147.438 131.424 147.688 131.161 147.864C130.898 148.039 130.589 148.133 130.272 148.133C129.848 148.133 129.441 147.965 129.141 147.664C128.841 147.364 128.673 146.957 128.673 146.533Z" fill="#5056C9" fill-opacity="0.39"/>
<path opacity="0.4" d="M144.675 147.239C144.683 146.924 144.784 146.618 144.964 146.361C145.145 146.103 145.397 145.904 145.69 145.789C145.983 145.674 146.303 145.648 146.611 145.715C146.918 145.781 147.199 145.937 147.419 146.162C147.638 146.387 147.787 146.673 147.845 146.982C147.904 147.291 147.87 147.611 147.748 147.901C147.625 148.191 147.42 148.439 147.158 148.613C146.896 148.787 146.589 148.88 146.274 148.88C146.061 148.881 145.849 148.838 145.653 148.755C145.456 148.672 145.278 148.55 145.129 148.397C144.979 148.244 144.863 148.063 144.785 147.864C144.707 147.665 144.669 147.452 144.675 147.239Z" fill="#5056C9" fill-opacity="0.39"/>
<path opacity="0.4" d="M162.268 161.137C162.268 160.813 162.364 160.495 162.545 160.225C162.725 159.955 162.981 159.745 163.281 159.62C163.58 159.496 163.91 159.464 164.228 159.527C164.547 159.59 164.839 159.747 165.068 159.976C165.298 160.206 165.454 160.498 165.517 160.817C165.581 161.135 165.548 161.466 165.424 161.766C165.3 162.066 165.09 162.322 164.82 162.502C164.55 162.683 164.233 162.779 163.908 162.779C163.473 162.779 163.056 162.606 162.749 162.298C162.441 161.99 162.268 161.573 162.268 161.137Z" fill="#5056C9" fill-opacity="0.39"/>
<path opacity="0.4" d="M150.219 143.257C150.219 142.932 150.315 142.614 150.496 142.344C150.676 142.074 150.932 141.864 151.232 141.74C151.532 141.615 151.861 141.583 152.18 141.646C152.498 141.71 152.79 141.866 153.02 142.096C153.249 142.325 153.405 142.618 153.469 142.936C153.532 143.255 153.499 143.585 153.375 143.885C153.251 144.185 153.041 144.441 152.771 144.622C152.501 144.802 152.184 144.899 151.86 144.899C151.425 144.899 151.007 144.726 150.7 144.418C150.392 144.11 150.219 143.692 150.219 143.257Z" fill="#5056C9" fill-opacity="0.39"/>
<path opacity="0.4" d="M158.618 122.503C158.626 122.188 158.727 121.883 158.907 121.625C159.088 121.367 159.341 121.168 159.633 121.054C159.926 120.939 160.247 120.913 160.554 120.979C160.862 121.045 161.143 121.201 161.362 121.426C161.582 121.652 161.73 121.937 161.789 122.246C161.847 122.556 161.813 122.876 161.691 123.166C161.569 123.456 161.364 123.703 161.102 123.878C160.84 124.052 160.532 124.145 160.218 124.145C160.004 124.145 159.793 124.102 159.596 124.019C159.399 123.936 159.221 123.815 159.072 123.662C158.923 123.509 158.806 123.327 158.728 123.128C158.65 122.929 158.613 122.717 158.618 122.503Z" fill="#5056C9" fill-opacity="0.39"/>
<path opacity="0.4" d="M73.9903 95.3458C73.9821 95.0194 74.0714 94.6981 74.2466 94.4227C74.4218 94.1473 74.675 93.9305 74.974 93.7999C75.2729 93.6693 75.604 93.6309 75.9248 93.6895C76.2457 93.7482 76.5418 93.9012 76.7753 94.1291C77.0088 94.3571 77.1692 94.6495 77.2359 94.969C77.3026 95.2886 77.2726 95.6208 77.1497 95.9232C77.0268 96.2257 76.8167 96.4846 76.5461 96.6668C76.2756 96.8491 75.9568 96.9466 75.6307 96.9467C75.2026 96.9468 74.7915 96.7795 74.485 96.4804C74.1785 96.1813 74.001 95.7741 73.9903 95.3458Z" fill="#5056C9" fill-opacity="0.39"/>
<path opacity="0.4" d="M37.2124 36.0071C37.2124 35.6824 37.3086 35.365 37.4889 35.0949C37.6691 34.8249 37.9253 34.6145 38.2251 34.4902C38.5248 34.3659 38.8546 34.3334 39.1728 34.3968C39.491 34.4601 39.7833 34.6165 40.0127 34.8461C40.2421 35.0758 40.3984 35.3683 40.4617 35.6868C40.525 36.0053 40.4925 36.3355 40.3683 36.6355C40.2442 36.9355 40.0339 37.1919 39.7642 37.3723C39.4944 37.5528 39.1772 37.6491 38.8528 37.6491C38.4177 37.6491 38.0005 37.4761 37.6929 37.1682C37.3852 36.8602 37.2124 36.4426 37.2124 36.0071Z" fill="#5056C9" fill-opacity="0.39"/>
<path opacity="0.4" d="M79.1411 56.8757C79.1492 56.561 79.2498 56.2556 79.4304 55.9978C79.6109 55.74 79.8635 55.5412 80.1563 55.4263C80.4492 55.3114 80.7694 55.2855 81.0769 55.3518C81.3844 55.4182 81.6656 55.5738 81.8852 55.7992C82.1047 56.0247 82.253 56.3099 82.3115 56.6193C82.37 56.9286 82.336 57.2484 82.2138 57.5385C82.0917 57.8287 81.8867 58.0763 81.6247 58.2504C81.3626 58.4246 81.0551 58.5175 80.7405 58.5176C80.3126 58.5069 79.9058 58.3292 79.607 58.0225C79.3082 57.7157 79.141 57.3042 79.1411 56.8757Z" fill="#5056C9" fill-opacity="0.39"/>
<path opacity="0.4" d="M98.0708 41.836C98.0709 41.5095 98.1683 41.1905 98.3504 40.9197C98.5325 40.6488 98.7912 40.4385 99.0933 40.3155C99.3954 40.1925 99.7274 40.1625 100.047 40.2293C100.366 40.296 100.658 40.4565 100.886 40.6903C101.113 40.924 101.266 41.2204 101.325 41.5416C101.384 41.8627 101.345 42.1941 101.215 42.4933C101.084 42.7925 100.868 43.046 100.592 43.2214C100.317 43.3967 99.9963 43.4861 99.6702 43.4779C99.4567 43.478 99.2453 43.4352 99.0485 43.3522C98.8518 43.2692 98.6736 43.1476 98.5245 42.9946C98.3755 42.8416 98.2585 42.6602 98.1806 42.4612C98.1027 42.2622 98.0654 42.0496 98.0708 41.836Z" fill="#5056C9" fill-opacity="0.39"/>
</g>
<defs>
<clipPath id="clip0_522_9816">
<rect width="179" height="173" fill="white"/>
</clipPath>
</defs>
</svg>
